<?xml version="1.0" encoding="UTF-8" standalone="no"?>
<!DOCTYPE svg PUBLIC "-//W3C//DTD SVG 1.1//EN" "http://www.w3.org/Graphics/SVG/1.1/DTD/svg11.dtd">
<svg xmlns="http://www.w3.org/2000/svg" xmlns:xlink="http://www.w3.org/1999/xlink" version="1.1" width="55.36111pt" height="332.08335pt" viewBox="0 0 55.36111 332.08335">
<g enable-background="new">
<path transform="matrix(.27777777,0,0,-.27777777,0,332.08335)" d="M 39.6016 311.668 L 69.4883 276.801 L 54.543 311.668 L 69.4883 346.539 L 39.6016 311.668 "/>
<path transform="matrix(.27777777,0,0,-.27777777,0,332.08335)" d="M 25.1992 510.871 L 55.0898 476 L 40.1445 510.871 L 55.0898 545.738 L 25.1992 510.871 "/>
<path transform="matrix(.27777777,0,0,-.27777777,0,332.08335)" d="M 45.125 510.871 L 75.0117 476 L 60.0703 510.871 L 75.0117 545.738 L 45.125 510.871 "/>
<path transform="matrix(.27777777,0,0,-.27777777,0,332.08335)" d="M 10.8008 710.07 L 40.6875 675.199 L 25.7422 710.07 L 40.6875 744.938 L 10.8008 710.07 "/>
<path transform="matrix(.27777777,0,0,-.27777777,0,332.08335)" d="M 30.7266 710.07 L 60.6133 675.199 L 45.668 710.07 L 60.6133 744.938 L 30.7266 710.07 "/>
<path transform="matrix(.27777777,0,0,-.27777777,0,332.08335)" d="M 50.6523 710.07 L 80.5391 675.199 L 65.5938 710.07 L 80.5391 744.938 L 50.6523 710.07 "/>
<path transform="matrix(.27777777,0,0,-.27777777,0,332.08335)" d="M 15.6016 902.25 L 35.5234 882.324 L 25.5625 902.25 L 35.5234 922.176 L 15.6016 902.25 "/>
<path transform="matrix(.27777777,0,0,-.27777777,0,332.08335)" d="M 35.5234 922.176 L 55.4492 902.25 L 45.4883 922.176 L 55.4492 942.102 L 35.5234 922.176 "/>
<path transform="matrix(.27777777,0,0,-.27777777,0,332.08335)" d="M 55.4492 942.102 L 75.375 922.176 L 65.4141 942.102 L 75.375 962.027 L 55.4492 942.102 "/>
<path transform="matrix(.27777777,0,0,-.27777777,0,332.08335)" d="M 35.5234 882.324 L 55.4492 862.398 L 45.4883 882.324 L 75.375 922.176 L 35.5234 882.324 "/>
<path transform="matrix(.27777777,0,0,-.27777777,0,332.08335)" d="M 15.6016 1101.45 L 35.5234 1081.52 L 25.5625 1101.45 L 35.5234 1121.38 L 15.6016 1101.45 "/>
<path transform="matrix(.27777777,0,0,-.27777777,0,332.08335)" d="M 35.5234 1121.38 L 55.4492 1101.45 L 45.4883 1121.38 L 55.4492 1141.3 L 35.5234 1121.38 "/>
<path transform="matrix(.27777777,0,0,-.27777777,0,332.08335)" d="M 55.4492 1141.3 L 75.375 1121.38 L 65.4141 1141.3 L 75.375 1161.23 L 55.4492 1141.3 "/>
<path transform="matrix(.27777777,0,0,-.27777777,0,332.08335)" d="M 35.5234 1081.52 L 55.4492 1061.6 L 45.4883 1081.52 L 55.4492 1101.45 L 35.5234 1081.52 "/>
<path transform="matrix(.27777777,0,0,-.27777777,0,332.08335)" d="M 55.4492 1101.45 L 75.375 1081.52 L 65.4141 1101.45 L 75.375 1121.38 L 55.4492 1101.45 "/>
</g>
</svg>
