<?xml version="1.0" encoding="UTF-8" standalone="no"?>
<!DOCTYPE svg PUBLIC "-//W3C//DTD SVG 1.1//EN" "http://www.w3.org/Graphics/SVG/1.1/DTD/svg11.dtd">
<svg xmlns="http://www.w3.org/2000/svg" xmlns:xlink="http://www.w3.org/1999/xlink" version="1.1" width="55.36111pt" height="553.4722pt" viewBox="0 0 55.36111 553.4722">
<g enable-background="new">
<path transform="matrix(.27777777,0,0,-.27777777,0,553.4722)" d="M 115.199 346.266 L 145.09 346.266 L 130.145 331.32 " fill="#ffffff"/>
<path transform="matrix(.27777777,0,0,-.27777777,0,553.4722)" stroke-width="2.49066" stroke-linecap="butt" stroke-miterlimit="10" stroke-linejoin="miter" fill="none" stroke="#ffffff" d="M 130.145 333.809 L 130.145 256.602 "/>
<path transform="matrix(.27777777,0,0,-.27777777,0,553.4722)" d="M 99.6016 545.465 L 129.488 545.465 L 114.543 530.52 " fill="#ffffff"/>
<path transform="matrix(.27777777,0,0,-.27777777,0,553.4722)" stroke-width="2.49066" stroke-linecap="butt" stroke-miterlimit="10" stroke-linejoin="miter" fill="none" stroke="#ffffff" d="M 114.543 533.012 L 114.543 455.801 "/>
<path transform="matrix(.27777777,0,0,-.27777777,0,553.4722)" d="M 129.488 545.465 L 159.375 545.465 L 144.434 530.52 " fill="#ffffff"/>
<path transform="matrix(.27777777,0,0,-.27777777,0,553.4722)" stroke-width="2.49066" stroke-linecap="butt" stroke-miterlimit="10" stroke-linejoin="miter" fill="none" stroke="#ffffff" d="M 144.434 533.012 L 144.434 455.801 "/>
<path transform="matrix(.27777777,0,0,-.27777777,0,553.4722)" d="M 85.1992 744.664 L 115.09 744.664 L 100.145 729.719 " fill="#ffffff"/>
<path transform="matrix(.27777777,0,0,-.27777777,0,553.4722)" stroke-width="2.49066" stroke-linecap="butt" stroke-miterlimit="10" stroke-linejoin="miter" fill="none" stroke="#ffffff" d="M 100.145 732.211 L 100.145 655 "/>
<path transform="matrix(.27777777,0,0,-.27777777,0,553.4722)" d="M 115.09 744.664 L 144.977 744.664 L 130.031 729.719 " fill="#ffffff"/>
<path transform="matrix(.27777777,0,0,-.27777777,0,553.4722)" stroke-width="2.49066" stroke-linecap="butt" stroke-miterlimit="10" stroke-linejoin="miter" fill="none" stroke="#ffffff" d="M 130.031 732.211 L 130.031 655 "/>
<path transform="matrix(.27777777,0,0,-.27777777,0,553.4722)" d="M 144.977 744.664 L 174.863 744.664 L 159.918 729.719 " fill="#ffffff"/>
<path transform="matrix(.27777777,0,0,-.27777777,0,553.4722)" stroke-width="2.49066" stroke-linecap="butt" stroke-miterlimit="10" stroke-linejoin="miter" fill="none" stroke="#ffffff" d="M 159.918 732.211 L 159.918 655 "/>
<path transform="matrix(.27777777,0,0,-.27777777,0,553.4722)" d="M 85.1992 943.863 L 115.09 943.863 L 100.145 928.918 " fill="#ffffff"/>
<path transform="matrix(.27777777,0,0,-.27777777,0,553.4722)" stroke-width="2.49066" stroke-linecap="butt" stroke-miterlimit="10" stroke-linejoin="miter" fill="none" stroke="#ffffff" d="M 100.145 931.41 L 100.145 913.977 "/>
<path transform="matrix(.27777777,0,0,-.27777777,0,553.4722)" d="M 115.09 943.863 L 144.977 943.863 L 130.031 928.918 " fill="#ffffff"/>
<path transform="matrix(.27777777,0,0,-.27777777,0,553.4722)" stroke-width="2.49066" stroke-linecap="butt" stroke-miterlimit="10" stroke-linejoin="miter" fill="none" stroke="#ffffff" d="M 130.031 931.41 L 130.031 913.977 "/>
<path transform="matrix(.27777777,0,0,-.27777777,0,553.4722)" d="M 144.977 943.863 L 174.863 943.863 L 159.918 928.918 " fill="#ffffff"/>
<path transform="matrix(.27777777,0,0,-.27777777,0,553.4722)" stroke-width="2.49066" stroke-linecap="butt" stroke-miterlimit="10" stroke-linejoin="miter" fill="none" stroke="#ffffff" d="M 159.918 931.41 L 159.918 913.977 "/>
<path transform="matrix(.27777777,0,0,-.27777777,0,553.4722)" d="M 100.145 913.977 L 159.918 913.977 L 130.031 899.031 " fill="#ffffff"/>
<path transform="matrix(.27777777,0,0,-.27777777,0,553.4722)" stroke-width="2.49066" stroke-linecap="butt" stroke-miterlimit="10" stroke-linejoin="miter" fill="none" stroke="#ffffff" d="M 130.031 901.523 L 130.031 854.199 "/>
<path transform="matrix(.27777777,0,0,-.27777777,0,553.4722)" d="M 85.1992 1143.06 L 115.09 1143.06 L 100.145 1128.12 " fill="#ffffff"/>
<path transform="matrix(.27777777,0,0,-.27777777,0,553.4722)" stroke-width="2.49066" stroke-linecap="butt" stroke-miterlimit="10" stroke-linejoin="miter" fill="none" stroke="#ffffff" d="M 100.145 1130.61 L 100.145 1113.18 "/>
<path transform="matrix(.27777777,0,0,-.27777777,0,553.4722)" d="M 115.09 1143.06 L 144.977 1143.06 L 130.031 1128.12 " fill="#ffffff"/>
<path transform="matrix(.27777777,0,0,-.27777777,0,553.4722)" stroke-width="2.49066" stroke-linecap="butt" stroke-miterlimit="10" stroke-linejoin="miter" fill="none" stroke="#ffffff" d="M 130.031 1130.61 L 130.031 1113.18 "/>
<path transform="matrix(.27777777,0,0,-.27777777,0,553.4722)" d="M 144.977 1143.06 L 174.863 1143.06 L 159.918 1128.12 " fill="#ffffff"/>
<path transform="matrix(.27777777,0,0,-.27777777,0,553.4722)" stroke-width="2.49066" stroke-linecap="butt" stroke-miterlimit="10" stroke-linejoin="miter" fill="none" stroke="#ffffff" d="M 159.918 1130.61 L 159.918 1113.18 "/>
<path transform="matrix(.27777777,0,0,-.27777777,0,553.4722)" d="M 100.145 1113.18 L 130.031 1113.18 L 115.09 1098.23 " fill="#ffffff"/>
<path transform="matrix(.27777777,0,0,-.27777777,0,553.4722)" stroke-width="2.49066" stroke-linecap="butt" stroke-miterlimit="10" stroke-linejoin="miter" fill="none" stroke="#ffffff" d="M 115.09 1100.72 L 115.09 1053.4 "/>
<path transform="matrix(.27777777,0,0,-.27777777,0,553.4722)" d="M 130.031 1113.18 L 159.918 1113.18 L 144.977 1098.23 " fill="#ffffff"/>
<path transform="matrix(.27777777,0,0,-.27777777,0,553.4722)" stroke-width="2.49066" stroke-linecap="butt" stroke-miterlimit="10" stroke-linejoin="miter" fill="none" stroke="#ffffff" d="M 144.977 1100.72 L 144.977 1053.4 "/>
<path transform="matrix(.27777777,0,0,-.27777777,0,553.4722)" d="M 85.1992 1342.27 L 115.09 1342.27 L 100.145 1327.32 " fill="#ffffff"/>
<path transform="matrix(.27777777,0,0,-.27777777,0,553.4722)" stroke-width="2.49066" stroke-linecap="butt" stroke-miterlimit="10" stroke-linejoin="miter" fill="none" stroke="#ffffff" d="M 100.145 1329.81 L 100.145 1312.38 "/>
<path transform="matrix(.27777777,0,0,-.27777777,0,553.4722)" d="M 115.09 1342.27 L 144.977 1342.27 L 130.031 1327.32 " fill="#ffffff"/>
<path transform="matrix(.27777777,0,0,-.27777777,0,553.4722)" stroke-width="2.49066" stroke-linecap="butt" stroke-miterlimit="10" stroke-linejoin="miter" fill="none" stroke="#ffffff" d="M 130.031 1329.81 L 130.031 1312.38 "/>
<path transform="matrix(.27777777,0,0,-.27777777,0,553.4722)" d="M 144.977 1342.27 L 174.863 1342.27 L 159.918 1327.32 " fill="#ffffff"/>
<path transform="matrix(.27777777,0,0,-.27777777,0,553.4722)" stroke-width="2.49066" stroke-linecap="butt" stroke-miterlimit="10" stroke-linejoin="miter" fill="none" stroke="#ffffff" d="M 159.918 1329.81 L 159.918 1312.38 "/>
<path transform="matrix(.27777777,0,0,-.27777777,0,553.4722)" d="M 85.1992 1312.38 L 115.09 1312.38 L 100.145 1297.43 " fill="#ffffff"/>
<path transform="matrix(.27777777,0,0,-.27777777,0,553.4722)" stroke-width="2.49066" stroke-linecap="butt" stroke-miterlimit="10" stroke-linejoin="miter" fill="none" stroke="#ffffff" d="M 100.145 1299.92 L 100.145 1252.6 "/>
<path transform="matrix(.27777777,0,0,-.27777777,0,553.4722)" d="M 115.09 1312.38 L 144.977 1312.38 L 130.031 1297.43 " fill="#ffffff"/>
<path transform="matrix(.27777777,0,0,-.27777777,0,553.4722)" stroke-width="2.49066" stroke-linecap="butt" stroke-miterlimit="10" stroke-linejoin="miter" fill="none" stroke="#ffffff" d="M 130.031 1299.92 L 130.031 1252.6 "/>
<path transform="matrix(.27777777,0,0,-.27777777,0,553.4722)" d="M 144.977 1312.38 L 174.863 1312.38 L 159.918 1297.43 " fill="#ffffff"/>
<path transform="matrix(.27777777,0,0,-.27777777,0,553.4722)" stroke-width="2.49066" stroke-linecap="butt" stroke-miterlimit="10" stroke-linejoin="miter" fill="none" stroke="#ffffff" d="M 159.918 1299.92 L 159.918 1252.6 "/>
<path transform="matrix(.27777777,0,0,-.27777777,0,553.4722)" d="M 85.1992 1541.46 L 115.09 1541.46 L 100.145 1526.52 " fill="#ffffff"/>
<path transform="matrix(.27777777,0,0,-.27777777,0,553.4722)" stroke-width="2.49066" stroke-linecap="butt" stroke-miterlimit="10" stroke-linejoin="miter" fill="none" stroke="#ffffff" d="M 100.145 1529.01 L 100.145 1521.54 "/>
<path transform="matrix(.27777777,0,0,-.27777777,0,553.4722)" d="M 115.09 1541.46 L 144.977 1541.46 L 130.031 1526.52 " fill="#ffffff"/>
<path transform="matrix(.27777777,0,0,-.27777777,0,553.4722)" stroke-width="2.49066" stroke-linecap="butt" stroke-miterlimit="10" stroke-linejoin="miter" fill="none" stroke="#ffffff" d="M 130.031 1529.01 L 130.031 1521.54 "/>
<path transform="matrix(.27777777,0,0,-.27777777,0,553.4722)" d="M 144.977 1541.46 L 174.863 1541.46 L 159.918 1526.52 " fill="#ffffff"/>
<path transform="matrix(.27777777,0,0,-.27777777,0,553.4722)" stroke-width="2.49066" stroke-linecap="butt" stroke-miterlimit="10" stroke-linejoin="miter" fill="none" stroke="#ffffff" d="M 159.918 1529.01 L 159.918 1521.54 "/>
<path transform="matrix(.27777777,0,0,-.27777777,0,553.4722)" d="M 85.1992 1521.54 L 115.09 1521.54 L 100.145 1506.59 " fill="#ffffff"/>
<path transform="matrix(.27777777,0,0,-.27777777,0,553.4722)" stroke-width="2.49066" stroke-linecap="butt" stroke-miterlimit="10" stroke-linejoin="miter" fill="none" stroke="#ffffff" d="M 100.145 1509.09 L 100.145 1501.61 "/>
<path transform="matrix(.27777777,0,0,-.27777777,0,553.4722)" d="M 115.09 1521.54 L 144.977 1521.54 L 130.031 1506.59 " fill="#ffffff"/>
<path transform="matrix(.27777777,0,0,-.27777777,0,553.4722)" stroke-width="2.49066" stroke-linecap="butt" stroke-miterlimit="10" stroke-linejoin="miter" fill="none" stroke="#ffffff" d="M 130.031 1509.09 L 130.031 1501.61 "/>
<path transform="matrix(.27777777,0,0,-.27777777,0,553.4722)" d="M 144.977 1521.54 L 174.863 1521.54 L 159.918 1506.59 " fill="#ffffff"/>
<path transform="matrix(.27777777,0,0,-.27777777,0,553.4722)" stroke-width="2.49066" stroke-linecap="butt" stroke-miterlimit="10" stroke-linejoin="miter" fill="none" stroke="#ffffff" d="M 159.918 1509.09 L 159.918 1501.61 "/>
<path transform="matrix(.27777777,0,0,-.27777777,0,553.4722)" d="M 100.145 1501.61 L 159.918 1501.61 L 130.031 1486.67 " fill="#ffffff"/>
<path transform="matrix(.27777777,0,0,-.27777777,0,553.4722)" stroke-width="2.49066" stroke-linecap="butt" stroke-miterlimit="10" stroke-linejoin="miter" fill="none" stroke="#ffffff" d="M 130.031 1489.16 L 130.031 1451.8 "/>
<path transform="matrix(.27777777,0,0,-.27777777,0,553.4722)" d="M 85.1992 1740.66 L 115.09 1740.66 L 100.145 1725.72 " fill="#ffffff"/>
<path transform="matrix(.27777777,0,0,-.27777777,0,553.4722)" stroke-width="2.49066" stroke-linecap="butt" stroke-miterlimit="10" stroke-linejoin="miter" fill="none" stroke="#ffffff" d="M 100.145 1728.21 L 100.145 1720.74 "/>
<path transform="matrix(.27777777,0,0,-.27777777,0,553.4722)" d="M 115.09 1740.66 L 144.977 1740.66 L 130.031 1725.72 " fill="#ffffff"/>
<path transform="matrix(.27777777,0,0,-.27777777,0,553.4722)" stroke-width="2.49066" stroke-linecap="butt" stroke-miterlimit="10" stroke-linejoin="miter" fill="none" stroke="#ffffff" d="M 130.031 1728.21 L 130.031 1720.74 "/>
<path transform="matrix(.27777777,0,0,-.27777777,0,553.4722)" d="M 144.977 1740.66 L 174.863 1740.66 L 159.918 1725.72 " fill="#ffffff"/>
<path transform="matrix(.27777777,0,0,-.27777777,0,553.4722)" stroke-width="2.49066" stroke-linecap="butt" stroke-miterlimit="10" stroke-linejoin="miter" fill="none" stroke="#ffffff" d="M 159.918 1728.21 L 159.918 1720.74 "/>
<path transform="matrix(.27777777,0,0,-.27777777,0,553.4722)" d="M 85.1992 1720.74 L 115.09 1720.74 L 100.145 1705.79 " fill="#ffffff"/>
<path transform="matrix(.27777777,0,0,-.27777777,0,553.4722)" stroke-width="2.49066" stroke-linecap="butt" stroke-miterlimit="10" stroke-linejoin="miter" fill="none" stroke="#ffffff" d="M 100.145 1708.29 L 100.145 1700.81 "/>
<path transform="matrix(.27777777,0,0,-.27777777,0,553.4722)" d="M 115.09 1720.74 L 144.977 1720.74 L 130.031 1705.79 " fill="#ffffff"/>
<path transform="matrix(.27777777,0,0,-.27777777,0,553.4722)" stroke-width="2.49066" stroke-linecap="butt" stroke-miterlimit="10" stroke-linejoin="miter" fill="none" stroke="#ffffff" d="M 130.031 1708.29 L 130.031 1700.81 "/>
<path transform="matrix(.27777777,0,0,-.27777777,0,553.4722)" d="M 144.977 1720.74 L 174.863 1720.74 L 159.918 1705.79 " fill="#ffffff"/>
<path transform="matrix(.27777777,0,0,-.27777777,0,553.4722)" stroke-width="2.49066" stroke-linecap="butt" stroke-miterlimit="10" stroke-linejoin="miter" fill="none" stroke="#ffffff" d="M 159.918 1708.29 L 159.918 1700.81 "/>
<path transform="matrix(.27777777,0,0,-.27777777,0,553.4722)" d="M 100.145 1700.81 L 130.031 1700.81 L 115.09 1685.87 " fill="#ffffff"/>
<path transform="matrix(.27777777,0,0,-.27777777,0,553.4722)" stroke-width="2.49066" stroke-linecap="butt" stroke-miterlimit="10" stroke-linejoin="miter" fill="none" stroke="#ffffff" d="M 115.09 1688.36 L 115.09 1651 "/>
<path transform="matrix(.27777777,0,0,-.27777777,0,553.4722)" d="M 130.031 1700.81 L 159.918 1700.81 L 144.977 1685.87 " fill="#ffffff"/>
<path transform="matrix(.27777777,0,0,-.27777777,0,553.4722)" stroke-width="2.49066" stroke-linecap="butt" stroke-miterlimit="10" stroke-linejoin="miter" fill="none" stroke="#ffffff" d="M 144.977 1688.36 L 144.977 1651 "/>
<path transform="matrix(.27777777,0,0,-.27777777,0,553.4722)" d="M 85.1992 1941.06 L 115.09 1941.06 L 100.145 1926.12 " fill="#ffffff"/>
<path transform="matrix(.27777777,0,0,-.27777777,0,553.4722)" stroke-width="2.49066" stroke-linecap="butt" stroke-miterlimit="10" stroke-linejoin="miter" fill="none" stroke="#ffffff" d="M 100.145 1928.61 L 100.145 1921.14 "/>
<path transform="matrix(.27777777,0,0,-.27777777,0,553.4722)" d="M 115.09 1941.06 L 144.977 1941.06 L 130.031 1926.12 " fill="#ffffff"/>
<path transform="matrix(.27777777,0,0,-.27777777,0,553.4722)" stroke-width="2.49066" stroke-linecap="butt" stroke-miterlimit="10" stroke-linejoin="miter" fill="none" stroke="#ffffff" d="M 130.031 1928.61 L 130.031 1921.14 "/>
<path transform="matrix(.27777777,0,0,-.27777777,0,553.4722)" d="M 144.977 1941.06 L 174.863 1941.06 L 159.918 1926.12 " fill="#ffffff"/>
<path transform="matrix(.27777777,0,0,-.27777777,0,553.4722)" stroke-width="2.49066" stroke-linecap="butt" stroke-miterlimit="10" stroke-linejoin="miter" fill="none" stroke="#ffffff" d="M 159.918 1928.61 L 159.918 1921.14 "/>
<path transform="matrix(.27777777,0,0,-.27777777,0,553.4722)" d="M 85.1992 1921.14 L 115.09 1921.14 L 100.145 1906.2 " fill="#ffffff"/>
<path transform="matrix(.27777777,0,0,-.27777777,0,553.4722)" stroke-width="2.49066" stroke-linecap="butt" stroke-miterlimit="10" stroke-linejoin="miter" fill="none" stroke="#ffffff" d="M 100.145 1908.68 L 100.145 1901.21 "/>
<path transform="matrix(.27777777,0,0,-.27777777,0,553.4722)" d="M 115.09 1921.14 L 144.977 1921.14 L 130.031 1906.2 " fill="#ffffff"/>
<path transform="matrix(.27777777,0,0,-.27777777,0,553.4722)" stroke-width="2.49066" stroke-linecap="butt" stroke-miterlimit="10" stroke-linejoin="miter" fill="none" stroke="#ffffff" d="M 130.031 1908.68 L 130.031 1901.21 "/>
<path transform="matrix(.27777777,0,0,-.27777777,0,553.4722)" d="M 144.977 1921.14 L 174.863 1921.14 L 159.918 1906.2 " fill="#ffffff"/>
<path transform="matrix(.27777777,0,0,-.27777777,0,553.4722)" stroke-width="2.49066" stroke-linecap="butt" stroke-miterlimit="10" stroke-linejoin="miter" fill="none" stroke="#ffffff" d="M 159.918 1908.68 L 159.918 1901.21 "/>
<path transform="matrix(.27777777,0,0,-.27777777,0,553.4722)" d="M 85.1992 1901.21 L 115.09 1901.21 L 100.145 1886.27 " fill="#ffffff"/>
<path transform="matrix(.27777777,0,0,-.27777777,0,553.4722)" stroke-width="2.49066" stroke-linecap="butt" stroke-miterlimit="10" stroke-linejoin="miter" fill="none" stroke="#ffffff" d="M 100.145 1888.76 L 100.145 1851.4 "/>
<path transform="matrix(.27777777,0,0,-.27777777,0,553.4722)" d="M 115.09 1901.21 L 144.977 1901.21 L 130.031 1886.27 " fill="#ffffff"/>
<path transform="matrix(.27777777,0,0,-.27777777,0,553.4722)" stroke-width="2.49066" stroke-linecap="butt" stroke-miterlimit="10" stroke-linejoin="miter" fill="none" stroke="#ffffff" d="M 130.031 1888.76 L 130.031 1851.4 "/>
<path transform="matrix(.27777777,0,0,-.27777777,0,553.4722)" d="M 144.977 1901.21 L 174.863 1901.21 L 159.918 1886.27 " fill="#ffffff"/>
<path transform="matrix(.27777777,0,0,-.27777777,0,553.4722)" stroke-width="2.49066" stroke-linecap="butt" stroke-miterlimit="10" stroke-linejoin="miter" fill="none" stroke="#ffffff" d="M 159.918 1888.76 L 159.918 1851.4 "/>
</g>
</svg>
