<?xml version="1.0" encoding="UTF-8" standalone="no"?>
<!DOCTYPE svg PUBLIC "-//W3C//DTD SVG 1.1//EN" "http://www.w3.org/Graphics/SVG/1.1/DTD/svg11.dtd">
<svg xmlns="http://www.w3.org/2000/svg" xmlns:xlink="http://www.w3.org/1999/xlink" version="1.1" width="55.36111pt" height="110.694438pt" viewBox="0 0 55.36111 110.694438">
<g enable-background="new">
<symbol id="font_0_1">
<path d="M .223 .72200009 C .15200001 .71300008 .082 .69500008 .039000006 .609 C .001000002 .535 0 .444 0 .364 L 0 .31 C 0 .165 .038000004 0 .244 0 C .338 0 .417 .040000004 .454 .133 C .481 .20300001 .48299999 .279 .48299999 .352 C .48299999 .51100006 .476 .72300007 .24000003 .72300007 C .23400001 .72300007 .22900002 .72200009 .223 .72200009 M .12300001 .303 C .12200001 .311 .12200001 .319 .12200001 .327 C .12200001 .387 .12200001 .447 .127 .50600007 C .132 .56900009 .15 .65800008 .24100001 .65800008 C .34100003 .65800008 .361 .549 .361 .451 C .361 .42900003 .36 .409 .36 .39000003 L .36 .338 C .36 .22000002 .356 .064 .24100001 .064 C .12200001 .064 .13100001 .21900001 .12300001 .303 Z "/>
</symbol>
<symbol id="font_0_2">
<path d="M .15 .59200009 L .15 .061000006 L .040000008 .061000006 C .018 .061000006 .0059999974 .050000006 .0059999974 .030000002 C .0059999974 .011 .018 0 .040000008 0 L .38000003 0 C .397 .0019999999 .40300004 .016 .40300004 .032 C .40300004 .049000004 .393 .062000004 .37 .062000004 C .363 .062000004 .35700003 .061000006 .351 .061000006 L .272 .061000006 L .272 .6750001 C .272 .70000007 .254 .70400008 .23700002 .70400008 C .20700002 .70400008 .192 .67800006 .16800002 .665 C .12900001 .64400008 .08400001 .637 .040000008 .63600006 C .021000006 .63600006 0 .63400009 0 .60400006 C 0 .58400008 .013000004 .57400009 .034999998 .57400009 C .074 .577 .112 .58000007 .15 .59200009 Z "/>
</symbol>
<use xlink:href="#font_0_1" transform="matrix(39.850557,0,0,-39.850557,18.793053,97.53834)" fill="#ffffff"/>
<use xlink:href="#font_0_2" transform="matrix(39.850557,0,0,-39.850557,20.586327,41.487974)" fill="#ffffff"/>
</g>
</svg>
