<?xml version="1.0" encoding="UTF-8" standalone="no"?>
<!DOCTYPE svg PUBLIC "-//W3C//DTD SVG 1.1//EN" "http://www.w3.org/Graphics/SVG/1.1/DTD/svg11.dtd">
<svg xmlns="http://www.w3.org/2000/svg" xmlns:xlink="http://www.w3.org/1999/xlink" version="1.1" width="55.36111pt" height="553.4722pt" viewBox="0 0 55.36111 553.4722">
<g enable-background="new">
<path transform="matrix(.27777777,0,0,-.27777777,0,553.4722)" stroke-width="13.9477" stroke-linecap="butt" stroke-miterlimit="10" stroke-linejoin="miter" fill="none" stroke="#ffffff" d="M 53.0508 297.117 L 152.676 297.117 "/>
<path transform="matrix(.27777777,0,0,-.27777777,0,553.4722)" stroke-width="13.9477" stroke-linecap="butt" stroke-miterlimit="10" stroke-linejoin="miter" fill="none" stroke="#ffffff" d="M 53.0508 481.426 L 152.676 481.426 "/>
<path transform="matrix(.27777777,0,0,-.27777777,0,553.4722)" stroke-width="13.9477" stroke-linecap="butt" stroke-miterlimit="10" stroke-linejoin="miter" fill="none" stroke="#ffffff" d="M 53.0508 511.313 L 152.676 511.313 "/>
<path transform="matrix(.27777777,0,0,-.27777777,0,553.4722)" stroke-width="13.9477" stroke-linecap="butt" stroke-miterlimit="10" stroke-linejoin="miter" fill="none" stroke="#ffffff" d="M 53.0508 665.734 L 152.676 665.734 "/>
<path transform="matrix(.27777777,0,0,-.27777777,0,553.4722)" stroke-width="13.9477" stroke-linecap="butt" stroke-miterlimit="10" stroke-linejoin="miter" fill="none" stroke="#ffffff" d="M 53.0508 695.621 L 152.676 695.621 "/>
<path transform="matrix(.27777777,0,0,-.27777777,0,553.4722)" stroke-width="13.9477" stroke-linecap="butt" stroke-miterlimit="10" stroke-linejoin="miter" fill="none" stroke="#ffffff" d="M 53.0508 725.512 L 152.676 725.512 "/>
<path transform="matrix(.27777777,0,0,-.27777777,0,553.4722)" stroke-width="13.9477" stroke-linecap="butt" stroke-miterlimit="10" stroke-linejoin="miter" fill="none" stroke="#ffffff" d="M 53.0508 850.043 L 152.676 850.043 "/>
<path transform="matrix(.27777777,0,0,-.27777777,0,553.4722)" stroke-width="13.9477" stroke-linecap="butt" stroke-miterlimit="10" stroke-linejoin="miter" fill="none" stroke="#ffffff" d="M 53.0508 879.93 L 152.676 879.93 "/>
<path transform="matrix(.27777777,0,0,-.27777777,0,553.4722)" stroke-width="13.9477" stroke-linecap="butt" stroke-miterlimit="10" stroke-linejoin="miter" fill="none" stroke="#ffffff" d="M 53.0508 909.82 L 152.676 909.82 "/>
<path transform="matrix(.27777777,0,0,-.27777777,0,553.4722)" stroke-width="13.9477" stroke-linecap="butt" stroke-miterlimit="10" stroke-linejoin="miter" fill="none" stroke="#ffffff" d="M 53.0508 939.707 L 152.676 939.707 "/>
<path transform="matrix(.27777777,0,0,-.27777777,0,553.4722)" stroke-width="13.9477" stroke-linecap="butt" stroke-miterlimit="10" stroke-linejoin="miter" fill="none" stroke="#ffffff" d="M 53.0508 1034.35 L 152.676 1034.35 "/>
<path transform="matrix(.27777777,0,0,-.27777777,0,553.4722)" stroke-width="13.9477" stroke-linecap="butt" stroke-miterlimit="10" stroke-linejoin="miter" fill="none" stroke="#ffffff" d="M 53.0508 1064.24 L 152.676 1064.24 "/>
<path transform="matrix(.27777777,0,0,-.27777777,0,553.4722)" stroke-width="13.9477" stroke-linecap="butt" stroke-miterlimit="10" stroke-linejoin="miter" fill="none" stroke="#ffffff" d="M 53.0508 1094.13 L 152.676 1094.13 "/>
<path transform="matrix(.27777777,0,0,-.27777777,0,553.4722)" stroke-width="13.9477" stroke-linecap="butt" stroke-miterlimit="10" stroke-linejoin="miter" fill="none" stroke="#ffffff" d="M 53.0508 1124.02 L 152.676 1124.02 "/>
<path transform="matrix(.27777777,0,0,-.27777777,0,553.4722)" stroke-width="13.9477" stroke-linecap="butt" stroke-miterlimit="10" stroke-linejoin="miter" fill="none" stroke="#ffffff" d="M 53.0508 1153.9 L 152.676 1153.9 "/>
<path transform="matrix(.27777777,0,0,-.27777777,0,553.4722)" stroke-width="13.9477" stroke-linecap="butt" stroke-miterlimit="10" stroke-linejoin="miter" fill="none" stroke="#ffffff" d="M 53.0508 1236.09 L 152.676 1236.09 "/>
<path transform="matrix(.27777777,0,0,-.27777777,0,553.4722)" stroke-width="13.9477" stroke-linecap="butt" stroke-miterlimit="10" stroke-linejoin="miter" fill="none" stroke="#ffffff" d="M 102.863 1236.09 L 102.863 1350.66 "/>
<path transform="matrix(.27777777,0,0,-.27777777,0,553.4722)" stroke-width="13.9477" stroke-linecap="butt" stroke-miterlimit="10" stroke-linejoin="miter" fill="none" stroke="#ffffff" d="M 102.863 1452.78 L 102.863 1552.41 "/>
<path transform="matrix(.27777777,0,0,-.27777777,0,553.4722)" stroke-width="13.9477" stroke-linecap="butt" stroke-miterlimit="10" stroke-linejoin="miter" fill="none" stroke="#ffffff" d="M 53.0508 1427.88 L 152.676 1427.88 "/>
<path transform="matrix(.27777777,0,0,-.27777777,0,553.4722)" stroke-width="13.9477" stroke-linecap="butt" stroke-miterlimit="10" stroke-linejoin="miter" fill="none" stroke="#ffffff" d="M 53.0508 1457.77 L 152.676 1457.77 "/>
<path transform="matrix(.27777777,0,0,-.27777777,0,553.4722)" stroke-width="13.9477" stroke-linecap="butt" stroke-miterlimit="10" stroke-linejoin="miter" fill="none" stroke="#ffffff" d="M 102.863 1666.98 L 102.863 1766.61 "/>
<path transform="matrix(.27777777,0,0,-.27777777,0,553.4722)" stroke-width="13.9477" stroke-linecap="butt" stroke-miterlimit="10" stroke-linejoin="miter" fill="none" stroke="#ffffff" d="M 53.0508 1612.18 L 152.676 1612.18 "/>
<path transform="matrix(.27777777,0,0,-.27777777,0,553.4722)" stroke-width="13.9477" stroke-linecap="butt" stroke-miterlimit="10" stroke-linejoin="miter" fill="none" stroke="#ffffff" d="M 53.0508 1639.58 L 152.676 1639.58 "/>
<path transform="matrix(.27777777,0,0,-.27777777,0,553.4722)" stroke-width="13.9477" stroke-linecap="butt" stroke-miterlimit="10" stroke-linejoin="miter" fill="none" stroke="#ffffff" d="M 53.0508 1666.98 L 152.676 1666.98 "/>
<path transform="matrix(.27777777,0,0,-.27777777,0,553.4722)" stroke-width="13.9477" stroke-linecap="butt" stroke-miterlimit="10" stroke-linejoin="miter" fill="none" stroke="#ffffff" d="M 102.863 1876.2 L 102.863 1985.79 "/>
<path transform="matrix(.27777777,0,0,-.27777777,0,553.4722)" stroke-width="13.9477" stroke-linecap="butt" stroke-miterlimit="10" stroke-linejoin="miter" fill="none" stroke="#ffffff" d="M 53.0508 1801.48 L 152.676 1801.48 "/>
<path transform="matrix(.27777777,0,0,-.27777777,0,553.4722)" stroke-width="13.9477" stroke-linecap="butt" stroke-miterlimit="10" stroke-linejoin="miter" fill="none" stroke="#ffffff" d="M 53.0508 1828.87 L 152.676 1828.87 "/>
<path transform="matrix(.27777777,0,0,-.27777777,0,553.4722)" stroke-width="13.9477" stroke-linecap="butt" stroke-miterlimit="10" stroke-linejoin="miter" fill="none" stroke="#ffffff" d="M 53.0508 1856.27 L 152.676 1856.27 "/>
<path transform="matrix(.27777777,0,0,-.27777777,0,553.4722)" stroke-width="13.9477" stroke-linecap="butt" stroke-miterlimit="10" stroke-linejoin="miter" fill="none" stroke="#ffffff" d="M 53.0508 1883.67 L 152.676 1883.67 "/>
</g>
</svg>
