<?xml version="1.0" encoding="UTF-8" standalone="no"?>
<!DOCTYPE svg PUBLIC "-//W3C//DTD SVG 1.1//EN" "http://www.w3.org/Graphics/SVG/1.1/DTD/svg11.dtd">
<svg xmlns="http://www.w3.org/2000/svg" xmlns:xlink="http://www.w3.org/1999/xlink" version="1.1" width="55.36111pt" height="553.4722pt" viewBox="0 0 55.36111 553.4722">
<g enable-background="new">
<path transform="matrix(.27777777,0,0,-.27777777,0,553.4722)" stroke-width="13.9477" stroke-linecap="butt" stroke-miterlimit="10" stroke-linejoin="miter" fill="none" stroke="#ffffff" d="M 102.863 247.305 L 102.863 346.93 "/>
<path transform="matrix(.27777777,0,0,-.27777777,0,553.4722)" stroke-width="13.9477" stroke-linecap="butt" stroke-miterlimit="10" stroke-linejoin="miter" fill="none" stroke="#ffffff" d="M 87.918 446.555 L 87.918 546.184 "/>
<path transform="matrix(.27777777,0,0,-.27777777,0,553.4722)" stroke-width="13.9477" stroke-linecap="butt" stroke-miterlimit="10" stroke-linejoin="miter" fill="none" stroke="#ffffff" d="M 117.809 446.555 L 117.809 546.184 "/>
<path transform="matrix(.27777777,0,0,-.27777777,0,553.4722)" stroke-width="13.9477" stroke-linecap="butt" stroke-miterlimit="10" stroke-linejoin="miter" fill="none" stroke="#ffffff" d="M 72.9766 645.809 L 72.9766 745.434 "/>
<path transform="matrix(.27777777,0,0,-.27777777,0,553.4722)" stroke-width="13.9477" stroke-linecap="butt" stroke-miterlimit="10" stroke-linejoin="miter" fill="none" stroke="#ffffff" d="M 102.863 645.809 L 102.863 745.434 "/>
<path transform="matrix(.27777777,0,0,-.27777777,0,553.4722)" stroke-width="13.9477" stroke-linecap="butt" stroke-miterlimit="10" stroke-linejoin="miter" fill="none" stroke="#ffffff" d="M 132.75 645.809 L 132.75 745.434 "/>
<path transform="matrix(.27777777,0,0,-.27777777,0,553.4722)" stroke-width="13.9477" stroke-linecap="butt" stroke-miterlimit="10" stroke-linejoin="miter" fill="none" stroke="#ffffff" d="M 58.0313 845.063 L 58.0313 944.688 "/>
<path transform="matrix(.27777777,0,0,-.27777777,0,553.4722)" stroke-width="13.9477" stroke-linecap="butt" stroke-miterlimit="10" stroke-linejoin="miter" fill="none" stroke="#ffffff" d="M 87.918 845.063 L 87.918 944.688 "/>
<path transform="matrix(.27777777,0,0,-.27777777,0,553.4722)" stroke-width="13.9477" stroke-linecap="butt" stroke-miterlimit="10" stroke-linejoin="miter" fill="none" stroke="#ffffff" d="M 117.809 845.063 L 117.809 944.688 "/>
<path transform="matrix(.27777777,0,0,-.27777777,0,553.4722)" stroke-width="13.9477" stroke-linecap="butt" stroke-miterlimit="10" stroke-linejoin="miter" fill="none" stroke="#ffffff" d="M 147.695 845.063 L 147.695 944.688 "/>
<path transform="matrix(.27777777,0,0,-.27777777,0,553.4722)" stroke-width="13.9477" stroke-linecap="butt" stroke-miterlimit="10" stroke-linejoin="miter" fill="none" stroke="#ffffff" d="M 43.0898 1044.32 L 43.0898 1143.94 "/>
<path transform="matrix(.27777777,0,0,-.27777777,0,553.4722)" stroke-width="13.9477" stroke-linecap="butt" stroke-miterlimit="10" stroke-linejoin="miter" fill="none" stroke="#ffffff" d="M 72.9766 1044.32 L 72.9766 1143.94 "/>
<path transform="matrix(.27777777,0,0,-.27777777,0,553.4722)" stroke-width="13.9477" stroke-linecap="butt" stroke-miterlimit="10" stroke-linejoin="miter" fill="none" stroke="#ffffff" d="M 102.863 1044.32 L 102.863 1143.94 "/>
<path transform="matrix(.27777777,0,0,-.27777777,0,553.4722)" stroke-width="13.9477" stroke-linecap="butt" stroke-miterlimit="10" stroke-linejoin="miter" fill="none" stroke="#ffffff" d="M 132.75 1044.32 L 132.75 1143.94 "/>
<path transform="matrix(.27777777,0,0,-.27777777,0,553.4722)" stroke-width="13.9477" stroke-linecap="butt" stroke-miterlimit="10" stroke-linejoin="miter" fill="none" stroke="#ffffff" d="M 162.641 1044.32 L 162.641 1143.94 "/>
<path transform="matrix(.27777777,0,0,-.27777777,0,553.4722)" stroke-width="13.9477" stroke-linecap="butt" stroke-miterlimit="10" stroke-linejoin="miter" fill="none" stroke="#ffffff" d="M 102.863 1236.09 L 102.863 1350.66 "/>
<path transform="matrix(.27777777,0,0,-.27777777,0,553.4722)" stroke-width="13.9477" stroke-linecap="butt" stroke-miterlimit="10" stroke-linejoin="miter" fill="none" stroke="#ffffff" d="M 53.0508 1350.66 L 152.676 1350.66 "/>
<path transform="matrix(.27777777,0,0,-.27777777,0,553.4722)" stroke-width="13.9477" stroke-linecap="butt" stroke-miterlimit="10" stroke-linejoin="miter" fill="none" stroke="#ffffff" d="M 53.0508 1549.92 L 152.676 1549.92 "/>
<path transform="matrix(.27777777,0,0,-.27777777,0,553.4722)" stroke-width="13.9477" stroke-linecap="butt" stroke-miterlimit="10" stroke-linejoin="miter" fill="none" stroke="#ffffff" d="M 87.918 1435.35 L 87.918 1549.92 "/>
<path transform="matrix(.27777777,0,0,-.27777777,0,553.4722)" stroke-width="13.9477" stroke-linecap="butt" stroke-miterlimit="10" stroke-linejoin="miter" fill="none" stroke="#ffffff" d="M 117.809 1435.35 L 117.809 1549.92 "/>
<path transform="matrix(.27777777,0,0,-.27777777,0,553.4722)" stroke-width="13.9477" stroke-linecap="butt" stroke-miterlimit="10" stroke-linejoin="miter" fill="none" stroke="#ffffff" d="M 53.0508 1749.17 L 152.676 1749.17 "/>
<path transform="matrix(.27777777,0,0,-.27777777,0,553.4722)" stroke-width="13.9477" stroke-linecap="butt" stroke-miterlimit="10" stroke-linejoin="miter" fill="none" stroke="#ffffff" d="M 72.9766 1634.6 L 72.9766 1749.17 "/>
<path transform="matrix(.27777777,0,0,-.27777777,0,553.4722)" stroke-width="13.9477" stroke-linecap="butt" stroke-miterlimit="10" stroke-linejoin="miter" fill="none" stroke="#ffffff" d="M 102.863 1634.6 L 102.863 1749.17 "/>
<path transform="matrix(.27777777,0,0,-.27777777,0,553.4722)" stroke-width="13.9477" stroke-linecap="butt" stroke-miterlimit="10" stroke-linejoin="miter" fill="none" stroke="#ffffff" d="M 132.75 1634.6 L 132.75 1749.17 "/>
<path transform="matrix(.27777777,0,0,-.27777777,0,553.4722)" stroke-width="13.9477" stroke-linecap="butt" stroke-miterlimit="10" stroke-linejoin="miter" fill="none" stroke="#ffffff" d="M 53.0508 1948.43 L 152.676 1948.43 "/>
<path transform="matrix(.27777777,0,0,-.27777777,0,553.4722)" stroke-width="13.9477" stroke-linecap="butt" stroke-miterlimit="10" stroke-linejoin="miter" fill="none" stroke="#ffffff" d="M 58.0313 1833.86 L 58.0313 1948.43 "/>
<path transform="matrix(.27777777,0,0,-.27777777,0,553.4722)" stroke-width="13.9477" stroke-linecap="butt" stroke-miterlimit="10" stroke-linejoin="miter" fill="none" stroke="#ffffff" d="M 87.918 1833.86 L 87.918 1948.43 "/>
<path transform="matrix(.27777777,0,0,-.27777777,0,553.4722)" stroke-width="13.9477" stroke-linecap="butt" stroke-miterlimit="10" stroke-linejoin="miter" fill="none" stroke="#ffffff" d="M 117.809 1833.86 L 117.809 1948.43 "/>
<path transform="matrix(.27777777,0,0,-.27777777,0,553.4722)" stroke-width="13.9477" stroke-linecap="butt" stroke-miterlimit="10" stroke-linejoin="miter" fill="none" stroke="#ffffff" d="M 147.695 1833.86 L 147.695 1948.43 "/>
</g>
</svg>
