<?xml version="1.0" encoding="UTF-8" standalone="no"?>
<!DOCTYPE svg PUBLIC "-//W3C//DTD SVG 1.1//EN" "http://www.w3.org/Graphics/SVG/1.1/DTD/svg11.dtd">
<svg xmlns="http://www.w3.org/2000/svg" xmlns:xlink="http://www.w3.org/1999/xlink" version="1.1" width="55.36111pt" height="553.4722pt" viewBox="0 0 55.36111 553.4722">
<g enable-background="new">
<symbol id="font_0_7">
<path d="M .223 .72200009 C .15200001 .71300008 .082 .69500008 .039000006 .609 C .001000002 .535 0 .444 0 .364 L 0 .31 C 0 .165 .038000004 0 .244 0 C .338 0 .417 .040000004 .454 .133 C .481 .20300001 .48299999 .279 .48299999 .352 C .48299999 .51100006 .476 .72300007 .24000003 .72300007 C .23400001 .72300007 .22900002 .72200009 .223 .72200009 M .12300001 .303 C .12200001 .311 .12200001 .319 .12200001 .327 C .12200001 .387 .12200001 .447 .127 .50600007 C .132 .56900009 .15 .65800008 .24100001 .65800008 C .34100003 .65800008 .361 .549 .361 .451 C .361 .42900003 .36 .409 .36 .39000003 L .36 .338 C .36 .22000002 .356 .064 .24100001 .064 C .12200001 .064 .13100001 .21900001 .12300001 .303 Z "/>
</symbol>
<symbol id="font_0_8">
<path d="M .15 .59200009 L .15 .061000006 L .040000008 .061000006 C .018 .061000006 .0059999974 .050000006 .0059999974 .030000002 C .0059999974 .011 .018 0 .040000008 0 L .38000003 0 C .397 .0019999999 .40300004 .016 .40300004 .032 C .40300004 .049000004 .393 .062000004 .37 .062000004 C .363 .062000004 .35700003 .061000006 .351 .061000006 L .272 .061000006 L .272 .6750001 C .272 .70000007 .254 .70400008 .23700002 .70400008 C .20700002 .70400008 .192 .67800006 .16800002 .665 C .12900001 .64400008 .08400001 .637 .040000008 .63600006 C .021000006 .63600006 0 .63400009 0 .60400006 C 0 .58400008 .013000004 .57400009 .034999998 .57400009 C .074 .577 .112 .58000007 .15 .59200009 Z "/>
</symbol>
<symbol id="font_0_9">
<path d="M .11900001 .086 C .18400002 .143 .24800003 .20300001 .316 .25700004 C .38400004 .31100003 .46400003 .37800003 .46700005 .47400005 L .46700005 .48200003 C .46700005 .61800006 .35300002 .70400008 .22300002 .70400008 C .13800001 .70400008 .060000004 .669 .018 .59300008 C .011 .58100005 0 .563 0 .55300006 L 0 .55100008 C 0 .53700008 .042000005 .49600003 .051 .48500005 C .053000004 .48300005 .057000005 .48100005 .061000006 .48100005 L .063 .48100005 C .072000008 .48400004 .080000009 .52000007 .086 .536 C .107 .58400008 .14500001 .623 .20500002 .623 C .279 .623 .34300003 .56700006 .34300003 .48100005 C .34300003 .39300005 .277 .32400004 .21700001 .26800005 C .15400002 .208 .092 .148 .030000002 .086 C .020000004 .076000008 .0069999995 .068 .0069999995 .053000004 C .0069999995 .048000006 .008000001 .044000005 .008000001 .040000004 L .008000001 .033000005 C .008000001 .009000001 .020000004 0 .041 0 L .43500004 0 C .451 0 .46700005 .005 .46700005 .030000002 L .46700005 .054000006 C .46700005 .07 .46400003 .088 .43800003 .088 L .42400003 .088 C .40300004 .088 .38200004 .087000008 .36100004 .087000008 L .268 .087000008 C .21800003 .087000008 .169 .086 .11900001 .086 Z "/>
</symbol>
<symbol id="font_0_a">
<path d="M .328 .39000003 C .36400003 .41500003 .391 .42900003 .41500003 .462 C .435 .49100004 .446 .52700009 .446 .563 C .446 .67800006 .345 .72200009 .22800002 .72200009 C .15800002 .72200009 .085 .69200006 .036000007 .63900008 C .029000007 .632 .017000005 .62100008 .017000005 .61200007 C .017000005 .59900006 .055000009 .55200007 .064 .55200007 C .07300001 .55200007 .085 .57500007 .093 .58500006 C .12600002 .62500008 .178 .64900007 .23000002 .64900007 C .285 .64900007 .322 .62700006 .322 .56000009 C .322 .495 .279 .43100003 .213 .424 C .18900001 .423 .14700002 .42700003 .143 .409 L .143 .371 C .143 .359 .14900002 .35500003 .16100002 .35500003 C .18100003 .35500003 .199 .357 .22 .357 C .33400003 .357 .351 .285 .351 .21400002 C .351 .18500002 .349 .15400002 .335 .128 C .314 .089 .272 .07700001 .23000002 .07700001 C .16100002 .07700001 .09700001 .103 .047000007 .15 C .038000004 .15600002 .030000002 .17100002 .020000004 .17100002 C .006000001 .17100002 0 .10800001 0 .10700001 C 0 .095 .028000005 .072000008 .045 .061000006 C .095000009 .024 .15400002 .0030000006 .21599999 0 L .229 0 C .342 0 .47700004 .037 .47700004 .21400002 C .47700004 .282 .45000003 .341 .37800003 .375 C .363 .382 .345 .389 .328 .39000003 Z "/>
</symbol>
<symbol id="font_0_1">
<path d="M .29700003 .164 L .29700003 .033000005 C .29700003 .0019999999 .31500004 0 .33300004 0 L .37500004 0 C .39600004 0 .40600003 .011 .40600003 .034 L .40600003 .164 L .48100005 .164 C .51 .164 .51 .186 .51 .202 C .51 .21800001 .51 .24000001 .48100005 .24000001 L .40600003 .24000001 L .40600003 .65200009 C .40600003 .67200008 .39800004 .68600007 .37300004 .68600007 L .29400004 .68600007 C .26500003 .68600007 .25700004 .6610001 .246 .642 C .18100001 .536 .116 .43000005 .051 .323 L .018000002 .26900003 C .011000002 .256 0 .244 0 .22800002 C 0 .222 .0010000002 .216 .0010000002 .21000001 L .0010000002 .19600001 C .0010000002 .172 .014 .164 .037 .164 L .29700003 .164 M .097 .24000001 C .112 .26200003 .126 .28700004 .14 .31000004 C .18900001 .39100004 .24000003 .47300006 .28200004 .55700007 C .28900004 .572 .29800005 .587 .30000005 .60400006 L .30100004 .24000001 L .097 .24000001 Z "/>
</symbol>
<symbol id="font_0_2">
<path d="M .163 .439 L .163 .623 L .40800003 .623 C .437 .623 .439 .64100006 .439 .6560001 L .439 .674 C .439 .69100007 .43 .70400008 .41000004 .70400008 L .07700001 .70400008 C .057 .70400008 .047000003 .69500008 .047000003 .66700008 L .047000003 .35300002 C .047000003 .335 .05 .31800003 .081 .31800003 L .105000007 .31800003 C .13000001 .31800003 .131 .333 .15200001 .354 C .179 .381 .21600002 .396 .255 .396 C .30600003 .396 .34 .366 .34800003 .307 C .351 .281 .351 .256 .351 .23000002 C .351 .20000002 .35000003 .16700001 .338 .13900002 C .31800003 .09400001 .271 .07700001 .222 .07700001 C .162 .07700001 .100999999 .105000007 .066 .15600002 C .062000004 .16200002 .054 .17600002 .048000006 .17800002 L .046 .17800002 C .032 .17800002 0 .118 0 .113000009 L 0 .112 C 0 .09200001 .052000006 .053000004 .083000008 .036000004 C .128 .010000001 .177 0 .22800002 0 C .291 0 .36600004 .014 .41300003 .059000005 C .461 .105000007 .47700004 .17000002 .47700004 .23500002 C .47700004 .3 .46300004 .371 .41000004 .41500003 C .36900003 .449 .312 .46 .26000003 .46 C .224 .46 .19600001 .451 .163 .439 Z "/>
</symbol>
<symbol id="font_0_3">
<path d="M .125 .405 L .125 .424 C .125 .522 .155 .64900007 .303 .64900007 C .33 .64900007 .35700003 .64400008 .382 .63400009 C .38700003 .632 .398 .62600007 .405 .62600007 C .411 .62600007 .414 .632 .414 .64100006 L .414 .68600007 C .414 .711 .344 .72300007 .306 .72300007 C .192 .72300007 .08300001 .6790001 .033 .56200006 C .006000001 .5 0 .43100003 0 .364 C 0 .22500001 .013000004 .037 .19500003 .0030000006 C .20899999 .0010000002 .222 0 .236 0 C .279 0 .32500003 .0030000006 .36400003 .022000002 C .45400004 .07000001 .47700004 .15600002 .47700004 .24200002 C .47700004 .316 .469 .386 .414 .441 C .38000003 .474 .33400003 .48700003 .28800003 .48700003 L .257 .48700003 C .20500002 .481 .14700002 .449 .125 .405 M .12600002 .25300003 C .12600002 .323 .15200001 .423 .25100003 .423 C .342 .423 .35300002 .343 .35300002 .254 L .35300002 .24200002 C .35300002 .16600001 .35000003 .07700001 .239 .07700001 C .18800003 .07700001 .15200001 .113000009 .13800001 .165 C .13100001 .194 .12900001 .22300002 .12600002 .25300003 Z "/>
</symbol>
<symbol id="font_0_4">
<path d="M .354 .609 C .213 .468 .13500002 .288 .114 .089 C .11300001 .08400001 .11300001 .078 .11300001 .07300001 L .11300001 .058000003 C .11200001 .050000006 .11200001 .043 .11200001 .035 C .11200001 .010000001 .122 0 .14700002 0 L .204 0 C .236 0 .23700002 .019000002 .23700002 .038000004 C .23700002 .246 .323 .458 .461 .61100009 C .469 .62100008 .47700004 .62900009 .47700004 .642 L .47700004 .67300006 C .47300003 .69100007 .45800004 .69500008 .44300003 .69500008 L .377 .69500008 C .282 .69500008 .187 .69600006 .092 .69600006 L .032000007 .69600006 C .015000001 .69600006 0 .69000008 0 .66600009 L 0 .64300009 C 0 .62600007 .0020000004 .60700008 .031000004 .60700008 L .045 .60700008 C .148 .60700008 .25100003 .609 .354 .609 Z "/>
</symbol>
<symbol id="font_0_5">
<path d="M .13300002 .389 L .13300002 .388 C .049000004 .37600003 0 .297 0 .21400002 C 0 .16900002 .008000001 .12300001 .033 .08500001 C .07400001 .022000002 .15 .0020000004 .22100002 0 L .236 0 C .349 0 .47700004 .037 .47700004 .21400002 C .47700004 .281 .451 .341 .38500003 .374 C .372 .38 .358 .386 .344 .388 C .37800003 .403 .407 .411 .43 .44 C .452 .467 .461 .503 .461 .53800007 C .461 .67200008 .358 .72200009 .24700001 .72200009 C .144 .72200009 .016000003 .6980001 .016000003 .53700008 C .016000003 .48200003 .040000008 .42900003 .095000009 .403 C .107 .397 .12000001 .391 .13300002 .389 M .123 .18600002 L .123 .22200002 C .123 .26000003 .124000009 .305 .15600002 .33200003 C .17900002 .352 .20899999 .356 .238 .356 C .298 .356 .344 .333 .35300002 .26000003 C .354 .24400002 .354 .22900002 .354 .21300002 C .354 .15 .347 .076000008 .23500002 .076000008 C .20199999 .076000008 .169 .08400001 .14700002 .10900001 C .12800002 .13000001 .12600002 .15900001 .123 .18600002 M .13300002 .51000007 L .13300002 .54 C .13300002 .5730001 .13500002 .6100001 .164 .63100007 C .18400002 .646 .21000001 .64900007 .234 .64900007 C .294 .64900007 .344 .642 .344 .53300008 C .344 .481 .33900003 .42000003 .23300001 .42000003 C .20500002 .42000003 .176 .426 .15600002 .446 C .139 .46400003 .136 .48700003 .13300002 .51000007 Z "/>
</symbol>
<symbol id="font_0_6">
<path d="M .35300002 .317 C .35300002 .22700002 .34100003 .07700001 .18900001 .07700001 C .153 .07700001 .12000001 .088 .09100001 .10900001 C .087000008 .113000009 .08100001 .118 .075 .118 L .07300001 .118 C .068 .117 .036000007 .074 .036000007 .058000003 C .036000007 .036000004 .11900001 .0030000006 .162 .0010000002 C .171 0 .17900002 0 .18800003 0 C .28300003 0 .37100003 .031000002 .42600004 .12100001 C .46800003 .19100002 .47700004 .276 .47700004 .357 C .47700004 .449 .47300003 .544 .42600004 .62700006 C .38700003 .697 .31 .72200009 .238 .72200009 C .15600002 .72200009 .085 .7020001 .034 .62700006 C .0030000024 .58300009 0 .52500006 0 .47300003 C 0 .37800003 .027000003 .257 .15200001 .23800002 C .16600001 .23600002 .18100003 .23600002 .19500003 .23500002 L .201 .23500002 C .264 .23500002 .31100003 .264 .35300002 .317 M .35000003 .444 C .345 .379 .31300003 .299 .22800002 .299 C .13500002 .299 .123 .381 .123 .455 L .123 .485 C .123 .55500009 .125 .64900007 .243 .64900007 L .25100003 .64900007 C .345 .64000007 .351 .521 .351 .465 C .351 .458 .351 .451 .35000003 .444 Z "/>
</symbol>
<use xlink:href="#font_0_7" transform="matrix(39.850557,0,0,-39.850557,18.793053,540.20547)"/>
<use xlink:href="#font_0_8" transform="matrix(39.850557,0,0,-39.850557,20.586327,484.1551)"/>
<use xlink:href="#font_0_9" transform="matrix(39.850557,0,0,-39.850557,18.952454,428.82093)"/>
<use xlink:href="#font_0_a" transform="matrix(39.850557,0,0,-39.850557,18.912604,374.20518)"/>
<use xlink:href="#font_0_1" transform="matrix(39.850557,0,0,-39.850557,18.235144,318.15486)"/>
<use xlink:href="#font_0_2" transform="matrix(39.850557,0,0,-39.850557,18.55395,263.5391)"/>
<use xlink:href="#font_0_3" transform="matrix(39.850557,0,0,-39.850557,18.912604,208.20603)"/>
<use xlink:href="#font_0_4" transform="matrix(39.850557,0,0,-39.850557,18.912604,152.5132)"/>
<use xlink:href="#font_0_5" transform="matrix(39.850557,0,0,-39.850557,18.912604,97.53879)"/>
<use xlink:href="#font_0_6" transform="matrix(39.850557,0,0,-39.850557,18.912604,42.20572)"/>
</g>
</svg>
