<?xml version="1.0" encoding="UTF-8" standalone="no"?>
<!DOCTYPE svg PUBLIC "-//W3C//DTD SVG 1.1//EN" "http://www.w3.org/Graphics/SVG/1.1/DTD/svg11.dtd">
<svg xmlns="http://www.w3.org/2000/svg" xmlns:xlink="http://www.w3.org/1999/xlink" version="1.1" width="33.22222pt" height="33.22222pt" viewBox="0 0 33.22222 33.22222">
<g enable-background="new">
<path transform="matrix(.27777777,0,0,-.27777777,0,33.22222)" d="M 0 0 L 155.168 0 L 155.168 145.789 L 0 145.789 Z " fill="#a0a0a0"/>
<path transform="matrix(.27777777,0,0,-.27777777,0,33.22222)" stroke-width="9.96264" stroke-linecap="butt" stroke-miterlimit="10" stroke-linejoin="miter" fill="none" stroke="#000000" d="M -36.1133 -45.4922 L 155.168 -45.4922 L 155.168 145.789 L -36.1133 145.789 L -36.1133 -45.4922 Z "/>
<clipPath id="cp0">
<path transform="matrix(.27777777,0,0,-.27777777,0,33.22222)" d="M 59.5273 38.1953 L 89.4141 74.0586 L 29.6367 74.0586 L 59.5273 38.1953 Z "/>
</clipPath>
<g clip-path="url(#cp0)">
<path transform="matrix(.27777777,0,0,-.27777777,0,33.22222)" d="M 29.6367 38.1953 L 89.414 38.1953 L 89.414 74.0586 L 29.6367 74.0586 Z "/>
</g>
<path transform="matrix(.27777777,0,0,-.27777777,0,33.22222)" stroke-width="9.96264" stroke-linecap="butt" stroke-miterlimit="10" stroke-linejoin="miter" fill="none" stroke="#000000" d="M 59.5273 38.1953 L 89.4141 74.0586 L 29.6367 74.0586 L 59.5273 38.1953 Z "/>
</g>
</svg>
