<?xml version="1.0" encoding="UTF-8" standalone="no"?>
<!DOCTYPE svg PUBLIC "-//W3C//DTD SVG 1.1//EN" "http://www.w3.org/Graphics/SVG/1.1/DTD/svg11.dtd">
<svg xmlns="http://www.w3.org/2000/svg" xmlns:xlink="http://www.w3.org/1999/xlink" version="1.1" width="276.74998pt" height="276.74998pt" viewBox="0 0 276.74998 276.74998">
<g enable-background="new">
<clipPath id="cp0">
<path transform="matrix(.27777777,0,0,-.27777777,0,276.74998)" d="M 597.758 797.012 L 597.758 797.012 L 597.758 799.555 L 597.242 807.195 L 595.73 817.086 L 593.277 826.633 L 589.926 835.789 L 585.73 844.496 L 580.742 852.711 L 575.004 860.379 L 568.574 867.453 L 561.5 873.883 L 553.832 879.621 L 545.617 884.609 L 536.91 888.805 L 527.754 892.156 L 518.207 894.609 L 508.316 896.121 L 500.676 896.637 L 498.133 896.637 L 495.586 896.637 L 487.945 896.121 L 478.055 894.609 L 468.504 892.156 L 459.352 888.805 L 450.645 884.609 L 442.43 879.621 L 434.758 873.883 L 427.684 867.453 L 421.254 860.379 L 415.52 852.711 L 410.527 844.496 L 406.332 835.789 L 402.98 826.633 L 400.527 817.086 L 399.016 807.195 L 398.504 799.555 L 398.504 797.012 L 398.504 794.465 L 399.016 786.824 L 400.527 776.934 L 402.98 767.387 L 406.332 758.23 L 410.527 749.523 L 415.52 741.309 L 421.254 733.641 L 427.684 726.566 L 434.758 720.137 L 442.43 714.398 L 450.645 709.41 L 459.352 705.215 L 468.504 701.863 L 478.055 699.41 L 487.945 697.898 L 495.586 697.387 L 498.133 697.387 L 500.676 697.387 L 508.316 697.898 L 518.207 699.41 L 527.754 701.863 L 536.91 705.215 L 545.617 709.41 L 553.832 714.398 L 561.5 720.137 L 568.574 726.566 L 575.004 733.641 L 580.742 741.309 L 585.73 749.523 L 589.926 758.23 L 593.277 767.387 L 595.73 776.934 L 597.242 786.824 L 597.758 794.465 L 597.758 797.012 Z "/>
</clipPath>
<g clip-path="url(#cp0)">
<path transform="matrix(.27777777,0,0,-.27777777,0,276.74998)" d="M 398.504 697.387 L 597.758 697.387 L 597.758 896.637 L 398.504 896.637 Z "/>
</g>
<clipPath id="cp1">
<path transform="matrix(.27777777,0,0,-.27777777,0,276.74998)" d="M 373.598 533 L 373.598 400.996 L 374.109 394.398 L 374.215 393.582 L 414.684 69.8164 L 415.137 66.1602 L 417.863 55.3633 L 423.488 42.082 L 431.297 30.1992 L 441.023 19.9492 L 452.395 11.5742 L 465.156 5.29688 L 479.035 1.36328 L 490.086 0 L 493.77 0 L 502.492 0 L 506.172 0 L 517.223 1.36328 L 531.105 5.29688 L 543.863 11.5742 L 555.238 19.9492 L 564.961 30.1992 L 572.77 42.082 L 578.395 55.3633 L 581.121 66.1602 L 581.578 69.8164 L 622.051 393.582 L 622.152 394.398 L 622.664 401.199 L 622.664 403.469 L 622.664 587.797 L 622.664 591.809 L 621.043 603.855 L 616.398 618.816 L 609.051 632.355 L 599.32 644.152 L 587.523 653.883 L 573.984 661.23 L 559.023 665.875 L 546.977 667.496 L 542.965 667.496 L 453.301 667.496 L 449.285 667.496 L 437.238 665.875 L 422.277 661.23 L 408.738 653.883 L 396.941 644.152 L 387.207 632.355 L 379.859 618.816 L 375.215 603.855 L 373.598 591.809 L 373.598 587.797 L 373.598 533 Z "/>
</clipPath>
<g clip-path="url(#cp1)">
<path transform="matrix(.27777777,0,0,-.27777777,0,276.74998)" d="M 373.598 0 L 622.664 0 L 622.664 667.496 L 373.598 667.496 Z "/>
</g>
<path transform="matrix(.27777777,0,0,-.27777777,0,276.74998)" stroke-width="99.6264" stroke-linecap="butt" stroke-miterlimit="10" stroke-linejoin="miter" fill="none" stroke="#000000" d="M 373.598 622.664 L 373.598 622.664 C 318.578 622.664 273.973 578.059 273.973 523.039 "/>
<path transform="matrix(.27777777,0,0,-.27777777,0,276.74998)" stroke-width="99.6264" stroke-linecap="butt" stroke-miterlimit="10" stroke-linejoin="miter" fill="none" stroke="#000000" d="M 722.293 523.039 L 722.293 523.039 C 722.293 578.059 677.684 622.664 622.664 622.664 "/>
<path transform="matrix(.27777777,0,0,-.27777777,0,276.74998)" stroke-width="99.6264" stroke-linecap="round" stroke-miterlimit="10" stroke-linejoin="miter" fill="none" stroke="#000000" d="M 273.973 523.039 L 273.973 348.691 "/>
<path transform="matrix(.27777777,0,0,-.27777777,0,276.74998)" stroke-width="99.6264" stroke-linecap="round" stroke-miterlimit="10" stroke-linejoin="miter" fill="none" stroke="#000000" d="M 722.293 523.039 L 722.293 348.691 "/>
<path transform="matrix(.27777777,0,0,-.27777777,0,276.74998)" stroke-width="99.6264" stroke-linecap="butt" stroke-miterlimit="10" stroke-linejoin="miter" fill="none" stroke="#000000" d="M 373.5 622.664 L 622.766 622.664 "/>
</g>
</svg>
