<?xml version="1.0" encoding="UTF-8" standalone="no"?>
<!DOCTYPE svg PUBLIC "-//W3C//DTD SVG 1.1//EN" "http://www.w3.org/Graphics/SVG/1.1/DTD/svg11.dtd">
<svg xmlns="http://www.w3.org/2000/svg" xmlns:xlink="http://www.w3.org/1999/xlink" version="1.1" width="276.74998pt" height="276.74998pt" viewBox="0 0 276.74998 276.74998">
<g enable-background="new">
<clipPath id="cp0">
<path transform="matrix(.27777777,0,0,-.27777777,0,276.74998)" d="M 597.758 797.012 L 597.758 797.012 L 597.758 799.555 L 597.242 807.195 L 595.73 817.086 L 593.277 826.633 L 589.926 835.789 L 585.73 844.496 L 580.742 852.711 L 575.004 860.379 L 568.574 867.453 L 561.5 873.883 L 553.832 879.621 L 545.617 884.609 L 536.91 888.805 L 527.754 892.156 L 518.207 894.609 L 508.316 896.121 L 500.676 896.637 L 498.133 896.637 L 495.586 896.637 L 487.945 896.121 L 478.055 894.609 L 468.504 892.156 L 459.352 888.805 L 450.645 884.609 L 442.43 879.621 L 434.758 873.883 L 427.684 867.453 L 421.254 860.379 L 415.52 852.711 L 410.527 844.496 L 406.332 835.789 L 402.98 826.633 L 400.527 817.086 L 399.016 807.195 L 398.504 799.555 L 398.504 797.012 L 398.504 794.465 L 399.016 786.824 L 400.527 776.934 L 402.98 767.387 L 406.332 758.23 L 410.527 749.523 L 415.52 741.309 L 421.254 733.641 L 427.684 726.566 L 434.758 720.137 L 442.43 714.398 L 450.645 709.41 L 459.352 705.215 L 468.504 701.863 L 478.055 699.41 L 487.945 697.898 L 495.586 697.387 L 498.133 697.387 L 500.676 697.387 L 508.316 697.898 L 518.207 699.41 L 527.754 701.863 L 536.91 705.215 L 545.617 709.41 L 553.832 714.398 L 561.5 720.137 L 568.574 726.566 L 575.004 733.641 L 580.742 741.309 L 585.73 749.523 L 589.926 758.23 L 593.277 767.387 L 595.73 776.934 L 597.242 786.824 L 597.758 794.465 L 597.758 797.012 Z "/>
</clipPath>
<g clip-path="url(#cp0)">
<path transform="matrix(.27777777,0,0,-.27777777,0,276.74998)" d="M 398.504 697.387 L 597.758 697.387 L 597.758 896.637 L 398.504 896.637 Z "/>
</g>
<clipPath id="cp1">
<path transform="matrix(.27777777,0,0,-.27777777,0,276.74998)" d="M 373.598 533 L 373.598 400.996 L 374.109 394.398 L 374.215 393.582 L 414.684 69.8164 L 415.137 66.1602 L 417.863 55.3633 L 423.488 42.082 L 431.297 30.1992 L 441.023 19.9492 L 452.395 11.5742 L 465.156 5.29688 L 479.035 1.36328 L 490.086 0 L 493.77 0 L 502.492 0 L 506.172 0 L 517.223 1.36328 L 531.105 5.29688 L 543.863 11.5742 L 555.238 19.9492 L 564.961 30.1992 L 572.77 42.082 L 578.395 55.3633 L 581.121 66.1602 L 581.578 69.8164 L 622.051 393.582 L 622.152 394.398 L 622.664 401.199 L 622.664 403.469 L 622.664 587.797 L 622.664 591.809 L 621.043 603.855 L 616.398 618.816 L 609.051 632.355 L 599.32 644.152 L 587.523 653.883 L 573.984 661.23 L 559.023 665.875 L 546.977 667.496 L 542.965 667.496 L 453.301 667.496 L 449.285 667.496 L 437.238 665.875 L 422.277 661.23 L 408.738 653.883 L 396.941 644.152 L 387.207 632.355 L 379.859 618.816 L 375.215 603.855 L 373.598 591.809 L 373.598 587.797 L 373.598 533 Z "/>
</clipPath>
<g clip-path="url(#cp1)">
<path transform="matrix(.27777777,0,0,-.27777777,0,276.74998)" d="M 373.598 0 L 622.664 0 L 622.664 667.496 L 373.598 667.496 Z "/>
</g>
<path transform="matrix(.27777777,0,0,-.27777777,0,276.74998)" stroke-width="99.6264" stroke-linecap="round" stroke-linejoin="round" fill="none" stroke="#000000" d="M 268.992 946.449 L 268.871 945.926 L 268.75 945.402 L 268.57 944.621 L 268.395 943.844 L 268.133 942.691 L 267.875 941.551 L 267.5 939.859 L 267.133 938.191 L 266.598 935.738 L 266.09 933.336 L 265.363 929.816 L 264.684 926.391 L 263.75 921.406 L 262.914 916.566 L 262.352 913.016 L 261.836 909.508 L 261.484 906.898 L 261.16 904.297 L 260.723 900.402 L 260.34 896.492 L 260.09 893.535 L 259.867 890.543 L 259.586 885.98 L 259.367 881.293 L 259.145 873.957 L 259.031 866.152 L 259.027 856.785 L 259.035 855.746 L 259.039 854.707 L 259.043 853.152 L 259.047 851.609 L 259.047 849.305 L 259.047 847.02 L 259.039 843.617 L 259.027 840.254 L 259.004 835.27 L 258.977 830.363 L 258.953 823.133 L 258.953 816.059 L 258.988 810.848 L 259.059 805.715 L 259.242 798.148 L 259.555 790.734 L 259.711 787.992 L 259.887 785.266 L 260.199 781.215 L 260.57 777.199 L 260.891 774.211 L 261.246 771.242 L 261.543 769.031 L 261.859 766.824 L 262.117 765.18 L 262.383 763.539 L 262.816 761.086 L 263.277 758.641 L 263.648 756.816 L 264.039 754.996 L 264.348 753.637 L 264.664 752.277 L 265.164 750.246 L 265.695 748.219 L 266.109 746.699 L 266.539 745.188 L 267.219 742.922 L 267.934 740.66 L 268.5 738.969 L 269.086 737.277 L 269.539 736.016 L 270.008 734.75 L 270.734 732.855 L 271.492 730.965 L 272.082 729.547 L 272.691 728.129 L 273.637 726.008 L 274.621 723.887 L 275.391 722.297 L 276.184 720.707 L 276.793 719.516 L 277.418 718.324 L 278.383 716.535 L 279.379 714.746 L 280.148 713.406 L 280.938 712.066 L 282.156 710.051 L 283.418 708.035 L 284.395 706.523 L 285.395 705.012 L 286.945 702.738 L 288.555 700.461 L 289.801 698.75 L 291.082 697.039 L 292.066 695.75 L 293.066 694.465 L 294.609 692.527 L 296.195 690.59 L 298.879 687.422 L 299.52 686.688 L 300.156 685.957 L 301.117 684.875 L 302.074 683.809 L 303.516 682.234 L 304.953 680.691 L 307.113 678.438 L 309.277 676.254 L 310.898 674.66 L 312.523 673.105 L 313.746 671.961 L 314.965 670.84 L 316.801 669.195 L 318.641 667.598 L 320.023 666.426 L 321.406 665.277 L 323.484 663.605 L 325.574 661.984 L 327.145 660.805 L 328.715 659.652 L 329.898 658.805 L 331.086 657.977 L 332.867 656.758 L 334.656 655.578 L 336.004 654.711 L 337.355 653.867 L 339.387 652.629 L 341.43 651.434 L 342.969 650.563 L 344.512 649.715 L 345.672 649.09 L 346.836 648.48 L 348.59 647.582 L 350.355 646.711 L 351.68 646.074 L 353.012 645.449 L 355.02 644.539 L 357.039 643.656 L 358.563 643.012 L 360.09 642.387 L 362.395 641.473 L 364.719 640.594 L 366.473 639.953 L 368.234 639.328 L 370.898 638.426 L 373.586 637.559 L 375.617 636.93 L 377.664 636.32 L 380.758 635.441 L 383.887 634.594 L 386.254 633.984 L 388.645 633.391 L 392.266 632.535 L 395.934 631.711 L 401.531 630.539 L 407.242 629.422 L 416.039 627.836 L 425.129 626.313 L 448.32 622.664 L 448.906 622.574 L 449.496 622.484 L 450.367 622.355 L 451.238 622.234 L 452.527 622.055 L 453.805 621.891 L 455.699 621.66 L 457.563 621.449 L 460.309 621.18 L 463 620.953 L 464.98 620.816 L 466.934 620.699 L 469.816 620.566 L 472.641 620.48 L 474.727 620.445 L 476.785 620.434 L 479.832 620.453 L 482.836 620.52 L 487.27 620.684 L 491.641 620.918 L 498.145 621.355 L 504.656 621.844 L 509.598 622.215 L 514.629 622.555 L 518.48 622.773 L 522.418 622.957 L 525.438 623.059 L 528.52 623.129 L 530.879 623.16 L 533.277 623.164 L 536.961 623.125 L 540.754 623.027 L 547.945 622.664 L 548.852 622.609 L 549.754 622.555 L 551.105 622.48 L 552.453 622.414 L 554.465 622.328 L 556.465 622.262 L 559.441 622.191 L 562.398 622.152 L 566.785 622.152 L 571.121 622.215 L 577.531 622.402 L 583.832 622.68 L 593.086 623.195 L 602.113 623.746 L 608.746 624.121 L 615.27 624.422 L 620.09 624.57 L 624.852 624.633 L 626.621 624.629 L 628.387 624.613 L 631.02 624.559 L 633.637 624.461 L 635.586 624.359 L 637.531 624.234 L 638.98 624.125 L 640.426 623.996 L 641.508 623.891 L 642.59 623.773 L 644.203 623.586 L 645.813 623.371 L 647.016 623.195 L 648.215 623.008 L 649.113 622.859 L 650.008 622.699 L 651.348 622.449 L 652.688 622.18 L 653.688 621.961 L 654.688 621.738 L 656.18 621.379 L 657.672 620.992 L 658.785 620.688 L 659.898 620.367 L 660.73 620.113 L 661.563 619.855 L 662.809 619.449 L 664.051 619.023 L 664.98 618.691 L 665.906 618.348 L 666.602 618.082 L 667.297 617.809 L 668.336 617.383 L 669.375 616.945 L 670.152 616.605 L 670.93 616.258 L 672.094 615.719 L 673.254 615.156 L 674.125 614.723 L 674.992 614.273 L 675.645 613.934 L 676.293 613.582 L 677.266 613.043 L 678.238 612.488 L 678.969 612.063 L 679.695 611.625 L 680.785 610.953 L 681.875 610.262 L 682.691 609.727 L 683.504 609.18 L 684.727 608.34 L 685.945 607.469 L 686.855 606.797 L 687.77 606.109 L 688.453 605.582 L 689.133 605.043 L 690.156 604.223 L 691.18 603.379 L 691.945 602.73 L 692.711 602.07 L 693.859 601.059 L 695.004 600.016 L 697.383 597.758 L 697.387 597.758 L 697.844 597.309 L 698.297 596.859 L 698.969 596.188 L 699.633 595.516 L 700.609 594.508 L 701.566 593.5 L 702.961 591.996 L 704.309 590.492 L 705.289 589.363 L 706.242 588.238 L 706.945 587.395 L 707.633 586.551 L 708.637 585.285 L 709.613 584.02 L 710.328 583.07 L 711.023 582.121 L 712.039 580.699 L 713.02 579.273 L 713.734 578.203 L 714.43 577.133 L 714.938 576.328 L 715.438 575.523 L 716.168 574.316 L 716.875 573.105 L 717.395 572.195 L 717.898 571.281 L 718.637 569.91 L 719.348 568.539 L 719.863 567.504 L 720.367 566.469 L 721.098 564.91 L 721.801 563.344 L 722.313 562.164 L 722.805 560.98 L 723.52 559.195 L 724.203 557.402 L 724.695 556.051 L 725.172 554.688 L 725.859 552.637 L 726.512 550.566 L 726.984 549 L 727.441 547.422 L 728.094 545.039 L 728.719 542.629 L 729.602 538.957 L 730.434 535.223 L 731.609 529.477 L 732.723 523.551 L 734.367 514.281 L 736.078 504.508 L 737.234 498.133 L 737.344 497.547 L 737.449 496.961 L 737.609 496.09 L 737.766 495.227 L 737.996 493.941 L 738.219 492.664 L 738.547 490.777 L 738.859 488.918 L 739.309 486.172 L 739.727 483.484 L 740.305 479.543 L 740.82 475.703 L 741.164 472.887 L 741.473 470.113 L 741.684 468.059 L 741.871 466.027 L 742.117 463.016 L 742.32 460.039 L 742.441 457.828 L 742.535 455.625 L 742.637 452.344 L 742.676 449.074 L 742.672 446.621 L 742.633 444.168 L 742.582 442.324 L 742.516 440.473 L 742.383 437.68 L 742.207 434.867 L 742.051 432.738 L 741.867 430.59 L 741.555 427.324 L 741.191 424.004 L 740.551 418.895 L 739.797 413.613 L 737.234 398.504 "/>
</g>
</svg>
