<?xml version="1.0" encoding="UTF-8" standalone="no"?>
<!DOCTYPE svg PUBLIC "-//W3C//DTD SVG 1.1//EN" "http://www.w3.org/Graphics/SVG/1.1/DTD/svg11.dtd">
<svg xmlns="http://www.w3.org/2000/svg" xmlns:xlink="http://www.w3.org/1999/xlink" version="1.1" width="276.74998pt" height="276.74998pt" viewBox="0 0 276.74998 276.74998">
<g enable-background="new">
<clipPath id="cp0">
<path transform="matrix(.27777777,0,0,-.27777777,0,276.74998)" d="M 597.758 797.012 L 597.758 797.012 L 597.758 799.555 L 597.242 807.195 L 595.73 817.086 L 593.277 826.633 L 589.926 835.789 L 585.73 844.496 L 580.742 852.711 L 575.004 860.379 L 568.574 867.453 L 561.5 873.883 L 553.832 879.621 L 545.617 884.609 L 536.91 888.805 L 527.754 892.156 L 518.207 894.609 L 508.316 896.121 L 500.676 896.637 L 498.133 896.637 L 495.586 896.637 L 487.945 896.121 L 478.055 894.609 L 468.504 892.156 L 459.352 888.805 L 450.645 884.609 L 442.43 879.621 L 434.758 873.883 L 427.684 867.453 L 421.254 860.379 L 415.52 852.711 L 410.527 844.496 L 406.332 835.789 L 402.98 826.633 L 400.527 817.086 L 399.016 807.195 L 398.504 799.555 L 398.504 797.012 L 398.504 794.465 L 399.016 786.824 L 400.527 776.934 L 402.98 767.387 L 406.332 758.23 L 410.527 749.523 L 415.52 741.309 L 421.254 733.641 L 427.684 726.566 L 434.758 720.137 L 442.43 714.398 L 450.645 709.41 L 459.352 705.215 L 468.504 701.863 L 478.055 699.41 L 487.945 697.898 L 495.586 697.387 L 498.133 697.387 L 500.676 697.387 L 508.316 697.898 L 518.207 699.41 L 527.754 701.863 L 536.91 705.215 L 545.617 709.41 L 553.832 714.398 L 561.5 720.137 L 568.574 726.566 L 575.004 733.641 L 580.742 741.309 L 585.73 749.523 L 589.926 758.23 L 593.277 767.387 L 595.73 776.934 L 597.242 786.824 L 597.758 794.465 L 597.758 797.012 Z "/>
</clipPath>
<g clip-path="url(#cp0)">
<path transform="matrix(.27777777,0,0,-.27777777,0,276.74998)" d="M 398.504 697.387 L 597.758 697.387 L 597.758 896.637 L 398.504 896.637 Z "/>
</g>
<clipPath id="cp1">
<path transform="matrix(.27777777,0,0,-.27777777,0,276.74998)" d="M 373.598 533 L 373.598 400.996 L 374.109 394.398 L 374.215 393.582 L 414.684 69.8164 L 415.137 66.1602 L 417.863 55.3633 L 423.488 42.082 L 431.297 30.1992 L 441.023 19.9492 L 452.395 11.5742 L 465.156 5.29688 L 479.035 1.36328 L 490.086 0 L 493.77 0 L 502.492 0 L 506.172 0 L 517.223 1.36328 L 531.105 5.29688 L 543.863 11.5742 L 555.238 19.9492 L 564.961 30.1992 L 572.77 42.082 L 578.395 55.3633 L 581.121 66.1602 L 581.578 69.8164 L 622.051 393.582 L 622.152 394.398 L 622.664 401.199 L 622.664 403.469 L 622.664 587.797 L 622.664 591.809 L 621.043 603.855 L 616.398 618.816 L 609.051 632.355 L 599.32 644.152 L 587.523 653.883 L 573.984 661.23 L 559.023 665.875 L 546.977 667.496 L 542.965 667.496 L 453.301 667.496 L 449.285 667.496 L 437.238 665.875 L 422.277 661.23 L 408.738 653.883 L 396.941 644.152 L 387.207 632.355 L 379.859 618.816 L 375.215 603.855 L 373.598 591.809 L 373.598 587.797 L 373.598 533 Z "/>
</clipPath>
<g clip-path="url(#cp1)">
<path transform="matrix(.27777777,0,0,-.27777777,0,276.74998)" d="M 373.598 0 L 622.664 0 L 622.664 667.496 L 373.598 667.496 Z "/>
</g>
<path transform="matrix(.27777777,0,0,-.27777777,0,276.74998)" stroke-width="99.6264" stroke-linecap="round" stroke-linejoin="round" fill="none" stroke="#000000" d="M 268.992 946.449 L 268.871 945.926 L 268.75 945.402 L 268.57 944.621 L 268.395 943.844 L 268.133 942.691 L 267.875 941.551 L 267.5 939.859 L 267.133 938.191 L 266.598 935.738 L 266.09 933.336 L 265.363 929.816 L 264.684 926.391 L 263.75 921.406 L 262.914 916.566 L 262.352 913.016 L 261.836 909.508 L 261.484 906.898 L 261.16 904.297 L 260.723 900.402 L 260.34 896.492 L 260.09 893.535 L 259.867 890.543 L 259.586 885.98 L 259.367 881.293 L 259.145 873.957 L 259.031 866.152 L 259.027 856.785 L 259.035 855.746 L 259.039 854.707 L 259.043 853.152 L 259.047 851.609 L 259.047 849.305 L 259.047 847.02 L 259.039 843.617 L 259.027 840.254 L 259.004 835.27 L 258.977 830.363 L 258.953 823.133 L 258.953 816.059 L 258.988 810.848 L 259.059 805.715 L 259.242 798.148 L 259.555 790.734 L 259.711 787.992 L 259.887 785.266 L 260.199 781.215 L 260.57 777.199 L 260.891 774.211 L 261.246 771.242 L 261.543 769.031 L 261.859 766.824 L 262.117 765.18 L 262.383 763.539 L 262.816 761.086 L 263.277 758.641 L 263.648 756.816 L 264.039 754.996 L 264.348 753.637 L 264.664 752.277 L 265.164 750.246 L 265.695 748.219 L 266.109 746.699 L 266.539 745.188 L 267.219 742.922 L 267.934 740.66 L 268.5 738.969 L 269.086 737.277 L 269.539 736.016 L 270.008 734.75 L 270.734 732.855 L 271.492 730.965 L 272.082 729.547 L 272.691 728.129 L 273.637 726.008 L 274.621 723.887 L 275.391 722.297 L 276.184 720.707 L 276.793 719.516 L 277.418 718.324 L 278.383 716.535 L 279.379 714.746 L 280.148 713.406 L 280.938 712.066 L 282.156 710.051 L 283.418 708.035 L 284.395 706.523 L 285.395 705.012 L 286.945 702.738 L 288.555 700.461 L 289.801 698.75 L 291.082 697.039 L 292.066 695.75 L 293.066 694.465 L 294.609 692.527 L 296.195 690.59 L 298.879 687.422 L 299.52 686.688 L 300.156 685.957 L 301.117 684.875 L 302.074 683.809 L 303.516 682.234 L 304.953 680.691 L 307.113 678.438 L 309.277 676.254 L 310.898 674.66 L 312.523 673.105 L 313.746 671.961 L 314.965 670.84 L 316.801 669.195 L 318.641 667.598 L 320.023 666.426 L 321.406 665.277 L 323.484 663.605 L 325.574 661.984 L 327.145 660.805 L 328.715 659.652 L 329.898 658.805 L 331.086 657.977 L 332.867 656.758 L 334.656 655.578 L 336.004 654.711 L 337.355 653.867 L 339.387 652.629 L 341.43 651.434 L 342.969 650.563 L 344.512 649.715 L 345.672 649.09 L 346.836 648.48 L 348.59 647.582 L 350.355 646.711 L 351.68 646.074 L 353.012 645.449 L 355.02 644.539 L 357.039 643.656 L 358.563 643.012 L 360.09 642.387 L 362.395 641.473 L 364.719 640.594 L 366.473 639.953 L 368.234 639.328 L 370.898 638.426 L 373.586 637.559 L 375.617 636.93 L 377.664 636.32 L 380.758 635.441 L 383.887 634.594 L 386.254 633.984 L 388.645 633.391 L 392.266 632.535 L 395.934 631.711 L 401.531 630.539 L 407.242 629.422 L 416.039 627.836 L 425.129 626.313 L 448.32 622.664 L 448.906 622.574 L 449.496 622.484 L 450.367 622.355 L 451.238 622.234 L 452.527 622.055 L 453.805 621.891 L 455.699 621.66 L 457.563 621.449 L 460.309 621.18 L 463 620.953 L 464.98 620.816 L 466.934 620.699 L 469.816 620.566 L 472.641 620.48 L 474.727 620.445 L 476.785 620.434 L 479.832 620.453 L 482.836 620.52 L 487.27 620.684 L 491.641 620.918 L 498.145 621.355 L 504.656 621.844 L 509.598 622.215 L 514.629 622.555 L 518.48 622.773 L 522.418 622.957 L 525.438 623.059 L 528.52 623.129 L 530.879 623.16 L 533.277 623.164 L 536.961 623.125 L 540.754 623.027 L 547.945 622.664 L 548.852 622.605 L 549.754 622.551 L 551.098 622.469 L 552.438 622.395 L 554.434 622.293 L 556.414 622.199 L 559.352 622.074 L 562.254 621.973 L 566.547 621.852 L 570.766 621.762 L 576.965 621.688 L 583.023 621.656 L 591.867 621.652 L 600.457 621.645 L 606.754 621.598 L 612.945 621.48 L 617.531 621.332 L 622.074 621.117 L 625.461 620.906 L 628.828 620.648 L 631.348 620.422 L 633.855 620.16 L 635.738 619.945 L 637.613 619.707 L 639.02 619.516 L 640.426 619.313 L 642.535 618.98 L 644.645 618.621 L 646.223 618.332 L 647.805 618.027 L 650.18 617.531 L 652.555 616.996 L 654.34 616.563 L 656.129 616.105 L 657.473 615.742 L 658.816 615.367 L 660.836 614.773 L 662.863 614.141 L 664.387 613.645 L 665.914 613.125 L 667.063 612.723 L 668.215 612.309 L 669.945 611.66 L 671.684 610.984 L 672.988 610.457 L 674.301 609.914 L 676.273 609.066 L 678.258 608.176 L 679.75 607.484 L 681.25 606.77 L 683.512 605.648 L 685.785 604.477 L 687.504 603.559 L 689.227 602.609 L 690.527 601.879 L 691.832 601.125 L 693.801 599.965 L 695.785 598.758 L 697.383 597.758 L 697.387 597.758 L 698.031 597.352 L 698.684 596.941 L 699.66 596.332 L 700.637 595.719 L 702.109 594.805 L 703.59 593.895 L 705.816 592.527 L 708.051 591.164 L 711.41 589.125 L 714.773 587.082 L 719.813 584.02 L 724.82 580.945 L 728.539 578.625 L 732.215 576.285 L 734.934 574.523 L 737.621 572.746 L 739.609 571.402 L 741.574 570.051 L 744.469 568.004 L 747.301 565.938 L 749.375 564.367 L 751.406 562.785 L 752.902 561.586 L 754.371 560.379 L 755.453 559.465 L 756.516 558.547 L 757.305 557.852 L 758.082 557.156 L 759.23 556.105 L 760.359 555.047 L 761.188 554.246 L 762.004 553.441 L 762.605 552.836 L 763.199 552.227 L 764.074 551.305 L 764.934 550.379 L 765.566 549.68 L 766.184 548.977 L 766.645 548.445 L 767.094 547.914 L 767.758 547.109 L 768.41 546.301 L 768.891 545.691 L 769.359 545.082 L 770.047 544.156 L 770.719 543.227 L 771.207 542.523 L 771.684 541.816 L 772.035 541.281 L 772.379 540.746 L 772.883 539.938 L 773.371 539.125 L 773.727 538.512 L 774.074 537.895 L 774.328 537.434 L 774.578 536.965 L 774.945 536.262 L 775.301 535.559 L 775.559 535.023 L 775.809 534.488 L 776.172 533.684 L 776.523 532.871 L 776.777 532.258 L 777.02 531.641 L 777.367 530.715 L 777.699 529.777 L 777.934 529.07 L 778.152 528.359 L 778.313 527.824 L 778.465 527.285 L 778.684 526.473 L 778.883 525.656 L 779.023 525.039 L 779.156 524.418 L 779.34 523.484 L 779.504 522.543 L 779.613 521.832 L 779.711 521.117 L 779.777 520.578 L 779.836 520.035 L 779.91 519.219 L 779.973 518.398 L 780.012 517.777 L 780.039 517.156 L 780.066 516.215 L 780.074 515.27 L 780.066 514.555 L 780.047 513.836 L 780.027 513.297 L 780 512.754 L 779.949 511.934 L 779.879 511.109 L 779.82 510.484 L 779.754 509.863 L 779.637 508.918 L 779.5 507.969 L 779.383 507.254 L 779.258 506.535 L 779.16 505.992 L 779.051 505.445 L 778.879 504.625 L 778.695 503.801 L 778.547 503.176 L 778.391 502.551 L 778.141 501.605 L 777.875 500.656 L 777.086 498.133 L 776.891 497.551 L 776.688 496.969 L 776.383 496.105 L 776.066 495.25 L 775.578 493.973 L 775.074 492.715 L 774.684 491.777 L 774.285 490.848 L 773.98 490.16 L 773.668 489.473 L 773.191 488.453 L 772.703 487.445 L 772.328 486.695 L 771.949 485.949 L 771.363 484.844 L 770.766 483.754 L 770.309 482.945 L 769.84 482.145 L 769.488 481.547 L 769.129 480.957 L 768.582 480.074 L 768.023 479.207 L 767.598 478.563 L 767.168 477.922 L 766.516 476.973 L 765.848 476.035 L 765.34 475.34 L 764.824 474.656 L 764.043 473.637 L 763.242 472.641 L 762.633 471.898 L 762.016 471.172 L 761.547 470.629 L 761.074 470.094 L 760.359 469.301 L 759.633 468.52 L 759.082 467.941 L 758.523 467.371 L 757.68 466.527 L 756.82 465.699 L 756.168 465.09 L 755.512 464.488 L 755.016 464.043 L 754.512 463.602 L 753.754 462.953 L 752.988 462.313 L 752.406 461.84 L 751.824 461.375 L 750.938 460.688 L 750.043 460.016 L 749.367 459.52 L 748.684 459.035 L 748.168 458.676 L 747.648 458.32 L 746.863 457.797 L 746.074 457.285 L 745.48 456.91 L 744.879 456.539 L 743.973 455.992 L 743.055 455.461 L 742.367 455.074 L 741.668 454.691 L 740.617 454.133 L 739.559 453.594 L 738.758 453.199 L 737.949 452.816 L 737.34 452.535 L 736.73 452.262 L 735.809 451.859 L 734.879 451.469 L 734.18 451.184 L 733.473 450.906 L 732.414 450.508 L 731.344 450.121 L 730.535 449.844 L 729.727 449.578 L 729.113 449.383 L 728.504 449.191 L 727.578 448.918 L 726.652 448.656 L 725.953 448.469 L 725.25 448.285 L 724.191 448.023 L 723.129 447.781 L 722.328 447.605 L 721.523 447.441 L 720.309 447.211 L 719.09 447 L 718.172 446.855 L 717.25 446.719 L 716.555 446.629 L 715.859 446.539 L 714.813 446.422 L 713.762 446.32 L 712.969 446.25 L 712.176 446.191 L 710.98 446.117 L 709.781 446.059 L 708.879 446.027 L 707.973 446.008 L 706.609 446 L 705.242 446.012 L 704.211 446.039 L 703.18 446.078 L 702.402 446.117 L 701.625 446.164 L 700.457 446.246 L 699.281 446.348 L 698.398 446.438 L 697.516 446.531 L 696.188 446.695 L 694.855 446.883 L 693.855 447.035 L 692.852 447.203 L 692.098 447.336 L 691.344 447.477 L 690.211 447.699 L 689.074 447.941 L 687.422 448.32 "/>
</g>
</svg>
