<?xml version="1.0" encoding="UTF-8" standalone="no"?>
<!DOCTYPE svg PUBLIC "-//W3C//DTD SVG 1.1//EN" "http://www.w3.org/Graphics/SVG/1.1/DTD/svg11.dtd">
<svg xmlns="http://www.w3.org/2000/svg" xmlns:xlink="http://www.w3.org/1999/xlink" version="1.1" width="276.74998pt" height="276.74998pt" viewBox="0 0 276.74998 276.74998">
<g enable-background="new">
<clipPath id="cp0">
<path transform="matrix(.27777777,0,0,-.27777777,0,276.74998)" d="M 597.758 797.012 L 597.758 797.012 L 597.758 799.555 L 597.242 807.195 L 595.73 817.086 L 593.277 826.633 L 589.926 835.789 L 585.73 844.496 L 580.742 852.711 L 575.004 860.379 L 568.574 867.453 L 561.5 873.883 L 553.832 879.621 L 545.617 884.609 L 536.91 888.805 L 527.754 892.156 L 518.207 894.609 L 508.316 896.121 L 500.676 896.637 L 498.133 896.637 L 495.586 896.637 L 487.945 896.121 L 478.055 894.609 L 468.504 892.156 L 459.352 888.805 L 450.645 884.609 L 442.43 879.621 L 434.758 873.883 L 427.684 867.453 L 421.254 860.379 L 415.52 852.711 L 410.527 844.496 L 406.332 835.789 L 402.98 826.633 L 400.527 817.086 L 399.016 807.195 L 398.504 799.555 L 398.504 797.012 L 398.504 794.465 L 399.016 786.824 L 400.527 776.934 L 402.98 767.387 L 406.332 758.23 L 410.527 749.523 L 415.52 741.309 L 421.254 733.641 L 427.684 726.566 L 434.758 720.137 L 442.43 714.398 L 450.645 709.41 L 459.352 705.215 L 468.504 701.863 L 478.055 699.41 L 487.945 697.898 L 495.586 697.387 L 498.133 697.387 L 500.676 697.387 L 508.316 697.898 L 518.207 699.41 L 527.754 701.863 L 536.91 705.215 L 545.617 709.41 L 553.832 714.398 L 561.5 720.137 L 568.574 726.566 L 575.004 733.641 L 580.742 741.309 L 585.73 749.523 L 589.926 758.23 L 593.277 767.387 L 595.73 776.934 L 597.242 786.824 L 597.758 794.465 L 597.758 797.012 Z "/>
</clipPath>
<g clip-path="url(#cp0)">
<path transform="matrix(.27777777,0,0,-.27777777,0,276.74998)" d="M 398.504 697.387 L 597.758 697.387 L 597.758 896.637 L 398.504 896.637 Z "/>
</g>
<clipPath id="cp1">
<path transform="matrix(.27777777,0,0,-.27777777,0,276.74998)" d="M 373.598 533 L 373.598 400.996 L 374.109 394.398 L 374.215 393.582 L 414.684 69.8164 L 415.137 66.1602 L 417.863 55.3633 L 423.488 42.082 L 431.297 30.1992 L 441.023 19.9492 L 452.395 11.5742 L 465.156 5.29688 L 479.035 1.36328 L 490.086 0 L 493.77 0 L 502.492 0 L 506.172 0 L 517.223 1.36328 L 531.105 5.29688 L 543.863 11.5742 L 555.238 19.9492 L 564.961 30.1992 L 572.77 42.082 L 578.395 55.3633 L 581.121 66.1602 L 581.578 69.8164 L 622.051 393.582 L 622.152 394.398 L 622.664 401.199 L 622.664 403.469 L 622.664 587.797 L 622.664 591.809 L 621.043 603.855 L 616.398 618.816 L 609.051 632.355 L 599.32 644.152 L 587.523 653.883 L 573.984 661.23 L 559.023 665.875 L 546.977 667.496 L 542.965 667.496 L 453.301 667.496 L 449.285 667.496 L 437.238 665.875 L 422.277 661.23 L 408.738 653.883 L 396.941 644.152 L 387.207 632.355 L 379.859 618.816 L 375.215 603.855 L 373.598 591.809 L 373.598 587.797 L 373.598 533 Z "/>
</clipPath>
<g clip-path="url(#cp1)">
<path transform="matrix(.27777777,0,0,-.27777777,0,276.74998)" d="M 373.598 0 L 622.664 0 L 622.664 667.496 L 373.598 667.496 Z "/>
</g>
<path transform="matrix(.27777777,0,0,-.27777777,0,276.74998)" stroke-width="99.6264" stroke-linecap="round" stroke-linejoin="round" fill="none" stroke="#000000" d="M 268.992 946.449 L 268.871 945.926 L 268.75 945.402 L 268.57 944.621 L 268.395 943.844 L 268.133 942.691 L 267.875 941.551 L 267.5 939.859 L 267.133 938.191 L 266.598 935.738 L 266.09 933.336 L 265.363 929.816 L 264.684 926.391 L 263.75 921.406 L 262.914 916.566 L 262.352 913.016 L 261.836 909.508 L 261.484 906.898 L 261.16 904.297 L 260.723 900.402 L 260.34 896.492 L 260.09 893.535 L 259.867 890.543 L 259.586 885.98 L 259.367 881.293 L 259.145 873.957 L 259.031 866.152 L 259.027 856.785 L 259.035 855.746 L 259.039 854.707 L 259.043 853.156 L 259.047 851.609 L 259.051 849.309 L 259.055 847.023 L 259.051 843.629 L 259.047 840.27 L 259.039 835.301 L 259.031 830.406 L 259.035 823.203 L 259.07 816.156 L 259.133 810.969 L 259.23 805.863 L 259.336 802.078 L 259.465 798.336 L 259.723 792.793 L 260.063 787.332 L 260.375 783.281 L 260.746 779.273 L 261.063 776.289 L 261.414 773.324 L 261.703 771.113 L 262.016 768.914 L 262.531 765.629 L 263.098 762.363 L 263.559 759.93 L 264.055 757.5 L 264.449 755.688 L 264.863 753.875 L 265.523 751.168 L 266.23 748.473 L 266.793 746.453 L 267.387 744.438 L 267.848 742.93 L 268.328 741.426 L 269.078 739.168 L 269.871 736.918 L 270.488 735.23 L 271.129 733.543 L 271.625 732.281 L 272.137 731.016 L 272.926 729.125 L 273.746 727.23 L 274.383 725.813 L 275.039 724.391 L 276.055 722.262 L 277.113 720.133 L 277.934 718.531 L 278.781 716.934 L 279.434 715.734 L 280.098 714.531 L 281.121 712.73 L 282.176 710.926 L 282.992 709.57 L 283.824 708.215 L 285.109 706.176 L 286.438 704.137 L 287.461 702.602 L 288.512 701.066 L 290.137 698.754 L 291.82 696.438 L 293.117 694.699 L 294.453 692.949 L 296.52 690.324 L 298.664 687.684 L 298.879 687.422 L 299.684 686.457 L 300.484 685.504 L 301.695 684.094 L 302.906 682.703 L 304.727 680.652 L 306.555 678.652 L 307.934 677.184 L 309.313 675.738 L 311.391 673.621 L 313.477 671.563 L 315.051 670.055 L 316.625 668.578 L 317.813 667.488 L 319 666.422 L 320.793 664.848 L 322.59 663.313 L 323.941 662.188 L 325.297 661.082 L 327.34 659.461 L 329.391 657.891 L 330.934 656.738 L 332.484 655.613 L 333.652 654.789 L 334.82 653.977 L 336.582 652.781 L 338.348 651.617 L 339.68 650.766 L 341.012 649.93 L 343.02 648.711 L 345.039 647.523 L 346.559 646.66 L 348.086 645.816 L 350.383 644.586 L 352.695 643.402 L 354.434 642.543 L 356.184 641.707 L 357.5 641.094 L 358.82 640.496 L 360.809 639.625 L 362.805 638.781 L 364.309 638.168 L 365.816 637.57 L 368.094 636.703 L 370.379 635.867 L 372.102 635.266 L 373.832 634.68 L 376.441 633.836 L 379.066 633.035 L 381.047 632.461 L 383.035 631.906 L 386.035 631.113 L 389.059 630.371 L 391.34 629.84 L 393.637 629.336 L 397.098 628.625 L 400.59 627.969 L 403.23 627.508 L 405.887 627.074 L 409.898 626.473 L 413.949 625.93 L 417.016 625.559 L 420.102 625.215 L 424.773 624.754 L 429.496 624.352 L 436.676 623.852 L 443.977 623.461 L 449.531 623.234 L 455.152 623.055 L 463.727 622.863 L 472.461 622.746 L 498.133 622.664 L 499.387 622.664 L 500.641 622.664 L 502.512 622.664 L 504.375 622.668 L 507.16 622.668 L 509.93 622.672 L 514.051 622.684 L 518.133 622.703 L 524.195 622.75 L 530.18 622.824 L 539.012 622.996 L 547.672 623.27 L 554.059 623.547 L 560.355 623.898 L 565.02 624.219 L 569.637 624.59 L 573.066 624.902 L 576.469 625.25 L 581.52 625.832 L 586.516 626.496 L 590.223 627.051 L 593.898 627.656 L 596.637 628.145 L 599.355 628.664 L 601.383 629.074 L 603.402 629.504 L 606.41 630.184 L 609.398 630.906 L 611.625 631.477 L 613.84 632.074 L 615.496 632.539 L 617.141 633.02 L 619.602 633.77 L 622.047 634.551 L 623.871 635.164 L 625.688 635.797 L 627.043 636.285 L 628.398 636.785 L 630.418 637.559 L 632.43 638.359 L 633.934 638.977 L 635.43 639.613 L 637.664 640.598 L 639.891 641.617 L 641.551 642.406 L 643.203 643.219 L 644.441 643.844 L 645.672 644.477 L 647.516 645.457 L 649.352 646.461 L 650.723 647.234 L 652.086 648.027 L 654.129 649.242 L 656.16 650.5 L 657.68 651.465 L 659.191 652.453 L 660.324 653.211 L 661.449 653.98 L 663.137 655.16 L 664.816 656.367 L 666.074 657.289 L 667.328 658.23 L 669.199 659.676 L 671.063 661.156 L 672.457 662.297 L 673.844 663.453 L 675.922 665.238 L 677.988 667.07 L 679.531 668.477 L 681.07 669.914 L 682.219 671.016 L 683.367 672.129 L 685.082 673.832 L 686.793 675.574 L 688.07 676.91 L 689.348 678.266 L 691.254 680.34 L 693.152 682.465 L 697.387 687.422 L 698.047 688.227 L 698.703 689.027 L 699.672 690.23 L 700.621 691.43 L 702.02 693.223 L 703.383 695.012 L 704.383 696.352 L 705.359 697.688 L 706.789 699.691 L 708.18 701.688 L 709.191 703.18 L 710.18 704.672 L 711.621 706.906 L 713.008 709.137 L 714.016 710.805 L 714.996 712.473 L 715.711 713.723 L 716.41 714.969 L 717.434 716.84 L 718.422 718.711 L 719.141 720.113 L 719.844 721.516 L 720.859 723.617 L 721.836 725.715 L 722.543 727.293 L 723.23 728.867 L 724.215 731.23 L 725.156 733.598 L 725.832 735.375 L 726.48 737.152 L 726.949 738.488 L 727.406 739.824 L 728.066 741.828 L 728.695 743.836 L 729.148 745.348 L 729.586 746.859 L 730.211 749.129 L 730.801 751.406 L 731.223 753.121 L 731.621 754.836 L 732.191 757.418 L 732.723 760.008 L 733.094 761.961 L 733.445 763.918 L 733.934 766.867 L 734.379 769.832 L 734.688 772.066 L 734.973 774.313 L 735.359 777.703 L 735.699 781.117 L 735.926 783.695 L 736.129 786.289 L 736.395 790.215 L 736.613 794.18 L 736.867 800.203 L 737.043 806.332 L 737.188 815.738 L 737.234 825.414 L 737.23 832.871 L 737.215 840.508 L 737.234 856.785 L 737.238 857.328 L 737.242 857.863 L 737.242 858.664 L 737.246 859.461 L 737.25 860.645 L 737.25 861.813 L 737.246 863.547 L 737.238 865.25 L 737.219 867.762 L 737.188 870.219 L 737.125 873.813 L 737.035 877.305 L 736.852 882.371 L 736.605 887.273 L 736.375 890.867 L 736.105 894.398 L 735.875 897.023 L 735.621 899.629 L 735.195 903.527 L 734.707 907.426 L 734.305 910.367 L 733.863 913.332 L 733.137 917.844 L 732.32 922.469 L 730.93 929.676 L 729.324 937.313 L 727.273 946.449 "/>
</g>
</svg>
