<?xml version="1.0" encoding="UTF-8" standalone="no"?>
<!DOCTYPE svg PUBLIC "-//W3C//DTD SVG 1.1//EN" "http://www.w3.org/Graphics/SVG/1.1/DTD/svg11.dtd">
<svg xmlns="http://www.w3.org/2000/svg" xmlns:xlink="http://www.w3.org/1999/xlink" version="1.1" width="213.08333pt" height="29.055556pt" viewBox="0 0 213.08333 29.055556">
<g enable-background="new">
<clipPath id="cp0">
<path transform="matrix(.27777777,0,0,-.27777777,0,29.055556)" d="M 380.133 9.59766 L 716.574 9.59766 L 722.785 10.4297 L 730.496 12.8242 L 737.477 16.6133 L 743.559 21.6328 L 748.578 27.7148 L 752.367 34.6992 L 754.762 42.4102 L 755.598 48.6211 L 755.598 50.6953 L 755.598 52.7656 L 754.762 58.9766 L 752.367 66.6875 L 748.578 73.668 L 743.559 79.75 L 737.477 84.7695 L 730.496 88.5586 L 722.781 90.9531 L 716.57 91.7891 L 714.5 91.7891 L 45.7617 91.7891 L 43.6875 91.7891 L 37.4766 90.9531 L 29.7656 88.5586 L 22.7813 84.7695 L 16.6992 79.75 L 11.6797 73.668 L 7.89063 66.6875 L 5.49609 58.9766 L 4.66406 52.7656 L 4.66406 50.6953 L 4.66406 48.6211 L 5.49609 42.4102 L 7.89063 34.6992 L 11.6797 27.7148 L 16.6992 21.6328 L 22.7813 16.6133 L 29.7656 12.8242 L 37.4766 10.4297 L 43.6875 9.59766 L 45.7617 9.59766 L 380.133 9.59766 Z "/>
</clipPath>
<g clip-path="url(#cp0)">
<path transform="matrix(.27777777,0,0,-.27777777,0,29.055556)" d="M 4.66406 9.59766 L 755.5981 9.59766 L 755.5981 91.78906 L 4.66406 91.78906 Z " fill="#999999"/>
</g>
<clipPath id="cp1">
<path transform="matrix(.27777777,0,0,-.27777777,0,29.055556)" d="M 83.1211 50.6953 L 83.1211 50.6953 L 83.1211 52.5742 L 82.3594 58.2227 L 80.1836 65.2344 L 76.7383 71.582 L 72.1758 77.1094 L 66.6484 81.6719 L 60.3008 85.1172 L 53.2891 87.293 L 47.6406 88.0547 L 45.7617 88.0547 L 43.8789 88.0547 L 38.2305 87.293 L 31.2188 85.1172 L 24.8711 81.6719 L 19.3398 77.1094 L 14.7773 71.582 L 11.332 65.2344 L 9.15625 58.2227 L 8.39844 52.5742 L 8.39844 50.6953 L 8.39844 48.8125 L 9.15625 43.1641 L 11.332 36.1523 L 14.7773 29.8047 L 19.3398 24.2773 L 24.8711 19.7148 L 31.2188 16.2695 L 38.2305 14.0938 L 43.8789 13.3359 L 45.7617 13.3359 L 47.6406 13.3359 L 53.2891 14.0938 L 60.3008 16.2695 L 66.6484 19.7148 L 72.1758 24.2773 L 76.7383 29.8047 L 80.1836 36.1523 L 82.3594 43.1641 L 83.1211 48.8125 L 83.1211 50.6953 Z "/>
</clipPath>
<g clip-path="url(#cp1)">
<path transform="matrix(.27777777,0,0,-.27777777,0,29.055556)" d="M 8.39844 13.3359 L 83.12114 13.3359 L 83.12114 88.0547 L 8.39844 88.0547 Z " fill="#0771ca"/>
</g>
<path transform="matrix(.27777777,0,0,-.27777777,0,29.055556)" stroke-width="7.47198" stroke-linecap="butt" stroke-miterlimit="10" stroke-linejoin="miter" fill="none" stroke="#ffffff" d="M 45.7617 61.9023 L 45.7617 28.2773 "/>
<clipPath id="cp2">
<path transform="matrix(.27777777,0,0,-.27777777,0,29.055556)" d="M 51.3633 73.1094 L 51.3633 73.1094 L 51.3633 73.6523 L 50.9219 75.2891 L 49.7227 77.0703 L 47.9414 78.2734 L 46.3047 78.7148 L 45.7617 78.7148 L 45.2148 78.7148 L 43.5781 78.2734 L 41.7969 77.0703 L 40.5938 75.2891 L 40.1563 73.6523 L 40.1563 73.1094 L 40.1563 72.5625 L 40.5938 70.9258 L 41.7969 69.1484 L 43.5781 67.9453 L 45.2148 67.5078 L 45.7617 67.5078 L 46.3047 67.5078 L 47.9414 67.9453 L 49.7227 69.1484 L 50.9219 70.9258 L 51.3633 72.5625 L 51.3633 73.1094 Z "/>
</clipPath>
<g clip-path="url(#cp2)">
<path transform="matrix(.27777777,0,0,-.27777777,0,29.055556)" d="M 40.1563 67.5078 L 51.3633 67.5078 L 51.3633 78.7148 L 40.1563 78.7148 Z " fill="#ffffff"/>
</g>
<path transform="matrix(.27777777,0,0,-.27777777,0,29.055556)" stroke-width="4.48319" stroke-linecap="butt" stroke-miterlimit="10" stroke-linejoin="miter" fill="none" stroke="#ffffff" d="M 36.793 59.6602 L 45.7617 59.6602 "/>
<path transform="matrix(.27777777,0,0,-.27777777,0,29.055556)" stroke-width="4.48319" stroke-linecap="butt" stroke-miterlimit="10" stroke-linejoin="miter" fill="none" stroke="#ffffff" d="M 36.793 30.5195 L 54.7266 30.5195 "/>
<symbol id="font_3_2">
<path d="M 0 .36400003 C 0 .157 .162 0 .34800003 0 C .51100006 0 .609 .13900002 .609 .25500003 C .609 .26500003 .609 .272 .596 .272 C .58500006 .272 .58500006 .26600004 .58400008 .256 C .57600006 .113000009 .46900005 .031000004 .36 .031000004 C .29900003 .031000004 .10300001 .065000008 .10300001 .36300005 C .10300001 .66200008 .298 .69600006 .35900004 .69600006 C .46800006 .69600006 .55700007 .605 .577 .45900003 C .57900008 .44500003 .57900008 .44200004 .59300008 .44200004 C .609 .44200004 .609 .44500003 .609 .46600006 L .609 .70300009 C .609 .72 .609 .72700008 .59800007 .72700008 C .59400007 .72700008 .59000006 .72700008 .582 .71500006 L .532 .64100006 C .495 .67700007 .444 .72700008 .34800003 .72700008 C .16100002 .72700008 0 .568 0 .36400003 Z "/>
</symbol>
<symbol id="font_3_9">
<path d="M .07800001 .076000008 C .07800001 .031000002 .067 .031000002 0 .031000002 L 0 0 C .035 .001 .08600001 .003 .113000009 .003 C .139 .003 .191 .001 .225 0 L .225 .031000002 C .158 .031000002 .147 .031000002 .147 .076000008 L .147 .26000003 C .147 .36400003 .218 .42000003 .282 .42000003 C .345 .42000003 .356 .36600004 .356 .30900003 L .356 .076000008 C .356 .031000002 .345 .031000002 .278 .031000002 L .278 0 C .31300003 .001 .36400003 .003 .391 .003 C .41700004 .003 .46900005 .001 .503 0 L .503 .031000002 C .451 .031000002 .42600004 .031000002 .425 .061000006 L .425 .252 C .425 .33800004 .425 .36900003 .39400003 .40500004 C .38000003 .42200003 .347 .44200004 .289 .44200004 C .20500002 .44200004 .161 .38200004 .14400001 .344 L .14400001 .694 L 0 .683 L 0 .652 C .07000001 .652 .07800001 .64500007 .07800001 .596 L .07800001 .076000008 Z "/>
</symbol>
<symbol id="font_3_a">
<path d="M .144 .44200004 L .0040000008 .43100003 L .0040000008 .4 C .069000009 .4 .07800001 .39400003 .07800001 .34500004 L .07800001 .076000008 C .07800001 .031000002 .067 .031000002 0 .031000002 L 0 0 C .032000007 .001 .086 .003 .11000001 .003 C .14500001 .003 .18 .001 .21400002 0 L .21400002 .031000002 C .148 .031000002 .144 .036000004 .144 .075 L .144 .44200004 M .148 .61600008 C .148 .648 .123 .669 .095000009 .669 C .064 .669 .042000005 .642 .042000005 .61600008 C .042000005 .58900007 .064 .563 .095000009 .563 C .123 .563 .148 .58400008 .148 .61600008 Z "/>
</symbol>
<symbol id="font_3_1">
<path d="M .07800001 .344 L .07800001 .076000008 C .07800001 .031000002 .067 .031000002 0 .031000002 L 0 0 C .035 .001 .08600001 .003 .113000009 .003 C .139 .003 .191 .001 .225 0 L .225 .031000002 C .158 .031000002 .147 .031000002 .147 .076000008 L .147 .26000003 C .147 .36400003 .218 .42000003 .282 .42000003 C .345 .42000003 .356 .36600004 .356 .30900003 L .356 .076000008 C .356 .031000002 .345 .031000002 .278 .031000002 L .278 0 C .31300003 .001 .36400003 .003 .391 .003 C .41700004 .003 .46900005 .001 .503 0 L .503 .031000002 C .451 .031000002 .42600004 .031000002 .425 .061000006 L .425 .252 C .425 .33800004 .425 .36900003 .39400003 .40500004 C .38000003 .42200003 .347 .44200004 .289 .44200004 C .216 .44200004 .169 .39900003 .141 .337 L .141 .44200004 L 0 .43100003 L 0 .4 C .07000001 .4 .07800001 .393 .07800001 .344 Z "/>
</symbol>
<symbol id="font_3_8">
<path d="M .08400001 .263 C .09 .41200004 .17400001 .43700005 .20800002 .43700005 C .31100003 .43700005 .321 .30200003 .321 .263 L .08400001 .263 M .083000008 .24200002 L .36200003 .24200002 C .38400004 .24200002 .38700003 .24200002 .38700003 .263 C .38700003 .36200003 .33300004 .45900003 .20800002 .45900003 C .09200001 .45900003 0 .35600005 0 .23100002 C 0 .097 .105000007 0 .22000002 0 C .342 0 .38700003 .111 .38700003 .13000001 C .38700003 .14000002 .379 .14200002 .374 .14200002 C .365 .14200002 .36300005 .136 .36100004 .128 C .326 .025000003 .236 .025000003 .22600001 .025000003 C .17600002 .025000003 .136 .055000005 .113000009 .092 C .083000008 .14000002 .083000008 .20600002 .083000008 .24200002 Z "/>
</symbol>
<symbol id="font_3_3">
<path d="M .17500001 .20500002 C .197 .20100002 .279 .18500002 .279 .113000009 C .279 .062000004 .24400002 .022000002 .16600001 .022000002 C .082 .022000002 .046000005 .079 .027000003 .16400002 C .024000004 .17700002 .023000002 .18100001 .013000004 .18100001 C 0 .18100001 0 .17400001 0 .15600002 L 0 .024 C 0 .0070000009 0 0 .011000004 0 C .016000003 0 .017 .0010000002 .036000007 .020000002 C .038000004 .022000002 .038000004 .024 .056 .043 C .1 .0010000002 .14500001 0 .16600001 0 C .28100003 0 .32700003 .067 .32700003 .13900002 C .32700003 .19200002 .29700003 .22200002 .28500004 .23400001 C .25200004 .26600004 .213 .27400003 .171 .28200004 C .115 .293 .048 .30600003 .048 .36400003 C .048 .39900003 .07400001 .44000004 .16 .44000004 C .27 .44000004 .27500005 .35000003 .277 .31900005 C .27800004 .31000004 .28700004 .31000004 .28900004 .31000004 C .30200003 .31000004 .30200003 .31500004 .30200003 .33400003 L .30200003 .43500004 C .30200003 .45200003 .30200003 .45900003 .291 .45900003 C .286 .45900003 .284 .45900003 .27100004 .44700004 C .26800005 .44300003 .25800003 .43400003 .254 .43100003 C .21600002 .45900003 .17500001 .45900003 .16 .45900003 C .038000004 .45900003 0 .39200003 0 .33600004 C 0 .30100004 .016000003 .27300004 .043000007 .25100003 C .075 .22500003 .10300001 .21900001 .17500001 .20500002 Z "/>
</symbol>
<symbol id="font_3_7">
<path d="M .083000008 .22900002 C .083000008 .39200003 .16500002 .43400003 .218 .43400003 C .227 .43400003 .29 .43300004 .32500003 .397 C .284 .39400003 .278 .36400003 .278 .351 C .278 .32500003 .296 .305 .324 .305 C .35 .305 .37 .32200004 .37 .35200004 C .37 .42000003 .294 .45900003 .21700001 .45900003 C .092 .45900003 0 .351 0 .22700002 C 0 .09900001 .099 0 .215 0 C .349 0 .381 .120000008 .381 .13000001 C .381 .14000002 .37100003 .14000002 .368 .14000002 C .359 .14000002 .35700003 .136 .35500003 .13000001 C .326 .037 .261 .025000003 .224 .025000003 C .171 .025000003 .083000008 .068 .083000008 .22900002 Z "/>
</symbol>
<symbol id="font_3_b">
<path d="M .293 .41000004 L .16500002 .44100005 C .10300001 .45600004 .064 .51000007 .064 .568 C .064 .6380001 .11800001 .69900009 .19600001 .69900009 C .36300005 .69900009 .38500003 .535 .39100004 .49000005 C .39200003 .48400004 .39200003 .47800005 .40300004 .47800005 C .41600005 .47800005 .41600005 .48300005 .41600005 .50200006 L .41600005 .70300009 C .41600005 .72 .41600005 .72700008 .40500004 .72700008 C .39800004 .72700008 .397 .7260001 .39000003 .71400007 L .35500003 .65700009 C .32500003 .68600007 .284 .72700008 .19500003 .72700008 C .084 .72700008 0 .63900008 0 .53300008 C 0 .45000006 .053000004 .37700004 .13100001 .35000003 C .14200002 .34600003 .19300002 .33400003 .263 .31700004 C .29000003 .31000004 .32000003 .30300004 .34800003 .26600004 C .36900003 .24000001 .37900005 .207 .37900005 .17400001 C .37900005 .103 .32900004 .031000004 .24500004 .031000004 C .21600002 .031000004 .14000002 .036000004 .087000008 .085 C .029 .13900002 .026 .20300001 .024999999 .23900001 C .024000004 .24900002 .016000003 .24900002 .013000004 .24900002 C 0 .24900002 0 .24200002 0 .224 L 0 .024000003 C 0 .007000001 0 0 .011 0 C .018 0 .019000002 .0020000004 .026 .013000001 C .026 .014000001 .029 .017 .062000008 .07 C .093 .036000004 .157 0 .24600002 0 C .36300005 0 .44300003 .098000008 .44300003 .208 C .44300003 .30800004 .37700004 .39000006 .293 .41000004 Z "/>
</symbol>
<symbol id="font_3_4">
<path d="M .15400002 .411 L .29700003 .411 L .29700003 .44200004 L .15400002 .44200004 L .15400002 .626 L .12900001 .626 C .12799999 .544 .098000008 .43700005 0 .43300004 L 0 .411 L .085 .411 L .085 .135 C .085 .012000001 .178 0 .21400002 0 C .28500004 0 .31300003 .071 .31300003 .135 L .31300003 .19200002 L .28800003 .19200002 L .28800003 .13700001 C .28800003 .063 .25800003 .025000003 .22100002 .025000003 C .15400002 .025000003 .15400002 .116000007 .15400002 .13300002 L .15400002 .411 Z "/>
</symbol>
<symbol id="font_3_c">
<path d="M .1 .050000013 C .1 .074 .080000009 .100000027 .050000006 .100000027 C .021999993 .100000027 0 .07800001 0 .050000013 C 0 .022000015 .021999993 0 .050000006 0 C .080000009 0 .1 .026000023 .1 .050000013 M .293 .050000013 C .293 .07800001 .271 .100000027 .243 .100000027 C .213 .100000027 .19299999 .074 .19299999 .050000013 C .19299999 .026000023 .213 0 .243 0 C .271 0 .293 .022000015 .293 .050000013 Z "/>
</symbol>
<symbol id="font_3_5">
<path d="M .291 .087000008 C .29500003 .047000003 .32200004 .005000001 .36900003 .005000001 C .39000003 .005000001 .45100004 .019000002 .45100004 .1 L .45100004 .15600002 L .42600004 .15600002 L .42600004 .1 C .42600004 .042000005 .40100003 .036000004 .39000003 .036000004 C .35700003 .036000004 .35300002 .081 .35300002 .086 L .35300002 .286 C .35300002 .328 .35300002 .367 .31700004 .404 C .27800004 .44300003 .22800002 .45900003 .18 .45900003 C .098 .45900003 .029 .41200004 .029 .34600003 C .029 .316 .049000004 .29900003 .075 .29900003 C .10300001 .29900003 .121 .31900005 .121 .34500004 C .121 .35700003 .116000007 .39000003 .07 .39100004 C .09700001 .42600004 .146 .43700005 .178 .43700005 C .22700003 .43700005 .284 .39800004 .284 .30900003 L .284 .272 C .23300001 .26900003 .16300002 .26600004 .1 .23600002 C .024999999 .20200002 0 .15000002 0 .106000009 C 0 .025000003 .09700001 0 .16 0 C .22600001 0 .272 .040000004 .291 .087000008 M .284 .25100003 L .284 .15100001 C .284 .056 .21200001 .022000002 .167 .022000002 C .11800001 .022000002 .077 .057000005 .077 .107 C .077 .16200002 .11900001 .24500002 .284 .25100003 Z "/>
</symbol>
<symbol id="font_3_6">
<path d="M .14400001 .388 L .14400001 .705 L 0 .694 L 0 .663 C .07000001 .663 .07800001 .656 .07800001 .607 L .07800001 .011000001 L .103000018 .011000001 C .104 .012000001 .112 .026 .13900002 .07300001 C .15400002 .05 .19600001 0 .27 0 C .38900004 0 .49300004 .098000008 .49300004 .22700002 C .49300004 .35400004 .395 .45300005 .28100003 .45300005 C .20300001 .45300005 .16000001 .40600003 .14400001 .388 M .14700002 .12500002 L .14700002 .33100004 C .14700002 .35000003 .14700002 .351 .158 .367 C .19700001 .42300005 .252 .43100003 .27600003 .43100003 C .321 .43100003 .35700003 .40500004 .381 .367 C .40700004 .32600004 .41000004 .26900003 .41000004 .22800002 C .41000004 .19100002 .40800003 .13100001 .379 .086 C .358 .055000005 .32000003 .022000002 .266 .022000002 C .22100002 .022000002 .18500002 .046 .16100002 .083000008 C .14700002 .104 .14700002 .107 .14700002 .12500002 Z "/>
</symbol>
<use xlink:href="#font_3_2" transform="matrix(18.679972,0,0,-18.679972,28.378966,21.300292)"/>
<use xlink:href="#font_3_9" transform="matrix(18.679972,0,0,-18.679972,41.26399,20.889332)"/>
<use xlink:href="#font_3_a" transform="matrix(18.679972,0,0,-18.679972,51.616006,20.889332)"/>
<use xlink:href="#font_3_1" transform="matrix(18.679972,0,0,-18.679972,56.930658,20.889332)"/>
<use xlink:href="#font_3_8" transform="matrix(18.679972,0,0,-18.679972,67.18927,21.094813)"/>
<use xlink:href="#font_3_3" transform="matrix(18.679972,0,0,-18.679972,75.616008,21.094813)"/>
<use xlink:href="#font_3_a" transform="matrix(18.679972,0,0,-18.679972,82.94934,20.889332)"/>
<use xlink:href="#font_3_3" transform="matrix(18.679972,0,0,-18.679972,88.28268,21.094813)"/>
<use xlink:href="#font_3_7" transform="matrix(18.679972,0,0,-18.679972,95.63469,21.094813)"/>
<use xlink:href="#font_3_9" transform="matrix(18.679972,0,0,-18.679972,103.26378,20.889332)"/>
<use xlink:href="#font_3_8" transform="matrix(18.679972,0,0,-18.679972,113.52239,21.094813)"/>
<use xlink:href="#font_3_b" transform="matrix(18.679972,0,0,-18.679972,128.7121,21.300292)"/>
<use xlink:href="#font_3_4" transform="matrix(18.679972,0,0,-18.679972,138.35427,21.094813)"/>
<use xlink:href="#font_3_c" transform="matrix(18.679972,0,0,-18.679972,147.25673,10.260427)"/>
<use xlink:href="#font_3_5" transform="matrix(18.679972,0,0,-18.679972,146.11768,21.094813)"/>
<use xlink:href="#font_3_6" transform="matrix(18.679972,0,0,-18.679972,155.18949,21.094813)"/>
<use xlink:href="#font_3_7" transform="matrix(18.679972,0,0,-18.679972,166.30135,21.094813)"/>
<use xlink:href="#font_3_9" transform="matrix(18.679972,0,0,-18.679972,173.9311,20.889332)"/>
<use xlink:href="#font_3_8" transform="matrix(18.679972,0,0,-18.679972,184.18973,21.094813)"/>
<use xlink:href="#font_3_1" transform="matrix(18.679972,0,0,-18.679972,192.59781,20.889332)"/>
</g>
</svg>
