<?xml version="1.0" encoding="UTF-8" standalone="no"?>
<!DOCTYPE svg PUBLIC "-//W3C//DTD SVG 1.1//EN" "http://www.w3.org/Graphics/SVG/1.1/DTD/svg11.dtd">
<svg xmlns="http://www.w3.org/2000/svg" xmlns:xlink="http://www.w3.org/1999/xlink" version="1.1" width="63.638887pt" height="18.944445pt" viewBox="0 0 63.638887 18.944445">
<g enable-background="new">
<clipPath id="cp0">
<path transform="matrix(.27777777,0,0,-.27777777,0,18.944445)" d="M 113.008 6.61719 L 31.9219 6.61719 L 27.7813 7.17188 L 22.6406 8.76953 L 17.9883 11.2969 L 13.9336 14.6406 L 10.5859 18.6953 L 8.0625 23.3516 L 6.46484 28.4922 L 5.91016 32.6328 L 5.91016 34.0156 L 5.91016 35.3945 L 6.46484 39.5352 L 8.0625 44.6758 L 10.5898 49.332 L 13.9336 53.3867 L 17.9883 56.7305 L 22.6445 59.2578 L 27.7852 60.8555 L 31.9258 61.4141 L 33.3086 61.4141 L 192.711 61.4141 L 194.09 61.4141 L 198.23 60.8555 L 203.371 59.2578 L 208.023 56.7305 L 212.078 53.3867 L 215.426 49.332 L 217.949 44.6758 L 219.547 39.5352 L 220.105 35.3945 L 220.105 34.0156 L 220.105 32.6328 L 219.547 28.4922 L 217.949 23.3516 L 215.422 18.6953 L 212.078 14.6406 L 208.023 11.2969 L 203.367 8.76953 L 198.227 7.17188 L 194.086 6.61719 L 192.707 6.61719 L 113.008 6.61719 Z "/>
</clipPath>
<g clip-path="url(#cp0)">
<path transform="matrix(.27777777,0,0,-.27777777,0,18.944445)" d="M 5.91016 6.61719 L 220.10517 6.61719 L 220.10517 61.414094 L 5.91016 61.414094 Z " fill="#ffffff"/>
</g>
<clipPath id="cp1">
<path transform="matrix(.27777777,0,0,-.27777777,0,18.944445)" d="M 217.617 34.0156 L 217.617 34.0156 L 217.617 35.2695 L 217.109 39.0313 L 215.656 43.707 L 213.359 47.9375 L 210.316 51.625 L 206.633 54.6641 L 202.398 56.9609 L 197.723 58.4141 L 193.961 58.9219 L 192.707 58.9219 L 191.449 58.9219 L 187.688 58.4141 L 183.012 56.9609 L 178.781 54.6641 L 175.094 51.625 L 172.055 47.9375 L 169.758 43.707 L 168.305 39.0313 L 167.801 35.2695 L 167.801 34.0156 L 167.801 32.7578 L 168.305 28.9961 L 169.758 24.3203 L 172.055 20.0898 L 175.094 16.4023 L 178.781 13.3633 L 183.012 11.0664 L 187.688 9.61328 L 191.449 9.10938 L 192.707 9.10938 L 193.961 9.10938 L 197.723 9.61328 L 202.398 11.0664 L 206.633 13.3633 L 210.316 16.4023 L 213.359 20.0898 L 215.656 24.3203 L 217.109 28.9961 L 217.617 32.7578 L 217.617 34.0156 Z "/>
</clipPath>
<g clip-path="url(#cp1)">
<path transform="matrix(.27777777,0,0,-.27777777,0,18.944445)" d="M 167.801 9.10938 L 217.6174 9.10938 L 217.6174 58.92188 L 167.801 58.92188 Z " fill="#0771ca"/>
</g>
<path transform="matrix(.27777777,0,0,-.27777777,0,18.944445)" stroke-width="4.98132" stroke-linecap="butt" stroke-miterlimit="10" stroke-linejoin="miter" fill="none" stroke="#ffffff" d="M 192.707 41.4883 L 192.707 19.0703 "/>
<clipPath id="cp2">
<path transform="matrix(.27777777,0,0,-.27777777,0,18.944445)" d="M 196.445 48.9609 L 196.445 48.9609 L 196.445 49.3242 L 196.148 50.4141 L 195.348 51.6016 L 194.16 52.3984 L 193.07 52.6953 L 192.707 52.6953 L 192.34 52.6953 L 191.25 52.3984 L 190.066 51.6016 L 189.266 50.4141 L 188.973 49.3242 L 188.973 48.9609 L 188.973 48.5938 L 189.266 47.5039 L 190.066 46.3164 L 191.25 45.5156 L 192.34 45.2227 L 192.707 45.2227 L 193.07 45.2227 L 194.16 45.5156 L 195.348 46.3164 L 196.148 47.5039 L 196.445 48.5938 L 196.445 48.9609 Z "/>
</clipPath>
<g clip-path="url(#cp2)">
<path transform="matrix(.27777777,0,0,-.27777777,0,18.944445)" d="M 188.973 45.2227 L 196.44567 45.2227 L 196.44567 52.69536 L 188.973 52.69536 Z " fill="#ffffff"/>
</g>
<path transform="matrix(.27777777,0,0,-.27777777,0,18.944445)" stroke-width="2.98879" stroke-linecap="butt" stroke-miterlimit="10" stroke-linejoin="miter" fill="none" stroke="#ffffff" d="M 186.73 39.9922 L 192.707 39.9922 "/>
<path transform="matrix(.27777777,0,0,-.27777777,0,18.944445)" stroke-width="2.98879" stroke-linecap="butt" stroke-miterlimit="10" stroke-linejoin="miter" fill="none" stroke="#ffffff" d="M 186.73 20.5664 L 198.688 20.5664 "/>
<symbol id="font_3_4">
<path d="M .18900001 .37500004 L .18900001 .63400009 C .18900001 .65700009 .18900001 .669 .21100001 .67200008 C .22100002 .674 .25000004 .674 .27 .674 C .36 .674 .47200004 .67 .47200004 .52500006 C .47200004 .45600004 .448 .37500004 .3 .37500004 L .18900001 .37500004 M .40000005 .36200003 C .497 .38600005 .575 .44700004 .575 .52500006 C .575 .62100008 .46100004 .70500007 .314 .70500007 L 0 .70500007 L 0 .674 L .024000004 .674 C .10100001 .674 .103000018 .66300007 .103000018 .62700006 L .103000018 .1 C .103000018 .064 .10100001 .053000004 .024000004 .053000004 L 0 .053000004 L 0 .022000002 C .036000004 .025000003 .10700001 .025000003 .14600002 .025000003 C .18500002 .025000003 .256 .025000003 .29200004 .022000002 L .29200004 .053000004 L .268 .053000004 C .19100002 .053000004 .18900001 .064 .18900001 .1 L .18900001 .35300005 L .30400003 .35300005 C .32000003 .35300005 .36200003 .35300005 .397 .31900005 C .43500004 .28300003 .43500004 .252 .43500004 .185 C .43500004 .120000008 .43500004 .080000009 .47600005 .042000005 C .517 .006000001 .572 0 .602 0 C .68 0 .697 .082 .697 .11000001 C .697 .116000007 .697 .127 .684 .127 C .673 .127 .673 .118 .672 .111 C .666 .040000004 .631 .022000002 .606 .022000002 C .557 .022000002 .549 .07300001 .535 .16600001 L .522 .246 C .504 .31000004 .455 .34300003 .40000005 .36200003 Z "/>
</symbol>
<symbol id="font_3_6">
<path d="M .1 .050000013 C .1 .074 .080000009 .100000027 .050000006 .100000027 C .021999993 .100000027 0 .07800001 0 .050000013 C 0 .022000015 .021999993 0 .050000006 0 C .080000009 0 .1 .026000023 .1 .050000013 M .293 .050000013 C .293 .07800001 .271 .100000027 .243 .100000027 C .213 .100000027 .19299999 .074 .19299999 .050000013 C .19299999 .026000023 .213 0 .243 0 C .271 0 .293 .022000015 .293 .050000013 Z "/>
</symbol>
<symbol id="font_3_1">
<path d="M .44300003 .22500003 C .44300003 .35300002 .34300003 .45900003 .222 .45900003 C .097 .45900003 0 .35000003 0 .22500003 C 0 .096 .104 0 .22100002 0 C .342 0 .44300003 .098000008 .44300003 .22500003 M .222 .025000003 C .17900002 .025000003 .135 .046 .10800001 .092 C .083000008 .136 .083000008 .19700001 .083000008 .23300003 C .083000008 .272 .083000008 .32600004 .10700001 .37000004 C .134 .41600005 .18100001 .43700005 .22100002 .43700005 C .26500003 .43700005 .30800004 .41500003 .33400003 .37200005 C .36 .32900004 .36 .27100004 .36 .23300003 C .36 .19700001 .36 .143 .33800004 .09900001 C .316 .054 .272 .025000003 .222 .025000003 Z "/>
</symbol>
<symbol id="font_3_5">
<path d="M .07800001 .344 L .07800001 .076000008 C .07800001 .031000002 .067 .031000002 0 .031000002 L 0 0 C .035 .001 .08600001 .003 .113000009 .003 C .139 .003 .191 .001 .225 0 L .225 .031000002 C .158 .031000002 .147 .031000002 .147 .076000008 L .147 .26000003 C .147 .36400003 .218 .42000003 .282 .42000003 C .345 .42000003 .356 .36600004 .356 .30900003 L .356 .076000008 C .356 .031000002 .345 .031000002 .278 .031000002 L .278 0 C .31300003 .001 .36400003 .003 .391 .003 C .41700004 .003 .46900005 .001 .503 0 L .503 .031000002 C .43600003 .031000002 .425 .031000002 .425 .076000008 L .425 .26000003 C .425 .36400003 .496 .42000003 .56 .42000003 C .623 .42000003 .634 .36600004 .634 .30900003 L .634 .076000008 C .634 .031000002 .623 .031000002 .556 .031000002 L .556 0 C .591 .001 .642 .003 .669 .003 C .69500008 .003 .74700006 .001 .781 0 L .781 .031000002 C .72900006 .031000002 .70400008 .031000002 .703 .061000006 L .703 .252 C .703 .33800004 .703 .36900003 .67200008 .40500004 C .65800008 .42200003 .625 .44200004 .56700006 .44200004 C .48300005 .44200004 .439 .38200004 .42200003 .344 C .40800003 .43100003 .33400003 .44200004 .289 .44200004 C .216 .44200004 .169 .39900003 .141 .337 L .141 .44200004 L 0 .43100003 L 0 .4 C .07000001 .4 .07800001 .393 .07800001 .344 Z "/>
</symbol>
<symbol id="font_3_3">
<path d="M .08400001 .263 C .09 .41200004 .17400001 .43700005 .20800002 .43700005 C .31100003 .43700005 .321 .30200003 .321 .263 L .08400001 .263 M .083000008 .24200002 L .36200003 .24200002 C .38400004 .24200002 .38700003 .24200002 .38700003 .263 C .38700003 .36200003 .33300004 .45900003 .20800002 .45900003 C .09200001 .45900003 0 .35600005 0 .23100002 C 0 .097 .105000007 0 .22000002 0 C .342 0 .38700003 .111 .38700003 .13000001 C .38700003 .14000002 .379 .14200002 .374 .14200002 C .365 .14200002 .36300005 .136 .36100004 .128 C .326 .025000003 .236 .025000003 .22600001 .025000003 C .17600002 .025000003 .136 .055000005 .113000009 .092 C .083000008 .14000002 .083000008 .20600002 .083000008 .24200002 Z "/>
</symbol>
<symbol id="font_3_2">
<path d="M .13900002 .33200003 L .13900002 .44200004 L 0 .43100003 L 0 .4 C .07000001 .4 .07800001 .393 .07800001 .344 L .07800001 .076000008 C .07800001 .031000002 .067 .031000002 0 .031000002 L 0 0 C .039 .001 .08600001 .003 .11400001 .003 C .15400002 .003 .20100002 .003 .24100003 0 L .24100003 .031000002 L .22000002 .031000002 C .14600002 .031000002 .14400001 .042000005 .14400001 .078 L .14400001 .23200001 C .14400001 .33100004 .18600002 .42000003 .26200003 .42000003 C .26900003 .42000003 .27100004 .42000003 .27300004 .41900004 C .27 .418 .25000004 .40600003 .25000004 .38000003 C .25000004 .35200004 .27100004 .337 .293 .337 C .31100003 .337 .33600004 .349 .33600004 .381 C .33600004 .41300003 .305 .44200004 .26200003 .44200004 C .18900001 .44200004 .15300001 .37500004 .13900002 .33200003 Z "/>
</symbol>
<use xlink:href="#font_3_4" transform="matrix(12.453305,0,0,-12.453305,8.102977,13.662862)"/>
<use xlink:href="#font_3_6" transform="matrix(12.453305,0,0,-12.453305,18.283139,6.3029587)"/>
<use xlink:href="#font_3_1" transform="matrix(12.453305,0,0,-12.453305,17.349575,13.525876)"/>
<use xlink:href="#font_3_5" transform="matrix(12.453305,0,0,-12.453305,23.732726,13.388889)"/>
<use xlink:href="#font_3_3" transform="matrix(12.453305,0,0,-12.453305,34.01625,13.525876)"/>
<use xlink:href="#font_3_2" transform="matrix(12.453305,0,0,-12.453305,39.682924,13.388889)"/>
</g>
</svg>
