<?xml version="1.0" encoding="UTF-8" standalone="no"?>
<!DOCTYPE svg PUBLIC "-//W3C//DTD SVG 1.1//EN" "http://www.w3.org/Graphics/SVG/1.1/DTD/svg11.dtd">
<svg xmlns="http://www.w3.org/2000/svg" xmlns:xlink="http://www.w3.org/1999/xlink" version="1.1" width="24.916666pt" height="24.916666pt" viewBox="0 0 24.916666 24.916666">
<g enable-background="new">
<clipPath id="cp0">
<path transform="matrix(.27777777,0,0,-.27777777,0,24.916666)" d="M 84.9297 43.8789 L 84.9297 43.8789 L 84.9297 45.8828 L 84.1172 51.9063 L 81.7969 59.3867 L 78.1211 66.1563 L 73.2578 72.0547 L 67.3594 76.9219 L 60.5898 80.5977 L 53.1094 82.918 L 47.0859 83.7305 L 45.082 83.7305 L 43.0742 83.7305 L 37.0508 82.918 L 29.5703 80.5977 L 22.8008 76.9219 L 16.9023 72.0547 L 12.0352 66.1563 L 8.35938 59.3867 L 6.03906 51.9063 L 5.23047 45.8828 L 5.23047 43.8789 L 5.23047 41.8711 L 6.03906 35.8477 L 8.35938 28.3672 L 12.0352 21.5977 L 16.9023 15.6992 L 22.8008 10.8359 L 29.5703 7.16016 L 37.0508 4.83984 L 43.0742 4.03125 L 45.082 4.03125 L 47.0859 4.03125 L 53.1094 4.83984 L 60.5898 7.16016 L 67.3594 10.8359 L 73.2578 15.6992 L 78.1211 21.5977 L 81.7969 28.3672 L 84.1172 35.8477 L 84.9297 41.8711 L 84.9297 43.8789 Z "/>
</clipPath>
<g clip-path="url(#cp0)">
<path transform="matrix(.27777777,0,0,-.27777777,0,24.916666)" d="M 5.23047 4.03125 L 84.92967 4.03125 L 84.92967 83.73045 L 5.23047 83.73045 Z " fill="#0771ca"/>
</g>
<path transform="matrix(.27777777,0,0,-.27777777,0,24.916666)" stroke-width="7.97011" stroke-linecap="butt" stroke-miterlimit="10" stroke-linejoin="miter" fill="none" stroke="#ffffff" d="M 45.082 55.8359 L 45.082 19.9688 "/>
<clipPath id="cp1">
<path transform="matrix(.27777777,0,0,-.27777777,0,24.916666)" d="M 51.0586 67.7891 L 51.0586 67.7891 L 51.0586 68.3672 L 50.5859 70.1133 L 49.3047 72.0156 L 47.4063 73.2969 L 45.6602 73.7695 L 45.082 73.7695 L 44.5 73.7695 L 42.7539 73.2969 L 40.8516 72.0156 L 39.5703 70.1133 L 39.1016 68.3672 L 39.1016 67.7891 L 39.1016 67.207 L 39.5703 65.4609 L 40.8516 63.5625 L 42.7539 62.2813 L 44.5 61.8125 L 45.082 61.8125 L 45.6602 61.8125 L 47.4063 62.2813 L 49.3047 63.5625 L 50.5859 65.4609 L 51.0586 67.207 L 51.0586 67.7891 Z "/>
</clipPath>
<g clip-path="url(#cp1)">
<path transform="matrix(.27777777,0,0,-.27777777,0,24.916666)" d="M 39.1016 61.8125 L 51.0586 61.8125 L 51.0586 73.7695 L 39.1016 73.7695 Z " fill="#ffffff"/>
</g>
<path transform="matrix(.27777777,0,0,-.27777777,0,24.916666)" stroke-width="4.78207" stroke-linecap="butt" stroke-miterlimit="10" stroke-linejoin="miter" fill="none" stroke="#ffffff" d="M 35.5156 53.4453 L 45.082 53.4453 "/>
<path transform="matrix(.27777777,0,0,-.27777777,0,24.916666)" stroke-width="4.78207" stroke-linecap="butt" stroke-miterlimit="10" stroke-linejoin="miter" fill="none" stroke="#ffffff" d="M 35.5156 22.3594 L 54.6445 22.3594 "/>
</g>
</svg>
