<?xml version="1.0" encoding="UTF-8" standalone="no"?>
<!DOCTYPE svg PUBLIC "-//W3C//DTD SVG 1.1//EN" "http://www.w3.org/Graphics/SVG/1.1/DTD/svg11.dtd">
<svg xmlns="http://www.w3.org/2000/svg" xmlns:xlink="http://www.w3.org/1999/xlink" version="1.1" width="249.05556pt" height="29.055556pt" viewBox="0 0 249.05556 29.055556">
<g enable-background="new">
<clipPath id="cp0">
<path transform="matrix(.27777777,0,0,-.27777777,0,29.055556)" d="M 445.512 9.59766 L 847.332 9.59766 L 853.543 10.4297 L 861.258 12.8242 L 868.238 16.6133 L 874.32 21.6328 L 879.34 27.7148 L 883.129 34.6992 L 885.523 42.4102 L 886.359 48.6211 L 886.359 50.6953 L 886.359 52.7656 L 885.523 58.9766 L 883.129 66.6875 L 879.34 73.668 L 874.32 79.75 L 868.238 84.7695 L 861.258 88.5586 L 853.543 90.9531 L 847.332 91.7891 L 845.262 91.7891 L 45.7617 91.7891 L 43.6875 91.7891 L 37.4766 90.9531 L 29.7656 88.5586 L 22.7813 84.7695 L 16.6992 79.75 L 11.6797 73.668 L 7.89063 66.6875 L 5.49609 58.9766 L 4.66406 52.7656 L 4.66406 50.6953 L 4.66406 48.6211 L 5.49609 42.4102 L 7.89063 34.6992 L 11.6797 27.7148 L 16.6992 21.6328 L 22.7813 16.6133 L 29.7656 12.8242 L 37.4766 10.4297 L 43.6875 9.59766 L 45.7617 9.59766 L 445.512 9.59766 Z "/>
</clipPath>
<g clip-path="url(#cp0)">
<path transform="matrix(.27777777,0,0,-.27777777,0,29.055556)" d="M 4.66406 9.59766 L 886.3591 9.59766 L 886.3591 91.78906 L 4.66406 91.78906 Z " fill="#999999"/>
</g>
<clipPath id="cp1">
<path transform="matrix(.27777777,0,0,-.27777777,0,29.055556)" d="M 83.1211 50.6953 L 83.1211 50.6953 L 83.1211 52.5742 L 82.3594 58.2227 L 80.1836 65.2344 L 76.7383 71.582 L 72.1758 77.1094 L 66.6484 81.6719 L 60.3008 85.1172 L 53.2891 87.293 L 47.6406 88.0547 L 45.7617 88.0547 L 43.8789 88.0547 L 38.2305 87.293 L 31.2188 85.1172 L 24.8711 81.6719 L 19.3398 77.1094 L 14.7773 71.582 L 11.332 65.2344 L 9.15625 58.2227 L 8.39844 52.5742 L 8.39844 50.6953 L 8.39844 48.8125 L 9.15625 43.1641 L 11.332 36.1523 L 14.7773 29.8047 L 19.3398 24.2773 L 24.8711 19.7148 L 31.2188 16.2695 L 38.2305 14.0938 L 43.8789 13.3359 L 45.7617 13.3359 L 47.6406 13.3359 L 53.2891 14.0938 L 60.3008 16.2695 L 66.6484 19.7148 L 72.1758 24.2773 L 76.7383 29.8047 L 80.1836 36.1523 L 82.3594 43.1641 L 83.1211 48.8125 L 83.1211 50.6953 Z "/>
</clipPath>
<g clip-path="url(#cp1)">
<path transform="matrix(.27777777,0,0,-.27777777,0,29.055556)" d="M 8.39844 13.3359 L 83.12114 13.3359 L 83.12114 88.0547 L 8.39844 88.0547 Z " fill="#0771ca"/>
</g>
<path transform="matrix(.27777777,0,0,-.27777777,0,29.055556)" stroke-width="7.47198" stroke-linecap="butt" stroke-miterlimit="10" stroke-linejoin="miter" fill="none" stroke="#ffffff" d="M 45.7617 61.9023 L 45.7617 28.2773 "/>
<clipPath id="cp2">
<path transform="matrix(.27777777,0,0,-.27777777,0,29.055556)" d="M 51.3633 73.1094 L 51.3633 73.1094 L 51.3633 73.6523 L 50.9219 75.2891 L 49.7227 77.0703 L 47.9414 78.2734 L 46.3047 78.7148 L 45.7617 78.7148 L 45.2148 78.7148 L 43.5781 78.2734 L 41.7969 77.0703 L 40.5938 75.2891 L 40.1563 73.6523 L 40.1563 73.1094 L 40.1563 72.5625 L 40.5938 70.9258 L 41.7969 69.1484 L 43.5781 67.9453 L 45.2148 67.5078 L 45.7617 67.5078 L 46.3047 67.5078 L 47.9414 67.9453 L 49.7227 69.1484 L 50.9219 70.9258 L 51.3633 72.5625 L 51.3633 73.1094 Z "/>
</clipPath>
<g clip-path="url(#cp2)">
<path transform="matrix(.27777777,0,0,-.27777777,0,29.055556)" d="M 40.1563 67.5078 L 51.3633 67.5078 L 51.3633 78.7148 L 40.1563 78.7148 Z " fill="#ffffff"/>
</g>
<path transform="matrix(.27777777,0,0,-.27777777,0,29.055556)" stroke-width="4.48319" stroke-linecap="butt" stroke-miterlimit="10" stroke-linejoin="miter" fill="none" stroke="#ffffff" d="M 36.793 59.6602 L 45.7617 59.6602 "/>
<path transform="matrix(.27777777,0,0,-.27777777,0,29.055556)" stroke-width="4.48319" stroke-linecap="butt" stroke-miterlimit="10" stroke-linejoin="miter" fill="none" stroke="#ffffff" d="M 36.793 30.5195 L 54.7266 30.5195 "/>
<symbol id="font_3_8">
<path d="M .367 .41900004 L .54700008 .592 C .555 .6 .60800006 .651 .68900009 .652 L .68900009 .683 C .66300007 .68 .63100007 .68 .60400006 .68 C .568 .68 .51100006 .68 .47700007 .683 L .47700007 .652 C .517 .651 .52300009 .628 .52300009 .619 C .52300009 .60300007 .513 .59300008 .50500008 .586 L .192 .287 L .192 .605 C .192 .64100006 .194 .652 .27100004 .652 L .29500003 .652 L .29500003 .683 C .26000003 .68 .18600002 .68 .148 .68 C .11000001 .68 .035000005 .68 0 .683 L 0 .652 L .024000004 .652 C .101 .652 .10300001 .64100006 .10300001 .605 L .10300001 .078 C .10300001 .042000005 .101 .031000002 .024000004 .031000002 L 0 .031000002 L 0 0 C .035000005 .003 .109000008 .003 .14700002 .003 C .185 .003 .26000003 .003 .29500003 0 L .29500003 .031000002 L .27100004 .031000002 C .194 .031000002 .192 .042000005 .192 .078 L .192 .25300003 L .30800004 .363 L .48900003 .095000009 C .495 .086 .504 .07300001 .504 .061000006 C .504 .031000002 .46500004 .031000002 .44500003 .031000002 L .44500003 0 C .48000003 .003 .55 .003 .58800008 .003 C .623 .003 .661 .002 .70300009 0 L .70300009 .031000002 C .64900007 .031000002 .628 .035 .59800007 .079 L .367 .41900004 Z "/>
</symbol>
<symbol id="font_3_d">
<path d="M .08400001 .263 C .09 .41200004 .17400001 .43700005 .20800002 .43700005 C .31100003 .43700005 .321 .30200003 .321 .263 L .08400001 .263 M .083000008 .24200002 L .36200003 .24200002 C .38400004 .24200002 .38700003 .24200002 .38700003 .263 C .38700003 .36200003 .33300004 .45900003 .20800002 .45900003 C .09200001 .45900003 0 .35600005 0 .23100002 C 0 .097 .105000007 0 .22000002 0 C .342 0 .38700003 .111 .38700003 .13000001 C .38700003 .14000002 .379 .14200002 .374 .14200002 C .365 .14200002 .36300005 .136 .36100004 .128 C .326 .025000003 .236 .025000003 .22600001 .025000003 C .17600002 .025000003 .136 .055000005 .113000009 .092 C .083000008 .14000002 .083000008 .20600002 .083000008 .24200002 Z "/>
</symbol>
<symbol id="font_3_10">
<path d="M .144 .44200004 L .0040000008 .43100003 L .0040000008 .4 C .069000009 .4 .07800001 .39400003 .07800001 .34500004 L .07800001 .076000008 C .07800001 .031000002 .067 .031000002 0 .031000002 L 0 0 C .032000007 .001 .086 .003 .11000001 .003 C .14500001 .003 .18 .001 .21400002 0 L .21400002 .031000002 C .148 .031000002 .144 .036000004 .144 .075 L .144 .44200004 M .148 .61600008 C .148 .648 .123 .669 .095000009 .669 C .064 .669 .042000005 .642 .042000005 .61600008 C .042000005 .58900007 .064 .563 .095000009 .563 C .123 .563 .148 .58400008 .148 .61600008 Z "/>
</symbol>
<symbol id="font_3_11">
<path d="M .144 .694 L 0 .683 L 0 .652 C .07000001 .652 .07800001 .64500007 .07800001 .596 L .07800001 .076000008 C .07800001 .031000002 .067 .031000002 0 .031000002 L 0 0 C .033 .001 .086 .003 .11100001 .003 C .136 .003 .185 .001 .22200004 0 L .22200004 .031000002 C .155 .031000002 .144 .031000002 .144 .076000008 L .144 .694 Z "/>
</symbol>
<symbol id="font_3_5">
<path d="M .17500001 .20500002 C .197 .20100002 .279 .18500002 .279 .113000009 C .279 .062000004 .24400002 .022000002 .16600001 .022000002 C .082 .022000002 .046000005 .079 .027000003 .16400002 C .024000004 .17700002 .023000002 .18100001 .013000004 .18100001 C 0 .18100001 0 .17400001 0 .15600002 L 0 .024 C 0 .0070000009 0 0 .011000004 0 C .016000003 0 .017 .0010000002 .036000007 .020000002 C .038000004 .022000002 .038000004 .024 .056 .043 C .1 .0010000002 .14500001 0 .16600001 0 C .28100003 0 .32700003 .067 .32700003 .13900002 C .32700003 .19200002 .29700003 .22200002 .28500004 .23400001 C .25200004 .26600004 .213 .27400003 .171 .28200004 C .115 .293 .048 .30600003 .048 .36400003 C .048 .39900003 .07400001 .44000004 .16 .44000004 C .27 .44000004 .27500005 .35000003 .277 .31900005 C .27800004 .31000004 .28700004 .31000004 .28900004 .31000004 C .30200003 .31000004 .30200003 .31500004 .30200003 .33400003 L .30200003 .43500004 C .30200003 .45200003 .30200003 .45900003 .291 .45900003 C .286 .45900003 .284 .45900003 .27100004 .44700004 C .26800005 .44300003 .25800003 .43400003 .254 .43100003 C .21600002 .45900003 .17500001 .45900003 .16 .45900003 C .038000004 .45900003 0 .39200003 0 .33600004 C 0 .30100004 .016000003 .27300004 .043000007 .25100003 C .075 .22500003 .10300001 .21900001 .17500001 .20500002 Z "/>
</symbol>
<symbol id="font_3_b">
<path d="M .083000008 .22900002 C .083000008 .39200003 .16500002 .43400003 .218 .43400003 C .227 .43400003 .29 .43300004 .32500003 .397 C .284 .39400003 .278 .36400003 .278 .351 C .278 .32500003 .296 .305 .324 .305 C .35 .305 .37 .32200004 .37 .35200004 C .37 .42000003 .294 .45900003 .21700001 .45900003 C .092 .45900003 0 .351 0 .22700002 C 0 .09900001 .099 0 .215 0 C .349 0 .381 .120000008 .381 .13000001 C .381 .14000002 .37100003 .14000002 .368 .14000002 C .359 .14000002 .35700003 .136 .35500003 .13000001 C .326 .037 .261 .025000003 .224 .025000003 C .171 .025000003 .083000008 .068 .083000008 .22900002 Z "/>
</symbol>
<symbol id="font_3_f">
<path d="M .07800001 .076000008 C .07800001 .031000002 .067 .031000002 0 .031000002 L 0 0 C .035 .001 .08600001 .003 .113000009 .003 C .139 .003 .191 .001 .225 0 L .225 .031000002 C .158 .031000002 .147 .031000002 .147 .076000008 L .147 .26000003 C .147 .36400003 .218 .42000003 .282 .42000003 C .345 .42000003 .356 .36600004 .356 .30900003 L .356 .076000008 C .356 .031000002 .345 .031000002 .278 .031000002 L .278 0 C .31300003 .001 .36400003 .003 .391 .003 C .41700004 .003 .46900005 .001 .503 0 L .503 .031000002 C .451 .031000002 .42600004 .031000002 .425 .061000006 L .425 .252 C .425 .33800004 .425 .36900003 .39400003 .40500004 C .38000003 .42200003 .347 .44200004 .289 .44200004 C .20500002 .44200004 .161 .38200004 .14400001 .344 L .14400001 .694 L 0 .683 L 0 .652 C .07000001 .652 .07800001 .64500007 .07800001 .596 L .07800001 .076000008 Z "/>
</symbol>
<symbol id="font_3_4">
<path d="M .13900002 .33200003 L .13900002 .44200004 L 0 .43100003 L 0 .4 C .07000001 .4 .07800001 .393 .07800001 .344 L .07800001 .076000008 C .07800001 .031000002 .067 .031000002 0 .031000002 L 0 0 C .039 .001 .08600001 .003 .11400001 .003 C .15400002 .003 .20100002 .003 .24100003 0 L .24100003 .031000002 L .22000002 .031000002 C .14600002 .031000002 .14400001 .042000005 .14400001 .078 L .14400001 .23200001 C .14400001 .33100004 .18600002 .42000003 .26200003 .42000003 C .26900003 .42000003 .27100004 .42000003 .27300004 .41900004 C .27 .418 .25000004 .40600003 .25000004 .38000003 C .25000004 .35200004 .27100004 .337 .293 .337 C .31100003 .337 .33600004 .349 .33600004 .381 C .33600004 .41300003 .305 .44200004 .26200003 .44200004 C .18900001 .44200004 .15300001 .37500004 .13900002 .33200003 Z "/>
</symbol>
<symbol id="font_3_e">
<path d="M .14200002 .43100003 L .14200002 .54700008 C .14200002 .63500007 .19 .683 .23400003 .683 C .23700002 .683 .25200004 .683 .26700003 .67600008 C .25500003 .67200008 .23700002 .65900006 .23700002 .634 C .23700002 .611 .25300003 .591 .28000004 .591 C .30900003 .591 .32400004 .611 .32400004 .63500007 C .32400004 .67200008 .28700004 .70500007 .23400003 .70500007 C .164 .70500007 .079 .652 .079 .546 L .079 .43100003 L 0 .43100003 L 0 .4 L .079 .4 L .079 .076000008 C .079 .031000002 .068 .031000002 .001000002 .031000002 L .001000002 0 C .040000008 .001 .087000008 .003 .115 .003 C .155 .003 .20200002 .003 .24200002 0 L .24200002 .031000002 L .22100002 .031000002 C .14700002 .031000002 .14500001 .042000005 .14500001 .078 L .14500001 .4 L .25900004 .4 L .25900004 .43100003 L .14200002 .43100003 Z "/>
</symbol>
<symbol id="font_3_6">
<path d="M .15400002 .411 L .29700003 .411 L .29700003 .44200004 L .15400002 .44200004 L .15400002 .626 L .12900001 .626 C .12799999 .544 .098000008 .43700005 0 .43300004 L 0 .411 L .085 .411 L .085 .135 C .085 .012000001 .178 0 .21400002 0 C .28500004 0 .31300003 .071 .31300003 .135 L .31300003 .19200002 L .28800003 .19200002 L .28800003 .13700001 C .28800003 .063 .25800003 .025000003 .22100002 .025000003 C .15400002 .025000003 .15400002 .116000007 .15400002 .13300002 L .15400002 .411 Z "/>
</symbol>
<symbol id="font_3_c">
<path d="M .34600003 .06600001 L .34600003 0 L .493 .011000001 L .493 .042000005 C .423 .042000005 .41500003 .049000004 .41500003 .098000008 L .41500003 .705 L .271 .694 L .271 .663 C .34100003 .663 .349 .656 .349 .607 L .349 .39100004 C .32 .42700003 .277 .45300005 .22299999 .45300005 C .10500001 .45300005 0 .35500003 0 .22600001 C 0 .09900001 .098 0 .21200001 0 C .276 0 .321 .034 .34600003 .06600001 M .34600003 .33400003 L .34600003 .12900001 C .34600003 .111 .34600003 .109000008 .335 .092 C .305 .044 .26 .022000002 .21700001 .022000002 C .17200002 .022000002 .136 .048 .11200001 .086 C .086 .127 .083000008 .18400002 .083000008 .22500003 C .083000008 .26200003 .085 .32200004 .114 .367 C .13500002 .39800004 .17300001 .43100003 .227 .43100003 C .262 .43100003 .30400003 .41600005 .335 .37100003 C .34600003 .35400004 .34600003 .35200004 .34600003 .33400003 Z "/>
</symbol>
<symbol id="font_3_2">
<path d="M .18600002 .36600004 L .18600002 .61200007 C .18600002 .64500007 .18800001 .652 .23500003 .652 L .359 .652 C .456 .652 .491 .56700006 .491 .514 C .491 .45000003 .442 .36600004 .331 .36600004 L .18600002 .36600004 M .42200003 .35700003 C .519 .37600003 .588 .44000004 .588 .514 C .588 .601 .496 .683 .366 .683 L 0 .683 L 0 .652 L .024 .652 C .10100001 .652 .103000018 .64100006 .103000018 .605 L .103000018 .078 C .103000018 .042000005 .10100001 .031000002 .024 .031000002 L 0 .031000002 L 0 0 L .39200003 0 C .52500006 0 .615 .089 .615 .18300002 C .615 .27 .533 .34500004 .42200003 .35700003 M .36 .031000002 L .23500003 .031000002 C .18800001 .031000002 .18600002 .038000004 .18600002 .071 L .18600002 .344 L .374 .344 C .473 .344 .515 .25100003 .515 .18400002 C .515 .113000009 .463 .031000002 .36 .031000002 Z "/>
</symbol>
<symbol id="font_3_7">
<path d="M .291 .087000008 C .29500003 .047000003 .32200004 .005000001 .36900003 .005000001 C .39000003 .005000001 .45100004 .019000002 .45100004 .1 L .45100004 .15600002 L .42600004 .15600002 L .42600004 .1 C .42600004 .042000005 .40100003 .036000004 .39000003 .036000004 C .35700003 .036000004 .35300002 .081 .35300002 .086 L .35300002 .286 C .35300002 .328 .35300002 .367 .31700004 .404 C .27800004 .44300003 .22800002 .45900003 .18 .45900003 C .098 .45900003 .029 .41200004 .029 .34600003 C .029 .316 .049000004 .29900003 .075 .29900003 C .10300001 .29900003 .121 .31900005 .121 .34500004 C .121 .35700003 .116000007 .39000003 .07 .39100004 C .09700001 .42600004 .146 .43700005 .178 .43700005 C .22700003 .43700005 .284 .39800004 .284 .30900003 L .284 .272 C .23300001 .26900003 .16300002 .26600004 .1 .23600002 C .024999999 .20200002 0 .15000002 0 .106000009 C 0 .025000003 .09700001 0 .16 0 C .22600001 0 .272 .040000004 .291 .087000008 M .284 .25100003 L .284 .15100001 C .284 .056 .21200001 .022000002 .167 .022000002 C .11800001 .022000002 .077 .057000005 .077 .107 C .077 .16200002 .11900001 .24500002 .284 .25100003 Z "/>
</symbol>
<symbol id="font_3_9">
<path d="M .14400001 .388 L .14400001 .705 L 0 .694 L 0 .663 C .07000001 .663 .07800001 .656 .07800001 .607 L .07800001 .011000001 L .103000018 .011000001 C .104 .012000001 .112 .026 .13900002 .07300001 C .15400002 .05 .19600001 0 .27 0 C .38900004 0 .49300004 .098000008 .49300004 .22700002 C .49300004 .35400004 .395 .45300005 .28100003 .45300005 C .20300001 .45300005 .16000001 .40600003 .14400001 .388 M .14700002 .12500002 L .14700002 .33100004 C .14700002 .35000003 .14700002 .351 .158 .367 C .19700001 .42300005 .252 .43100003 .27600003 .43100003 C .321 .43100003 .35700003 .40500004 .381 .367 C .40700004 .32600004 .41000004 .26900003 .41000004 .22800002 C .41000004 .19100002 .40800003 .13100001 .379 .086 C .358 .055000005 .32000003 .022000002 .266 .022000002 C .22100002 .022000002 .18500002 .046 .16100002 .083000008 C .14700002 .104 .14700002 .107 .14700002 .12500002 Z "/>
</symbol>
<symbol id="font_3_a">
<path d="M .39600004 .541 C .42200003 .60400006 .47300003 .605 .48900003 .605 L .48900003 .63600006 C .46600003 .63400009 .43700005 .633 .41400004 .633 C .39600004 .633 .34900005 .635 .32700003 .63600006 L .32700003 .605 C .358 .60400006 .374 .587 .374 .56200006 C .374 .55200007 .37300004 .5500001 .36800004 .538 L .26700003 .29200004 L .15600002 .561 C .15200001 .57100006 .15 .57500007 .15 .579 C .15 .605 .187 .605 .206 .605 L .206 .63600006 C .18 .635 .114 .633 .097 .633 C .07 .633 .030000002 .63400009 0 .63600006 L 0 .605 C .048 .605 .067 .605 .081 .57000008 L .231 .20500002 C .22600001 .19200002 .21200001 .15900001 .206 .14600002 C .18400002 .091000009 .15600002 .022 .09200001 .022 C .087000008 .022 .064 .022 .045 .040000008 C .076000008 .044 .08400001 .066 .08400001 .08200001 C .08400001 .10800001 .065000008 .12400001 .042000005 .12400001 C .022 .12400001 0 .11100001 0 .08100001 C 0 .036 .042000005 0 .09200001 0 C .155 0 .19600001 .05700001 .22 .11400001 L .39600004 .541 Z "/>
</symbol>
<symbol id="font_3_3">
<path d="M .44300003 .22500003 C .44300003 .35300002 .34300003 .45900003 .222 .45900003 C .097 .45900003 0 .35000003 0 .22500003 C 0 .096 .104 0 .22100002 0 C .342 0 .44300003 .098000008 .44300003 .22500003 M .222 .025000003 C .17900002 .025000003 .135 .046 .10800001 .092 C .083000008 .136 .083000008 .19700001 .083000008 .23300003 C .083000008 .272 .083000008 .32600004 .10700001 .37000004 C .134 .41600005 .18100001 .43700005 .22100002 .43700005 C .26500003 .43700005 .30800004 .41500003 .33400003 .37200005 C .36 .32900004 .36 .27100004 .36 .23300003 C .36 .19700001 .36 .143 .33800004 .09900001 C .316 .054 .272 .025000003 .222 .025000003 Z "/>
</symbol>
<symbol id="font_3_1">
<path d="M .07800001 .344 L .07800001 .076000008 C .07800001 .031000002 .067 .031000002 0 .031000002 L 0 0 C .035 .001 .08600001 .003 .113000009 .003 C .139 .003 .191 .001 .225 0 L .225 .031000002 C .158 .031000002 .147 .031000002 .147 .076000008 L .147 .26000003 C .147 .36400003 .218 .42000003 .282 .42000003 C .345 .42000003 .356 .36600004 .356 .30900003 L .356 .076000008 C .356 .031000002 .345 .031000002 .278 .031000002 L .278 0 C .31300003 .001 .36400003 .003 .391 .003 C .41700004 .003 .46900005 .001 .503 0 L .503 .031000002 C .451 .031000002 .42600004 .031000002 .425 .061000006 L .425 .252 C .425 .33800004 .425 .36900003 .39400003 .40500004 C .38000003 .42200003 .347 .44200004 .289 .44200004 C .216 .44200004 .169 .39900003 .141 .337 L .141 .44200004 L 0 .43100003 L 0 .4 C .07000001 .4 .07800001 .393 .07800001 .344 Z "/>
</symbol>
<use xlink:href="#font_3_8" transform="matrix(18.679972,0,0,-18.679972,27.949328,20.889332)"/>
<use xlink:href="#font_3_d" transform="matrix(18.679972,0,0,-18.679972,42.5226,21.094813)"/>
<use xlink:href="#font_3_10" transform="matrix(18.679972,0,0,-18.679972,50.949335,20.889332)"/>
<use xlink:href="#font_3_11" transform="matrix(18.679972,0,0,-18.679972,56.282667,20.889332)"/>
<use xlink:href="#font_3_5" transform="matrix(18.679972,0,0,-18.679972,61.616,21.094813)"/>
<use xlink:href="#font_3_b" transform="matrix(18.679972,0,0,-18.679972,68.96801,21.094813)"/>
<use xlink:href="#font_3_f" transform="matrix(18.679972,0,0,-18.679972,76.59711,20.889332)"/>
<use xlink:href="#font_3_4" transform="matrix(18.679972,0,0,-18.679972,86.85572,20.889332)"/>
<use xlink:href="#font_3_10" transform="matrix(18.679972,0,0,-18.679972,94.28247,20.889332)"/>
<use xlink:href="#font_3_e" transform="matrix(18.679972,0,0,-18.679972,99.6158,20.889332)"/>
<use xlink:href="#font_3_6" transform="matrix(18.679972,0,0,-18.679972,105.02095,21.094813)"/>
<use xlink:href="#font_3_c" transform="matrix(18.679972,0,0,-18.679972,118.301158,21.094813)"/>
<use xlink:href="#font_3_d" transform="matrix(18.679972,0,0,-18.679972,128.5224,21.094813)"/>
<use xlink:href="#font_3_4" transform="matrix(18.679972,0,0,-18.679972,136.85575,20.889332)"/>
<use xlink:href="#font_3_2" transform="matrix(18.679972,0,0,-18.679972,150.67145,20.889332)"/>
<use xlink:href="#font_3_7" transform="matrix(18.679972,0,0,-18.679972,164.11685,21.094813)"/>
<use xlink:href="#font_3_9" transform="matrix(18.679972,0,0,-18.679972,173.18865,21.094813)"/>
<use xlink:href="#font_3_a" transform="matrix(18.679972,0,0,-18.679972,182.68679,24.718728)"/>
<use xlink:href="#font_3_11" transform="matrix(18.679972,0,0,-18.679972,192.94832,20.889332)"/>
<use xlink:href="#font_3_3" transform="matrix(18.679972,0,0,-18.679972,198.18827,21.094813)"/>
<use xlink:href="#font_3_1" transform="matrix(18.679972,0,0,-18.679972,207.59633,20.889332)"/>
<use xlink:href="#font_3_10" transform="matrix(18.679972,0,0,-18.679972,217.94837,20.889332)"/>
<use xlink:href="#font_3_d" transform="matrix(18.679972,0,0,-18.679972,223.1883,21.094813)"/>
<use xlink:href="#font_3_4" transform="matrix(18.679972,0,0,-18.679972,231.52164,20.889332)"/>
</g>
</svg>
