<?xml version="1.0" encoding="UTF-8" standalone="no"?>
<!DOCTYPE svg PUBLIC "-//W3C//DTD SVG 1.1//EN" "http://www.w3.org/Graphics/SVG/1.1/DTD/svg11.dtd">
<svg xmlns="http://www.w3.org/2000/svg" xmlns:xlink="http://www.w3.org/1999/xlink" version="1.1" width="69.19444pt" height="18.944445pt" viewBox="0 0 69.19444 18.944445">
<g enable-background="new">
<clipPath id="cp0">
<path transform="matrix(.27777777,0,0,-.27777777,0,18.944445)" d="M 122.969 6.61719 L 31.9219 6.61719 L 27.7813 7.17188 L 22.6406 8.76953 L 17.9883 11.2969 L 13.9336 14.6406 L 10.5859 18.6953 L 8.0625 23.3516 L 6.46484 28.4922 L 5.91016 32.6328 L 5.91016 34.0156 L 5.91016 35.3945 L 6.46484 39.5352 L 8.0625 44.6758 L 10.5898 49.332 L 13.9336 53.3867 L 17.9883 56.7305 L 22.6445 59.2578 L 27.7852 60.8555 L 31.9258 61.4141 L 33.3086 61.4141 L 212.633 61.4141 L 214.012 61.4141 L 218.152 60.8555 L 223.293 59.2578 L 227.949 56.7305 L 232.004 53.3867 L 235.348 49.332 L 237.875 44.6758 L 239.473 39.5352 L 240.031 35.3945 L 240.031 34.0156 L 240.031 32.6328 L 239.473 28.4922 L 237.875 23.3516 L 235.348 18.6953 L 232.004 14.6406 L 227.949 11.2969 L 223.293 8.76953 L 218.152 7.17188 L 214.012 6.61719 L 212.633 6.61719 L 122.969 6.61719 Z "/>
</clipPath>
<g clip-path="url(#cp0)">
<path transform="matrix(.27777777,0,0,-.27777777,0,18.944445)" d="M 5.91016 6.61719 L 240.03116 6.61719 L 240.03116 61.414094 L 5.91016 61.414094 Z " fill="#ffffff"/>
</g>
<clipPath id="cp1">
<path transform="matrix(.27777777,0,0,-.27777777,0,18.944445)" d="M 237.539 34.0156 L 237.539 34.0156 L 237.539 35.2695 L 237.031 39.0313 L 235.578 43.707 L 233.281 47.9375 L 230.242 51.625 L 226.555 54.6641 L 222.324 56.9609 L 217.648 58.4141 L 213.887 58.9219 L 212.633 58.9219 L 211.375 58.9219 L 207.613 58.4141 L 202.938 56.9609 L 198.707 54.6641 L 195.02 51.625 L 191.98 47.9375 L 189.684 43.707 L 188.23 39.0313 L 187.727 35.2695 L 187.727 34.0156 L 187.727 32.7578 L 188.23 28.9961 L 189.684 24.3203 L 191.98 20.0898 L 195.02 16.4023 L 198.707 13.3633 L 202.938 11.0664 L 207.613 9.61328 L 211.375 9.10938 L 212.633 9.10938 L 213.887 9.10938 L 217.648 9.61328 L 222.324 11.0664 L 226.555 13.3633 L 230.242 16.4023 L 233.281 20.0898 L 235.578 24.3203 L 237.031 28.9961 L 237.539 32.7578 L 237.539 34.0156 Z "/>
</clipPath>
<g clip-path="url(#cp1)">
<path transform="matrix(.27777777,0,0,-.27777777,0,18.944445)" d="M 187.727 9.10938 L 237.5395 9.10938 L 237.5395 58.92188 L 187.727 58.92188 Z " fill="#0771ca"/>
</g>
<path transform="matrix(.27777777,0,0,-.27777777,0,18.944445)" stroke-width="4.98132" stroke-linecap="butt" stroke-miterlimit="10" stroke-linejoin="miter" fill="none" stroke="#ffffff" d="M 212.633 41.4883 L 212.633 19.0703 "/>
<clipPath id="cp2">
<path transform="matrix(.27777777,0,0,-.27777777,0,18.944445)" d="M 216.371 48.9609 L 216.371 48.9609 L 216.371 49.3242 L 216.074 50.4141 L 215.273 51.6016 L 214.086 52.3984 L 212.996 52.6953 L 212.633 52.6953 L 212.266 52.6953 L 211.176 52.3984 L 209.992 51.6016 L 209.191 50.4141 L 208.898 49.3242 L 208.898 48.9609 L 208.898 48.5938 L 209.191 47.5039 L 209.992 46.3164 L 211.176 45.5156 L 212.266 45.2227 L 212.633 45.2227 L 212.996 45.2227 L 214.086 45.5156 L 215.273 46.3164 L 216.074 47.5039 L 216.371 48.5938 L 216.371 48.9609 Z "/>
</clipPath>
<g clip-path="url(#cp2)">
<path transform="matrix(.27777777,0,0,-.27777777,0,18.944445)" d="M 208.898 45.2227 L 216.37065 45.2227 L 216.37065 52.69536 L 208.898 52.69536 Z " fill="#ffffff"/>
</g>
<path transform="matrix(.27777777,0,0,-.27777777,0,18.944445)" stroke-width="2.98879" stroke-linecap="butt" stroke-miterlimit="10" stroke-linejoin="miter" fill="none" stroke="#ffffff" d="M 206.656 39.9922 L 212.633 39.9922 "/>
<path transform="matrix(.27777777,0,0,-.27777777,0,18.944445)" stroke-width="2.98879" stroke-linecap="butt" stroke-miterlimit="10" stroke-linejoin="miter" fill="none" stroke="#ffffff" d="M 206.656 20.5664 L 218.613 20.5664 "/>
<symbol id="font_3_8">
<path d="M .1 .050000013 C .1 .074 .080000009 .100000027 .050000006 .100000027 C .021999993 .100000027 0 .07800001 0 .050000013 C 0 .022000015 .021999993 0 .050000006 0 C .080000009 0 .1 .026000023 .1 .050000013 M .293 .050000013 C .293 .07800001 .271 .100000027 .243 .100000027 C .213 .100000027 .19299999 .074 .19299999 .050000013 C .19299999 .026000023 .213 0 .243 0 C .271 0 .293 .022000015 .293 .050000013 Z "/>
</symbol>
<symbol id="font_3_1">
<path d="M .36600004 .69600006 C .361 .70900008 .35900004 .716 .34300003 .716 C .32700003 .716 .324 .71000006 .319 .69600006 L .112 .098000008 C .094 .047000003 .054 .032 0 .031000002 L 0 0 C .023000002 .001 .066 .003 .102 .003 C .133 .003 .185 .001 .21700001 0 L .21700001 .031000002 C .16700001 .031000002 .142 .056 .142 .082 C .142 .085 .143 .095000009 .14400001 .097 L .19000001 .22800002 L .437 .22800002 L .49 .075 C .491 .071 .49300004 .065000008 .49300004 .061000006 C .49300004 .031000002 .437 .031000002 .41000004 .031000002 L .41000004 0 C .446 .003 .51600006 .003 .554 .003 C .597 .003 .643 .002 .685 0 L .685 .031000002 L .66700008 .031000002 C .60700008 .031000002 .593 .038000004 .582 .071 L .36600004 .69600006 M .31300003 .58400008 L .42600004 .259 L .201 .259 L .31300003 .58400008 Z "/>
</symbol>
<symbol id="font_3_7">
<path d="M .19400002 .37800003 C .10700001 .37800003 .10700001 .47800005 .10700001 .50100007 C .10700001 .52800008 .10800001 .56 .12300001 .58500006 C .13100001 .59700009 .15400002 .62500008 .19400002 .62500008 C .28100003 .62500008 .28100003 .52500006 .28100003 .50200006 C .28100003 .47500003 .28000004 .44300003 .26500003 .41800005 C .25700004 .40600003 .23400003 .37800003 .19400002 .37800003 M .07800001 .33900003 C .07800001 .34300003 .07800001 .36600004 .095 .38600005 C .134 .35800005 .17500001 .35500003 .19400002 .35500003 C .28700004 .35500003 .356 .42400003 .356 .50100007 C .356 .53800007 .34000004 .57500007 .31500004 .59800007 C .351 .632 .38700003 .637 .40500004 .637 C .40700004 .637 .41200004 .637 .41500003 .63600006 C .404 .632 .39900003 .62100008 .39900003 .609 C .39900003 .592 .41200004 .58000007 .42800004 .58000007 C .43800003 .58000007 .45700003 .587 .45700003 .61 C .45700003 .62700006 .44500003 .65900006 .40600003 .65900006 C .38600005 .65900006 .342 .65300008 .3 .61200007 C .25800003 .64500007 .21600002 .64800009 .19400002 .64800009 C .10100001 .64800009 .032 .57900008 .032 .50200006 C .032 .458 .054 .42000003 .07900001 .39900003 C .066 .384 .048000006 .351 .048000006 .316 C .048000006 .28500004 .061 .24700001 .09200001 .22700002 C .032 .21000001 0 .16700001 0 .127 C 0 .055000009 .09900001 0 .22100002 0 C .33900003 0 .44300003 .051000015 .44300003 .12900001 C .44300003 .164 .42900003 .21500002 .37800003 .24300002 C .32500003 .27100004 .26700003 .27100004 .20600002 .27100004 C .18100001 .27100004 .13800001 .27100004 .13100001 .272 C .09900001 .27600003 .07800001 .307 .07800001 .33900003 M .222 .023000002 C .12100001 .023000002 .052000006 .074000019 .052000006 .127 C .052000006 .17300001 .09 .21000001 .134 .21300002 L .19300002 .21300002 C .279 .21300002 .39100004 .21300002 .39100004 .127 C .39100004 .073000017 .32000003 .023000002 .222 .023000002 Z "/>
</symbol>
<symbol id="font_3_5">
<path d="M .39600004 .541 C .42200003 .60400006 .47300003 .605 .48900003 .605 L .48900003 .63600006 C .46600003 .63400009 .43700005 .633 .41400004 .633 C .39600004 .633 .34900005 .635 .32700003 .63600006 L .32700003 .605 C .358 .60400006 .374 .587 .374 .56200006 C .374 .55200007 .37300004 .5500001 .36800004 .538 L .26700003 .29200004 L .15600002 .561 C .15200001 .57100006 .15 .57500007 .15 .579 C .15 .605 .187 .605 .206 .605 L .206 .63600006 C .18 .635 .114 .633 .097 .633 C .07 .633 .030000002 .63400009 0 .63600006 L 0 .605 C .048 .605 .067 .605 .081 .57000008 L .231 .20500002 C .22600001 .19200002 .21200001 .15900001 .206 .14600002 C .18400002 .091000009 .15600002 .022 .09200001 .022 C .087000008 .022 .064 .022 .045 .040000008 C .076000008 .044 .08400001 .066 .08400001 .08200001 C .08400001 .10800001 .065000008 .12400001 .042000005 .12400001 C .022 .12400001 0 .11100001 0 .08100001 C 0 .036 .042000005 0 .09200001 0 C .155 0 .19600001 .05700001 .22 .11400001 L .39600004 .541 Z "/>
</symbol>
<symbol id="font_3_2">
<path d="M .14400001 .57000008 L .14400001 .63600006 L 0 .625 L 0 .594 C .07100001 .594 .07800001 .58800008 .07800001 .544 L .07800001 .076 C .07800001 .031000004 .067 .031000004 0 .031000004 L 0 0 C .034 .001000002 .08600001 .0029999912 .112 .0029999912 C .13900002 .0029999912 .19000001 .001000002 .22500003 0 L .22500003 .031000004 C .158 .031000004 .14700002 .031000004 .14700002 .076 L .14700002 .244 L .14700002 .25300003 C .15200001 .237 .19400002 .183 .27 .183 C .38900004 .183 .49300004 .28100003 .49300004 .41000004 C .49300004 .53700008 .39600004 .63600006 .284 .63600006 C .20600002 .63600006 .164 .592 .14400001 .57000008 M .14700002 .30800004 L .14700002 .531 C .17600002 .582 .22500003 .61100009 .27600003 .61100009 C .349 .61100009 .41000004 .523 .41000004 .41000004 C .41000004 .289 .34000004 .20500002 .266 .20500002 C .22600001 .20500002 .18800001 .22500001 .16100002 .266 C .14700002 .287 .14700002 .28800003 .14700002 .30800004 Z "/>
</symbol>
<symbol id="font_3_4">
<path d="M .15400002 .411 L .29700003 .411 L .29700003 .44200004 L .15400002 .44200004 L .15400002 .626 L .12900001 .626 C .12799999 .544 .098000008 .43700005 0 .43300004 L 0 .411 L .085 .411 L .085 .135 C .085 .012000001 .178 0 .21400002 0 C .28500004 0 .31300003 .071 .31300003 .135 L .31300003 .19200002 L .28800003 .19200002 L .28800003 .13700001 C .28800003 .063 .25800003 .025000003 .22100002 .025000003 C .15400002 .025000003 .15400002 .116000007 .15400002 .13300002 L .15400002 .411 Z "/>
</symbol>
<symbol id="font_3_6">
<path d="M .08400001 .263 C .09 .41200004 .17400001 .43700005 .20800002 .43700005 C .31100003 .43700005 .321 .30200003 .321 .263 L .08400001 .263 M .083000008 .24200002 L .36200003 .24200002 C .38400004 .24200002 .38700003 .24200002 .38700003 .263 C .38700003 .36200003 .33300004 .45900003 .20800002 .45900003 C .09200001 .45900003 0 .35600005 0 .23100002 C 0 .097 .105000007 0 .22000002 0 C .342 0 .38700003 .111 .38700003 .13000001 C .38700003 .14000002 .379 .14200002 .374 .14200002 C .365 .14200002 .36300005 .136 .36100004 .128 C .326 .025000003 .236 .025000003 .22600001 .025000003 C .17600002 .025000003 .136 .055000005 .113000009 .092 C .083000008 .14000002 .083000008 .20600002 .083000008 .24200002 Z "/>
</symbol>
<symbol id="font_3_3">
<path d="M .13900002 .33200003 L .13900002 .44200004 L 0 .43100003 L 0 .4 C .07000001 .4 .07800001 .393 .07800001 .344 L .07800001 .076000008 C .07800001 .031000002 .067 .031000002 0 .031000002 L 0 0 C .039 .001 .08600001 .003 .11400001 .003 C .15400002 .003 .20100002 .003 .24100003 0 L .24100003 .031000002 L .22000002 .031000002 C .14600002 .031000002 .14400001 .042000005 .14400001 .078 L .14400001 .23200001 C .14400001 .33100004 .18600002 .42000003 .26200003 .42000003 C .26900003 .42000003 .27100004 .42000003 .27300004 .41900004 C .27 .418 .25000004 .40600003 .25000004 .38000003 C .25000004 .35200004 .27100004 .337 .293 .337 C .31100003 .337 .33600004 .349 .33600004 .381 C .33600004 .41300003 .305 .44200004 .26200003 .44200004 C .18900001 .44200004 .15300001 .37500004 .13900002 .33200003 Z "/>
</symbol>
<use xlink:href="#font_3_8" transform="matrix(12.453305,0,0,-12.453305,7.949357,3.97007)"/>
<use xlink:href="#font_3_1" transform="matrix(12.453305,0,0,-12.453305,5.3985059,14.05514)"/>
<use xlink:href="#font_3_7" transform="matrix(12.453305,0,0,-12.453305,14.682031,16.620522)"/>
<use xlink:href="#font_3_5" transform="matrix(12.453305,0,0,-12.453305,20.903288,16.608067)"/>
<use xlink:href="#font_3_2" transform="matrix(12.453305,0,0,-12.453305,27.682036,16.47108)"/>
<use xlink:href="#font_3_4" transform="matrix(12.453305,0,0,-12.453305,34.56996,14.192126)"/>
<use xlink:href="#font_3_6" transform="matrix(12.453305,0,0,-12.453305,39.682046,14.192126)"/>
<use xlink:href="#font_3_3" transform="matrix(12.453305,0,0,-12.453305,45.34872,14.05514)"/>
</g>
</svg>
