<?xml version="1.0" encoding="UTF-8" standalone="no"?>
<!DOCTYPE svg PUBLIC "-//W3C//DTD SVG 1.1//EN" "http://www.w3.org/Graphics/SVG/1.1/DTD/svg11.dtd">
<svg xmlns="http://www.w3.org/2000/svg" xmlns:xlink="http://www.w3.org/1999/xlink" version="1.1" width="1106.9722pt" height="774.86117pt" viewBox="0 0 1106.9722 774.86117">
<g enable-background="new">
<symbol id="font_0_4">
<path d="M .020999998 .6840001 C .001000002 .6840001 0 .66 0 .647 L 0 .033000005 C 0 .0019999999 .019000002 0 .037 0 L .339 0 C .50400009 .005 .66700008 .078 .66700008 .33300004 C .66700008 .43900005 .64400008 .558 .54800006 .62500008 C .48800005 .66600009 .411 .68500009 .338 .68500009 L .030000002 .68500009 C .026999996 .68500009 .024000004 .68500009 .020999998 .6840001 M .12400001 .071 L .12400001 .614 L .26100005 .614 C .36 .614 .47900004 .60200008 .522 .48400004 C .54 .43700005 .54300007 .38600005 .54300007 .33700005 C .54300007 .25400005 .53300008 .164 .45400007 .11000001 C .399 .073 .328 .071 .265 .071 L .12400001 .071 Z "/>
</symbol>
<symbol id="font_0_d">
<path d="M .023999997 .45000006 C .008000001 .44700004 .0029999987 .43300004 .0029999987 .41800005 L .0029999987 .032 C .0029999987 .004 .020999998 0 .04 0 L .092 0 C .11900001 0 .124000009 .016 .124000009 .035000005 L .124000009 .42000006 C .124000009 .44200004 .11200001 .45100004 .091 .45100004 L .036 .45100004 C .031999999 .45100004 .027999998 .45100004 .023999997 .45000006 M .020999998 .70800009 C .0050000029 .70600005 0 .69000008 0 .67700007 L 0 .61300006 C 0 .591 .013999999 .58300009 .031000004 .58300009 L .093 .58300009 C .11100001 .58300009 .12600002 .58900007 .12600002 .61300006 L .12600002 .679 C .12600002 .70400008 .11000001 .70900008 .094000007 .70900008 L .034 .70900008 C .029 .70900008 .024999999 .70900008 .020999998 .70800009 Z "/>
</symbol>
<symbol id="font_0_a">
<path d="M .118 .21700001 L .425 .21700001 C .45200003 .21700001 .46 .231 .46 .25100003 C .46 .366 .41200004 .474 .24200002 .474 C .177 .474 .10700001 .45900003 .060000007 .412 C .014000002 .366 0 .299 0 .23700002 C 0 .18200001 .011 .125 .046 .082 C .096 .018000002 .18100001 0 .25800003 0 C .315 0 .374 .012 .42600004 .036000004 C .43400003 .040000004 .451 .045 .453 .055000005 L .453 .059000005 C .453 .080000009 .45200003 .124000009 .441 .127 L .439 .127 C .43 .127 .42000003 .117000009 .414 .112 C .37100003 .08100001 .316 .064 .262 .064 C .194 .064 .118 .10000001 .118 .209 L .118 .21700001 M .119 .273 C .119 .347 .165 .41 .243 .41 C .33600004 .41 .347 .335 .35300002 .273 L .119 .273 Z "/>
</symbol>
<symbol id="font_0_7">
<path d="M .126 .319 L .499 .319 L .499 .049000004 C .499 .044000005 .49800004 .038000004 .49800004 .033 C .49800004 .015000001 .507 .001 .528 .001 L .577 .001 C .583 .001 .58900007 0 .595 0 C .61200007 0 .62500008 .012 .62500008 .031000002 L .62500008 .652 C .62500008 .67600008 .61700007 .68700006 .58500006 .68700006 C .574 .68700006 .563 .68600007 .55200007 .68600007 C .546 .68600007 .53900006 .68700006 .53300008 .68700006 C .513 .68700006 .49800004 .67600008 .49800004 .65400007 C .49800004 .64900007 .499 .64400008 .499 .64000007 L .499 .395 L .126 .395 L .126 .65400007 C .126 .674 .11700001 .68700006 .091000009 .68700006 C .08400001 .68700006 .07700001 .68600007 .07100001 .68600007 C .060000004 .68600007 .04900001 .68700006 .038000004 .68700006 C .017000005 .68700006 0 .68100008 0 .652 L 0 .023000002 C .0029999987 .009000001 .016000003 0 .030000002 0 C .036 0 .04200001 .001 .048000009 .001 L .096 .001 C .11400001 .001 .126 .009000001 .126 .033 L .126 .319 Z "/>
</symbol>
<symbol id="font_0_5">
<path d="M .119 .36300005 C .118 .37000004 .118 .37700004 .118 .38400004 L .118 .42400003 C .118 .45100004 .10100001 .45500005 .083000008 .45500005 L .031000004 .45500005 C .014000006 .45500005 0 .44600005 0 .42200003 C 0 .41600005 .001000002 .41100005 .001000002 .40600003 L .001000002 .037000006 C .001000002 .020000002 .003000006 0 .031000004 0 L .08700001 0 C .104 0 .12200001 .004 .12200001 .030000002 L .12200001 .192 C .12200001 .22600001 .12200001 .25800003 .13900002 .28800003 C .16800002 .33800004 .22300002 .36400003 .279 .36900003 L .286 .36900003 C .296 .36900003 .3 .37200005 .3 .38300003 L .3 .44300006 C .3 .45500005 .296 .46000005 .284 .46000005 C .22 .46000005 .14000002 .41200004 .119 .36300005 Z "/>
</symbol>
<symbol id="font_0_2">
<path d="M .232 .47500003 C .171 .46800003 .112 .46000005 .065 .416 C .015000001 .36900003 0 .298 0 .23200001 C 0 .12000001 .051000004 0 .25 0 C .37100003 0 .509 .038000004 .509 .23000002 C .509 .291 .49700005 .35500003 .45600004 .40300004 C .404 .46300004 .321 .47500003 .24600002 .47500003 L .232 .47500003 M .122999999 .20800002 L .122999999 .252 C .122999999 .32200004 .12900001 .411 .257 .411 C .289 .411 .323 .404 .347 .38300003 C .38500003 .34800003 .386 .29400004 .386 .24600002 L .386 .23900001 C .386 .16600001 .384 .069000009 .252 .069000009 C .216 .069000009 .178 .07800001 .154 .106000009 C .12900001 .135 .127 .172 .122999999 .20800002 Z "/>
</symbol>
<symbol id="font_0_b">
<path d="M .06300001 .23 C .024 .215 0 .179 0 .136 C 0 .010000005 .165 0 .254 0 C .352 0 .509 .010000005 .509 .141 C .509 .263 .39900003 .28800003 .25300003 .28800003 L .146 .28800003 C .119 .29000003 .097 .31300003 .095 .34000004 C .095 .35000003 .097 .358 .100999999 .367 C .139 .347 .186 .34500004 .22800002 .34500004 C .27600003 .34500004 .324 .352 .36400003 .37800003 C .405 .40500004 .425 .45400004 .425 .503 C .425 .53700008 .41500003 .572 .397 .59900006 C .40800003 .6010001 .42000003 .6010001 .432 .6010001 L .455 .6010001 C .47400005 .6010001 .495 .597 .514 .597 C .52000007 .597 .52500006 .6010001 .52500006 .60800006 C .52500006 .63600006 .519 .66400006 .50100007 .66400006 C .45600004 .66400006 .411 .65700009 .36900003 .64100006 C .36600004 .63900008 .36200003 .638 .358 .638 L .35500003 .638 C .347 .63900008 .338 .64500007 .33 .648 C .29700003 .661 .26000003 .66400006 .225 .66400006 C .141 .66400006 .028 .6470001 .021000002 .51600006 L .021000002 .50200006 C .021000002 .467 .030000002 .43400003 .051000004 .40600003 C .054 .402 .060000007 .397 .060000007 .39200003 C .060000007 .38300003 .045000007 .36400003 .040000004 .34800003 C .037000006 .337 .035 .32500003 .035 .31300003 C .035 .28300003 .045000007 .254 .06300001 .23 M .092999998 .128 C .09200001 .13100001 .09200001 .135 .09200001 .13800001 C .09200001 .17400001 .116 .19000001 .161 .19000001 L .20300001 .19000001 C .224 .19000001 .245 .19100002 .266 .19100002 L .27600003 .19100002 C .326 .19100002 .41000004 .18900001 .41700004 .13800001 L .41700004 .13300002 C .41700004 .097 .38000003 .07700001 .35000003 .067 C .319 .059 .286 .058 .254 .058 C .19500001 .058 .100999999 .06300001 .092999998 .128 M .138 .48000003 L .138 .508 C .138 .556 .141 .60600009 .227 .60600009 C .287 .60600009 .307 .573 .307 .503 C .307 .455 .30400003 .403 .22300002 .403 C .2 .403 .176 .407 .158 .42300005 C .143 .439 .14 .45900003 .138 .48000003 Z "/>
</symbol>
<symbol id="font_0_e">
<path d="M .022 .71300008 C .0040000008 .71300008 .001000002 .69000008 .001000002 .67800006 L .001000002 .054000006 C .001000002 .048000006 0 .041000006 0 .034 C 0 .017 .008000001 .0019999999 .024000004 0 L .08400001 0 C .118 0 .12200001 .014 .12200001 .033000005 L .12200001 .66 C .12200001 .66600009 .12300001 .67200008 .12300001 .679 C .12300001 .69600006 .11700001 .7120001 .098000008 .71400007 L .037000009 .71400007 C .032000007 .71400007 .027000003 .71400007 .022 .71300008 Z "/>
</symbol>
<symbol id="font_0_8">
<path d="M .25100003 .312 C .22600003 .411 .17900002 .503 .135 .595 C .113 .643 .101 .65500006 .064 .65500006 C .053999999 .65500006 .044 .65400007 .034 .65400007 L .026000003 .65400007 C .015000002 .65400007 .0030000006 .65300008 0 .64000007 L 0 .637 C 0 .62700006 .007000001 .615 .011000002 .60700008 C .071 .485 .12700002 .358 .18800001 .236 C .19400002 .22600001 .20300001 .21200001 .20300001 .20300001 C .20300001 .19500001 .19500003 .18200001 .19200002 .172 C .17700002 .132 .15900001 .079 .102000009 .079 C .078 .079 .053999999 .086 .033 .097 C .030000003 .098000008 .026000003 .1 .023 .1 C .016 .1 .013000002 .094000007 .013000002 .088 C .013000002 .061000006 .016 .0109999929 .029000001 .008000001 C .052 .001000002 .082 0 .106 0 C .16400002 0 .21100001 .031000004 .24500002 .075 C .275 .116000007 .29 .165 .30900003 .21200001 L .396 .43400003 C .41700004 .48700006 .439 .541 .46 .59400007 C .463 .605 .47400005 .62100008 .47400005 .63600006 C .47400005 .647 .46600003 .65400007 .45000003 .65400007 L .437 .65400007 C .42900003 .65400007 .419 .65500006 .41 .65500006 C .363 .65500006 .356 .619 .327 .542 C .3 .472 .255 .38 .25100003 .312 Z "/>
</symbol>
<symbol id="font_0_3">
<path d="M .12100001 .60300007 L .12100001 .61300006 C .12100001 .64400008 .10100001 .64500007 .083000008 .64500007 L .036000007 .64500007 C .019000002 .64500007 0 .64100006 0 .615 L 0 .023999989 C .002000004 .0069999995 .016000003 0 .032000007 0 L .088 0 C .104 0 .12300001 .0019999892 .12300001 .029 L .12300001 .234 C .157 .20300001 .20300003 .185 .24800001 .185 C .31600005 .185 .39200003 .202 .43400003 .26 C .46800006 .305 .47700007 .367 .47700007 .421 C .47700007 .52400007 .44700004 .65400007 .28000004 .65400007 C .22400002 .65400007 .16600001 .638 .12100001 .60300007 M .35300005 .39900003 C .34600003 .328 .325 .24900002 .21800001 .24900002 C .18300002 .24900002 .12300001 .274 .12300001 .312 L .12300001 .536 C .127 .563 .189 .586 .22900002 .586 C .33200003 .586 .35400004 .49400003 .35400004 .418 C .35400004 .412 .35400004 .40500004 .35300005 .39900003 Z "/>
</symbol>
<symbol id="font_0_c">
<path d="M .12100001 .38300003 L .12100001 .68000009 C .12100001 .702 .11400001 .71500006 .083000008 .71500006 C .07200001 .71500006 .061000006 .71400007 .050000006 .71400007 C .044000009 .71400007 .038000004 .71500006 .032000007 .71500006 C .016000003 .71500006 0 .70600005 0 .68600007 L 0 .036000004 C 0 .020000002 .001000002 .007 .022 0 L .08700001 0 C .112 0 .12300001 .011 .12300001 .036000004 L .12300001 .24700001 C .12300001 .31400005 .157 .39600004 .24200002 .39600004 C .30900003 .39600004 .319 .35600005 .319 .31200005 L .319 .035000005 C .319 .012 .32700003 0 .35000003 0 L .40700004 0 C .42900003 0 .44300003 .010000001 .44300003 .034 C .44300003 .041000006 .44200004 .048000006 .44200004 .054000006 L .44200004 .293 C .44200004 .33100004 .44200004 .37100003 .423 .40500004 C .395 .45400004 .33400003 .46000005 .28500004 .46000005 C .21800003 .46000005 .16200002 .43200005 .12100001 .38300003 Z "/>
</symbol>
<symbol id="font_0_1">
<path d="M .120000008 .38000003 C .119 .38600005 .118 .39200003 .118 .39800004 C .118 .40600003 .119 .41400004 .119 .42100004 C .119 .43700005 .11400001 .45300005 .09500001 .45500005 L .022 .45500005 C .0060000049 .45100004 0 .43800003 0 .42200003 L 0 .031000002 C 0 .0019999999 .019000002 0 .036000007 0 L .091000009 0 C .12100001 0 .12300001 .019000002 .12300001 .036000004 L .12300001 .237 C .12300001 .293 .13300002 .37400005 .22 .39400003 C .22700003 .39500005 .23500002 .39600004 .243 .39600004 C .31300003 .39600004 .319 .35200004 .319 .30900003 L .319 .049000004 C .319 .043000007 .31800003 .037000006 .31800003 .031000002 C .31800003 .014 .32700003 0 .349 0 L .40700004 0 C .42900003 0 .44200004 .007 .44200004 .034 L .44200004 .30400003 C .44200004 .34400005 .44 .39000006 .411 .42100004 C .37700004 .45600004 .32900004 .46000005 .28300003 .46000005 L .27 .46000005 C .21400002 .45500005 .14500001 .42800004 .120000008 .38000003 Z "/>
</symbol>
<symbol id="font_0_9">
<path d="M .356 .423 C .32100005 .45200003 .27100004 .469 .22500001 .469 C .171 .469 .11 .46 .069000009 .423 C .015000001 .37600003 0 .304 0 .23500002 C 0 .17700002 .009999998 .11100001 .049000004 .064 C .089 .016 .15200001 0 .212 0 C .265 0 .315 .02 .35400004 .055000005 C .35400004 .050000006 .35300005 .045 .35300005 .040000004 C .35300005 .010000001 .375 .009000001 .39200003 .009000001 L .44 .009000001 C .459 .009000001 .47700007 .012 .47700007 .040000004 L .47700007 .68900009 C .47700007 .71900007 .46100004 .72300007 .44200004 .72300007 L .38600005 .72300007 C .36900003 .72300007 .35500003 .71400007 .35500003 .6930001 C .35500003 .68700006 .356 .68100008 .356 .6750001 L .356 .423 M .12300001 .2 L .12300001 .24200002 C .12300001 .317 .135 .405 .259 .405 C .292 .405 .31800003 .395 .34400005 .372 C .348 .368 .35300005 .364 .35400004 .358 L .35400004 .133 C .35400004 .087000008 .272 .064 .249 .064 C .21500002 .064 .178 .072000008 .155 .098000008 C .12900001 .127 .127 .164 .12300001 .2 Z "/>
</symbol>
<symbol id="font_0_f">
<path d="M .283 .6840001 C .24700001 .68100008 .23000002 .60200008 .211 .55700007 C .146 .38800005 .078 .21800001 .010000002 .049000004 C .0069999995 .041000006 0 .029000001 0 .019000002 C 0 .005 .012000002 0 .024000004 0 L .071 0 C .12600002 0 .123 .025 .176 .158 C .18 .165 .17900002 .17400001 .192 .17400001 L .481 .17400001 C .499 .17400001 .526 .088 .541 .047000003 C .551 .021000002 .55700007 0 .597 0 L .662 0 C .67300006 0 .684 .007 .684 .019000002 L .684 .021000002 C .683 .032 .676 .043000007 .67200008 .053000004 C .605 .21800001 .542 .38300003 .476 .54800006 C .46500004 .577 .453 .60700008 .442 .63600006 C .43100003 .66200008 .425 .68500009 .384 .68500009 L .299 .68500009 C .293 .68500009 .28800003 .68500009 .283 .6840001 M .21000001 .245 C .222 .27000005 .231 .29700003 .241 .323 C .269 .39300005 .296 .46400006 .32000003 .535 C .32700003 .55200007 .33400003 .57000008 .336 .58800008 L .379 .46200005 L .463 .245 L .21000001 .245 M .411 .89000007 C .396 .8870001 .39000003 .87500008 .39000003 .859 L .39000003 .79800006 C .39000003 .7810001 .397 .76500007 .41700004 .76500007 L .481 .76500007 C .5 .76500007 .51600006 .77000007 .51600006 .794 L .51600006 .86100009 C .51600006 .882 .504 .89100006 .485 .89100006 L .42400003 .89100006 C .419 .89100006 .41500003 .89100006 .411 .89000007 M .18800003 .89000007 C .17300001 .8870001 .16800002 .87600007 .16800002 .86100009 L .16800002 .7950001 C .16800002 .776 .178 .76500007 .19800002 .76500007 L .26000003 .76500007 C .278 .76500007 .294 .771 .294 .79800006 L .294 .85300007 C .294 .87600007 .287 .89100006 .262 .89100006 L .201 .89100006 C .19600001 .89100006 .192 .89100006 .18800003 .89000007 Z "/>
</symbol>
<symbol id="font_0_6">
<path d="M .082 .46 L .031999999 .46 C .012999998 .46 0 .448 0 .42900003 C 0 .41 .012 .39900003 .03 .39900003 L .08 .39900003 L .08 .135 C .08 .07 .097 0 .18200001 0 C .23800002 0 .298 .011 .347 .037 C .35300002 .040000004 .361 .043 .361 .050000006 L .361 .053000004 C .361 .066 .352 .102000009 .34100003 .102000009 C .33200003 .102000009 .32 .091000009 .31 .08500001 C .291 .074 .266 .068 .24500002 .068 C .20600002 .068 .19900002 .105000007 .19900002 .157 L .19900002 .39900003 L .31 .39900003 C .329 .39900003 .344 .409 .344 .42900003 C .344 .45000003 .331 .46 .30900003 .46 L .19900002 .46 L .19900002 .55500009 C .19900002 .57900008 .19000001 .59000006 .16200002 .59000006 C .15500002 .59000006 .14700002 .58900007 .14000002 .58900007 C .13300002 .58900007 .12600002 .59000006 .11900001 .59000006 C .1 .59000006 .082 .58500006 .082 .55500009 L .082 .46 Z "/>
</symbol>
<use xlink:href="#font_0_4" transform="matrix(39.850557,0,0,-39.850557,6.2382547,37.821294)"/>
<use xlink:href="#font_0_d" transform="matrix(39.850557,0,0,-39.850557,38.189596,37.821294)"/>
<use xlink:href="#font_0_a" transform="matrix(39.850557,0,0,-39.850557,47.27248,38.17995)"/>
<use xlink:href="#font_0_7" transform="matrix(39.850557,0,0,-39.850557,86.20193,37.861146)"/>
<use xlink:href="#font_0_d" transform="matrix(39.850557,0,0,-39.850557,117.86663,37.821294)"/>
<use xlink:href="#font_0_a" transform="matrix(39.850557,0,0,-39.850557,126.949527,38.17995)"/>
<use xlink:href="#font_0_5" transform="matrix(39.850557,0,0,-39.850557,149.62912,37.821294)"/>
<use xlink:href="#font_0_2" transform="matrix(39.850557,0,0,-39.850557,163.61608,38.2198)"/>
<use xlink:href="#font_0_b" transform="matrix(39.850557,0,0,-39.850557,186.6009,45.95081)"/>
<use xlink:href="#font_0_e" transform="matrix(39.850557,0,0,-39.850557,211.25946,37.821294)"/>
<use xlink:href="#font_0_8" transform="matrix(39.850557,0,0,-39.850557,220.06337,45.910959)"/>
<use xlink:href="#font_0_3" transform="matrix(39.850557,0,0,-39.850557,242.97519,45.552305)"/>
<use xlink:href="#font_0_c" transform="matrix(39.850557,0,0,-39.850557,266.6082,37.821294)"/>
<use xlink:href="#font_0_a" transform="matrix(39.850557,0,0,-39.850557,288.60728,38.17995)"/>
<use xlink:href="#font_0_1" transform="matrix(39.850557,0,0,-39.850557,311.28688,37.821294)"/>
<use xlink:href="#font_0_9" transform="matrix(39.850557,0,0,-39.850557,348.19215,38.17995)"/>
<use xlink:href="#font_0_a" transform="matrix(39.850557,0,0,-39.850557,371.62586,38.17995)"/>
<use xlink:href="#font_0_5" transform="matrix(39.850557,0,0,-39.850557,394.30546,37.821294)"/>
<use xlink:href="#font_0_f" transform="matrix(39.850557,0,0,-39.850557,423.65086,37.821294)"/>
<use xlink:href="#font_0_b" transform="matrix(39.850557,0,0,-39.850557,453.95274,45.95081)"/>
<use xlink:href="#font_0_8" transform="matrix(39.850557,0,0,-39.850557,476.73835,45.910959)"/>
<use xlink:href="#font_0_3" transform="matrix(39.850557,0,0,-39.850557,499.6502,45.552305)"/>
<use xlink:href="#font_0_6" transform="matrix(39.850557,0,0,-39.850557,521.1312,38.17995)"/>
<use xlink:href="#font_0_a" transform="matrix(39.850557,0,0,-39.850557,538.2829,38.17995)"/>
<use xlink:href="#font_0_5" transform="matrix(39.850557,0,0,-39.850557,560.9625,37.821294)"/>
<symbol id="font_1_6">
<path d="M 0 .683 L 0 .65400007 L .02 .65400007 C .092 .65400007 .095000009 .64400008 .095000009 .60700008 L .095000009 .076000008 C .095000009 .039 .092 .029000001 .02 .029000001 L 0 .029000001 L 0 0 L .35000003 0 C .517 0 .651 .15 .651 .335 C .651 .528 .51600006 .683 .35000003 .683 L 0 .683 M .22000003 .029000001 C .176 .029000001 .174 .036000004 .174 .069000009 L .174 .614 C .174 .647 .176 .65400007 .22000003 .65400007 L .32500003 .65400007 C .40800003 .65400007 .47400005 .614 .51500007 .54800006 C .56000009 .47700004 .56000009 .37600003 .56000009 .33600004 C .56000009 .28 .559 .186 .50200006 .112 C .46900005 .07 .40900005 .029000001 .32500003 .029000001 L .22000003 .029000001 Z "/>
</symbol>
<symbol id="font_1_17">
<path d="M .141 .61600008 C .141 .642 .12000001 .665 .092 .665 C .06600001 .665 .044000009 .64400008 .044000009 .61700007 C .044000009 .587 .068 .568 .092 .568 C .123 .568 .141 .59400007 .141 .61600008 M .0030000024 .43 L .0030000024 .40100003 C .067 .40100003 .076000008 .395 .076000008 .34600003 L .076000008 .074 C .076000008 .029000001 .065000008 .029000001 0 .029000001 L 0 0 C .028000005 .002 .076000008 .002 .10500001 .002 C .116000007 .002 .17400003 .002 .208 0 L .208 .029000001 C .143 .029000001 .139 .034 .139 .07300001 L .139 .441 L .0030000024 .43 Z "/>
</symbol>
<symbol id="font_1_13">
<path d="M .35300002 .24200002 C .37500004 .24200002 .377 .24200002 .377 .261 C .377 .36200003 .323 .456 .202 .456 C .08800001 .456 0 .35300002 0 .22900002 C 0 .097 .102 0 .21300002 0 C .33200003 0 .377 .108 .377 .12900001 C .377 .135 .372 .13900002 .36600004 .13900002 C .358 .13900002 .356 .134 .354 .12900001 C .328 .045 .261 .022 .21900001 .022 C .17700002 .022 .076000008 .050000006 .076000008 .22300002 L .076000008 .24200002 L .35300002 .24200002 M .07700001 .261 C .085 .418 .17300001 .43600003 .201 .43600003 C .30800004 .43600003 .314 .29500003 .31500004 .261 L .07700001 .261 Z "/>
</symbol>
<use xlink:href="#font_1_6" transform="matrix(33.20889,0,0,-33.20889,3.7276734,122.19391)"/>
<use xlink:href="#font_1_17" transform="matrix(33.20889,0,0,-33.20889,28.428864,122.19391)"/>
<use xlink:href="#font_1_13" transform="matrix(33.20889,0,0,-33.20889,37.328847,122.526)"/>
<symbol id="font_2_1">
<path d="M 0 .029000001 L 0 0 L .19800002 0 L .19800002 .029000001 C .171 .029000001 .131 .043000007 .131 .077 C .131 .089 .13700001 .101 .141 .114 C .147 .133 .154 .15200001 .161 .171 C .17 .19600001 .17400001 .23300001 .192 .23300001 L .42400003 .23300001 C .43700005 .23300001 .43800003 .222 .44100005 .21300002 L .46200005 .15300001 C .47000007 .13000001 .47800002 .106000009 .48600004 .083000008 C .48900006 .076000008 .49300007 .067 .49300007 .059000005 C .49300007 .030000002 .44500003 .029000001 .41800005 .029000001 L .41800005 0 L .671 0 L .671 .029000001 L .648 .029000001 C .625 .029000001 .602 .030000002 .589 .043000007 C .577 .056000007 .572 .076000008 .56700006 .093 C .49600003 .286 .43100003 .48000006 .36400003 .67300006 C .35900004 .69100007 .35600005 .71400007 .33500005 .71400007 C .323 .71400007 .31700004 .707 .31500004 .69600006 L .30700005 .674 C .24500002 .48800005 .178 .30200003 .112 .116000007 C .097 .07 .077 .029000001 0 .029000001 M .192 .26200003 L .30800004 .59400007 L .42400003 .26200003 L .192 .26200003 M .42300005 .86100009 C .39800004 .85700008 .38200004 .836 .38200004 .81100007 C .38400004 .785 .40600003 .76500007 .43100003 .76500007 C .46000005 .76500007 .47900007 .78900006 .47900007 .81400009 C .47900007 .83800008 .46000005 .86200007 .43200005 .86200007 C .42900003 .86200007 .42600004 .86100009 .42300005 .86100009 M .233 .86100009 C .21200001 .85800006 .192 .83900007 .192 .81500008 C .192 .78900006 .21300002 .76500007 .24100001 .76500007 L .24700003 .76500007 C .26900003 .76800009 .28900004 .78900006 .28900004 .813 C .28900004 .836 .27100004 .86200007 .242 .86200007 C .23900001 .86200007 .23600002 .86100009 .233 .86100009 Z "/>
</symbol>
<use xlink:href="#font_2_1" transform="matrix(33.20889,0,0,-33.20889,64.69598,122.1607)"/>
<symbol id="font_1_15">
<path d="M .092 .38600005 C .13900002 .35500003 .17900002 .35500003 .19000001 .35500003 C .28 .35500003 .347 .42300005 .347 .5 C .347 .52700009 .33900003 .56500008 .307 .597 C .34600003 .637 .393 .637 .398 .637 C .402 .637 .407 .637 .411 .635 C .40100003 .63100007 .396 .62100008 .396 .61 C .396 .5960001 .40600003 .584 .42200003 .584 C .43 .584 .448 .589 .448 .61100009 C .448 .62900009 .43400003 .65700009 .39900003 .65700009 C .347 .65700009 .308 .625 .294 .61 C .264 .633 .22900002 .646 .19100002 .646 C .101 .646 .034 .57800009 .034 .50100007 C .034 .444 .069 .407 .079 .398 C .067 .38300003 .049000004 .35400004 .049000004 .31500004 C .049000004 .25700004 .08400001 .23200001 .092 .22700002 C .046000005 .21400002 0 .17800002 0 .12600002 C 0 .05700001 .094000007 0 .21700002 0 C .336 0 .435 .053000004 .435 .128 C .435 .15300001 .428 .21200001 .368 .24300002 C .317 .26900003 .267 .26900003 .18100001 .26900003 C .12 .26900003 .113 .26900003 .095000009 .28800003 C .085 .298 .076000008 .31700004 .076000008 .338 C .076000008 .35500003 .082 .37200005 .092 .38600005 M .19100002 .37600003 C .10300001 .37600003 .10300001 .47700004 .10300001 .5 C .10300001 .518 .10300001 .559 .12 .586 C .13900002 .615 .16900002 .625 .19000001 .625 C .278 .625 .278 .52400007 .278 .50100007 C .278 .48300005 .278 .44200004 .261 .41500003 C .24200003 .38600005 .21200001 .37600003 .19100002 .37600003 M .21800001 .020999998 C .122 .020999998 .049000004 .07000001 .049000004 .127 C .049000004 .13500002 .051 .17400001 .089 .20000002 C .11100001 .21400002 .12 .21400002 .19000001 .21400002 C .273 .21400002 .386 .21400002 .386 .127 C .386 .068 .31 .020999998 .21800001 .020999998 Z "/>
</symbol>
<symbol id="font_1_f">
<path d="M .38700003 .53800007 C .414 .605 .46100004 .606 .48000003 .606 L .48000003 .63500007 C .451 .633 .437 .633 .405 .633 C .382 .633 .38000003 .633 .324 .63500007 L .324 .606 C .361 .60400006 .37 .58100005 .37 .563 C .37 .554 .368 .549 .36400003 .53900006 L .262 .287 L .15100001 .559 C .145 .573 .145 .57900008 .145 .58000007 C .145 .606 .18 .606 .2 .606 L .2 .63500007 C .174 .633 .125 .633 .097 .633 C .059000009 .633 .057000005 .633 0 .63500007 L 0 .606 C .058000007 .606 .06600001 .601 .079 .57000008 L .228 .20400001 C .184 .098000008 .184 .09600001 .18 .08800001 C .163 .058 .136 .019999996 .091000009 .019999996 C .060000004 .019999996 .041 .038000004 .041 .038000004 C .041 .038000004 .076000008 .04200001 .076000008 .07700001 C .076000008 .101 .057000005 .11400001 .039000006 .11400001 C .022000002 .11400001 .0010000002 .10400001 .0010000002 .075 C .0010000002 .037 .038000004 0 .091000009 0 C .147 0 .18800001 .04900001 .214 .112 L .38700003 .53800007 Z "/>
</symbol>
<symbol id="font_1_4">
<path d="M .21700001 .029 C .15300001 .029 .14100002 .029 .14100002 .074 L .14100002 .24800001 C .15900001 .223 .20000002 .184 .26400004 .184 C .379 .184 .48000003 .28100003 .48000003 .41000004 C .48000003 .53700008 .38600005 .635 .277 .635 C .18900001 .635 .142 .572 .13900002 .568 L .13900002 .635 L 0 .624 L 0 .595 C .07000001 .595 .076000008 .58800008 .076000008 .544 L .076000008 .074 C .076000008 .029 .065 .029 0 .029 L 0 0 C .026 .002000004 .08 .002000004 .10800001 .002000004 C .13700001 .002000004 .19100002 .002000004 .21700001 0 L .21700001 .029 M .14100002 .513 C .14100002 .53200009 .14100002 .533 .15200001 .549 C .18200001 .594 .231 .61300006 .26900003 .61300006 C .344 .61300006 .404 .522 .404 .41000004 C .404 .291 .33600004 .20400001 .259 .20400001 C .22800002 .20400001 .19900002 .21700001 .17900002 .236 C .15600002 .259 .14100002 .279 .14100002 .307 L .14100002 .513 Z "/>
</symbol>
<symbol id="font_1_9">
<path d="M .15 .412 L .291 .412 L .291 .441 L .15 .441 L .15 .625 L .128 .625 C .127 .531 .091000009 .435 0 .432 L 0 .412 L .08500001 .412 L .08500001 .134 C .08500001 .023000002 .159 0 .212 0 C .275 0 .308 .062000004 .308 .134 L .308 .19100002 L .286 .19100002 L .286 .136 C .286 .064 .257 .022 .21800001 .022 C .15 .022 .15 .115 .15 .13200002 L .15 .412 Z "/>
</symbol>
<symbol id="font_1_7">
<path d="M .13900002 .23300001 C .13900002 .33 .17900002 .42100004 .256 .42100004 C .26400004 .42100004 .266 .42100004 .27 .42000003 C .26200003 .416 .24600002 .41000004 .24600002 .38300003 C .24600002 .354 .26900003 .34300003 .28500004 .34300003 C .305 .34300003 .32500003 .356 .32500003 .38300003 C .32500003 .41300003 .298 .441 .25500003 .441 C .17000002 .441 .14100002 .349 .135 .33 L .134 .33 L .134 .441 L 0 .43 L 0 .40100003 C .068 .40100003 .076000008 .39400003 .076000008 .34500004 L .076000008 .074 C .076000008 .029000001 .065 .029000001 0 .029000001 L 0 0 C .028 .002 .083000008 .002 .113000009 .002 C .14000002 .002 .21100001 .002 .23400003 0 L .23400003 .029000001 L .21400002 .029000001 C .14100002 .029000001 .13900002 .040000004 .13900002 .076000008 L .13900002 .23300001 Z "/>
</symbol>
<symbol id="font_1_b">
<path d="M .39000003 .34600003 C .39900003 .368 .416 .411 .48000003 .412 L .48000003 .441 C .451 .439 .437 .439 .40600003 .439 C .38500003 .439 .37 .439 .324 .441 L .324 .412 C .366 .41 .37100003 .38 .37100003 .36900003 C .37100003 .36 .36900003 .35500003 .36400003 .343 L .262 .085 L .15 .367 C .145 .381 .144 .381 .144 .386 C .144 .412 .182 .412 .2 .412 L .2 .441 C .175 .439 .123 .439 .09600001 .439 C .063 .439 .061000006 .439 0 .441 L 0 .412 C .056 .412 .06600001 .40800003 .078 .377 L .221 .019000002 C .22600001 .0050000005 .228 0 .24000001 0 C .24700001 0 .25300003 .0020000004 .26000003 .019000002 L .39000003 .34600003 Z "/>
</symbol>
<symbol id="font_1_c">
<path d="M .587 .34600003 C .609 .409 .653 .411 .67 .412 L .67 .441 C .64500007 .439 .62700006 .439 .596 .439 C .56700006 .439 .565 .439 .51100006 .441 L .51100006 .412 C .556 .41 .568 .38300003 .568 .364 C .568 .363 .568 .356 .564 .34600003 L .472 .084 L .372 .367 C .367 .379 .367 .381 .367 .384 C .367 .412 .404 .412 .425 .412 L .425 .441 C .397 .439 .356 .439 .32700003 .439 C .29500003 .439 .293 .439 .23700002 .441 L .23700002 .412 C .275 .412 .28800003 .41 .299 .397 C .30400003 .391 .316 .358 .323 .338 L .238 .094000007 L .142 .366 C .137 .379 .137 .381 .137 .38500003 C .137 .412 .176 .412 .19500001 .412 L .19500001 .441 C .17 .439 .12000001 .439 .09300001 .439 C .065000008 .439 .063 .439 0 .441 L 0 .412 C .051000008 .412 .061000006 .40800003 .072000008 .37600003 L .198 .018000002 C .202 .0070000009 .205 0 .216 0 C .22500001 0 .23 .0030000006 .23500002 .019000002 L .335 .304 L .435 .019000002 C .44000004 .0030000006 .44500003 0 .45400004 0 C .465 0 .46800003 .0070000009 .472 .018000002 L .587 .34600003 Z "/>
</symbol>
<symbol id="font_1_1">
<path d="M .41300003 .24300002 C .41300003 .33600004 .41300003 .36400003 .39000003 .39600004 C .361 .43500004 .314 .441 .28 .441 C .183 .441 .145 .358 .13700001 .33800004 L .136 .33800004 L .136 .441 L 0 .43 L 0 .40100003 C .068 .40100003 .076000008 .39400003 .076000008 .34500004 L .076000008 .074 C .076000008 .029000001 .065 .029000001 0 .029000001 L 0 0 C .026 .002 .08 .002 .107999999 .002 C .13700001 .002 .191 .002 .21700001 0 L .21700001 .029000001 C .153 .029000001 .141 .029000001 .141 .074 L .141 .26000003 C .141 .365 .21000001 .42100004 .272 .42100004 C .33400003 .42100004 .34800003 .37 .34800003 .30900003 L .34800003 .074 C .34800003 .029000001 .337 .029000001 .272 .029000001 L .272 0 C .298 .002 .352 .002 .38000003 .002 C .409 .002 .46300004 .002 .48900003 0 L .48900003 .029000001 C .439 .029000001 .414 .029000001 .41300003 .059000005 L .41300003 .24300002 Z "/>
</symbol>
<symbol id="font_1_12">
<path d="M .26500003 .693 L .26500003 .66400006 C .33300004 .66400006 .34100003 .657 .34100003 .60800006 L .34100003 .387 C .32000003 .416 .277 .451 .21600002 .451 C .10000001 .451 0 .35300002 0 .22500001 C 0 .098000008 .09500001 0 .20500002 0 C .28100003 0 .32500003 .050000006 .33900003 .069000009 L .33900003 0 L .48000006 .010000001 L .48000006 .039 C .41200004 .039 .404 .046000005 .404 .095 L .404 .704 L .26500003 .693 M .33900003 .127 C .33900003 .109000008 .33900003 .106 .32500003 .084 C .30100004 .049000004 .26000003 .020000002 .21000001 .020000002 C .18400002 .020000002 .076000008 .030000002 .076000008 .22400002 C .076000008 .296 .088 .336 .110000018 .36900003 C .13000001 .4 .17000002 .43100003 .22000003 .43100003 C .282 .43100003 .31700004 .386 .32700003 .37 C .33900003 .35300002 .33900003 .351 .33900003 .333 L .33900003 .127 Z "/>
</symbol>
<symbol id="font_1_8">
<path d="M .29500003 .433 C .29500003 .451 .29500003 .456 .28500004 .456 C .277 .456 .25800003 .43400003 .25100003 .425 C .22000003 .45000003 .18900001 .456 .157 .456 C .036000007 .456 0 .39000003 0 .335 C 0 .324 0 .289 .038000004 .254 C .07000001 .22600001 .10400001 .21900001 .15 .21000001 C .20500002 .19900002 .21800003 .19600001 .24300003 .17600002 C .261 .16100002 .27400003 .13900002 .27400003 .111 C .27400003 .068 .24900002 .020000002 .16100002 .020000002 C .095000009 .020000002 .047000007 .058000003 .025000003 .158 C .021000002 .17600002 .021000002 .17700002 .020000004 .17800002 C .018000003 .18200001 .014000002 .18200001 .011000004 .18200001 C 0 .18200001 0 .17700002 0 .15900001 L 0 .023000002 C 0 .0050000005 0 0 .010000002 0 C .015000001 0 .016000003 .0010000002 .033 .022 C .038000004 .029000003 .038000004 .031000004 .053000004 .047000003 C .091000009 0 .14500001 0 .162 0 C .26700003 0 .31900005 .058000003 .31900005 .13700001 C .31900005 .19100002 .286 .22300002 .277 .23200003 C .24100003 .263 .21400002 .269 .148 .28100003 C .11800001 .287 .045 .301 .045 .361 C .045 .39200003 .06600001 .43800003 .15600002 .43800003 C .26500003 .43800003 .27100004 .345 .27300004 .314 C .27400003 .306 .28100003 .306 .284 .306 C .29500003 .306 .29500003 .31100003 .29500003 .329 L .29500003 .433 Z "/>
</symbol>
<symbol id="font_1_10">
<path d="M .32700003 .38 C .31500004 .38 .27800004 .38 .27800004 .33900003 C .27800004 .315 .29500003 .298 .319 .298 C .342 .298 .36100004 .312 .36100004 .34100003 C .36100004 .40800003 .291 .456 .21000001 .456 C .09300001 .456 0 .352 0 .22600001 C 0 .098000008 .096000019 0 .20900002 0 C .34100003 0 .37100003 .120000008 .37100003 .12900001 C .37100003 .13800001 .36400003 .13800001 .36100004 .13800001 C .35200004 .13800001 .351 .135 .34800003 .123 C .32600004 .052000006 .272 .022 .21800003 .022 C .157 .022 .076000008 .075 .076000008 .22700002 C .076000008 .393 .16100002 .43400003 .21100001 .43400003 C .24900002 .43400003 .30400003 .419 .32700003 .38 Z "/>
</symbol>
<symbol id="font_1_16">
<path d="M .41300003 .24300002 C .41300003 .33600004 .41300003 .36400003 .39000003 .39600004 C .361 .43500004 .314 .441 .28 .441 C .194 .441 .154 .37600003 .14 .34500004 L .139 .34500004 L .139 .694 L 0 .683 L 0 .65400007 C .068 .65400007 .076000008 .647 .076000008 .59800007 L .076000008 .074 C .076000008 .029000001 .065 .029000001 0 .029000001 L 0 0 C .026 .002 .08 .002 .107999999 .002 C .13700001 .002 .191 .002 .21700001 0 L .21700001 .029000001 C .153 .029000001 .141 .029000001 .141 .074 L .141 .26000003 C .141 .365 .21000001 .42100004 .272 .42100004 C .33400003 .42100004 .34800003 .37 .34800003 .30900003 L .34800003 .074 C .34800003 .029000001 .337 .029000001 .272 .029000001 L .272 0 C .298 .002 .352 .002 .38000003 .002 C .409 .002 .46300004 .002 .48900003 0 L .48900003 .029000001 C .439 .029000001 .414 .029000001 .41300003 .059000005 L .41300003 .24300002 Z "/>
</symbol>
<symbol id="font_1_18">
<path d="M .154 .43800003 C .103 .451 .058000003 .50100007 .058000003 .56500008 C .058000003 .63500007 .11400001 .6980001 .192 .6980001 C .35600005 .6980001 .37800003 .5360001 .38400004 .49300004 C .38600005 .481 .38600005 .47700004 .39600004 .47700004 C .40700004 .47700004 .40700004 .48200003 .40700004 .50000008 L .40700004 .7020001 C .40700004 .7200001 .40700004 .7250001 .39700005 .7250001 C .39400003 .7250001 .39000006 .7250001 .38300003 .7120001 L .35000003 .6510001 C .30200003 .71300008 .23600002 .7250001 .192 .7250001 C .081 .7250001 0 .63600006 0 .53400006 C 0 .48600004 .017 .44200004 .054 .402 C .089 .363 .124 .354 .19500001 .33600004 C .23 .328 .28500004 .314 .29900003 .308 C .34600003 .285 .37700004 .231 .37700004 .17500001 C .37700004 .10000001 .32400004 .029000003 .24100001 .029000003 C .196 .029000003 .134 .040000004 .08500001 .083000008 C .026999999 .135 .023000006 .207 .022000004 .24000001 C .021000002 .24800001 .013 .24800001 .011000004 .24800001 C 0 .24800001 0 .24300002 0 .22500001 L 0 .023000002 C 0 .005000001 0 0 .010000002 0 C .015999999 0 .017 .0020000004 .024 .014000001 C .028 .022000002 .049000008 .059000005 .057000009 .074 C .092999998 .034 .156 0 .242 0 C .35400004 0 .43500004 .095 .43500004 .20500002 C .43500004 .266 .41200004 .31100003 .38500003 .344 C .34800003 .38900004 .30300004 .4 .26400004 .41000004 L .154 .43800003 Z "/>
</symbol>
<symbol id="font_1_1a">
<path d="M .685 .24300002 C .685 .33600004 .685 .36400003 .662 .39600004 C .633 .43500004 .586 .441 .55200007 .441 C .46900005 .441 .42700003 .381 .411 .342 C .397 .41900004 .34300003 .441 .28 .441 C .183 .441 .145 .358 .13700001 .33800004 L .136 .33800004 L .136 .441 L 0 .43 L 0 .40100003 C .068 .40100003 .076000008 .39400003 .076000008 .34500004 L .076000008 .074 C .076000008 .029000001 .065 .029000001 0 .029000001 L 0 0 C .026 .002 .08 .002 .107999999 .002 C .13700001 .002 .191 .002 .21700001 0 L .21700001 .029000001 C .153 .029000001 .141 .029000001 .141 .074 L .141 .26000003 C .141 .365 .21000001 .42100004 .272 .42100004 C .33400003 .42100004 .34800003 .37 .34800003 .30900003 L .34800003 .074 C .34800003 .029000001 .337 .029000001 .272 .029000001 L .272 0 C .298 .002 .352 .002 .38000003 .002 C .409 .002 .46300004 .002 .48900003 0 L .48900003 .029000001 C .425 .029000001 .41300003 .029000001 .41300003 .074 L .41300003 .26000003 C .41300003 .365 .482 .42100004 .544 .42100004 C .606 .42100004 .62 .37 .62 .30900003 L .62 .074 C .62 .029000001 .609 .029000001 .544 .029000001 L .544 0 C .57000008 .002 .624 .002 .652 .002 C .68100008 .002 .735 .002 .76100006 0 L .76100006 .029000001 C .711 .029000001 .68600007 .029000001 .685 .059000005 L .685 .24300002 Z "/>
</symbol>
<symbol id="font_1_e">
<path d="M .13900002 .704 L 0 .693 L 0 .66400006 C .068 .66400006 .076000008 .657 .076000008 .60800006 L .076000008 .010000001 L .098000008 .010000001 C .10200001 .018000002 .13000001 .068 .134 .075 C .157 .038000004 .20000002 0 .26400004 0 C .379 0 .48000003 .097 .48000003 .22600001 C .48000003 .35300002 .38600005 .451 .275 .451 C .22000002 .451 .17300001 .426 .13900002 .384 L .13900002 .704 M .14100002 .33 C .14100002 .34800003 .14100002 .35 .15200001 .366 C .17600002 .402 .22000002 .43100003 .26900003 .43100003 C .29900003 .43100003 .404 .419 .404 .22700002 C .404 .16000001 .39400003 .118 .37000004 .082 C .35000003 .051000004 .31000004 .020000002 .26000003 .020000002 C .20600002 .020000002 .17100002 .055000005 .15400002 .082 C .14100002 .103 .14100002 .107 .14100002 .124000009 L .14100002 .33 Z "/>
</symbol>
<symbol id="font_1_3">
<path d="M .42900003 .22400002 C .42900003 .35300002 .33100004 .456 .215 .456 C .095 .456 0 .35 0 .22400002 C 0 .096 .10000001 0 .21400002 0 C .33200003 0 .42900003 .098000008 .42900003 .22400002 M .215 .022 C .178 .022 .133 .038000004 .104 .087000008 C .07700001 .13200002 .076000008 .19100002 .076000008 .23300001 C .076000008 .271 .076000008 .33200003 .10700001 .377 C .135 .42000003 .179 .43600003 .21400002 .43600003 C .25300003 .43600003 .29500003 .418 .32200004 .379 C .35300002 .333 .35300002 .27 .35300002 .23300001 C .35300002 .19800002 .35300002 .136 .32700003 .089 C .29900003 .041 .25300003 .022 .215 .022 Z "/>
</symbol>
<symbol id="font_1_19">
<path d="M .139 .694 L 0 .683 L 0 .65400007 C .068 .65400007 .076000008 .647 .076000008 .59800007 L .076000008 .074 C .076000008 .029000001 .065000008 .029000001 0 .029000001 L 0 0 C .028000005 .002 .07700001 .002 .107 .002 C .137 .002 .187 .002 .215 0 L .215 .029000001 C .15100003 .029000001 .139 .029000001 .139 .074 L .139 .694 Z "/>
</symbol>
<symbol id="font_1_14">
<path d="M .141 .402 L .25400005 .402 L .25400005 .43100003 L .139 .43100003 L .139 .54800006 C .139 .638 .185 .684 .226 .684 C .23400001 .684 .249 .68200007 .26100005 .67600008 C .25700004 .675 .23200001 .666 .23200001 .637 C .23200001 .614 .24800001 .59800007 .27100004 .59800007 C .29500003 .59800007 .31100003 .614 .31100003 .638 C .31100003 .675 .27500005 .70400008 .22700002 .70400008 C .157 .70400008 .078 .65000006 .078 .54800006 L .078 .43100003 L 0 .43100003 L 0 .402 L .078 .402 L .078 .074 C .078 .029000001 .067 .029000001 .0019999985 .029000001 L .0019999985 0 C .030000003 .002 .085 .002 .11500001 .002 C .142 .002 .21300002 .002 .23600002 0 L .23600002 .029000001 L .216 .029000001 C .143 .029000001 .141 .040000004 .141 .076000008 L .141 .402 Z "/>
</symbol>
<use xlink:href="#font_1_15" transform="matrix(33.20889,0,0,-33.20889,88.89692,129.00173)"/>
<use xlink:href="#font_1_f" transform="matrix(33.20889,0,0,-33.20889,104.93141,128.96852)"/>
<use xlink:href="#font_1_4" transform="matrix(33.20889,0,0,-33.20889,122.26355,128.63643)"/>
<use xlink:href="#font_1_9" transform="matrix(33.20889,0,0,-33.20889,139.93152,122.526)"/>
<use xlink:href="#font_1_13" transform="matrix(33.20889,0,0,-33.20889,152.99672,122.526)"/>
<use xlink:href="#font_1_7" transform="matrix(33.20889,0,0,-33.20889,167.26366,122.19391)"/>
<use xlink:href="#font_1_b" transform="matrix(33.20889,0,0,-33.20889,192.9321,122.526)"/>
<use xlink:href="#font_1_13" transform="matrix(33.20889,0,0,-33.20889,209.33107,122.526)"/>
<use xlink:href="#font_1_7" transform="matrix(33.20889,0,0,-33.20889,223.59803,122.19391)"/>
<use xlink:href="#font_1_c" transform="matrix(33.20889,0,0,-33.20889,235.93267,122.526)"/>
<use xlink:href="#font_1_13" transform="matrix(33.20889,0,0,-33.20889,258.665,122.526)"/>
<use xlink:href="#font_1_1" transform="matrix(33.20889,0,0,-33.20889,273.06477,122.19391)"/>
<use xlink:href="#font_1_12" transform="matrix(33.20889,0,0,-33.20889,291.1645,122.526)"/>
<use xlink:href="#font_1_13" transform="matrix(33.20889,0,0,-33.20889,308.9985,122.526)"/>
<use xlink:href="#font_1_9" transform="matrix(33.20889,0,0,-33.20889,322.93336,122.526)"/>
<use xlink:href="#font_1_13" transform="matrix(33.20889,0,0,-33.20889,335.9986,122.526)"/>
<use xlink:href="#font_1_1" transform="matrix(33.20889,0,0,-33.20889,350.39839,122.19391)"/>
<use xlink:href="#font_1_b" transform="matrix(33.20889,0,0,-33.20889,382.26643,122.526)"/>
<use xlink:href="#font_1_13" transform="matrix(33.20889,0,0,-33.20889,398.6654,122.526)"/>
<use xlink:href="#font_1_7" transform="matrix(33.20889,0,0,-33.20889,412.93235,122.19391)"/>
<use xlink:href="#font_1_8" transform="matrix(33.20889,0,0,-33.20889,425.7651,122.526)"/>
<use xlink:href="#font_1_10" transform="matrix(33.20889,0,0,-33.20889,438.49824,122.526)"/>
<use xlink:href="#font_1_16" transform="matrix(33.20889,0,0,-33.20889,451.73219,122.19391)"/>
<use xlink:href="#font_1_17" transform="matrix(33.20889,0,0,-33.20889,469.76548,122.19391)"/>
<use xlink:href="#font_1_13" transform="matrix(33.20889,0,0,-33.20889,478.66545,122.526)"/>
<use xlink:href="#font_1_12" transform="matrix(33.20889,0,0,-33.20889,493.1649,122.526)"/>
<use xlink:href="#font_1_13" transform="matrix(33.20889,0,0,-33.20889,510.9989,122.526)"/>
<use xlink:href="#font_1_1" transform="matrix(33.20889,0,0,-33.20889,525.3987,122.19391)"/>
<use xlink:href="#font_1_13" transform="matrix(33.20889,0,0,-33.20889,543.33236,122.526)"/>
<use xlink:href="#font_1_18" transform="matrix(33.20889,0,0,-33.20889,572.7959,122.8913)"/>
<use xlink:href="#font_1_f" transform="matrix(33.20889,0,0,-33.20889,589.60049,128.96852)"/>
<use xlink:href="#font_1_1a" transform="matrix(33.20889,0,0,-33.20889,607.06539,122.19391)"/>
<use xlink:href="#font_1_e" transform="matrix(33.20889,0,0,-33.20889,632.9331,122.526)"/>
<use xlink:href="#font_1_3" transform="matrix(33.20889,0,0,-33.20889,651.9991,122.526)"/>
<use xlink:href="#font_1_19" transform="matrix(33.20889,0,0,-33.20889,668.4321,122.19391)"/>
<use xlink:href="#font_1_13" transform="matrix(33.20889,0,0,-33.20889,677.3321,122.526)"/>
<use xlink:href="#font_1_14" transform="matrix(33.20889,0,0,-33.20889,705.3655,122.19391)"/>
<symbol id="font_2_3">
<path d="M 0 .44 L 0 .411 L .013 .411 C .055000005 .411 .076000008 .407 .076000008 .347 L .076000008 .14700002 C .076000008 .116000007 .07700001 .084 .092999998 .057000005 C .119 .013 .17400001 0 .22100002 0 C .275 0 .33400003 .035 .349 .09 L .35000003 .0010000002 L .48900003 .011000001 L .48900003 .040000004 L .47000004 .040000004 C .441 .040000004 .41300003 .044000005 .41300003 .088 L .41300003 .451 L .272 .44 L .272 .411 L .284 .411 C .31800003 .411 .34800003 .409 .34800003 .361 L .34800003 .16300002 C .34300003 .093 .30400003 .022 .22600001 .022 C .18900001 .022 .153 .031000004 .143 .084 C .141 .103 .141 .123 .141 .142 L .141 .451 L 0 .44 M .142 .661 C .114999998 .657 .100999999 .635 .100999999 .614 C .100999999 .593 .117 .565 .148 .565 C .179 .565 .198 .58900007 .198 .61300006 C .198 .634 .18200001 .662 .15100001 .662 C .148 .662 .145 .661 .142 .661 M .33200003 .661 C .305 .657 .291 .635 .291 .614 C .291 .593 .307 .565 .338 .565 C .36900003 .565 .388 .58900007 .388 .614 C .388 .63600006 .37 .662 .34100003 .662 C .338 .662 .335 .661 .33200003 .661 Z "/>
</symbol>
<use xlink:href="#font_2_3" transform="matrix(33.20889,0,0,-33.20889,715.39627,122.526)"/>
<symbol id="font_1_5">
<path d="M .48100005 .648 C .48900006 .661 .48900006 .66200008 .48900006 .669 C .48900006 .683 .48400007 .683 .46500007 .683 L .025000003 .683 L .014000002 .46 L .036000004 .46 C .043 .573 .074 .65400007 .23600002 .65400007 L .39600004 .65400007 L 0 .024 C 0 .001 .001000002 0 .024 0 L .47800002 0 L .49400006 .264 L .47200004 .264 C .46500007 .123 .44400005 .031000002 .26200003 .031000002 L .092999998 .031000002 L .48100005 .648 Z "/>
</symbol>
<symbol id="font_1_1e">
<path d="M .26000003 0 L .26000003 .054000006 L 0 .054000006 L 0 0 L .26000003 0 Z "/>
</symbol>
<symbol id="font_1_11">
<path d="M .354 .40300004 C .363 .41400004 .363 .416 .363 .42000003 C .363 .43100003 .356 .43100003 .33900003 .43100003 L .025 .43100003 L .014 .272 L .036 .272 C .042000005 .374 .061000006 .411 .17000002 .411 L .286 .411 L 0 .018000002 C 0 0 .0020000004 0 .024000003 0 L .35 0 L .366 .18400002 L .344 .18400002 C .335 .07 .31800003 .022000002 .19900002 .022000002 L .078 .022000002 L .354 .40300004 Z "/>
</symbol>
<symbol id="font_1_1d">
<path d="M .09700001 .38300003 C .09700001 .41000004 .07400001 .43100003 .049000004 .43100003 C .020000004 .43100003 0 .40800003 0 .38300003 C 0 .35300002 .024999999 .33400003 .048 .33400003 C .074999999 .33400003 .09700001 .35500003 .09700001 .38300003 M .09700001 .049000004 C .09700001 .076000008 .07400001 .097 .049000004 .097 C .020000004 .097 0 .074 0 .049000004 C 0 .019000002 .024999999 0 .048 0 C .074999999 0 .09700001 .021000002 .09700001 .049000004 Z "/>
</symbol>
<use xlink:href="#font_1_7" transform="matrix(33.20889,0,0,-33.20889,733.2636,122.19391)"/>
<use xlink:href="#font_1_12" transform="matrix(33.20889,0,0,-33.20889,759.16238,122.526)"/>
<use xlink:href="#font_1_17" transform="matrix(33.20889,0,0,-33.20889,777.096,122.19391)"/>
<use xlink:href="#font_1_13" transform="matrix(33.20889,0,0,-33.20889,785.99606,122.526)"/>
<use xlink:href="#font_1_14" transform="matrix(33.20889,0,0,-33.20889,813.69619,122.19391)"/>
<use xlink:href="#font_1_3" transform="matrix(33.20889,0,0,-33.20889,823.6631,122.526)"/>
<use xlink:href="#font_1_19" transform="matrix(33.20889,0,0,-33.20889,840.0961,122.19391)"/>
<use xlink:href="#font_1_15" transform="matrix(33.20889,0,0,-33.20889,848.89657,129.00173)"/>
<use xlink:href="#font_1_13" transform="matrix(33.20889,0,0,-33.20889,865.3296,122.526)"/>
<use xlink:href="#font_1_1" transform="matrix(33.20889,0,0,-33.20889,879.7293,122.19391)"/>
<use xlink:href="#font_1_12" transform="matrix(33.20889,0,0,-33.20889,897.829,122.526)"/>
<use xlink:href="#font_1_13" transform="matrix(33.20889,0,0,-33.20889,915.66299,122.526)"/>
<use xlink:href="#font_1_1" transform="matrix(33.20889,0,0,-33.20889,930.0628,122.19391)"/>
<use xlink:href="#font_1_5" transform="matrix(33.20889,0,0,-33.20889,962.12728,122.19391)"/>
<use xlink:href="#font_1_13" transform="matrix(33.20889,0,0,-33.20889,981.33029,122.526)"/>
<use xlink:href="#font_1_16" transform="matrix(33.20889,0,0,-33.20889,995.7301,122.19391)"/>
<use xlink:href="#font_1_1" transform="matrix(33.20889,0,0,-33.20889,1013.73019,122.19391)"/>
<use xlink:href="#font_1_13" transform="matrix(33.20889,0,0,-33.20889,1031.6637,122.526)"/>
<use xlink:href="#font_1_7" transform="matrix(33.20889,0,0,-33.20889,1045.9308,122.19391)"/>
<use xlink:href="#font_1_4" transform="matrix(33.20889,0,0,-33.20889,1058.5974,128.63643)"/>
<use xlink:href="#font_1_3" transform="matrix(33.20889,0,0,-33.20889,1077.6642,122.526)"/>
<use xlink:href="#font_1_1e" transform="matrix(33.20889,0,0,-33.20889,1093.3667,115.91743)"/>
<use xlink:href="#font_1_9" transform="matrix(33.20889,0,0,-33.20889,2.9287942,158.52661)"/>
<use xlink:href="#font_1_13" transform="matrix(33.20889,0,0,-33.20889,15.994001,158.52661)"/>
<use xlink:href="#font_1_1" transform="matrix(33.20889,0,0,-33.20889,30.393792,158.19452)"/>
<use xlink:href="#font_1_11" transform="matrix(33.20889,0,0,-33.20889,48.2278,158.19452)"/>
<use xlink:href="#font_1_13" transform="matrix(33.20889,0,0,-33.20889,62.66079,158.52661)"/>
<use xlink:href="#font_1_1" transform="matrix(33.20889,0,0,-33.20889,77.060588,158.19452)"/>
<use xlink:href="#font_1_1d" transform="matrix(33.20889,0,0,-33.20889,96.88713,158.19452)"/>
<symbol id="font_3_5">
<path d="M 0 .51600006 L 0 0 L .052 0 L .052 .51600006 L 0 .51600006 Z "/>
</symbol>
<symbol id="font_3_6">
<path d="M .002 0 L .053000004 0 C .053000004 .037 .052 .074 .052 .11100001 C .052 .187 .05 .24700001 .085 .303 C .108 .34 .15100001 .37500004 .208 .37500004 C .27 .37500004 .324 .33100004 .34800003 .27 C .36400003 .22200002 .365 .172 .365 .11400001 C .365 .076000008 .363 .038000004 .363 0 L .41500003 0 C .41500003 .042000005 .416 .08400001 .416 .125 C .416 .21400002 .41700004 .284 .37500004 .35000003 C .344 .39900003 .284 .44300003 .21200001 .44300003 C .135 .44300003 .060000004 .39800004 .027 .323 C .009000001 .28300003 .0050000005 .24000001 .002 .19700001 C 0 .17500001 0 .15300001 0 .13100001 C 0 .08800001 .002 .044000005 .002 0 Z "/>
</symbol>
<symbol id="font_3_7">
<path d="M .177 .653 C .08400001 .653 0 .583 0 .481 C 0 .398 .055000005 .318 .105000007 .256 L .14 .21100001 C .156 .19000001 .172 .17000002 .187 .148 C .21200001 .109000008 .231 .06600001 .24700001 .019000002 C .25100003 .010000001 .24900002 .001 .26200003 .001 C .26700003 .001 .272 0 .277 0 C .294 0 .30400003 .013 .30400003 .024000003 C .30400003 .030000002 .30100004 .036 .29900003 .044 C .289 .07800001 .275 .11100001 .259 .143 C .215 .22800002 .143 .292 .093 .372 C .074 .403 .057000005 .441 .057000005 .479 C .057000005 .547 .116000007 .597 .17400001 .597 C .22000002 .597 .25 .565 .25 .528 C .25 .499 .22700002 .462 .194 .462 C .157 .462 .13800001 .519 .134 .55 L .09900001 .55 C .102000009 .486 .124000009 .408 .19800002 .39900003 C .202 .398 .20600002 .398 .21000001 .398 C .21700001 .398 .224 .39900003 .23 .401 C .284 .41500003 .317 .46400003 .317 .52000007 C .317 .6 .256 .653 .177 .653 Z "/>
</symbol>
<use xlink:href="#font_3_5" transform="matrix(59.77555,0,0,-59.77555,27.665228,221.8609)"/>
<use xlink:href="#font_3_6" transform="matrix(59.77555,0,0,-59.77555,128.33144,221.8609)"/>
<use xlink:href="#font_3_7" transform="matrix(59.77555,0,0,-59.77555,272.6649,221.92067)"/>
<symbol id="font_3_1">
<path d="M .11800001 .22200002 C .11800001 .21700001 .113000009 .21100001 .11100001 .20700002 C .10300001 .192 .096 .178 .087000008 .163 L .034 .063 C .023000002 .042000005 .009000001 .022000002 0 0 L .41300003 0 C .41200004 .002 .30100004 .208 .30100004 .209 C .29900003 .21300002 .294 .21800001 .294 .223 C .294 .231 .31100003 .24200002 .317 .24800001 C .33600004 .26700003 .36100004 .287 .377 .30900003 L .25800003 .25800003 L .25800003 .98200008 L .25800003 .99000009 C .25800003 .99200007 .25800003 .99500009 .259 .99700006 C .263 1.003 .282 1.005 .289 1.0070001 C .31800003 1.0150001 .349 1.028 .379 1.0320001 C .379 1.0370001 .381 1.046 .381 1.054 C .381 1.074 .36600004 1.0730001 .356 1.0780001 L .3 1.1060001 C .28500004 1.1140001 .27400003 1.1110001 .27400003 1.1350001 C .27400003 1.161 .286 1.1600001 .29700003 1.171 L .35000003 1.215 C .35900004 1.222 .37 1.23 .37800003 1.2390001 C .356 1.2490001 .33 1.253 .307 1.258 C .273 1.266 .23500002 1.271 .19800002 1.271 C .10700001 1.271 .002 1.2290001 .002 1.133 C .002 1.046 .10700001 .98300006 .18900001 .98100009 L .18900001 .24100001 L .036000004 .29200004 C .041 .28500004 .05 .28 .057000005 .27400003 L .097 .24200002 C .102000009 .238 .11800001 .231 .11800001 .22200002 M .23200001 1.029 C .156 1.029 .057000005 1.052 .057000005 1.125 C .057000005 1.194 .135 1.2320001 .21000001 1.2320001 C .23700002 1.2320001 .26500003 1.228 .29200004 1.222 C .27800004 1.205 .256 1.192 .23900001 1.1780001 C .22900002 1.1700001 .21900001 1.159 .20700002 1.154 L .29200004 1.0320001 C .272 1.0320001 .25300003 1.029 .23200001 1.029 M .344 .069000009 L .069000009 .069000009 C .076000008 .086 .08800001 .101 .1 .11400001 C .124000009 .141 .16100002 .16600001 .20600002 .16600001 C .26500003 .16600001 .321 .126 .344 .069000009 Z "/>
</symbol>
<symbol id="font_3_2">
<path d="M .23400001 1.1750001 C .23400001 1.2220001 .21200001 1.2390001 .16800002 1.2390001 C .12100001 1.2390001 .075 1.2150002 .048 1.1760001 C .012 1.1240001 0 1.0580001 0 .97800007 C 0 .88600006 .017 .795 .025 .70600005 C .029000001 .67300006 .034 .64500007 .034 .61 C .034 .568 .028 .526 .027 .485 C .026 .43400003 .022000002 .382 .018000002 .331 C .013 .261 .012 .19200002 .007 .12200001 C .004 .082 0 .042 0 .002 C .023000002 .002 .046000005 .001 .069000009 .001 C .112 .001 .148 0 .17500001 .026 C .20300001 .054 .20400001 .098000008 .20600002 .135 C .208 .18 .21400002 .22500001 .21800001 .27 C .21900001 .279 .25300003 .658 .252 .648 C .254 .662 .256 .67700007 .256 .69100007 L .256 .698 C .25 .78400006 .216 .864 .20500002 .94900009 C .20300001 .96300008 .202 .97700008 .202 .99100008 C .202 1.0600001 .23400001 1.1060001 .23400001 1.1750001 M .052 .171 C .052 .20600002 .056 .24200002 .059000005 .277 C .064 .35 .072000008 .424 .07700001 .497 C .080000009 .536 .086 .572 .086 .61300006 C .086 .64100006 .083000008 .66800007 .079 .695 C .068 .772 .049000004 .85 .049000004 .92800006 C .049000004 .938 .049000004 .948 .05 .958 C .052 .98700007 .053000004 1.0260002 .069000009 1.0510001 C .08400001 1.0410001 .095000009 1.024 .106000009 1.0100001 C .165 .935 .192 .836 .192 .71400007 C .192 .634 .18100001 .554 .17 .476 C .163 .42200003 .16000001 .36900003 .155 .315 C .15400002 .308 .15400002 .301 .15400002 .294 C .15400002 .28 .155 .266 .155 .252 C .15400002 .19700001 .15 .06600001 .091000009 .06600001 C .057000005 .06600001 .052 .12900001 .052 .171 Z "/>
</symbol>
<symbol id="font_3_3">
<path d="M .62100008 .499 C .67200008 .499 .72300007 .48900003 .758 .44500003 C .78700008 .41000004 .80100008 .365 .81000009 .321 C .832 .22000002 .83800008 .108 .887 .030000002 C .89400008 .020000002 .90200009 .007 .91200008 0 C .93600007 .057000005 .943 .11800001 .943 .178 C .943 .20300001 .94200006 .22700002 .94000008 .25100003 C .93000009 .39800004 .88900008 .54700008 .83100005 .683 C .80200007 .75200006 .767 .82100006 .71800008 .87700006 C .634 .97300007 .51500007 1.0220001 .41400004 1.097 C .34600003 1.146 .264 1.223 .17400001 1.223 C .16000001 1.223 .14600002 1.2210001 .132 1.217 C .089 1.2030001 .057000005 1.1780001 .029000001 1.1500001 C .014 1.1350001 0 1.116 0 1.0940001 C 0 1.0610001 .026 1.0380001 .048 1.0200001 C .086 .98800006 .132 .96400007 .165 .92600008 C .19600001 .89000007 .21400002 .84400007 .23 .8 C .252 .73800006 .27 .67300006 .30200003 .615 C .324 .574 .358 .527 .402 .507 C .43500004 .49300004 .47200004 .49400003 .513 .49400003 C .55 .49400003 .58500006 .499 .62100008 .499 M .505 .693 C .505 .73200008 .521 .771 .53300008 .808 C .50600007 .78700008 .47400005 .75900009 .462 .72400006 C .45700003 .71000006 .45600004 .69600006 .45600004 .68200007 C .45600004 .65000006 .46400003 .61700007 .46400003 .58500006 L .36800004 .625 L .23700002 .93100008 L .19000001 1.0400001 C .18400002 1.0550001 .179 1.07 .171 1.0830001 C .149 1.09 .126 1.095 .10300001 1.1010001 C .10300001 1.1060001 .101 1.115 .101 1.123 C .101 1.1450001 .12200001 1.144 .133 1.1470001 C .15900001 1.1570001 .18800001 1.167 .215 1.167 C .27100004 1.167 .29700003 1.1290001 .33200003 1.0960001 C .36200003 1.0680001 .395 1.044 .42900003 1.0200001 C .53000006 .9480001 .63600006 .87700006 .71800008 .78300008 C .81200006 .674 .86 .52400007 .86 .38000003 C .85300007 .386 .84900006 .395 .845 .402 C .79600009 .48100005 .76400008 .61 .65500006 .619 C .67200008 .60200008 .689 .58500006 .70500007 .56700006 C .684 .559 .66300007 .55300006 .64100006 .55300006 C .57100006 .55300006 .505 .615 .505 .693 Z "/>
</symbol>
<symbol id="font_3_4">
<path d="M .33800004 .739 C .32500003 .74100008 .312 .74600008 .29900003 .749 C .261 .75900009 .22200002 .767 .18300002 .77400007 C .179 .77500006 .17300001 .776 .17 .77900007 C .16600001 .78200009 .165 .78900006 .163 .79300007 C .14400001 .84900006 .132 .91 .11400001 .96800008 C .109000008 .9850001 .105000007 1.0020001 .098000008 1.019 C .094000007 1.0270001 .087000008 1.0350001 .085 1.0430001 C .08400001 1.051 .085 1.059 .08400001 1.067 C .080000009 1.1060001 .076000008 1.166 .025 1.166 C .022000002 1.149 .022000002 1.1320001 .021000002 1.115 C .020000002 1.0990001 .018000002 1.082 .018000002 1.0660001 C .018000002 1.033 .025 .9850001 .060000004 .9850001 C .065000008 .91700008 .072000008 .846 .09200001 .781 C .10300001 .74500009 .120000008 .712 .15400002 .693 C .19600001 .67 .245 .67800006 .29000003 .66700008 C .28100003 .65800008 .263 .643 .263 .628 C .263 .62 .272 .61700007 .27800004 .61700007 C .29700003 .61700007 .312 .642 .32900004 .647 L .33100004 .647 C .335 .647 .342 .64400008 .34600003 .642 C .37600003 .628 .39000003 .59300008 .39900003 .563 C .41200004 .51900008 .41400004 .47200004 .41400004 .42600004 C .41400004 .39800004 .41300003 .37 .41300003 .34300003 C .38900004 .35000003 .36600004 .36900003 .34800003 .386 C .30400003 .42700003 .26200003 .48700003 .201 .504 C .192 .507 .18200001 .508 .172 .508 C .125 .508 .11000001 .476 .11000001 .43300004 C .11000001 .342 .143 .272 .143 .179 C .143 .15200001 .13800001 .124000009 .120000008 .10300001 C .09 .067 .042000005 .05 0 .033 C .016 .028 .031000002 .019000002 .047000003 .011000001 C .057000005 .0050000005 .065000008 0 .079 0 C .093 0 .108 .003 .12100001 .004 C .156 .006 .192 .008 .22700002 .012 C .32500003 .021000002 .425 .025 .523 .029000001 L .52900007 .029000001 C .54800006 .029000001 .56700006 .025 .586 .022000002 C .63100007 .016 .67600008 .006 .721 .003 L .72400006 .003 C .74600008 .003 .77000007 .012 .791 .015000001 C .78700008 .023000002 .77900007 .031000002 .77300009 .037 C .75600007 .054 .73700007 .067 .71500006 .076000008 C .698 .082 .679 .086 .665 .09900001 C .65300008 .11000001 .647 .127 .64400008 .142 C .637 .17500001 .63600006 .209 .63600006 .24300002 L .63600006 .29900003 L .63600006 .37300004 C .63600006 .41000004 .63600006 .44700004 .64000007 .48400004 C .64400008 .528 .648 .58100005 .675 .61800006 C .72 .68 .827 .64400008 .89100006 .694 C .92300006 .72 .93100008 .76400008 .93600007 .80200007 C .94400009 .85 .94500008 .89900007 .95800009 .94600006 C .97300007 1.003 .998 1.057 .998 1.1170001 C .947 1.097 .88500007 1.077 .88500007 1.0020001 C .88500007 .9760001 .88900008 .95100006 .88900008 .924 C .88900008 .80600008 .845 .73200008 .72300007 .73200008 C .694 .73200008 .666 .73600009 .637 .73800006 C .637 .76100006 .638 .78400006 .638 .80700007 C .638 .82400009 .637 .841 .63600006 .85800006 C .634 .88600006 .632 .91600009 .619 .94100007 C .60700008 .96500006 .588 .98300006 .56600007 .998 C .55 1.008 .53900006 1.014 .52000007 1.016 L .52000007 1.1240001 C .52000007 1.1340001 .51900008 1.144 .51900008 1.154 C .51900008 1.176 .52000007 1.192 .541 1.192 L .551 1.192 C .563 1.192 .569 1.197 .569 1.205 C .569 1.2210001 .545 1.225 .531 1.225 C .49400003 1.225 .48800005 1.197 .48800005 1.1630001 C .48800005 1.125 .44300003 1.131 .44300003 1.1010001 C .44300003 1.087 .45700003 1.077 .46600003 1.0680001 C .47900004 1.0550001 .48800005 1.039 .48800005 1.0200001 C .48000003 1.0200001 .469 1.023 .46 1.023 C .42700003 1.023 .397 .9850001 .38500003 .957 C .38000003 .9480001 .379 .934 .374 .92600008 C .36900003 .92 .363 .91600009 .35900004 .91 C .349 .897 .342 .882 .337 .86600008 C .335 .86 .33200003 .85200008 .33200003 .845 C .333 .84000006 .33900003 .83800008 .342 .83500006 C .34800003 .82900008 .35500003 .82000008 .35500003 .81000009 C .35500003 .80600008 .354 .80200007 .354 .79700008 C .354 .786 .358 .777 .358 .767 C .358 .75600007 .34800003 .739 .33800004 .739 M .60700008 .71400007 C .60700008 .69900009 .59000006 .698 .582 .694 C .56100007 .683 .53900006 .66700008 .51600006 .66 C .51600006 .70400008 .52900007 .75200006 .52900007 .79800006 C .52900007 .887 .47300003 .91400006 .42700003 .95400008 C .425 .95600005 .42100004 .95800009 .42100004 .961 C .42200003 .96900007 .43800003 .98 .44500003 .984 C .45800004 .99200007 .47200004 .99600008 .48600004 .99600008 C .508 .99600008 .53000006 .98700007 .54800006 .97300007 C .59900006 .933 .611 .87000009 .611 .809 C .611 .776 .60700008 .74600008 .60700008 .71400007 M .37500004 .786 L .37500004 .79200008 C .372 .813 .37800003 .845 .351 .851 C .351 .8880001 .388 .90400007 .39900003 .93500009 C .41300003 .93200007 .42700003 .92100009 .437 .9110001 C .46300004 .88500007 .47700004 .84800007 .47700004 .81100007 C .47700004 .80500009 .47700004 .8 .476 .794 C .45200003 .78800007 .43100003 .76600006 .40600003 .76600006 C .39400003 .76600006 .37500004 .768 .37500004 .786 M .38700003 .88100007 C .39400003 .878 .402 .87700006 .411 .87700006 C .42000003 .87700006 .43100003 .878 .44000004 .88000008 C .43400003 .887 .42000003 .89400008 .407 .89400008 C .39800004 .89400008 .39000003 .89000007 .38700003 .88100007 M .441 .754 L .45100004 .73200008 C .42900003 .73 .407 .72900006 .38500003 .72700008 C .397 .744 .42200003 .75000008 .441 .754 M .48200003 .721 L .48200003 .601 L .637 .68600007 C .633 .588 .624 .48400004 .57100006 .39900003 C .54700008 .36 .507 .319 .46100004 .30800004 L .46100004 .52900007 C .44400005 .587 .42900003 .646 .41300003 .70400008 L .48200003 .721 M .192 .46100004 C .21000001 .46100004 .23 .44700004 .24100001 .439 C .275 .41400004 .30400003 .38300003 .33200003 .35200004 C .34600003 .33600004 .36200003 .321 .374 .303 L .21300002 .2 C .202 .22500001 .19500001 .252 .187 .27800004 C .17300001 .324 .162 .36100004 .162 .41500003 C .162 .439 .17 .46100004 .192 .46100004 M .22100002 .05 C .216 .05 .209 .053000004 .20400001 .055000005 C .18800001 .059000005 .171 .061000006 .156 .067 C .16800002 .079 .18800001 .087000008 .202 .096 L .3 .15400002 L .49 .268 C .521 .287 .55200007 .31 .58500006 .32500003 C .595 .30200003 .6 .27100004 .6 .246 C .6 .223 .59900006 .201 .591 .179 C .56100007 .08800001 .45200003 .058000003 .36400003 .058000003 C .34 .058000003 .32000003 .059000005 .298 .063 C .29000003 .065000008 .28100003 .068 .272 .068 C .25300003 .068 .24100001 .05 .22100002 .05 Z "/>
</symbol>
<use xlink:href="#font_3_1" transform="matrix(33.20889,0,0,-33.20889,436.99858,221.8609)"/>
<use xlink:href="#font_3_2" transform="matrix(33.20889,0,0,-33.20889,618.6658,221.8941)"/>
<use xlink:href="#font_3_3" transform="matrix(33.20889,0,0,-33.20889,802.3329,221.8609)"/>
<use xlink:href="#font_3_4" transform="matrix(33.20889,0,0,-33.20889,1016.33297,221.8609)"/>
<symbol id="font_1_21">
<path d="M .19700001 .64100006 C .19700001 .66400006 .19700001 .665 .177 .665 C .15300001 .638 .103 .601 0 .601 L 0 .572 C .023000002 .572 .073 .572 .128 .59800007 L .128 .07700001 C .128 .041 .125 .029000001 .037 .029000001 L .0059999974 .029000001 L .0059999974 0 C .033 .002 .13000001 .002 .163 .002 C .196 .002 .292 .002 .319 0 L .319 .029000001 L .288 .029000001 C .2 .029000001 .19700001 .041 .19700001 .07700001 L .19700001 .64100006 Z "/>
</symbol>
<symbol id="font_1_20">
<path d="M .407 .34100003 C .407 .42400003 .402 .50500008 .366 .58100005 C .32500003 .66400006 .253 .68600007 .204 .68600007 C .146 .68600007 .075 .65700009 .038000004 .57400009 C .010000002 .51100006 0 .44900004 0 .34100003 C 0 .244 .0069999995 .171 .043000007 .10000001 C .082 .024000003 .151 0 .20300001 0 C .29000003 0 .34 .052 .36900003 .11 C .405 .185 .407 .28300003 .407 .34100003 M .20300001 .020000002 C .171 .020000002 .106 .038000004 .087000008 .147 C .076000008 .207 .076000008 .28300003 .076000008 .35300002 C .076000008 .43500004 .076000008 .50900009 .092 .5680001 C .109000008 .63500007 .16 .66600009 .20300001 .66600009 C .241 .66600009 .299 .64300009 .31800003 .55700007 C .331 .50000008 .331 .421 .331 .35300002 C .331 .286 .331 .21000001 .32000003 .149 C .301 .039000006 .238 .020000002 .20300001 .020000002 Z "/>
</symbol>
<use xlink:href="#font_1_21" transform="matrix(33.20889,0,0,-33.20889,27.020607,257.86146)"/>
<use xlink:href="#font_1_21" transform="matrix(33.20889,0,0,-33.20889,133.35446,257.86146)"/>
<use xlink:href="#font_1_20" transform="matrix(33.20889,0,0,-33.20889,148.0274,258.55885)"/>
<use xlink:href="#font_1_21" transform="matrix(33.20889,0,0,-33.20889,266.68806,257.86146)"/>
<use xlink:href="#font_1_20" transform="matrix(33.20889,0,0,-33.20889,281.361,258.55885)"/>
<use xlink:href="#font_1_20" transform="matrix(33.20889,0,0,-33.20889,297.69438,258.55885)"/>
<use xlink:href="#font_1_21" transform="matrix(33.20889,0,0,-33.20889,414.35554,257.86146)"/>
<symbol id="font_4_1">
<path d="M .020000004 0 L .036 0 L .062000008 .18600002 C .063999999 .19900003 .066 .215 .066 .22600004 C .066 .24500004 .056999998 .25900004 .036 .25900004 C .016999998 .25900004 0 .24900005 0 .22999999 C 0 .21700004 .001000002 .20500002 .0019999967 .19299999 L .020000004 0 Z "/>
</symbol>
<use xlink:href="#font_4_1" transform="matrix(33.20889,0,0,-33.20889,429.9235,243.38237)"/>
<use xlink:href="#font_1_20" transform="matrix(33.20889,0,0,-33.20889,436.0266,258.55885)"/>
<use xlink:href="#font_1_20" transform="matrix(33.20889,0,0,-33.20889,452.36,258.55885)"/>
<use xlink:href="#font_1_20" transform="matrix(33.20889,0,0,-33.20889,468.69334,258.55885)"/>
<use xlink:href="#font_1_21" transform="matrix(33.20889,0,0,-33.20889,585.02047,257.86146)"/>
<use xlink:href="#font_1_20" transform="matrix(33.20889,0,0,-33.20889,599.6934,258.55885)"/>
<use xlink:href="#font_4_1" transform="matrix(33.20889,0,0,-33.20889,616.9232,243.38237)"/>
<use xlink:href="#font_1_20" transform="matrix(33.20889,0,0,-33.20889,623.02639,258.55885)"/>
<use xlink:href="#font_1_20" transform="matrix(33.20889,0,0,-33.20889,639.3598,258.55885)"/>
<use xlink:href="#font_1_20" transform="matrix(33.20889,0,0,-33.20889,655.69326,258.55885)"/>
<use xlink:href="#font_1_21" transform="matrix(33.20889,0,0,-33.20889,772.0204,257.86146)"/>
<use xlink:href="#font_1_20" transform="matrix(33.20889,0,0,-33.20889,786.69338,258.55885)"/>
<use xlink:href="#font_1_20" transform="matrix(33.20889,0,0,-33.20889,803.0268,258.55885)"/>
<use xlink:href="#font_4_1" transform="matrix(33.20889,0,0,-33.20889,820.2555,243.38237)"/>
<use xlink:href="#font_1_20" transform="matrix(33.20889,0,0,-33.20889,826.35867,258.55885)"/>
<use xlink:href="#font_1_20" transform="matrix(33.20889,0,0,-33.20889,842.6921,258.55885)"/>
<use xlink:href="#font_1_20" transform="matrix(33.20889,0,0,-33.20889,859.0255,258.55885)"/>
<use xlink:href="#font_1_21" transform="matrix(33.20889,0,0,-33.20889,975.35269,257.86146)"/>
<use xlink:href="#font_4_1" transform="matrix(33.20889,0,0,-33.20889,990.92166,243.38237)"/>
<use xlink:href="#font_1_20" transform="matrix(33.20889,0,0,-33.20889,997.02487,258.55885)"/>
<use xlink:href="#font_1_20" transform="matrix(33.20889,0,0,-33.20889,1013.3583,258.55885)"/>
<use xlink:href="#font_1_20" transform="matrix(33.20889,0,0,-33.20889,1029.6917,258.55885)"/>
<use xlink:href="#font_4_1" transform="matrix(33.20889,0,0,-33.20889,1046.9209,243.38237)"/>
<use xlink:href="#font_1_20" transform="matrix(33.20889,0,0,-33.20889,1052.6909,258.55885)"/>
<use xlink:href="#font_1_20" transform="matrix(33.20889,0,0,-33.20889,1069.0243,258.55885)"/>
<use xlink:href="#font_1_20" transform="matrix(33.20889,0,0,-33.20889,1085.3578,258.55885)"/>
<symbol id="font_1_a">
<path d="M .272 .44 L .272 .411 C .34 .411 .34800003 .404 .34800003 .35500003 L .34800003 .17600002 C .34800003 .091 .303 .020000002 .22800002 .020000002 C .146 .020000002 .141 .067 .141 .120000008 L .141 .451 L 0 .44 L 0 .411 C .076000008 .411 .076000008 .40800003 .076000008 .319 L .076000008 .16900002 C .076000008 .107 .076000008 .071 .106000009 .038000004 C .13 .012000001 .171 0 .222 0 C .23900002 0 .271 0 .305 .029000003 C .33400003 .052000006 .35000003 .09 .35000003 .09 L .35000003 0 L .48900003 .010000001 L .48900003 .039 C .421 .039 .41300003 .046000005 .41300003 .095 L .41300003 .451 L .272 .44 Z "/>
</symbol>
<use xlink:href="#font_1_a" transform="matrix(33.20889,0,0,-33.20889,3.3955844,352.19328)"/>
<use xlink:href="#font_1_1" transform="matrix(33.20889,0,0,-33.20889,21.395634,351.86119)"/>
<use xlink:href="#font_1_12" transform="matrix(33.20889,0,0,-33.20889,39.49531,352.19328)"/>
<use xlink:href="#font_1_c" transform="matrix(33.20889,0,0,-33.20889,69.59752,352.19328)"/>
<use xlink:href="#font_1_17" transform="matrix(33.20889,0,0,-33.20889,93.42905,351.86119)"/>
<use xlink:href="#font_1_13" transform="matrix(33.20889,0,0,-33.20889,102.32903,352.19328)"/>
<use xlink:href="#font_1_12" transform="matrix(33.20889,0,0,-33.20889,116.828449,352.19328)"/>
<use xlink:href="#font_1_13" transform="matrix(33.20889,0,0,-33.20889,134.66245,352.19328)"/>
<use xlink:href="#font_1_7" transform="matrix(33.20889,0,0,-33.20889,148.9294,351.86119)"/>
<use xlink:href="#font_1_16" transform="matrix(33.20889,0,0,-33.20889,161.72893,351.86119)"/>
<use xlink:href="#font_1_3" transform="matrix(33.20889,0,0,-33.20889,179.66257,352.19328)"/>
<use xlink:href="#font_1_19" transform="matrix(33.20889,0,0,-33.20889,196.09555,351.86119)"/>
<use xlink:href="#font_1_9" transform="matrix(33.20889,0,0,-33.20889,204.59705,352.19328)"/>
<use xlink:href="#font_1_13" transform="matrix(33.20889,0,0,-33.20889,217.66226,352.19328)"/>
<use xlink:href="#font_1_1" transform="matrix(33.20889,0,0,-33.20889,232.06204,351.86119)"/>
<use xlink:href="#font_1_12" transform="matrix(33.20889,0,0,-33.20889,263.162,352.19328)"/>
<use xlink:href="#font_1_17" transform="matrix(33.20889,0,0,-33.20889,281.0956,351.86119)"/>
<use xlink:href="#font_1_13" transform="matrix(33.20889,0,0,-33.20889,289.9956,352.19328)"/>
<use xlink:href="#font_1_8" transform="matrix(33.20889,0,0,-33.20889,304.4286,352.19328)"/>
<use xlink:href="#font_1_13" transform="matrix(33.20889,0,0,-33.20889,316.9957,352.19328)"/>
<use xlink:href="#font_1_18" transform="matrix(33.20889,0,0,-33.20889,345.1263,352.55857)"/>
<use xlink:href="#font_1_f" transform="matrix(33.20889,0,0,-33.20889,361.93086,358.6358)"/>
<use xlink:href="#font_1_1a" transform="matrix(33.20889,0,0,-33.20889,379.3958,351.86119)"/>
<use xlink:href="#font_1_e" transform="matrix(33.20889,0,0,-33.20889,405.2635,352.19328)"/>
<use xlink:href="#font_1_3" transform="matrix(33.20889,0,0,-33.20889,424.32954,352.19328)"/>
<use xlink:href="#font_1_19" transform="matrix(33.20889,0,0,-33.20889,440.76255,351.86119)"/>
<use xlink:href="#font_1_8" transform="matrix(33.20889,0,0,-33.20889,462.76219,352.19328)"/>
<use xlink:href="#font_1_3" transform="matrix(33.20889,0,0,-33.20889,475.32923,352.19328)"/>
<use xlink:href="#font_1_3" transform="matrix(33.20889,0,0,-33.20889,503.99623,352.19328)"/>
<use xlink:href="#font_1_14" transform="matrix(33.20889,0,0,-33.20889,520.3628,351.86119)"/>
<use xlink:href="#font_1_9" transform="matrix(33.20889,0,0,-33.20889,529.9311,352.19328)"/>
<use xlink:href="#font_1_c" transform="matrix(33.20889,0,0,-33.20889,554.93136,352.19328)"/>
<use xlink:href="#font_1_17" transform="matrix(33.20889,0,0,-33.20889,578.7629,351.86119)"/>
<use xlink:href="#font_1_13" transform="matrix(33.20889,0,0,-33.20889,587.66287,352.19328)"/>
<use xlink:href="#font_1_1" transform="matrix(33.20889,0,0,-33.20889,614.72988,351.86119)"/>
<symbol id="font_2_2">
<path d="M .201 .455 C .094000007 .44500003 0 .35200004 0 .22500001 C 0 .11100001 .08400001 0 .216 0 C .336 0 .43 .106000009 .43 .22300002 C .43 .335 .347 .45600004 .21400002 .45600004 C .21000001 .45600004 .20500002 .455 .201 .455 M .07700001 .202 C .076000008 .21000001 .076000008 .21800001 .076000008 .22600001 C .076000008 .29500003 .083000008 .386 .16000001 .42200003 C .17700002 .43000005 .19600001 .43400003 .21400002 .43400003 C .252 .43400003 .289 .41700004 .314 .38700003 C .349 .34600003 .35300002 .29000003 .35300002 .23800002 C .35300002 .18200001 .352 .11800001 .314 .071 C .289 .040000004 .252 .022 .21400002 .022 C .13100001 .022 .08800001 .09700001 .080000009 .171 C .07800001 .18100001 .07800001 .19200002 .07700001 .202 M .113000009 .66 C .08800001 .656 .072000008 .63600006 .072000008 .61300006 C .072000008 .59000006 .08900001 .564 .118 .564 C .14500001 .564 .16900002 .58400008 .16900002 .61200007 C .16900002 .63500007 .15100001 .661 .12200001 .661 C .119 .661 .11600001 .66 .113000009 .66 M .303 .66 C .28 .657 .261 .637 .261 .61300006 C .261 .59000006 .279 .564 .308 .564 C .336 .564 .358 .58500006 .358 .61200007 C .358 .63600006 .34 .661 .311 .661 C .308 .661 .306 .66 .303 .66 Z "/>
</symbol>
<use xlink:href="#font_2_2" transform="matrix(33.20889,0,0,-33.20889,632.6321,352.16007)"/>
<symbol id="font_1_d">
<path d="M .342 .277 C .342 .331 .342 .37100003 .298 .41 C .263 .442 .21800003 .456 .17400001 .456 C .09200001 .456 .029000003 .402 .029000003 .337 C .029000003 .308 .048000006 .294 .070999998 .294 C .09500001 .294 .112 .31100003 .112 .335 C .112 .37600003 .076000008 .37600003 .061 .37600003 C .08400001 .418 .13200002 .43600003 .172 .43600003 C .21800003 .43600003 .277 .398 .277 .308 L .277 .268 C .076000008 .26500003 0 .18100001 0 .104 C 0 .025000003 .09200001 0 .15300001 0 C .21900001 0 .26400004 .040000004 .28300003 .088 C .28700004 .041 .31800003 .0050000005 .36100004 .0050000005 C .38200004 .0050000005 .44000004 .019000002 .44000004 .099 L .44000004 .15500002 L .418 .15500002 L .418 .099 C .418 .042000005 .39400003 .034 .38000003 .034 C .342 .034 .342 .087000008 .342 .102000009 L .342 .277 M .277 .15100001 C .277 .053000004 .20400001 .020000002 .16100002 .020000002 C .112 .020000002 .070999998 .056000007 .070999998 .104 C .070999998 .23600002 .24100003 .24800001 .277 .25 L .277 .15100001 Z "/>
</symbol>
<symbol id="font_1_1f">
<path d="M .09700001 .049000004 C .09700001 .076000008 .07400001 .097 .049000004 .097 C .020000004 .097 0 .074 0 .049000004 C 0 .019000002 .024999999 0 .048 0 C .074999999 0 .09700001 .021000002 .09700001 .049000004 Z "/>
</symbol>
<symbol id="font_1_2">
<path d="M 0 .683 L 0 .65400007 L .02 .65400007 C .09200001 .65400007 .09500001 .64400008 .09500001 .60700008 L .09500001 .076000008 C .09500001 .039 .09200001 .029000001 .02 .029000001 L 0 .029000001 L 0 0 L .37600003 0 C .50500008 0 .595 .087000008 .595 .18300002 C .595 .264 .522 .344 .403 .35700003 C .498 .37500004 .56700006 .439 .56700006 .514 C .56700006 .6 .48 .683 .349 .683 L 0 .683 M .17100002 .365 L .17100002 .614 C .17100002 .647 .17300001 .65400007 .21700002 .65400007 L .343 .65400007 C .44300003 .65400007 .479 .568 .479 .514 C .479 .448 .42700003 .365 .316 .365 L .17100002 .365 M .21700002 .029000001 C .17300001 .029000001 .17100002 .036000004 .17100002 .069000009 L .17100002 .34500004 L .358 .34500004 C .454 .34500004 .50400009 .261 .50400009 .18400002 C .50400009 .10300001 .44300003 .029000001 .345 .029000001 L .21700002 .029000001 Z "/>
</symbol>
<symbol id="font_1_1b">
<path d="M .33400003 .651 C .33400003 .67 .33400003 .675 .32 .675 C .312 .675 .30900003 .675 .301 .66300007 L 0 .19600001 L 0 .16700001 L .263 .16700001 L .263 .076000008 C .263 .039 .261 .029000001 .18800001 .029000001 L .16800002 .029000001 L .16800002 0 C .19100002 .002 .27 .002 .298 .002 C .326 .002 .40600003 .002 .42900003 0 L .42900003 .029000001 L .409 .029000001 C .337 .029000001 .33400003 .039 .33400003 .076000008 L .33400003 .16700001 L .435 .16700001 L .435 .19600001 L .33400003 .19600001 L .33400003 .651 M .268 .573 L .268 .19600001 L .025 .19600001 L .268 .573 Z "/>
</symbol>
<use xlink:href="#font_1_9" transform="matrix(33.20889,0,0,-33.20889,648.60037,352.19328)"/>
<use xlink:href="#font_1_17" transform="matrix(33.20889,0,0,-33.20889,661.7652,351.86119)"/>
<use xlink:href="#font_1_15" transform="matrix(33.20889,0,0,-33.20889,670.56558,358.669)"/>
<use xlink:href="#font_1_a" transform="matrix(33.20889,0,0,-33.20889,699.39816,352.19328)"/>
<use xlink:href="#font_1_1a" transform="matrix(33.20889,0,0,-33.20889,717.3982,351.86119)"/>
<use xlink:href="#font_1_5" transform="matrix(33.20889,0,0,-33.20889,757.7961,351.86119)"/>
<use xlink:href="#font_1_d" transform="matrix(33.20889,0,0,-33.20889,777.464,352.19328)"/>
<use xlink:href="#font_1_16" transform="matrix(33.20889,0,0,-33.20889,793.3989,351.86119)"/>
<use xlink:href="#font_1_19" transform="matrix(33.20889,0,0,-33.20889,811.4321,351.86119)"/>
<use xlink:href="#font_1_13" transform="matrix(33.20889,0,0,-33.20889,820.33218,352.19328)"/>
<use xlink:href="#font_1_1" transform="matrix(33.20889,0,0,-33.20889,834.73196,351.86119)"/>
<use xlink:href="#font_1_11" transform="matrix(33.20889,0,0,-33.20889,865.23269,351.86119)"/>
<use xlink:href="#font_1_a" transform="matrix(33.20889,0,0,-33.20889,879.7321,352.19328)"/>
<use xlink:href="#font_1_8" transform="matrix(33.20889,0,0,-33.20889,910.4321,352.19328)"/>
<use xlink:href="#font_1_10" transform="matrix(33.20889,0,0,-33.20889,923.1653,352.19328)"/>
<use xlink:href="#font_1_16" transform="matrix(33.20889,0,0,-33.20889,936.3995,351.86119)"/>
<use xlink:href="#font_1_7" transform="matrix(33.20889,0,0,-33.20889,954.26669,351.86119)"/>
<use xlink:href="#font_1_13" transform="matrix(33.20889,0,0,-33.20889,966.99978,352.19328)"/>
<use xlink:href="#font_1_17" transform="matrix(33.20889,0,0,-33.20889,981.4328,351.86119)"/>
<use xlink:href="#font_1_e" transform="matrix(33.20889,0,0,-33.20889,990.2664,352.19328)"/>
<use xlink:href="#font_1_13" transform="matrix(33.20889,0,0,-33.20889,1009.3331,352.19328)"/>
<use xlink:href="#font_1_1" transform="matrix(33.20889,0,0,-33.20889,1023.733,351.86119)"/>
<use xlink:href="#font_1_1f" transform="matrix(33.20889,0,0,-33.20889,1043.5595,351.86119)"/>
<use xlink:href="#font_1_18" transform="matrix(33.20889,0,0,-33.20889,1071.4636,352.55857)"/>
<use xlink:href="#font_1_3" transform="matrix(33.20889,0,0,-33.20889,1088.6665,352.19328)"/>
<use xlink:href="#font_1_8" transform="matrix(33.20889,0,0,-33.20889,3.4290469,388.19383)"/>
<use xlink:href="#font_1_10" transform="matrix(33.20889,0,0,-33.20889,16.162165,388.19383)"/>
<use xlink:href="#font_1_16" transform="matrix(33.20889,0,0,-33.20889,29.396344,387.86174)"/>
<use xlink:href="#font_1_7" transform="matrix(33.20889,0,0,-33.20889,47.26355,387.86174)"/>
<use xlink:href="#font_1_17" transform="matrix(33.20889,0,0,-33.20889,60.0963,387.86174)"/>
<use xlink:href="#font_1_13" transform="matrix(33.20889,0,0,-33.20889,68.996288,388.19383)"/>
<use xlink:href="#font_1_e" transform="matrix(33.20889,0,0,-33.20889,83.26324,388.19383)"/>
<use xlink:href="#font_1_13" transform="matrix(33.20889,0,0,-33.20889,102.32993,388.19383)"/>
<use xlink:href="#font_1_1" transform="matrix(33.20889,0,0,-33.20889,116.72973,387.86174)"/>
<use xlink:href="#font_1_8" transform="matrix(33.20889,0,0,-33.20889,146.42923,388.19383)"/>
<use xlink:href="#font_1_17" transform="matrix(33.20889,0,0,-33.20889,159.09593,387.86174)"/>
<use xlink:href="#font_1_13" transform="matrix(33.20889,0,0,-33.20889,167.99591,388.19383)"/>
<use xlink:href="#font_1_11" transform="matrix(33.20889,0,0,-33.20889,193.22945,387.86174)"/>
<use xlink:href="#font_1_a" transform="matrix(33.20889,0,0,-33.20889,207.72885,388.19383)"/>
<use xlink:href="#font_1_1a" transform="matrix(33.20889,0,0,-33.20889,225.72891,387.86174)"/>
<use xlink:href="#font_1_2" transform="matrix(33.20889,0,0,-33.20889,264.42723,387.86174)"/>
<use xlink:href="#font_1_13" transform="matrix(33.20889,0,0,-33.20889,286.9956,388.19383)"/>
<use xlink:href="#font_1_17" transform="matrix(33.20889,0,0,-33.20889,301.4286,387.86174)"/>
<use xlink:href="#font_1_8" transform="matrix(33.20889,0,0,-33.20889,310.4282,388.19383)"/>
<use xlink:href="#font_1_4" transform="matrix(33.20889,0,0,-33.20889,322.92887,394.30427)"/>
<use xlink:href="#font_1_17" transform="matrix(33.20889,0,0,-33.20889,341.09498,387.86174)"/>
<use xlink:href="#font_1_13" transform="matrix(33.20889,0,0,-33.20889,349.99497,388.19383)"/>
<use xlink:href="#font_1_19" transform="matrix(33.20889,0,0,-33.20889,364.42796,387.86174)"/>
<use xlink:href="#font_1_12" transform="matrix(33.20889,0,0,-33.20889,384.82688,388.19383)"/>
<use xlink:href="#font_1_17" transform="matrix(33.20889,0,0,-33.20889,402.76054,387.86174)"/>
<use xlink:href="#font_1_13" transform="matrix(33.20889,0,0,-33.20889,411.6605,388.19383)"/>
<use xlink:href="#font_1_5" transform="matrix(33.20889,0,0,-33.20889,437.79048,387.86174)"/>
<use xlink:href="#font_1_d" transform="matrix(33.20889,0,0,-33.20889,457.45848,388.19383)"/>
<use xlink:href="#font_1_16" transform="matrix(33.20889,0,0,-33.20889,473.3933,387.86174)"/>
<use xlink:href="#font_1_19" transform="matrix(33.20889,0,0,-33.20889,491.42658,387.86174)"/>
<use xlink:href="#font_1_1b" transform="matrix(33.20889,0,0,-33.20889,510.8932,387.86174)"/>
<use xlink:href="#font_4_1" transform="matrix(33.20889,0,0,-33.20889,528.58859,373.38267)"/>
<symbol id="font_1_1c">
<path d="M .082 .36900003 C .082 .62200006 .20500002 .66200008 .259 .66200008 C .29500003 .66200008 .331 .6510001 .35000003 .62100008 C .338 .62100008 .3 .62100008 .3 .58000007 C .3 .558 .315 .53900006 .34100003 .53900006 C .366 .53900006 .38300003 .5540001 .38300003 .58300009 C .38300003 .63500007 .345 .68600007 .25800003 .68600007 C .132 .68600007 0 .55700007 0 .337 C 0 .062000004 .12000001 0 .20500002 0 C .314 0 .407 .095 .407 .22500001 C .407 .358 .314 .44700004 .21400002 .44700004 C .125 .44700004 .092 .37 .082 .342 L .082 .36900003 M .20500002 .027000003 C .14200002 .027000003 .11200001 .083000008 .10300001 .104 C .094000007 .13000001 .084 .179 .084 .24900002 C .084 .328 .12000001 .42700003 .21000001 .42700003 C .26500003 .42700003 .294 .39000003 .30900003 .356 C .32500003 .319 .32500003 .26900003 .32500003 .22600001 C .32500003 .17500001 .32500003 .13000001 .306 .09200001 C .28100003 .044000005 .245 .027000003 .20500002 .027000003 Z "/>
</symbol>
<symbol id="font_1_22">
<path d="M .39100004 .16800002 L .36900003 .16800002 C .36600004 .15100001 .358 .096 .34800003 .080000009 C .34100003 .071 .284 .071 .254 .071 L .069000009 .071 C .09600001 .094000007 .157 .158 .183 .18200001 C .335 .32200004 .39100004 .374 .39100004 .47300003 C .39100004 .588 .3 .665 .18400002 .665 C .068 .665 0 .56600007 0 .48000003 C 0 .42900003 .044 .42900003 .047 .42900003 C .068 .42900003 .094000007 .44400005 .094000007 .476 C .094000007 .504 .075 .523 .047 .523 C .038000004 .523 .036 .523 .033 .522 C .052 .59000006 .106 .63600006 .171 .63600006 C .256 .63600006 .30800004 .565 .30800004 .47300003 C .30800004 .388 .25900004 .314 .20200002 .25 L 0 .024 L 0 0 L .36500005 0 L .39100004 .16800002 Z "/>
</symbol>
<use xlink:href="#font_1_1c" transform="matrix(33.20889,0,0,-33.20889,534.6917,388.5591)"/>
<use xlink:href="#font_1_22" transform="matrix(33.20889,0,0,-33.20889,551.2908,387.86174)"/>
<use xlink:href="#font_1_22" transform="matrix(33.20889,0,0,-33.20889,567.62417,387.86174)"/>
<use xlink:href="#font_1_d" transform="matrix(33.20889,0,0,-33.20889,594.4584,388.19383)"/>
<use xlink:href="#font_1_19" transform="matrix(33.20889,0,0,-33.20889,610.4265,387.86174)"/>
<use xlink:href="#font_1_8" transform="matrix(33.20889,0,0,-33.20889,619.4261,388.19383)"/>
<use xlink:href="#font_1_1d" transform="matrix(33.20889,0,0,-33.20889,633.88607,387.86174)"/>
<use xlink:href="#font_3_1" transform="matrix(33.20889,0,0,-33.20889,514.3327,463.52784)"/>
<use xlink:href="#font_3_1" transform="matrix(33.20889,0,0,-33.20889,534.66616,463.52784)"/>
<use xlink:href="#font_3_1" transform="matrix(33.20889,0,0,-33.20889,554.9995,463.52784)"/>
<use xlink:href="#font_3_1" transform="matrix(33.20889,0,0,-33.20889,575.3328,463.52784)"/>
<use xlink:href="#font_3_7" transform="matrix(59.77555,0,0,-59.77555,514.3327,518.92068)"/>
<use xlink:href="#font_3_7" transform="matrix(59.77555,0,0,-59.77555,545.33309,518.92068)"/>
<use xlink:href="#font_3_7" transform="matrix(59.77555,0,0,-59.77555,575.9997,518.92068)"/>
<use xlink:href="#font_3_7" transform="matrix(59.77555,0,0,-59.77555,514.3327,568.5876)"/>
<use xlink:href="#font_3_7" transform="matrix(59.77555,0,0,-59.77555,545.33309,568.5876)"/>
<use xlink:href="#font_3_7" transform="matrix(59.77555,0,0,-59.77555,575.9997,568.5876)"/>
<use xlink:href="#font_3_5" transform="matrix(59.77555,0,0,-59.77555,514.3327,604.5284)"/>
<use xlink:href="#font_3_5" transform="matrix(59.77555,0,0,-59.77555,523.3323,604.5284)"/>
<use xlink:href="#font_3_6" transform="matrix(59.77555,0,0,-59.77555,532.33187,604.5284)"/>
<use xlink:href="#font_3_6" transform="matrix(59.77555,0,0,-59.77555,569.3317,604.5284)"/>
<use xlink:href="#font_1_6" transform="matrix(33.20889,0,0,-33.20889,3.727503,659.86148)"/>
<use xlink:href="#font_1_d" transform="matrix(33.20889,0,0,-33.20889,28.793992,660.19357)"/>
<use xlink:href="#font_1_1a" transform="matrix(33.20889,0,0,-33.20889,44.72886,659.86148)"/>
<use xlink:href="#font_1_17" transform="matrix(33.20889,0,0,-33.20889,71.762149,659.86148)"/>
<use xlink:href="#font_1_9" transform="matrix(33.20889,0,0,-33.20889,80.26362,660.19357)"/>
<use xlink:href="#font_1_19" transform="matrix(33.20889,0,0,-33.20889,104.09472,659.86148)"/>
<use xlink:href="#font_1_d" transform="matrix(33.20889,0,0,-33.20889,113.459629,660.19357)"/>
<use xlink:href="#font_1_8" transform="matrix(33.20889,0,0,-33.20889,129.42769,660.19357)"/>
<use xlink:href="#font_1_8" transform="matrix(33.20889,0,0,-33.20889,142.09439,660.19357)"/>
<use xlink:href="#font_1_13" transform="matrix(33.20889,0,0,-33.20889,154.66146,660.19357)"/>
<use xlink:href="#font_1_1" transform="matrix(33.20889,0,0,-33.20889,169.06125,659.86148)"/>
<use xlink:href="#font_1_8" transform="matrix(33.20889,0,0,-33.20889,198.4283,660.19357)"/>
<use xlink:href="#font_1_17" transform="matrix(33.20889,0,0,-33.20889,211.09499,659.86148)"/>
<use xlink:href="#font_1_10" transform="matrix(33.20889,0,0,-33.20889,220.16101,660.19357)"/>
<use xlink:href="#font_1_16" transform="matrix(33.20889,0,0,-33.20889,233.39476,659.86148)"/>
<use xlink:href="#font_1_b" transform="matrix(33.20889,0,0,-33.20889,262.26368,660.19357)"/>
<use xlink:href="#font_1_17" transform="matrix(33.20889,0,0,-33.20889,279.76188,659.86148)"/>
<use xlink:href="#font_1_13" transform="matrix(33.20889,0,0,-33.20889,288.66188,660.19357)"/>
<use xlink:href="#font_1_19" transform="matrix(33.20889,0,0,-33.20889,303.09486,659.86148)"/>
<use xlink:href="#font_1_13" transform="matrix(33.20889,0,0,-33.20889,311.99485,660.19357)"/>
<use xlink:href="#font_1_5" transform="matrix(33.20889,0,0,-33.20889,338.45863,659.86148)"/>
<use xlink:href="#font_1_d" transform="matrix(33.20889,0,0,-33.20889,358.1266,660.19357)"/>
<use xlink:href="#font_1_16" transform="matrix(33.20889,0,0,-33.20889,374.06144,659.86148)"/>
<use xlink:href="#font_1_19" transform="matrix(33.20889,0,0,-33.20889,392.09474,659.86148)"/>
<use xlink:href="#font_1_13" transform="matrix(33.20889,0,0,-33.20889,400.9947,660.19357)"/>
<use xlink:href="#font_1_1" transform="matrix(33.20889,0,0,-33.20889,415.39448,659.86148)"/>
<use xlink:href="#font_2_3" transform="matrix(33.20889,0,0,-33.20889,444.3954,660.19357)"/>
<use xlink:href="#font_1_e" transform="matrix(33.20889,0,0,-33.20889,462.2628,660.19357)"/>
<use xlink:href="#font_1_13" transform="matrix(33.20889,0,0,-33.20889,481.32884,660.19357)"/>
<use xlink:href="#font_1_7" transform="matrix(33.20889,0,0,-33.20889,495.59577,659.86148)"/>
<use xlink:href="#font_1_8" transform="matrix(33.20889,0,0,-33.20889,508.42848,660.19357)"/>
<use xlink:href="#font_1_17" transform="matrix(33.20889,0,0,-33.20889,521.09518,659.86148)"/>
<use xlink:href="#font_1_10" transform="matrix(33.20889,0,0,-33.20889,530.1612,660.19357)"/>
<use xlink:href="#font_1_16" transform="matrix(33.20889,0,0,-33.20889,543.3947,659.86148)"/>
<use xlink:href="#font_1_9" transform="matrix(33.20889,0,0,-33.20889,559.9296,660.19357)"/>
<use xlink:href="#font_1_19" transform="matrix(33.20889,0,0,-33.20889,573.0945,659.86148)"/>
<use xlink:href="#font_1_17" transform="matrix(33.20889,0,0,-33.20889,582.0941,659.86148)"/>
<use xlink:href="#font_1_10" transform="matrix(33.20889,0,0,-33.20889,591.1601,660.19357)"/>
<use xlink:href="#font_1_16" transform="matrix(33.20889,0,0,-33.20889,604.3935,659.86148)"/>
<use xlink:href="#font_1_12" transform="matrix(33.20889,0,0,-33.20889,634.1601,660.19357)"/>
<use xlink:href="#font_1_d" transform="matrix(33.20889,0,0,-33.20889,652.45907,660.19357)"/>
<use xlink:href="#font_1_7" transform="matrix(33.20889,0,0,-33.20889,668.26119,659.86148)"/>
<use xlink:href="#font_1_8" transform="matrix(33.20889,0,0,-33.20889,681.0938,660.19357)"/>
<use xlink:href="#font_1_9" transform="matrix(33.20889,0,0,-33.20889,693.26248,660.19357)"/>
<use xlink:href="#font_1_13" transform="matrix(33.20889,0,0,-33.20889,706.3275,660.19357)"/>
<use xlink:href="#font_1_19" transform="matrix(33.20889,0,0,-33.20889,720.7606,659.86148)"/>
<use xlink:href="#font_1_19" transform="matrix(33.20889,0,0,-33.20889,729.76028,659.86148)"/>
<use xlink:href="#font_1_13" transform="matrix(33.20889,0,0,-33.20889,738.6603,660.19357)"/>
<use xlink:href="#font_1_1" transform="matrix(33.20889,0,0,-33.20889,753.06008,659.86148)"/>
<use xlink:href="#font_1_1f" transform="matrix(33.20889,0,0,-33.20889,772.88656,659.86148)"/>
</g>
</svg>
