<?xml version="1.0" encoding="UTF-8" standalone="no"?>
<!DOCTYPE svg PUBLIC "-//W3C//DTD SVG 1.1//EN" "http://www.w3.org/Graphics/SVG/1.1/DTD/svg11.dtd">
<svg xmlns="http://www.w3.org/2000/svg" xmlns:xlink="http://www.w3.org/1999/xlink" version="1.1" width="249.05556pt" height="29.055556pt" viewBox="0 0 249.05556 29.055556">
<g enable-background="new">
<clipPath id="cp0">
<path transform="matrix(.27777777,0,0,-.27777777,0,29.055556)" d="M 445.512 9.59766 L 847.332 9.59766 L 853.543 10.4297 L 861.258 12.8242 L 868.238 16.6133 L 874.32 21.6328 L 879.34 27.7148 L 883.129 34.6992 L 885.523 42.4102 L 886.359 48.6211 L 886.359 50.6953 L 886.359 52.7656 L 885.523 58.9766 L 883.129 66.6875 L 879.34 73.668 L 874.32 79.75 L 868.238 84.7695 L 861.258 88.5586 L 853.543 90.9531 L 847.332 91.7891 L 845.262 91.7891 L 45.7617 91.7891 L 43.6875 91.7891 L 37.4766 90.9531 L 29.7656 88.5586 L 22.7813 84.7695 L 16.6992 79.75 L 11.6797 73.668 L 7.89063 66.6875 L 5.49609 58.9766 L 4.66406 52.7656 L 4.66406 50.6953 L 4.66406 48.6211 L 5.49609 42.4102 L 7.89063 34.6992 L 11.6797 27.7148 L 16.6992 21.6328 L 22.7813 16.6133 L 29.7656 12.8242 L 37.4766 10.4297 L 43.6875 9.59766 L 45.7617 9.59766 L 445.512 9.59766 Z "/>
</clipPath>
<g clip-path="url(#cp0)">
<path transform="matrix(.27777777,0,0,-.27777777,0,29.055556)" d="M 4.66406 9.59766 L 886.3591 9.59766 L 886.3591 91.78906 L 4.66406 91.78906 Z " fill="#999999"/>
</g>
<clipPath id="cp1">
<path transform="matrix(.27777777,0,0,-.27777777,0,29.055556)" d="M 83.1211 50.6953 L 83.1211 50.6953 L 83.1211 52.5742 L 82.3594 58.2227 L 80.1836 65.2344 L 76.7383 71.582 L 72.1758 77.1094 L 66.6484 81.6719 L 60.3008 85.1172 L 53.2891 87.293 L 47.6406 88.0547 L 45.7617 88.0547 L 43.8789 88.0547 L 38.2305 87.293 L 31.2188 85.1172 L 24.8711 81.6719 L 19.3398 77.1094 L 14.7773 71.582 L 11.332 65.2344 L 9.15625 58.2227 L 8.39844 52.5742 L 8.39844 50.6953 L 8.39844 48.8125 L 9.15625 43.1641 L 11.332 36.1523 L 14.7773 29.8047 L 19.3398 24.2773 L 24.8711 19.7148 L 31.2188 16.2695 L 38.2305 14.0938 L 43.8789 13.3359 L 45.7617 13.3359 L 47.6406 13.3359 L 53.2891 14.0938 L 60.3008 16.2695 L 66.6484 19.7148 L 72.1758 24.2773 L 76.7383 29.8047 L 80.1836 36.1523 L 82.3594 43.1641 L 83.1211 48.8125 L 83.1211 50.6953 Z "/>
</clipPath>
<g clip-path="url(#cp1)">
<path transform="matrix(.27777777,0,0,-.27777777,0,29.055556)" d="M 8.39844 13.3359 L 83.12114 13.3359 L 83.12114 88.0547 L 8.39844 88.0547 Z " fill="#0771ca"/>
</g>
<path transform="matrix(.27777777,0,0,-.27777777,0,29.055556)" stroke-width="7.47198" stroke-linecap="butt" stroke-miterlimit="10" stroke-linejoin="miter" fill="none" stroke="#ffffff" d="M 45.7617 61.9023 L 45.7617 28.2773 "/>
<clipPath id="cp2">
<path transform="matrix(.27777777,0,0,-.27777777,0,29.055556)" d="M 51.3633 73.1094 L 51.3633 73.1094 L 51.3633 73.6523 L 50.9219 75.2891 L 49.7227 77.0703 L 47.9414 78.2734 L 46.3047 78.7148 L 45.7617 78.7148 L 45.2148 78.7148 L 43.5781 78.2734 L 41.7969 77.0703 L 40.5938 75.2891 L 40.1563 73.6523 L 40.1563 73.1094 L 40.1563 72.5625 L 40.5938 70.9258 L 41.7969 69.1484 L 43.5781 67.9453 L 45.2148 67.5078 L 45.7617 67.5078 L 46.3047 67.5078 L 47.9414 67.9453 L 49.7227 69.1484 L 50.9219 70.9258 L 51.3633 72.5625 L 51.3633 73.1094 Z "/>
</clipPath>
<g clip-path="url(#cp2)">
<path transform="matrix(.27777777,0,0,-.27777777,0,29.055556)" d="M 40.1563 67.5078 L 51.3633 67.5078 L 51.3633 78.7148 L 40.1563 78.7148 Z " fill="#ffffff"/>
</g>
<path transform="matrix(.27777777,0,0,-.27777777,0,29.055556)" stroke-width="4.48319" stroke-linecap="butt" stroke-miterlimit="10" stroke-linejoin="miter" fill="none" stroke="#ffffff" d="M 36.793 59.6602 L 45.7617 59.6602 "/>
<path transform="matrix(.27777777,0,0,-.27777777,0,29.055556)" stroke-width="4.48319" stroke-linecap="butt" stroke-miterlimit="10" stroke-linejoin="miter" fill="none" stroke="#ffffff" d="M 36.793 30.5195 L 54.7266 30.5195 "/>
<symbol id="font_3_7">
<path d="M .58000007 .605 C .58000007 .64100006 .582 .652 .65900006 .652 L .683 .652 L .683 .683 C .64800009 .68 .57400009 .68 .536 .68 C .49800004 .68 .42300005 .68 .38800005 .683 L .38800005 .652 L .41200004 .652 C .48900003 .652 .49100007 .64100006 .49100007 .605 L .49100007 .37100003 L .192 .37100003 L .192 .605 C .192 .64100006 .194 .652 .27100004 .652 L .29500003 .652 L .29500003 .683 C .26000003 .68 .18600002 .68 .148 .68 C .11000001 .68 .035000005 .68 0 .683 L 0 .652 L .024000004 .652 C .101 .652 .10300001 .64100006 .10300001 .605 L .10300001 .078 C .10300001 .042000005 .101 .031000002 .024000004 .031000002 L 0 .031000002 L 0 0 C .035000005 .003 .109000008 .003 .14700002 .003 C .185 .003 .26000003 .003 .29500003 0 L .29500003 .031000002 L .27100004 .031000002 C .194 .031000002 .192 .042000005 .192 .078 L .192 .34 L .49100007 .34 L .49100007 .078 C .49100007 .042000005 .48900003 .031000002 .41200004 .031000002 L .38800005 .031000002 L .38800005 0 C .42300005 .003 .49700005 .003 .535 .003 C .573 .003 .64800009 .003 .683 0 L .683 .031000002 L .65900006 .031000002 C .582 .031000002 .58000007 .042000005 .58000007 .078 L .58000007 .605 Z "/>
</symbol>
<symbol id="font_3_d">
<path d="M .144 .44200004 L .0040000008 .43100003 L .0040000008 .4 C .069000009 .4 .07800001 .39400003 .07800001 .34500004 L .07800001 .076000008 C .07800001 .031000002 .067 .031000002 0 .031000002 L 0 0 C .032000007 .001 .086 .003 .11000001 .003 C .14500001 .003 .18 .001 .21400002 0 L .21400002 .031000002 C .148 .031000002 .144 .036000004 .144 .075 L .144 .44200004 M .148 .61600008 C .148 .648 .123 .669 .095000009 .669 C .064 .669 .042000005 .642 .042000005 .61600008 C .042000005 .58900007 .064 .563 .095000009 .563 C .123 .563 .148 .58400008 .148 .61600008 Z "/>
</symbol>
<symbol id="font_3_a">
<path d="M .08400001 .263 C .09 .41200004 .17400001 .43700005 .20800002 .43700005 C .31100003 .43700005 .321 .30200003 .321 .263 L .08400001 .263 M .083000008 .24200002 L .36200003 .24200002 C .38400004 .24200002 .38700003 .24200002 .38700003 .263 C .38700003 .36200003 .33300004 .45900003 .20800002 .45900003 C .09200001 .45900003 0 .35600005 0 .23100002 C 0 .097 .105000007 0 .22000002 0 C .342 0 .38700003 .111 .38700003 .13000001 C .38700003 .14000002 .379 .14200002 .374 .14200002 C .365 .14200002 .36300005 .136 .36100004 .128 C .326 .025000003 .236 .025000003 .22600001 .025000003 C .17600002 .025000003 .136 .055000005 .113000009 .092 C .083000008 .14000002 .083000008 .20600002 .083000008 .24200002 Z "/>
</symbol>
<symbol id="font_3_5">
<path d="M .13900002 .33200003 L .13900002 .44200004 L 0 .43100003 L 0 .4 C .07000001 .4 .07800001 .393 .07800001 .344 L .07800001 .076000008 C .07800001 .031000002 .067 .031000002 0 .031000002 L 0 0 C .039 .001 .08600001 .003 .11400001 .003 C .15400002 .003 .20100002 .003 .24100003 0 L .24100003 .031000002 L .22000002 .031000002 C .14600002 .031000002 .14400001 .042000005 .14400001 .078 L .14400001 .23200001 C .14400001 .33100004 .18600002 .42000003 .26200003 .42000003 C .26900003 .42000003 .27100004 .42000003 .27300004 .41900004 C .27 .418 .25000004 .40600003 .25000004 .38000003 C .25000004 .35200004 .27100004 .337 .293 .337 C .31100003 .337 .33600004 .349 .33600004 .381 C .33600004 .41300003 .305 .44200004 .26200003 .44200004 C .18900001 .44200004 .15300001 .37500004 .13900002 .33200003 Z "/>
</symbol>
<symbol id="font_3_3">
<path d="M .44300003 .22500003 C .44300003 .35300002 .34300003 .45900003 .222 .45900003 C .097 .45900003 0 .35000003 0 .22500003 C 0 .096 .104 0 .22100002 0 C .342 0 .44300003 .098000008 .44300003 .22500003 M .222 .025000003 C .17900002 .025000003 .135 .046 .10800001 .092 C .083000008 .136 .083000008 .19700001 .083000008 .23300003 C .083000008 .272 .083000008 .32600004 .10700001 .37000004 C .134 .41600005 .18100001 .43700005 .22100002 .43700005 C .26500003 .43700005 .30800004 .41500003 .33400003 .37200005 C .36 .32900004 .36 .27100004 .36 .23300003 C .36 .19700001 .36 .143 .33800004 .09900001 C .316 .054 .272 .025000003 .222 .025000003 Z "/>
</symbol>
<symbol id="font_3_b">
<path d="M .19400002 .37800003 C .10700001 .37800003 .10700001 .47800005 .10700001 .50100007 C .10700001 .52800008 .10800001 .56 .12300001 .58500006 C .13100001 .59700009 .15400002 .62500008 .19400002 .62500008 C .28100003 .62500008 .28100003 .52500006 .28100003 .50200006 C .28100003 .47500003 .28000004 .44300003 .26500003 .41800005 C .25700004 .40600003 .23400003 .37800003 .19400002 .37800003 M .07800001 .33900003 C .07800001 .34300003 .07800001 .36600004 .095 .38600005 C .134 .35800005 .17500001 .35500003 .19400002 .35500003 C .28700004 .35500003 .356 .42400003 .356 .50100007 C .356 .53800007 .34000004 .57500007 .31500004 .59800007 C .351 .632 .38700003 .637 .40500004 .637 C .40700004 .637 .41200004 .637 .41500003 .63600006 C .404 .632 .39900003 .62100008 .39900003 .609 C .39900003 .592 .41200004 .58000007 .42800004 .58000007 C .43800003 .58000007 .45700003 .587 .45700003 .61 C .45700003 .62700006 .44500003 .65900006 .40600003 .65900006 C .38600005 .65900006 .342 .65300008 .3 .61200007 C .25800003 .64500007 .21600002 .64800009 .19400002 .64800009 C .10100001 .64800009 .032 .57900008 .032 .50200006 C .032 .458 .054 .42000003 .07900001 .39900003 C .066 .384 .048000006 .351 .048000006 .316 C .048000006 .28500004 .061 .24700001 .09200001 .22700002 C .032 .21000001 0 .16700001 0 .127 C 0 .055000009 .09900001 0 .22100002 0 C .33900003 0 .44300003 .051000015 .44300003 .12900001 C .44300003 .164 .42900003 .21500002 .37800003 .24300002 C .32500003 .27100004 .26700003 .27100004 .20600002 .27100004 C .18100001 .27100004 .13800001 .27100004 .13100001 .272 C .09900001 .27600003 .07800001 .307 .07800001 .33900003 M .222 .023000002 C .12100001 .023000002 .052000006 .074000019 .052000006 .127 C .052000006 .17300001 .09 .21000001 .134 .21300002 L .19300002 .21300002 C .279 .21300002 .39100004 .21300002 .39100004 .127 C .39100004 .073000017 .32000003 .023000002 .222 .023000002 Z "/>
</symbol>
<symbol id="font_3_e">
<path d="M .144 .694 L 0 .683 L 0 .652 C .07000001 .652 .07800001 .64500007 .07800001 .596 L .07800001 .076000008 C .07800001 .031000002 .067 .031000002 0 .031000002 L 0 0 C .033 .001 .086 .003 .11100001 .003 C .136 .003 .185 .001 .22200004 0 L .22200004 .031000002 C .155 .031000002 .144 .031000002 .144 .076000008 L .144 .694 Z "/>
</symbol>
<symbol id="font_3_8">
<path d="M .39600004 .541 C .42200003 .60400006 .47300003 .605 .48900003 .605 L .48900003 .63600006 C .46600003 .63400009 .43700005 .633 .41400004 .633 C .39600004 .633 .34900005 .635 .32700003 .63600006 L .32700003 .605 C .358 .60400006 .374 .587 .374 .56200006 C .374 .55200007 .37300004 .5500001 .36800004 .538 L .26700003 .29200004 L .15600002 .561 C .15200001 .57100006 .15 .57500007 .15 .579 C .15 .605 .187 .605 .206 .605 L .206 .63600006 C .18 .635 .114 .633 .097 .633 C .07 .633 .030000002 .63400009 0 .63600006 L 0 .605 C .048 .605 .067 .605 .081 .57000008 L .231 .20500002 C .22600001 .19200002 .21200001 .15900001 .206 .14600002 C .18400002 .091000009 .15600002 .022 .09200001 .022 C .087000008 .022 .064 .022 .045 .040000008 C .076000008 .044 .08400001 .066 .08400001 .08200001 C .08400001 .10800001 .065000008 .12400001 .042000005 .12400001 C .022 .12400001 0 .11100001 0 .08100001 C 0 .036 .042000005 0 .09200001 0 C .155 0 .19600001 .05700001 .22 .11400001 L .39600004 .541 Z "/>
</symbol>
<symbol id="font_3_4">
<path d="M .14400001 .57000008 L .14400001 .63600006 L 0 .625 L 0 .594 C .07100001 .594 .07800001 .58800008 .07800001 .544 L .07800001 .076 C .07800001 .031000004 .067 .031000004 0 .031000004 L 0 0 C .034 .001000002 .08600001 .0029999912 .112 .0029999912 C .13900002 .0029999912 .19000001 .001000002 .22500003 0 L .22500003 .031000004 C .158 .031000004 .14700002 .031000004 .14700002 .076 L .14700002 .244 L .14700002 .25300003 C .15200001 .237 .19400002 .183 .27 .183 C .38900004 .183 .49300004 .28100003 .49300004 .41000004 C .49300004 .53700008 .39600004 .63600006 .284 .63600006 C .20600002 .63600006 .164 .592 .14400001 .57000008 M .14700002 .30800004 L .14700002 .531 C .17600002 .582 .22500003 .61100009 .27600003 .61100009 C .349 .61100009 .41000004 .523 .41000004 .41000004 C .41000004 .289 .34000004 .20500002 .266 .20500002 C .22600001 .20500002 .18800001 .22500001 .16100002 .266 C .14700002 .287 .14700002 .28800003 .14700002 .30800004 Z "/>
</symbol>
<symbol id="font_3_c">
<path d="M .07800001 .076000008 C .07800001 .031000002 .067 .031000002 0 .031000002 L 0 0 C .035 .001 .08600001 .003 .113000009 .003 C .139 .003 .191 .001 .225 0 L .225 .031000002 C .158 .031000002 .147 .031000002 .147 .076000008 L .147 .26000003 C .147 .36400003 .218 .42000003 .282 .42000003 C .345 .42000003 .356 .36600004 .356 .30900003 L .356 .076000008 C .356 .031000002 .345 .031000002 .278 .031000002 L .278 0 C .31300003 .001 .36400003 .003 .391 .003 C .41700004 .003 .46900005 .001 .503 0 L .503 .031000002 C .451 .031000002 .42600004 .031000002 .425 .061000006 L .425 .252 C .425 .33800004 .425 .36900003 .39400003 .40500004 C .38000003 .42200003 .347 .44200004 .289 .44200004 C .20500002 .44200004 .161 .38200004 .14400001 .344 L .14400001 .694 L 0 .683 L 0 .652 C .07000001 .652 .07800001 .64500007 .07800001 .596 L .07800001 .076000008 Z "/>
</symbol>
<symbol id="font_3_2">
<path d="M .07800001 .344 L .07800001 .076000008 C .07800001 .031000002 .067 .031000002 0 .031000002 L 0 0 C .035 .001 .08600001 .003 .113000009 .003 C .139 .003 .191 .001 .225 0 L .225 .031000002 C .158 .031000002 .147 .031000002 .147 .076000008 L .147 .26000003 C .147 .36400003 .218 .42000003 .282 .42000003 C .345 .42000003 .356 .36600004 .356 .30900003 L .356 .076000008 C .356 .031000002 .345 .031000002 .278 .031000002 L .278 0 C .31300003 .001 .36400003 .003 .391 .003 C .41700004 .003 .46900005 .001 .503 0 L .503 .031000002 C .451 .031000002 .42600004 .031000002 .425 .061000006 L .425 .252 C .425 .33800004 .425 .36900003 .39400003 .40500004 C .38000003 .42200003 .347 .44200004 .289 .44200004 C .216 .44200004 .169 .39900003 .141 .337 L .141 .44200004 L 0 .43100003 L 0 .4 C .07000001 .4 .07800001 .393 .07800001 .344 Z "/>
</symbol>
<symbol id="font_3_9">
<path d="M .34600003 .06600001 L .34600003 0 L .493 .011000001 L .493 .042000005 C .423 .042000005 .41500003 .049000004 .41500003 .098000008 L .41500003 .705 L .271 .694 L .271 .663 C .34100003 .663 .349 .656 .349 .607 L .349 .39100004 C .32 .42700003 .277 .45300005 .22299999 .45300005 C .10500001 .45300005 0 .35500003 0 .22600001 C 0 .09900001 .098 0 .21200001 0 C .276 0 .321 .034 .34600003 .06600001 M .34600003 .33400003 L .34600003 .12900001 C .34600003 .111 .34600003 .109000008 .335 .092 C .305 .044 .26 .022000002 .21700001 .022000002 C .17200002 .022000002 .136 .048 .11200001 .086 C .086 .127 .083000008 .18400002 .083000008 .22500003 C .083000008 .26200003 .085 .32200004 .114 .367 C .13500002 .39800004 .17300001 .43100003 .227 .43100003 C .262 .43100003 .30400003 .41600005 .335 .37100003 C .34600003 .35400004 .34600003 .35200004 .34600003 .33400003 Z "/>
</symbol>
<symbol id="font_3_f">
<path d="M .1 .050000013 C .1 .074 .080000009 .100000027 .050000006 .100000027 C .021999993 .100000027 0 .07800001 0 .050000013 C 0 .022000015 .021999993 0 .050000006 0 C .080000009 0 .1 .026000023 .1 .050000013 M .293 .050000013 C .293 .07800001 .271 .100000027 .243 .100000027 C .213 .100000027 .19299999 .074 .19299999 .050000013 C .19299999 .026000023 .213 0 .243 0 C .271 0 .293 .022000015 .293 .050000013 Z "/>
</symbol>
<symbol id="font_3_1">
<path d="M .36600004 .69600006 C .361 .70900008 .35900004 .716 .34300003 .716 C .32700003 .716 .324 .71000006 .319 .69600006 L .112 .098000008 C .094 .047000003 .054 .032 0 .031000002 L 0 0 C .023000002 .001 .066 .003 .102 .003 C .133 .003 .185 .001 .21700001 0 L .21700001 .031000002 C .16700001 .031000002 .142 .056 .142 .082 C .142 .085 .143 .095000009 .14400001 .097 L .19000001 .22800002 L .437 .22800002 L .49 .075 C .491 .071 .49300004 .065000008 .49300004 .061000006 C .49300004 .031000002 .437 .031000002 .41000004 .031000002 L .41000004 0 C .446 .003 .51600006 .003 .554 .003 C .597 .003 .643 .002 .685 0 L .685 .031000002 L .66700008 .031000002 C .60700008 .031000002 .593 .038000004 .582 .071 L .36600004 .69600006 M .31300003 .58400008 L .42600004 .259 L .201 .259 L .31300003 .58400008 Z "/>
</symbol>
<symbol id="font_3_6">
<path d="M .15400002 .411 L .29700003 .411 L .29700003 .44200004 L .15400002 .44200004 L .15400002 .626 L .12900001 .626 C .12799999 .544 .098000008 .43700005 0 .43300004 L 0 .411 L .085 .411 L .085 .135 C .085 .012000001 .178 0 .21400002 0 C .28500004 0 .31300003 .071 .31300003 .135 L .31300003 .19200002 L .28800003 .19200002 L .28800003 .13700001 C .28800003 .063 .25800003 .025000003 .22100002 .025000003 C .15400002 .025000003 .15400002 .116000007 .15400002 .13300002 L .15400002 .411 Z "/>
</symbol>
<use xlink:href="#font_3_7" transform="matrix(18.679972,0,0,-18.679972,27.949328,22.221779)"/>
<use xlink:href="#font_3_d" transform="matrix(18.679972,0,0,-18.679972,41.94933,22.221779)"/>
<use xlink:href="#font_3_a" transform="matrix(18.679972,0,0,-18.679972,47.189264,22.42726)"/>
<use xlink:href="#font_3_5" transform="matrix(18.679972,0,0,-18.679972,55.522603,22.221779)"/>
<use xlink:href="#font_3_3" transform="matrix(18.679972,0,0,-18.679972,62.855939,22.42726)"/>
<use xlink:href="#font_3_b" transform="matrix(18.679972,0,0,-18.679972,72.18927,26.069853)"/>
<use xlink:href="#font_3_e" transform="matrix(18.679972,0,0,-18.679972,81.616008,22.221779)"/>
<use xlink:href="#font_3_8" transform="matrix(18.679972,0,0,-18.679972,86.68781,26.051175)"/>
<use xlink:href="#font_3_4" transform="matrix(18.679972,0,0,-18.679972,96.85595,25.845694)"/>
<use xlink:href="#font_3_c" transform="matrix(18.679972,0,0,-18.679972,107.264,22.221779)"/>
<use xlink:href="#font_3_a" transform="matrix(18.679972,0,0,-18.679972,117.522609,22.42726)"/>
<use xlink:href="#font_3_2" transform="matrix(18.679972,0,0,-18.679972,125.93066,22.221779)"/>
<use xlink:href="#font_3_9" transform="matrix(18.679972,0,0,-18.679972,142.3018,22.42726)"/>
<use xlink:href="#font_3_a" transform="matrix(18.679972,0,0,-18.679972,152.52306,22.42726)"/>
<use xlink:href="#font_3_5" transform="matrix(18.679972,0,0,-18.679972,160.8564,22.221779)"/>
<use xlink:href="#font_3_f" transform="matrix(18.679972,0,0,-18.679972,177.92443,6.9270689)"/>
<use xlink:href="#font_3_1" transform="matrix(18.679972,0,0,-18.679972,174.26418,22.221777)"/>
<use xlink:href="#font_3_b" transform="matrix(18.679972,0,0,-18.679972,188.18944,26.06985)"/>
<use xlink:href="#font_3_8" transform="matrix(18.679972,0,0,-18.679972,197.35466,26.05117)"/>
<use xlink:href="#font_3_4" transform="matrix(18.679972,0,0,-18.679972,207.52277,25.845692)"/>
<use xlink:href="#font_3_6" transform="matrix(18.679972,0,0,-18.679972,217.68799,22.427258)"/>
<use xlink:href="#font_3_a" transform="matrix(18.679972,0,0,-18.679972,225.18944,22.427258)"/>
<use xlink:href="#font_3_5" transform="matrix(18.679972,0,0,-18.679972,233.5228,22.221777)"/>
</g>
</svg>
