<?xml version="1.0" encoding="UTF-8" standalone="no"?>
<!DOCTYPE svg PUBLIC "-//W3C//DTD SVG 1.1//EN" "http://www.w3.org/Graphics/SVG/1.1/DTD/svg11.dtd">
<svg xmlns="http://www.w3.org/2000/svg" xmlns:xlink="http://www.w3.org/1999/xlink" version="1.1" width="69.19444pt" height="18.944445pt" viewBox="0 0 69.19444 18.944445">
<g enable-background="new">
<clipPath id="cp0">
<path transform="matrix(.27777777,0,0,-.27777777,0,18.944445)" d="M 125.461 6.61719 L 218.996 6.61719 L 223.137 7.17188 L 228.277 8.76953 L 232.93 11.2969 L 236.984 14.6406 L 240.332 18.6953 L 242.855 23.3516 L 244.453 28.4922 L 245.012 32.6328 L 245.012 34.0156 L 245.012 35.3945 L 244.453 39.5352 L 242.855 44.6758 L 240.328 49.332 L 236.984 53.3867 L 232.93 56.7305 L 228.273 59.2578 L 223.133 60.8555 L 218.992 61.4141 L 217.613 61.4141 L 33.3047 61.4141 L 31.9219 61.4141 L 27.7813 60.8555 L 22.6406 59.2578 L 17.9883 56.7305 L 13.9336 53.3867 L 10.5859 49.332 L 8.0625 44.6758 L 6.46484 39.5352 L 5.91016 35.3945 L 5.91016 34.0156 L 5.91016 32.6328 L 6.46484 28.4922 L 8.0625 23.3516 L 10.5898 18.6953 L 13.9336 14.6406 L 17.9883 11.2969 L 22.6445 8.76953 L 27.7852 7.17188 L 31.9258 6.61719 L 33.3086 6.61719 L 125.461 6.61719 Z "/>
</clipPath>
<g clip-path="url(#cp0)">
<path transform="matrix(.27777777,0,0,-.27777777,0,18.944445)" d="M 5.91016 6.61719 L 245.01216 6.61719 L 245.01216 61.414094 L 5.91016 61.414094 Z " fill="#ffffff"/>
</g>
<clipPath id="cp1">
<path transform="matrix(.27777777,0,0,-.27777777,0,18.944445)" d="M 58.2148 34.0156 L 58.2148 34.0156 L 58.2148 35.2695 L 57.707 39.0313 L 56.2539 43.707 L 53.957 47.9375 L 50.9141 51.625 L 47.2305 54.6641 L 42.9961 56.9609 L 38.3203 58.4141 L 34.5586 58.9219 L 33.3047 58.9219 L 32.0469 58.9219 L 28.2852 58.4141 L 23.6094 56.9609 L 19.3789 54.6641 L 15.6914 51.625 L 12.6523 47.9375 L 10.3555 43.707 L 8.90234 39.0313 L 8.39844 35.2695 L 8.39844 34.0156 L 8.39844 32.7578 L 8.90234 28.9961 L 10.3555 24.3203 L 12.6523 20.0898 L 15.6914 16.4023 L 19.3789 13.3633 L 23.6094 11.0664 L 28.2852 9.61328 L 32.0469 9.10938 L 33.3047 9.10938 L 34.5586 9.10938 L 38.3203 9.61328 L 42.9961 11.0664 L 47.2305 13.3633 L 50.9141 16.4023 L 53.957 20.0898 L 56.2539 24.3203 L 57.707 28.9961 L 58.2148 32.7578 L 58.2148 34.0156 Z "/>
</clipPath>
<g clip-path="url(#cp1)">
<path transform="matrix(.27777777,0,0,-.27777777,0,18.944445)" d="M 8.39844 9.10938 L 58.21484 9.10938 L 58.21484 58.92188 L 8.39844 58.92188 Z " fill="#0771ca"/>
</g>
<path transform="matrix(.27777777,0,0,-.27777777,0,18.944445)" stroke-width="4.98132" stroke-linecap="butt" stroke-miterlimit="10" stroke-linejoin="miter" fill="none" stroke="#ffffff" d="M 33.3047 41.4883 L 33.3047 19.0703 "/>
<clipPath id="cp2">
<path transform="matrix(.27777777,0,0,-.27777777,0,18.944445)" d="M 37.043 48.9609 L 37.043 48.9609 L 37.043 49.3242 L 36.7461 50.4141 L 35.9453 51.6016 L 34.7578 52.3984 L 33.668 52.6953 L 33.3047 52.6953 L 32.9375 52.6953 L 31.8477 52.3984 L 30.6641 51.6016 L 29.8633 50.4141 L 29.5703 49.3242 L 29.5703 48.9609 L 29.5703 48.5938 L 29.8633 47.5039 L 30.6641 46.3164 L 31.8477 45.5156 L 32.9375 45.2227 L 33.3047 45.2227 L 33.668 45.2227 L 34.7578 45.5156 L 35.9453 46.3164 L 36.7461 47.5039 L 37.043 48.5938 L 37.043 48.9609 Z "/>
</clipPath>
<g clip-path="url(#cp2)">
<path transform="matrix(.27777777,0,0,-.27777777,0,18.944445)" d="M 29.5703 45.2227 L 37.04296 45.2227 L 37.04296 52.69536 L 29.5703 52.69536 Z " fill="#ffffff"/>
</g>
<path transform="matrix(.27777777,0,0,-.27777777,0,18.944445)" stroke-width="2.98879" stroke-linecap="butt" stroke-miterlimit="10" stroke-linejoin="miter" fill="none" stroke="#ffffff" d="M 27.3281 39.9922 L 33.3047 39.9922 "/>
<path transform="matrix(.27777777,0,0,-.27777777,0,18.944445)" stroke-width="2.98879" stroke-linecap="butt" stroke-miterlimit="10" stroke-linejoin="miter" fill="none" stroke="#ffffff" d="M 27.3281 20.5664 L 39.2852 20.5664 "/>
<symbol id="font_3_1">
<path d="M 0 .683 L 0 .652 L .024000004 .652 C .10100001 .652 .103000018 .64100006 .103000018 .605 L .103000018 .078 C .103000018 .042000005 .10100001 .031000002 .024000004 .031000002 L 0 .031000002 L 0 0 L .36600004 0 C .534 0 .672 .148 .672 .33600004 C .672 .526 .537 .683 .36600004 .683 L 0 .683 M .238 .031000002 C .19100002 .031000002 .18900001 .038000004 .18900001 .071 L .18900001 .61200007 C .18900001 .64500007 .19100002 .652 .238 .652 L .33800004 .652 C .40000005 .652 .469 .63000008 .52 .559 C .563 .5 .572 .41400004 .572 .33600004 C .572 .22500001 .553 .165 .517 .116000007 C .497 .089 .44000004 .031000002 .33900003 .031000002 L .238 .031000002 Z "/>
</symbol>
<symbol id="font_3_4">
<path d="M .08400001 .263 C .09 .41200004 .17400001 .43700005 .20800002 .43700005 C .31100003 .43700005 .321 .30200003 .321 .263 L .08400001 .263 M .083000008 .24200002 L .36200003 .24200002 C .38400004 .24200002 .38700003 .24200002 .38700003 .263 C .38700003 .36200003 .33300004 .45900003 .20800002 .45900003 C .09200001 .45900003 0 .35600005 0 .23100002 C 0 .097 .105000007 0 .22000002 0 C .342 0 .38700003 .111 .38700003 .13000001 C .38700003 .14000002 .379 .14200002 .374 .14200002 C .365 .14200002 .36300005 .136 .36100004 .128 C .326 .025000003 .236 .025000003 .22600001 .025000003 C .17600002 .025000003 .136 .055000005 .113000009 .092 C .083000008 .14000002 .083000008 .20600002 .083000008 .24200002 Z "/>
</symbol>
<symbol id="font_3_3">
<path d="M .36200003 .40100003 C .37100003 .41200004 .37100003 .41400004 .37100003 .418 C .37100003 .43100003 .36300005 .43100003 .34500004 .43100003 L .025000003 .43100003 L .014000002 .27 L .039 .27 C .045000007 .372 .06400001 .409 .17400001 .409 L .28800003 .409 L .009 .032 C 0 .021000002 0 .019000002 0 .014 C 0 0 .0069999995 0 .026 0 L .356 0 L .37300004 .187 L .34800003 .187 C .33900003 .069000009 .31800003 .025 .202 .025 L .08400001 .025 L .36200003 .40100003 Z "/>
</symbol>
<symbol id="font_3_5">
<path d="M .144 .44200004 L .0040000008 .43100003 L .0040000008 .4 C .069000009 .4 .07800001 .39400003 .07800001 .34500004 L .07800001 .076000008 C .07800001 .031000002 .067 .031000002 0 .031000002 L 0 0 C .032000007 .001 .086 .003 .11000001 .003 C .14500001 .003 .18 .001 .21400002 0 L .21400002 .031000002 C .148 .031000002 .144 .036000004 .144 .075 L .144 .44200004 M .148 .61600008 C .148 .648 .123 .669 .095000009 .669 C .064 .669 .042000005 .642 .042000005 .61600008 C .042000005 .58900007 .064 .563 .095000009 .563 C .123 .563 .148 .58400008 .148 .61600008 Z "/>
</symbol>
<symbol id="font_3_7">
<path d="M .07800001 .344 L .07800001 .076000008 C .07800001 .031000002 .067 .031000002 0 .031000002 L 0 0 C .035 .001 .08600001 .003 .113000009 .003 C .139 .003 .191 .001 .225 0 L .225 .031000002 C .158 .031000002 .147 .031000002 .147 .076000008 L .147 .26000003 C .147 .36400003 .218 .42000003 .282 .42000003 C .345 .42000003 .356 .36600004 .356 .30900003 L .356 .076000008 C .356 .031000002 .345 .031000002 .278 .031000002 L .278 0 C .31300003 .001 .36400003 .003 .391 .003 C .41700004 .003 .46900005 .001 .503 0 L .503 .031000002 C .43600003 .031000002 .425 .031000002 .425 .076000008 L .425 .26000003 C .425 .36400003 .496 .42000003 .56 .42000003 C .623 .42000003 .634 .36600004 .634 .30900003 L .634 .076000008 C .634 .031000002 .623 .031000002 .556 .031000002 L .556 0 C .591 .001 .642 .003 .669 .003 C .69500008 .003 .74700006 .001 .781 0 L .781 .031000002 C .72900006 .031000002 .70400008 .031000002 .703 .061000006 L .703 .252 C .703 .33800004 .703 .36900003 .67200008 .40500004 C .65800008 .42200003 .625 .44200004 .56700006 .44200004 C .48300005 .44200004 .439 .38200004 .42200003 .344 C .40800003 .43100003 .33400003 .44200004 .289 .44200004 C .216 .44200004 .169 .39900003 .141 .337 L .141 .44200004 L 0 .43100003 L 0 .4 C .07000001 .4 .07800001 .393 .07800001 .344 Z "/>
</symbol>
<symbol id="font_3_2">
<path d="M .291 .087000008 C .29500003 .047000003 .32200004 .005000001 .36900003 .005000001 C .39000003 .005000001 .45100004 .019000002 .45100004 .1 L .45100004 .15600002 L .42600004 .15600002 L .42600004 .1 C .42600004 .042000005 .40100003 .036000004 .39000003 .036000004 C .35700003 .036000004 .35300002 .081 .35300002 .086 L .35300002 .286 C .35300002 .328 .35300002 .367 .31700004 .404 C .27800004 .44300003 .22800002 .45900003 .18 .45900003 C .098 .45900003 .029 .41200004 .029 .34600003 C .029 .316 .049000004 .29900003 .075 .29900003 C .10300001 .29900003 .121 .31900005 .121 .34500004 C .121 .35700003 .116000007 .39000003 .07 .39100004 C .09700001 .42600004 .146 .43700005 .178 .43700005 C .22700003 .43700005 .284 .39800004 .284 .30900003 L .284 .272 C .23300001 .26900003 .16300002 .26600004 .1 .23600002 C .024999999 .20200002 0 .15000002 0 .106000009 C 0 .025000003 .09700001 0 .16 0 C .22600001 0 .272 .040000004 .291 .087000008 M .284 .25100003 L .284 .15100001 C .284 .056 .21200001 .022000002 .167 .022000002 C .11800001 .022000002 .077 .057000005 .077 .107 C .077 .16200002 .11900001 .24500002 .284 .25100003 Z "/>
</symbol>
<symbol id="font_3_6">
<path d="M .144 .694 L 0 .683 L 0 .652 C .07000001 .652 .07800001 .64500007 .07800001 .596 L .07800001 .076000008 C .07800001 .031000002 .067 .031000002 0 .031000002 L 0 0 C .033 .001 .086 .003 .11100001 .003 C .136 .003 .185 .001 .22200004 0 L .22200004 .031000002 C .155 .031000002 .144 .031000002 .144 .076000008 L .144 .694 Z "/>
</symbol>
<use xlink:href="#font_3_1" transform="matrix(12.453305,0,0,-12.453305,19.435421,13.388889)"/>
<use xlink:href="#font_3_4" transform="matrix(12.453305,0,0,-12.453305,29.01492,13.525876)"/>
<use xlink:href="#font_3_3" transform="matrix(12.453305,0,0,-12.453305,34.68159,13.388889)"/>
<use xlink:href="#font_3_5" transform="matrix(12.453305,0,0,-12.453305,40.410524,13.388889)"/>
<use xlink:href="#font_3_7" transform="matrix(12.453305,0,0,-12.453305,43.731409,13.388889)"/>
<use xlink:href="#font_3_2" transform="matrix(12.453305,0,0,-12.453305,54.189279,13.525876)"/>
<use xlink:href="#font_3_6" transform="matrix(12.453305,0,0,-12.453305,60.410528,13.388889)"/>
</g>
</svg>
