<?xml version="1.0" encoding="UTF-8" standalone="no"?>
<!DOCTYPE svg PUBLIC "-//W3C//DTD SVG 1.1//EN" "http://www.w3.org/Graphics/SVG/1.1/DTD/svg11.dtd">
<svg xmlns="http://www.w3.org/2000/svg" xmlns:xlink="http://www.w3.org/1999/xlink" version="1.1" width="74.72222pt" height="18.944445pt" viewBox="0 0 74.72222 18.944445">
<g enable-background="new">
<clipPath id="cp0">
<path transform="matrix(.27777777,0,0,-.27777777,0,18.944445)" d="M 135.422 6.61719 L 238.918 6.61719 L 243.059 7.17188 L 248.199 8.76953 L 252.855 11.2969 L 256.91 14.6406 L 260.254 18.6953 L 262.781 23.3516 L 264.379 28.4922 L 264.938 32.6328 L 264.938 34.0156 L 264.938 35.3945 L 264.379 39.5352 L 262.781 44.6758 L 260.254 49.332 L 256.91 53.3867 L 252.855 56.7305 L 248.199 59.2578 L 243.059 60.8555 L 238.918 61.4141 L 237.539 61.4141 L 33.3047 61.4141 L 31.9219 61.4141 L 27.7813 60.8555 L 22.6406 59.2578 L 17.9883 56.7305 L 13.9336 53.3867 L 10.5859 49.332 L 8.0625 44.6758 L 6.46484 39.5352 L 5.91016 35.3945 L 5.91016 34.0156 L 5.91016 32.6328 L 6.46484 28.4922 L 8.0625 23.3516 L 10.5898 18.6953 L 13.9336 14.6406 L 17.9883 11.2969 L 22.6445 8.76953 L 27.7852 7.17188 L 31.9258 6.61719 L 33.3086 6.61719 L 135.422 6.61719 Z "/>
</clipPath>
<g clip-path="url(#cp0)">
<path transform="matrix(.27777777,0,0,-.27777777,0,18.944445)" d="M 5.91016 6.61719 L 264.93717 6.61719 L 264.93717 61.414094 L 5.91016 61.414094 Z " fill="#ffffff"/>
</g>
<clipPath id="cp1">
<path transform="matrix(.27777777,0,0,-.27777777,0,18.944445)" d="M 58.2148 34.0156 L 58.2148 34.0156 L 58.2148 35.2695 L 57.707 39.0313 L 56.2539 43.707 L 53.957 47.9375 L 50.9141 51.625 L 47.2305 54.6641 L 42.9961 56.9609 L 38.3203 58.4141 L 34.5586 58.9219 L 33.3047 58.9219 L 32.0469 58.9219 L 28.2852 58.4141 L 23.6094 56.9609 L 19.3789 54.6641 L 15.6914 51.625 L 12.6523 47.9375 L 10.3555 43.707 L 8.90234 39.0313 L 8.39844 35.2695 L 8.39844 34.0156 L 8.39844 32.7578 L 8.90234 28.9961 L 10.3555 24.3203 L 12.6523 20.0898 L 15.6914 16.4023 L 19.3789 13.3633 L 23.6094 11.0664 L 28.2852 9.61328 L 32.0469 9.10938 L 33.3047 9.10938 L 34.5586 9.10938 L 38.3203 9.61328 L 42.9961 11.0664 L 47.2305 13.3633 L 50.9141 16.4023 L 53.957 20.0898 L 56.2539 24.3203 L 57.707 28.9961 L 58.2148 32.7578 L 58.2148 34.0156 Z "/>
</clipPath>
<g clip-path="url(#cp1)">
<path transform="matrix(.27777777,0,0,-.27777777,0,18.944445)" d="M 8.39844 9.10938 L 58.21484 9.10938 L 58.21484 58.92188 L 8.39844 58.92188 Z " fill="#0771ca"/>
</g>
<path transform="matrix(.27777777,0,0,-.27777777,0,18.944445)" stroke-width="4.98132" stroke-linecap="butt" stroke-miterlimit="10" stroke-linejoin="miter" fill="none" stroke="#ffffff" d="M 33.3047 41.4883 L 33.3047 19.0703 "/>
<clipPath id="cp2">
<path transform="matrix(.27777777,0,0,-.27777777,0,18.944445)" d="M 37.043 48.9609 L 37.043 48.9609 L 37.043 49.3242 L 36.7461 50.4141 L 35.9453 51.6016 L 34.7578 52.3984 L 33.668 52.6953 L 33.3047 52.6953 L 32.9375 52.6953 L 31.8477 52.3984 L 30.6641 51.6016 L 29.8633 50.4141 L 29.5703 49.3242 L 29.5703 48.9609 L 29.5703 48.5938 L 29.8633 47.5039 L 30.6641 46.3164 L 31.8477 45.5156 L 32.9375 45.2227 L 33.3047 45.2227 L 33.668 45.2227 L 34.7578 45.5156 L 35.9453 46.3164 L 36.7461 47.5039 L 37.043 48.5938 L 37.043 48.9609 Z "/>
</clipPath>
<g clip-path="url(#cp2)">
<path transform="matrix(.27777777,0,0,-.27777777,0,18.944445)" d="M 29.5703 45.2227 L 37.04296 45.2227 L 37.04296 52.69536 L 29.5703 52.69536 Z " fill="#ffffff"/>
</g>
<path transform="matrix(.27777777,0,0,-.27777777,0,18.944445)" stroke-width="2.98879" stroke-linecap="butt" stroke-miterlimit="10" stroke-linejoin="miter" fill="none" stroke="#ffffff" d="M 27.3281 39.9922 L 33.3047 39.9922 "/>
<path transform="matrix(.27777777,0,0,-.27777777,0,18.944445)" stroke-width="2.98879" stroke-linecap="butt" stroke-miterlimit="10" stroke-linejoin="miter" fill="none" stroke="#ffffff" d="M 27.3281 20.5664 L 39.2852 20.5664 "/>
<symbol id="font_3_2">
<path d="M 0 .36400003 C 0 .157 .162 0 .34800003 0 C .51100006 0 .609 .13900002 .609 .25500003 C .609 .26500003 .609 .272 .596 .272 C .58500006 .272 .58500006 .26600004 .58400008 .256 C .57600006 .113000009 .46900005 .031000004 .36 .031000004 C .29900003 .031000004 .10300001 .065000008 .10300001 .36300005 C .10300001 .66200008 .298 .69600006 .35900004 .69600006 C .46800006 .69600006 .55700007 .605 .577 .45900003 C .57900008 .44500003 .57900008 .44200004 .59300008 .44200004 C .609 .44200004 .609 .44500003 .609 .46600006 L .609 .70300009 C .609 .72 .609 .72700008 .59800007 .72700008 C .59400007 .72700008 .59000006 .72700008 .582 .71500006 L .532 .64100006 C .495 .67700007 .444 .72700008 .34800003 .72700008 C .16100002 .72700008 0 .568 0 .36400003 Z "/>
</symbol>
<symbol id="font_3_5">
<path d="M .07800001 .076000008 C .07800001 .031000002 .067 .031000002 0 .031000002 L 0 0 C .035 .001 .08600001 .003 .113000009 .003 C .139 .003 .191 .001 .225 0 L .225 .031000002 C .158 .031000002 .147 .031000002 .147 .076000008 L .147 .26000003 C .147 .36400003 .218 .42000003 .282 .42000003 C .345 .42000003 .356 .36600004 .356 .30900003 L .356 .076000008 C .356 .031000002 .345 .031000002 .278 .031000002 L .278 0 C .31300003 .001 .36400003 .003 .391 .003 C .41700004 .003 .46900005 .001 .503 0 L .503 .031000002 C .451 .031000002 .42600004 .031000002 .425 .061000006 L .425 .252 C .425 .33800004 .425 .36900003 .39400003 .40500004 C .38000003 .42200003 .347 .44200004 .289 .44200004 C .20500002 .44200004 .161 .38200004 .14400001 .344 L .14400001 .694 L 0 .683 L 0 .652 C .07000001 .652 .07800001 .64500007 .07800001 .596 L .07800001 .076000008 Z "/>
</symbol>
<symbol id="font_3_6">
<path d="M .144 .44200004 L .0040000008 .43100003 L .0040000008 .4 C .069000009 .4 .07800001 .39400003 .07800001 .34500004 L .07800001 .076000008 C .07800001 .031000002 .067 .031000002 0 .031000002 L 0 0 C .032000007 .001 .086 .003 .11000001 .003 C .14500001 .003 .18 .001 .21400002 0 L .21400002 .031000002 C .148 .031000002 .144 .036000004 .144 .075 L .144 .44200004 M .148 .61600008 C .148 .648 .123 .669 .095000009 .669 C .064 .669 .042000005 .642 .042000005 .61600008 C .042000005 .58900007 .064 .563 .095000009 .563 C .123 .563 .148 .58400008 .148 .61600008 Z "/>
</symbol>
<symbol id="font_3_1">
<path d="M .07800001 .344 L .07800001 .076000008 C .07800001 .031000002 .067 .031000002 0 .031000002 L 0 0 C .035 .001 .08600001 .003 .113000009 .003 C .139 .003 .191 .001 .225 0 L .225 .031000002 C .158 .031000002 .147 .031000002 .147 .076000008 L .147 .26000003 C .147 .36400003 .218 .42000003 .282 .42000003 C .345 .42000003 .356 .36600004 .356 .30900003 L .356 .076000008 C .356 .031000002 .345 .031000002 .278 .031000002 L .278 0 C .31300003 .001 .36400003 .003 .391 .003 C .41700004 .003 .46900005 .001 .503 0 L .503 .031000002 C .451 .031000002 .42600004 .031000002 .425 .061000006 L .425 .252 C .425 .33800004 .425 .36900003 .39400003 .40500004 C .38000003 .42200003 .347 .44200004 .289 .44200004 C .216 .44200004 .169 .39900003 .141 .337 L .141 .44200004 L 0 .43100003 L 0 .4 C .07000001 .4 .07800001 .393 .07800001 .344 Z "/>
</symbol>
<symbol id="font_3_4">
<path d="M .08400001 .263 C .09 .41200004 .17400001 .43700005 .20800002 .43700005 C .31100003 .43700005 .321 .30200003 .321 .263 L .08400001 .263 M .083000008 .24200002 L .36200003 .24200002 C .38400004 .24200002 .38700003 .24200002 .38700003 .263 C .38700003 .36200003 .33300004 .45900003 .20800002 .45900003 C .09200001 .45900003 0 .35600005 0 .23100002 C 0 .097 .105000007 0 .22000002 0 C .342 0 .38700003 .111 .38700003 .13000001 C .38700003 .14000002 .379 .14200002 .374 .14200002 C .365 .14200002 .36300005 .136 .36100004 .128 C .326 .025000003 .236 .025000003 .22600001 .025000003 C .17600002 .025000003 .136 .055000005 .113000009 .092 C .083000008 .14000002 .083000008 .20600002 .083000008 .24200002 Z "/>
</symbol>
<symbol id="font_3_3">
<path d="M .17500001 .20500002 C .197 .20100002 .279 .18500002 .279 .113000009 C .279 .062000004 .24400002 .022000002 .16600001 .022000002 C .082 .022000002 .046000005 .079 .027000003 .16400002 C .024000004 .17700002 .023000002 .18100001 .013000004 .18100001 C 0 .18100001 0 .17400001 0 .15600002 L 0 .024 C 0 .0070000009 0 0 .011000004 0 C .016000003 0 .017 .0010000002 .036000007 .020000002 C .038000004 .022000002 .038000004 .024 .056 .043 C .1 .0010000002 .14500001 0 .16600001 0 C .28100003 0 .32700003 .067 .32700003 .13900002 C .32700003 .19200002 .29700003 .22200002 .28500004 .23400001 C .25200004 .26600004 .213 .27400003 .171 .28200004 C .115 .293 .048 .30600003 .048 .36400003 C .048 .39900003 .07400001 .44000004 .16 .44000004 C .27 .44000004 .27500005 .35000003 .277 .31900005 C .27800004 .31000004 .28700004 .31000004 .28900004 .31000004 C .30200003 .31000004 .30200003 .31500004 .30200003 .33400003 L .30200003 .43500004 C .30200003 .45200003 .30200003 .45900003 .291 .45900003 C .286 .45900003 .284 .45900003 .27100004 .44700004 C .26800005 .44300003 .25800003 .43400003 .254 .43100003 C .21600002 .45900003 .17500001 .45900003 .16 .45900003 C .038000004 .45900003 0 .39200003 0 .33600004 C 0 .30100004 .016000003 .27300004 .043000007 .25100003 C .075 .22500003 .10300001 .21900001 .17500001 .20500002 Z "/>
</symbol>
<use xlink:href="#font_3_2" transform="matrix(12.453305,0,0,-12.453305,19.696942,13.662862)"/>
<use xlink:href="#font_3_5" transform="matrix(12.453305,0,0,-12.453305,28.398066,13.388889)"/>
<use xlink:href="#font_3_6" transform="matrix(12.453305,0,0,-12.453305,35.41052,13.388889)"/>
<use xlink:href="#font_3_1" transform="matrix(12.453305,0,0,-12.453305,38.731405,13.388889)"/>
<use xlink:href="#font_3_4" transform="matrix(12.453305,0,0,-12.453305,45.68159,13.525876)"/>
<use xlink:href="#font_3_3" transform="matrix(12.453305,0,0,-12.453305,51.410524,13.525876)"/>
<use xlink:href="#font_3_4" transform="matrix(12.453305,0,0,-12.453305,56.348264,13.525876)"/>
<use xlink:href="#font_3_1" transform="matrix(12.453305,0,0,-12.453305,62.064744,13.388889)"/>
</g>
</svg>
