<?xml version="1.0" encoding="UTF-8" standalone="no"?>
<!DOCTYPE svg PUBLIC "-//W3C//DTD SVG 1.1//EN" "http://www.w3.org/Graphics/SVG/1.1/DTD/svg11.dtd">
<svg xmlns="http://www.w3.org/2000/svg" xmlns:xlink="http://www.w3.org/1999/xlink" version="1.1" width="160.49999pt" height="29.055556pt" viewBox="0 0 160.49999 29.055556">
<g enable-background="new">
<clipPath id="cp0">
<path transform="matrix(.27777777,0,0,-.27777777,0,29.055556)" d="M 286.73 9.59766 L 529.773 9.59766 L 535.984 10.4297 L 543.695 12.8242 L 550.676 16.6133 L 556.758 21.6328 L 561.777 27.7148 L 565.566 34.6992 L 567.961 42.4102 L 568.797 48.6211 L 568.797 50.6953 L 568.797 52.7617 L 567.961 58.9727 L 565.566 66.6875 L 561.777 73.668 L 556.758 79.75 L 550.676 84.7695 L 543.695 88.5586 L 535.98 90.9531 L 529.77 91.7891 L 527.699 91.7891 L 45.7617 91.7891 L 43.6875 91.7891 L 37.4766 90.9531 L 29.7656 88.5586 L 22.7813 84.7695 L 16.6992 79.75 L 11.6797 73.668 L 7.89063 66.6875 L 5.49609 58.9766 L 4.66406 52.7656 L 4.66406 50.6953 L 4.66406 48.6211 L 5.49609 42.4102 L 7.89063 34.6992 L 11.6797 27.7148 L 16.6992 21.6328 L 22.7813 16.6133 L 29.7656 12.8242 L 37.4766 10.4297 L 43.6875 9.59766 L 45.7617 9.59766 L 286.73 9.59766 Z "/>
</clipPath>
<g clip-path="url(#cp0)">
<path transform="matrix(.27777777,0,0,-.27777777,0,29.055556)" d="M 4.66406 9.59766 L 568.79708 9.59766 L 568.79708 91.78906 L 4.66406 91.78906 Z " fill="#999999"/>
</g>
<clipPath id="cp1">
<path transform="matrix(.27777777,0,0,-.27777777,0,29.055556)" d="M 83.1211 50.6953 L 83.1211 50.6953 L 83.1211 52.5742 L 82.3594 58.2227 L 80.1836 65.2344 L 76.7383 71.582 L 72.1758 77.1094 L 66.6484 81.6719 L 60.3008 85.1172 L 53.2891 87.293 L 47.6406 88.0547 L 45.7617 88.0547 L 43.8789 88.0547 L 38.2305 87.293 L 31.2188 85.1172 L 24.8711 81.6719 L 19.3398 77.1094 L 14.7773 71.582 L 11.332 65.2344 L 9.15625 58.2227 L 8.39844 52.5742 L 8.39844 50.6953 L 8.39844 48.8125 L 9.15625 43.1641 L 11.332 36.1523 L 14.7773 29.8047 L 19.3398 24.2773 L 24.8711 19.7148 L 31.2188 16.2695 L 38.2305 14.0938 L 43.8789 13.3359 L 45.7617 13.3359 L 47.6406 13.3359 L 53.2891 14.0938 L 60.3008 16.2695 L 66.6484 19.7148 L 72.1758 24.2773 L 76.7383 29.8047 L 80.1836 36.1523 L 82.3594 43.1641 L 83.1211 48.8125 L 83.1211 50.6953 Z "/>
</clipPath>
<g clip-path="url(#cp1)">
<path transform="matrix(.27777777,0,0,-.27777777,0,29.055556)" d="M 8.39844 13.3359 L 83.12114 13.3359 L 83.12114 88.0547 L 8.39844 88.0547 Z " fill="#0771ca"/>
</g>
<path transform="matrix(.27777777,0,0,-.27777777,0,29.055556)" stroke-width="7.47198" stroke-linecap="butt" stroke-miterlimit="10" stroke-linejoin="miter" fill="none" stroke="#ffffff" d="M 45.7617 61.9023 L 45.7617 28.2773 "/>
<clipPath id="cp2">
<path transform="matrix(.27777777,0,0,-.27777777,0,29.055556)" d="M 51.3633 73.1094 L 51.3633 73.1094 L 51.3633 73.6523 L 50.9219 75.2891 L 49.7227 77.0703 L 47.9414 78.2734 L 46.3047 78.7148 L 45.7617 78.7148 L 45.2148 78.7148 L 43.5781 78.2734 L 41.7969 77.0703 L 40.5938 75.2891 L 40.1563 73.6523 L 40.1563 73.1094 L 40.1563 72.5625 L 40.5938 70.9258 L 41.7969 69.1484 L 43.5781 67.9453 L 45.2148 67.5078 L 45.7617 67.5078 L 46.3047 67.5078 L 47.9414 67.9453 L 49.7227 69.1484 L 50.9219 70.9258 L 51.3633 72.5625 L 51.3633 73.1094 Z "/>
</clipPath>
<g clip-path="url(#cp2)">
<path transform="matrix(.27777777,0,0,-.27777777,0,29.055556)" d="M 40.1563 67.5078 L 51.3633 67.5078 L 51.3633 78.7148 L 40.1563 78.7148 Z " fill="#ffffff"/>
</g>
<path transform="matrix(.27777777,0,0,-.27777777,0,29.055556)" stroke-width="4.48319" stroke-linecap="butt" stroke-miterlimit="10" stroke-linejoin="miter" fill="none" stroke="#ffffff" d="M 36.793 59.6602 L 45.7617 59.6602 "/>
<path transform="matrix(.27777777,0,0,-.27777777,0,29.055556)" stroke-width="4.48319" stroke-linecap="butt" stroke-miterlimit="10" stroke-linejoin="miter" fill="none" stroke="#ffffff" d="M 36.793 30.5195 L 54.7266 30.5195 "/>
<symbol id="font_3_1">
<path d="M 0 .683 L 0 .652 L .024000004 .652 C .10100001 .652 .103000018 .64100006 .103000018 .605 L .103000018 .078 C .103000018 .042000005 .10100001 .031000002 .024000004 .031000002 L 0 .031000002 L 0 0 L .36600004 0 C .534 0 .672 .148 .672 .33600004 C .672 .526 .537 .683 .36600004 .683 L 0 .683 M .238 .031000002 C .19100002 .031000002 .18900001 .038000004 .18900001 .071 L .18900001 .61200007 C .18900001 .64500007 .19100002 .652 .238 .652 L .33800004 .652 C .40000005 .652 .469 .63000008 .52 .559 C .563 .5 .572 .41400004 .572 .33600004 C .572 .22500001 .553 .165 .517 .116000007 C .497 .089 .44000004 .031000002 .33900003 .031000002 L .238 .031000002 Z "/>
</symbol>
<symbol id="font_3_7">
<path d="M .08400001 .263 C .09 .41200004 .17400001 .43700005 .20800002 .43700005 C .31100003 .43700005 .321 .30200003 .321 .263 L .08400001 .263 M .083000008 .24200002 L .36200003 .24200002 C .38400004 .24200002 .38700003 .24200002 .38700003 .263 C .38700003 .36200003 .33300004 .45900003 .20800002 .45900003 C .09200001 .45900003 0 .35600005 0 .23100002 C 0 .097 .105000007 0 .22000002 0 C .342 0 .38700003 .111 .38700003 .13000001 C .38700003 .14000002 .379 .14200002 .374 .14200002 C .365 .14200002 .36300005 .136 .36100004 .128 C .326 .025000003 .236 .025000003 .22600001 .025000003 C .17600002 .025000003 .136 .055000005 .113000009 .092 C .083000008 .14000002 .083000008 .20600002 .083000008 .24200002 Z "/>
</symbol>
<symbol id="font_3_6">
<path d="M .36200003 .40100003 C .37100003 .41200004 .37100003 .41400004 .37100003 .418 C .37100003 .43100003 .36300005 .43100003 .34500004 .43100003 L .025000003 .43100003 L .014000002 .27 L .039 .27 C .045000007 .372 .06400001 .409 .17400001 .409 L .28800003 .409 L .009 .032 C 0 .021000002 0 .019000002 0 .014 C 0 0 .0069999995 0 .026 0 L .356 0 L .37300004 .187 L .34800003 .187 C .33900003 .069000009 .31800003 .025 .202 .025 L .08400001 .025 L .36200003 .40100003 Z "/>
</symbol>
<symbol id="font_3_8">
<path d="M .144 .44200004 L .0040000008 .43100003 L .0040000008 .4 C .069000009 .4 .07800001 .39400003 .07800001 .34500004 L .07800001 .076000008 C .07800001 .031000002 .067 .031000002 0 .031000002 L 0 0 C .032000007 .001 .086 .003 .11000001 .003 C .14500001 .003 .18 .001 .21400002 0 L .21400002 .031000002 C .148 .031000002 .144 .036000004 .144 .075 L .144 .44200004 M .148 .61600008 C .148 .648 .123 .669 .095000009 .669 C .064 .669 .042000005 .642 .042000005 .61600008 C .042000005 .58900007 .064 .563 .095000009 .563 C .123 .563 .148 .58400008 .148 .61600008 Z "/>
</symbol>
<symbol id="font_3_a">
<path d="M .07800001 .344 L .07800001 .076000008 C .07800001 .031000002 .067 .031000002 0 .031000002 L 0 0 C .035 .001 .08600001 .003 .113000009 .003 C .139 .003 .191 .001 .225 0 L .225 .031000002 C .158 .031000002 .147 .031000002 .147 .076000008 L .147 .26000003 C .147 .36400003 .218 .42000003 .282 .42000003 C .345 .42000003 .356 .36600004 .356 .30900003 L .356 .076000008 C .356 .031000002 .345 .031000002 .278 .031000002 L .278 0 C .31300003 .001 .36400003 .003 .391 .003 C .41700004 .003 .46900005 .001 .503 0 L .503 .031000002 C .43600003 .031000002 .425 .031000002 .425 .076000008 L .425 .26000003 C .425 .36400003 .496 .42000003 .56 .42000003 C .623 .42000003 .634 .36600004 .634 .30900003 L .634 .076000008 C .634 .031000002 .623 .031000002 .556 .031000002 L .556 0 C .591 .001 .642 .003 .669 .003 C .69500008 .003 .74700006 .001 .781 0 L .781 .031000002 C .72900006 .031000002 .70400008 .031000002 .703 .061000006 L .703 .252 C .703 .33800004 .703 .36900003 .67200008 .40500004 C .65800008 .42200003 .625 .44200004 .56700006 .44200004 C .48300005 .44200004 .439 .38200004 .42200003 .344 C .40800003 .43100003 .33400003 .44200004 .289 .44200004 C .216 .44200004 .169 .39900003 .141 .337 L .141 .44200004 L 0 .43100003 L 0 .4 C .07000001 .4 .07800001 .393 .07800001 .344 Z "/>
</symbol>
<symbol id="font_3_4">
<path d="M .291 .087000008 C .29500003 .047000003 .32200004 .005000001 .36900003 .005000001 C .39000003 .005000001 .45100004 .019000002 .45100004 .1 L .45100004 .15600002 L .42600004 .15600002 L .42600004 .1 C .42600004 .042000005 .40100003 .036000004 .39000003 .036000004 C .35700003 .036000004 .35300002 .081 .35300002 .086 L .35300002 .286 C .35300002 .328 .35300002 .367 .31700004 .404 C .27800004 .44300003 .22800002 .45900003 .18 .45900003 C .098 .45900003 .029 .41200004 .029 .34600003 C .029 .316 .049000004 .29900003 .075 .29900003 C .10300001 .29900003 .121 .31900005 .121 .34500004 C .121 .35700003 .116000007 .39000003 .07 .39100004 C .09700001 .42600004 .146 .43700005 .178 .43700005 C .22700003 .43700005 .284 .39800004 .284 .30900003 L .284 .272 C .23300001 .26900003 .16300002 .26600004 .1 .23600002 C .024999999 .20200002 0 .15000002 0 .106000009 C 0 .025000003 .09700001 0 .16 0 C .22600001 0 .272 .040000004 .291 .087000008 M .284 .25100003 L .284 .15100001 C .284 .056 .21200001 .022000002 .167 .022000002 C .11800001 .022000002 .077 .057000005 .077 .107 C .077 .16200002 .11900001 .24500002 .284 .25100003 Z "/>
</symbol>
<symbol id="font_3_9">
<path d="M .144 .694 L 0 .683 L 0 .652 C .07000001 .652 .07800001 .64500007 .07800001 .596 L .07800001 .076000008 C .07800001 .031000002 .067 .031000002 0 .031000002 L 0 0 C .033 .001 .086 .003 .11100001 .003 C .136 .003 .185 .001 .22200004 0 L .22200004 .031000002 C .155 .031000002 .144 .031000002 .144 .076000008 L .144 .694 Z "/>
</symbol>
<symbol id="font_3_2">
<path d="M .17500001 .20500002 C .197 .20100002 .279 .18500002 .279 .113000009 C .279 .062000004 .24400002 .022000002 .16600001 .022000002 C .082 .022000002 .046000005 .079 .027000003 .16400002 C .024000004 .17700002 .023000002 .18100001 .013000004 .18100001 C 0 .18100001 0 .17400001 0 .15600002 L 0 .024 C 0 .0070000009 0 0 .011000004 0 C .016000003 0 .017 .0010000002 .036000007 .020000002 C .038000004 .022000002 .038000004 .024 .056 .043 C .1 .0010000002 .14500001 0 .16600001 0 C .28100003 0 .32700003 .067 .32700003 .13900002 C .32700003 .19200002 .29700003 .22200002 .28500004 .23400001 C .25200004 .26600004 .213 .27400003 .171 .28200004 C .115 .293 .048 .30600003 .048 .36400003 C .048 .39900003 .07400001 .44000004 .16 .44000004 C .27 .44000004 .27500005 .35000003 .277 .31900005 C .27800004 .31000004 .28700004 .31000004 .28900004 .31000004 C .30200003 .31000004 .30200003 .31500004 .30200003 .33400003 L .30200003 .43500004 C .30200003 .45200003 .30200003 .45900003 .291 .45900003 C .286 .45900003 .284 .45900003 .27100004 .44700004 C .26800005 .44300003 .25800003 .43400003 .254 .43100003 C .21600002 .45900003 .17500001 .45900003 .16 .45900003 C .038000004 .45900003 0 .39200003 0 .33600004 C 0 .30100004 .016000003 .27300004 .043000007 .25100003 C .075 .22500003 .10300001 .21900001 .17500001 .20500002 Z "/>
</symbol>
<symbol id="font_3_5">
<path d="M .39600004 .541 C .42200003 .60400006 .47300003 .605 .48900003 .605 L .48900003 .63600006 C .46600003 .63400009 .43700005 .633 .41400004 .633 C .39600004 .633 .34900005 .635 .32700003 .63600006 L .32700003 .605 C .358 .60400006 .374 .587 .374 .56200006 C .374 .55200007 .37300004 .5500001 .36800004 .538 L .26700003 .29200004 L .15600002 .561 C .15200001 .57100006 .15 .57500007 .15 .579 C .15 .605 .187 .605 .206 .605 L .206 .63600006 C .18 .635 .114 .633 .097 .633 C .07 .633 .030000002 .63400009 0 .63600006 L 0 .605 C .048 .605 .067 .605 .081 .57000008 L .231 .20500002 C .22600001 .19200002 .21200001 .15900001 .206 .14600002 C .18400002 .091000009 .15600002 .022 .09200001 .022 C .087000008 .022 .064 .022 .045 .040000008 C .076000008 .044 .08400001 .066 .08400001 .08200001 C .08400001 .10800001 .065000008 .12400001 .042000005 .12400001 C .022 .12400001 0 .11100001 0 .08100001 C 0 .036 .042000005 0 .09200001 0 C .155 0 .19600001 .05700001 .22 .11400001 L .39600004 .541 Z "/>
</symbol>
<symbol id="font_3_3">
<path d="M .15400002 .411 L .29700003 .411 L .29700003 .44200004 L .15400002 .44200004 L .15400002 .626 L .12900001 .626 C .12799999 .544 .098000008 .43700005 0 .43300004 L 0 .411 L .085 .411 L .085 .135 C .085 .012000001 .178 0 .21400002 0 C .28500004 0 .31300003 .071 .31300003 .135 L .31300003 .19200002 L .28800003 .19200002 L .28800003 .13700001 C .28800003 .063 .25800003 .025000003 .22100002 .025000003 C .15400002 .025000003 .15400002 .116000007 .15400002 .13300002 L .15400002 .411 Z "/>
</symbol>
<use xlink:href="#font_3_1" transform="matrix(18.679972,0,0,-18.679972,27.986687,20.889332)"/>
<use xlink:href="#font_3_7" transform="matrix(18.679972,0,0,-18.679972,42.189264,21.094813)"/>
<use xlink:href="#font_3_6" transform="matrix(18.679972,0,0,-18.679972,50.5226,20.889332)"/>
<use xlink:href="#font_3_8" transform="matrix(18.679972,0,0,-18.679972,58.94933,20.889332)"/>
<use xlink:href="#font_3_a" transform="matrix(18.679972,0,0,-18.679972,64.263988,20.889332)"/>
<use xlink:href="#font_3_4" transform="matrix(18.679972,0,0,-18.679972,80.11746,21.094813)"/>
<use xlink:href="#font_3_9" transform="matrix(18.679972,0,0,-18.679972,89.28267,20.889332)"/>
<use xlink:href="#font_3_2" transform="matrix(18.679972,0,0,-18.679972,94.61601,21.094813)"/>
<use xlink:href="#font_3_5" transform="matrix(18.679972,0,0,-18.679972,101.68782,24.718728)"/>
<use xlink:href="#font_3_2" transform="matrix(18.679972,0,0,-18.679972,111.94935,21.094813)"/>
<use xlink:href="#font_3_3" transform="matrix(18.679972,0,0,-18.679972,119.021167,21.094813)"/>
<use xlink:href="#font_3_7" transform="matrix(18.679972,0,0,-18.679972,126.52262,21.094813)"/>
<use xlink:href="#font_3_a" transform="matrix(18.679972,0,0,-18.679972,134.93068,20.889332)"/>
</g>
</svg>
