<?xml version="1.0" encoding="UTF-8" standalone="no"?>
<!DOCTYPE svg PUBLIC "-//W3C//DTD SVG 1.1//EN" "http://www.w3.org/Graphics/SVG/1.1/DTD/svg11.dtd">
<svg xmlns="http://www.w3.org/2000/svg" xmlns:xlink="http://www.w3.org/1999/xlink" version="1.1" width="74.72222pt" height="18.944445pt" viewBox="0 0 74.72222 18.944445">
<g enable-background="new">
<clipPath id="cp0">
<path transform="matrix(.27777777,0,0,-.27777777,0,18.944445)" d="M 135.422 5.78125 L 238.918 5.78125 L 243.059 6.33594 L 248.199 7.93359 L 252.855 10.4609 L 256.91 13.8047 L 260.254 17.8594 L 262.781 22.5156 L 264.379 27.6563 L 264.938 31.7969 L 264.938 33.1797 L 264.938 33.1758 L 264.938 34.5547 L 264.379 38.6953 L 262.781 43.8359 L 260.254 48.4922 L 256.91 52.5469 L 252.855 55.8906 L 248.199 58.418 L 243.059 60.0156 L 238.918 60.5742 L 237.539 60.5742 L 33.3086 60.5742 L 31.9258 60.5742 L 27.7852 60.0156 L 22.6445 58.418 L 17.9883 55.8945 L 13.9336 52.5469 L 10.5898 48.4922 L 8.0625 43.8398 L 6.46484 38.6992 L 5.91016 34.5586 L 5.91016 33.1797 L 5.91016 31.7969 L 6.46484 27.6563 L 8.0625 22.5156 L 10.5898 17.8594 L 13.9336 13.8047 L 17.9883 10.4609 L 22.6445 7.93359 L 27.7852 6.33594 L 31.9258 5.78125 L 33.3086 5.78125 L 135.422 5.78125 Z "/>
</clipPath>
<g clip-path="url(#cp0)">
<path transform="matrix(.27777777,0,0,-.27777777,0,18.944445)" d="M 5.91016 5.78125 L 264.93717 5.78125 L 264.93717 60.57425 L 5.91016 60.57425 Z " fill="#ffffff"/>
</g>
<clipPath id="cp1">
<path transform="matrix(.27777777,0,0,-.27777777,0,18.944445)" d="M 58.2148 33.1797 L 58.2148 33.1797 L 58.2148 34.4336 L 57.707 38.1953 L 56.2539 42.8711 L 53.957 47.1016 L 50.9141 50.7891 L 47.2305 53.8281 L 42.9961 56.125 L 38.3203 57.5781 L 34.5586 58.0859 L 33.3047 58.0859 L 32.0469 58.0859 L 28.2852 57.5781 L 23.6094 56.125 L 19.3789 53.8281 L 15.6914 50.7891 L 12.6523 47.1016 L 10.3555 42.8711 L 8.90234 38.1953 L 8.39844 34.4336 L 8.39844 33.1797 L 8.39844 31.9219 L 8.90234 28.1602 L 10.3555 23.4844 L 12.6523 19.25 L 15.6914 15.5664 L 19.3789 12.5234 L 23.6094 10.2266 L 28.2852 8.77344 L 32.0469 8.26953 L 33.3047 8.26953 L 34.5586 8.26953 L 38.3203 8.77344 L 42.9961 10.2266 L 47.2305 12.5234 L 50.9141 15.5664 L 53.957 19.25 L 56.2539 23.4844 L 57.707 28.1602 L 58.2148 31.9219 L 58.2148 33.1797 Z "/>
</clipPath>
<g clip-path="url(#cp1)">
<path transform="matrix(.27777777,0,0,-.27777777,0,18.944445)" d="M 8.39844 8.26953 L 58.21484 8.26953 L 58.21484 58.08593 L 8.39844 58.08593 Z " fill="#0771ca"/>
</g>
<path transform="matrix(.27777777,0,0,-.27777777,0,18.944445)" stroke-width="4.98132" stroke-linecap="butt" stroke-miterlimit="10" stroke-linejoin="miter" fill="none" stroke="#ffffff" d="M 33.3047 40.6484 L 33.3047 18.2344 "/>
<clipPath id="cp2">
<path transform="matrix(.27777777,0,0,-.27777777,0,18.944445)" d="M 37.043 48.1211 L 37.043 48.1211 L 37.043 48.4844 L 36.7461 49.5742 L 35.9453 50.7617 L 34.7578 51.5625 L 33.668 51.8594 L 33.3047 51.8594 L 32.9375 51.8594 L 31.8477 51.5625 L 30.6641 50.7617 L 29.8633 49.5742 L 29.5703 48.4844 L 29.5703 48.1211 L 29.5703 47.7539 L 29.8633 46.6641 L 30.6641 45.4805 L 31.8477 44.6797 L 32.9375 44.3867 L 33.3047 44.3867 L 33.668 44.3867 L 34.7578 44.6797 L 35.9453 45.4805 L 36.7461 46.6641 L 37.043 47.7539 L 37.043 48.1211 Z "/>
</clipPath>
<g clip-path="url(#cp2)">
<path transform="matrix(.27777777,0,0,-.27777777,0,18.944445)" d="M 29.5703 44.3867 L 37.04296 44.3867 L 37.04296 51.85936 L 29.5703 51.85936 Z " fill="#ffffff"/>
</g>
<path transform="matrix(.27777777,0,0,-.27777777,0,18.944445)" stroke-width="2.98879" stroke-linecap="butt" stroke-miterlimit="10" stroke-linejoin="miter" fill="none" stroke="#ffffff" d="M 27.3281 39.1563 L 33.3047 39.1563 "/>
<path transform="matrix(.27777777,0,0,-.27777777,0,18.944445)" stroke-width="2.98879" stroke-linecap="butt" stroke-miterlimit="10" stroke-linejoin="miter" fill="none" stroke="#ffffff" d="M 27.3281 19.7266 L 39.2852 19.7266 "/>
<symbol id="font_3_3">
<path d="M .53700008 .085 C .55 .063 .59000006 .023000002 .601 .023000002 C .61 .023000002 .61 .031000004 .61 .046000005 L .61 .22000002 C .61 .25900004 .614 .26400004 .679 .26400004 L .679 .29500003 C .642 .29400004 .587 .29200004 .55700007 .29200004 C .517 .29200004 .43200005 .29200004 .39600004 .29500003 L .39600004 .26400004 L .42800004 .26400004 C .518 .26400004 .521 .25300003 .521 .216 L .521 .15200001 C .521 .040000004 .39400003 .031000004 .36600004 .031000004 C .30100004 .031000004 .10300001 .06600001 .10300001 .36400003 C .10300001 .66300007 .3 .69600006 .36 .69600006 C .467 .69600006 .558 .60600009 .578 .45900003 C .58000007 .44500003 .58000007 .44200004 .59400007 .44200004 C .61 .44200004 .61 .44500003 .61 .46600006 L .61 .70300009 C .61 .72 .61 .72700008 .59900006 .72700008 C .595 .72700008 .591 .72700008 .58300009 .71500006 L .53300008 .64100006 C .50100007 .67300006 .44700004 .72700008 .34800003 .72700008 C .162 .72700008 0 .56900009 0 .36400003 C 0 .15900001 .16 0 .35000003 0 C .42300005 0 .503 .026000003 .53700008 .085 Z "/>
</symbol>
<symbol id="font_3_2">
<path d="M .13900002 .33200003 L .13900002 .44200004 L 0 .43100003 L 0 .4 C .07000001 .4 .07800001 .393 .07800001 .344 L .07800001 .076000008 C .07800001 .031000002 .067 .031000002 0 .031000002 L 0 0 C .039 .001 .08600001 .003 .11400001 .003 C .15400002 .003 .20100002 .003 .24100003 0 L .24100003 .031000002 L .22000002 .031000002 C .14600002 .031000002 .14400001 .042000005 .14400001 .078 L .14400001 .23200001 C .14400001 .33100004 .18600002 .42000003 .26200003 .42000003 C .26900003 .42000003 .27100004 .42000003 .27300004 .41900004 C .27 .418 .25000004 .40600003 .25000004 .38000003 C .25000004 .35200004 .27100004 .337 .293 .337 C .31100003 .337 .33600004 .349 .33600004 .381 C .33600004 .41300003 .305 .44200004 .26200003 .44200004 C .18900001 .44200004 .15300001 .37500004 .13900002 .33200003 Z "/>
</symbol>
<symbol id="font_3_7">
<path d="M .144 .44200004 L .0040000008 .43100003 L .0040000008 .4 C .069000009 .4 .07800001 .39400003 .07800001 .34500004 L .07800001 .076000008 C .07800001 .031000002 .067 .031000002 0 .031000002 L 0 0 C .032000007 .001 .086 .003 .11000001 .003 C .14500001 .003 .18 .001 .21400002 0 L .21400002 .031000002 C .148 .031000002 .144 .036000004 .144 .075 L .144 .44200004 M .148 .61600008 C .148 .648 .123 .669 .095000009 .669 C .064 .669 .042000005 .642 .042000005 .61600008 C .042000005 .58900007 .064 .563 .095000009 .563 C .123 .563 .148 .58400008 .148 .61600008 Z "/>
</symbol>
<symbol id="font_3_5">
<path d="M .08400001 .263 C .09 .41200004 .17400001 .43700005 .20800002 .43700005 C .31100003 .43700005 .321 .30200003 .321 .263 L .08400001 .263 M .083000008 .24200002 L .36200003 .24200002 C .38400004 .24200002 .38700003 .24200002 .38700003 .263 C .38700003 .36200003 .33300004 .45900003 .20800002 .45900003 C .09200001 .45900003 0 .35600005 0 .23100002 C 0 .097 .105000007 0 .22000002 0 C .342 0 .38700003 .111 .38700003 .13000001 C .38700003 .14000002 .379 .14200002 .374 .14200002 C .365 .14200002 .36300005 .136 .36100004 .128 C .326 .025000003 .236 .025000003 .22600001 .025000003 C .17600002 .025000003 .136 .055000005 .113000009 .092 C .083000008 .14000002 .083000008 .20600002 .083000008 .24200002 Z "/>
</symbol>
<symbol id="font_3_4">
<path d="M .083000008 .22900002 C .083000008 .39200003 .16500002 .43400003 .218 .43400003 C .227 .43400003 .29 .43300004 .32500003 .397 C .284 .39400003 .278 .36400003 .278 .351 C .278 .32500003 .296 .305 .324 .305 C .35 .305 .37 .32200004 .37 .35200004 C .37 .42000003 .294 .45900003 .21700001 .45900003 C .092 .45900003 0 .351 0 .22700002 C 0 .09900001 .099 0 .215 0 C .349 0 .381 .120000008 .381 .13000001 C .381 .14000002 .37100003 .14000002 .368 .14000002 C .359 .14000002 .35700003 .136 .35500003 .13000001 C .326 .037 .261 .025000003 .224 .025000003 C .171 .025000003 .083000008 .068 .083000008 .22900002 Z "/>
</symbol>
<symbol id="font_3_6">
<path d="M .07800001 .076000008 C .07800001 .031000002 .067 .031000002 0 .031000002 L 0 0 C .035 .001 .08600001 .003 .113000009 .003 C .139 .003 .191 .001 .225 0 L .225 .031000002 C .158 .031000002 .147 .031000002 .147 .076000008 L .147 .26000003 C .147 .36400003 .218 .42000003 .282 .42000003 C .345 .42000003 .356 .36600004 .356 .30900003 L .356 .076000008 C .356 .031000002 .345 .031000002 .278 .031000002 L .278 0 C .31300003 .001 .36400003 .003 .391 .003 C .41700004 .003 .46900005 .001 .503 0 L .503 .031000002 C .451 .031000002 .42600004 .031000002 .425 .061000006 L .425 .252 C .425 .33800004 .425 .36900003 .39400003 .40500004 C .38000003 .42200003 .347 .44200004 .289 .44200004 C .20500002 .44200004 .161 .38200004 .14400001 .344 L .14400001 .694 L 0 .683 L 0 .652 C .07000001 .652 .07800001 .64500007 .07800001 .596 L .07800001 .076000008 Z "/>
</symbol>
<symbol id="font_3_1">
<path d="M .07800001 .344 L .07800001 .076000008 C .07800001 .031000002 .067 .031000002 0 .031000002 L 0 0 C .035 .001 .08600001 .003 .113000009 .003 C .139 .003 .191 .001 .225 0 L .225 .031000002 C .158 .031000002 .147 .031000002 .147 .076000008 L .147 .26000003 C .147 .36400003 .218 .42000003 .282 .42000003 C .345 .42000003 .356 .36600004 .356 .30900003 L .356 .076000008 C .356 .031000002 .345 .031000002 .278 .031000002 L .278 0 C .31300003 .001 .36400003 .003 .391 .003 C .41700004 .003 .46900005 .001 .503 0 L .503 .031000002 C .451 .031000002 .42600004 .031000002 .425 .061000006 L .425 .252 C .425 .33800004 .425 .36900003 .39400003 .40500004 C .38000003 .42200003 .347 .44200004 .289 .44200004 C .216 .44200004 .169 .39900003 .141 .337 L .141 .44200004 L 0 .43100003 L 0 .4 C .07000001 .4 .07800001 .393 .07800001 .344 Z "/>
</symbol>
<use xlink:href="#font_3_3" transform="matrix(12.453305,0,0,-12.453305,19.696942,13.995973)"/>
<use xlink:href="#font_3_2" transform="matrix(12.453305,0,0,-12.453305,29.014918,13.722)"/>
<use xlink:href="#font_3_7" transform="matrix(12.453305,0,0,-12.453305,34.077188,13.722)"/>
<use xlink:href="#font_3_5" transform="matrix(12.453305,0,0,-12.453305,37.348257,13.858987)"/>
<use xlink:href="#font_3_4" transform="matrix(12.453305,0,0,-12.453305,43.08964,13.858987)"/>
<use xlink:href="#font_3_6" transform="matrix(12.453305,0,0,-12.453305,48.397645,13.722)"/>
<use xlink:href="#font_3_5" transform="matrix(12.453305,0,0,-12.453305,55.34783,13.858987)"/>
<use xlink:href="#font_3_1" transform="matrix(12.453305,0,0,-12.453305,61.064313,13.722)"/>
</g>
</svg>
