<?xml version="1.0" encoding="UTF-8" standalone="no"?>
<!DOCTYPE svg PUBLIC "-//W3C//DTD SVG 1.1//EN" "http://www.w3.org/Graphics/SVG/1.1/DTD/svg11.dtd">
<svg xmlns="http://www.w3.org/2000/svg" xmlns:xlink="http://www.w3.org/1999/xlink" version="1.1" width="54.666666pt" height="18.944445pt" viewBox="0 0 54.666666 18.944445">
<g enable-background="new">
<clipPath id="cp0">
<path transform="matrix(.27777777,0,0,-.27777777,0,18.944445)" d="M 98.0625 6.61719 L 164.199 6.61719 L 168.34 7.17188 L 173.48 8.76953 L 178.137 11.2969 L 182.191 14.6406 L 185.535 18.6953 L 188.063 23.3516 L 189.66 28.4922 L 190.219 32.6328 L 190.219 34.0156 L 190.219 35.3945 L 189.66 39.5352 L 188.063 44.6758 L 185.535 49.332 L 182.191 53.3867 L 178.137 56.7305 L 173.48 59.2578 L 168.34 60.8555 L 164.199 61.4141 L 162.82 61.4141 L 33.3047 61.4141 L 31.9219 61.4141 L 27.7813 60.8555 L 22.6406 59.2578 L 17.9883 56.7305 L 13.9336 53.3867 L 10.5859 49.332 L 8.0625 44.6758 L 6.46484 39.5352 L 5.91016 35.3945 L 5.91016 34.0156 L 5.91016 32.6328 L 6.46484 28.4922 L 8.0625 23.3516 L 10.5898 18.6953 L 13.9336 14.6406 L 17.9883 11.2969 L 22.6445 8.76953 L 27.7852 7.17188 L 31.9258 6.61719 L 33.3086 6.61719 L 98.0625 6.61719 Z "/>
</clipPath>
<g clip-path="url(#cp0)">
<path transform="matrix(.27777777,0,0,-.27777777,0,18.944445)" d="M 5.91016 6.61719 L 190.21916 6.61719 L 190.21916 61.414094 L 5.91016 61.414094 Z " fill="#ffffff"/>
</g>
<clipPath id="cp1">
<path transform="matrix(.27777777,0,0,-.27777777,0,18.944445)" d="M 58.2148 34.0156 L 58.2148 34.0156 L 58.2148 35.2695 L 57.707 39.0313 L 56.2539 43.707 L 53.957 47.9375 L 50.9141 51.625 L 47.2305 54.6641 L 42.9961 56.9609 L 38.3203 58.4141 L 34.5586 58.9219 L 33.3047 58.9219 L 32.0469 58.9219 L 28.2852 58.4141 L 23.6094 56.9609 L 19.3789 54.6641 L 15.6914 51.625 L 12.6523 47.9375 L 10.3555 43.707 L 8.90234 39.0313 L 8.39844 35.2695 L 8.39844 34.0156 L 8.39844 32.7578 L 8.90234 28.9961 L 10.3555 24.3203 L 12.6523 20.0898 L 15.6914 16.4023 L 19.3789 13.3633 L 23.6094 11.0664 L 28.2852 9.61328 L 32.0469 9.10938 L 33.3047 9.10938 L 34.5586 9.10938 L 38.3203 9.61328 L 42.9961 11.0664 L 47.2305 13.3633 L 50.9141 16.4023 L 53.957 20.0898 L 56.2539 24.3203 L 57.707 28.9961 L 58.2148 32.7578 L 58.2148 34.0156 Z "/>
</clipPath>
<g clip-path="url(#cp1)">
<path transform="matrix(.27777777,0,0,-.27777777,0,18.944445)" d="M 8.39844 9.10938 L 58.21484 9.10938 L 58.21484 58.92188 L 8.39844 58.92188 Z " fill="#0771ca"/>
</g>
<path transform="matrix(.27777777,0,0,-.27777777,0,18.944445)" stroke-width="4.98132" stroke-linecap="butt" stroke-miterlimit="10" stroke-linejoin="miter" fill="none" stroke="#ffffff" d="M 33.3047 41.4883 L 33.3047 19.0703 "/>
<clipPath id="cp2">
<path transform="matrix(.27777777,0,0,-.27777777,0,18.944445)" d="M 37.043 48.9609 L 37.043 48.9609 L 37.043 49.3242 L 36.7461 50.4141 L 35.9453 51.6016 L 34.7578 52.3984 L 33.668 52.6953 L 33.3047 52.6953 L 32.9375 52.6953 L 31.8477 52.3984 L 30.6641 51.6016 L 29.8633 50.4141 L 29.5703 49.3242 L 29.5703 48.9609 L 29.5703 48.5938 L 29.8633 47.5039 L 30.6641 46.3164 L 31.8477 45.5156 L 32.9375 45.2227 L 33.3047 45.2227 L 33.668 45.2227 L 34.7578 45.5156 L 35.9453 46.3164 L 36.7461 47.5039 L 37.043 48.5938 L 37.043 48.9609 Z "/>
</clipPath>
<g clip-path="url(#cp2)">
<path transform="matrix(.27777777,0,0,-.27777777,0,18.944445)" d="M 29.5703 45.2227 L 37.04296 45.2227 L 37.04296 52.69536 L 29.5703 52.69536 Z " fill="#ffffff"/>
</g>
<path transform="matrix(.27777777,0,0,-.27777777,0,18.944445)" stroke-width="2.98879" stroke-linecap="butt" stroke-miterlimit="10" stroke-linejoin="miter" fill="none" stroke="#ffffff" d="M 27.3281 39.9922 L 33.3047 39.9922 "/>
<path transform="matrix(.27777777,0,0,-.27777777,0,18.944445)" stroke-width="2.98879" stroke-linecap="butt" stroke-miterlimit="10" stroke-linejoin="miter" fill="none" stroke="#ffffff" d="M 27.3281 20.5664 L 39.2852 20.5664 "/>
<symbol id="font_3_3">
<path d="M .20400001 .661 C .19500001 .683 .19200002 .683 .16900002 .683 L 0 .683 L 0 .652 L .024000004 .652 C .10100001 .652 .103 .64100006 .103 .605 L .103 .105000007 C .103 .078 .103 .031000002 0 .031000002 L 0 0 C .035000005 .001 .08400001 .003 .11700001 .003 C .15 .003 .19900002 .001 .23400003 0 L .23400003 .031000002 C .13100001 .031000002 .13100001 .078 .13100001 .105000007 L .13100001 .64400008 L .13200002 .64400008 L .37300004 .022000002 C .37800003 .009000001 .38300003 0 .393 0 C .404 0 .40700004 .008 .411 .019000002 L .657 .652 L .65800008 .652 L .65800008 .078 C .65800008 .042000005 .656 .031000002 .57900008 .031000002 L .555 .031000002 L .555 0 C .592 .003 .66 .003 .69900009 .003 C .73800006 .003 .80500009 .003 .84200009 0 L .84200009 .031000002 L .818 .031000002 C .74100008 .031000002 .739 .042000005 .739 .078 L .739 .605 C .739 .64100006 .74100008 .652 .818 .652 L .84200009 .652 L .84200009 .683 L .67300006 .683 C .647 .683 .647 .68200007 .64000007 .66400006 L .42100004 .101 L .20400001 .661 Z "/>
</symbol>
<symbol id="font_3_1">
<path d="M .291 .087000008 C .29500003 .047000003 .32200004 .005000001 .36900003 .005000001 C .39000003 .005000001 .45100004 .019000002 .45100004 .1 L .45100004 .15600002 L .42600004 .15600002 L .42600004 .1 C .42600004 .042000005 .40100003 .036000004 .39000003 .036000004 C .35700003 .036000004 .35300002 .081 .35300002 .086 L .35300002 .286 C .35300002 .328 .35300002 .367 .31700004 .404 C .27800004 .44300003 .22800002 .45900003 .18 .45900003 C .098 .45900003 .029 .41200004 .029 .34600003 C .029 .316 .049000004 .29900003 .075 .29900003 C .10300001 .29900003 .121 .31900005 .121 .34500004 C .121 .35700003 .116000007 .39000003 .07 .39100004 C .09700001 .42600004 .146 .43700005 .178 .43700005 C .22700003 .43700005 .284 .39800004 .284 .30900003 L .284 .272 C .23300001 .26900003 .16300002 .26600004 .1 .23600002 C .024999999 .20200002 0 .15000002 0 .106000009 C 0 .025000003 .09700001 0 .16 0 C .22600001 0 .272 .040000004 .291 .087000008 M .284 .25100003 L .284 .15100001 C .284 .056 .21200001 .022000002 .167 .022000002 C .11800001 .022000002 .077 .057000005 .077 .107 C .077 .16200002 .11900001 .24500002 .284 .25100003 Z "/>
</symbol>
<symbol id="font_3_2">
<path d="M .39600004 .541 C .42200003 .60400006 .47300003 .605 .48900003 .605 L .48900003 .63600006 C .46600003 .63400009 .43700005 .633 .41400004 .633 C .39600004 .633 .34900005 .635 .32700003 .63600006 L .32700003 .605 C .358 .60400006 .374 .587 .374 .56200006 C .374 .55200007 .37300004 .5500001 .36800004 .538 L .26700003 .29200004 L .15600002 .561 C .15200001 .57100006 .15 .57500007 .15 .579 C .15 .605 .187 .605 .206 .605 L .206 .63600006 C .18 .635 .114 .633 .097 .633 C .07 .633 .030000002 .63400009 0 .63600006 L 0 .605 C .048 .605 .067 .605 .081 .57000008 L .231 .20500002 C .22600001 .19200002 .21200001 .15900001 .206 .14600002 C .18400002 .091000009 .15600002 .022 .09200001 .022 C .087000008 .022 .064 .022 .045 .040000008 C .076000008 .044 .08400001 .066 .08400001 .08200001 C .08400001 .10800001 .065000008 .12400001 .042000005 .12400001 C .022 .12400001 0 .11100001 0 .08100001 C 0 .036 .042000005 0 .09200001 0 C .155 0 .19600001 .05700001 .22 .11400001 L .39600004 .541 Z "/>
</symbol>
<use xlink:href="#font_3_3" transform="matrix(12.453305,0,0,-12.453305,19.460328,13.388889)"/>
<use xlink:href="#font_3_1" transform="matrix(12.453305,0,0,-12.453305,30.855929,13.525876)"/>
<use xlink:href="#font_3_2" transform="matrix(12.453305,0,0,-12.453305,36.569078,15.941817)"/>
<use xlink:href="#font_3_1" transform="matrix(12.453305,0,0,-12.453305,43.189058,13.525876)"/>
</g>
</svg>
