<?xml version="1.0" encoding="UTF-8" standalone="no"?>
<!DOCTYPE svg PUBLIC "-//W3C//DTD SVG 1.1//EN" "http://www.w3.org/Graphics/SVG/1.1/DTD/svg11.dtd">
<svg xmlns="http://www.w3.org/2000/svg" xmlns:xlink="http://www.w3.org/1999/xlink" version="1.1" width="57.416666pt" height="18.944445pt" viewBox="0 0 57.416666 18.944445">
<g enable-background="new">
<clipPath id="cp0">
<path transform="matrix(.27777777,0,0,-.27777777,0,18.944445)" d="M 103.047 6.61719 L 174.164 6.61719 L 178.305 7.17188 L 183.445 8.76953 L 188.098 11.2969 L 192.152 14.6406 L 195.5 18.6953 L 198.023 23.3516 L 199.621 28.4922 L 200.18 32.6328 L 200.18 34.0156 L 200.18 35.3945 L 199.621 39.5352 L 198.023 44.6758 L 195.496 49.332 L 192.152 53.3867 L 188.098 56.7305 L 183.441 59.2578 L 178.301 60.8555 L 174.16 61.4141 L 172.781 61.4141 L 33.3047 61.4141 L 31.9219 61.4141 L 27.7813 60.8555 L 22.6406 59.2578 L 17.9883 56.7305 L 13.9336 53.3867 L 10.5859 49.332 L 8.0625 44.6758 L 6.46484 39.5352 L 5.91016 35.3945 L 5.91016 34.0156 L 5.91016 32.6328 L 6.46484 28.4922 L 8.0625 23.3516 L 10.5898 18.6953 L 13.9336 14.6406 L 17.9883 11.2969 L 22.6445 8.76953 L 27.7852 7.17188 L 31.9258 6.61719 L 33.3086 6.61719 L 103.047 6.61719 Z "/>
</clipPath>
<g clip-path="url(#cp0)">
<path transform="matrix(.27777777,0,0,-.27777777,0,18.944445)" d="M 5.91016 6.61719 L 200.18016 6.61719 L 200.18016 61.414094 L 5.91016 61.414094 Z " fill="#ffffff"/>
</g>
<clipPath id="cp1">
<path transform="matrix(.27777777,0,0,-.27777777,0,18.944445)" d="M 58.2148 34.0156 L 58.2148 34.0156 L 58.2148 35.2695 L 57.707 39.0313 L 56.2539 43.707 L 53.957 47.9375 L 50.9141 51.625 L 47.2305 54.6641 L 42.9961 56.9609 L 38.3203 58.4141 L 34.5586 58.9219 L 33.3047 58.9219 L 32.0469 58.9219 L 28.2852 58.4141 L 23.6094 56.9609 L 19.3789 54.6641 L 15.6914 51.625 L 12.6523 47.9375 L 10.3555 43.707 L 8.90234 39.0313 L 8.39844 35.2695 L 8.39844 34.0156 L 8.39844 32.7578 L 8.90234 28.9961 L 10.3555 24.3203 L 12.6523 20.0898 L 15.6914 16.4023 L 19.3789 13.3633 L 23.6094 11.0664 L 28.2852 9.61328 L 32.0469 9.10938 L 33.3047 9.10938 L 34.5586 9.10938 L 38.3203 9.61328 L 42.9961 11.0664 L 47.2305 13.3633 L 50.9141 16.4023 L 53.957 20.0898 L 56.2539 24.3203 L 57.707 28.9961 L 58.2148 32.7578 L 58.2148 34.0156 Z "/>
</clipPath>
<g clip-path="url(#cp1)">
<path transform="matrix(.27777777,0,0,-.27777777,0,18.944445)" d="M 8.39844 9.10938 L 58.21484 9.10938 L 58.21484 58.92188 L 8.39844 58.92188 Z " fill="#0771ca"/>
</g>
<path transform="matrix(.27777777,0,0,-.27777777,0,18.944445)" stroke-width="4.98132" stroke-linecap="butt" stroke-miterlimit="10" stroke-linejoin="miter" fill="none" stroke="#ffffff" d="M 33.3047 41.4883 L 33.3047 19.0703 "/>
<clipPath id="cp2">
<path transform="matrix(.27777777,0,0,-.27777777,0,18.944445)" d="M 37.043 48.9609 L 37.043 48.9609 L 37.043 49.3242 L 36.7461 50.4141 L 35.9453 51.6016 L 34.7578 52.3984 L 33.668 52.6953 L 33.3047 52.6953 L 32.9375 52.6953 L 31.8477 52.3984 L 30.6641 51.6016 L 29.8633 50.4141 L 29.5703 49.3242 L 29.5703 48.9609 L 29.5703 48.5938 L 29.8633 47.5039 L 30.6641 46.3164 L 31.8477 45.5156 L 32.9375 45.2227 L 33.3047 45.2227 L 33.668 45.2227 L 34.7578 45.5156 L 35.9453 46.3164 L 36.7461 47.5039 L 37.043 48.5938 L 37.043 48.9609 Z "/>
</clipPath>
<g clip-path="url(#cp2)">
<path transform="matrix(.27777777,0,0,-.27777777,0,18.944445)" d="M 29.5703 45.2227 L 37.04296 45.2227 L 37.04296 52.69536 L 29.5703 52.69536 Z " fill="#ffffff"/>
</g>
<path transform="matrix(.27777777,0,0,-.27777777,0,18.944445)" stroke-width="2.98879" stroke-linecap="butt" stroke-miterlimit="10" stroke-linejoin="miter" fill="none" stroke="#ffffff" d="M 27.3281 39.9922 L 33.3047 39.9922 "/>
<path transform="matrix(.27777777,0,0,-.27777777,0,18.944445)" stroke-width="2.98879" stroke-linecap="butt" stroke-miterlimit="10" stroke-linejoin="miter" fill="none" stroke="#ffffff" d="M 27.3281 20.5664 L 39.2852 20.5664 "/>
<symbol id="font_3_2">
<path d="M .18600002 .36600004 L .18600002 .61200007 C .18600002 .64500007 .18800001 .652 .23500003 .652 L .359 .652 C .456 .652 .491 .56700006 .491 .514 C .491 .45000003 .442 .36600004 .331 .36600004 L .18600002 .36600004 M .42200003 .35700003 C .519 .37600003 .588 .44000004 .588 .514 C .588 .601 .496 .683 .366 .683 L 0 .683 L 0 .652 L .024 .652 C .10100001 .652 .103000018 .64100006 .103000018 .605 L .103000018 .078 C .103000018 .042000005 .10100001 .031000002 .024 .031000002 L 0 .031000002 L 0 0 L .39200003 0 C .52500006 0 .615 .089 .615 .18300002 C .615 .27 .533 .34500004 .42200003 .35700003 M .36 .031000002 L .23500003 .031000002 C .18800001 .031000002 .18600002 .038000004 .18600002 .071 L .18600002 .344 L .374 .344 C .473 .344 .515 .25100003 .515 .18400002 C .515 .113000009 .463 .031000002 .36 .031000002 Z "/>
</symbol>
<symbol id="font_3_5">
<path d="M .144 .44200004 L .0040000008 .43100003 L .0040000008 .4 C .069000009 .4 .07800001 .39400003 .07800001 .34500004 L .07800001 .076000008 C .07800001 .031000002 .067 .031000002 0 .031000002 L 0 0 C .032000007 .001 .086 .003 .11000001 .003 C .14500001 .003 .18 .001 .21400002 0 L .21400002 .031000002 C .148 .031000002 .144 .036000004 .144 .075 L .144 .44200004 M .148 .61600008 C .148 .648 .123 .669 .095000009 .669 C .064 .669 .042000005 .642 .042000005 .61600008 C .042000005 .58900007 .064 .563 .095000009 .563 C .123 .563 .148 .58400008 .148 .61600008 Z "/>
</symbol>
<symbol id="font_3_1">
<path d="M .07800001 .344 L .07800001 .076000008 C .07800001 .031000002 .067 .031000002 0 .031000002 L 0 0 C .035 .001 .08600001 .003 .113000009 .003 C .139 .003 .191 .001 .225 0 L .225 .031000002 C .158 .031000002 .147 .031000002 .147 .076000008 L .147 .26000003 C .147 .36400003 .218 .42000003 .282 .42000003 C .345 .42000003 .356 .36600004 .356 .30900003 L .356 .076000008 C .356 .031000002 .345 .031000002 .278 .031000002 L .278 0 C .31300003 .001 .36400003 .003 .391 .003 C .41700004 .003 .46900005 .001 .503 0 L .503 .031000002 C .451 .031000002 .42600004 .031000002 .425 .061000006 L .425 .252 C .425 .33800004 .425 .36900003 .39400003 .40500004 C .38000003 .42200003 .347 .44200004 .289 .44200004 C .216 .44200004 .169 .39900003 .141 .337 L .141 .44200004 L 0 .43100003 L 0 .4 C .07000001 .4 .07800001 .393 .07800001 .344 Z "/>
</symbol>
<symbol id="font_3_6">
<path d="M .1 .050000013 C .1 .074 .080000009 .100000027 .050000006 .100000027 C .021999993 .100000027 0 .07800001 0 .050000013 C 0 .022000015 .021999993 0 .050000006 0 C .080000009 0 .1 .026000023 .1 .050000013 M .293 .050000013 C .293 .07800001 .271 .100000027 .243 .100000027 C .213 .100000027 .19299999 .074 .19299999 .050000013 C .19299999 .026000023 .213 0 .243 0 C .271 0 .293 .022000015 .293 .050000013 Z "/>
</symbol>
<symbol id="font_3_4">
<path d="M .291 .087000008 C .29500003 .047000003 .32200004 .005000001 .36900003 .005000001 C .39000003 .005000001 .45100004 .019000002 .45100004 .1 L .45100004 .15600002 L .42600004 .15600002 L .42600004 .1 C .42600004 .042000005 .40100003 .036000004 .39000003 .036000004 C .35700003 .036000004 .35300002 .081 .35300002 .086 L .35300002 .286 C .35300002 .328 .35300002 .367 .31700004 .404 C .27800004 .44300003 .22800002 .45900003 .18 .45900003 C .098 .45900003 .029 .41200004 .029 .34600003 C .029 .316 .049000004 .29900003 .075 .29900003 C .10300001 .29900003 .121 .31900005 .121 .34500004 C .121 .35700003 .116000007 .39000003 .07 .39100004 C .09700001 .42600004 .146 .43700005 .178 .43700005 C .22700003 .43700005 .284 .39800004 .284 .30900003 L .284 .272 C .23300001 .26900003 .16300002 .26600004 .1 .23600002 C .024999999 .20200002 0 .15000002 0 .106000009 C 0 .025000003 .09700001 0 .16 0 C .22600001 0 .272 .040000004 .291 .087000008 M .284 .25100003 L .284 .15100001 C .284 .056 .21200001 .022000002 .167 .022000002 C .11800001 .022000002 .077 .057000005 .077 .107 C .077 .16200002 .11900001 .24500002 .284 .25100003 Z "/>
</symbol>
<symbol id="font_3_3">
<path d="M .13900002 .33200003 L .13900002 .44200004 L 0 .43100003 L 0 .4 C .07000001 .4 .07800001 .393 .07800001 .344 L .07800001 .076000008 C .07800001 .031000002 .067 .031000002 0 .031000002 L 0 0 C .039 .001 .08600001 .003 .11400001 .003 C .15400002 .003 .20100002 .003 .24100003 0 L .24100003 .031000002 L .22000002 .031000002 C .14600002 .031000002 .14400001 .042000005 .14400001 .078 L .14400001 .23200001 C .14400001 .33100004 .18600002 .42000003 .26200003 .42000003 C .26900003 .42000003 .27100004 .42000003 .27300004 .41900004 C .27 .418 .25000004 .40600003 .25000004 .38000003 C .25000004 .35200004 .27100004 .337 .293 .337 C .31100003 .337 .33600004 .349 .33600004 .381 C .33600004 .41300003 .305 .44200004 .26200003 .44200004 C .18900001 .44200004 .15300001 .37500004 .13900002 .33200003 Z "/>
</symbol>
<use xlink:href="#font_3_2" transform="matrix(12.453305,0,0,-12.453305,19.447875,13.388889)"/>
<use xlink:href="#font_3_5" transform="matrix(12.453305,0,0,-12.453305,28.077185,13.388889)"/>
<use xlink:href="#font_3_1" transform="matrix(12.453305,0,0,-12.453305,31.398068,13.388889)"/>
<use xlink:href="#font_3_6" transform="matrix(12.453305,0,0,-12.453305,39.282255,6.3029587)"/>
<use xlink:href="#font_3_4" transform="matrix(12.453305,0,0,-12.453305,38.522165,13.525876)"/>
<use xlink:href="#font_3_3" transform="matrix(12.453305,0,0,-12.453305,44.681158,13.388889)"/>
</g>
</svg>
