<?xml version="1.0" encoding="UTF-8" standalone="no"?>
<!DOCTYPE svg PUBLIC "-//W3C//DTD SVG 1.1//EN" "http://www.w3.org/Graphics/SVG/1.1/DTD/svg11.dtd">
<svg xmlns="http://www.w3.org/2000/svg" xmlns:xlink="http://www.w3.org/1999/xlink" version="1.1" width="154.97222pt" height="154.97222pt" viewBox="0 0 154.97222 154.97222">
<g enable-background="new">
<clipPath id="cp0">
<path transform="matrix(.27777777,0,0,-.27777777,0,154.97222)" d="M 277.391 10.8008 L 499.078 10.8008 L 506.605 11.8125 L 515.957 14.7148 L 524.418 19.3086 L 531.789 25.3906 L 537.871 32.7617 L 542.465 41.2227 L 545.367 50.5742 L 546.383 58.1016 L 546.383 60.6133 L 546.383 498.969 L 546.383 501.477 L 545.367 509.004 L 542.465 518.355 L 537.871 526.816 L 531.789 534.188 L 524.418 540.27 L 515.957 544.863 L 506.605 547.766 L 499.078 548.781 L 496.57 548.781 L 58.2148 548.781 L 55.7031 548.781 L 48.1719 547.766 L 38.8242 544.863 L 30.3594 540.27 L 22.9883 534.188 L 16.9063 526.816 L 12.3125 518.355 L 9.41016 509.004 L 8.39844 501.477 L 8.39844 498.969 L 8.39844 60.6133 L 8.39844 58.1016 L 9.41016 50.5742 L 12.3125 41.2227 L 16.9063 32.7617 L 22.9883 25.3906 L 30.3594 19.3086 L 38.8242 14.7148 L 48.1719 11.8125 L 55.7031 10.8008 L 58.2148 10.8008 L 277.391 10.8008 Z "/>
</clipPath>
<g clip-path="url(#cp0)">
<path transform="matrix(.27777777,0,0,-.27777777,0,154.97222)" d="M 8.39844 10.8008 L 546.38247 10.8008 L 546.38247 548.78079 L 8.39844 548.78079 Z " fill="#a6a6a6"/>
</g>
<symbol id="font_1_2">
<path d="M .147 .31100003 L .41000004 .31100003 C .44099999 .31100003 .458 .31800003 .458 .358 C .458 .395 .445 .40500004 .41000004 .40500004 L .147 .40500004 L .147 .59000006 L .196 .59000006 C .274 .59000006 .35300005 .587 .431 .587 C .46600003 .587 .48900003 .587 .48900003 .63500007 L .48900003 .643 C .48900003 .675 .482 .69100007 .44099999 .69100007 L .048000009 .69100007 C .012000002 .69100007 0 .68 0 .643 L 0 .048 C 0 .012 .011 0 .048000009 0 L .45600004 0 C .49400003 0 .504 .013 .504 .048 L .504 .062000004 C .504 .11000001 .481 .11000001 .448 .11000001 C .39600004 .11000001 .34500004 .108 .29299999 .108 C .268 .108 .165 .10700001 .147 .106000009 L .147 .31100003 Z "/>
</symbol>
<symbol id="font_1_1">
<path d="M .44 .32500003 C .44 .42800004 .39600004 .469 .294 .469 C .18900001 .469 .14400001 .393 .13100001 .36600004 L .13000001 .36600004 L .13000001 .416 C .13000001 .448 .12300001 .46400003 .082 .46400003 L .048 .46400003 C .012000002 .46400003 0 .453 0 .416 L 0 .048 C 0 .012 .011 0 .048 0 L .088 0 C .126 0 .136 .013 .136 .048 L .136 .26900003 C .136 .356 .194 .397 .24600002 .397 C .294 .397 .30400003 .374 .30400003 .323 L .30400003 .048 C .30400003 .016 .31100003 0 .35200004 0 L .39200003 0 C .43 0 .44 .013 .44 .048 L .44 .32500003 Z "/>
</symbol>
<symbol id="font_1_4">
<path d="M .19800002 .397 L .287 .397 C .299 .397 .335 .397 .335 .43300004 C .335 .46900005 .299 .46900005 .287 .46900005 L .19800002 .46900005 L .19800002 .552 C .19800002 .584 .19100002 .6 .15 .6 L .11900001 .6 C .083000008 .6 .071 .589 .071 .552 L .071 .46900005 L .048 .46900005 C .037 .46900005 0 .46900005 0 .43300004 C 0 .397 .036 .397 .048 .397 L .068 .397 L .068 .14400001 C .068 .043 .104 0 .17300001 0 C .18200001 0 .22600001 0 .278 .016 C .29500003 .021000002 .35300002 .039 .35300002 .058000003 C .35300002 .061 .351 .068 .345 .089 C .34 .109000008 .338 .115 .329 .115 C .324 .115 .323 .11400001 .317 .108 C .306 .1 .279 .078 .237 .078 C .21300002 .078 .19800002 .095000009 .19800002 .16100002 L .19800002 .397 Z "/>
</symbol>
<symbol id="font_1_6">
<path d="M .69500008 .43 C .69200006 .45800004 .674 .45800004 .64300009 .45800004 C .596 .45800004 .58400008 .455 .57000008 .40300004 C .54800006 .326 .504 .17 .48900003 .113000009 L .40400005 .41300003 C .39800004 .43500004 .39100004 .45800004 .34500004 .45800004 C .33 .45800004 .30700005 .45800004 .293 .43500004 C .28400005 .42000003 .24 .24700001 .20500002 .13000001 L .125 .41300003 C .11500001 .44700004 .104 .45800004 .06300001 .45800004 L .043 .45800004 C .024 .45800004 .0030000006 .45800004 0 .43 L .106000009 .046000005 C .119 0 .14500001 0 .17 0 L .19800002 0 C .24500002 0 .25300003 .015000001 .26400004 .055000005 C .28700004 .13800001 .323 .264 .32700003 .316 L .32800005 .317 C .33400003 .26000003 .37800003 .102000009 .39100004 .055000005 C .40200005 .019000002 .40700004 0 .45700006 0 L .52500006 0 C .568 0 .57800009 .012 .58800008 .046000005 L .69500008 .43 Z "/>
</symbol>
<symbol id="font_1_b">
<path d="M .048000006 .69500008 C .015999999 .69500008 0 .689 0 .64900007 L 0 .60300007 C 0 .57100006 .010000002 .558 .047000003 .558 L .09900001 .558 C .147 .558 .147 .57900008 .147 .62600007 C .147 .674 .147 .69500008 .09900001 .69500008 L .048000006 .69500008 M .14 .41000004 C .14 .44200004 .133 .45800004 .09200001 .45800004 L .055000005 .45800004 C .019000005 .45800004 .007000003 .44700004 .007000003 .41000004 L .007000003 .048 C .007000003 .012 .018000003 0 .055000005 0 L .09200001 0 C .13000001 0 .14 .013 .14 .048 L .14 .41000004 Z "/>
</symbol>
<symbol id="font_1_7">
<path d="M .42000003 .061 C .42000003 .072000008 .416 .11800001 .41400004 .13100001 C .41400004 .134 .41200004 .14400001 .402 .14400001 C .39800004 .14400001 .39600004 .14400001 .386 .134 C .36900003 .119 .32200004 .078 .24000001 .078 C .136 .078 .136 .17900002 .136 .24300002 C .136 .32400004 .141 .40800003 .243 .40800003 C .30800004 .40800003 .335 .39200003 .37100003 .36200003 C .38300003 .351 .38500003 .351 .38900004 .351 C .39900003 .351 .40100003 .36 .402 .36400003 C .404 .37200005 .41400004 .42800004 .41400004 .43300004 C .41400004 .44200004 .40700004 .44600005 .39000003 .45400004 C .342 .47600005 .312 .48600004 .24200002 .48600004 C .09300001 .48600004 0 .41600005 0 .24100001 C 0 .075 .086 0 .23700002 0 C .26400004 0 .32400004 .0010000002 .39100004 .035 C .41900004 .05 .42000003 .051000004 .42000003 .061 Z "/>
</symbol>
<symbol id="font_1_d">
<path d="M .24400002 .272 L .398 .41500003 C .41000004 .42600004 .41300003 .42900003 .41300003 .437 C .41300003 .45800004 .393 .45800004 .379 .45800004 L .321 .45800004 C .303 .45800004 .284 .45800004 .261 .437 L .117 .303 L .117 .646 C .117 .67800006 .11 .694 .069000009 .694 L .048 .694 C .0119999949 .694 0 .683 0 .646 L 0 .048 C 0 .012 .011 0 .048 0 L .066 0 C .104 0 .11400001 .013 .11400001 .048 L .11400001 .15200001 L .161 .19500001 L .291 .025 C .308 .003 .315 0 .344 0 L .39200003 0 C .40600003 0 .428 0 .428 .022000002 C .428 .024 .428 .031000002 .418 .044000005 L .24400002 .272 Z "/>
</symbol>
<symbol id="font_1_e">
<path d="M .133 .646 C .133 .67800006 .126 .694 .08500001 .694 L .048 .694 C .012000002 .694 0 .683 0 .646 L 0 .048 C 0 .012 .011 0 .048 0 L .08500001 0 C .12300001 0 .133 .013 .133 .048 L .133 .646 Z "/>
</symbol>
<symbol id="font_1_5">
<path d="M .44 .42100004 C .44 .45300005 .43300004 .46900005 .39200003 .46900005 L .35200004 .46900005 C .314 .46900005 .30400003 .45600004 .30400003 .42100004 L .30400003 .18400002 C .30400003 .11800001 .26900003 .061 .19800002 .061 C .142 .061 .136 .075 .136 .128 L .136 .42100004 C .136 .45300005 .12900001 .46900005 .088 .46900005 L .048 .46900005 C .012000002 .46900005 0 .45800004 0 .42100004 L 0 .13700001 C 0 .030000002 .058000007 0 .16200002 0 C .18900001 0 .26000003 0 .307 .085 L .307 .059 C .307 .027000003 .314 .011000001 .35500003 .011000001 L .39200003 .011000001 C .43 .011000001 .44 .024 .44 .059 L .44 .42100004 Z "/>
</symbol>
<symbol id="font_1_9">
<path d="M .175 .29800005 C .139 .29800005 .125 .29800005 .11100001 .31 C .107 .314 .09 .32900004 .09 .35500003 C .09 .36200003 .091000009 .36400003 .09200001 .37 C .139 .34400005 .198 .34400005 .21900001 .34400005 C .261 .34400005 .42000003 .34400005 .42000003 .509 C .42000003 .56700006 .398 .60200008 .38900004 .61300006 C .40600003 .61300006 .441 .61300006 .48200003 .60200008 C .48600004 .6 .493 .59800007 .49600003 .59800007 C .50400009 .59800007 .50900009 .60400006 .50900009 .61100009 C .50900009 .615 .50400009 .63900008 .50200006 .64900007 C .498 .67300006 .498 .675 .48 .675 C .44900004 .675 .39900003 .66300007 .361 .64000007 C .314 .67100009 .262 .675 .21900001 .675 C .177 .675 .018000002 .675 .018000002 .51000007 C .018000002 .47000004 .029000001 .42000003 .06700001 .38700003 C .040000008 .35000003 .040000008 .31100003 .040000008 .30600003 C .040000008 .287 .046000005 .254 .06700001 .22700002 C .05200001 .22100002 0 .20300001 0 .13900002 C 0 .10800001 .015000002 .05600001 .07800001 .02700001 C .135 .001000002 .202 0 .24900002 0 C .308 0 .49900005 0 .49900005 .14200002 C .49900005 .29800005 .358 .29800005 .223 .29800005 L .175 .29800005 M .21900001 .416 C .149 .416 .146 .45400004 .146 .509 C .146 .564 .149 .60300007 .21900001 .60300007 C .289 .60300007 .292 .56500008 .292 .51000007 C .292 .45500005 .289 .416 .21900001 .416 M .273 .18900001 C .354 .18900001 .39600004 .17500001 .39600004 .13900002 C .39600004 .07200001 .282 .07200001 .25 .07200001 C .21000001 .07200001 .10300001 .07200001 .10300001 .14200002 C .10300001 .18900001 .134 .18900001 .157 .18900001 L .273 .18900001 Z "/>
</symbol>
<symbol id="font_1_c">
<path d="M .22100002 .46300004 C .199 .46800003 .137 .49100004 .137 .54800006 C .137 .633 .22200004 .63500007 .256 .63500007 C .31200005 .63500007 .36200003 .62200006 .411 .57400009 C .42700003 .559 .42800004 .558 .43200005 .558 C .43800003 .558 .44300003 .56100007 .44600005 .57600006 L .46100006 .66300007 C .46300004 .67100009 .46300004 .67300006 .46300004 .67600008 C .46300004 .6840001 .46200005 .68500009 .43700005 .6980001 C .36600004 .73300006 .307 .73800006 .256 .73800006 C .167 .73800006 .012000002 .71700009 .012000002 .53000006 C .012000002 .45900003 .049000004 .41300006 .068 .39300005 C .11900001 .34100003 .16600001 .33100004 .24400002 .31300003 C .3 .30000005 .32200004 .29500003 .344 .27500005 C .35400004 .26500003 .37500004 .24400002 .37500004 .20600002 C .37500004 .112 .28900004 .109000008 .256 .109000008 C .17200002 .109000008 .099 .143 .049000004 .18800001 C .037 .2 .035000005 .2 .031000004 .2 C .024999999 .2 .020000004 .19700001 .016999998 .18200001 L .0020000004 .095000009 C 0 .087000008 0 .085 0 .082 C 0 .061000006 .10400001 .025000003 .109000008 .023000002 C .176 .0020000004 .23000002 0 .256 0 C .40600003 0 .5 .067 .5 .222 C .5 .33400003 .41700004 .41800005 .31700004 .44100005 L .22100002 .46300004 Z "/>
</symbol>
<symbol id="font_1_a">
<path d="M .44 .32500003 C .44 .42800004 .39600004 .469 .294 .469 C .194 .469 .148 .4 .134 .372 L .133 .372 L .133 .646 C .133 .67800006 .126 .694 .08500001 .694 L .048 .694 C .012000002 .694 0 .683 0 .646 L 0 .048 C 0 .012 .011 0 .048 0 L .088 0 C .126 0 .136 .013 .136 .048 L .136 .26900003 C .136 .356 .194 .397 .24600002 .397 C .294 .397 .30400003 .374 .30400003 .323 L .30400003 .048 C .30400003 .016 .31100003 0 .35200004 0 L .39200003 0 C .43 0 .44 .013 .44 .048 L .44 .32500003 Z "/>
</symbol>
<symbol id="font_1_3">
<path d="M .133 .23 C .133 .32500003 .212 .36400003 .27500005 .36800004 C .29299999 .36900003 .29500003 .36900003 .29500003 .395 L .29500003 .44200004 C .29500003 .462 .29500003 .469 .277 .469 C .249 .469 .17600002 .45900003 .12900001 .351 L .128 .351 L .128 .416 C .128 .448 .12100001 .46400003 .08 .46400003 L .048 .46400003 C .012000002 .46400003 0 .453 0 .416 L 0 .048 C 0 .012 .011 0 .048 0 L .08500001 0 C .12300001 0 .133 .013 .133 .048 L .133 .23 Z "/>
</symbol>
<symbol id="font_1_8">
<path d="M .40000005 .22500003 C .42300005 .22500003 .44800005 .22600001 .44800005 .27100004 C .44800005 .40000005 .38800005 .48600004 .23900001 .48600004 C .079 .48600004 0 .39600004 0 .24400002 C 0 .080000009 .095 0 .25200004 0 C .29000003 0 .34700004 .005000001 .41300006 .038000004 C .43500004 .049000004 .44200004 .052 .44200004 .064 C .44200004 .071 .43900005 .1 .43800003 .108 C .43400005 .13900002 .43300004 .14000002 .42400003 .14000002 C .42000006 .14000002 .41800005 .14000002 .40700004 .13000001 C .34800003 .079 .28800003 .072000008 .256 .072000008 C .143 .072000008 .131 .16100002 .128 .22500003 L .40000005 .22500003 M .12900001 .27800004 C .132 .33900003 .15200001 .41400004 .23900001 .41400004 C .31900005 .41400004 .33400003 .35600005 .33700005 .27800004 L .12900001 .27800004 Z "/>
</symbol>
<use xlink:href="#font_1_2" transform="matrix(19.371804,0,0,-19.371804,25.42928,60.63833)"/>
<use xlink:href="#font_1_1" transform="matrix(19.371804,0,0,-19.371804,37.162088,60.63833)"/>
<use xlink:href="#font_1_4" transform="matrix(19.371804,0,0,-19.371804,47.387224,60.851419)"/>
<use xlink:href="#font_1_6" transform="matrix(19.371804,0,0,-19.371804,54.4645,60.63833)"/>
<use xlink:href="#font_1_b" transform="matrix(19.371804,0,0,-19.371804,69.37898,60.63833)"/>
<use xlink:href="#font_1_7" transform="matrix(19.371804,0,0,-19.371804,74.04967,60.851419)"/>
<use xlink:href="#font_1_d" transform="matrix(19.371804,0,0,-19.371804,84.00289,60.63833)"/>
<use xlink:href="#font_1_e" transform="matrix(19.371804,0,0,-19.371804,94.18126,60.63833)"/>
<use xlink:href="#font_1_5" transform="matrix(19.371804,0,0,-19.371804,99.16189,60.851419)"/>
<use xlink:href="#font_1_1" transform="matrix(19.371804,0,0,-19.371804,110.16189,60.63833)"/>
<use xlink:href="#font_1_9" transform="matrix(19.371804,0,0,-19.371804,120.48389,64.62892)"/>
<use xlink:href="#font_1_b" transform="matrix(19.371804,0,0,-19.371804,61.37919,85.305217)"/>
<use xlink:href="#font_1_1" transform="matrix(19.371804,0,0,-19.371804,66.49542,85.305217)"/>
<use xlink:href="#font_1_c" transform="matrix(19.371804,0,0,-19.371804,37.615888,110.73139)"/>
<use xlink:href="#font_1_7" transform="matrix(19.371804,0,0,-19.371804,49.383428,110.5183)"/>
<use xlink:href="#font_1_a" transform="matrix(19.371804,0,0,-19.371804,59.162309,110.305217)"/>
<use xlink:href="#font_1_3" transform="matrix(19.371804,0,0,-19.371804,70.18169,110.305217)"/>
<use xlink:href="#font_1_b" transform="matrix(19.371804,0,0,-19.371804,77.37942,110.305217)"/>
<use xlink:href="#font_1_4" transform="matrix(19.371804,0,0,-19.371804,81.72077,110.5183)"/>
<use xlink:href="#font_1_4" transform="matrix(19.371804,0,0,-19.371804,89.38744,110.5183)"/>
<use xlink:href="#font_1_8" transform="matrix(19.371804,0,0,-19.371804,97.2672,110.5183)"/>
<use xlink:href="#font_1_1" transform="matrix(19.371804,0,0,-19.371804,107.82899,110.305217)"/>
<clipPath id="cp2">
<path transform="matrix(.27777777,0,0,-.27777777,0,154.97222)" d="M 8.39844 10.8008 L 546.38247 10.8008 L 546.38247 548.78079 L 8.39844 548.78079 Z "/>
</clipPath>
<g clip-path="url(#cp2)">
<path transform="matrix(.27777777,0,0,-.27777777,0,154.97222)" stroke-width="4.98132" stroke-linecap="butt" stroke-miterlimit="10" stroke-linejoin="miter" fill="none" stroke="#000000" d="M 317.242 244.922 L 316.246 304.699 "/>
<path transform="matrix(.27777777,0,0,-.27777777,0,154.97222)" stroke-width="4.98132" stroke-linecap="butt" stroke-miterlimit="10" stroke-linejoin="miter" fill="none" stroke="#000000" d="M 328.199 243.926 L 330.191 302.707 "/>
<path transform="matrix(.27777777,0,0,-.27777777,0,154.97222)" stroke-width="4.98132" stroke-linecap="butt" stroke-miterlimit="10" stroke-linejoin="miter" fill="none" stroke="#000000" d="M 344.141 242.93 L 342.148 304.699 "/>
</g>
</g>
</svg>
