<?xml version="1.0" encoding="UTF-8" standalone="no"?>
<!DOCTYPE svg PUBLIC "-//W3C//DTD SVG 1.1//EN" "http://www.w3.org/Graphics/SVG/1.1/DTD/svg11.dtd">
<svg xmlns="http://www.w3.org/2000/svg" xmlns:xlink="http://www.w3.org/1999/xlink" version="1.1" width="154.97222pt" height="154.97222pt" viewBox="0 0 154.97222 154.97222">
<g enable-background="new">
<clipPath id="cp0">
<path transform="matrix(.27777777,0,0,-.27777777,0,154.97222)" d="M 277.391 10.8008 L 499.078 10.8008 L 506.605 11.8125 L 515.957 14.7148 L 524.418 19.3086 L 531.789 25.3906 L 537.871 32.7617 L 542.465 41.2227 L 545.367 50.5742 L 546.383 58.1016 L 546.383 60.6133 L 546.383 498.969 L 546.383 501.477 L 545.367 509.004 L 542.465 518.355 L 537.871 526.816 L 531.789 534.188 L 524.418 540.27 L 515.957 544.863 L 506.605 547.766 L 499.078 548.781 L 496.57 548.781 L 58.2148 548.781 L 55.7031 548.781 L 48.1719 547.766 L 38.8242 544.863 L 30.3594 540.27 L 22.9883 534.188 L 16.9063 526.816 L 12.3125 518.355 L 9.41016 509.004 L 8.39844 501.477 L 8.39844 498.969 L 8.39844 60.6133 L 8.39844 58.1016 L 9.41016 50.5742 L 12.3125 41.2227 L 16.9063 32.7617 L 22.9883 25.3906 L 30.3594 19.3086 L 38.8242 14.7148 L 48.1719 11.8125 L 55.7031 10.8008 L 58.2148 10.8008 L 277.391 10.8008 Z "/>
</clipPath>
<g clip-path="url(#cp0)">
<path transform="matrix(.27777777,0,0,-.27777777,0,154.97222)" d="M 8.39844 10.8008 L 546.38247 10.8008 L 546.38247 548.78079 L 8.39844 548.78079 Z " fill="#a6a6a6"/>
</g>
<symbol id="font_1_4">
<path d="M .53900006 .60700008 C .549 .62 .549 .62200006 .549 .64400008 C .549 .671 .54800006 .694 .50100007 .694 L .063 .694 C .020999998 .694 .015000001 .67700007 .015000001 .64500007 C .015000001 .596 .036 .596 .076000008 .596 C .163 .596 .25 .59900006 .337 .59900006 L .37200005 .59900006 L .009999998 .091000009 C 0 .078 0 .076000008 0 .056 L 0 .048 C 0 .012 .011 0 .048 0 L .507 0 C .545 0 .55500009 .013 .55500009 .048 L .55500009 .057000005 C .55500009 .105000007 .53200009 .105000007 .49800004 .105000007 C .41000004 .105000007 .27100004 .10300001 .179 .101 L .53900006 .60700008 Z "/>
</symbol>
<symbol id="font_1_9">
<path d="M .43300004 .32700003 C .43300004 .48500005 .28100003 .48600004 .23100002 .48600004 C .184 .48600004 .134 .48200003 .067 .45400004 C .046000005 .44500003 .041 .44200004 .041 .43100003 C .041 .42400003 .047 .36600004 .048 .358 C .049000004 .35200004 .053999999 .34700004 .061000006 .34700004 C .066 .34700004 .069 .35000003 .072000008 .35300002 C .11500001 .39800004 .165 .42000003 .22700002 .42000003 C .28100003 .42000003 .29700003 .38700003 .29700003 .328 L .29700003 .293 C .26200003 .293 0 .291 0 .14400001 C 0 .074 .056 0 .14400001 0 C .178 0 .25300003 .010000001 .30000005 .079 L .30000005 .059 C .30000005 .027000003 .30700005 .011000001 .34800003 .011000001 L .38500003 .011000001 C .42300005 .011000001 .43300004 .024 .43300004 .059 L .43300004 .32700003 M .29700003 .16500002 C .29700003 .072000008 .202 .072000008 .199 .072000008 C .157 .072000008 .13000001 .108 .13000001 .14600002 C .13000001 .24400002 .26900003 .25100003 .29700003 .252 L .29700003 .16500002 Z "/>
</symbol>
<symbol id="font_1_c">
<path d="M .44 .32500003 C .44 .42800004 .39600004 .469 .294 .469 C .194 .469 .148 .4 .134 .372 L .133 .372 L .133 .646 C .133 .67800006 .126 .694 .08500001 .694 L .048 .694 C .012000002 .694 0 .683 0 .646 L 0 .048 C 0 .012 .011 0 .048 0 L .088 0 C .126 0 .136 .013 .136 .048 L .136 .26900003 C .136 .356 .194 .397 .24600002 .397 C .294 .397 .30400003 .374 .30400003 .323 L .30400003 .048 C .30400003 .016 .31100003 0 .35200004 0 L .39200003 0 C .43 0 .44 .013 .44 .048 L .44 .32500003 Z "/>
</symbol>
<symbol id="font_1_f">
<path d="M .133 .646 C .133 .67800006 .126 .694 .08500001 .694 L .048 .694 C .012000002 .694 0 .683 0 .646 L 0 .048 C 0 .012 .011 0 .048 0 L .08500001 0 C .12300001 0 .133 .013 .133 .048 L .133 .646 Z "/>
</symbol>
<symbol id="font_1_b">
<path d="M .40000005 .22500003 C .42300005 .22500003 .44800005 .22600001 .44800005 .27100004 C .44800005 .40000005 .38800005 .48600004 .23900001 .48600004 C .079 .48600004 0 .39600004 0 .24400002 C 0 .080000009 .095 0 .25200004 0 C .29000003 0 .34700004 .005000001 .41300006 .038000004 C .43500004 .049000004 .44200004 .052 .44200004 .064 C .44200004 .071 .43900005 .1 .43800003 .108 C .43400005 .13900002 .43300004 .14000002 .42400003 .14000002 C .42000006 .14000002 .41800005 .14000002 .40700004 .13000001 C .34800003 .079 .28800003 .072000008 .256 .072000008 C .143 .072000008 .131 .16100002 .128 .22500003 L .40000005 .22500003 M .12900001 .27800004 C .132 .33900003 .15200001 .41400004 .23900001 .41400004 C .31900005 .41400004 .33400003 .35600005 .33700005 .27800004 L .12900001 .27800004 Z "/>
</symbol>
<symbol id="font_1_1">
<path d="M .44 .32500003 C .44 .42800004 .39600004 .469 .294 .469 C .18900001 .469 .14400001 .393 .13100001 .36600004 L .13000001 .36600004 L .13000001 .416 C .13000001 .448 .12300001 .46400003 .082 .46400003 L .048 .46400003 C .012000002 .46400003 0 .453 0 .416 L 0 .048 C 0 .012 .011 0 .048 0 L .088 0 C .126 0 .136 .013 .136 .048 L .136 .26900003 C .136 .356 .194 .397 .24600002 .397 C .294 .397 .30400003 .374 .30400003 .323 L .30400003 .048 C .30400003 .016 .31100003 0 .35200004 0 L .39200003 0 C .43 0 .44 .013 .44 .048 L .44 .32500003 Z "/>
</symbol>
<symbol id="font_1_11">
<path d="M .245 0 C .25700004 0 .293 0 .293 .036000015 C .293 .07200001 .25700004 .07200001 .245 .07200001 L .048 .07200001 C .036 .07200001 0 .07200001 0 .036000015 C 0 0 .036 0 .048 0 L .245 0 Z "/>
</symbol>
<symbol id="font_1_5">
<path d="M .048000009 .694 C .012000002 .694 0 .683 0 .646 L 0 .048 C 0 .012 .011 0 .048000009 0 L .31200005 0 C .556 0 .64100006 .14600002 .64100006 .342 C .64100006 .42100004 .628 .518 .572 .58900007 C .49699999 .68200007 .37700004 .694 .31200005 .694 L .048000009 .694 M .14400001 .086 L .14400001 .60800006 L .272 .60800006 C .48800005 .60800006 .49699999 .45400004 .49699999 .342 C .49699999 .22900002 .486 .086 .273 .086 L .14400001 .086 Z "/>
</symbol>
<symbol id="font_1_2">
<path d="M .48700003 .23600002 C .48700003 .40000005 .40700004 .48600004 .244 .48600004 C .077 .48600004 0 .397 0 .23600002 C 0 .07300001 .086 0 .24300002 0 C .40000005 0 .48700003 .072000008 .48700003 .23600002 M .244 .078 C .136 .078 .136 .16800002 .136 .24800003 C .136 .32500003 .136 .41400004 .24300002 .41400004 C .35100005 .41400004 .35100005 .32600004 .35100005 .24800003 C .35100005 .16900002 .35100005 .078 .244 .078 Z "/>
</symbol>
<symbol id="font_1_10">
<path d="M .74600008 .32500003 C .74600008 .42800004 .702 .469 .6 .469 C .52900007 .469 .47400005 .43600003 .43800003 .37 C .42200003 .46600003 .337 .469 .29500003 .469 C .27600003 .469 .234 .469 .18900001 .43600003 C .158 .41300003 .13800001 .381 .13100001 .36600004 L .13000001 .36600004 L .13000001 .416 C .13000001 .448 .12300001 .46400003 .082 .46400003 L .048 .46400003 C .012000002 .46400003 0 .453 0 .416 L 0 .048 C 0 .012 .011 0 .048 0 L .088 0 C .126 0 .136 .013 .136 .048 L .136 .26900003 C .136 .35900004 .197 .397 .24600002 .397 C .294 .397 .305 .37600003 .305 .323 L .305 .048 C .305 .012 .316 0 .35300002 0 L .393 0 C .43100003 0 .44100005 .013 .44100005 .048 L .44100005 .26900003 C .44100005 .35900004 .50200006 .397 .551 .397 C .59900006 .397 .61 .37600003 .61 .323 L .61 .048 C .61 .012 .62100008 0 .65800008 0 L .698 0 C .73600009 0 .74600008 .013 .74600008 .048 L .74600008 .32500003 Z "/>
</symbol>
<symbol id="font_1_8">
<path d="M .19800002 .397 L .287 .397 C .299 .397 .335 .397 .335 .43300004 C .335 .46900005 .299 .46900005 .287 .46900005 L .19800002 .46900005 L .19800002 .552 C .19800002 .584 .19100002 .6 .15 .6 L .11900001 .6 C .083000008 .6 .071 .589 .071 .552 L .071 .46900005 L .048 .46900005 C .037 .46900005 0 .46900005 0 .43300004 C 0 .397 .036 .397 .048 .397 L .068 .397 L .068 .14400001 C .068 .043 .104 0 .17300001 0 C .18200001 0 .22600001 0 .278 .016 C .29500003 .021000002 .35300002 .039 .35300002 .058000003 C .35300002 .061 .351 .068 .345 .089 C .34 .109000008 .338 .115 .329 .115 C .324 .115 .323 .11400001 .317 .108 C .306 .1 .279 .078 .237 .078 C .21300002 .078 .19800002 .095000009 .19800002 .16100002 L .19800002 .397 Z "/>
</symbol>
<symbol id="font_1_7">
<path d="M .36500005 .15200001 C .36500005 .20800002 .33500005 .24300002 .31700004 .259 C .27700005 .29500003 .242 .30100004 .2 .30900003 C .14500001 .31900005 .105000007 .32700003 .105000007 .36600004 C .105000007 .40700004 .13800001 .41500003 .177 .41500003 C .244 .41500003 .28000004 .39000003 .30600003 .36800004 C .316 .358 .31800003 .358 .32200004 .358 C .33200003 .358 .33400003 .367 .33500005 .37100003 C .33700005 .37900005 .34700004 .43500004 .34700004 .44000004 C .34700004 .45600004 .29400004 .47000004 .28300003 .47400005 C .24300002 .48500005 .21100001 .48600004 .185 .48600004 C .14 .48600004 .005999999 .48600004 .005999999 .34300003 C .005999999 .29400004 .028000003 .26400004 .055 .24000003 C .09 .20800002 .12900001 .20100002 .186 .19000001 C .215 .18500002 .26600004 .17600002 .26600004 .13200002 C .26600004 .085 .22700002 .078 .18800001 .078 C .14400001 .078 .088 .091000009 .041 .14700002 C .036 .15200001 .033 .15500002 .027 .15500002 C .016999999 .15500002 .015000002 .14600002 .014 .14000002 C .012 .126 0 .069000009 0 .059 C 0 .041 .074 .018000002 .075 .017 C .13000001 0 .171 0 .18800001 0 C .23900001 0 .36500005 .0040000008 .36500005 .15200001 Z "/>
</symbol>
<symbol id="font_1_a">
<path d="M .42000003 .061 C .42000003 .072000008 .416 .11800001 .41400004 .13100001 C .41400004 .134 .41200004 .14400001 .402 .14400001 C .39800004 .14400001 .39600004 .14400001 .386 .134 C .36900003 .119 .32200004 .078 .24000001 .078 C .136 .078 .136 .17900002 .136 .24300002 C .136 .32400004 .141 .40800003 .243 .40800003 C .30800004 .40800003 .335 .39200003 .37100003 .36200003 C .38300003 .351 .38500003 .351 .38900004 .351 C .39900003 .351 .40100003 .36 .402 .36400003 C .404 .37200005 .41400004 .42800004 .41400004 .43300004 C .41400004 .44200004 .40700004 .44600005 .39000003 .45400004 C .342 .47600005 .312 .48600004 .24200002 .48600004 C .09300001 .48600004 0 .41600005 0 .24100001 C 0 .075 .086 0 .23700002 0 C .26400004 0 .32400004 .0010000002 .39100004 .035 C .41900004 .05 .42000003 .051000004 .42000003 .061 Z "/>
</symbol>
<symbol id="font_1_6">
<path d="M .133 .23 C .133 .32500003 .212 .36400003 .27500005 .36800004 C .29299999 .36900003 .29500003 .36900003 .29500003 .395 L .29500003 .44200004 C .29500003 .462 .29500003 .469 .277 .469 C .249 .469 .17600002 .45900003 .12900001 .351 L .128 .351 L .128 .416 C .128 .448 .12100001 .46400003 .08 .46400003 L .048 .46400003 C .012000002 .46400003 0 .453 0 .416 L 0 .048 C 0 .012 .011 0 .048 0 L .08500001 0 C .12300001 0 .133 .013 .133 .048 L .133 .23 Z "/>
</symbol>
<symbol id="font_1_e">
<path d="M .22100002 .46300004 C .199 .46800003 .137 .49100004 .137 .54800006 C .137 .633 .22200004 .63500007 .256 .63500007 C .31200005 .63500007 .36200003 .62200006 .411 .57400009 C .42700003 .559 .42800004 .558 .43200005 .558 C .43800003 .558 .44300003 .56100007 .44600005 .57600006 L .46100006 .66300007 C .46300004 .67100009 .46300004 .67300006 .46300004 .67600008 C .46300004 .6840001 .46200005 .68500009 .43700005 .6980001 C .36600004 .73300006 .307 .73800006 .256 .73800006 C .167 .73800006 .012000002 .71700009 .012000002 .53000006 C .012000002 .45900003 .049000004 .41300006 .068 .39300005 C .11900001 .34100003 .16600001 .33100004 .24400002 .31300003 C .3 .30000005 .32200004 .29500003 .344 .27500005 C .35400004 .26500003 .37500004 .24400002 .37500004 .20600002 C .37500004 .112 .28900004 .109000008 .256 .109000008 C .17200002 .109000008 .099 .143 .049000004 .18800001 C .037 .2 .035000005 .2 .031000004 .2 C .024999999 .2 .020000004 .19700001 .016999998 .18200001 L .0020000004 .095000009 C 0 .087000008 0 .085 0 .082 C 0 .061000006 .10400001 .025000003 .109000008 .023000002 C .176 .0020000004 .23000002 0 .256 0 C .40600003 0 .5 .067 .5 .222 C .5 .33400003 .41700004 .41800005 .31700004 .44100005 L .22100002 .46300004 Z "/>
</symbol>
<symbol id="font_1_3">
<path d="M .136 .23300001 C .18100001 .183 .23600002 .183 .25 .183 C .462 .183 .462 .375 .462 .425 C .462 .474 .462 .663 .28100003 .663 C .22200002 .663 .169 .63900008 .133 .605 C .133 .642 .119 .65200009 .08500001 .65200009 L .048 .65200009 C .012000002 .65200009 0 .64100006 0 .60400006 L 0 .047999994 C 0 .0119999949 .011 0 .048 0 L .088 0 C .126 0 .136 .012999997 .136 .047999994 L .136 .23300001 M .136 .55200007 C .147 .56200006 .18 .58500006 .223 .58500006 C .325 .58500006 .32600004 .467 .32600004 .42300005 C .32600004 .38300003 .32600004 .255 .21300002 .255 C .19000001 .255 .172 .263 .16000001 .272 C .136 .289 .136 .294 .136 .312 L .136 .55200007 Z "/>
</symbol>
<symbol id="font_1_d">
<path d="M .048000006 .69500008 C .015999999 .69500008 0 .689 0 .64900007 L 0 .60300007 C 0 .57100006 .010000002 .558 .047000003 .558 L .09900001 .558 C .147 .558 .147 .57900008 .147 .62600007 C .147 .674 .147 .69500008 .09900001 .69500008 L .048000006 .69500008 M .14 .41000004 C .14 .44200004 .133 .45800004 .09200001 .45800004 L .055000005 .45800004 C .019000005 .45800004 .007000003 .44700004 .007000003 .41000004 L .007000003 .048 C .007000003 .012 .018000003 0 .055000005 0 L .09200001 0 C .13000001 0 .14 .013 .14 .048 L .14 .41000004 Z "/>
</symbol>
<use xlink:href="#font_1_4" transform="matrix(19.371804,0,0,-19.371804,44.84807,57.639444)"/>
<use xlink:href="#font_1_9" transform="matrix(19.371804,0,0,-19.371804,57.26692,57.85253)"/>
<use xlink:href="#font_1_c" transform="matrix(19.371804,0,0,-19.371804,68.16203,57.639444)"/>
<use xlink:href="#font_1_f" transform="matrix(19.371804,0,0,-19.371804,79.18141,57.639444)"/>
<use xlink:href="#font_1_b" transform="matrix(19.371804,0,0,-19.371804,83.60026,57.85253)"/>
<use xlink:href="#font_1_1" transform="matrix(19.371804,0,0,-19.371804,94.16205,57.639444)"/>
<use xlink:href="#font_1_11" transform="matrix(19.371804,0,0,-19.371804,104.23221,53.900686)"/>
<use xlink:href="#font_1_5" transform="matrix(19.371804,0,0,-19.371804,19.763003,82.63944)"/>
<use xlink:href="#font_1_2" transform="matrix(19.371804,0,0,-19.371804,33.93403,82.85253)"/>
<use xlink:href="#font_1_f" transform="matrix(19.371804,0,0,-19.371804,45.181856,82.63944)"/>
<use xlink:href="#font_1_10" transform="matrix(19.371804,0,0,-19.371804,50.162485,82.63944)"/>
<use xlink:href="#font_1_b" transform="matrix(19.371804,0,0,-19.371804,66.26737,82.85253)"/>
<use xlink:href="#font_1_8" transform="matrix(19.371804,0,0,-19.371804,76.05429,82.85253)"/>
<use xlink:href="#font_1_7" transform="matrix(19.371804,0,0,-19.371804,83.93405,82.85253)"/>
<use xlink:href="#font_1_a" transform="matrix(19.371804,0,0,-19.371804,92.38361,82.85253)"/>
<use xlink:href="#font_1_c" transform="matrix(19.371804,0,0,-19.371804,102.162509,82.63944)"/>
<use xlink:href="#font_1_b" transform="matrix(19.371804,0,0,-19.371804,112.60073,82.85253)"/>
<use xlink:href="#font_1_6" transform="matrix(19.371804,0,0,-19.371804,123.18189,82.63944)"/>
<use xlink:href="#font_1_11" transform="matrix(19.371804,0,0,-19.371804,129.56601,78.90068)"/>
<use xlink:href="#font_1_e" transform="matrix(19.371804,0,0,-19.371804,56.94966,108.06562)"/>
<use xlink:href="#font_1_3" transform="matrix(19.371804,0,0,-19.371804,69.18213,111.397579)"/>
<use xlink:href="#font_1_d" transform="matrix(19.371804,0,0,-19.371804,80.04653,107.63944)"/>
<use xlink:href="#font_1_b" transform="matrix(19.371804,0,0,-19.371804,84.600978,107.85253)"/>
<use xlink:href="#font_1_f" transform="matrix(19.371804,0,0,-19.371804,95.182147,107.63944)"/>
</g>
</svg>
