<?xml version="1.0" encoding="UTF-8" standalone="no"?>
<!DOCTYPE svg PUBLIC "-//W3C//DTD SVG 1.1//EN" "http://www.w3.org/Graphics/SVG/1.1/DTD/svg11.dtd">
<svg xmlns="http://www.w3.org/2000/svg" xmlns:xlink="http://www.w3.org/1999/xlink" version="1.1" width="154.97222pt" height="154.97222pt" viewBox="0 0 154.97222 154.97222">
<g enable-background="new">
<clipPath id="cp0">
<path transform="matrix(.27777777,0,0,-.27777777,0,154.97222)" d="M 277.391 10.8008 L 499.078 10.8008 L 506.605 11.8125 L 515.957 14.7148 L 524.418 19.3086 L 531.789 25.3906 L 537.871 32.7617 L 542.465 41.2227 L 545.367 50.5742 L 546.383 58.1016 L 546.383 60.6133 L 546.383 498.969 L 546.383 501.477 L 545.367 509.004 L 542.465 518.355 L 537.871 526.816 L 531.789 534.188 L 524.418 540.27 L 515.957 544.863 L 506.605 547.766 L 499.078 548.781 L 496.57 548.781 L 58.2148 548.781 L 55.7031 548.781 L 48.1719 547.766 L 38.8242 544.863 L 30.3594 540.27 L 22.9883 534.188 L 16.9063 526.816 L 12.3125 518.355 L 9.41016 509.004 L 8.39844 501.477 L 8.39844 498.969 L 8.39844 60.6133 L 8.39844 58.1016 L 9.41016 50.5742 L 12.3125 41.2227 L 16.9063 32.7617 L 22.9883 25.3906 L 30.3594 19.3086 L 38.8242 14.7148 L 48.1719 11.8125 L 55.7031 10.8008 L 58.2148 10.8008 L 277.391 10.8008 Z "/>
</clipPath>
<g clip-path="url(#cp0)">
<path transform="matrix(.27777777,0,0,-.27777777,0,154.97222)" d="M 8.39844 10.8008 L 546.38247 10.8008 L 546.38247 548.78079 L 8.39844 548.78079 Z " fill="#a6a6a6"/>
</g>
<symbol id="font_1_c">
<path d="M .67300006 .64900007 C .67700007 .661 .67800006 .66200008 .67800006 .66700008 C .67800006 .694 .653 .694 .639 .694 L .6 .694 C .579 .694 .55 .694 .53400006 .65000006 L .39900003 .279 L .347 .125 C .34600003 .128 .335 .163 .32 .20400001 L .158 .651 C .14200002 .694 .114 .694 .093 .694 L .038999998 .694 C .025 .694 0 .694 0 .66700008 C 0 .66200008 .0010000002 .661 .005000001 .64900007 L .22900002 .042000005 C .24400003 0 .273 0 .293 0 L .38500003 0 C .40600003 0 .43400003 0 .45000003 .044000005 L .67300006 .64900007 Z "/>
</symbol>
<symbol id="font_1_8">
<path d="M .40000005 .22500003 C .42300005 .22500003 .44800005 .22600001 .44800005 .27100004 C .44800005 .40000005 .38800005 .48600004 .23900001 .48600004 C .079 .48600004 0 .39600004 0 .24400002 C 0 .080000009 .095 0 .25200004 0 C .29000003 0 .34700004 .005000001 .41300006 .038000004 C .43500004 .049000004 .44200004 .052 .44200004 .064 C .44200004 .071 .43900005 .1 .43800003 .108 C .43400005 .13900002 .43300004 .14000002 .42400003 .14000002 C .42000006 .14000002 .41800005 .14000002 .40700004 .13000001 C .34800003 .079 .28800003 .072000008 .256 .072000008 C .143 .072000008 .131 .16100002 .128 .22500003 L .40000005 .22500003 M .12900001 .27800004 C .132 .33900003 .15200001 .41400004 .23900001 .41400004 C .31900005 .41400004 .33400003 .35600005 .33700005 .27800004 L .12900001 .27800004 Z "/>
</symbol>
<symbol id="font_1_2">
<path d="M .133 .23 C .133 .32500003 .212 .36400003 .27500005 .36800004 C .29299999 .36900003 .29500003 .36900003 .29500003 .395 L .29500003 .44200004 C .29500003 .462 .29500003 .469 .277 .469 C .249 .469 .17600002 .45900003 .12900001 .351 L .128 .351 L .128 .416 C .128 .448 .12100001 .46400003 .08 .46400003 L .048 .46400003 C .012000002 .46400003 0 .453 0 .416 L 0 .048 C 0 .012 .011 0 .048 0 L .08500001 0 C .12300001 0 .133 .013 .133 .048 L .133 .23 Z "/>
</symbol>
<symbol id="font_1_3">
<path d="M .36500005 .15200001 C .36500005 .20800002 .33500005 .24300002 .31700004 .259 C .27700005 .29500003 .242 .30100004 .2 .30900003 C .14500001 .31900005 .105000007 .32700003 .105000007 .36600004 C .105000007 .40700004 .13800001 .41500003 .177 .41500003 C .244 .41500003 .28000004 .39000003 .30600003 .36800004 C .316 .358 .31800003 .358 .32200004 .358 C .33200003 .358 .33400003 .367 .33500005 .37100003 C .33700005 .37900005 .34700004 .43500004 .34700004 .44000004 C .34700004 .45600004 .29400004 .47000004 .28300003 .47400005 C .24300002 .48500005 .21100001 .48600004 .185 .48600004 C .14 .48600004 .005999999 .48600004 .005999999 .34300003 C .005999999 .29400004 .028000003 .26400004 .055 .24000003 C .09 .20800002 .12900001 .20100002 .186 .19000001 C .215 .18500002 .26600004 .17600002 .26600004 .13200002 C .26600004 .085 .22700002 .078 .18800001 .078 C .14400001 .078 .088 .091000009 .041 .14700002 C .036 .15200001 .033 .15500002 .027 .15500002 C .016999999 .15500002 .015000002 .14600002 .014 .14000002 C .012 .126 0 .069000009 0 .059 C 0 .041 .074 .018000002 .075 .017 C .13000001 0 .171 0 .18800001 0 C .23900001 0 .36500005 .0040000008 .36500005 .15200001 Z "/>
</symbol>
<symbol id="font_1_6">
<path d="M .42000003 .061 C .42000003 .072000008 .416 .11800001 .41400004 .13100001 C .41400004 .134 .41200004 .14400001 .402 .14400001 C .39800004 .14400001 .39600004 .14400001 .386 .134 C .36900003 .119 .32200004 .078 .24000001 .078 C .136 .078 .136 .17900002 .136 .24300002 C .136 .32400004 .141 .40800003 .243 .40800003 C .30800004 .40800003 .335 .39200003 .37100003 .36200003 C .38300003 .351 .38500003 .351 .38900004 .351 C .39900003 .351 .40100003 .36 .402 .36400003 C .404 .37200005 .41400004 .42800004 .41400004 .43300004 C .41400004 .44200004 .40700004 .44600005 .39000003 .45400004 C .342 .47600005 .312 .48600004 .24200002 .48600004 C .09300001 .48600004 0 .41600005 0 .24100001 C 0 .075 .086 0 .23700002 0 C .26400004 0 .32400004 .0010000002 .39100004 .035 C .41900004 .05 .42000003 .051000004 .42000003 .061 Z "/>
</symbol>
<symbol id="font_1_9">
<path d="M .44 .32500003 C .44 .42800004 .39600004 .469 .294 .469 C .194 .469 .148 .4 .134 .372 L .133 .372 L .133 .646 C .133 .67800006 .126 .694 .08500001 .694 L .048 .694 C .012000002 .694 0 .683 0 .646 L 0 .048 C 0 .012 .011 0 .048 0 L .088 0 C .126 0 .136 .013 .136 .048 L .136 .26900003 C .136 .356 .194 .397 .24600002 .397 C .294 .397 .30400003 .374 .30400003 .323 L .30400003 .048 C .30400003 .016 .31100003 0 .35200004 0 L .39200003 0 C .43 0 .44 .013 .44 .048 L .44 .32500003 Z "/>
</symbol>
<symbol id="font_1_a">
<path d="M .048000006 .69500008 C .015999999 .69500008 0 .689 0 .64900007 L 0 .60300007 C 0 .57100006 .010000002 .558 .047000003 .558 L .09900001 .558 C .147 .558 .147 .57900008 .147 .62600007 C .147 .674 .147 .69500008 .09900001 .69500008 L .048000006 .69500008 M .14 .41000004 C .14 .44200004 .133 .45800004 .09200001 .45800004 L .055000005 .45800004 C .019000005 .45800004 .007000003 .44700004 .007000003 .41000004 L .007000003 .048 C .007000003 .012 .018000003 0 .055000005 0 L .09200001 0 C .13000001 0 .14 .013 .14 .048 L .14 .41000004 Z "/>
</symbol>
<symbol id="font_1_7">
<path d="M .462 .657 C .462 .689 .455 .705 .41400004 .705 L .37700004 .705 C .33900003 .705 .32900004 .69200006 .32900004 .657 L .32900004 .43000005 C .284 .47300003 .23400003 .48000003 .20300001 .48000003 C 0 .48000003 0 .28800003 0 .23900002 C 0 .19300002 0 0 .19800002 0 C .24000001 0 .28300003 .012000001 .326 .058000003 C .326 .021000002 .34 .011000001 .374 .011000001 L .41400004 .011000001 C .45200003 .011000001 .462 .024 .462 .059 L .462 .657 M .326 .136 C .326 .119 .326 .11000001 .29700003 .09 C .272 .074 .24900002 .072000008 .23700002 .072000008 C .136 .072000008 .136 .16400002 .136 .23900002 C .136 .314 .136 .40800003 .24800003 .40800003 C .277 .40800003 .30400003 .39800004 .326 .37700004 L .326 .136 Z "/>
</symbol>
<symbol id="font_1_1">
<path d="M .44 .32500003 C .44 .42800004 .39600004 .469 .294 .469 C .18900001 .469 .14400001 .393 .13100001 .36600004 L .13000001 .36600004 L .13000001 .416 C .13000001 .448 .12300001 .46400003 .082 .46400003 L .048 .46400003 C .012000002 .46400003 0 .453 0 .416 L 0 .048 C 0 .012 .011 0 .048 0 L .088 0 C .126 0 .136 .013 .136 .048 L .136 .26900003 C .136 .356 .194 .397 .24600002 .397 C .294 .397 .30400003 .374 .30400003 .323 L .30400003 .048 C .30400003 .016 .31100003 0 .35200004 0 L .39200003 0 C .43 0 .44 .013 .44 .048 L .44 .32500003 Z "/>
</symbol>
<symbol id="font_1_b">
<path d="M .22100002 .46300004 C .199 .46800003 .137 .49100004 .137 .54800006 C .137 .633 .22200004 .63500007 .256 .63500007 C .31200005 .63500007 .36200003 .62200006 .411 .57400009 C .42700003 .559 .42800004 .558 .43200005 .558 C .43800003 .558 .44300003 .56100007 .44600005 .57600006 L .46100006 .66300007 C .46300004 .67100009 .46300004 .67300006 .46300004 .67600008 C .46300004 .6840001 .46200005 .68500009 .43700005 .6980001 C .36600004 .73300006 .307 .73800006 .256 .73800006 C .167 .73800006 .012000002 .71700009 .012000002 .53000006 C .012000002 .45900003 .049000004 .41300006 .068 .39300005 C .11900001 .34100003 .16600001 .33100004 .24400002 .31300003 C .3 .30000005 .32200004 .29500003 .344 .27500005 C .35400004 .26500003 .37500004 .24400002 .37500004 .20600002 C .37500004 .112 .28900004 .109000008 .256 .109000008 C .17200002 .109000008 .099 .143 .049000004 .18800001 C .037 .2 .035000005 .2 .031000004 .2 C .024999999 .2 .020000004 .19700001 .016999998 .18200001 L .0020000004 .095000009 C 0 .087000008 0 .085 0 .082 C 0 .061000006 .10400001 .025000003 .109000008 .023000002 C .176 .0020000004 .23000002 0 .256 0 C .40600003 0 .5 .067 .5 .222 C .5 .33400003 .41700004 .41800005 .31700004 .44100005 L .22100002 .46300004 Z "/>
</symbol>
<symbol id="font_1_5">
<path d="M .439 .61600008 C .444 .62900009 .444 .63100007 .444 .63600006 C .444 .66300007 .417 .66300007 .404 .66300007 L .382 .66300007 C .366 .66300007 .344 .66300007 .329 .64000007 C .326 .635 .24500002 .41400004 .24000003 .347 L .23900001 .347 C .23400001 .39600004 .19300002 .48900003 .15 .58500006 C .12200001 .648 .11500001 .66300007 .065000008 .66300007 L .039000006 .66300007 C .025 .66300007 0 .66300007 0 .637 C 0 .633 .0030000006 .62600007 .005000001 .62100008 L .194 .20500002 C .186 .18400002 .18300002 .17300001 .18 .16300002 C .16800002 .13000001 .15100001 .08500001 .097 .08500001 C .064 .08500001 .041 .09900001 .030000003 .106000009 C .025 .10900001 .023 .11000001 .020000002 .11000001 C .015000002 .11000001 .007000001 .10700001 .007000001 .095000009 C .007000001 .087000008 .013000002 .018000007 .016 .013999999 C .025 .002000004 .079 0 .095000009 0 C .21900001 0 .268 .11800001 .276 .14200002 L .439 .61600008 Z "/>
</symbol>
<symbol id="font_1_4">
<path d="M .19800002 .397 L .287 .397 C .299 .397 .335 .397 .335 .43300004 C .335 .46900005 .299 .46900005 .287 .46900005 L .19800002 .46900005 L .19800002 .552 C .19800002 .584 .19100002 .6 .15 .6 L .11900001 .6 C .083000008 .6 .071 .589 .071 .552 L .071 .46900005 L .048 .46900005 C .037 .46900005 0 .46900005 0 .43300004 C 0 .397 .036 .397 .048 .397 L .068 .397 L .068 .14400001 C .068 .043 .104 0 .17300001 0 C .18200001 0 .22600001 0 .278 .016 C .29500003 .021000002 .35300002 .039 .35300002 .058000003 C .35300002 .061 .351 .068 .345 .089 C .34 .109000008 .338 .115 .329 .115 C .324 .115 .323 .11400001 .317 .108 C .306 .1 .279 .078 .237 .078 C .21300002 .078 .19800002 .095000009 .19800002 .16100002 L .19800002 .397 Z "/>
</symbol>
<symbol id="font_1_d">
<path d="M .74600008 .32500003 C .74600008 .42800004 .702 .469 .6 .469 C .52900007 .469 .47400005 .43600003 .43800003 .37 C .42200003 .46600003 .337 .469 .29500003 .469 C .27600003 .469 .234 .469 .18900001 .43600003 C .158 .41300003 .13800001 .381 .13100001 .36600004 L .13000001 .36600004 L .13000001 .416 C .13000001 .448 .12300001 .46400003 .082 .46400003 L .048 .46400003 C .012000002 .46400003 0 .453 0 .416 L 0 .048 C 0 .012 .011 0 .048 0 L .088 0 C .126 0 .136 .013 .136 .048 L .136 .26900003 C .136 .35900004 .197 .397 .24600002 .397 C .294 .397 .305 .37600003 .305 .323 L .305 .048 C .305 .012 .316 0 .35300002 0 L .393 0 C .43100003 0 .44100005 .013 .44100005 .048 L .44100005 .26900003 C .44100005 .35900004 .50200006 .397 .551 .397 C .59900006 .397 .61 .37600003 .61 .323 L .61 .048 C .61 .012 .62100008 0 .65800008 0 L .698 0 C .73600009 0 .74600008 .013 .74600008 .048 L .74600008 .32500003 Z "/>
</symbol>
<use xlink:href="#font_1_c" transform="matrix(19.371804,0,0,-19.371804,19.856816,82.639438)"/>
<use xlink:href="#font_1_8" transform="matrix(19.371804,0,0,-19.371804,33.600755,82.85252)"/>
<use xlink:href="#font_1_2" transform="matrix(19.371804,0,0,-19.371804,44.181917,82.639438)"/>
<use xlink:href="#font_1_3" transform="matrix(19.371804,0,0,-19.371804,50.934095,82.85252)"/>
<use xlink:href="#font_1_6" transform="matrix(19.371804,0,0,-19.371804,59.38366,82.85252)"/>
<use xlink:href="#font_1_9" transform="matrix(19.371804,0,0,-19.371804,69.162548,82.639438)"/>
<use xlink:href="#font_1_a" transform="matrix(19.371804,0,0,-19.371804,80.04632,82.639438)"/>
<use xlink:href="#font_1_8" transform="matrix(19.371804,0,0,-19.371804,84.60076,82.85252)"/>
<use xlink:href="#font_1_7" transform="matrix(19.371804,0,0,-19.371804,94.71701,82.85252)"/>
<use xlink:href="#font_1_8" transform="matrix(19.371804,0,0,-19.371804,105.600788,82.85252)"/>
<use xlink:href="#font_1_1" transform="matrix(19.371804,0,0,-19.371804,116.162578,82.639438)"/>
<use xlink:href="#font_1_8" transform="matrix(19.371804,0,0,-19.371804,126.6008,82.85252)"/>
<use xlink:href="#font_1_b" transform="matrix(19.371804,0,0,-19.371804,40.949216,108.06561)"/>
<use xlink:href="#font_1_5" transform="matrix(19.371804,0,0,-19.371804,52.561784,111.61066)"/>
<use xlink:href="#font_1_3" transform="matrix(19.371804,0,0,-19.371804,62.267198,107.85252)"/>
<use xlink:href="#font_1_4" transform="matrix(19.371804,0,0,-19.371804,70.38744,107.85252)"/>
<use xlink:href="#font_1_8" transform="matrix(19.371804,0,0,-19.371804,78.267208,107.85252)"/>
<use xlink:href="#font_1_d" transform="matrix(19.371804,0,0,-19.371804,88.82899,107.639438)"/>
<use xlink:href="#font_1_8" transform="matrix(19.371804,0,0,-19.371804,104.933879,107.85252)"/>
<clipPath id="cp2">
<path transform="matrix(.27777777,0,0,-.27777777,0,154.97222)" d="M 327.203 389.379 L 327.203 389.379 L 327.203 391.887 L 326.188 399.414 L 323.285 408.766 L 318.691 417.227 L 312.609 424.602 L 305.238 430.684 L 296.777 435.277 L 287.426 438.18 L 279.898 439.195 L 277.391 439.195 L 274.879 439.195 L 267.352 438.18 L 258 435.277 L 249.539 430.684 L 242.168 424.602 L 236.086 417.227 L 231.492 408.766 L 228.59 399.414 L 227.578 391.887 L 227.578 389.379 L 227.578 386.867 L 228.59 379.34 L 231.492 369.988 L 236.086 361.527 L 242.168 354.156 L 249.539 348.074 L 258 343.48 L 267.352 340.578 L 274.879 339.566 L 277.391 339.566 L 279.898 339.566 L 287.426 340.578 L 296.777 343.48 L 305.238 348.074 L 312.609 354.156 L 318.691 361.527 L 323.285 369.988 L 326.188 379.34 L 327.203 386.867 L 327.203 389.379 Z "/>
</clipPath>
<g clip-path="url(#cp2)">
<path transform="matrix(.27777777,0,0,-.27777777,0,154.97222)" d="M 227.578 339.566 L 327.203 339.566 L 327.203 439.19493 L 227.578 439.19493 Z " fill="#0771ca"/>
</g>
<clipPath id="cp3">
<path transform="matrix(.27777777,0,0,-.27777777,0,154.97222)" d="M 8.39844 10.8008 L 546.38247 10.8008 L 546.38247 548.78079 L 8.39844 548.78079 Z "/>
</clipPath>
<g clip-path="url(#cp3)">
<path transform="matrix(.27777777,0,0,-.27777777,0,154.97222)" stroke-width="9.96264" stroke-linecap="butt" stroke-miterlimit="10" stroke-linejoin="miter" fill="none" stroke="#ffffff" d="M 277.391 404.324 L 277.391 359.492 "/>
</g>
<clipPath id="cp4">
<path transform="matrix(.27777777,0,0,-.27777777,0,154.97222)" d="M 284.863 419.27 L 284.863 419.27 L 284.863 419.996 L 284.273 422.176 L 282.672 424.551 L 280.297 426.148 L 278.117 426.738 L 277.391 426.738 L 276.66 426.738 L 274.48 426.148 L 272.105 424.551 L 270.504 422.176 L 269.918 419.996 L 269.918 419.27 L 269.918 418.539 L 270.504 416.359 L 272.105 413.984 L 274.48 412.383 L 276.66 411.797 L 277.391 411.797 L 278.117 411.797 L 280.297 412.383 L 282.672 413.984 L 284.273 416.359 L 284.863 418.539 L 284.863 419.27 Z "/>
</clipPath>
<g clip-path="url(#cp4)">
<path transform="matrix(.27777777,0,0,-.27777777,0,154.97222)" d="M 269.918 411.797 L 284.8633 411.797 L 284.8633 426.7384 L 269.918 426.7384 Z " fill="#ffffff"/>
</g>
<clipPath id="cp5">
<path transform="matrix(.27777777,0,0,-.27777777,0,154.97222)" d="M 8.39844 10.8008 L 546.38247 10.8008 L 546.38247 548.78079 L 8.39844 548.78079 Z "/>
</clipPath>
<g clip-path="url(#cp5)">
<path transform="matrix(.27777777,0,0,-.27777777,0,154.97222)" stroke-width="5.97758" stroke-linecap="butt" stroke-miterlimit="10" stroke-linejoin="miter" fill="none" stroke="#ffffff" d="M 265.438 401.336 L 277.391 401.336 "/>
<path transform="matrix(.27777777,0,0,-.27777777,0,154.97222)" stroke-width="5.97758" stroke-linecap="butt" stroke-miterlimit="10" stroke-linejoin="miter" fill="none" stroke="#ffffff" d="M 265.438 362.48 L 289.348 362.48 "/>
</g>
</g>
</svg>
