<?xml version="1.0" encoding="UTF-8" standalone="no"?>
<!DOCTYPE svg PUBLIC "-//W3C//DTD SVG 1.1//EN" "http://www.w3.org/Graphics/SVG/1.1/DTD/svg11.dtd">
<svg xmlns="http://www.w3.org/2000/svg" xmlns:xlink="http://www.w3.org/1999/xlink" version="1.1" width="1494.3888pt" height="44.277776pt" viewBox="0 0 1494.3888 44.277776">
<g enable-background="new">
<symbol id="font_0_e">
<path d="M .87600007 .60600009 C .892 .65400007 .921 .6740001 .971 .6750001 L .971 .70400008 C .92800006 .7020001 .926 .7020001 .882 .7020001 C .856 .7020001 .80200007 .7020001 .778 .70400008 L .778 .6750001 C .83900007 .6740001 .857 .6420001 .857 .62200006 C .857 .61700007 .85400006 .609 .852 .60200008 L .7 .128 L .538 .63100007 C .537 .63400009 .535 .6420001 .535 .64500007 C .535 .6750001 .588 .6750001 .612 .6750001 L .612 .70400008 C .588 .7020001 .514 .7020001 .48500005 .7020001 C .45600004 .7020001 .39500005 .7020001 .36900003 .70400008 L .36900003 .6750001 C .42200003 .6750001 .43600003 .67200008 .44700004 .65400007 C .45400004 .64100006 .46100004 .6100001 .47400005 .57400009 L .33100004 .128 L .171 .62600007 C .16600001 .64000007 .16600001 .6420001 .16600001 .64500007 C .16600001 .6750001 .21700001 .6750001 .24300002 .6750001 L .24300002 .70400008 C .22000002 .7020001 .14400001 .7020001 .116 .7020001 C .087 .7020001 .026 .7020001 0 .70400008 L 0 .6750001 C .054 .6750001 .073 .6750001 .08500001 .6370001 L .28300003 .019000002 C .28800003 .0040000008 .29200004 0 .30100004 0 C .30900003 0 .31400005 .0030000006 .31900005 .018000002 L .48500005 .53700008 L .652 .018000002 C .657 .0030000006 .662 0 .67 0 C .679 0 .683 .0040000008 .688 .019000002 L .87600007 .60600009 Z "/>
</symbol>
<symbol id="font_0_8">
<path d="M .35300002 .24200002 C .37500004 .24200002 .377 .24200002 .377 .261 C .377 .36200003 .323 .456 .202 .456 C .08800001 .456 0 .35300002 0 .22900002 C 0 .097 .102 0 .21300002 0 C .33200003 0 .377 .108 .377 .12900001 C .377 .135 .372 .13900002 .36600004 .13900002 C .358 .13900002 .356 .134 .354 .12900001 C .328 .045 .261 .022 .21900001 .022 C .17700002 .022 .076000008 .050000006 .076000008 .22300002 L .076000008 .24200002 L .35300002 .24200002 M .07700001 .261 C .085 .418 .17300001 .43600003 .201 .43600003 C .30800004 .43600003 .314 .29500003 .31500004 .261 L .07700001 .261 Z "/>
</symbol>
<symbol id="font_0_c">
<path d="M .139 .694 L 0 .683 L 0 .65400007 C .068 .65400007 .076000008 .647 .076000008 .59800007 L .076000008 .074 C .076000008 .029000001 .065000008 .029000001 0 .029000001 L 0 0 C .028000005 .002 .07700001 .002 .107 .002 C .137 .002 .187 .002 .215 0 L .215 .029000001 C .15100003 .029000001 .139 .029000001 .139 .074 L .139 .694 Z "/>
</symbol>
<symbol id="font_0_10">
<path d="M .108 .18900001 C .108 .25100003 .087000008 .29000003 .048 .29000003 C .019000002 .29000003 0 .268 0 .24200002 C 0 .215 .019000002 .193 .049000004 .193 C .064 .193 .074999999 .2 .08100001 .205 C .084 .208 .085 .208 .086 .208 C .08800001 .208 .08800001 .194 .08800001 .18900001 C .08800001 .125 .062 .065 .018 .018999994 C .013999999 .016000003 .012999997 .013999999 .012999997 .00999999 C .012999997 .004999995 .018 0 .023000002 0 C .031999999 0 .108 .074 .108 .18900001 Z "/>
</symbol>
<symbol id="font_0_6">
<path d="M .15 .412 L .291 .412 L .291 .441 L .15 .441 L .15 .625 L .128 .625 C .127 .531 .091000009 .435 0 .432 L 0 .412 L .08500001 .412 L .08500001 .134 C .08500001 .023000002 .159 0 .212 0 C .275 0 .308 .062000004 .308 .134 L .308 .19100002 L .286 .19100002 L .286 .136 C .286 .064 .257 .022 .21800001 .022 C .15 .022 .15 .115 .15 .13200002 L .15 .412 Z "/>
</symbol>
<symbol id="font_0_a">
<path d="M .41300003 .24300002 C .41300003 .33600004 .41300003 .36400003 .39000003 .39600004 C .361 .43500004 .314 .441 .28 .441 C .194 .441 .154 .37600003 .14 .34500004 L .139 .34500004 L .139 .694 L 0 .683 L 0 .65400007 C .068 .65400007 .076000008 .647 .076000008 .59800007 L .076000008 .074 C .076000008 .029000001 .065 .029000001 0 .029000001 L 0 0 C .026 .002 .08 .002 .107999999 .002 C .13700001 .002 .191 .002 .21700001 0 L .21700001 .029000001 C .153 .029000001 .141 .029000001 .141 .074 L .141 .26000003 C .141 .365 .21000001 .42100004 .272 .42100004 C .33400003 .42100004 .34800003 .37 .34800003 .30900003 L .34800003 .074 C .34800003 .029000001 .337 .029000001 .272 .029000001 L .272 0 C .298 .002 .352 .002 .38000003 .002 C .409 .002 .46300004 .002 .48900003 0 L .48900003 .029000001 C .439 .029000001 .414 .029000001 .41300003 .059000005 L .41300003 .24300002 Z "/>
</symbol>
<symbol id="font_0_4">
<path d="M .13900002 .23300001 C .13900002 .33 .17900002 .42100004 .256 .42100004 C .26400004 .42100004 .266 .42100004 .27 .42000003 C .26200003 .416 .24600002 .41000004 .24600002 .38300003 C .24600002 .354 .26900003 .34300003 .28500004 .34300003 C .305 .34300003 .32500003 .356 .32500003 .38300003 C .32500003 .41300003 .298 .441 .25500003 .441 C .17000002 .441 .14100002 .349 .135 .33 L .134 .33 L .134 .441 L 0 .43 L 0 .40100003 C .068 .40100003 .076000008 .39400003 .076000008 .34500004 L .076000008 .074 C .076000008 .029000001 .065 .029000001 0 .029000001 L 0 0 C .028 .002 .083000008 .002 .113000009 .002 C .14000002 .002 .21100001 .002 .23400003 0 L .23400003 .029000001 L .21400002 .029000001 C .14100002 .029000001 .13900002 .040000004 .13900002 .076000008 L .13900002 .23300001 Z "/>
</symbol>
<symbol id="font_0_f">
<path d="M .08900001 .21300003 C .089999999 .206 .091 .201 .091 .188 C .091 .174 .091 .092999998 .022 .024000019 C .012999997 .0150000159 .012999997 .013000011 .012999997 .01000002 C .012999997 .004999995 .018 0 .023000002 0 C .031999999 0 .11100001 .074 .11100001 .188 C .11100001 .25000004 .08800001 .29 .048 .29 C .019000002 .29 0 .26800005 0 .24200002 C 0 .215 .019000002 .19299999 .049000004 .19299999 C .076 .19299999 .08900001 .21200004 .08900001 .21300003 Z "/>
</symbol>
<symbol id="font_0_5">
<path d="M .29500003 .433 C .29500003 .451 .29500003 .456 .28500004 .456 C .277 .456 .25800003 .43400003 .25100003 .425 C .22000003 .45000003 .18900001 .456 .157 .456 C .036000007 .456 0 .39000003 0 .335 C 0 .324 0 .289 .038000004 .254 C .07000001 .22600001 .10400001 .21900001 .15 .21000001 C .20500002 .19900002 .21800003 .19600001 .24300003 .17600002 C .261 .16100002 .27400003 .13900002 .27400003 .111 C .27400003 .068 .24900002 .020000002 .16100002 .020000002 C .095000009 .020000002 .047000007 .058000003 .025000003 .158 C .021000002 .17600002 .021000002 .17700002 .020000004 .17800002 C .018000003 .18200001 .014000002 .18200001 .011000004 .18200001 C 0 .18200001 0 .17700002 0 .15900001 L 0 .023000002 C 0 .0050000005 0 0 .010000002 0 C .015000001 0 .016000003 .0010000002 .033 .022 C .038000004 .029000003 .038000004 .031000004 .053000004 .047000003 C .091000009 0 .14500001 0 .162 0 C .26700003 0 .31900005 .058000003 .31900005 .13700001 C .31900005 .19100002 .286 .22300002 .277 .23200003 C .24100003 .263 .21400002 .269 .148 .28100003 C .11800001 .287 .045 .301 .045 .361 C .045 .39200003 .06600001 .43800003 .15600002 .43800003 C .26500003 .43800003 .27100004 .345 .27300004 .314 C .27400003 .306 .28100003 .306 .284 .306 C .29500003 .306 .29500003 .31100003 .29500003 .329 L .29500003 .433 Z "/>
</symbol>
<symbol id="font_0_b">
<path d="M .141 .61600008 C .141 .642 .12000001 .665 .092 .665 C .06600001 .665 .044000009 .64400008 .044000009 .61700007 C .044000009 .587 .068 .568 .092 .568 C .123 .568 .141 .59400007 .141 .61600008 M .0030000024 .43 L .0030000024 .40100003 C .067 .40100003 .076000008 .395 .076000008 .34600003 L .076000008 .074 C .076000008 .029000001 .065000008 .029000001 0 .029000001 L 0 0 C .028000005 .002 .076000008 .002 .10500001 .002 C .116000007 .002 .17400003 .002 .208 0 L .208 .029000001 C .143 .029000001 .139 .034 .139 .07300001 L .139 .441 L .0030000024 .43 Z "/>
</symbol>
<symbol id="font_0_2">
<path d="M .42900003 .22400002 C .42900003 .35300002 .33100004 .456 .215 .456 C .095 .456 0 .35 0 .22400002 C 0 .096 .10000001 0 .21400002 0 C .33200003 0 .42900003 .098000008 .42900003 .22400002 M .215 .022 C .178 .022 .133 .038000004 .104 .087000008 C .07700001 .13200002 .076000008 .19100002 .076000008 .23300001 C .076000008 .271 .076000008 .33200003 .10700001 .377 C .135 .42000003 .179 .43600003 .21400002 .43600003 C .25300003 .43600003 .29500003 .418 .32200004 .379 C .35300002 .333 .35300002 .27 .35300002 .23300001 C .35300002 .19800002 .35300002 .136 .32700003 .089 C .29900003 .041 .25300003 .022 .215 .022 Z "/>
</symbol>
<symbol id="font_0_d">
<path d="M .685 .24300002 C .685 .33600004 .685 .36400003 .662 .39600004 C .633 .43500004 .586 .441 .55200007 .441 C .46900005 .441 .42700003 .381 .411 .342 C .397 .41900004 .34300003 .441 .28 .441 C .183 .441 .145 .358 .13700001 .33800004 L .136 .33800004 L .136 .441 L 0 .43 L 0 .40100003 C .068 .40100003 .076000008 .39400003 .076000008 .34500004 L .076000008 .074 C .076000008 .029000001 .065 .029000001 0 .029000001 L 0 0 C .026 .002 .08 .002 .107999999 .002 C .13700001 .002 .191 .002 .21700001 0 L .21700001 .029000001 C .153 .029000001 .141 .029000001 .141 .074 L .141 .26000003 C .141 .365 .21000001 .42100004 .272 .42100004 C .33400003 .42100004 .34800003 .37 .34800003 .30900003 L .34800003 .074 C .34800003 .029000001 .337 .029000001 .272 .029000001 L .272 0 C .298 .002 .352 .002 .38000003 .002 C .409 .002 .46300004 .002 .48900003 0 L .48900003 .029000001 C .425 .029000001 .41300003 .029000001 .41300003 .074 L .41300003 .26000003 C .41300003 .365 .482 .42100004 .544 .42100004 C .606 .42100004 .62 .37 .62 .30900003 L .62 .074 C .62 .029000001 .609 .029000001 .544 .029000001 L .544 0 C .57000008 .002 .624 .002 .652 .002 C .68100008 .002 .735 .002 .76100006 0 L .76100006 .029000001 C .711 .029000001 .68600007 .029000001 .685 .059000005 L .685 .24300002 Z "/>
</symbol>
<symbol id="font_0_9">
<path d="M .141 .402 L .25400005 .402 L .25400005 .43100003 L .139 .43100003 L .139 .54800006 C .139 .638 .185 .684 .226 .684 C .23400001 .684 .249 .68200007 .26100005 .67600008 C .25700004 .675 .23200001 .666 .23200001 .637 C .23200001 .614 .24800001 .59800007 .27100004 .59800007 C .29500003 .59800007 .31100003 .614 .31100003 .638 C .31100003 .675 .27500005 .70400008 .22700002 .70400008 C .157 .70400008 .078 .65000006 .078 .54800006 L .078 .43100003 L 0 .43100003 L 0 .402 L .078 .402 L .078 .074 C .078 .029000001 .067 .029000001 .0019999985 .029000001 L .0019999985 0 C .030000003 .002 .085 .002 .11500001 .002 C .142 .002 .21300002 .002 .23600002 0 L .23600002 .029000001 L .216 .029000001 C .143 .029000001 .141 .040000004 .141 .076000008 L .141 .402 Z "/>
</symbol>
<symbol id="font_0_3">
<path d="M .21700001 .029 C .15300001 .029 .14100002 .029 .14100002 .074 L .14100002 .24800001 C .15900001 .223 .20000002 .184 .26400004 .184 C .379 .184 .48000003 .28100003 .48000003 .41000004 C .48000003 .53700008 .38600005 .635 .277 .635 C .18900001 .635 .142 .572 .13900002 .568 L .13900002 .635 L 0 .624 L 0 .595 C .07000001 .595 .076000008 .58800008 .076000008 .544 L .076000008 .074 C .076000008 .029 .065 .029 0 .029 L 0 0 C .026 .002000004 .08 .002000004 .10800001 .002000004 C .13700001 .002000004 .19100002 .002000004 .21700001 0 L .21700001 .029 M .14100002 .513 C .14100002 .53200009 .14100002 .533 .15200001 .549 C .18200001 .594 .231 .61300006 .26900003 .61300006 C .344 .61300006 .404 .522 .404 .41000004 C .404 .291 .33600004 .20400001 .259 .20400001 C .22800002 .20400001 .19900002 .21700001 .17900002 .236 C .15600002 .259 .14100002 .279 .14100002 .307 L .14100002 .513 Z "/>
</symbol>
<symbol id="font_0_7">
<path d="M .39000003 .34600003 C .39900003 .368 .416 .411 .48000003 .412 L .48000003 .441 C .451 .439 .437 .439 .40600003 .439 C .38500003 .439 .37 .439 .324 .441 L .324 .412 C .366 .41 .37100003 .38 .37100003 .36900003 C .37100003 .36 .36900003 .35500003 .36400003 .343 L .262 .085 L .15 .367 C .145 .381 .144 .381 .144 .386 C .144 .412 .182 .412 .2 .412 L .2 .441 C .175 .439 .123 .439 .09600001 .439 C .063 .439 .061000006 .439 0 .441 L 0 .412 C .056 .412 .06600001 .40800003 .078 .377 L .221 .019000002 C .22600001 .0050000005 .228 0 .24000001 0 C .24700001 0 .25300003 .0020000004 .26000003 .019000002 L .39000003 .34600003 Z "/>
</symbol>
<symbol id="font_0_1">
<path d="M .41300003 .24300002 C .41300003 .33600004 .41300003 .36400003 .39000003 .39600004 C .361 .43500004 .314 .441 .28 .441 C .183 .441 .145 .358 .13700001 .33800004 L .136 .33800004 L .136 .441 L 0 .43 L 0 .40100003 C .068 .40100003 .076000008 .39400003 .076000008 .34500004 L .076000008 .074 C .076000008 .029000001 .065 .029000001 0 .029000001 L 0 0 C .026 .002 .08 .002 .107999999 .002 C .13700001 .002 .191 .002 .21700001 0 L .21700001 .029000001 C .153 .029000001 .141 .029000001 .141 .074 L .141 .26000003 C .141 .365 .21000001 .42100004 .272 .42100004 C .33400003 .42100004 .34800003 .37 .34800003 .30900003 L .34800003 .074 C .34800003 .029000001 .337 .029000001 .272 .029000001 L .272 0 C .298 .002 .352 .002 .38000003 .002 C .409 .002 .46300004 .002 .48900003 0 L .48900003 .029000001 C .439 .029000001 .414 .029000001 .41300003 .059000005 L .41300003 .24300002 Z "/>
</symbol>
<symbol id="font_0_11">
<path d="M .09700001 .049000004 C .09700001 .076000008 .07400001 .097 .049000004 .097 C .020000004 .097 0 .074 0 .049000004 C 0 .019000002 .024999999 0 .048 0 C .074999999 0 .09700001 .021000002 .09700001 .049000004 Z "/>
</symbol>
<use xlink:href="#font_0_e" transform="matrix(33.20889,0,0,-33.20889,15.23144,30.142273)"/>
<use xlink:href="#font_0_8" transform="matrix(33.20889,0,0,-33.20889,46.329469,29.776974)"/>
<use xlink:href="#font_0_c" transform="matrix(33.20889,0,0,-33.20889,60.762468,29.444886)"/>
<use xlink:href="#font_0_c" transform="matrix(33.20889,0,0,-33.20889,69.76208,29.444886)"/>
<use xlink:href="#font_0_10" transform="matrix(33.20889,0,0,-33.20889,80.55497,35.854204)"/>
<use xlink:href="#font_0_6" transform="matrix(33.20889,0,0,-33.20889,98.26279,29.776974)"/>
<use xlink:href="#font_0_a" transform="matrix(33.20889,0,0,-33.20889,111.3944,29.444886)"/>
<use xlink:href="#font_0_8" transform="matrix(33.20889,0,0,-33.20889,129.32804,29.776974)"/>
<use xlink:href="#font_0_4" transform="matrix(33.20889,0,0,-33.20889,143.595,29.444886)"/>
<use xlink:href="#font_0_8" transform="matrix(33.20889,0,0,-33.20889,156.32811,29.776974)"/>
<use xlink:href="#font_0_f" transform="matrix(33.20889,0,0,-33.20889,172.55438,16.028494)"/>
<use xlink:href="#font_0_5" transform="matrix(33.20889,0,0,-33.20889,179.7607,29.776974)"/>
<use xlink:href="#font_0_5" transform="matrix(33.20889,0,0,-33.20889,203.76076,29.776974)"/>
<use xlink:href="#font_0_6" transform="matrix(33.20889,0,0,-33.20889,215.92932,29.776974)"/>
<use xlink:href="#font_0_b" transform="matrix(33.20889,0,0,-33.20889,229.09416,29.444886)"/>
<use xlink:href="#font_0_c" transform="matrix(33.20889,0,0,-33.20889,238.09378,29.444886)"/>
<use xlink:href="#font_0_c" transform="matrix(33.20889,0,0,-33.20889,247.09339,29.444886)"/>
<use xlink:href="#font_0_4" transform="matrix(33.20889,0,0,-33.20889,266.927,29.444886)"/>
<use xlink:href="#font_0_2" transform="matrix(33.20889,0,0,-33.20889,279.66014,29.776974)"/>
<use xlink:href="#font_0_2" transform="matrix(33.20889,0,0,-33.20889,296.9935,29.776974)"/>
<use xlink:href="#font_0_d" transform="matrix(33.20889,0,0,-33.20889,313.39329,29.444886)"/>
<use xlink:href="#font_0_9" transform="matrix(33.20889,0,0,-33.20889,351.0264,29.444886)"/>
<use xlink:href="#font_0_2" transform="matrix(33.20889,0,0,-33.20889,360.99324,29.776974)"/>
<use xlink:href="#font_0_4" transform="matrix(33.20889,0,0,-33.20889,377.26014,29.444886)"/>
<use xlink:href="#font_0_b" transform="matrix(33.20889,0,0,-33.20889,400.7598,29.444886)"/>
<use xlink:href="#font_0_d" transform="matrix(33.20889,0,0,-33.20889,409.7262,29.444886)"/>
<use xlink:href="#font_0_3" transform="matrix(33.20889,0,0,-33.20889,436.59339,35.88741)"/>
<use xlink:href="#font_0_4" transform="matrix(33.20889,0,0,-33.20889,454.59346,29.444886)"/>
<use xlink:href="#font_0_2" transform="matrix(33.20889,0,0,-33.20889,467.32658,29.776974)"/>
<use xlink:href="#font_0_7" transform="matrix(33.20889,0,0,-33.20889,482.2612,29.776974)"/>
<use xlink:href="#font_0_8" transform="matrix(33.20889,0,0,-33.20889,498.6602,29.776974)"/>
<use xlink:href="#font_0_d" transform="matrix(33.20889,0,0,-33.20889,513.06,29.444886)"/>
<use xlink:href="#font_0_8" transform="matrix(33.20889,0,0,-33.20889,539.9936,29.776974)"/>
<use xlink:href="#font_0_1" transform="matrix(33.20889,0,0,-33.20889,554.3934,29.444886)"/>
<use xlink:href="#font_0_6" transform="matrix(33.20889,0,0,-33.20889,570.92898,29.776974)"/>
<use xlink:href="#font_0_11" transform="matrix(33.20889,0,0,-33.20889,585.8871,29.444886)"/>
</g>
</svg>
