<?xml version="1.0" encoding="UTF-8" standalone="no"?>
<!DOCTYPE svg PUBLIC "-//W3C//DTD SVG 1.1//EN" "http://www.w3.org/Graphics/SVG/1.1/DTD/svg11.dtd">
<svg xmlns="http://www.w3.org/2000/svg" xmlns:xlink="http://www.w3.org/1999/xlink" version="1.1" width="1494.3888pt" height="44.277776pt" viewBox="0 0 1494.3888 44.277776">
<g enable-background="new">
<symbol id="font_0_3">
<path d="M .591 .58900007 C .624 .642 .67 .65400007 .71300008 .65400007 L .71300008 .683 C .65700009 .68100008 .65500006 .68100008 .62000009 .68100008 C .59300008 .68100008 .54300007 .68100008 .518 .683 L .518 .65400007 C .54700008 .65400007 .568 .64100006 .568 .61700007 C .568 .60400006 .56600007 .601 .55600008 .58500006 L .38700003 .31 L .201 .611 C .19500001 .62100008 .193 .624 .193 .63000008 C .193 .651 .21900001 .65400007 .25500003 .65400007 L .25500003 .683 C .23200001 .68100008 .15100001 .68100008 .123 .68100008 C .095000009 .68100008 .024 .68100008 0 .683 L 0 .65400007 C .071 .65400007 .08400001 .651 .106000009 .615 L .31700004 .273 L .31700004 .076000008 C .31700004 .039 .314 .029000001 .242 .029000001 L .222 .029000001 L .222 0 C .24500002 .002 .32700003 .002 .35600005 .002 C .38500003 .002 .46700005 .002 .49100007 0 L .49100007 .029000001 L .47100006 .029000001 C .39800004 .029000001 .39600004 .039 .39600004 .074 L .39600004 .27400003 L .591 .58900007 Z "/>
</symbol>
<symbol id="font_0_2">
<path d="M .42900003 .22400002 C .42900003 .35300002 .33100004 .456 .215 .456 C .095 .456 0 .35 0 .22400002 C 0 .096 .10000001 0 .21400002 0 C .33200003 0 .42900003 .098000008 .42900003 .22400002 M .215 .022 C .178 .022 .133 .038000004 .104 .087000008 C .07700001 .13200002 .076000008 .19100002 .076000008 .23300001 C .076000008 .271 .076000008 .33200003 .10700001 .377 C .135 .42000003 .179 .43600003 .21400002 .43600003 C .25300003 .43600003 .29500003 .418 .32200004 .379 C .35300002 .333 .35300002 .27 .35300002 .23300001 C .35300002 .19800002 .35300002 .136 .32700003 .089 C .29900003 .041 .25300003 .022 .215 .022 Z "/>
</symbol>
<symbol id="font_0_5">
<path d="M .272 .44 L .272 .411 C .34 .411 .34800003 .404 .34800003 .35500003 L .34800003 .17600002 C .34800003 .091 .303 .020000002 .22800002 .020000002 C .146 .020000002 .141 .067 .141 .120000008 L .141 .451 L 0 .44 L 0 .411 C .076000008 .411 .076000008 .40800003 .076000008 .319 L .076000008 .16900002 C .076000008 .107 .076000008 .071 .106000009 .038000004 C .13 .012000001 .171 0 .222 0 C .23900002 0 .271 0 .305 .029000003 C .33400003 .052000006 .35000003 .09 .35000003 .09 L .35000003 0 L .48900003 .010000001 L .48900003 .039 C .421 .039 .41300003 .046000005 .41300003 .095 L .41300003 .451 L .272 .44 Z "/>
</symbol>
<symbol id="font_0_d">
<path d="M .41300003 .24300002 C .41300003 .33600004 .41300003 .36400003 .39000003 .39600004 C .361 .43500004 .314 .441 .28 .441 C .194 .441 .154 .37600003 .14 .34500004 L .139 .34500004 L .139 .694 L 0 .683 L 0 .65400007 C .068 .65400007 .076000008 .647 .076000008 .59800007 L .076000008 .074 C .076000008 .029000001 .065 .029000001 0 .029000001 L 0 0 C .026 .002 .08 .002 .107999999 .002 C .13700001 .002 .191 .002 .21700001 0 L .21700001 .029000001 C .153 .029000001 .141 .029000001 .141 .074 L .141 .26000003 C .141 .365 .21000001 .42100004 .272 .42100004 C .33400003 .42100004 .34800003 .37 .34800003 .30900003 L .34800003 .074 C .34800003 .029000001 .337 .029000001 .272 .029000001 L .272 0 C .298 .002 .352 .002 .38000003 .002 C .409 .002 .46300004 .002 .48900003 0 L .48900003 .029000001 C .439 .029000001 .414 .029000001 .41300003 .059000005 L .41300003 .24300002 Z "/>
</symbol>
<symbol id="font_0_7">
<path d="M .342 .277 C .342 .331 .342 .37100003 .298 .41 C .263 .442 .21800003 .456 .17400001 .456 C .09200001 .456 .029000003 .402 .029000003 .337 C .029000003 .308 .048000006 .294 .070999998 .294 C .09500001 .294 .112 .31100003 .112 .335 C .112 .37600003 .076000008 .37600003 .061 .37600003 C .08400001 .418 .13200002 .43600003 .172 .43600003 C .21800003 .43600003 .277 .398 .277 .308 L .277 .268 C .076000008 .26500003 0 .18100001 0 .104 C 0 .025000003 .09200001 0 .15300001 0 C .21900001 0 .26400004 .040000004 .28300003 .088 C .28700004 .041 .31800003 .0050000005 .36100004 .0050000005 C .38200004 .0050000005 .44000004 .019000002 .44000004 .099 L .44000004 .15500002 L .418 .15500002 L .418 .099 C .418 .042000005 .39400003 .034 .38000003 .034 C .342 .034 .342 .087000008 .342 .102000009 L .342 .277 M .277 .15100001 C .277 .053000004 .20400001 .020000002 .16100002 .020000002 C .112 .020000002 .070999998 .056000007 .070999998 .104 C .070999998 .23600002 .24100003 .24800001 .277 .25 L .277 .15100001 Z "/>
</symbol>
<symbol id="font_0_6">
<path d="M .39000003 .34600003 C .39900003 .368 .416 .411 .48000003 .412 L .48000003 .441 C .451 .439 .437 .439 .40600003 .439 C .38500003 .439 .37 .439 .324 .441 L .324 .412 C .366 .41 .37100003 .38 .37100003 .36900003 C .37100003 .36 .36900003 .35500003 .36400003 .343 L .262 .085 L .15 .367 C .145 .381 .144 .381 .144 .386 C .144 .412 .182 .412 .2 .412 L .2 .441 C .175 .439 .123 .439 .09600001 .439 C .063 .439 .061000006 .439 0 .441 L 0 .412 C .056 .412 .06600001 .40800003 .078 .377 L .221 .019000002 C .22600001 .0050000005 .228 0 .24000001 0 C .24700001 0 .25300003 .0020000004 .26000003 .019000002 L .39000003 .34600003 Z "/>
</symbol>
<symbol id="font_0_c">
<path d="M .35300002 .24200002 C .37500004 .24200002 .377 .24200002 .377 .261 C .377 .36200003 .323 .456 .202 .456 C .08800001 .456 0 .35300002 0 .22900002 C 0 .097 .102 0 .21300002 0 C .33200003 0 .377 .108 .377 .12900001 C .377 .135 .372 .13900002 .36600004 .13900002 C .358 .13900002 .356 .134 .354 .12900001 C .328 .045 .261 .022 .21900001 .022 C .17700002 .022 .076000008 .050000006 .076000008 .22300002 L .076000008 .24200002 L .35300002 .24200002 M .07700001 .261 C .085 .418 .17300001 .43600003 .201 .43600003 C .30800004 .43600003 .314 .29500003 .31500004 .261 L .07700001 .261 Z "/>
</symbol>
<symbol id="font_0_b">
<path d="M .26500003 .693 L .26500003 .66400006 C .33300004 .66400006 .34100003 .657 .34100003 .60800006 L .34100003 .387 C .32000003 .416 .277 .451 .21600002 .451 C .10000001 .451 0 .35300002 0 .22500001 C 0 .098000008 .09500001 0 .20500002 0 C .28100003 0 .32500003 .050000006 .33900003 .069000009 L .33900003 0 L .48000006 .010000001 L .48000006 .039 C .41200004 .039 .404 .046000005 .404 .095 L .404 .704 L .26500003 .693 M .33900003 .127 C .33900003 .109000008 .33900003 .106 .32500003 .084 C .30100004 .049000004 .26000003 .020000002 .21000001 .020000002 C .18400002 .020000002 .076000008 .030000002 .076000008 .22400002 C .076000008 .296 .088 .336 .110000018 .36900003 C .13000001 .4 .17000002 .43100003 .22000003 .43100003 C .282 .43100003 .31700004 .386 .32700003 .37 C .33900003 .35300002 .33900003 .351 .33900003 .333 L .33900003 .127 Z "/>
</symbol>
<symbol id="font_0_1">
<path d="M .41300003 .24300002 C .41300003 .33600004 .41300003 .36400003 .39000003 .39600004 C .361 .43500004 .314 .441 .28 .441 C .183 .441 .145 .358 .13700001 .33800004 L .136 .33800004 L .136 .441 L 0 .43 L 0 .40100003 C .068 .40100003 .076000008 .39400003 .076000008 .34500004 L .076000008 .074 C .076000008 .029000001 .065 .029000001 0 .029000001 L 0 0 C .026 .002 .08 .002 .107999999 .002 C .13700001 .002 .191 .002 .21700001 0 L .21700001 .029000001 C .153 .029000001 .141 .029000001 .141 .074 L .141 .26000003 C .141 .365 .21000001 .42100004 .272 .42100004 C .33400003 .42100004 .34800003 .37 .34800003 .30900003 L .34800003 .074 C .34800003 .029000001 .337 .029000001 .272 .029000001 L .272 0 C .298 .002 .352 .002 .38000003 .002 C .409 .002 .46300004 .002 .48900003 0 L .48900003 .029000001 C .439 .029000001 .414 .029000001 .41300003 .059000005 L .41300003 .24300002 Z "/>
</symbol>
<symbol id="font_0_8">
<path d="M .27 .23600002 C .29900003 .27400003 .34100003 .328 .36 .349 C .40100003 .395 .44800005 .402 .48000003 .402 L .48000003 .43100003 C .43700005 .42900003 .43500004 .42900003 .39600004 .42900003 C .35800005 .42900003 .35600005 .42900003 .30600003 .43100003 L .30600003 .402 C .31900005 .4 .33500005 .39400003 .33500005 .37100003 C .33500005 .354 .32600004 .34300003 .32000003 .335 L .256 .254 L .178 .35700003 C .175 .36100004 .169 .37 .169 .377 C .169 .38300003 .17400001 .40100003 .20400001 .402 L .20400001 .43100003 C .179 .42900003 .128 .42900003 .10100001 .42900003 C .068 .42900003 .06600001 .42900003 .005 .43100003 L .005 .402 C .055999999 .402 .075 .4 .09600001 .37300004 L .213 .22000002 C .215 .21800001 .21900001 .21200001 .21900001 .209 C .21900001 .20600002 .141 .108 .131 .095000009 C .087000008 .041 .043 .030000002 0 .029000001 L 0 0 C .038 .002 .04 .002 .083000008 .002 C .121000017 .002 .123 .002 .17300001 0 L .17300001 .029000001 C .149 .032 .145 .047000003 .145 .061000006 C .145 .07700001 .152 .085 .162 .098000008 C .177 .119 .21000001 .16000001 .23400001 .19100002 L .316 .08400001 C .33300004 .062000004 .33300004 .060000004 .33300004 .054 C .33300004 .046000005 .32500003 .030000002 .29800005 .029000001 L .29800005 0 C .32400004 .002 .37300004 .002 .40100003 .002 C .43400005 .002 .43600003 .002 .49600006 0 L .49600006 .029000001 C .44300003 .029000001 .42500005 .031000002 .40100003 .063 L .27 .23600002 Z "/>
</symbol>
<symbol id="font_0_a">
<path d="M .32700003 .38 C .31500004 .38 .27800004 .38 .27800004 .33900003 C .27800004 .315 .29500003 .298 .319 .298 C .342 .298 .36100004 .312 .36100004 .34100003 C .36100004 .40800003 .291 .456 .21000001 .456 C .09300001 .456 0 .352 0 .22600001 C 0 .098000008 .096000019 0 .20900002 0 C .34100003 0 .37100003 .120000008 .37100003 .12900001 C .37100003 .13800001 .36400003 .13800001 .36100004 .13800001 C .35200004 .13800001 .351 .135 .34800003 .123 C .32600004 .052000006 .272 .022 .21800003 .022 C .157 .022 .076000008 .075 .076000008 .22700002 C .076000008 .393 .16100002 .43400003 .21100001 .43400003 C .24900002 .43400003 .30400003 .419 .32700003 .38 Z "/>
</symbol>
<symbol id="font_0_f">
<path d="M .139 .694 L 0 .683 L 0 .65400007 C .068 .65400007 .076000008 .647 .076000008 .59800007 L .076000008 .074 C .076000008 .029000001 .065000008 .029000001 0 .029000001 L 0 0 C .028000005 .002 .07700001 .002 .107 .002 C .137 .002 .187 .002 .215 0 L .215 .029000001 C .15100003 .029000001 .139 .029000001 .139 .074 L .139 .694 Z "/>
</symbol>
<symbol id="font_0_4">
<path d="M .15 .412 L .291 .412 L .291 .441 L .15 .441 L .15 .625 L .128 .625 C .127 .531 .091000009 .435 0 .432 L 0 .412 L .08500001 .412 L .08500001 .134 C .08500001 .023000002 .159 0 .212 0 C .275 0 .308 .062000004 .308 .134 L .308 .19100002 L .286 .19100002 L .286 .136 C .286 .064 .257 .022 .21800001 .022 C .15 .022 .15 .115 .15 .13200002 L .15 .412 Z "/>
</symbol>
<symbol id="font_0_e">
<path d="M .23700002 .82000008 C .23700002 .85 .213 .869 .18900001 .869 C .16100002 .869 .14000002 .847 .14000002 .82000008 C .14000002 .794 .162 .772 .18800003 .772 C .21800003 .772 .23700002 .796 .23700002 .82000008 M .09 .634 L .09 .605 C .16500002 .605 .174 .59800007 .174 .549 L .174 .149 C .174 .094000007 .16300002 .019999996 .105000007 .019999996 C .10300001 .019999996 .072000008 .019999996 .049000004 .03400001 C .075 .039000006 .083000008 .058 .083000008 .075 C .083000008 .098000008 .066 .116000007 .042000005 .116000007 C .017 .116000007 0 .098000008 0 .074 C 0 .026000008 .054000006 0 .106000009 0 C .178 0 .23700002 .062000008 .23700002 .15300001 L .23700002 .64500007 L .09 .634 Z "/>
</symbol>
<symbol id="font_0_9">
<path d="M .13900002 .704 L 0 .693 L 0 .66400006 C .068 .66400006 .076000008 .657 .076000008 .60800006 L .076000008 .010000001 L .098000008 .010000001 C .10200001 .018000002 .13000001 .068 .134 .075 C .157 .038000004 .20000002 0 .26400004 0 C .379 0 .48000003 .097 .48000003 .22600001 C .48000003 .35300002 .38600005 .451 .275 .451 C .22000002 .451 .17300001 .426 .13900002 .384 L .13900002 .704 M .14100002 .33 C .14100002 .34800003 .14100002 .35 .15200001 .366 C .17600002 .402 .22000002 .43100003 .26900003 .43100003 C .29900003 .43100003 .404 .419 .404 .22700002 C .404 .16000001 .39400003 .118 .37000004 .082 C .35000003 .051000004 .31000004 .020000002 .26000003 .020000002 C .20600002 .020000002 .17100002 .055000005 .15400002 .082 C .14100002 .103 .14100002 .107 .14100002 .124000009 L .14100002 .33 Z "/>
</symbol>
<symbol id="font_0_10">
<path d="M .10000001 .66800007 C .10000001 .70000007 .073 .71500006 .052 .71500006 C .031000004 .71500006 0 .70100006 .0029999987 .65900006 L .039000006 .201 C .04 .18400002 .041999997 .18 .051 .18 C .061000006 .18 .06300001 .18300002 .063999999 .201 L .10000001 .66800007 M .10000001 .049000004 C .10000001 .075 .07800001 .097 .052 .097 C .024000004 .097 .0029999987 .075 .0029999987 .048 C .0029999987 .022000002 .024999999 0 .051 0 C .078999999 0 .10000001 .022000002 .10000001 .049000004 Z "/>
</symbol>
<use xlink:href="#font_0_3" transform="matrix(33.20889,0,0,-33.20889,14.998977,29.444886)"/>
<use xlink:href="#font_0_2" transform="matrix(33.20889,0,0,-33.20889,37.32988,29.776974)"/>
<use xlink:href="#font_0_5" transform="matrix(33.20889,0,0,-33.20889,53.729669,29.776974)"/>
<use xlink:href="#font_0_d" transform="matrix(33.20889,0,0,-33.20889,82.396419,29.444886)"/>
<use xlink:href="#font_0_7" transform="matrix(33.20889,0,0,-33.20889,100.79497,29.776974)"/>
<use xlink:href="#font_0_6" transform="matrix(33.20889,0,0,-33.20889,115.26492,29.776974)"/>
<use xlink:href="#font_0_c" transform="matrix(33.20889,0,0,-33.20889,131.6639,29.776974)"/>
<use xlink:href="#font_0_b" transform="matrix(33.20889,0,0,-33.20889,157.49623,29.776974)"/>
<use xlink:href="#font_0_2" transform="matrix(33.20889,0,0,-33.20889,175.33023,29.776974)"/>
<use xlink:href="#font_0_1" transform="matrix(33.20889,0,0,-33.20889,191.73003,29.444886)"/>
<use xlink:href="#font_0_c" transform="matrix(33.20889,0,0,-33.20889,209.66365,29.776974)"/>
<use xlink:href="#font_0_7" transform="matrix(33.20889,0,0,-33.20889,235.46244,29.776974)"/>
<use xlink:href="#font_0_1" transform="matrix(33.20889,0,0,-33.20889,251.3973,29.444886)"/>
<use xlink:href="#font_0_c" transform="matrix(33.20889,0,0,-33.20889,280.33076,29.776974)"/>
<use xlink:href="#font_0_8" transform="matrix(33.20889,0,0,-33.20889,293.99995,29.444886)"/>
<use xlink:href="#font_0_a" transform="matrix(33.20889,0,0,-33.20889,311.8302,29.776974)"/>
<use xlink:href="#font_0_c" transform="matrix(33.20889,0,0,-33.20889,325.99757,29.776974)"/>
<use xlink:href="#font_0_f" transform="matrix(33.20889,0,0,-33.20889,340.43055,29.444886)"/>
<use xlink:href="#font_0_f" transform="matrix(33.20889,0,0,-33.20889,349.43016,29.444886)"/>
<use xlink:href="#font_0_c" transform="matrix(33.20889,0,0,-33.20889,358.33015,29.776974)"/>
<use xlink:href="#font_0_1" transform="matrix(33.20889,0,0,-33.20889,372.72996,29.444886)"/>
<use xlink:href="#font_0_4" transform="matrix(33.20889,0,0,-33.20889,389.2655,29.776974)"/>
<use xlink:href="#font_0_e" transform="matrix(33.20889,0,0,-33.20889,411.8725,36.219499)"/>
<use xlink:href="#font_0_2" transform="matrix(33.20889,0,0,-33.20889,423.99787,29.776974)"/>
<use xlink:href="#font_0_9" transform="matrix(33.20889,0,0,-33.20889,440.26478,29.776974)"/>
<use xlink:href="#font_0_10" transform="matrix(33.20889,0,0,-33.20889,460.09138,29.444886)"/>
</g>
</svg>
