<?xml version="1.0" encoding="UTF-8" standalone="no"?>
<!DOCTYPE svg PUBLIC "-//W3C//DTD SVG 1.1//EN" "http://www.w3.org/Graphics/SVG/1.1/DTD/svg11.dtd">
<svg xmlns="http://www.w3.org/2000/svg" xmlns:xlink="http://www.w3.org/1999/xlink" version="1.1" width="1106.9722pt" height="55.36111pt" viewBox="0 0 1106.9722 55.36111">
<g enable-background="new">
<path transform="matrix(.27777777,0,0,-.27777777,0,55.36111)" stroke-width="5" stroke-linecap="round" stroke-miterlimit="10" stroke-linejoin="miter" fill="none" stroke="#ffffff" d="M 100.488 130.5 C 94.625 126.141 91.2539 119 91.2539 111.371 C 91.2539 101.898 96.4531 93.1836 105.164 86.2813 M 123.875 129.742 C 120.762 124.996 119.047 119.805 119.047 114.359 C 119.047 105.309 123.797 96.9453 131.82 90.1953 M 73.6484 127 C 68.6758 123.727 65.8516 117.156 65.8516 110.176 C 65.8516 102.051 69.6797 94.4766 76.2695 88.1328 M 161.844 108.984 C 153.582 95.5703 128.918 85.8281 99.8008 85.8281 C 70.7266 85.9531 46.0938 95.6641 37.793 109.047 "/>
<path transform="matrix(.36839167,0,0,-.1871636,0,55.36111)" stroke-width="3.77014" stroke-linecap="round" stroke-miterlimit="10" stroke-linejoin="miter" fill="none" stroke="#ffffff" d="M 124.264 148.449 C 124.264 175.517 102.321 197.461 75.2526 197.461 C 48.1842 197.461 26.2408 175.517 26.2408 148.449 C 26.2408 121.381 48.1842 99.4376 75.2526 99.4376 C 102.321 99.4376 124.264 121.381 124.264 148.449 "/>
<path transform="matrix(.27777777,0,0,-.27777777,0,55.36111)" d="M 314 79.5 C 314 86.4023 308.402 92 301.5 92 C 294.598 92 289 86.4023 289 79.5 C 289 72.5977 294.598 67 301.5 67 C 308.402 67 314 72.5977 314 79.5 " fill="#ffffff"/>
<path transform="matrix(.27777777,0,0,-.27777777,0,55.36111)" d="M 458.199 79.5 C 458.199 86.4023 452.602 92 445.699 92 C 438.797 92 433.199 86.4023 433.199 79.5 C 433.199 72.5977 438.797 67 445.699 67 C 452.602 67 458.199 72.5977 458.199 79.5 " fill="#ffffff"/>
<path transform="matrix(.27777777,0,0,-.27777777,0,55.36111)" d="M 568.199 79.5 C 568.199 86.4023 562.602 92 555.699 92 C 548.797 92 543.199 86.4023 543.199 79.5 C 543.199 72.5977 548.797 67 555.699 67 C 562.602 67 568.199 72.5977 568.199 79.5 " fill="#ffffff"/>
<path transform="matrix(.27777777,0,0,-.27777777,0,55.36111)" d="M 712.398 79.5 C 712.398 86.4023 706.801 92 699.898 92 C 692.996 92 687.398 86.4023 687.398 79.5 C 687.398 72.5977 692.996 67 699.898 67 C 706.801 67 712.398 72.5977 712.398 79.5 " fill="#ffffff"/>
<path transform="matrix(.27777777,0,0,-.27777777,0,55.36111)" d="M 657.398 79.5 C 657.398 86.4023 651.801 92 644.898 92 C 637.996 92 632.398 86.4023 632.398 79.5 C 632.398 72.5977 637.996 67 644.898 67 C 651.801 67 657.398 72.5977 657.398 79.5 " fill="#ffffff"/>
<path transform="matrix(.27777777,0,0,-.27777777,0,55.36111)" d="M 767.398 79.5 C 767.398 86.4023 761.801 92 754.898 92 C 747.996 92 742.398 86.4023 742.398 79.5 C 742.398 72.5977 747.996 67 754.898 67 C 761.801 67 767.398 72.5977 767.398 79.5 " fill="#ffffff"/>
<path transform="matrix(.27777777,0,0,-.27777777,0,55.36111)" d="M 856.602 79.5 C 856.602 86.4023 851.004 92 844.102 92 C 837.199 92 831.602 86.4023 831.602 79.5 C 831.602 72.5977 837.199 67 844.102 67 C 851.004 67 856.602 72.5977 856.602 79.5 " fill="#ffffff"/>
<path transform="matrix(.27777777,0,0,-.27777777,0,55.36111)" d="M 966.602 79.5 C 966.602 86.4023 961.004 92 954.102 92 C 947.199 92 941.602 86.4023 941.602 79.5 C 941.602 72.5977 947.199 67 954.102 67 C 961.004 67 966.602 72.5977 966.602 79.5 " fill="#ffffff"/>
<path transform="matrix(.27777777,0,0,-.27777777,0,55.36111)" d="M 893.266 79.5 C 893.266 86.4023 887.668 92 880.766 92 C 873.863 92 868.266 86.4023 868.266 79.5 C 868.266 72.5977 873.863 67 880.766 67 C 887.668 67 893.266 72.5977 893.266 79.5 " fill="#ffffff"/>
<path transform="matrix(.27777777,0,0,-.27777777,0,55.36111)" d="M 929.934 79.5 C 929.934 86.4023 924.336 92 917.434 92 C 910.531 92 904.934 86.4023 904.934 79.5 C 904.934 72.5977 910.531 67 917.434 67 C 924.336 67 929.934 72.5977 929.934 79.5 " fill="#ffffff"/>
<path transform="matrix(.27777777,0,0,-.27777777,0,55.36111)" stroke-width="10" stroke-linecap="round" stroke-miterlimit="10" stroke-linejoin="miter" fill="none" stroke="#ffffff" d="M 1035.8 72 L 1160.8 72 "/>
<path transform="matrix(.27777777,0,0,-.27777777,0,55.36111)" stroke-width="10" stroke-linecap="round" stroke-miterlimit="10" stroke-linejoin="miter" fill="none" stroke="#ffffff" d="M 1235 72 L 1360 72 "/>
<path transform="matrix(.27777777,0,0,-.27777777,0,55.36111)" d="M 1310 94.5 C 1310 101.402 1304.4 107 1297.5 107 C 1290.6 107 1285 101.402 1285 94.5 C 1285 87.5977 1290.6 82 1297.5 82 C 1304.4 82 1310 87.5977 1310 94.5 " fill="#ffffff"/>
<path transform="matrix(.27777777,0,0,-.27777777,0,55.36111)" stroke-width="10" stroke-linecap="round" stroke-miterlimit="10" stroke-linejoin="miter" fill="none" stroke="#ffffff" d="M 1435.4 72 L 1560.4 72 "/>
<path transform="matrix(.27777777,0,0,-.27777777,0,55.36111)" d="M 1455.4 94.5 C 1455.4 101.402 1449.8 107 1442.9 107 C 1436 107 1430.4 101.402 1430.4 94.5 C 1430.4 87.5977 1436 82 1442.9 82 C 1449.8 82 1455.4 87.5977 1455.4 94.5 " fill="#ffffff"/>
<path transform="matrix(.27777777,0,0,-.27777777,0,55.36111)" d="M 1565.4 94.5 C 1565.4 101.402 1559.8 107 1552.9 107 C 1546 107 1540.4 101.402 1540.4 94.5 C 1540.4 87.5977 1546 82 1552.9 82 C 1559.8 82 1565.4 87.5977 1565.4 94.5 " fill="#ffffff"/>
<path transform="matrix(.27777777,0,0,-.27777777,0,55.36111)" stroke-width="10" stroke-linecap="round" stroke-miterlimit="10" stroke-linejoin="miter" fill="none" stroke="#ffffff" d="M 1634.6 72 L 1759.6 72 "/>
<path transform="matrix(.27777777,0,0,-.27777777,0,55.36111)" d="M 1709.6 94.5 C 1709.6 101.402 1704 107 1697.1 107 C 1690.2 107 1684.6 101.402 1684.6 94.5 C 1684.6 87.5977 1690.2 82 1697.1 82 C 1704 82 1709.6 87.5977 1709.6 94.5 " fill="#ffffff"/>
<path transform="matrix(.27777777,0,0,-.27777777,0,55.36111)" d="M 1654.6 94.5 C 1654.6 101.402 1649 107 1642.1 107 C 1635.2 107 1629.6 101.402 1629.6 94.5 C 1629.6 87.5977 1635.2 82 1642.1 82 C 1649 82 1654.6 87.5977 1654.6 94.5 " fill="#ffffff"/>
<path transform="matrix(.27777777,0,0,-.27777777,0,55.36111)" d="M 1764.6 94.5 C 1764.6 101.402 1759 107 1752.1 107 C 1745.2 107 1739.6 101.402 1739.6 94.5 C 1739.6 87.5977 1745.2 82 1752.1 82 C 1759 82 1764.6 87.5977 1764.6 94.5 " fill="#ffffff"/>
<path transform="matrix(.27777777,0,0,-.27777777,0,55.36111)" stroke-width="10" stroke-linecap="round" stroke-miterlimit="10" stroke-linejoin="miter" fill="none" stroke="#ffffff" d="M 1833.8 72 L 1958.8 72 "/>
<path transform="matrix(.27777777,0,0,-.27777777,0,55.36111)" d="M 1853.8 94.5 C 1853.8 101.402 1848.2 107 1841.3 107 C 1834.4 107 1828.8 101.402 1828.8 94.5 C 1828.8 87.5977 1834.4 82 1841.3 82 C 1848.2 82 1853.8 87.5977 1853.8 94.5 " fill="#ffffff"/>
<path transform="matrix(.27777777,0,0,-.27777777,0,55.36111)" d="M 1963.8 94.5 C 1963.8 101.402 1958.2 107 1951.3 107 C 1944.4 107 1938.8 101.402 1938.8 94.5 C 1938.8 87.5977 1944.4 82 1951.3 82 C 1958.2 82 1963.8 87.5977 1963.8 94.5 " fill="#ffffff"/>
<path transform="matrix(.27777777,0,0,-.27777777,0,55.36111)" d="M 1890.46 94.5 C 1890.46 101.402 1884.87 107 1877.96 107 C 1871.06 107 1865.46 101.402 1865.46 94.5 C 1865.46 87.5977 1871.06 82 1877.96 82 C 1884.87 82 1890.46 87.5977 1890.46 94.5 " fill="#ffffff"/>
<path transform="matrix(.27777777,0,0,-.27777777,0,55.36111)" d="M 1927.13 94.5 C 1927.13 101.402 1921.54 107 1914.63 107 C 1907.73 107 1902.13 101.402 1902.13 94.5 C 1902.13 87.5977 1907.73 82 1914.63 82 C 1921.54 82 1927.13 87.5977 1927.13 94.5 " fill="#ffffff"/>
<path transform="matrix(.27777777,0,0,-.27777777,0,55.36111)" stroke-width="10" stroke-linecap="round" stroke-miterlimit="10" stroke-linejoin="miter" fill="none" stroke="#ffffff" d="M 2033 72 L 2158 72 M 2033 87 L 2158 87 "/>
<path transform="matrix(.27777777,0,0,-.27777777,0,55.36111)" stroke-width="10" stroke-linecap="round" stroke-miterlimit="10" stroke-linejoin="miter" fill="none" stroke="#ffffff" d="M 2232.2 72 L 2357.2 72 M 2232.2 87 L 2357.2 87 "/>
<path transform="matrix(.27777777,0,0,-.27777777,0,55.36111)" d="M 2307.2 109.5 C 2307.2 116.402 2301.6 122 2294.7 122 C 2287.8 122 2282.2 116.402 2282.2 109.5 C 2282.2 102.598 2287.8 97 2294.7 97 C 2301.6 97 2307.2 102.598 2307.2 109.5 " fill="#ffffff"/>
<path transform="matrix(.27777777,0,0,-.27777777,0,55.36111)" stroke-width="10" stroke-linecap="round" stroke-miterlimit="10" stroke-linejoin="miter" fill="none" stroke="#ffffff" d="M 2431.4 72 L 2556.4 72 M 2431.4 87 L 2556.4 87 "/>
<path transform="matrix(.27777777,0,0,-.27777777,0,55.36111)" d="M 2451.4 109.5 C 2451.4 116.402 2445.8 122 2438.9 122 C 2432 122 2426.4 116.402 2426.4 109.5 C 2426.4 102.598 2432 97 2438.9 97 C 2445.8 97 2451.4 102.598 2451.4 109.5 " fill="#ffffff"/>
<path transform="matrix(.27777777,0,0,-.27777777,0,55.36111)" d="M 2561.4 109.5 C 2561.4 116.402 2555.8 122 2548.9 122 C 2542 122 2536.4 116.402 2536.4 109.5 C 2536.4 102.598 2542 97 2548.9 97 C 2555.8 97 2561.4 102.598 2561.4 109.5 " fill="#ffffff"/>
<path transform="matrix(.27777777,0,0,-.27777777,0,55.36111)" stroke-width="10" stroke-linecap="round" stroke-miterlimit="10" stroke-linejoin="miter" fill="none" stroke="#ffffff" d="M 2630.6 72 L 2755.6 72 M 2630.6 87 L 2755.6 87 "/>
<path transform="matrix(.27777777,0,0,-.27777777,0,55.36111)" d="M 2705.6 109.5 C 2705.6 116.402 2700 122 2693.1 122 C 2686.2 122 2680.6 116.402 2680.6 109.5 C 2680.6 102.598 2686.2 97 2693.1 97 C 2700 97 2705.6 102.598 2705.6 109.5 " fill="#ffffff"/>
<path transform="matrix(.27777777,0,0,-.27777777,0,55.36111)" d="M 2650.6 109.5 C 2650.6 116.402 2645 122 2638.1 122 C 2631.2 122 2625.6 116.402 2625.6 109.5 C 2625.6 102.598 2631.2 97 2638.1 97 C 2645 97 2650.6 102.598 2650.6 109.5 " fill="#ffffff"/>
<path transform="matrix(.27777777,0,0,-.27777777,0,55.36111)" d="M 2760.6 109.5 C 2760.6 116.402 2755 122 2748.1 122 C 2741.2 122 2735.6 116.402 2735.6 109.5 C 2735.6 102.598 2741.2 97 2748.1 97 C 2755 97 2760.6 102.598 2760.6 109.5 " fill="#ffffff"/>
<path transform="matrix(.27777777,0,0,-.27777777,0,55.36111)" stroke-width="10" stroke-linecap="round" stroke-miterlimit="10" stroke-linejoin="miter" fill="none" stroke="#ffffff" d="M 2829.8 72 L 2954.8 72 M 2829.8 87 L 2954.8 87 "/>
<path transform="matrix(.27777777,0,0,-.27777777,0,55.36111)" d="M 2849.8 109.5 C 2849.8 116.402 2844.2 122 2837.3 122 C 2830.4 122 2824.8 116.402 2824.8 109.5 C 2824.8 102.598 2830.4 97 2837.3 97 C 2844.2 97 2849.8 102.598 2849.8 109.5 " fill="#ffffff"/>
<path transform="matrix(.27777777,0,0,-.27777777,0,55.36111)" d="M 2959.8 109.5 C 2959.8 116.402 2954.2 122 2947.3 122 C 2940.4 122 2934.8 116.402 2934.8 109.5 C 2934.8 102.598 2940.4 97 2947.3 97 C 2954.2 97 2959.8 102.598 2959.8 109.5 " fill="#ffffff"/>
<path transform="matrix(.27777777,0,0,-.27777777,0,55.36111)" d="M 2886.46 109.5 C 2886.46 116.402 2880.87 122 2873.96 122 C 2867.06 122 2861.46 116.402 2861.46 109.5 C 2861.46 102.598 2867.06 97 2873.96 97 C 2880.87 97 2886.46 102.598 2886.46 109.5 " fill="#ffffff"/>
<path transform="matrix(.27777777,0,0,-.27777777,0,55.36111)" d="M 2923.13 109.5 C 2923.13 116.402 2917.54 122 2910.63 122 C 2903.73 122 2898.13 116.402 2898.13 109.5 C 2898.13 102.598 2903.73 97 2910.63 97 C 2917.54 97 2923.13 102.598 2923.13 109.5 " fill="#ffffff"/>
<path transform="matrix(.27777777,0,0,-.27777777,0,55.36111)" stroke-width="10" stroke-linecap="round" stroke-miterlimit="10" stroke-linejoin="miter" fill="none" stroke="#ffffff" d="M 3029 72 L 3154 72 M 3029 87 L 3154 87 M 3029 102 L 3154 102 "/>
<path transform="matrix(.27777777,0,0,-.27777777,0,55.36111)" stroke-width="10" stroke-linecap="round" stroke-miterlimit="10" stroke-linejoin="miter" fill="none" stroke="#ffffff" d="M 3228.2 72 L 3353.2 72 M 3228.2 87 L 3353.2 87 M 3228.2 102 L 3353.2 102 "/>
<path transform="matrix(.27777777,0,0,-.27777777,0,55.36111)" d="M 3303.2 124.5 C 3303.2 131.402 3297.6 137 3290.7 137 C 3283.8 137 3278.2 131.402 3278.2 124.5 C 3278.2 117.598 3283.8 112 3290.7 112 C 3297.6 112 3303.2 117.598 3303.2 124.5 " fill="#ffffff"/>
<path transform="matrix(.27777777,0,0,-.27777777,0,55.36111)" stroke-width="10" stroke-linecap="round" stroke-miterlimit="10" stroke-linejoin="miter" fill="none" stroke="#ffffff" d="M 3427.4 72 L 3552.4 72 M 3427.4 87 L 3552.4 87 M 3427.4 102 L 3552.4 102 "/>
<path transform="matrix(.27777777,0,0,-.27777777,0,55.36111)" d="M 3447.4 124.5 C 3447.4 131.402 3441.8 137 3434.9 137 C 3428 137 3422.4 131.402 3422.4 124.5 C 3422.4 117.598 3428 112 3434.9 112 C 3441.8 112 3447.4 117.598 3447.4 124.5 " fill="#ffffff"/>
<path transform="matrix(.27777777,0,0,-.27777777,0,55.36111)" d="M 3557.4 124.5 C 3557.4 131.402 3551.8 137 3544.9 137 C 3538 137 3532.4 131.402 3532.4 124.5 C 3532.4 117.598 3538 112 3544.9 112 C 3551.8 112 3557.4 117.598 3557.4 124.5 " fill="#ffffff"/>
<path transform="matrix(.27777777,0,0,-.27777777,0,55.36111)" stroke-width="10" stroke-linecap="round" stroke-miterlimit="10" stroke-linejoin="miter" fill="none" stroke="#ffffff" d="M 3626.6 72 L 3751.6 72 M 3626.6 87 L 3751.6 87 M 3626.6 102 L 3751.6 102 "/>
<path transform="matrix(.27777777,0,0,-.27777777,0,55.36111)" d="M 3701.6 124.5 C 3701.6 131.402 3696 137 3689.1 137 C 3682.2 137 3676.6 131.402 3676.6 124.5 C 3676.6 117.598 3682.2 112 3689.1 112 C 3696 112 3701.6 117.598 3701.6 124.5 " fill="#ffffff"/>
<path transform="matrix(.27777777,0,0,-.27777777,0,55.36111)" d="M 3646.6 124.5 C 3646.6 131.402 3641 137 3634.1 137 C 3627.2 137 3621.6 131.402 3621.6 124.5 C 3621.6 117.598 3627.2 112 3634.1 112 C 3641 112 3646.6 117.598 3646.6 124.5 " fill="#ffffff"/>
<path transform="matrix(.27777777,0,0,-.27777777,0,55.36111)" d="M 3756.6 124.5 C 3756.6 131.402 3751 137 3744.1 137 C 3737.2 137 3731.6 131.402 3731.6 124.5 C 3731.6 117.598 3737.2 112 3744.1 112 C 3751 112 3756.6 117.598 3756.6 124.5 " fill="#ffffff"/>
<path transform="matrix(.27777777,0,0,-.27777777,0,55.36111)" stroke-width="10" stroke-linecap="round" stroke-miterlimit="10" stroke-linejoin="miter" fill="none" stroke="#ffffff" d="M 3825.8 72 L 3950.8 72 M 3825.8 87 L 3950.8 87 M 3825.8 102 L 3950.8 102 "/>
<path transform="matrix(.27777777,0,0,-.27777777,0,55.36111)" d="M 3845.8 124.5 C 3845.8 131.402 3840.2 137 3833.3 137 C 3826.4 137 3820.8 131.402 3820.8 124.5 C 3820.8 117.598 3826.4 112 3833.3 112 C 3840.2 112 3845.8 117.598 3845.8 124.5 " fill="#ffffff"/>
<path transform="matrix(.27777777,0,0,-.27777777,0,55.36111)" d="M 3955.8 124.5 C 3955.8 131.402 3950.2 137 3943.3 137 C 3936.4 137 3930.8 131.402 3930.8 124.5 C 3930.8 117.598 3936.4 112 3943.3 112 C 3950.2 112 3955.8 117.598 3955.8 124.5 " fill="#ffffff"/>
<path transform="matrix(.27777777,0,0,-.27777777,0,55.36111)" d="M 3882.46 124.5 C 3882.46 131.402 3876.87 137 3869.96 137 C 3863.06 137 3857.46 131.402 3857.46 124.5 C 3857.46 117.598 3863.06 112 3869.96 112 C 3876.87 112 3882.46 117.598 3882.46 124.5 " fill="#ffffff"/>
<path transform="matrix(.27777777,0,0,-.27777777,0,55.36111)" d="M 3919.13 124.5 C 3919.13 131.402 3913.54 137 3906.63 137 C 3899.73 137 3894.13 131.402 3894.13 124.5 C 3894.13 117.598 3899.73 112 3906.63 112 C 3913.54 112 3919.13 117.598 3919.13 124.5 " fill="#ffffff"/>
</g>
</svg>
