<?xml version="1.0" encoding="UTF-8" standalone="no"?>
<!DOCTYPE svg PUBLIC "-//W3C//DTD SVG 1.1//EN" "http://www.w3.org/Graphics/SVG/1.1/DTD/svg11.dtd">
<svg xmlns="http://www.w3.org/2000/svg" xmlns:xlink="http://www.w3.org/1999/xlink" version="1.1" width="387.44444pt" height="41.499998pt" viewBox="0 0 387.44444 41.499998">
<g enable-background="new">
<symbol id="font_0_4">
<path d="M .185 .669 C .176 .68200007 .17500001 .683 .153 .683 L 0 .683 L 0 .65400007 C .043000007 .65400007 .068 .65400007 .095000009 .647 L .095000009 .105000007 C .095000009 .076000008 .095000009 .029000001 0 .029000001 L 0 0 C .026 .002 .079 .002 .107 .002 C .13500002 .002 .18800003 .002 .21400002 0 L .21400002 .029000001 C .11900001 .029000001 .11900001 .076000008 .11900001 .105000007 L .11900001 .63100007 C .127 .623 .127 .62100008 .136 .609 L .526 .015000001 C .536 .001 .537 0 .544 0 C .55300006 0 .555 .004 .556 .006 L .556 .578 C .556 .60700008 .556 .65400007 .651 .65400007 L .651 .683 C .625 .68100008 .572 .68100008 .544 .68100008 C .51600006 .68100008 .463 .68100008 .437 .683 L .437 .65400007 C .532 .65400007 .532 .60700008 .532 .578 L .532 .141 L .185 .669 Z "/>
</symbol>
<symbol id="font_0_6">
<path d="M .141 .61600008 C .141 .642 .12000001 .665 .092 .665 C .06600001 .665 .044000009 .64400008 .044000009 .61700007 C .044000009 .587 .068 .568 .092 .568 C .123 .568 .141 .59400007 .141 .61600008 M .0030000024 .43 L .0030000024 .40100003 C .067 .40100003 .076000008 .395 .076000008 .34600003 L .076000008 .074 C .076000008 .029000001 .065000008 .029000001 0 .029000001 L 0 0 C .028000005 .002 .076000008 .002 .10500001 .002 C .116000007 .002 .17400003 .002 .208 0 L .208 .029000001 C .143 .029000001 .139 .034 .139 .07300001 L .139 .441 L .0030000024 .43 Z "/>
</symbol>
<symbol id="font_0_2">
<path d="M .39000003 .34600003 C .39900003 .368 .416 .411 .48000003 .412 L .48000003 .441 C .451 .439 .437 .439 .40600003 .439 C .38500003 .439 .37 .439 .324 .441 L .324 .412 C .366 .41 .37100003 .38 .37100003 .36900003 C .37100003 .36 .36900003 .35500003 .36400003 .343 L .262 .085 L .15 .367 C .145 .381 .144 .381 .144 .386 C .144 .412 .182 .412 .2 .412 L .2 .441 C .175 .439 .123 .439 .09600001 .439 C .063 .439 .061000006 .439 0 .441 L 0 .412 C .056 .412 .06600001 .40800003 .078 .377 L .221 .019000002 C .22600001 .0050000005 .228 0 .24000001 0 C .24700001 0 .25300003 .0020000004 .26000003 .019000002 L .39000003 .34600003 Z "/>
</symbol>
<symbol id="font_0_5">
<path d="M .35300002 .24200002 C .37500004 .24200002 .377 .24200002 .377 .261 C .377 .36200003 .323 .456 .202 .456 C .08800001 .456 0 .35300002 0 .22900002 C 0 .097 .102 0 .21300002 0 C .33200003 0 .377 .108 .377 .12900001 C .377 .135 .372 .13900002 .36600004 .13900002 C .358 .13900002 .356 .134 .354 .12900001 C .328 .045 .261 .022 .21900001 .022 C .17700002 .022 .076000008 .050000006 .076000008 .22300002 L .076000008 .24200002 L .35300002 .24200002 M .07700001 .261 C .085 .418 .17300001 .43600003 .201 .43600003 C .30800004 .43600003 .314 .29500003 .31500004 .261 L .07700001 .261 Z "/>
</symbol>
<symbol id="font_0_3">
<path d="M .342 .277 C .342 .331 .342 .37100003 .298 .41 C .263 .442 .21800003 .456 .17400001 .456 C .09200001 .456 .029000003 .402 .029000003 .337 C .029000003 .308 .048000006 .294 .070999998 .294 C .09500001 .294 .112 .31100003 .112 .335 C .112 .37600003 .076000008 .37600003 .061 .37600003 C .08400001 .418 .13200002 .43600003 .172 .43600003 C .21800003 .43600003 .277 .398 .277 .308 L .277 .268 C .076000008 .26500003 0 .18100001 0 .104 C 0 .025000003 .09200001 0 .15300001 0 C .21900001 0 .26400004 .040000004 .28300003 .088 C .28700004 .041 .31800003 .0050000005 .36100004 .0050000005 C .38200004 .0050000005 .44000004 .019000002 .44000004 .099 L .44000004 .15500002 L .418 .15500002 L .418 .099 C .418 .042000005 .39400003 .034 .38000003 .034 C .342 .034 .342 .087000008 .342 .102000009 L .342 .277 M .277 .15100001 C .277 .053000004 .20400001 .020000002 .16100002 .020000002 C .112 .020000002 .070999998 .056000007 .070999998 .104 C .070999998 .23600002 .24100003 .24800001 .277 .25 L .277 .15100001 Z "/>
</symbol>
<symbol id="font_0_1">
<path d="M .272 .44 L .272 .411 C .34 .411 .34800003 .404 .34800003 .35500003 L .34800003 .17600002 C .34800003 .091 .303 .020000002 .22800002 .020000002 C .146 .020000002 .141 .067 .141 .120000008 L .141 .451 L 0 .44 L 0 .411 C .076000008 .411 .076000008 .40800003 .076000008 .319 L .076000008 .16900002 C .076000008 .107 .076000008 .071 .106000009 .038000004 C .13 .012000001 .171 0 .222 0 C .23900002 0 .271 0 .305 .029000003 C .33400003 .052000006 .35000003 .09 .35000003 .09 L .35000003 0 L .48900003 .010000001 L .48900003 .039 C .421 .039 .41300003 .046000005 .41300003 .095 L .41300003 .451 L .272 .44 Z "/>
</symbol>
<symbol id="font_0_7">
<path d="M .09700001 .38300003 C .09700001 .41000004 .07400001 .43100003 .049000004 .43100003 C .020000004 .43100003 0 .40800003 0 .38300003 C 0 .35300002 .024999999 .33400003 .048 .33400003 C .074999999 .33400003 .09700001 .35500003 .09700001 .38300003 M .09700001 .049000004 C .09700001 .076000008 .07400001 .097 .049000004 .097 C .020000004 .097 0 .074 0 .049000004 C 0 .019000002 .024999999 0 .048 0 C .074999999 0 .09700001 .021000002 .09700001 .049000004 Z "/>
</symbol>
<use xlink:href="#font_0_4" transform="matrix(33.20889,0,0,-33.20889,3.6944643,25.44422)"/>
<use xlink:href="#font_0_6" transform="matrix(33.20889,0,0,-33.20889,27.762192,25.44422)"/>
<use xlink:href="#font_0_2" transform="matrix(33.20889,0,0,-33.20889,36.263669,25.776309)"/>
<use xlink:href="#font_0_5" transform="matrix(33.20889,0,0,-33.20889,52.662656,25.776309)"/>
<use xlink:href="#font_0_3" transform="matrix(33.20889,0,0,-33.20889,67.46095,25.776309)"/>
<use xlink:href="#font_0_1" transform="matrix(33.20889,0,0,-33.20889,83.39582,25.776309)"/>
<use xlink:href="#font_0_7" transform="matrix(33.20889,0,0,-33.20889,103.22237,25.44422)"/>
<symbol id="font_1_1">
<path d="M .41900004 .67700007 C .41200004 .69500008 .41000004 .70000007 .386 .70000007 C .361 .70000007 .35900004 .69500008 .35200004 .67700007 L .104 .067 C .097 .051000004 .097 .049000004 .069000009 .046000005 C .044000005 .043 .040000004 .043 .018000003 .043 L 0 .043 L 0 0 C .026000005 .002 .085999999 .002 .11500001 .002 C .142 .002 .215 .002 .238 0 L .238 .043 C .21600002 .043 .178 .043 .15 .054 C .153 .063 .153 .065000008 .155 .069000009 L .208 .19900002 L .47600005 .19900002 L .53900006 .043 L .44500003 .043 L .44500003 0 C .47700004 .002 .57400009 .002 .61200007 .002 C .64400008 .002 .74600008 .002 .7710001 0 L .7710001 .043 L .67600008 .043 L .41900004 .67700007 M .342 .53000006 L .458 .24200002 L .225 .24200002 L .342 .53000006 Z "/>
</symbol>
<symbol id="font_1_2">
<path d="M .48900003 .30600003 C .48900003 .40100003 .448 .45000003 .33800004 .45000003 C .26600004 .45000003 .204 .41500003 .17000002 .34 L .169 .34 L .169 .45000003 L 0 .44200004 L 0 .39900003 C .062 .39900003 .069000009 .39900003 .069000009 .36 L .069000009 .043 L 0 .043 L 0 0 C .023000002 .002 .095000009 .002 .123 .002 C .151 .002 .224 .002 .24700001 0 L .24700001 .043 L .178 .043 L .178 .256 C .178 .36400003 .25800003 .41700004 .32200004 .41700004 C .35900004 .41700004 .38000003 .393 .38000003 .317 L .38000003 .043 L .31100003 .043 L .31100003 0 C .33400003 .002 .40600003 .002 .43400003 .002 C .462 .002 .535 .002 .558 0 L .558 .043 L .48900003 .043 L .48900003 .30600003 Z "/>
</symbol>
<symbol id="font_1_6">
<path d="M .339 .43300004 C .339 .45200003 .339 .45900003 .324 .45900003 C .31800003 .45900003 .31599999 .45900003 .301 .45000006 C .297 .44700004 .286 .44000004 .28100003 .43700005 C .25300003 .45300005 .216 .45900003 .18 .45900003 C .15 .45900003 0 .45900003 0 .32900004 C 0 .224 .124 .202 .155 .19700001 C .18200001 .192 .21500002 .186 .219 .186 C .259 .177 .29900003 .15200001 .29900003 .11 C .29900003 .033 .208 .033 .187 .033 C .136 .033 .07300001 .049000004 .045 .146 C .039000006 .16600001 .038000004 .16700001 .021000002 .16700001 C 0 .16700001 0 .164 0 .141 L 0 .026 C 0 .007 0 0 .015000001 0 C .022 0 .024 0 .044 .016 L .07 .035 C .11500001 0 .16900002 0 .187 0 C .242 0 .36700005 .012 .36700005 .14500001 C .36700005 .193 .34100003 .22600001 .32100005 .244 C .28000004 .27800004 .246 .28400005 .192 .29400004 C .128 .30500005 .068 .316 .068 .36400003 C .068 .42900003 .157 .42900003 .178 .42900003 C .28900004 .42900003 .29500003 .35900004 .297 .33400003 C .29800005 .32100005 .306 .32100005 .31800003 .32100005 C .339 .32100005 .339 .32400004 .339 .34700004 L .339 .43300004 Z "/>
</symbol>
<symbol id="font_1_4">
<path d="M .24700001 .042999999 L .17800002 .042999999 L .17800002 .23500002 C .20300001 .213 .24700001 .18800001 .307 .18800001 C .44400005 .18800001 .551 .27100004 .551 .417 C .551 .55500009 .45800004 .64400008 .323 .64400008 C .26400004 .64400008 .21300002 .624 .17300001 .592 L .17300001 .64400008 L 0 .63600006 L 0 .59300008 C .062000004 .59300008 .069000009 .59300008 .069000009 .554 L .069000009 .042999999 L 0 .042999999 L 0 0 C .023000002 .002000004 .09500001 .002000004 .12300001 .002000004 C .15100001 .002000004 .224 .002000004 .24700001 0 L .24700001 .042999999 M .17800002 .544 C .215 .592 .268 .60800006 .307 .60800006 C .372 .60800006 .43100003 .549 .43100003 .417 C .43100003 .272 .35900004 .221 .29500003 .221 C .252 .221 .20900002 .243 .17800002 .29000003 L .17800002 .544 Z "/>
</symbol>
<symbol id="font_1_5">
<path d="M .17300001 .22500001 C .17300001 .25800003 .18 .41700004 .29700003 .41700004 C .28300003 .40600003 .27600003 .38900004 .27600003 .37100003 C .27600003 .33 .30900003 .31300003 .33400003 .31300003 C .35900004 .31300003 .39200003 .33 .39200003 .37100003 C .39200003 .42200003 .34000004 .45000003 .29200004 .45000003 C .21300002 .45000003 .17900002 .381 .165 .33900003 L .16400002 .33900003 L .16400002 .45000003 L 0 .44200004 L 0 .39900003 C .062000004 .39900003 .069000009 .39900003 .069000009 .36 L .069000009 .043 L 0 .043 L 0 0 C .023000002 .002 .098000008 .002 .12600002 .002 C .15500002 .002 .23600003 .002 .26000003 0 L .26000003 .043 L .17300001 .043 L .17300001 .22500001 Z "/>
</symbol>
<symbol id="font_1_7">
<path d="M .31100003 .44800005 L .31100003 .40500004 C .37300004 .40500004 .38000003 .40500004 .38000003 .36600004 L .38000003 .17 C .38000003 .094000007 .335 .033 .25700004 .033 C .18200001 .033 .178 .058000003 .178 .113000009 L .178 .45600004 L 0 .44800005 L 0 .40500004 C .062 .40500004 .069000009 .40500004 .069000009 .36600004 L .069000009 .12900001 C .069000009 .029000003 .136 0 .24300003 0 C .26700003 0 .34100003 0 .38400004 .081 L .38500003 .081 L .38500003 0 L .558 .006 L .558 .049000004 C .49600006 .049000004 .48900003 .049000004 .48900003 .088 L .48900003 .45600004 L .31100003 .44800005 Z "/>
</symbol>
<symbol id="font_1_9">
<path d="M .43 .123 C .43 .135 .41900004 .135 .40900005 .135 C .393 .135 .39200003 .134 .38700003 .122 C .38 .103 .35300005 .036000004 .26100005 .036000004 C .120000008 .036000004 .120000008 .18800001 .120000008 .23300001 C .120000008 .29200004 .12100001 .42300005 .25200004 .42300005 C .259 .42300005 .31800003 .42100004 .31800003 .41600005 C .31800003 .41500003 .31700004 .41400004 .315 .41300003 C .31200005 .41000004 .29900003 .39500005 .29900003 .37000004 C .29900003 .32800005 .333 .31100003 .35800005 .31100003 C .379 .31100003 .417 .32400004 .417 .37100003 C .417 .45300005 .302 .45900003 .24800001 .45900003 C .07 .45900003 0 .34300003 0 .22800002 C 0 .092 .095 0 .242 0 C .399 0 .43 .116000007 .43 .123 Z "/>
</symbol>
<symbol id="font_1_a">
<path d="M .48900003 .30600003 C .48900003 .40100003 .448 .45000003 .33800004 .45000003 C .23700002 .45000003 .188 .379 .174 .349 L .17300001 .349 L .17300001 .694 L 0 .68600007 L 0 .643 C .062 .643 .069000009 .643 .069000009 .60400006 L .069000009 .043 L 0 .043 L 0 0 C .023000002 .002 .095000009 .002 .123 .002 C .151 .002 .224 .002 .24700001 0 L .24700001 .043 L .178 .043 L .178 .256 C .178 .36400003 .25800003 .41700004 .32200004 .41700004 C .35900004 .41700004 .38000003 .393 .38000003 .317 L .38000003 .043 L .31100003 .043 L .31100003 0 C .33400003 .002 .40600003 .002 .43400003 .002 C .462 .002 .535 .002 .558 0 L .558 .043 L .48900003 .043 L .48900003 .30600003 Z "/>
</symbol>
<symbol id="font_1_8">
<path d="M .47100006 .38300003 C .47800005 .398 .48200006 .40600003 .545 .40600003 L .545 .44900004 C .50900009 .44700004 .507 .44700004 .46600003 .44700004 C .43900005 .44700004 .43700005 .44700004 .38000003 .44900004 L .38000003 .40600003 C .40700004 .40600003 .42900003 .40100003 .42900003 .39400003 C .42900003 .393 .42900003 .39200003 .42400003 .382 L .30700005 .125 L .178 .40600003 L .233 .40600003 L .233 .44900004 C .21000001 .44700004 .14 .44700004 .113000009 .44700004 C .08400001 .44700004 .026 .44700004 0 .44900004 L 0 .40600003 L .06300001 .40600003 L .23900001 .024000003 C .24800001 .0050000005 .25000004 0 .27300004 0 C .28900004 0 .29700003 .0020000004 .30600003 .022000002 L .47100006 .38300003 Z "/>
</symbol>
<symbol id="font_1_3">
<path d="M .49900005 .22500001 C .49900005 .36 .40700004 .45900003 .25000004 .45900003 C .087000008 .45900003 0 .35500003 0 .22500001 C 0 .094000007 .092 0 .249 0 C .41200004 0 .49900005 .099 .49900005 .22500001 M .25000004 .036000004 C .120000008 .036000004 .120000008 .153 .120000008 .23500002 C .120000008 .28200004 .120000008 .33200003 .139 .36800004 C .161 .40800003 .20600002 .42600004 .249 .42600004 C .30600003 .42600004 .34200005 .39900003 .35900004 .37100003 C .37900005 .33500005 .37900005 .28300003 .37900005 .23500002 C .37900005 .15200001 .37900005 .036000004 .25000004 .036000004 Z "/>
</symbol>
<symbol id="font_1_b">
<path d="M .17300001 .694 L 0 .68600007 L 0 .643 C .062000004 .643 .069000009 .643 .069000009 .60400006 L .069000009 .043 L 0 .043 L 0 0 C .022999999 .002 .09400001 .002 .12100001 .002 C .148 .002 .21900001 .002 .24200002 0 L .24200002 .043 L .17300001 .043 L .17300001 .694 Z "/>
</symbol>
<use xlink:href="#font_1_1" transform="matrix(33.20889,0,0,-33.20889,125.62887,25.44422)"/>
<use xlink:href="#font_1_2" transform="matrix(33.20889,0,0,-33.20889,154.0619,25.44422)"/>
<use xlink:href="#font_1_6" transform="matrix(33.20889,0,0,-33.20889,174.59578,25.643473)"/>
<use xlink:href="#font_1_4" transform="matrix(33.20889,0,0,-33.20889,189.16287,31.886744)"/>
<use xlink:href="#font_1_5" transform="matrix(33.20889,0,0,-33.20889,209.8296,25.44422)"/>
<use xlink:href="#font_1_7" transform="matrix(33.20889,0,0,-33.20889,225.39545,25.643473)"/>
<use xlink:href="#font_1_9" transform="matrix(33.20889,0,0,-33.20889,245.92934,25.643473)"/>
<use xlink:href="#font_1_a" transform="matrix(33.20889,0,0,-33.20889,261.72935,25.44422)"/>
<use xlink:href="#font_1_6" transform="matrix(33.20889,0,0,-33.20889,282.2632,25.643473)"/>
<use xlink:href="#font_1_8" transform="matrix(33.20889,0,0,-33.20889,296.46504,25.610264)"/>
<use xlink:href="#font_1_3" transform="matrix(33.20889,0,0,-33.20889,315.36378,25.643473)"/>
<use xlink:href="#font_1_b" transform="matrix(33.20889,0,0,-33.20889,334.4622,25.44422)"/>
<use xlink:href="#font_1_b" transform="matrix(33.20889,0,0,-33.20889,344.7956,25.44422)"/>
</g>
</svg>
