<?xml version="1.0" encoding="UTF-8" standalone="no"?>
<!DOCTYPE svg PUBLIC "-//W3C//DTD SVG 1.1//EN" "http://www.w3.org/Graphics/SVG/1.1/DTD/svg11.dtd">
<svg xmlns="http://www.w3.org/2000/svg" xmlns:xlink="http://www.w3.org/1999/xlink" version="1.1" width="387.44444pt" height="41.499998pt" viewBox="0 0 387.44444 41.499998">
<g enable-background="new">
<symbol id="font_0_4">
<path d="M .185 .669 C .176 .68200007 .17500001 .683 .153 .683 L 0 .683 L 0 .65400007 C .043000007 .65400007 .068 .65400007 .095000009 .647 L .095000009 .105000007 C .095000009 .076000008 .095000009 .029000001 0 .029000001 L 0 0 C .026 .002 .079 .002 .107 .002 C .13500002 .002 .18800003 .002 .21400002 0 L .21400002 .029000001 C .11900001 .029000001 .11900001 .076000008 .11900001 .105000007 L .11900001 .63100007 C .127 .623 .127 .62100008 .136 .609 L .526 .015000001 C .536 .001 .537 0 .544 0 C .55300006 0 .555 .004 .556 .006 L .556 .578 C .556 .60700008 .556 .65400007 .651 .65400007 L .651 .683 C .625 .68100008 .572 .68100008 .544 .68100008 C .51600006 .68100008 .463 .68100008 .437 .683 L .437 .65400007 C .532 .65400007 .532 .60700008 .532 .578 L .532 .141 L .185 .669 Z "/>
</symbol>
<symbol id="font_0_6">
<path d="M .141 .61600008 C .141 .642 .12000001 .665 .092 .665 C .06600001 .665 .044000009 .64400008 .044000009 .61700007 C .044000009 .587 .068 .568 .092 .568 C .123 .568 .141 .59400007 .141 .61600008 M .0030000024 .43 L .0030000024 .40100003 C .067 .40100003 .076000008 .395 .076000008 .34600003 L .076000008 .074 C .076000008 .029000001 .065000008 .029000001 0 .029000001 L 0 0 C .028000005 .002 .076000008 .002 .10500001 .002 C .116000007 .002 .17400003 .002 .208 0 L .208 .029000001 C .143 .029000001 .139 .034 .139 .07300001 L .139 .441 L .0030000024 .43 Z "/>
</symbol>
<symbol id="font_0_2">
<path d="M .39000003 .34600003 C .39900003 .368 .416 .411 .48000003 .412 L .48000003 .441 C .451 .439 .437 .439 .40600003 .439 C .38500003 .439 .37 .439 .324 .441 L .324 .412 C .366 .41 .37100003 .38 .37100003 .36900003 C .37100003 .36 .36900003 .35500003 .36400003 .343 L .262 .085 L .15 .367 C .145 .381 .144 .381 .144 .386 C .144 .412 .182 .412 .2 .412 L .2 .441 C .175 .439 .123 .439 .09600001 .439 C .063 .439 .061000006 .439 0 .441 L 0 .412 C .056 .412 .06600001 .40800003 .078 .377 L .221 .019000002 C .22600001 .0050000005 .228 0 .24000001 0 C .24700001 0 .25300003 .0020000004 .26000003 .019000002 L .39000003 .34600003 Z "/>
</symbol>
<symbol id="font_0_5">
<path d="M .35300002 .24200002 C .37500004 .24200002 .377 .24200002 .377 .261 C .377 .36200003 .323 .456 .202 .456 C .08800001 .456 0 .35300002 0 .22900002 C 0 .097 .102 0 .21300002 0 C .33200003 0 .377 .108 .377 .12900001 C .377 .135 .372 .13900002 .36600004 .13900002 C .358 .13900002 .356 .134 .354 .12900001 C .328 .045 .261 .022 .21900001 .022 C .17700002 .022 .076000008 .050000006 .076000008 .22300002 L .076000008 .24200002 L .35300002 .24200002 M .07700001 .261 C .085 .418 .17300001 .43600003 .201 .43600003 C .30800004 .43600003 .314 .29500003 .31500004 .261 L .07700001 .261 Z "/>
</symbol>
<symbol id="font_0_3">
<path d="M .342 .277 C .342 .331 .342 .37100003 .298 .41 C .263 .442 .21800003 .456 .17400001 .456 C .09200001 .456 .029000003 .402 .029000003 .337 C .029000003 .308 .048000006 .294 .070999998 .294 C .09500001 .294 .112 .31100003 .112 .335 C .112 .37600003 .076000008 .37600003 .061 .37600003 C .08400001 .418 .13200002 .43600003 .172 .43600003 C .21800003 .43600003 .277 .398 .277 .308 L .277 .268 C .076000008 .26500003 0 .18100001 0 .104 C 0 .025000003 .09200001 0 .15300001 0 C .21900001 0 .26400004 .040000004 .28300003 .088 C .28700004 .041 .31800003 .0050000005 .36100004 .0050000005 C .38200004 .0050000005 .44000004 .019000002 .44000004 .099 L .44000004 .15500002 L .418 .15500002 L .418 .099 C .418 .042000005 .39400003 .034 .38000003 .034 C .342 .034 .342 .087000008 .342 .102000009 L .342 .277 M .277 .15100001 C .277 .053000004 .20400001 .020000002 .16100002 .020000002 C .112 .020000002 .070999998 .056000007 .070999998 .104 C .070999998 .23600002 .24100003 .24800001 .277 .25 L .277 .15100001 Z "/>
</symbol>
<symbol id="font_0_1">
<path d="M .272 .44 L .272 .411 C .34 .411 .34800003 .404 .34800003 .35500003 L .34800003 .17600002 C .34800003 .091 .303 .020000002 .22800002 .020000002 C .146 .020000002 .141 .067 .141 .120000008 L .141 .451 L 0 .44 L 0 .411 C .076000008 .411 .076000008 .40800003 .076000008 .319 L .076000008 .16900002 C .076000008 .107 .076000008 .071 .106000009 .038000004 C .13 .012000001 .171 0 .222 0 C .23900002 0 .271 0 .305 .029000003 C .33400003 .052000006 .35000003 .09 .35000003 .09 L .35000003 0 L .48900003 .010000001 L .48900003 .039 C .421 .039 .41300003 .046000005 .41300003 .095 L .41300003 .451 L .272 .44 Z "/>
</symbol>
<symbol id="font_0_7">
<path d="M .09700001 .38300003 C .09700001 .41000004 .07400001 .43100003 .049000004 .43100003 C .020000004 .43100003 0 .40800003 0 .38300003 C 0 .35300002 .024999999 .33400003 .048 .33400003 C .074999999 .33400003 .09700001 .35500003 .09700001 .38300003 M .09700001 .049000004 C .09700001 .076000008 .07400001 .097 .049000004 .097 C .020000004 .097 0 .074 0 .049000004 C 0 .019000002 .024999999 0 .048 0 C .074999999 0 .09700001 .021000002 .09700001 .049000004 Z "/>
</symbol>
<use xlink:href="#font_0_4" transform="matrix(33.20889,0,0,-33.20889,3.6944643,25.44422)"/>
<use xlink:href="#font_0_6" transform="matrix(33.20889,0,0,-33.20889,27.762192,25.44422)"/>
<use xlink:href="#font_0_2" transform="matrix(33.20889,0,0,-33.20889,36.263669,25.776309)"/>
<use xlink:href="#font_0_5" transform="matrix(33.20889,0,0,-33.20889,52.662656,25.776309)"/>
<use xlink:href="#font_0_3" transform="matrix(33.20889,0,0,-33.20889,67.46095,25.776309)"/>
<use xlink:href="#font_0_1" transform="matrix(33.20889,0,0,-33.20889,83.39582,25.776309)"/>
<use xlink:href="#font_0_7" transform="matrix(33.20889,0,0,-33.20889,103.22237,25.44422)"/>
<symbol id="font_1_8">
<path d="M .192 .45200003 C .092999998 .474 .09 .54600009 .09 .56000009 C .09 .61100009 .122999999 .6700001 .22 .6700001 C .317 .6700001 .404 .623 .425 .492 C .428 .47100003 .428 .47000004 .447 .47000004 C .46800003 .47000004 .46800003 .47300003 .46800003 .49600003 L .46800003 .6840001 C .46800003 .70300009 .46800003 .71000006 .45300005 .71000006 C .446 .71000006 .443 .70900008 .43400003 .69900009 L .391 .65000006 C .36600004 .67100009 .316 .71000006 .21900001 .71000006 C .076000008 .71000006 0 .62000009 0 .51100006 C 0 .444 .036000004 .397 .05 .38300003 C .102 .331 .13 .32500003 .234 .30200003 C .33400003 .28 .34600003 .278 .368 .257 C .381 .244 .41000004 .216 .41000004 .165 C .41000004 .12200001 .38900004 .043 .277 .043 C .18900001 .043 .05 .07300001 .042 .21900001 C .041000006 .237 .041000006 .24000001 .021000002 .24000001 C 0 .24000001 0 .237 0 .214 L 0 .026 C 0 .0069999999 0 0 .015000004 0 C .022000004 0 .022999999 .0009999992 .033000005 .01 C .044000005 .021000002 .053 .034 .077999997 .059 C .136 .013 .218 0 .278 0 C .43400003 0 .50000008 .106000009 .50000008 .212 C .50000008 .306 .438 .396 .32900004 .421 L .192 .45200003 Z "/>
</symbol>
<symbol id="font_1_3">
<path d="M .43 .123 C .43 .135 .41900004 .135 .40900005 .135 C .393 .135 .39200003 .134 .38700003 .122 C .38 .103 .35300005 .036000004 .26100005 .036000004 C .120000008 .036000004 .120000008 .18800001 .120000008 .23300001 C .120000008 .29200004 .12100001 .42300005 .25200004 .42300005 C .259 .42300005 .31800003 .42100004 .31800003 .41600005 C .31800003 .41500003 .31700004 .41400004 .315 .41300003 C .31200005 .41000004 .29900003 .39500005 .29900003 .37000004 C .29900003 .32800005 .333 .31100003 .35800005 .31100003 C .379 .31100003 .417 .32400004 .417 .37100003 C .417 .45300005 .302 .45900003 .24800001 .45900003 C .07 .45900003 0 .34300003 0 .22800002 C 0 .092 .095 0 .242 0 C .399 0 .43 .116000007 .43 .123 Z "/>
</symbol>
<symbol id="font_1_6">
<path d="M .48900003 .30600003 C .48900003 .40100003 .448 .45000003 .33800004 .45000003 C .23700002 .45000003 .188 .379 .174 .349 L .17300001 .349 L .17300001 .694 L 0 .68600007 L 0 .643 C .062 .643 .069000009 .643 .069000009 .60400006 L .069000009 .043 L 0 .043 L 0 0 C .023000002 .002 .095000009 .002 .123 .002 C .151 .002 .224 .002 .24700001 0 L .24700001 .043 L .178 .043 L .178 .256 C .178 .36400003 .25800003 .41700004 .32200004 .41700004 C .35900004 .41700004 .38000003 .393 .38000003 .317 L .38000003 .043 L .31100003 .043 L .31100003 0 C .33400003 .002 .40600003 .002 .43400003 .002 C .462 .002 .535 .002 .558 0 L .558 .043 L .48900003 .043 L .48900003 .30600003 Z "/>
</symbol>
<symbol id="font_1_2">
<path d="M .697 .382 C .70400008 .39900003 .707 .40600003 .76500007 .40600003 L .76500007 .44900004 C .73600009 .44700004 .72300007 .44700004 .68700006 .44700004 C .646 .44700004 .633 .44700004 .597 .44900004 L .597 .40600003 C .606 .40600003 .65500006 .40600003 .65500006 .393 C .65500006 .39200003 .65500006 .391 .651 .381 L .546 .12100001 L .43100003 .40600003 L .48800005 .40600003 L .48800005 .44900004 C .46400003 .44700004 .40500004 .44700004 .37800003 .44700004 C .32700003 .44700004 .32500003 .44700004 .275 .44900004 L .275 .40600003 L .33400003 .40600003 C .337 .398 .342 .38500003 .34600003 .37600003 C .349 .37 .35900004 .34600003 .35900004 .34100003 C .35900004 .33900003 .356 .33200003 .35500003 .329 L .279 .14 L .171 .40600003 L .22800002 .40600003 L .22800002 .44900004 C .20500002 .44700004 .13700001 .44700004 .11 .44700004 C .078 .44700004 .030000002 .44700004 0 .44900004 L 0 .40600003 L .059 .40600003 L .21200001 .025000003 C .21900001 .007 .223 0 .245 0 C .256 0 .268 0 .27600003 .020000002 L .38200004 .285 L .48800005 .022000002 C .49700005 0 .508 0 .52000007 0 C .542 0 .545 .0060000007 .55200007 .024000003 L .697 .382 Z "/>
</symbol>
<symbol id="font_1_7">
<path d="M .179 .623 C .179 .66400006 .14600002 .69500008 .10700001 .69500008 C .066 .69500008 .035 .661 .035 .623 C .035 .58500006 .066 .551 .10700001 .551 C .14600002 .551 .179 .582 .179 .623 M .0029999987 .44200004 L .0029999987 .39900003 C .062000004 .39900003 .069000009 .39900003 .069000009 .36 L .069000009 .043 L 0 .043 L 0 0 C .022999999 .002 .09200001 .002 .119 .002 C .14700002 .002 .21100003 .002 .23500002 0 L .23500002 .043 L .17300001 .043 L .17300001 .45000003 L .0029999987 .44200004 Z "/>
</symbol>
<symbol id="font_1_4">
<path d="M .42100004 .22700002 C .44400005 .22700002 .45000006 .22700002 .45000006 .252 C .45000006 .28200004 .44300006 .35700003 .39700005 .40400005 C .35500003 .44600005 .29900003 .45900003 .24100001 .45900003 C .085 .45900003 0 .35700003 0 .231 C 0 .091 .103 0 .25400005 0 C .40500004 0 .45000006 .106 .45000006 .123 C .45000006 .138 .43500004 .138 .42900003 .138 C .41300006 .138 .41200004 .135 .40600003 .122 C .38000003 .057000005 .31400005 .036000004 .26600004 .036000004 C .12100001 .036000004 .120000008 .171 .120000008 .22700002 L .42100004 .22700002 M .120000008 .256 C .12200001 .29700003 .12300001 .33600004 .14400001 .37200005 C .163 .40400005 .19800002 .42600004 .24100001 .42600004 C .34800003 .42600004 .35700003 .30600003 .35800005 .256 L .120000008 .256 Z "/>
</symbol>
<symbol id="font_1_1">
<path d="M .17300001 .22500001 C .17300001 .25800003 .18 .41700004 .29700003 .41700004 C .28300003 .40600003 .27600003 .38900004 .27600003 .37100003 C .27600003 .33 .30900003 .31300003 .33400003 .31300003 C .35900004 .31300003 .39200003 .33 .39200003 .37100003 C .39200003 .42200003 .34000004 .45000003 .29200004 .45000003 C .21300002 .45000003 .17900002 .381 .165 .33900003 L .16400002 .33900003 L .16400002 .45000003 L 0 .44200004 L 0 .39900003 C .062000004 .39900003 .069000009 .39900003 .069000009 .36 L .069000009 .043 L 0 .043 L 0 0 C .023000002 .002 .098000008 .002 .12600002 .002 C .15500002 .002 .23600003 .002 .26000003 0 L .26000003 .043 L .17300001 .043 L .17300001 .22500001 Z "/>
</symbol>
<symbol id="font_1_5">
<path d="M .09900001 .38300003 C .147 .357 .20300001 .357 .21800001 .357 C .35600005 .357 .41100005 .43400003 .41100005 .504 C .41100005 .555 .38200004 .591 .37000004 .601 C .39900003 .617 .42300005 .62100008 .44000004 .623 C .43700005 .61800006 .43400005 .614 .43400005 .601 C .43400005 .58000007 .44800005 .561 .474 .561 C .5 .561 .514 .58000007 .514 .601 C .514 .625 .49600003 .65700009 .45400004 .65700009 C .41100005 .65700009 .37000004 .63600006 .34900005 .61800006 C .30800004 .642 .26900003 .651 .21800001 .651 C .080000009 .651 .025 .574 .025 .504 C .025 .47300003 .034999998 .432 .077 .398 C .060000004 .379 .042000005 .344 .042000005 .30800004 C .042000005 .26500003 .065 .228 .086 .21200001 C .062 .206 0 .183 0 .126 C 0 .067 .065 0 .249 0 C .41500003 0 .49900005 .054000006 .49900005 .12900001 C .49900005 .21700001 .44100005 .246 .41600005 .25800003 C .36800004 .282 .30400003 .282 .216 .282 C .19100002 .282 .147 .282 .142 .283 C .09900001 .29000003 .087000008 .328 .087000008 .347 C .087000008 .35500003 .088 .37 .09900001 .38300003 M .21800001 .389 C .131 .389 .131 .458 .131 .504 C .131 .55 .131 .619 .21800001 .619 C .30500005 .619 .30500005 .55 .30500005 .504 C .30500005 .458 .30500005 .389 .21800001 .389 M .27400003 .19 C .34700004 .19 .41700004 .177 .41700004 .125 C .41700004 .089999999 .38200004 .03199999 .25000004 .03199999 C .118 .03199999 .082 .088 .082 .126 C .082 .19 .14500001 .19 .16000001 .19 L .27400003 .19 Z "/>
</symbol>
<use xlink:href="#font_1_8" transform="matrix(33.20889,0,0,-33.20889,126.39268,25.842726)"/>
<use xlink:href="#font_1_3" transform="matrix(33.20889,0,0,-33.20889,146.26238,25.643473)"/>
<use xlink:href="#font_1_6" transform="matrix(33.20889,0,0,-33.20889,162.06217,25.44422)"/>
<use xlink:href="#font_1_2" transform="matrix(33.20889,0,0,-33.20889,181.09813,25.610264)"/>
<use xlink:href="#font_1_7" transform="matrix(33.20889,0,0,-33.20889,208.79558,25.44422)"/>
<use xlink:href="#font_1_4" transform="matrix(33.20889,0,0,-33.20889,218.69722,25.643473)"/>
<use xlink:href="#font_1_1" transform="matrix(33.20889,0,0,-33.20889,235.8301,25.44422)"/>
<use xlink:href="#font_1_7" transform="matrix(33.20889,0,0,-33.20889,251.46236,25.44422)"/>
<use xlink:href="#font_1_5" transform="matrix(33.20889,0,0,-33.20889,261.36399,32.119207)"/>
</g>
</svg>
