<?xml version="1.0" encoding="UTF-8" standalone="no"?>
<!DOCTYPE svg PUBLIC "-//W3C//DTD SVG 1.1//EN" "http://www.w3.org/Graphics/SVG/1.1/DTD/svg11.dtd">
<svg xmlns="http://www.w3.org/2000/svg" xmlns:xlink="http://www.w3.org/1999/xlink" version="1.1" width="55.36111pt" height="55.36111pt" viewBox="0 0 55.36111 55.36111">
<g enable-background="new">
<clipPath id="cp0">
<path transform="matrix(.27777777,0,0,-.27777777,0,55.36111)" d="M 99.9414 1.79297 L 179.59 1.79297 L 185.406 3.35547 L 191.738 7.62891 L 196.012 13.9609 L 197.578 19.7773 L 197.578 21.7188 L 197.578 177.137 L 197.578 179.074 L 196.012 184.887 L 191.738 191.223 L 185.406 195.492 L 179.59 197.059 L 177.652 197.059 L 22.2344 197.059 L 20.293 197.059 L 14.4766 195.492 L 8.14453 191.223 L 3.87109 184.887 L 2.30859 179.074 L 2.30859 177.137 L 2.30859 21.7188 L 2.30859 19.7773 L 3.87109 13.9609 L 8.14453 7.62891 L 14.4766 3.35547 L 20.293 1.79297 L 22.2344 1.79297 L 99.9414 1.79297 Z "/>
</clipPath>
<g clip-path="url(#cp0)">
<path transform="matrix(.27777777,0,0,-.27777777,0,55.36111)" d="M 2.30859 1.79297 L 197.5786 1.79297 L 197.5786 197.05898 L 2.30859 197.05898 Z " fill="#a0a0a0"/>
</g>
<clipPath id="cp1">
<path transform="matrix(.27777777,0,0,-.27777777,0,55.36111)" d="M 48.1367 39.6523 L 87.9883 39.6523 L 87.9883 159.203 L 48.1367 159.203 L 48.1367 39.6523 Z "/>
</clipPath>
<g clip-path="url(#cp1)">
<path transform="matrix(.27777777,0,0,-.27777777,0,55.36111)" d="M 48.1367 39.6523 L 87.9883 39.6523 L 87.9883 159.20331 L 48.1367 159.20331 Z " fill="#ecb91c"/>
</g>
<path transform="matrix(.27777777,0,0,-.27777777,0,55.36111)" stroke-width="9.96264" stroke-linecap="butt" stroke-miterlimit="10" stroke-linejoin="miter" fill="none" stroke="#000000" d="M 48.1367 39.6523 L 87.9883 39.6523 L 87.9883 159.203 L 48.1367 159.203 L 48.1367 39.6523 Z "/>
<clipPath id="cp2">
<path transform="matrix(.27777777,0,0,-.27777777,0,55.36111)" d="M 111.898 39.6523 L 151.75 39.6523 L 151.75 159.203 L 111.898 159.203 L 111.898 39.6523 Z "/>
</clipPath>
<g clip-path="url(#cp2)">
<path transform="matrix(.27777777,0,0,-.27777777,0,55.36111)" d="M 111.898 39.6523 L 151.7496 39.6523 L 151.7496 159.20331 L 111.898 159.20331 Z " fill="#ecb91c"/>
</g>
<path transform="matrix(.27777777,0,0,-.27777777,0,55.36111)" stroke-width="9.96264" stroke-linecap="butt" stroke-miterlimit="10" stroke-linejoin="miter" fill="none" stroke="#000000" d="M 111.898 39.6523 L 151.75 39.6523 L 151.75 159.203 L 111.898 159.203 L 111.898 39.6523 Z "/>
</g>
</svg>
