<?xml version="1.0" encoding="UTF-8" standalone="no"?>
<!DOCTYPE svg PUBLIC "-//W3C//DTD SVG 1.1//EN" "http://www.w3.org/Graphics/SVG/1.1/DTD/svg11.dtd">
<svg xmlns="http://www.w3.org/2000/svg" xmlns:xlink="http://www.w3.org/1999/xlink" version="1.1" width="55.36111pt" height="55.36111pt" viewBox="0 0 55.36111 55.36111">
<g enable-background="new">
<clipPath id="cp0">
<path transform="matrix(.27777777,0,0,-.27777777,0,55.36111)" d="M 99.625 1.79297 L 179.273 1.79297 L 185.09 3.35547 L 191.422 7.62891 L 195.695 13.9609 L 197.262 19.7773 L 197.262 21.7188 L 197.262 177.137 L 197.262 179.074 L 195.695 184.887 L 191.422 191.223 L 185.09 195.492 L 179.273 197.059 L 177.336 197.059 L 21.918 197.059 L 19.9766 197.059 L 14.1602 195.492 L 7.82813 191.223 L 3.55469 184.887 L 1.99219 179.074 L 1.99219 177.137 L 1.99219 21.7188 L 1.99219 19.7773 L 3.55469 13.9609 L 7.82813 7.62891 L 14.1602 3.35547 L 19.9766 1.79297 L 21.918 1.79297 L 99.625 1.79297 Z "/>
</clipPath>
<g clip-path="url(#cp0)">
<path transform="matrix(.27777777,0,0,-.27777777,0,55.36111)" d="M 1.99219 1.79297 L 197.26219 1.79297 L 197.26219 197.05898 L 1.99219 197.05898 Z " fill="#a0a0a0"/>
</g>
<clipPath id="cp1">
<path transform="matrix(.27777777,0,0,-.27777777,0,55.36111)" d="M 79.6992 39.6523 L 139.477 99.4258 L 79.6992 159.203 L 79.6992 39.6523 Z "/>
</clipPath>
<g clip-path="url(#cp1)">
<path transform="matrix(.27777777,0,0,-.27777777,0,55.36111)" d="M 79.6992 39.6523 L 139.4765 39.6523 L 139.4765 159.20331 L 79.6992 159.20331 Z " fill="#35bf00"/>
</g>
<path transform="matrix(.27777777,0,0,-.27777777,0,55.36111)" stroke-width="9.96264" stroke-linecap="butt" stroke-miterlimit="10" stroke-linejoin="miter" fill="none" stroke="#000000" d="M 79.6992 39.6523 L 139.477 99.4258 L 79.6992 159.203 L 79.6992 39.6523 Z "/>
</g>
</svg>
