<?xml version="1.0" encoding="UTF-8" standalone="no"?>
<!DOCTYPE svg PUBLIC "-//W3C//DTD SVG 1.1//EN" "http://www.w3.org/Graphics/SVG/1.1/DTD/svg11.dtd">
<svg xmlns="http://www.w3.org/2000/svg" xmlns:xlink="http://www.w3.org/1999/xlink" version="1.1" width="55.36111pt" height="55.36111pt" viewBox="0 0 55.36111 55.36111">
<g enable-background="new">
<clipPath id="cp0">
<path transform="matrix(.27777777,0,0,-.27777777,0,55.36111)" d="M 100.047 1.79297 L 179.695 1.79297 L 185.512 3.35547 L 191.844 7.62891 L 196.117 13.9609 L 197.684 19.7773 L 197.684 21.7188 L 197.684 177.137 L 197.684 179.074 L 196.117 184.887 L 191.844 191.223 L 185.512 195.492 L 179.695 197.059 L 177.758 197.059 L 22.3398 197.059 L 20.3984 197.059 L 14.582 195.492 L 8.25 191.223 L 3.97656 184.887 L 2.41406 179.074 L 2.41406 177.137 L 2.41406 21.7188 L 2.41406 19.7773 L 3.97656 13.9609 L 8.25 7.62891 L 14.582 3.35547 L 20.3984 1.79297 L 22.3398 1.79297 L 100.047 1.79297 Z "/>
</clipPath>
<g clip-path="url(#cp0)">
<path transform="matrix(.27777777,0,0,-.27777777,0,55.36111)" d="M 2.41406 1.79297 L 197.68407 1.79297 L 197.68407 197.05898 L 2.41406 197.05898 Z " fill="#a0a0a0"/>
</g>
<path transform="matrix(.27777777,0,0,-.27777777,0,55.36111)" d="M 144.359 67.1914 L 144.359 67.1914 C 139.004 50.5625 126.672 37.082 110.586 30.2695 C 116.715 35.9063 121.551 42.8164 124.738 50.5117 C 117.813 52.2109 111.391 55.5547 106.02 60.2461 C 109.926 59.1602 113.965 58.6055 118.02 58.6055 C 127.484 58.6055 136.711 61.6133 144.359 67.1914 "/>
<path transform="matrix(.27777777,0,0,-.27777777,0,55.36111)" stroke-width="6.97385" stroke-linecap="butt" stroke-miterlimit="10" stroke-linejoin="miter" fill="none" stroke="#000000" d="M 144.359 67.1914 L 144.359 67.1914 C 139.004 50.5625 126.672 37.082 110.586 30.2695 C 116.715 35.9063 121.551 42.8164 124.738 50.5117 C 117.813 52.2109 111.391 55.5547 106.02 60.2461 C 109.926 59.1602 113.965 58.6055 118.02 58.6055 C 127.484 58.6055 136.711 61.6133 144.359 67.1914 Z "/>
<path transform="matrix(.27777777,0,0,-.27777777,0,55.36111)" d="M 119.906 48.3555 L 113.852 39.2188 L 110.734 52.8164 L 119.906 48.3555 Z "/>
<path transform="matrix(.27777777,0,0,-.27777777,0,55.36111)" stroke-width="13.9477" stroke-linecap="butt" stroke-miterlimit="10" stroke-linejoin="miter" fill="none" stroke="#000000" d="M 149.711 122.582 L 149.711 122.582 C 140.711 141.883 121.34 154.223 100.047 154.223 C 69.7852 154.223 45.2539 129.688 45.2539 99.4258 C 45.2539 69.1641 69.7852 44.6328 100.047 44.6328 C 107.508 44.6328 114.898 46.1602 121.75 49.1133 "/>
</g>
</svg>
