<?xml version="1.0" encoding="UTF-8" standalone="no"?>
<!DOCTYPE svg PUBLIC "-//W3C//DTD SVG 1.1//EN" "http://www.w3.org/Graphics/SVG/1.1/DTD/svg11.dtd">
<svg xmlns="http://www.w3.org/2000/svg" xmlns:xlink="http://www.w3.org/1999/xlink" version="1.1" width="373.61109pt" height="1203.5pt" viewBox="0 0 373.61109 1203.5">
<g enable-background="new">
<symbol id="font_0_2">
<path d="M .079 .59400007 C .122 .58000007 .157 .57900008 .16800002 .57900008 C .28100003 .57900008 .35300002 .66200008 .35300002 .67600008 C .35300002 .68000009 .351 .68500009 .34500004 .68500009 C .34300003 .68500009 .34100003 .68500009 .33200003 .68100008 C .27600003 .65700009 .22800002 .65400007 .20200002 .65400007 C .136 .65400007 .08900001 .6740001 .07 .68200007 C .063 .68500009 .061000006 .68500009 .060000004 .68500009 C .052 .68500009 .052 .6790001 .052 .66300007 L .052 .36600004 C .052 .34800003 .052 .342 .064 .342 C .069000009 .342 .07 .34300003 .080000009 .35500003 C .108 .39600004 .155 .42000003 .20500002 .42000003 C .25800003 .42000003 .284 .37100003 .29200004 .354 C .30900003 .315 .31000004 .266 .31000004 .22800002 C .31000004 .19000001 .31000004 .133 .28200004 .088 C .26000003 .052 .22100002 .027000003 .17700002 .027000003 C .11100001 .027000003 .046000005 .072000008 .028000005 .14500001 C .033 .143 .039000006 .142 .044 .142 C .061000006 .142 .08800001 .15200001 .08800001 .186 C .08800001 .214 .069000009 .23 .044 .23 C .026 .23 0 .221 0 .18200001 C 0 .097 .068 0 .17900002 0 C .29200004 0 .39100004 .095 .39100004 .222 C .39100004 .34100003 .31100003 .44000004 .20600003 .44000004 C .14900002 .44000004 .10500001 .41500003 .079 .38700003 L .079 .59400007 Z "/>
</symbol>
<symbol id="font_0_1">
<path d="M .33400003 .651 C .33400003 .67 .33400003 .675 .32 .675 C .312 .675 .30900003 .675 .301 .66300007 L 0 .19600001 L 0 .16700001 L .263 .16700001 L .263 .076000008 C .263 .039 .261 .029000001 .18800001 .029000001 L .16800002 .029000001 L .16800002 0 C .19100002 .002 .27 .002 .298 .002 C .326 .002 .40600003 .002 .42900003 0 L .42900003 .029000001 L .409 .029000001 C .337 .029000001 .33400003 .039 .33400003 .076000008 L .33400003 .16700001 L .435 .16700001 L .435 .19600001 L .33400003 .19600001 L .33400003 .651 M .268 .573 L .268 .19600001 L .025 .19600001 L .268 .573 Z "/>
</symbol>
<symbol id="font_0_6">
<path d="M .143 .38000003 C .12600002 .379 .122 .37800003 .122 .36900003 C .122 .35900004 .127 .35900004 .14500001 .35900004 L .19100002 .35900004 C .276 .35900004 .314 .289 .314 .193 C .314 .062000004 .24599999 .027000003 .197 .027000003 C .14900002 .027000003 .067 .050000006 .038000004 .11600001 C .07000001 .111 .099 .12900001 .099 .165 C .099 .194 .078 .214 .050000006 .214 C .026 .214 0 .2 0 .162 C 0 .073 .08900001 0 .20000002 0 C .319 0 .407 .091000009 .407 .192 C .407 .284 .333 .356 .23700002 .37300004 C .324 .398 .38000003 .47100003 .38000003 .549 C .38000003 .6280001 .298 .68600007 .201 .68600007 C .101 .68600007 .027000003 .62500008 .027000003 .55200007 C .027000003 .512 .058000007 .504 .07300001 .504 C .094000007 .504 .11800001 .51900008 .11800001 .549 C .11800001 .58100005 .094000007 .595 .072000008 .595 C .06600001 .595 .064 .595 .061000006 .59400007 C .099 .66200008 .19300002 .66200008 .19800002 .66200008 C .231 .66200008 .296 .6470001 .296 .549 C .296 .53000006 .293 .474 .264 .43100003 C .234 .38700003 .20000002 .384 .17300001 .38300003 L .143 .38000003 Z "/>
</symbol>
<symbol id="font_0_5">
<path d="M .39100004 .16800002 L .36900003 .16800002 C .36600004 .15100001 .358 .096 .34800003 .080000009 C .34100003 .071 .284 .071 .254 .071 L .069000009 .071 C .09600001 .094000007 .157 .158 .183 .18200001 C .335 .32200004 .39100004 .374 .39100004 .47300003 C .39100004 .588 .3 .665 .18400002 .665 C .068 .665 0 .56600007 0 .48000003 C 0 .42900003 .044 .42900003 .047 .42900003 C .068 .42900003 .094000007 .44400005 .094000007 .476 C .094000007 .504 .075 .523 .047 .523 C .038000004 .523 .036 .523 .033 .522 C .052 .59000006 .106 .63600006 .171 .63600006 C .256 .63600006 .30800004 .565 .30800004 .47300003 C .30800004 .388 .25900004 .314 .20200002 .25 L 0 .024 L 0 0 L .36500005 0 L .39100004 .16800002 Z "/>
</symbol>
<symbol id="font_0_4">
<path d="M .19700001 .64100006 C .19700001 .66400006 .19700001 .665 .177 .665 C .15300001 .638 .103 .601 0 .601 L 0 .572 C .023000002 .572 .073 .572 .128 .59800007 L .128 .07700001 C .128 .041 .125 .029000001 .037 .029000001 L .0059999974 .029000001 L .0059999974 0 C .033 .002 .13000001 .002 .163 .002 C .196 .002 .292 .002 .319 0 L .319 .029000001 L .288 .029000001 C .2 .029000001 .19700001 .041 .19700001 .07700001 L .19700001 .64100006 Z "/>
</symbol>
<symbol id="font_0_3">
<path d="M .407 .34100003 C .407 .42400003 .402 .50500008 .366 .58100005 C .32500003 .66400006 .253 .68600007 .204 .68600007 C .146 .68600007 .075 .65700009 .038000004 .57400009 C .010000002 .51100006 0 .44900004 0 .34100003 C 0 .244 .0069999995 .171 .043000007 .10000001 C .082 .024000003 .151 0 .20300001 0 C .29000003 0 .34 .052 .36900003 .11 C .405 .185 .407 .28300003 .407 .34100003 M .20300001 .020000002 C .171 .020000002 .106 .038000004 .087000008 .147 C .076000008 .207 .076000008 .28300003 .076000008 .35300002 C .076000008 .43500004 .076000008 .50900009 .092 .5680001 C .109000008 .63500007 .16 .66600009 .20300001 .66600009 C .241 .66600009 .299 .64300009 .31800003 .55700007 C .331 .50000008 .331 .421 .331 .35300002 C .331 .286 .331 .21000001 .32000003 .149 C .301 .039000006 .238 .020000002 .20300001 .020000002 Z "/>
</symbol>
<use xlink:href="#font_0_2" transform="matrix(33.20889,0,0,-33.20889,60.29362,96.5863)"/>
<use xlink:href="#font_0_1" transform="matrix(33.20889,0,0,-33.20889,59.563028,137.22144)"/>
<use xlink:href="#font_0_6" transform="matrix(33.20889,0,0,-33.20889,60.02795,179.58545)"/>
<use xlink:href="#font_0_5" transform="matrix(33.20889,0,0,-33.20889,60.29362,220.22174)"/>
<use xlink:href="#font_0_4" transform="matrix(33.20889,0,0,-33.20889,61.688398,261.88838)"/>
<use xlink:href="#font_0_4" transform="matrix(33.20889,0,0,-33.20889,30.688954,905.2217)"/>
<use xlink:href="#font_0_3" transform="matrix(33.20889,0,0,-33.20889,45.361886,905.91909)"/>
<use xlink:href="#font_0_3" transform="matrix(33.20889,0,0,-33.20889,61.69526,905.91909)"/>
<use xlink:href="#font_0_2" transform="matrix(33.20889,0,0,-33.20889,45.293539,1009.58547)"/>
<use xlink:href="#font_0_3" transform="matrix(33.20889,0,0,-33.20889,61.361246,1009.58547)"/>
<use xlink:href="#font_0_5" transform="matrix(33.20889,0,0,-33.20889,45.293539,1060.8889)"/>
<use xlink:href="#font_0_2" transform="matrix(33.20889,0,0,-33.20889,61.626916,1061.5863)"/>
<use xlink:href="#font_0_3" transform="matrix(33.20889,0,0,-33.20889,61.36142,1113.586)"/>
<use xlink:href="#font_0_3" transform="matrix(33.20889,0,0,-33.20889,225.36151,1113.586)"/>
<use xlink:href="#font_0_4" transform="matrix(33.20889,0,0,-33.20889,194.35547,905.22146)"/>
<use xlink:href="#font_0_3" transform="matrix(33.20889,0,0,-33.20889,209.0284,905.9188)"/>
<use xlink:href="#font_0_3" transform="matrix(33.20889,0,0,-33.20889,225.36176,905.9188)"/>
<use xlink:href="#font_0_5" transform="matrix(33.20889,0,0,-33.20889,192.96071,697.5553)"/>
<use xlink:href="#font_0_3" transform="matrix(33.20889,0,0,-33.20889,209.0284,698.2527)"/>
<use xlink:href="#font_0_3" transform="matrix(33.20889,0,0,-33.20889,225.36176,698.2527)"/>
<use xlink:href="#font_0_6" transform="matrix(33.20889,0,0,-33.20889,192.69503,490.91889)"/>
<use xlink:href="#font_0_3" transform="matrix(33.20889,0,0,-33.20889,209.0284,490.91889)"/>
<use xlink:href="#font_0_3" transform="matrix(33.20889,0,0,-33.20889,225.36176,490.91889)"/>
<use xlink:href="#font_0_1" transform="matrix(33.20889,0,0,-33.20889,192.2301,282.55543)"/>
<use xlink:href="#font_0_3" transform="matrix(33.20889,0,0,-33.20889,209.0284,283.2528)"/>
<use xlink:href="#font_0_3" transform="matrix(33.20889,0,0,-33.20889,225.36176,283.2528)"/>
<use xlink:href="#font_0_2" transform="matrix(33.20889,0,0,-33.20889,192.96071,75.58557)"/>
<use xlink:href="#font_0_3" transform="matrix(33.20889,0,0,-33.20889,209.0284,75.58557)"/>
<use xlink:href="#font_0_3" transform="matrix(33.20889,0,0,-33.20889,225.36176,75.58557)"/>
<symbol id="font_1_9">
<path d="M .24400002 .37200005 L .24400002 .65000006 L .36200003 .65000006 C .52300009 .65000006 .52500006 .572 .52500006 .511 C .52500006 .45500005 .52500006 .37200005 .36 .37200005 L .24400002 .37200005 M .51100006 .351 C .62700006 .381 .67800006 .44600005 .67800006 .512 C .67800006 .61300006 .5680001 .697 .38000003 .697 L 0 .697 L 0 .65000006 L .107999999 .65000006 L .107999999 .058000003 L 0 .058000003 L 0 .011000001 C .036000004 .014 .134 .014 .176 .014 C .218 .014 .316 .014 .35200004 .011000001 L .35200004 .058000003 L .24400002 .058000003 L .24400002 .33600004 L .361 .33600004 C .37500004 .33600004 .41900004 .33600004 .45000003 .30200003 C .48200003 .26700003 .48200003 .24800003 .48200003 .17500001 C .48200003 .109000008 .48200003 .060000004 .55200007 .026 C .5960001 .0040000008 .65800008 0 .69900009 0 C .80600008 0 .81900009 .09 .81900009 .106000009 C .81900009 .128 .80500009 .128 .7950001 .128 C .77400007 .128 .77300009 .11800001 .7720001 .105000007 C .7670001 .058000003 .73800006 .036000004 .70800009 .036000004 C .64800009 .036000004 .63900008 .107 .63400009 .14900002 C .632 .16000001 .6240001 .22900002 .6230001 .23400001 C .609 .30400003 .5540001 .335 .51100006 .351 Z "/>
</symbol>
<symbol id="font_1_4">
<path d="M .393 .078 L .393 0 L .57 .006 L .57 .053000004 C .508 .053000004 .501 .053000004 .501 .092 L .501 .45600004 L .31800003 .44800005 L .31800003 .40100003 C .38 .40100003 .38700003 .40100003 .38700003 .36200003 L .38700003 .171 C .38700003 .089 .33600004 .036000004 .263 .036000004 C .186 .036000004 .18300002 .061000006 .18300002 .115 L .18300002 .45600004 L 0 .44800005 L 0 .40100003 C .062000008 .40100003 .069000009 .40100003 .069000009 .36200003 L .069000009 .12900001 C .069000009 .022 .15 0 .249 0 C .27500005 0 .347 0 .393 .078 Z "/>
</symbol>
<symbol id="font_1_1">
<path d="M .069000009 .356 L .069000009 .047000003 L 0 .047000003 L 0 0 C .028000005 .001 .088 .003 .126 .003 C .165 .003 .22400002 .001 .25200004 0 L .25200004 .047000003 L .18300002 .047000003 L .18300002 .256 C .18300002 .365 .269 .41400004 .33200003 .41400004 C .366 .41400004 .38700003 .393 .38700003 .317 L .38700003 .047000003 L .31800003 .047000003 L .31800003 0 C .34600003 .001 .40600003 .003 .444 .003 C .48299999 .003 .542 .001 .57 0 L .57 .047000003 L .501 .047000003 L .501 .30600003 C .501 .411 .44700004 .45000003 .347 .45000003 C .251 .45000003 .19800002 .393 .172 .342 L .172 .45000003 L 0 .44200004 L 0 .395 C .062000008 .395 .069000009 .395 .069000009 .356 Z "/>
</symbol>
<symbol id="font_1_6">
<path d="M .38 .049000004 L .38 0 L .563 .006 L .563 .053000004 C .50100007 .053000004 .49400003 .053000004 .49400003 .092 L .49400003 .7 L .31700004 .69200006 L .31700004 .64500007 C .379 .64500007 .38600005 .64500007 .38600005 .606 L .38600005 .41100005 C .33600004 .45000006 .28400005 .45600004 .251 .45600004 C .105000007 .45600004 0 .36800004 0 .22700002 C 0 .095 .09200001 0 .24000003 0 C .301 0 .34900005 .024 .38 .049000004 M .38 .35900004 L .38 .109000008 C .36700005 .091 .32600004 .036000004 .25 .036000004 C .128 .036000004 .128 .157 .128 .22700002 C .128 .27500005 .128 .32900004 .154 .36800004 C .18300002 .41000004 .23 .42000006 .26100005 .42000006 C .31800003 .42000006 .35800005 .38800005 .38 .35900004 Z "/>
</symbol>
<symbol id="font_1_7">
<path d="M .43 .224 C .45200003 .224 .462 .224 .462 .25100003 C .462 .28200004 .45600004 .35500003 .40600003 .40500004 C .36900003 .44100005 .316 .45900003 .24700001 .45900003 C .087 .45900003 0 .35600005 0 .231 C 0 .097 .099999997 0 .261 0 C .41900004 0 .462 .106 .462 .123 C .462 .141 .44300003 .141 .43800003 .141 C .421 .141 .41900004 .136 .41300003 .120000008 C .39200003 .072 .335 .040000004 .27 .040000004 C .12900001 .040000004 .128 .17300001 .128 .224 L .43 .224 M .128 .25700004 C .13 .29600004 .131 .33800004 .15200001 .37100003 C .178 .41100005 .218 .42300005 .24700001 .42300005 C .36400003 .42300005 .36600004 .29200004 .367 .25700004 L .128 .25700004 Z "/>
</symbol>
<symbol id="font_1_8">
<path d="M .25 .30200003 L .42700003 .30200003 C .56600007 .30200003 .68200007 .374 .68200007 .49100004 C .68200007 .601 .58300009 .68600007 .41700004 .68600007 L 0 .68600007 L 0 .63900008 L .107999999 .63900008 L .107999999 .047000003 L 0 .047000003 L 0 0 C .038000008 .003 .136 .003 .179 .003 C .222 .003 .32000003 .003 .358 0 L .358 .047000003 L .25 .047000003 L .25 .30200003 M .37800003 .34300003 L .24400002 .34300003 L .24400002 .63900008 L .379 .63900008 C .52900007 .63900008 .52900007 .563 .52900007 .49100004 C .52900007 .42000003 .52900007 .34300003 .37800003 .34300003 Z "/>
</symbol>
<symbol id="font_1_a">
<path d="M .17700002 .23700002 L .17700002 .694 L 0 .68600007 L 0 .63900008 C .062000008 .63900008 .069000009 .63900008 .069000009 .6 L .069000009 .047000003 L 0 .047000003 L 0 0 C .037 .001 .08400001 .003 .120000008 .003 C .157 .003 .20500002 .001 .24100003 0 L .24100003 .047000003 L .172 .047000003 L .172 .17400001 C .201 .19700001 .209 .20300001 .229 .21700001 L .33 .091000009 C .33900003 .079 .35500003 .059000005 .35500003 .056 C .35500003 .047000003 .337 .047000003 .32400004 .047000003 L .32400004 0 C .35400004 .002 .441 .003 .446 .003 C .48200006 .003 .51600006 .002 .55 0 L .55 .047000003 L .53300008 .047000003 C .49 .047000003 .48700006 .051000004 .47400005 .067 L .305 .27800004 L .43500004 .379 C .44900004 .39000003 .45800004 .397 .52500006 .397 L .52500006 .44400005 C .49800004 .441 .47300006 .441 .44700004 .441 C .42000003 .441 .35500003 .44300003 .33200003 .44400005 L .33200003 .397 C .35500003 .397 .358 .39400003 .36600004 .386 L .17700002 .23700002 Z "/>
</symbol>
<symbol id="font_1_3">
<path d="M .082 .40300004 L .082 .12900001 C .082 .022 .16900002 0 .24000001 0 C .316 0 .36100004 .057000005 .36100004 .13000001 L .36100004 .183 L .314 .183 L .314 .132 C .314 .064 .282 .040000004 .254 .040000004 C .19600001 .040000004 .19600001 .104 .19600001 .127 L .19600001 .40300004 L .342 .40300004 L .342 .45000006 L .19600001 .45000006 L .19600001 .64100006 L .149 .64100006 C .14800002 .541 .09900001 .44200004 0 .43900005 L 0 .40300004 L .082 .40300004 Z "/>
</symbol>
<symbol id="font_1_2">
<path d="M .17300001 .3 C .136 .30700005 .071 .31800003 .071 .36500005 C .071 .42700006 .164 .42700006 .18300002 .42700006 C .25800003 .42700006 .296 .39800004 .301 .34300003 C .302 .32800005 .30300004 .323 .324 .323 C .348 .323 .348 .32800005 .348 .35100005 L .348 .43100003 C .348 .45000006 .348 .45900003 .33000005 .45900003 C .32600004 .45900003 .324 .45900003 .28500004 .44000004 C .259 .45300005 .22400002 .45900003 .18400002 .45900003 C .154 .45900003 0 .45900003 0 .32800005 C 0 .28800003 .02 .26100005 .04 .244 C .080000009 .209 .118 .20300001 .19500001 .18900001 C .23100002 .183 .306 .17 .306 .111 C .306 .036000004 .214 .036000004 .192 .036000004 C .086 .036000004 .060000004 .109000008 .048 .15200001 C .042999999 .16600001 .038000004 .16600001 .024 .16600001 C 0 .16600001 0 .16000001 0 .13700001 L 0 .028 C 0 .009 0 0 .018 0 C .024999999 0 .027000003 0 .048 .015000001 C .049000004 .015000001 .071 .030000002 .074 .032 C .120000008 0 .172 0 .192 0 C .223 0 .37700004 0 .37700004 .146 C .37700004 .18900001 .357 .224 .32200004 .252 C .283 .28100003 .251 .28700004 .17300001 .3 Z "/>
</symbol>
<symbol id="font_1_5">
<path d="M .342 .083000008 C .342 .052000006 .342 .006 .446 .006 L .49400003 .006 C .514 .006 .526 .006 .526 .030000002 C .526 .053000004 .513 .053000004 .5 .053000004 C .439 .054 .439 .067 .439 .09 L .439 .30500005 C .439 .39400003 .368 .45900003 .21900001 .45900003 C .162 .45900003 .040000004 .45500005 .040000004 .36700005 C .040000004 .323 .075 .30400003 .102 .30400003 C .133 .30400003 .165 .32500003 .165 .36700005 C .165 .39700005 .146 .41400004 .143 .41600005 C .171 .42200003 .20300001 .42300005 .215 .42300005 C .29000003 .42300005 .32500003 .38100005 .32500003 .30500005 L .32500003 .27100004 C .254 .26800005 0 .25900004 0 .114 C 0 .018 .124 0 .193 0 C .273 0 .32000003 .041 .342 .083000008 M .32500003 .24000001 L .32500003 .14500001 C .32500003 .049000004 .23300001 .036000004 .208 .036000004 C .157 .036000004 .117 .071 .117 .115 C .117 .223 .275 .237 .32500003 .24000001 Z "/>
</symbol>
<use xlink:href="#font_1_9" transform="matrix(30.303053,0,0,-30.303053,57.84835,303.22184)"/>
<use xlink:href="#font_1_4" transform="matrix(30.303053,0,0,-30.303053,84.03019,303.0703)"/>
<use xlink:href="#font_1_1" transform="matrix(30.303053,0,0,-30.303053,103.36354,302.8885)"/>
<use xlink:href="#font_1_6" transform="matrix(30.303053,0,0,-30.303053,122.48477,303.0703)"/>
<use xlink:href="#font_1_7" transform="matrix(30.303053,0,0,-30.303053,141.6363,303.0703)"/>
<use xlink:href="#font_1_8" transform="matrix(30.303053,0,0,-30.303053,52.848356,1153.8884)"/>
<use xlink:href="#font_1_4" transform="matrix(30.303053,0,0,-30.303053,76.69685,1154.0702)"/>
<use xlink:href="#font_1_1" transform="matrix(30.303053,0,0,-30.303053,96.030208,1153.8884)"/>
<use xlink:href="#font_1_a" transform="matrix(30.303053,0,0,-30.303053,115.12113,1153.8884)"/>
<use xlink:href="#font_1_3" transform="matrix(30.303053,0,0,-30.303053,132.96964,1154.0702)"/>
<use xlink:href="#font_1_7" transform="matrix(30.303053,0,0,-30.303053,146.96964,1154.0702)"/>
<use xlink:href="#font_1_8" transform="matrix(30.303053,0,0,-30.303053,177.18224,1153.8884)"/>
<use xlink:href="#font_1_4" transform="matrix(30.303053,0,0,-30.303053,201.03075,1154.0702)"/>
<use xlink:href="#font_1_1" transform="matrix(30.303053,0,0,-30.303053,220.3641,1153.8884)"/>
<use xlink:href="#font_1_a" transform="matrix(30.303053,0,0,-30.303053,239.45503,1153.8884)"/>
<use xlink:href="#font_1_3" transform="matrix(30.303053,0,0,-30.303053,257.30354,1154.0702)"/>
<use xlink:href="#font_1_7" transform="matrix(30.303053,0,0,-30.303053,271.30357,1154.0702)"/>
<use xlink:href="#font_1_2" transform="matrix(30.303053,0,0,-30.303053,287.48539,1154.0702)"/>
<use xlink:href="#font_1_3" transform="matrix(30.303053,0,0,-30.303053,300.6369,1154.0702)"/>
<use xlink:href="#font_1_5" transform="matrix(30.303053,0,0,-30.303053,314.63694,1154.0702)"/>
<use xlink:href="#font_1_1" transform="matrix(30.303053,0,0,-30.303053,332.03089,1153.8884)"/>
<use xlink:href="#font_1_6" transform="matrix(30.303053,0,0,-30.303053,351.15214,1154.0702)"/>
<path transform="matrix(.27777777,0,0,-.27777777,0,1203.5)" stroke-width="7.47198" stroke-linecap="butt" stroke-miterlimit="10" stroke-linejoin="miter" fill="none" stroke="#000000" d="M 384.398 1112.85 L 294.734 1112.85 "/>
<path transform="matrix(.27777777,0,0,-.27777777,0,1203.5)" stroke-width="7.47198" stroke-linecap="butt" stroke-miterlimit="10" stroke-linejoin="miter" fill="none" stroke="#000000" d="M 309.68 739.254 L 294.734 739.254 "/>
<path transform="matrix(.27777777,0,0,-.27777777,0,1203.5)" stroke-width="7.47198" stroke-linecap="butt" stroke-miterlimit="10" stroke-linejoin="miter" fill="none" stroke="#000000" d="M 309.68 552.453 L 294.734 552.453 "/>
<path transform="matrix(.27777777,0,0,-.27777777,0,1203.5)" stroke-width="7.47198" stroke-linecap="butt" stroke-miterlimit="10" stroke-linejoin="miter" fill="none" stroke="#000000" d="M 384.398 365.656 L 294.734 365.656 "/>
<path transform="matrix(.27777777,0,0,-.27777777,0,1203.5)" stroke-width="7.47198" stroke-linecap="butt" stroke-miterlimit="10" stroke-linejoin="miter" fill="none" stroke="#000000" d="M 982.156 4101.64 L 885.023 4101.64 "/>
<path transform="matrix(.27777777,0,0,-.27777777,0,1203.5)" stroke-width="7.47198" stroke-linecap="butt" stroke-miterlimit="10" stroke-linejoin="miter" fill="none" stroke="#000000" d="M 907.438 3354.45 L 885.023 3354.45 "/>
<path transform="matrix(.27777777,0,0,-.27777777,0,1203.5)" stroke-width="7.47198" stroke-linecap="butt" stroke-miterlimit="10" stroke-linejoin="miter" fill="none" stroke="#000000" d="M 907.438 2607.25 L 885.023 2607.25 "/>
<path transform="matrix(.27777777,0,0,-.27777777,0,1203.5)" stroke-width="7.47198" stroke-linecap="butt" stroke-miterlimit="10" stroke-linejoin="miter" fill="none" stroke="#000000" d="M 907.438 1860.05 L 885.023 1860.05 "/>
<path transform="matrix(.27777777,0,0,-.27777777,0,1203.5)" stroke-width="7.47198" stroke-linecap="butt" stroke-miterlimit="10" stroke-linejoin="miter" fill="none" stroke="#000000" d="M 907.438 1112.85 L 885.023 1112.85 "/>
<path transform="matrix(.27777777,0,0,-.27777777,0,1203.5)" stroke-width="7.47198" stroke-linecap="butt" stroke-miterlimit="10" stroke-linejoin="miter" fill="none" stroke="#000000" d="M 907.438 552.207 L 892.492 552.207 "/>
<path transform="matrix(.27777777,0,0,-.27777777,0,1203.5)" stroke-width="7.47198" stroke-linecap="butt" stroke-miterlimit="10" stroke-linejoin="miter" fill="none" stroke="#000000" d="M 907.438 739.004 L 892.492 739.004 "/>
<path transform="matrix(.27777777,0,0,-.27777777,0,1203.5)" stroke-width="7.47198" stroke-linecap="butt" stroke-miterlimit="10" stroke-linejoin="miter" fill="none" stroke="#000000" d="M 907.438 925.805 L 892.492 925.805 "/>
<path transform="matrix(.27777777,0,0,-.27777777,0,1203.5)" stroke-width="7.47198" stroke-linecap="butt" stroke-miterlimit="10" stroke-linejoin="miter" fill="none" stroke="#000000" d="M 907.438 1112.61 L 892.492 1112.61 "/>
<path transform="matrix(.27777777,0,0,-.27777777,0,1203.5)" stroke-width="7.47198" stroke-linecap="butt" stroke-miterlimit="10" stroke-linejoin="miter" fill="none" stroke="#000000" d="M 907.438 1299.4 L 892.492 1299.4 "/>
<path transform="matrix(.27777777,0,0,-.27777777,0,1203.5)" stroke-width="7.47198" stroke-linecap="butt" stroke-miterlimit="10" stroke-linejoin="miter" fill="none" stroke="#000000" d="M 907.438 1486.2 L 892.492 1486.2 "/>
<path transform="matrix(.27777777,0,0,-.27777777,0,1203.5)" stroke-width="7.47198" stroke-linecap="butt" stroke-miterlimit="10" stroke-linejoin="miter" fill="none" stroke="#000000" d="M 907.438 1673 L 892.492 1673 "/>
<path transform="matrix(.27777777,0,0,-.27777777,0,1203.5)" stroke-width="7.47198" stroke-linecap="butt" stroke-miterlimit="10" stroke-linejoin="miter" fill="none" stroke="#000000" d="M 907.438 1859.8 L 892.492 1859.8 "/>
<path transform="matrix(.27777777,0,0,-.27777777,0,1203.5)" stroke-width="7.47198" stroke-linecap="butt" stroke-miterlimit="10" stroke-linejoin="miter" fill="none" stroke="#000000" d="M 907.438 2046.6 L 892.492 2046.6 "/>
<path transform="matrix(.27777777,0,0,-.27777777,0,1203.5)" stroke-width="7.47198" stroke-linecap="butt" stroke-miterlimit="10" stroke-linejoin="miter" fill="none" stroke="#000000" d="M 907.438 2233.4 L 892.492 2233.4 "/>
<path transform="matrix(.27777777,0,0,-.27777777,0,1203.5)" stroke-width="7.47198" stroke-linecap="butt" stroke-miterlimit="10" stroke-linejoin="miter" fill="none" stroke="#000000" d="M 907.438 2420.2 L 892.492 2420.2 "/>
<path transform="matrix(.27777777,0,0,-.27777777,0,1203.5)" stroke-width="7.47198" stroke-linecap="butt" stroke-miterlimit="10" stroke-linejoin="miter" fill="none" stroke="#000000" d="M 907.438 2607 L 892.492 2607 "/>
<path transform="matrix(.27777777,0,0,-.27777777,0,1203.5)" stroke-width="7.47198" stroke-linecap="butt" stroke-miterlimit="10" stroke-linejoin="miter" fill="none" stroke="#000000" d="M 907.438 2793.8 L 892.492 2793.8 "/>
<path transform="matrix(.27777777,0,0,-.27777777,0,1203.5)" stroke-width="7.47198" stroke-linecap="butt" stroke-miterlimit="10" stroke-linejoin="miter" fill="none" stroke="#000000" d="M 907.438 2980.6 L 892.492 2980.6 "/>
<path transform="matrix(.27777777,0,0,-.27777777,0,1203.5)" stroke-width="7.47198" stroke-linecap="butt" stroke-miterlimit="10" stroke-linejoin="miter" fill="none" stroke="#000000" d="M 907.438 3167.4 L 892.492 3167.4 "/>
<path transform="matrix(.27777777,0,0,-.27777777,0,1203.5)" stroke-width="7.47198" stroke-linecap="butt" stroke-miterlimit="10" stroke-linejoin="miter" fill="none" stroke="#000000" d="M 907.438 3354.2 L 892.492 3354.2 "/>
<path transform="matrix(.27777777,0,0,-.27777777,0,1203.5)" stroke-width="7.47198" stroke-linecap="butt" stroke-miterlimit="10" stroke-linejoin="miter" fill="none" stroke="#000000" d="M 907.438 3541 L 892.492 3541 "/>
<path transform="matrix(.27777777,0,0,-.27777777,0,1203.5)" stroke-width="7.47198" stroke-linecap="butt" stroke-miterlimit="10" stroke-linejoin="miter" fill="none" stroke="#000000" d="M 907.438 3727.8 L 892.492 3727.8 "/>
<path transform="matrix(.27777777,0,0,-.27777777,0,1203.5)" stroke-width="7.47198" stroke-linecap="butt" stroke-miterlimit="10" stroke-linejoin="miter" fill="none" stroke="#000000" d="M 907.438 3914.6 L 892.492 3914.6 "/>
<path transform="matrix(.27777777,0,0,-.27777777,0,1203.5)" stroke-width="7.47198" stroke-linecap="butt" stroke-miterlimit="10" stroke-linejoin="miter" fill="none" stroke="#000000" d="M 982.156 365.656 L 885.023 365.656 "/>
</g>
</svg>
