<?xml version="1.0" encoding="UTF-8" standalone="no"?>
<!DOCTYPE svg PUBLIC "-//W3C//DTD SVG 1.1//EN" "http://www.w3.org/Graphics/SVG/1.1/DTD/svg11.dtd">
<svg xmlns="http://www.w3.org/2000/svg" xmlns:xlink="http://www.w3.org/1999/xlink" version="1.1" width="1112.5pt" height="177.1111pt" viewBox="0 0 1112.5 177.1111">
<g enable-background="new">
<path transform="matrix(.27777777,0,0,-.27777777,0,177.1111)" d="M 13.1992 8 L 3998.2493 8 L 3998.2493 625.684 L 13.1992 625.684 Z M 1368.12 436.395 L 1607.225 436.395 L 1607.225 197.29 L 1368.12 197.29 Z M 3559.9 436.395 L 3799.005 436.395 L 3799.005 197.29 L 3559.9 197.29 Z " fill="#b2b2b2"/>
<path transform="matrix(.27777777,0,0,-.27777777,0,177.1111)" stroke-width="4.98132" stroke-linecap="butt" stroke-miterlimit="10" stroke-linejoin="miter" fill="none" stroke="#000000" d="M 13.1992 8 L 3998.2493 8 L 3998.2493 625.684 L 13.1992 625.684 Z M 1368.12 436.395 L 1607.225 436.395 L 1607.225 197.29 L 1368.12 197.29 Z M 3559.9 436.395 L 3799.005 436.395 L 3799.005 197.29 L 3559.9 197.29 Z "/>
</g>
</svg>
