<?xml version="1.0" encoding="UTF-8" standalone="no"?>
<!DOCTYPE svg PUBLIC "-//W3C//DTD SVG 1.1//EN" "http://www.w3.org/Graphics/SVG/1.1/DTD/svg11.dtd">
<svg xmlns="http://www.w3.org/2000/svg" xmlns:xlink="http://www.w3.org/1999/xlink" version="1.1" width="1217.6666pt" height="774.86117pt" viewBox="0 0 1217.6666 774.86117">
<g enable-background="new">
<symbol id="font_0_11">
<path d="M .15 .59200009 L .15 .061000006 L .040000008 .061000006 C .018 .061000006 .0059999974 .050000006 .0059999974 .030000002 C .0059999974 .011 .018 0 .040000008 0 L .38000003 0 C .397 .0019999999 .40300004 .016 .40300004 .032 C .40300004 .049000004 .393 .062000004 .37 .062000004 C .363 .062000004 .35700003 .061000006 .351 .061000006 L .272 .061000006 L .272 .6750001 C .272 .70000007 .254 .70400008 .23700002 .70400008 C .20700002 .70400008 .192 .67800006 .16800002 .665 C .12900001 .64400008 .08400001 .637 .040000008 .63600006 C .021000006 .63600006 0 .63400009 0 .60400006 C 0 .58400008 .013000004 .57400009 .034999998 .57400009 C .074 .577 .112 .58000007 .15 .59200009 Z "/>
</symbol>
<symbol id="font_0_10">
<path d="M .0069999995 .11800001 C .0019999967 .116000007 .0009999946 .11000001 .0009999946 .104 L .0009999946 .031000002 C .0009999946 .027 0 .023000002 0 .018000002 C 0 .004 .004999995 .001 .018 .001 L .087 .001 C .09200001 .001 .097 0 .102 0 C .11400001 0 .119 .0050000005 .119 .016 L .119 .10300001 C .119 .116000007 .11400001 .120000008 .104 .120000008 C .09900001 .120000008 .094 .119 .091000009 .119 L .032999994 .119 C .027999998 .119 .023000002 .120000008 .018 .120000008 C .013999999 .120000008 .009999998 .119 .0069999995 .11800001 Z "/>
</symbol>
<symbol id="font_0_c">
<path d="M .24000001 .7210001 C .17700002 .711 .12500002 .70900008 .076000008 .6700001 C .031 .6330001 .013 .57500007 .013 .51900008 C .013 .425 .09 .357 .17600002 .331 C .26400004 .305 .404 .30900003 .41500003 .20400001 L .41500003 .19700001 C .41500003 .112 .337 .09 .27100004 .09 C .19000001 .09 .10800001 .118 .047000003 .17300001 C .042 .17700002 .035 .187 .026999999 .187 C .013 .187 .008000001 .128 .0040000008 .10000001 C .0029999987 .095 0 .087 0 .081 C 0 .068 .021000002 .060000004 .031 .056 C .104 .020000002 .18600002 0 .26700003 0 C .37600003 0 .522 .032 .522 .209 C .522 .329 .42800004 .405 .30900003 .42900003 C .24700001 .441 .120000008 .454 .120000008 .54 L .120000008 .544 C .12900001 .62500008 .20400003 .63500007 .26500003 .63500007 C .33100004 .63500007 .386 .61700007 .43800003 .568 C .44200004 .56400009 .449 .55600008 .45600004 .55600008 C .47100003 .55600008 .47500003 .61700007 .48000003 .6470001 C .481 .651 .48300005 .65700009 .48300005 .66200008 C .48300005 .67700007 .43500004 .69200006 .41700004 .6980001 C .36400003 .7160001 .314 .7210001 .25700004 .7210001 L .24000001 .7210001 Z "/>
</symbol>
<symbol id="font_0_6">
<path d="M .226 .474 C .21100001 .472 .19600001 .47100003 .18100001 .469 C .13700001 .461 .094 .444 .061000006 .41300003 C .015000001 .36900003 0 .302 0 .23900001 C 0 .178 .011 .11500001 .053000004 .068 C .102 .014 .179 0 .249 0 C .31200005 0 .37600006 .013 .43200005 .043 C .43800003 .046000005 .44 .050000006 .44 .056 C .44 .080000009 .43700005 .128 .426 .12900001 L .425 .12900001 C .41400004 .12900001 .39200003 .108 .37700004 .10000001 C .339 .078 .29500003 .068 .25200004 .068 C .139 .068 .12300001 .158 .12300001 .23300001 C .12300001 .313 .135 .40600003 .25200004 .40600003 C .30700005 .40600003 .34500004 .396 .39500005 .358 C .40000005 .354 .40600003 .347 .41300006 .347 C .42400003 .347 .42400003 .363 .425 .36900003 L .431 .405 C .43200005 .41 .43400003 .415 .43400003 .42000003 C .43400003 .44 .36 .463 .33100004 .468 C .30700005 .47300003 .283 .474 .259 .474 L .226 .474 Z "/>
</symbol>
<symbol id="font_0_a">
<path d="M .12100001 .38300003 L .12100001 .68000009 C .12100001 .702 .11400001 .71500006 .083000008 .71500006 C .07200001 .71500006 .061000006 .71400007 .050000006 .71400007 C .044000009 .71400007 .038000004 .71500006 .032000007 .71500006 C .016000003 .71500006 0 .70600005 0 .68600007 L 0 .036000004 C 0 .020000002 .001000002 .007 .022 0 L .08700001 0 C .112 0 .12300001 .011 .12300001 .036000004 L .12300001 .24700001 C .12300001 .31400005 .157 .39600004 .24200002 .39600004 C .30900003 .39600004 .319 .35600005 .319 .31200005 L .319 .035000005 C .319 .012 .32700003 0 .35000003 0 L .40700004 0 C .42900003 0 .44300003 .010000001 .44300003 .034 C .44300003 .041000006 .44200004 .048000006 .44200004 .054000006 L .44200004 .293 C .44200004 .33100004 .44200004 .37100003 .423 .40500004 C .395 .45400004 .33400003 .46000005 .28500004 .46000005 C .21800003 .46000005 .16200002 .43200005 .12100001 .38300003 Z "/>
</symbol>
<symbol id="font_0_3">
<path d="M .119 .36300005 C .118 .37000004 .118 .37700004 .118 .38400004 L .118 .42400003 C .118 .45100004 .10100001 .45500005 .083000008 .45500005 L .031000004 .45500005 C .014000006 .45500005 0 .44600005 0 .42200003 C 0 .41600005 .001000002 .41100005 .001000002 .40600003 L .001000002 .037000006 C .001000002 .020000002 .003000006 0 .031000004 0 L .08700001 0 C .104 0 .12200001 .004 .12200001 .030000002 L .12200001 .192 C .12200001 .22600001 .12200001 .25800003 .13900002 .28800003 C .16800002 .33800004 .22300002 .36400003 .279 .36900003 L .286 .36900003 C .296 .36900003 .3 .37200005 .3 .38300003 L .3 .44300006 C .3 .45500005 .296 .46000005 .284 .46000005 C .22 .46000005 .14000002 .41200004 .119 .36300005 Z "/>
</symbol>
<symbol id="font_0_b">
<path d="M .023999997 .45000006 C .008000001 .44700004 .0029999987 .43300004 .0029999987 .41800005 L .0029999987 .032 C .0029999987 .004 .020999998 0 .04 0 L .092 0 C .11900001 0 .124000009 .016 .124000009 .035000005 L .124000009 .42000006 C .124000009 .44200004 .11200001 .45100004 .091 .45100004 L .036 .45100004 C .031999999 .45100004 .027999998 .45100004 .023999997 .45000006 M .020999998 .70800009 C .0050000029 .70600005 0 .69000008 0 .67700007 L 0 .61300006 C 0 .591 .013999999 .58300009 .031000004 .58300009 L .093 .58300009 C .11100001 .58300009 .12600002 .58900007 .12600002 .61300006 L .12600002 .679 C .12600002 .70400008 .11000001 .70900008 .094000007 .70900008 L .034 .70900008 C .029 .70900008 .024999999 .70900008 .020999998 .70800009 Z "/>
</symbol>
<symbol id="font_0_4">
<path d="M .082 .46 L .031999999 .46 C .012999998 .46 0 .448 0 .42900003 C 0 .41 .012 .39900003 .03 .39900003 L .08 .39900003 L .08 .135 C .08 .07 .097 0 .18200001 0 C .23800002 0 .298 .011 .347 .037 C .35300002 .040000004 .361 .043 .361 .050000006 L .361 .053000004 C .361 .066 .352 .102000009 .34100003 .102000009 C .33200003 .102000009 .32 .091000009 .31 .08500001 C .291 .074 .266 .068 .24500002 .068 C .20600002 .068 .19900002 .105000007 .19900002 .157 L .19900002 .39900003 L .31 .39900003 C .329 .39900003 .344 .409 .344 .42900003 C .344 .45000003 .331 .46 .30900003 .46 L .19900002 .46 L .19900002 .55500009 C .19900002 .57900008 .19000001 .59000006 .16200002 .59000006 C .15500002 .59000006 .14700002 .58900007 .14000002 .58900007 C .13300002 .58900007 .12600002 .59000006 .11900001 .59000006 C .1 .59000006 .082 .58500006 .082 .55500009 L .082 .46 Z "/>
</symbol>
<symbol id="font_0_f">
<path d="M .0069999995 .11800001 C .0019999967 .116000007 .0009999946 .11000001 .0009999946 .104 L .0009999946 .031000002 C .0009999946 .027 0 .023000002 0 .018000002 C 0 .004 .004999995 .001 .018 .001 L .087 .001 C .09200001 .001 .097 0 .102 0 C .11400001 0 .119 .0050000005 .119 .016 L .119 .10300001 C .119 .116000007 .11400001 .120000008 .104 .120000008 C .09900001 .120000008 .094 .119 .091000009 .119 L .032999994 .119 C .027999998 .119 .023000002 .120000008 .018 .120000008 C .013999999 .120000008 .009999998 .119 .0069999995 .11800001 M .008000001 .45100004 C .0019999967 .448 .0009999946 .441 .0009999946 .43400003 L .0009999946 .363 C .0009999946 .35900004 0 .35500003 0 .35000003 C 0 .33900003 .004999995 .333 .015999996 .333 C .020999998 .333 .025999994 .33400003 .029 .33400003 L .087 .33400003 C .09200001 .33400003 .097 .333 .102 .333 C .11400001 .333 .119 .33800004 .119 .349 L .119 .43500004 C .119 .44700004 .11400001 .453 .103 .453 C .098000008 .453 .092999998 .45200003 .09 .45200003 L .033999996 .45200003 C .029 .45200003 .023999997 .453 .019000002 .453 C .015000001 .453 .011 .45200003 .008000001 .45100004 Z "/>
</symbol>
<symbol id="font_0_e">
<path d="M .517 .58800008 L .518 .58800008 C .52000007 .568 .527 .54800006 .532 .52800008 C .57900008 .36700005 .62700006 .20500002 .67600008 .044000005 C .683 .023 .688 0 .72200009 0 L .79800006 0 C .84300008 0 .845 .027 .855 .058000007 C .91600009 .25500003 .9760001 .45300005 1.036 .65000006 C 1.0370001 .65500006 1.039 .66 1.039 .665 C 1.039 .683 1.023 .68500009 1.011 .68500009 L .9760001 .68500009 C .95500007 .68500009 .94000008 .6840001 .92800006 .66 C .91700008 .628 .90800008 .59400007 .89800009 .56100007 C .86100009 .43500004 .822 .31100003 .786 .185 C .77800008 .156 .768 .127 .76400008 .097 L .763 .097 C .76000007 .13800001 .739 .19000001 .72700008 .23500002 C .69000008 .36600004 .651 .49700005 .609 .62600007 C .605 .64100006 .602 .66200008 .591 .674 C .58000007 .68500009 .56600007 .68500009 .55200007 .68500009 L .48300005 .68500009 C .448 .68500009 .44200004 .66700008 .43500004 .64400008 L .40500004 .545 C .367 .41700004 .326 .28900004 .29200004 .15900001 C .286 .139 .28 .118 .27800004 .097 C .27400003 .109000008 .273 .122 .26900003 .135 C .229 .29700003 .17600002 .45600004 .128 .61600008 C .119 .647 .11600001 .68600007 .071 .68600007 C .062 .68600007 .053000004 .68500009 .046000005 .68500009 C .041 .68500009 .035 .68600007 .029 .68600007 C .015999999 .68600007 0 .68100008 0 .66600009 C 0 .65400007 .007999999 .63500007 .011999998 .62100008 C .063 .46000005 .109 .29900003 .16000001 .13800001 C .169 .109000008 .178 .079 .186 .050000006 C .19600001 .022000002 .2 0 .241 0 L .31100003 0 C .344 0 .351 .017 .35700003 .040000004 C .397 .17300001 .43800003 .30600003 .477 .43900005 C .48700006 .47200004 .49700005 .50500008 .505 .53800007 C .51000007 .554 .51500007 .57100006 .517 .58800008 Z "/>
</symbol>
<symbol id="font_0_8">
<path d="M .118 .21700001 L .425 .21700001 C .45200003 .21700001 .46 .231 .46 .25100003 C .46 .366 .41200004 .474 .24200002 .474 C .177 .474 .10700001 .45900003 .060000007 .412 C .014000002 .366 0 .299 0 .23700002 C 0 .18200001 .011 .125 .046 .082 C .096 .018000002 .18100001 0 .25800003 0 C .315 0 .374 .012 .42600004 .036000004 C .43400003 .040000004 .451 .045 .453 .055000005 L .453 .059000005 C .453 .080000009 .45200003 .124000009 .441 .127 L .439 .127 C .43 .127 .42000003 .117000009 .414 .112 C .37100003 .08100001 .316 .064 .262 .064 C .194 .064 .118 .10000001 .118 .209 L .118 .21700001 M .119 .273 C .119 .347 .165 .41 .243 .41 C .33600004 .41 .347 .335 .35300002 .273 L .119 .273 Z "/>
</symbol>
<symbol id="font_0_7">
<path d="M .356 .423 C .32100005 .45200003 .27100004 .469 .22500001 .469 C .171 .469 .11 .46 .069000009 .423 C .015000001 .37600003 0 .304 0 .23500002 C 0 .17700002 .009999998 .11100001 .049000004 .064 C .089 .016 .15200001 0 .212 0 C .265 0 .315 .02 .35400004 .055000005 C .35400004 .050000006 .35300005 .045 .35300005 .040000004 C .35300005 .010000001 .375 .009000001 .39200003 .009000001 L .44 .009000001 C .459 .009000001 .47700007 .012 .47700007 .040000004 L .47700007 .68900009 C .47700007 .71900007 .46100004 .72300007 .44200004 .72300007 L .38600005 .72300007 C .36900003 .72300007 .35500003 .71400007 .35500003 .6930001 C .35500003 .68700006 .356 .68100008 .356 .6750001 L .356 .423 M .12300001 .2 L .12300001 .24200002 C .12300001 .317 .135 .405 .259 .405 C .292 .405 .31800003 .395 .34400005 .372 C .348 .368 .35300005 .364 .35400004 .358 L .35400004 .133 C .35400004 .087000008 .272 .064 .249 .064 C .21500002 .064 .178 .072000008 .155 .098000008 C .12900001 .127 .127 .164 .12300001 .2 Z "/>
</symbol>
<symbol id="font_0_2">
<path d="M .232 .47500003 C .171 .46800003 .112 .46000005 .065 .416 C .015000001 .36900003 0 .298 0 .23200001 C 0 .12000001 .051000004 0 .25 0 C .37100003 0 .509 .038000004 .509 .23000002 C .509 .291 .49700005 .35500003 .45600004 .40300004 C .404 .46300004 .321 .47500003 .24600002 .47500003 L .232 .47500003 M .122999999 .20800002 L .122999999 .252 C .122999999 .32200004 .12900001 .411 .257 .411 C .289 .411 .323 .404 .347 .38300003 C .38500003 .34800003 .386 .29400004 .386 .24600002 L .386 .23900001 C .386 .16600001 .384 .069000009 .252 .069000009 C .216 .069000009 .178 .07800001 .154 .106000009 C .12900001 .135 .127 .172 .122999999 .20800002 Z "/>
</symbol>
<symbol id="font_0_d">
<path d="M .022 .71300008 C .0040000008 .71300008 .001000002 .69000008 .001000002 .67800006 L .001000002 .054000006 C .001000002 .048000006 0 .041000006 0 .034 C 0 .017 .008000001 .0019999999 .024000004 0 L .08400001 0 C .118 0 .12200001 .014 .12200001 .033000005 L .12200001 .66 C .12200001 .66600009 .12300001 .67200008 .12300001 .679 C .12300001 .69600006 .11700001 .7120001 .098000008 .71400007 L .037000009 .71400007 C .032000007 .71400007 .027000003 .71400007 .022 .71300008 Z "/>
</symbol>
<symbol id="font_0_5">
<path d="M .322 .061000006 C .322 .055000005 .321 .049000004 .321 .042000005 C .321 .018000002 .335 .009000001 .357 .009000001 L .411 .009000001 C .42800004 .009000001 .44300003 .014 .44300003 .041 L .44300003 .43 C .44300003 .458 .424 .46 .40800003 .46 L .352 .46 C .327 .46 .32 .446 .32 .428 L .32 .21300002 C .32 .201 .321 .18900001 .321 .17700002 C .321 .10300001 .271 .056 .195 .056 C .15400002 .056 .124000009 .056 .124000009 .128 L .124000009 .423 C .124000009 .442 .122 .46 .092 .46 L .034999998 .46 C .011 .46 0 .449 0 .425 C 0 .418 .0009999946 .411 .0009999946 .405 L .0009999946 .141 C .0009999946 .11000001 .0019999967 .080000009 .016999998 .052000006 C .045999998 0 .116000007 0 .16499999 0 C .224 0 .28 .019000002 .322 .061000006 Z "/>
</symbol>
<symbol id="font_0_1">
<path d="M .120000008 .38000003 C .119 .38600005 .118 .39200003 .118 .39800004 C .118 .40600003 .119 .41400004 .119 .42100004 C .119 .43700005 .11400001 .45300005 .09500001 .45500005 L .022 .45500005 C .0060000049 .45100004 0 .43800003 0 .42200003 L 0 .031000002 C 0 .0019999999 .019000002 0 .036000007 0 L .091000009 0 C .12100001 0 .12300001 .019000002 .12300001 .036000004 L .12300001 .237 C .12300001 .293 .13300002 .37400005 .22 .39400003 C .22700003 .39500005 .23500002 .39600004 .243 .39600004 C .31300003 .39600004 .319 .35200004 .319 .30900003 L .319 .049000004 C .319 .043000007 .31800003 .037000006 .31800003 .031000002 C .31800003 .014 .32700003 0 .349 0 L .40700004 0 C .42900003 0 .44200004 .007 .44200004 .034 L .44200004 .30400003 C .44200004 .34400005 .44 .39000006 .411 .42100004 C .37700004 .45600004 .32900004 .46000005 .28300003 .46000005 L .27 .46000005 C .21400002 .45500005 .14500001 .42800004 .120000008 .38000003 Z "/>
</symbol>
<symbol id="font_0_9">
<path d="M .06300001 .23 C .024 .215 0 .179 0 .136 C 0 .010000005 .165 0 .254 0 C .352 0 .509 .010000005 .509 .141 C .509 .263 .39900003 .28800003 .25300003 .28800003 L .146 .28800003 C .119 .29000003 .097 .31300003 .095 .34000004 C .095 .35000003 .097 .358 .100999999 .367 C .139 .347 .186 .34500004 .22800002 .34500004 C .27600003 .34500004 .324 .352 .36400003 .37800003 C .405 .40500004 .425 .45400004 .425 .503 C .425 .53700008 .41500003 .572 .397 .59900006 C .40800003 .6010001 .42000003 .6010001 .432 .6010001 L .455 .6010001 C .47400005 .6010001 .495 .597 .514 .597 C .52000007 .597 .52500006 .6010001 .52500006 .60800006 C .52500006 .63600006 .519 .66400006 .50100007 .66400006 C .45600004 .66400006 .411 .65700009 .36900003 .64100006 C .36600004 .63900008 .36200003 .638 .358 .638 L .35500003 .638 C .347 .63900008 .338 .64500007 .33 .648 C .29700003 .661 .26000003 .66400006 .225 .66400006 C .141 .66400006 .028 .6470001 .021000002 .51600006 L .021000002 .50200006 C .021000002 .467 .030000002 .43400003 .051000004 .40600003 C .054 .402 .060000007 .397 .060000007 .39200003 C .060000007 .38300003 .045000007 .36400003 .040000004 .34800003 C .037000006 .337 .035 .32500003 .035 .31300003 C .035 .28300003 .045000007 .254 .06300001 .23 M .092999998 .128 C .09200001 .13100001 .09200001 .135 .09200001 .13800001 C .09200001 .17400001 .116 .19000001 .161 .19000001 L .20300001 .19000001 C .224 .19000001 .245 .19100002 .266 .19100002 L .27600003 .19100002 C .326 .19100002 .41000004 .18900001 .41700004 .13800001 L .41700004 .13300002 C .41700004 .097 .38000003 .07700001 .35000003 .067 C .319 .059 .286 .058 .254 .058 C .19500001 .058 .100999999 .06300001 .092999998 .128 M .138 .48000003 L .138 .508 C .138 .556 .141 .60600009 .227 .60600009 C .287 .60600009 .307 .573 .307 .503 C .307 .455 .30400003 .403 .22300002 .403 C .2 .403 .176 .407 .158 .42300005 C .143 .439 .14 .45900003 .138 .48000003 Z "/>
</symbol>
<use xlink:href="#font_0_11" transform="matrix(39.850557,0,0,-39.850557,7.2529947,31.487982)"/>
<use xlink:href="#font_0_10" transform="matrix(39.850557,0,0,-39.850557,30.596487,31.527832)"/>
<use xlink:href="#font_0_c" transform="matrix(39.850557,0,0,-39.850557,61.34593,32.20529)"/>
<use xlink:href="#font_0_6" transform="matrix(39.850557,0,0,-39.850557,86.15319,31.846636)"/>
<use xlink:href="#font_0_a" transform="matrix(39.850557,0,0,-39.850557,107.93868,31.487982)"/>
<use xlink:href="#font_0_3" transform="matrix(39.850557,0,0,-39.850557,131.61151,31.487982)"/>
<use xlink:href="#font_0_b" transform="matrix(39.850557,0,0,-39.850557,147.19249,31.487982)"/>
<use xlink:href="#font_0_4" transform="matrix(39.850557,0,0,-39.850557,155.79718,31.846636)"/>
<use xlink:href="#font_0_4" transform="matrix(39.850557,0,0,-39.850557,172.47066,31.846636)"/>
<use xlink:href="#font_0_f" transform="matrix(39.850557,0,0,-39.850557,192.29235,31.527832)"/>
<use xlink:href="#font_0_e" transform="matrix(39.850557,0,0,-39.850557,222.2595,31.487982)"/>
<use xlink:href="#font_0_b" transform="matrix(39.850557,0,0,-39.850557,267.53544,31.487982)"/>
<use xlink:href="#font_0_8" transform="matrix(39.850557,0,0,-39.850557,276.61833,31.846636)"/>
<use xlink:href="#font_0_7" transform="matrix(39.850557,0,0,-39.850557,297.86329,31.846636)"/>
<use xlink:href="#font_0_8" transform="matrix(39.850557,0,0,-39.850557,321.29698,31.846636)"/>
<use xlink:href="#font_0_3" transform="matrix(39.850557,0,0,-39.850557,343.97657,31.487982)"/>
<use xlink:href="#font_0_a" transform="matrix(39.850557,0,0,-39.850557,359.63728,31.487982)"/>
<use xlink:href="#font_0_2" transform="matrix(39.850557,0,0,-39.850557,381.63639,31.886488)"/>
<use xlink:href="#font_0_d" transform="matrix(39.850557,0,0,-39.850557,406.29499,31.487982)"/>
<use xlink:href="#font_0_5" transform="matrix(39.850557,0,0,-39.850557,416.93205,31.846636)"/>
<use xlink:href="#font_0_1" transform="matrix(39.850557,0,0,-39.850557,440.6447,31.487982)"/>
<use xlink:href="#font_0_9" transform="matrix(39.850557,0,0,-39.850557,462.6438,39.617498)"/>
<symbol id="font_1_5">
<path d="M 0 .683 L 0 .65400007 L .02 .65400007 C .092 .65400007 .095000009 .64400008 .095000009 .60700008 L .095000009 .076000008 C .095000009 .039 .092 .029000001 .02 .029000001 L 0 .029000001 L 0 0 L .35000003 0 C .517 0 .651 .15 .651 .335 C .651 .528 .51600006 .683 .35000003 .683 L 0 .683 M .22000003 .029000001 C .176 .029000001 .174 .036000004 .174 .069000009 L .174 .614 C .174 .647 .176 .65400007 .22000003 .65400007 L .32500003 .65400007 C .40800003 .65400007 .47400005 .614 .51500007 .54800006 C .56000009 .47700004 .56000009 .37600003 .56000009 .33600004 C .56000009 .28 .559 .186 .50200006 .112 C .46900005 .07 .40900005 .029000001 .32500003 .029000001 L .22000003 .029000001 Z "/>
</symbol>
<symbol id="font_1_11">
<path d="M .35300002 .24200002 C .37500004 .24200002 .377 .24200002 .377 .261 C .377 .36200003 .323 .456 .202 .456 C .08800001 .456 0 .35300002 0 .22900002 C 0 .097 .102 0 .21300002 0 C .33200003 0 .377 .108 .377 .12900001 C .377 .135 .372 .13900002 .36600004 .13900002 C .358 .13900002 .356 .134 .354 .12900001 C .328 .045 .261 .022 .21900001 .022 C .17700002 .022 .076000008 .050000006 .076000008 .22300002 L .076000008 .24200002 L .35300002 .24200002 M .07700001 .261 C .085 .418 .17300001 .43600003 .201 .43600003 C .30800004 .43600003 .314 .29500003 .31500004 .261 L .07700001 .261 Z "/>
</symbol>
<symbol id="font_1_7">
<path d="M .13900002 .23300001 C .13900002 .33 .17900002 .42100004 .256 .42100004 C .26400004 .42100004 .266 .42100004 .27 .42000003 C .26200003 .416 .24600002 .41000004 .24600002 .38300003 C .24600002 .354 .26900003 .34300003 .28500004 .34300003 C .305 .34300003 .32500003 .356 .32500003 .38300003 C .32500003 .41300003 .298 .441 .25500003 .441 C .17000002 .441 .14100002 .349 .135 .33 L .134 .33 L .134 .441 L 0 .43 L 0 .40100003 C .068 .40100003 .076000008 .39400003 .076000008 .34500004 L .076000008 .074 C .076000008 .029000001 .065 .029000001 0 .029000001 L 0 0 C .028 .002 .083000008 .002 .113000009 .002 C .14000002 .002 .21100001 .002 .23400003 0 L .23400003 .029000001 L .21400002 .029000001 C .14100002 .029000001 .13900002 .040000004 .13900002 .076000008 L .13900002 .23300001 Z "/>
</symbol>
<symbol id="font_1_16">
<path d="M .154 .43800003 C .103 .451 .058000003 .50100007 .058000003 .56500008 C .058000003 .63500007 .11400001 .6980001 .192 .6980001 C .35600005 .6980001 .37800003 .5360001 .38400004 .49300004 C .38600005 .481 .38600005 .47700004 .39600004 .47700004 C .40700004 .47700004 .40700004 .48200003 .40700004 .50000008 L .40700004 .7020001 C .40700004 .7200001 .40700004 .7250001 .39700005 .7250001 C .39400003 .7250001 .39000006 .7250001 .38300003 .7120001 L .35000003 .6510001 C .30200003 .71300008 .23600002 .7250001 .192 .7250001 C .081 .7250001 0 .63600006 0 .53400006 C 0 .48600004 .017 .44200004 .054 .402 C .089 .363 .124 .354 .19500001 .33600004 C .23 .328 .28500004 .314 .29900003 .308 C .34600003 .285 .37700004 .231 .37700004 .17500001 C .37700004 .10000001 .32400004 .029000003 .24100001 .029000003 C .196 .029000003 .134 .040000004 .08500001 .083000008 C .026999999 .135 .023000006 .207 .022000004 .24000001 C .021000002 .24800001 .013 .24800001 .011000004 .24800001 C 0 .24800001 0 .24300002 0 .22500001 L 0 .023000002 C 0 .005000001 0 0 .010000002 0 C .015999999 0 .017 .0020000004 .024 .014000001 C .028 .022000002 .049000008 .059000005 .057000009 .074 C .092999998 .034 .156 0 .242 0 C .35400004 0 .43500004 .095 .43500004 .20500002 C .43500004 .266 .41200004 .31100003 .38500003 .344 C .34800003 .38900004 .30300004 .4 .26400004 .41000004 L .154 .43800003 Z "/>
</symbol>
<symbol id="font_1_9">
<path d="M .15 .412 L .291 .412 L .291 .441 L .15 .441 L .15 .625 L .128 .625 C .127 .531 .091000009 .435 0 .432 L 0 .412 L .08500001 .412 L .08500001 .134 C .08500001 .023000002 .159 0 .212 0 C .275 0 .308 .062000004 .308 .134 L .308 .19100002 L .286 .19100002 L .286 .136 C .286 .064 .257 .022 .21800001 .022 C .15 .022 .15 .115 .15 .13200002 L .15 .412 Z "/>
</symbol>
<symbol id="font_1_15">
<path d="M .141 .61600008 C .141 .642 .12000001 .665 .092 .665 C .06600001 .665 .044000009 .64400008 .044000009 .61700007 C .044000009 .587 .068 .568 .092 .568 C .123 .568 .141 .59400007 .141 .61600008 M .0030000024 .43 L .0030000024 .40100003 C .067 .40100003 .076000008 .395 .076000008 .34600003 L .076000008 .074 C .076000008 .029000001 .065000008 .029000001 0 .029000001 L 0 0 C .028000005 .002 .076000008 .002 .10500001 .002 C .116000007 .002 .17400003 .002 .208 0 L .208 .029000001 C .143 .029000001 .139 .034 .139 .07300001 L .139 .441 L .0030000024 .43 Z "/>
</symbol>
<symbol id="font_1_f">
<path d="M .32700003 .38 C .31500004 .38 .27800004 .38 .27800004 .33900003 C .27800004 .315 .29500003 .298 .319 .298 C .342 .298 .36100004 .312 .36100004 .34100003 C .36100004 .40800003 .291 .456 .21000001 .456 C .09300001 .456 0 .352 0 .22600001 C 0 .098000008 .096000019 0 .20900002 0 C .34100003 0 .37100003 .120000008 .37100003 .12900001 C .37100003 .13800001 .36400003 .13800001 .36100004 .13800001 C .35200004 .13800001 .351 .135 .34800003 .123 C .32600004 .052000006 .272 .022 .21800003 .022 C .157 .022 .076000008 .075 .076000008 .22700002 C .076000008 .393 .16100002 .43400003 .21100001 .43400003 C .24900002 .43400003 .30400003 .419 .32700003 .38 Z "/>
</symbol>
<symbol id="font_1_14">
<path d="M .41300003 .24300002 C .41300003 .33600004 .41300003 .36400003 .39000003 .39600004 C .361 .43500004 .314 .441 .28 .441 C .194 .441 .154 .37600003 .14 .34500004 L .139 .34500004 L .139 .694 L 0 .683 L 0 .65400007 C .068 .65400007 .076000008 .647 .076000008 .59800007 L .076000008 .074 C .076000008 .029000001 .065 .029000001 0 .029000001 L 0 0 C .026 .002 .08 .002 .107999999 .002 C .13700001 .002 .191 .002 .21700001 0 L .21700001 .029000001 C .153 .029000001 .141 .029000001 .141 .074 L .141 .26000003 C .141 .365 .21000001 .42100004 .272 .42100004 C .33400003 .42100004 .34800003 .37 .34800003 .30900003 L .34800003 .074 C .34800003 .029000001 .337 .029000001 .272 .029000001 L .272 0 C .298 .002 .352 .002 .38000003 .002 C .409 .002 .46300004 .002 .48900003 0 L .48900003 .029000001 C .439 .029000001 .414 .029000001 .41300003 .059000005 L .41300003 .24300002 Z "/>
</symbol>
<symbol id="font_1_c">
<path d="M .342 .277 C .342 .331 .342 .37100003 .298 .41 C .263 .442 .21800003 .456 .17400001 .456 C .09200001 .456 .029000003 .402 .029000003 .337 C .029000003 .308 .048000006 .294 .070999998 .294 C .09500001 .294 .112 .31100003 .112 .335 C .112 .37600003 .076000008 .37600003 .061 .37600003 C .08400001 .418 .13200002 .43600003 .172 .43600003 C .21800003 .43600003 .277 .398 .277 .308 L .277 .268 C .076000008 .26500003 0 .18100001 0 .104 C 0 .025000003 .09200001 0 .15300001 0 C .21900001 0 .26400004 .040000004 .28300003 .088 C .28700004 .041 .31800003 .0050000005 .36100004 .0050000005 C .38200004 .0050000005 .44000004 .019000002 .44000004 .099 L .44000004 .15500002 L .418 .15500002 L .418 .099 C .418 .042000005 .39400003 .034 .38000003 .034 C .342 .034 .342 .087000008 .342 .102000009 L .342 .277 M .277 .15100001 C .277 .053000004 .20400001 .020000002 .16100002 .020000002 C .112 .020000002 .070999998 .056000007 .070999998 .104 C .070999998 .23600002 .24100003 .24800001 .277 .25 L .277 .15100001 Z "/>
</symbol>
<symbol id="font_1_18">
<path d="M .139 .694 L 0 .683 L 0 .65400007 C .068 .65400007 .076000008 .647 .076000008 .59800007 L .076000008 .074 C .076000008 .029000001 .065000008 .029000001 0 .029000001 L 0 0 C .028000005 .002 .07700001 .002 .107 .002 C .137 .002 .187 .002 .215 0 L .215 .029000001 C .15100003 .029000001 .139 .029000001 .139 .074 L .139 .694 Z "/>
</symbol>
<symbol id="font_1_8">
<path d="M .29500003 .433 C .29500003 .451 .29500003 .456 .28500004 .456 C .277 .456 .25800003 .43400003 .25100003 .425 C .22000003 .45000003 .18900001 .456 .157 .456 C .036000007 .456 0 .39000003 0 .335 C 0 .324 0 .289 .038000004 .254 C .07000001 .22600001 .10400001 .21900001 .15 .21000001 C .20500002 .19900002 .21800003 .19600001 .24300003 .17600002 C .261 .16100002 .27400003 .13900002 .27400003 .111 C .27400003 .068 .24900002 .020000002 .16100002 .020000002 C .095000009 .020000002 .047000007 .058000003 .025000003 .158 C .021000002 .17600002 .021000002 .17700002 .020000004 .17800002 C .018000003 .18200001 .014000002 .18200001 .011000004 .18200001 C 0 .18200001 0 .17700002 0 .15900001 L 0 .023000002 C 0 .0050000005 0 0 .010000002 0 C .015000001 0 .016000003 .0010000002 .033 .022 C .038000004 .029000003 .038000004 .031000004 .053000004 .047000003 C .091000009 0 .14500001 0 .162 0 C .26700003 0 .31900005 .058000003 .31900005 .13700001 C .31900005 .19100002 .286 .22300002 .277 .23200003 C .24100003 .263 .21400002 .269 .148 .28100003 C .11800001 .287 .045 .301 .045 .361 C .045 .39200003 .06600001 .43800003 .15600002 .43800003 C .26500003 .43800003 .27100004 .345 .27300004 .314 C .27400003 .306 .28100003 .306 .284 .306 C .29500003 .306 .29500003 .31100003 .29500003 .329 L .29500003 .433 Z "/>
</symbol>
<symbol id="font_1_1">
<path d="M .41300003 .24300002 C .41300003 .33600004 .41300003 .36400003 .39000003 .39600004 C .361 .43500004 .314 .441 .28 .441 C .183 .441 .145 .358 .13700001 .33800004 L .136 .33800004 L .136 .441 L 0 .43 L 0 .40100003 C .068 .40100003 .076000008 .39400003 .076000008 .34500004 L .076000008 .074 C .076000008 .029000001 .065 .029000001 0 .029000001 L 0 0 C .026 .002 .08 .002 .107999999 .002 C .13700001 .002 .191 .002 .21700001 0 L .21700001 .029000001 C .153 .029000001 .141 .029000001 .141 .074 L .141 .26000003 C .141 .365 .21000001 .42100004 .272 .42100004 C .33400003 .42100004 .34800003 .37 .34800003 .30900003 L .34800003 .074 C .34800003 .029000001 .337 .029000001 .272 .029000001 L .272 0 C .298 .002 .352 .002 .38000003 .002 C .409 .002 .46300004 .002 .48900003 0 L .48900003 .029000001 C .439 .029000001 .414 .029000001 .41300003 .059000005 L .41300003 .24300002 Z "/>
</symbol>
<symbol id="font_1_12">
<path d="M .141 .402 L .25400005 .402 L .25400005 .43100003 L .139 .43100003 L .139 .54800006 C .139 .638 .185 .684 .226 .684 C .23400001 .684 .249 .68200007 .26100005 .67600008 C .25700004 .675 .23200001 .666 .23200001 .637 C .23200001 .614 .24800001 .59800007 .27100004 .59800007 C .29500003 .59800007 .31100003 .614 .31100003 .638 C .31100003 .675 .27500005 .70400008 .22700002 .70400008 C .157 .70400008 .078 .65000006 .078 .54800006 L .078 .43100003 L 0 .43100003 L 0 .402 L .078 .402 L .078 .074 C .078 .029000001 .067 .029000001 .0019999985 .029000001 L .0019999985 0 C .030000003 .002 .085 .002 .11500001 .002 C .142 .002 .21300002 .002 .23600002 0 L .23600002 .029000001 L .216 .029000001 C .143 .029000001 .141 .040000004 .141 .076000008 L .141 .402 Z "/>
</symbol>
<symbol id="font_1_4">
<path d="M .48100005 .648 C .48900006 .661 .48900006 .66200008 .48900006 .669 C .48900006 .683 .48400007 .683 .46500007 .683 L .025000003 .683 L .014000002 .46 L .036000004 .46 C .043 .573 .074 .65400007 .23600002 .65400007 L .39600004 .65400007 L 0 .024 C 0 .001 .001000002 0 .024 0 L .47800002 0 L .49400006 .264 L .47200004 .264 C .46500007 .123 .44400005 .031000002 .26200003 .031000002 L .092999998 .031000002 L .48100005 .648 Z "/>
</symbol>
<use xlink:href="#font_1_5" transform="matrix(33.20889,0,0,-33.20889,5.0612175,111.8609)"/>
<use xlink:href="#font_1_11" transform="matrix(33.20889,0,0,-33.20889,29.66278,112.19299)"/>
<use xlink:href="#font_1_7" transform="matrix(33.20889,0,0,-33.20889,43.929735,111.8609)"/>
<use xlink:href="#font_1_16" transform="matrix(33.20889,0,0,-33.20889,68.127,112.55829)"/>
<use xlink:href="#font_1_9" transform="matrix(33.20889,0,0,-33.20889,84.931529,112.19299)"/>
<use xlink:href="#font_1_7" transform="matrix(33.20889,0,0,-33.20889,97.930309,111.8609)"/>
<use xlink:href="#font_1_15" transform="matrix(33.20889,0,0,-33.20889,110.763057,111.8609)"/>
<use xlink:href="#font_1_f" transform="matrix(33.20889,0,0,-33.20889,119.82908,112.19299)"/>
<use xlink:href="#font_1_14" transform="matrix(33.20889,0,0,-33.20889,133.0624,111.8609)"/>
<use xlink:href="#font_1_c" transform="matrix(33.20889,0,0,-33.20889,162.46054,112.19299)"/>
<use xlink:href="#font_1_18" transform="matrix(33.20889,0,0,-33.20889,178.4286,111.8609)"/>
<use xlink:href="#font_1_8" transform="matrix(33.20889,0,0,-33.20889,187.42823,112.19299)"/>
<use xlink:href="#font_1_11" transform="matrix(33.20889,0,0,-33.20889,210.99488,112.19299)"/>
<use xlink:href="#font_1_15" transform="matrix(33.20889,0,0,-33.20889,225.42786,111.8609)"/>
<use xlink:href="#font_1_1" transform="matrix(33.20889,0,0,-33.20889,234.39427,111.8609)"/>
<use xlink:href="#font_1_12" transform="matrix(33.20889,0,0,-33.20889,252.36112,111.8609)"/>
<use xlink:href="#font_1_c" transform="matrix(33.20889,0,0,-33.20889,262.79286,112.19299)"/>
<use xlink:href="#font_1_f" transform="matrix(33.20889,0,0,-33.20889,278.82737,112.19299)"/>
<use xlink:href="#font_1_14" transform="matrix(33.20889,0,0,-33.20889,292.06153,111.8609)"/>
<use xlink:href="#font_1_11" transform="matrix(33.20889,0,0,-33.20889,309.9952,112.19299)"/>
<use xlink:href="#font_1_8" transform="matrix(33.20889,0,0,-33.20889,324.4282,112.19299)"/>
<use xlink:href="#font_1_4" transform="matrix(33.20889,0,0,-33.20889,349.45896,111.8609)"/>
<use xlink:href="#font_1_11" transform="matrix(33.20889,0,0,-33.20889,368.66206,112.19299)"/>
<use xlink:href="#font_1_15" transform="matrix(33.20889,0,0,-33.20889,383.09504,111.8609)"/>
<use xlink:href="#font_1_f" transform="matrix(33.20889,0,0,-33.20889,392.16108,112.19299)"/>
<use xlink:href="#font_1_14" transform="matrix(33.20889,0,0,-33.20889,405.3948,111.8609)"/>
<use xlink:href="#font_1_11" transform="matrix(33.20889,0,0,-33.20889,423.32847,112.19299)"/>
<use xlink:href="#font_1_1" transform="matrix(33.20889,0,0,-33.20889,437.72828,111.8609)"/>
<use xlink:href="#font_1_12" transform="matrix(33.20889,0,0,-33.20889,467.02848,111.8609)"/>
<symbol id="font_2_2">
<path d="M 0 .44 L 0 .411 L .013 .411 C .055000005 .411 .076000008 .407 .076000008 .347 L .076000008 .14700002 C .076000008 .116000007 .07700001 .084 .092999998 .057000005 C .119 .013 .17400001 0 .22100002 0 C .275 0 .33400003 .035 .349 .09 L .35000003 .0010000002 L .48900003 .011000001 L .48900003 .040000004 L .47000004 .040000004 C .441 .040000004 .41300003 .044000005 .41300003 .088 L .41300003 .451 L .272 .44 L .272 .411 L .284 .411 C .31800003 .411 .34800003 .409 .34800003 .361 L .34800003 .16300002 C .34300003 .093 .30400003 .022 .22600001 .022 C .18900001 .022 .153 .031000004 .143 .084 C .141 .103 .141 .123 .141 .142 L .141 .451 L 0 .44 M .142 .661 C .114999998 .657 .100999999 .635 .100999999 .614 C .100999999 .593 .117 .565 .148 .565 C .179 .565 .198 .58900007 .198 .61300006 C .198 .634 .18200001 .662 .15100001 .662 C .148 .662 .145 .661 .142 .661 M .33200003 .661 C .305 .657 .291 .635 .291 .614 C .291 .593 .307 .565 .338 .565 C .36900003 .565 .388 .58900007 .388 .614 C .388 .63600006 .37 .662 .34100003 .662 C .338 .662 .335 .661 .33200003 .661 Z "/>
</symbol>
<use xlink:href="#font_2_2" transform="matrix(33.20889,0,0,-33.20889,477.0624,112.19299)"/>
<symbol id="font_1_10">
<path d="M .26500003 .693 L .26500003 .66400006 C .33300004 .66400006 .34100003 .657 .34100003 .60800006 L .34100003 .387 C .32000003 .416 .277 .451 .21600002 .451 C .10000001 .451 0 .35300002 0 .22500001 C 0 .098000008 .09500001 0 .20500002 0 C .28100003 0 .32500003 .050000006 .33900003 .069000009 L .33900003 0 L .48000006 .010000001 L .48000006 .039 C .41200004 .039 .404 .046000005 .404 .095 L .404 .704 L .26500003 .693 M .33900003 .127 C .33900003 .109000008 .33900003 .106 .32500003 .084 C .30100004 .049000004 .26000003 .020000002 .21000001 .020000002 C .18400002 .020000002 .076000008 .030000002 .076000008 .22400002 C .076000008 .296 .088 .336 .110000018 .36900003 C .13000001 .4 .17000002 .43100003 .22000003 .43100003 C .282 .43100003 .31700004 .386 .32700003 .37 C .33900003 .35300002 .33900003 .351 .33900003 .333 L .33900003 .127 Z "/>
</symbol>
<symbol id="font_1_6">
<path d="M .597 .256 L .57500007 .256 C .551 .1 .527 .029000001 .358 .029000001 L .222 .029000001 C .178 .029000001 .176 .036000004 .176 .069000009 L .176 .33900003 L .26700003 .33900003 C .363 .33900003 .374 .30800004 .374 .22200002 L .396 .22200002 L .396 .485 L .374 .485 C .374 .39900003 .363 .36800004 .26700003 .36800004 L .176 .36800004 L .176 .61200007 C .176 .64500007 .178 .652 .222 .652 L .35500003 .652 C .50200006 .652 .533 .60200008 .54800006 .45800004 L .57 .45800004 L .544 .68100008 L 0 .68100008 L 0 .652 L .020000004 .652 C .092 .652 .095000009 .642 .095000009 .605 L .095000009 .076000008 C .095000009 .039 .092 .029000001 .020000004 .029000001 L 0 .029000001 L 0 0 L .55700007 0 L .597 .256 Z "/>
</symbol>
<symbol id="font_1_d">
<path d="M .13900002 .704 L 0 .693 L 0 .66400006 C .068 .66400006 .076000008 .657 .076000008 .60800006 L .076000008 .010000001 L .098000008 .010000001 C .10200001 .018000002 .13000001 .068 .134 .075 C .157 .038000004 .20000002 0 .26400004 0 C .379 0 .48000003 .097 .48000003 .22600001 C .48000003 .35300002 .38600005 .451 .275 .451 C .22000002 .451 .17300001 .426 .13900002 .384 L .13900002 .704 M .14100002 .33 C .14100002 .34800003 .14100002 .35 .15200001 .366 C .17600002 .402 .22000002 .43100003 .26900003 .43100003 C .29900003 .43100003 .404 .419 .404 .22700002 C .404 .16000001 .39400003 .118 .37000004 .082 C .35000003 .051000004 .31000004 .020000002 .26000003 .020000002 C .20600002 .020000002 .17100002 .055000005 .15400002 .082 C .14100002 .103 .14100002 .107 .14100002 .124000009 L .14100002 .33 Z "/>
</symbol>
<symbol id="font_1_19">
<path d="M .685 .24300002 C .685 .33600004 .685 .36400003 .662 .39600004 C .633 .43500004 .586 .441 .55200007 .441 C .46900005 .441 .42700003 .381 .411 .342 C .397 .41900004 .34300003 .441 .28 .441 C .183 .441 .145 .358 .13700001 .33800004 L .136 .33800004 L .136 .441 L 0 .43 L 0 .40100003 C .068 .40100003 .076000008 .39400003 .076000008 .34500004 L .076000008 .074 C .076000008 .029000001 .065 .029000001 0 .029000001 L 0 0 C .026 .002 .08 .002 .107999999 .002 C .13700001 .002 .191 .002 .21700001 0 L .21700001 .029000001 C .153 .029000001 .141 .029000001 .141 .074 L .141 .26000003 C .141 .365 .21000001 .42100004 .272 .42100004 C .33400003 .42100004 .34800003 .37 .34800003 .30900003 L .34800003 .074 C .34800003 .029000001 .337 .029000001 .272 .029000001 L .272 0 C .298 .002 .352 .002 .38000003 .002 C .409 .002 .46300004 .002 .48900003 0 L .48900003 .029000001 C .425 .029000001 .41300003 .029000001 .41300003 .074 L .41300003 .26000003 C .41300003 .365 .482 .42100004 .544 .42100004 C .606 .42100004 .62 .37 .62 .30900003 L .62 .074 C .62 .029000001 .609 .029000001 .544 .029000001 L .544 0 C .57000008 .002 .624 .002 .652 .002 C .68100008 .002 .735 .002 .76100006 0 L .76100006 .029000001 C .711 .029000001 .68600007 .029000001 .685 .059000005 L .685 .24300002 Z "/>
</symbol>
<use xlink:href="#font_1_7" transform="matrix(33.20889,0,0,-33.20889,494.9298,111.8609)"/>
<use xlink:href="#font_1_10" transform="matrix(33.20889,0,0,-33.20889,518.4956,112.19299)"/>
<use xlink:href="#font_1_15" transform="matrix(33.20889,0,0,-33.20889,536.42929,111.8609)"/>
<use xlink:href="#font_1_11" transform="matrix(33.20889,0,0,-33.20889,545.3293,112.19299)"/>
<use xlink:href="#font_1_6" transform="matrix(33.20889,0,0,-33.20889,571.0275,111.8609)"/>
<use xlink:href="#font_1_15" transform="matrix(33.20889,0,0,-33.20889,592.7619,111.8609)"/>
<use xlink:href="#font_1_1" transform="matrix(33.20889,0,0,-33.20889,601.7283,111.8609)"/>
<use xlink:href="#font_1_8" transform="matrix(33.20889,0,0,-33.20889,619.7615,112.19299)"/>
<use xlink:href="#font_1_d" transform="matrix(33.20889,0,0,-33.20889,643.59579,112.19299)"/>
<use xlink:href="#font_1_11" transform="matrix(33.20889,0,0,-33.20889,662.66177,112.19299)"/>
<use xlink:href="#font_1_15" transform="matrix(33.20889,0,0,-33.20889,677.0948,111.8609)"/>
<use xlink:href="#font_1_19" transform="matrix(33.20889,0,0,-33.20889,686.0612,111.8609)"/>
<use xlink:href="#font_1_4" transform="matrix(33.20889,0,0,-33.20889,724.7921,111.8609)"/>
<symbol id="font_2_3">
<path d="M .062000004 .37800003 C .08600001 .416 .13000001 .43600003 .17400001 .43600003 C .23100002 .43600003 .277 .37800003 .277 .323 L .277 .269 C .17600002 .269 0 .24100001 0 .104 L 0 .094000007 C .009 .026 .09200001 0 .15100001 0 C .20300001 0 .268 .032 .283 .087000008 L .284 .087000008 C .287 .040000004 .321 .0060000007 .361 .0060000007 C .403 .0060000007 .43600003 .042000005 .44 .083000008 L .44 .15600002 L .418 .15600002 L .418 .107 C .418 .078 .41300003 .035 .38 .035 C .34800003 .035 .341 .078 .341 .103 C .341 .114 .342 .125 .342 .136 L .342 .275 C .342 .286 .343 .298 .343 .30900003 C .343 .403 .256 .456 .17400001 .456 C .110000018 .456 .029000003 .418 .029000003 .34 C .029000003 .31100003 .048000006 .29500003 .072 .29500003 C .096000019 .29500003 .113000009 .314 .113000009 .337 C .113000009 .36200003 .09400001 .37800003 .07000001 .37800003 L .062000004 .37800003 M .277 .25100003 L .277 .15600002 C .277 .085 .23200001 .021000002 .16100002 .021000002 C .12300001 .021000002 .072 .051000004 .072 .102000009 C .072 .19000001 .15200001 .23500002 .23500003 .24700003 C .24900003 .24900002 .263 .24800001 .277 .25100003 M .09900001 .661 C .074 .657 .058000003 .637 .058000003 .614 C .058000003 .591 .075 .565 .104 .565 C .13100001 .565 .15500002 .58500006 .15500002 .61300006 C .15500002 .63600006 .13700001 .662 .10800001 .662 C .105000007 .662 .10200001 .661 .09900001 .661 M .289 .661 C .266 .658 .24700003 .638 .24700003 .614 C .24700003 .591 .26500003 .565 .294 .565 C .322 .565 .344 .586 .344 .61300006 C .344 .637 .326 .662 .297 .662 C .294 .662 .292 .661 .289 .661 Z "/>
</symbol>
<use xlink:href="#font_2_3" transform="matrix(33.20889,0,0,-33.20889,744.42739,112.19299)"/>
<symbol id="font_1_1b">
<path d="M .09700001 .38300003 C .09700001 .41000004 .07400001 .43100003 .049000004 .43100003 C .020000004 .43100003 0 .40800003 0 .38300003 C 0 .35300002 .024999999 .33400003 .048 .33400003 C .074999999 .33400003 .09700001 .35500003 .09700001 .38300003 M .09700001 .049000004 C .09700001 .076000008 .07400001 .097 .049000004 .097 C .020000004 .097 0 .074 0 .049000004 C 0 .019000002 .024999999 0 .048 0 C .074999999 0 .09700001 .021000002 .09700001 .049000004 Z "/>
</symbol>
<use xlink:href="#font_1_14" transform="matrix(33.20889,0,0,-33.20889,760.3956,111.8609)"/>
<use xlink:href="#font_1_18" transform="matrix(33.20889,0,0,-33.20889,778.42886,111.8609)"/>
<use xlink:href="#font_1_11" transform="matrix(33.20889,0,0,-33.20889,787.32888,112.19299)"/>
<use xlink:href="#font_1_1" transform="matrix(33.20889,0,0,-33.20889,801.7287,111.8609)"/>
<use xlink:href="#font_1_1b" transform="matrix(33.20889,0,0,-33.20889,821.5552,111.8609)"/>
<path transform="matrix(.27777777,0,0,-.27777777,0,774.86117)" stroke-width="14.944" stroke-linecap="butt" stroke-miterlimit="10" stroke-linejoin="miter" fill="none" stroke="#000000" d="M 2009.65 1904.77 L 2009.94 2189.71 "/>
<path transform="matrix(.27777777,0,0,-.27777777,0,774.86117)" stroke-width="14.944" stroke-linecap="butt" stroke-miterlimit="10" stroke-linejoin="miter" fill="none" stroke="#000000" d="M 2068.42 1902.68 L 2082.69 2190.63 "/>
<path transform="matrix(.27777777,0,0,-.27777777,0,774.86117)" stroke-width="14.944" stroke-linecap="butt" stroke-miterlimit="10" stroke-linejoin="miter" fill="none" stroke="#000000" d="M 2138 1902.5 L 2131.49 2189.73 "/>
<path transform="matrix(.27777777,0,0,-.27777777,0,774.86117)" stroke-width="14.944" stroke-linecap="butt" stroke-miterlimit="10" stroke-linejoin="miter" fill="none" stroke="#000000" d="M 2198.11 1890.53 L 2186.72 2203.85 "/>
<path transform="matrix(.27777777,0,0,-.27777777,0,774.86117)" stroke-width="14.944" stroke-linecap="butt" stroke-miterlimit="10" stroke-linejoin="miter" fill="none" stroke="#000000" d="M 2244.77 1898.81 L 2244.87 2201.36 "/>
<path transform="matrix(.27777777,0,0,-.27777777,0,774.86117)" stroke-width="14.944" stroke-linecap="butt" stroke-miterlimit="10" stroke-linejoin="miter" fill="none" stroke="#000000" d="M 2321.18 1908.32 L 2312.47 2191.7 "/>
<path transform="matrix(.27777777,0,0,-.27777777,0,774.86117)" stroke-width="14.944" stroke-linecap="butt" stroke-miterlimit="10" stroke-linejoin="miter" fill="none" stroke="#000000" d="M 2378.19 1889.07 L 2376.04 2197.68 "/>
<symbol id="font_1_13">
<path d="M .092 .38600005 C .13900002 .35500003 .17900002 .35500003 .19000001 .35500003 C .28 .35500003 .347 .42300005 .347 .5 C .347 .52700009 .33900003 .56500008 .307 .597 C .34600003 .637 .393 .637 .398 .637 C .402 .637 .407 .637 .411 .635 C .40100003 .63100007 .396 .62100008 .396 .61 C .396 .5960001 .40600003 .584 .42200003 .584 C .43 .584 .448 .589 .448 .61100009 C .448 .62900009 .43400003 .65700009 .39900003 .65700009 C .347 .65700009 .308 .625 .294 .61 C .264 .633 .22900002 .646 .19100002 .646 C .101 .646 .034 .57800009 .034 .50100007 C .034 .444 .069 .407 .079 .398 C .067 .38300003 .049000004 .35400004 .049000004 .31500004 C .049000004 .25700004 .08400001 .23200001 .092 .22700002 C .046000005 .21400002 0 .17800002 0 .12600002 C 0 .05700001 .094000007 0 .21700002 0 C .336 0 .435 .053000004 .435 .128 C .435 .15300001 .428 .21200001 .368 .24300002 C .317 .26900003 .267 .26900003 .18100001 .26900003 C .12 .26900003 .113 .26900003 .095000009 .28800003 C .085 .298 .076000008 .31700004 .076000008 .338 C .076000008 .35500003 .082 .37200005 .092 .38600005 M .19100002 .37600003 C .10300001 .37600003 .10300001 .47700004 .10300001 .5 C .10300001 .518 .10300001 .559 .12 .586 C .13900002 .615 .16900002 .625 .19000001 .625 C .278 .625 .278 .52400007 .278 .50100007 C .278 .48300005 .278 .44200004 .261 .41500003 C .24200003 .38600005 .21200001 .37600003 .19100002 .37600003 M .21800001 .020999998 C .122 .020999998 .049000004 .07000001 .049000004 .127 C .049000004 .13500002 .051 .17400001 .089 .20000002 C .11100001 .21400002 .12 .21400002 .19000001 .21400002 C .273 .21400002 .386 .21400002 .386 .127 C .386 .068 .31 .020999998 .21800001 .020999998 Z "/>
</symbol>
<use xlink:href="#font_1_5" transform="matrix(33.20889,0,0,-33.20889,5.0612175,300.1945)"/>
<use xlink:href="#font_1_15" transform="matrix(33.20889,0,0,-33.20889,29.762408,300.1945)"/>
<use xlink:href="#font_1_11" transform="matrix(33.20889,0,0,-33.20889,38.662389,300.52659)"/>
<use xlink:href="#font_1_4" transform="matrix(33.20889,0,0,-33.20889,65.79259,300.1945)"/>
<use xlink:href="#font_1_c" transform="matrix(33.20889,0,0,-33.20889,85.46055,300.52659)"/>
<use xlink:href="#font_1_14" transform="matrix(33.20889,0,0,-33.20889,101.39542,300.1945)"/>
<use xlink:href="#font_1_18" transform="matrix(33.20889,0,0,-33.20889,119.428668,300.1945)"/>
<use xlink:href="#font_1_15" transform="matrix(33.20889,0,0,-33.20889,140.4281,300.1945)"/>
<use xlink:href="#font_1_8" transform="matrix(33.20889,0,0,-33.20889,149.42772,300.52659)"/>
<use xlink:href="#font_1_9" transform="matrix(33.20889,0,0,-33.20889,161.59629,300.52659)"/>
<use xlink:href="#font_1_10" transform="matrix(33.20889,0,0,-33.20889,187.49404,300.52659)"/>
<use xlink:href="#font_1_c" transform="matrix(33.20889,0,0,-33.20889,205.79297,300.52659)"/>
<use xlink:href="#font_1_8" transform="matrix(33.20889,0,0,-33.20889,221.76103,300.52659)"/>
<use xlink:href="#font_1_6" transform="matrix(33.20889,0,0,-33.20889,247.0272,300.1945)"/>
<use xlink:href="#font_1_7" transform="matrix(33.20889,0,0,-33.20889,268.59556,300.1945)"/>
<use xlink:href="#font_1_13" transform="matrix(33.20889,0,0,-33.20889,281.22908,307.00233)"/>
<use xlink:href="#font_1_11" transform="matrix(33.20889,0,0,-33.20889,297.66209,300.52659)"/>
<use xlink:href="#font_1_d" transform="matrix(33.20889,0,0,-33.20889,311.929,300.52659)"/>
<use xlink:href="#font_1_1" transform="matrix(33.20889,0,0,-33.20889,330.06196,300.1945)"/>
<use xlink:href="#font_1_15" transform="matrix(33.20889,0,0,-33.20889,348.09519,300.1945)"/>
<use xlink:href="#font_1_8" transform="matrix(33.20889,0,0,-33.20889,357.0948,300.52659)"/>
<use xlink:href="#font_1_10" transform="matrix(33.20889,0,0,-33.20889,382.49415,300.52659)"/>
<use xlink:href="#font_1_11" transform="matrix(33.20889,0,0,-33.20889,400.3282,300.52659)"/>
<use xlink:href="#font_1_8" transform="matrix(33.20889,0,0,-33.20889,414.76118,300.52659)"/>
<use xlink:href="#font_1_4" transform="matrix(33.20889,0,0,-33.20889,440.4582,300.1945)"/>
<use xlink:href="#font_2_3" transform="matrix(33.20889,0,0,-33.20889,460.0944,300.52659)"/>
<symbol id="font_1_1d">
<path d="M .09700001 .049000004 C .09700001 .076000008 .07400001 .097 .049000004 .097 C .020000004 .097 0 .074 0 .049000004 C 0 .019000002 .024999999 0 .048 0 C .074999999 0 .09700001 .021000002 .09700001 .049000004 Z "/>
</symbol>
<symbol id="font_1_b">
<path d="M .587 .34600003 C .609 .409 .653 .411 .67 .412 L .67 .441 C .64500007 .439 .62700006 .439 .596 .439 C .56700006 .439 .565 .439 .51100006 .441 L .51100006 .412 C .556 .41 .568 .38300003 .568 .364 C .568 .363 .568 .356 .564 .34600003 L .472 .084 L .372 .367 C .367 .379 .367 .381 .367 .384 C .367 .412 .404 .412 .425 .412 L .425 .441 C .397 .439 .356 .439 .32700003 .439 C .29500003 .439 .293 .439 .23700002 .441 L .23700002 .412 C .275 .412 .28800003 .41 .299 .397 C .30400003 .391 .316 .358 .323 .338 L .238 .094000007 L .142 .366 C .137 .379 .137 .381 .137 .38500003 C .137 .412 .176 .412 .19500001 .412 L .19500001 .441 C .17 .439 .12000001 .439 .09300001 .439 C .065000008 .439 .063 .439 0 .441 L 0 .412 C .051000008 .412 .061000006 .40800003 .072000008 .37600003 L .198 .018000002 C .202 .0070000009 .205 0 .216 0 C .22500001 0 .23 .0030000006 .23500002 .019000002 L .335 .304 L .435 .019000002 C .44000004 .0030000006 .44500003 0 .45400004 0 C .465 0 .46800003 .0070000009 .472 .018000002 L .587 .34600003 Z "/>
</symbol>
<symbol id="font_1_3">
<path d="M .21700001 .029 C .15300001 .029 .14100002 .029 .14100002 .074 L .14100002 .24800001 C .15900001 .223 .20000002 .184 .26400004 .184 C .379 .184 .48000003 .28100003 .48000003 .41000004 C .48000003 .53700008 .38600005 .635 .277 .635 C .18900001 .635 .142 .572 .13900002 .568 L .13900002 .635 L 0 .624 L 0 .595 C .07000001 .595 .076000008 .58800008 .076000008 .544 L .076000008 .074 C .076000008 .029 .065 .029 0 .029 L 0 0 C .026 .002000004 .08 .002000004 .10800001 .002000004 C .13700001 .002000004 .19100002 .002000004 .21700001 0 L .21700001 .029 M .14100002 .513 C .14100002 .53200009 .14100002 .533 .15200001 .549 C .18200001 .594 .231 .61300006 .26900003 .61300006 C .344 .61300006 .404 .522 .404 .41000004 C .404 .291 .33600004 .20400001 .259 .20400001 C .22800002 .20400001 .19900002 .21700001 .17900002 .236 C .15600002 .259 .14100002 .279 .14100002 .307 L .14100002 .513 Z "/>
</symbol>
<symbol id="font_1_2">
<path d="M .42900003 .22400002 C .42900003 .35300002 .33100004 .456 .215 .456 C .095 .456 0 .35 0 .22400002 C 0 .096 .10000001 0 .21400002 0 C .33200003 0 .42900003 .098000008 .42900003 .22400002 M .215 .022 C .178 .022 .133 .038000004 .104 .087000008 C .07700001 .13200002 .076000008 .19100002 .076000008 .23300001 C .076000008 .271 .076000008 .33200003 .10700001 .377 C .135 .42000003 .179 .43600003 .21400002 .43600003 C .25300003 .43600003 .29500003 .418 .32200004 .379 C .35300002 .333 .35300002 .27 .35300002 .23300001 C .35300002 .19800002 .35300002 .136 .32700003 .089 C .29900003 .041 .25300003 .022 .215 .022 Z "/>
</symbol>
<symbol id="font_1_a">
<path d="M .272 .44 L .272 .411 C .34 .411 .34800003 .404 .34800003 .35500003 L .34800003 .17600002 C .34800003 .091 .303 .020000002 .22800002 .020000002 C .146 .020000002 .141 .067 .141 .120000008 L .141 .451 L 0 .44 L 0 .411 C .076000008 .411 .076000008 .40800003 .076000008 .319 L .076000008 .16900002 C .076000008 .107 .076000008 .071 .106000009 .038000004 C .13 .012000001 .171 0 .222 0 C .23900002 0 .271 0 .305 .029000003 C .33400003 .052000006 .35000003 .09 .35000003 .09 L .35000003 0 L .48900003 .010000001 L .48900003 .039 C .421 .039 .41300003 .046000005 .41300003 .095 L .41300003 .451 L .272 .44 Z "/>
</symbol>
<symbol id="font_1_e">
<path d="M .52900007 .256 L .507 .256 C .49700005 .156 .48400004 .029000001 .30900003 .029000001 L .222 .029000001 C .178 .029000001 .176 .036000004 .176 .069000009 L .176 .606 C .176 .642 .178 .65400007 .26500003 .65400007 L .29500003 .65400007 L .29500003 .683 C .266 .68100008 .178 .68100008 .143 .68100008 C .11300001 .68100008 .024000004 .68100008 0 .683 L 0 .65400007 L .020000004 .65400007 C .092 .65400007 .095000009 .64400008 .095000009 .60700008 L .095000009 .076000008 C .095000009 .039 .092 .029000001 .020000004 .029000001 L 0 .029000001 L 0 0 L .503 0 L .52900007 .256 Z "/>
</symbol>
<symbol id="font_1_17">
<path d="M .252 .26500003 C .252 .266 .245 .27400003 .245 .275 C .245 .27800004 .30800004 .33200003 .316 .34 C .38500003 .4 .42900003 .40100003 .45000003 .402 L .45000003 .43100003 C .43000005 .42900003 .404 .42900003 .374 .42900003 C .34800003 .42900003 .29700003 .42900003 .27400003 .43100003 L .27400003 .402 C .291 .40100003 .30300004 .39200003 .30300004 .37600003 C .30300004 .356 .28300003 .33800004 .282 .33800004 L .13900002 .21200001 L .13900002 .694 L 0 .683 L 0 .65400007 C .068 .65400007 .076000008 .647 .076000008 .59800007 L .076000008 .074 C .076000008 .029000001 .065 .029000001 0 .029000001 L 0 0 C .028 .002 .076000008 .002 .106000009 .002 C .136 .002 .18400002 .002 .21200001 0 L .21200001 .029000001 C .14800002 .029000001 .136 .029000001 .136 .074 L .136 .18 L .20000002 .23600002 L .296 .098000008 C .31100003 .07700001 .31800003 .066 .31800003 .052 C .31800003 .034 .30400003 .029000001 .28300003 .029000001 L .28300003 0 C .30800004 .002 .35700003 .002 .38400004 .002 C .42700003 .002 .42900003 .002 .472 0 L .472 .029000001 C .44500003 .029000001 .41400004 .029000001 .38600005 .07 L .252 .26500003 Z "/>
</symbol>
<use xlink:href="#font_1_14" transform="matrix(33.20889,0,0,-33.20889,476.06266,300.1945)"/>
<use xlink:href="#font_1_18" transform="matrix(33.20889,0,0,-33.20889,494.09596,300.1945)"/>
<use xlink:href="#font_1_11" transform="matrix(33.20889,0,0,-33.20889,502.9959,300.52659)"/>
<use xlink:href="#font_1_1" transform="matrix(33.20889,0,0,-33.20889,517.3957,300.1945)"/>
<use xlink:href="#font_1_8" transform="matrix(33.20889,0,0,-33.20889,535.429,300.52659)"/>
<use xlink:href="#font_1_1d" transform="matrix(33.20889,0,0,-33.20889,549.8889,300.1945)"/>
<use xlink:href="#font_1_5" transform="matrix(33.20889,0,0,-33.20889,576.3942,300.1945)"/>
<use xlink:href="#font_1_11" transform="matrix(33.20889,0,0,-33.20889,600.9958,300.52659)"/>
<use xlink:href="#font_1_7" transform="matrix(33.20889,0,0,-33.20889,615.2628,300.1945)"/>
<use xlink:href="#font_1_16" transform="matrix(33.20889,0,0,-33.20889,640.7925,300.89189)"/>
<use xlink:href="#font_1_9" transform="matrix(33.20889,0,0,-33.20889,657.5971,300.52659)"/>
<use xlink:href="#font_1_7" transform="matrix(33.20889,0,0,-33.20889,670.5958,300.1945)"/>
<use xlink:href="#font_1_15" transform="matrix(33.20889,0,0,-33.20889,683.4286,300.1945)"/>
<use xlink:href="#font_1_f" transform="matrix(33.20889,0,0,-33.20889,692.49459,300.52659)"/>
<use xlink:href="#font_1_14" transform="matrix(33.20889,0,0,-33.20889,705.72799,300.1945)"/>
<use xlink:href="#font_1_b" transform="matrix(33.20889,0,0,-33.20889,735.9294,300.52659)"/>
<use xlink:href="#font_1_15" transform="matrix(33.20889,0,0,-33.20889,759.7609,300.1945)"/>
<use xlink:href="#font_1_7" transform="matrix(33.20889,0,0,-33.20889,768.59457,300.1945)"/>
<use xlink:href="#font_1_10" transform="matrix(33.20889,0,0,-33.20889,781.4936,300.52659)"/>
<use xlink:href="#font_1_11" transform="matrix(33.20889,0,0,-33.20889,811.66079,300.52659)"/>
<use xlink:href="#font_1_1" transform="matrix(33.20889,0,0,-33.20889,826.0606,300.1945)"/>
<use xlink:href="#font_1_9" transform="matrix(33.20889,0,0,-33.20889,842.59597,300.52659)"/>
<use xlink:href="#font_1_8" transform="matrix(33.20889,0,0,-33.20889,855.76077,300.52659)"/>
<use xlink:href="#font_1_3" transform="matrix(33.20889,0,0,-33.20889,868.26138,306.63703)"/>
<use xlink:href="#font_1_7" transform="matrix(33.20889,0,0,-33.20889,886.2614,300.1945)"/>
<use xlink:href="#font_1_11" transform="matrix(33.20889,0,0,-33.20889,898.99447,300.52659)"/>
<use xlink:href="#font_1_f" transform="matrix(33.20889,0,0,-33.20889,913.49386,300.52659)"/>
<use xlink:href="#font_1_14" transform="matrix(33.20889,0,0,-33.20889,926.72738,300.1945)"/>
<use xlink:href="#font_1_11" transform="matrix(33.20889,0,0,-33.20889,944.66098,300.52659)"/>
<use xlink:href="#font_1_1" transform="matrix(33.20889,0,0,-33.20889,959.0607,300.1945)"/>
<use xlink:href="#font_1_10" transform="matrix(33.20889,0,0,-33.20889,977.16036,300.52659)"/>
<use xlink:href="#font_1_2" transform="matrix(33.20889,0,0,-33.20889,1008.32778,300.52659)"/>
<use xlink:href="#font_1_12" transform="matrix(33.20889,0,0,-33.20889,1024.6943,300.1945)"/>
<use xlink:href="#font_1_9" transform="matrix(33.20889,0,0,-33.20889,1034.2628,300.52659)"/>
<use xlink:href="#font_1_b" transform="matrix(33.20889,0,0,-33.20889,1058.9299,300.52659)"/>
<use xlink:href="#font_1_15" transform="matrix(33.20889,0,0,-33.20889,1082.7615,300.1945)"/>
<use xlink:href="#font_1_11" transform="matrix(33.20889,0,0,-33.20889,1091.6614,300.52659)"/>
<use xlink:href="#font_1_10" transform="matrix(33.20889,0,0,-33.20889,1106.1609,300.52659)"/>
<use xlink:href="#font_1_11" transform="matrix(33.20889,0,0,-33.20889,1123.9949,300.52659)"/>
<use xlink:href="#font_1_7" transform="matrix(33.20889,0,0,-33.20889,1138.2617,300.1945)"/>
<use xlink:href="#font_1_14" transform="matrix(33.20889,0,0,-33.20889,1151.0614,300.1945)"/>
<use xlink:href="#font_1_2" transform="matrix(33.20889,0,0,-33.20889,1168.9949,300.52659)"/>
<use xlink:href="#font_1_18" transform="matrix(33.20889,0,0,-33.20889,1185.428,300.1945)"/>
<use xlink:href="#font_1_9" transform="matrix(33.20889,0,0,-33.20889,1193.9295,300.52659)"/>
<use xlink:href="#font_1_1d" transform="matrix(33.20889,0,0,-33.20889,1208.8876,300.1945)"/>
<use xlink:href="#font_1_4" transform="matrix(33.20889,0,0,-33.20889,5.4599668,336.19505)"/>
<use xlink:href="#font_1_a" transform="matrix(33.20889,0,0,-33.20889,24.729424,336.52714)"/>
<use xlink:href="#font_1_7" transform="matrix(33.20889,0,0,-33.20889,42.596639,336.19505)"/>
<use xlink:href="#font_1_d" transform="matrix(33.20889,0,0,-33.20889,65.93027,336.52714)"/>
<use xlink:href="#font_1_11" transform="matrix(33.20889,0,0,-33.20889,84.99631,336.52714)"/>
<use xlink:href="#font_1_8" transform="matrix(33.20889,0,0,-33.20889,99.42931,336.52714)"/>
<use xlink:href="#font_1_8" transform="matrix(33.20889,0,0,-33.20889,112.096019,336.52714)"/>
<use xlink:href="#font_1_11" transform="matrix(33.20889,0,0,-33.20889,124.66309,336.52714)"/>
<use xlink:href="#font_1_7" transform="matrix(33.20889,0,0,-33.20889,138.93006,336.19505)"/>
<use xlink:href="#font_1_11" transform="matrix(33.20889,0,0,-33.20889,151.66316,336.52714)"/>
<use xlink:href="#font_1_1" transform="matrix(33.20889,0,0,-33.20889,166.06295,336.19505)"/>
<use xlink:href="#font_1_e" transform="matrix(33.20889,0,0,-33.20889,195.69503,336.19505)"/>
<use xlink:href="#font_1_11" transform="matrix(33.20889,0,0,-33.20889,215.66313,336.52714)"/>
<use xlink:href="#font_1_8" transform="matrix(33.20889,0,0,-33.20889,230.09612,336.52714)"/>
<use xlink:href="#font_1_d" transform="matrix(33.20889,0,0,-33.20889,242.59677,336.52714)"/>
<use xlink:href="#font_1_c" transform="matrix(33.20889,0,0,-33.20889,261.12815,336.52714)"/>
<use xlink:href="#font_1_7" transform="matrix(33.20889,0,0,-33.20889,276.93019,336.19505)"/>
<use xlink:href="#font_1_17" transform="matrix(33.20889,0,0,-33.20889,289.5969,336.19505)"/>
<use xlink:href="#font_1_11" transform="matrix(33.20889,0,0,-33.20889,305.66316,336.52714)"/>
<use xlink:href="#font_1_15" transform="matrix(33.20889,0,0,-33.20889,320.09614,336.19505)"/>
<use xlink:href="#font_1_9" transform="matrix(33.20889,0,0,-33.20889,328.5976,336.52714)"/>
<use xlink:href="#font_1_17" transform="matrix(33.20889,0,0,-33.20889,353.2635,336.19505)"/>
<symbol id="font_2_1">
<path d="M .201 .455 C .094000007 .44500003 0 .35200004 0 .22500001 C 0 .11100001 .08400001 0 .216 0 C .336 0 .43 .106000009 .43 .22300002 C .43 .335 .347 .45600004 .21400002 .45600004 C .21000001 .45600004 .20500002 .455 .201 .455 M .07700001 .202 C .076000008 .21000001 .076000008 .21800001 .076000008 .22600001 C .076000008 .29500003 .083000008 .386 .16000001 .42200003 C .17700002 .43000005 .19600001 .43400003 .21400002 .43400003 C .252 .43400003 .289 .41700004 .314 .38700003 C .349 .34600003 .35300002 .29000003 .35300002 .23800002 C .35300002 .18200001 .352 .11800001 .314 .071 C .289 .040000004 .252 .022 .21400002 .022 C .13100001 .022 .08800001 .09700001 .080000009 .171 C .07800001 .18100001 .07800001 .19200002 .07700001 .202 M .113000009 .66 C .08800001 .656 .072000008 .63600006 .072000008 .61300006 C .072000008 .59000006 .08900001 .564 .118 .564 C .14500001 .564 .16900002 .58400008 .16900002 .61200007 C .16900002 .63500007 .15100001 .661 .12200001 .661 C .119 .661 .11600001 .66 .113000009 .66 M .303 .66 C .28 .657 .261 .637 .261 .61300006 C .261 .59000006 .279 .564 .308 .564 C .336 .564 .358 .58500006 .358 .61200007 C .358 .63600006 .34 .661 .311 .661 C .308 .661 .306 .66 .303 .66 Z "/>
</symbol>
<use xlink:href="#font_2_1" transform="matrix(33.20889,0,0,-33.20889,370.2964,336.49394)"/>
<use xlink:href="#font_1_1" transform="matrix(33.20889,0,0,-33.20889,386.72959,336.19505)"/>
<use xlink:href="#font_1_1" transform="matrix(33.20889,0,0,-33.20889,404.72966,336.19505)"/>
<use xlink:href="#font_1_11" transform="matrix(33.20889,0,0,-33.20889,422.66328,336.52714)"/>
<use xlink:href="#font_1_1" transform="matrix(33.20889,0,0,-33.20889,437.06309,336.19505)"/>
<use xlink:href="#font_1_10" transform="matrix(33.20889,0,0,-33.20889,466.1632,336.52714)"/>
<use xlink:href="#font_1_15" transform="matrix(33.20889,0,0,-33.20889,484.09687,336.19505)"/>
<use xlink:href="#font_1_11" transform="matrix(33.20889,0,0,-33.20889,492.99684,336.52714)"/>
<use xlink:href="#font_1_16" transform="matrix(33.20889,0,0,-33.20889,519.461,336.89244)"/>
<use xlink:href="#font_1_9" transform="matrix(33.20889,0,0,-33.20889,536.2656,336.52714)"/>
<use xlink:href="#font_1_7" transform="matrix(33.20889,0,0,-33.20889,549.26437,336.19505)"/>
<use xlink:href="#font_1_15" transform="matrix(33.20889,0,0,-33.20889,562.09707,336.19505)"/>
<use xlink:href="#font_1_f" transform="matrix(33.20889,0,0,-33.20889,571.163,336.52714)"/>
<use xlink:href="#font_1_14" transform="matrix(33.20889,0,0,-33.20889,584.3964,336.19505)"/>
<use xlink:href="#font_1_11" transform="matrix(33.20889,0,0,-33.20889,602.3301,336.52714)"/>
<use xlink:href="#font_1_13" transform="matrix(33.20889,0,0,-33.20889,627.5639,343.00288)"/>
<use xlink:href="#font_1_7" transform="matrix(33.20889,0,0,-33.20889,643.93057,336.19505)"/>
<use xlink:href="#font_1_a" transform="matrix(33.20889,0,0,-33.20889,656.73,336.52714)"/>
<use xlink:href="#font_1_3" transform="matrix(33.20889,0,0,-33.20889,674.5972,342.63758)"/>
<use xlink:href="#font_1_3" transform="matrix(33.20889,0,0,-33.20889,692.5973,342.63758)"/>
<use xlink:href="#font_1_15" transform="matrix(33.20889,0,0,-33.20889,710.7634,336.19505)"/>
<use xlink:href="#font_1_11" transform="matrix(33.20889,0,0,-33.20889,719.66348,336.52714)"/>
<use xlink:href="#font_1_7" transform="matrix(33.20889,0,0,-33.20889,733.9304,336.19505)"/>
<use xlink:href="#font_1_9" transform="matrix(33.20889,0,0,-33.20889,746.265,336.52714)"/>
<use xlink:href="#font_1_b" transform="matrix(33.20889,0,0,-33.20889,770.2653,336.52714)"/>
<use xlink:href="#font_1_11" transform="matrix(33.20889,0,0,-33.20889,792.9968,336.52714)"/>
<use xlink:href="#font_1_7" transform="matrix(33.20889,0,0,-33.20889,807.26388,336.19505)"/>
<use xlink:href="#font_1_10" transform="matrix(33.20889,0,0,-33.20889,820.1629,336.52714)"/>
<use xlink:href="#font_1_11" transform="matrix(33.20889,0,0,-33.20889,837.99697,336.52714)"/>
<use xlink:href="#font_1_1" transform="matrix(33.20889,0,0,-33.20889,852.3968,336.19505)"/>
<use xlink:href="#font_1_1b" transform="matrix(33.20889,0,0,-33.20889,872.22329,336.19505)"/>
<path transform="matrix(.27777777,0,0,-.27777777,0,774.86117)" stroke-width="14.944" stroke-linecap="butt" stroke-miterlimit="10" stroke-linejoin="miter" fill="none" stroke="#000000" d="M 2009.81 1065.15 L 2022 1372.27 "/>
<path transform="matrix(.27777777,0,0,-.27777777,0,774.86117)" stroke-width="14.944" stroke-linecap="butt" stroke-miterlimit="10" stroke-linejoin="miter" fill="none" stroke="#000000" d="M 2083.71 1071.46 L 2083.58 1357.54 "/>
<path transform="matrix(.27777777,0,0,-.27777777,0,774.86117)" stroke-width="14.944" stroke-linecap="butt" stroke-miterlimit="10" stroke-linejoin="miter" fill="none" stroke="#000000" d="M 2143.9 1065.98 L 2141.49 1367.63 "/>
<path transform="matrix(.27777777,0,0,-.27777777,0,774.86117)" stroke-width="14.944" stroke-linecap="butt" stroke-miterlimit="10" stroke-linejoin="miter" fill="none" stroke="#000000" d="M 2197.42 1071.53 L 2195.92 1367.48 "/>
<path transform="matrix(.27777777,0,0,-.27777777,0,774.86117)" stroke-width="14.944" stroke-linecap="butt" stroke-miterlimit="10" stroke-linejoin="miter" fill="none" stroke="#000000" d="M 2307.52 1062.4 L 2312.93 1367.81 "/>
<path transform="matrix(.27777777,0,0,-.27777777,0,774.86117)" stroke-width="14.944" stroke-linecap="butt" stroke-miterlimit="10" stroke-linejoin="miter" fill="none" stroke="#000000" d="M 2370.71 1073.39 L 2371.78 1370 "/>
<path transform="matrix(.27777777,0,0,-.27777777,0,774.86117)" stroke-width="14.944" stroke-linecap="butt" stroke-miterlimit="10" stroke-linejoin="miter" fill="none" stroke="#000000" d="M 1975.68 1107.85 L 2234.7 1336.99 "/>
<symbol id="font_1_1a">
<path d="M .87600007 .60600009 C .892 .65400007 .921 .6740001 .971 .6750001 L .971 .70400008 C .92800006 .7020001 .926 .7020001 .882 .7020001 C .856 .7020001 .80200007 .7020001 .778 .70400008 L .778 .6750001 C .83900007 .6740001 .857 .6420001 .857 .62200006 C .857 .61700007 .85400006 .609 .852 .60200008 L .7 .128 L .538 .63100007 C .537 .63400009 .535 .6420001 .535 .64500007 C .535 .6750001 .588 .6750001 .612 .6750001 L .612 .70400008 C .588 .7020001 .514 .7020001 .48500005 .7020001 C .45600004 .7020001 .39500005 .7020001 .36900003 .70400008 L .36900003 .6750001 C .42200003 .6750001 .43600003 .67200008 .44700004 .65400007 C .45400004 .64100006 .46100004 .6100001 .47400005 .57400009 L .33100004 .128 L .171 .62600007 C .16600001 .64000007 .16600001 .6420001 .16600001 .64500007 C .16600001 .6750001 .21700001 .6750001 .24300002 .6750001 L .24300002 .70400008 C .22000002 .7020001 .14400001 .7020001 .116 .7020001 C .087 .7020001 .026 .7020001 0 .70400008 L 0 .6750001 C .054 .6750001 .073 .6750001 .08500001 .6370001 L .28300003 .019000002 C .28800003 .0040000008 .29200004 0 .30100004 0 C .30900003 0 .31400005 .0030000006 .31900005 .018000002 L .48500005 .53700008 L .652 .018000002 C .657 .0030000006 .662 0 .67 0 C .679 0 .683 .0040000008 .688 .019000002 L .87600007 .60600009 Z "/>
</symbol>
<use xlink:href="#font_1_5" transform="matrix(33.20889,0,0,-33.20889,5.0612175,530.5273)"/>
<use xlink:href="#font_1_c" transform="matrix(33.20889,0,0,-33.20889,30.127705,530.8594)"/>
<use xlink:href="#font_1_19" transform="matrix(33.20889,0,0,-33.20889,46.062574,530.5273)"/>
<use xlink:href="#font_1_15" transform="matrix(33.20889,0,0,-33.20889,73.095859,530.5273)"/>
<use xlink:href="#font_1_9" transform="matrix(33.20889,0,0,-33.20889,81.597339,530.8594)"/>
<use xlink:href="#font_1_18" transform="matrix(33.20889,0,0,-33.20889,105.42843,530.5273)"/>
<use xlink:href="#font_1_c" transform="matrix(33.20889,0,0,-33.20889,114.79334,530.8594)"/>
<use xlink:href="#font_1_8" transform="matrix(33.20889,0,0,-33.20889,130.7614,530.8594)"/>
<use xlink:href="#font_1_8" transform="matrix(33.20889,0,0,-33.20889,143.4281,530.8594)"/>
<use xlink:href="#font_1_11" transform="matrix(33.20889,0,0,-33.20889,155.99518,530.8594)"/>
<use xlink:href="#font_1_1" transform="matrix(33.20889,0,0,-33.20889,170.39498,530.5273)"/>
<use xlink:href="#font_1_8" transform="matrix(33.20889,0,0,-33.20889,199.76203,530.8594)"/>
<use xlink:href="#font_1_15" transform="matrix(33.20889,0,0,-33.20889,212.42871,530.5273)"/>
<use xlink:href="#font_1_f" transform="matrix(33.20889,0,0,-33.20889,221.49474,530.8594)"/>
<use xlink:href="#font_1_14" transform="matrix(33.20889,0,0,-33.20889,234.72849,530.5273)"/>
<use xlink:href="#font_1_17" transform="matrix(33.20889,0,0,-33.20889,263.59529,530.5273)"/>
<use xlink:href="#font_1_18" transform="matrix(33.20889,0,0,-33.20889,280.76139,530.5273)"/>
<use xlink:href="#font_1_11" transform="matrix(33.20889,0,0,-33.20889,289.66139,530.8594)"/>
<use xlink:href="#font_1_15" transform="matrix(33.20889,0,0,-33.20889,304.09437,530.5273)"/>
<use xlink:href="#font_1_1" transform="matrix(33.20889,0,0,-33.20889,313.06077,530.5273)"/>
<use xlink:href="#font_1_11" transform="matrix(33.20889,0,0,-33.20889,330.99446,530.8594)"/>
<use xlink:href="#font_1_4" transform="matrix(33.20889,0,0,-33.20889,357.79154,530.5273)"/>
<use xlink:href="#font_1_c" transform="matrix(33.20889,0,0,-33.20889,377.4595,530.8594)"/>
<use xlink:href="#font_1_14" transform="matrix(33.20889,0,0,-33.20889,393.39439,530.5273)"/>
<use xlink:href="#font_1_18" transform="matrix(33.20889,0,0,-33.20889,411.42765,530.5273)"/>
<use xlink:href="#font_1_11" transform="matrix(33.20889,0,0,-33.20889,420.3276,530.8594)"/>
<use xlink:href="#font_1_1" transform="matrix(33.20889,0,0,-33.20889,434.72743,530.5273)"/>
<use xlink:href="#font_1_10" transform="matrix(33.20889,0,0,-33.20889,463.494,530.8594)"/>
<use xlink:href="#font_1_c" transform="matrix(33.20889,0,0,-33.20889,481.79295,530.8594)"/>
<use xlink:href="#font_1_7" transform="matrix(33.20889,0,0,-33.20889,497.59495,530.5273)"/>
<use xlink:href="#font_1_8" transform="matrix(33.20889,0,0,-33.20889,510.42765,530.8594)"/>
<use xlink:href="#font_1_9" transform="matrix(33.20889,0,0,-33.20889,522.5962,530.8594)"/>
<use xlink:href="#font_1_11" transform="matrix(33.20889,0,0,-33.20889,535.6614,530.8594)"/>
<use xlink:href="#font_1_18" transform="matrix(33.20889,0,0,-33.20889,550.09439,530.5273)"/>
<use xlink:href="#font_1_18" transform="matrix(33.20889,0,0,-33.20889,559.094,530.5273)"/>
<use xlink:href="#font_1_11" transform="matrix(33.20889,0,0,-33.20889,567.99398,530.8594)"/>
<use xlink:href="#font_1_1" transform="matrix(33.20889,0,0,-33.20889,582.39376,530.5273)"/>
<use xlink:href="#font_1_1d" transform="matrix(33.20889,0,0,-33.20889,602.2203,530.5273)"/>
<use xlink:href="#font_1_1a" transform="matrix(33.20889,0,0,-33.20889,4.230995,578.55856)"/>
<use xlink:href="#font_1_15" transform="matrix(33.20889,0,0,-33.20889,38.09576,577.86117)"/>
<use xlink:href="#font_1_11" transform="matrix(33.20889,0,0,-33.20889,46.99574,578.19326)"/>
<use xlink:href="#font_1_17" transform="matrix(33.20889,0,0,-33.20889,72.26315,577.86117)"/>
<use xlink:href="#font_2_1" transform="matrix(33.20889,0,0,-33.20889,89.29645,578.16006)"/>
<use xlink:href="#font_1_1" transform="matrix(33.20889,0,0,-33.20889,105.72962,577.86117)"/>
<use xlink:href="#font_1_1" transform="matrix(33.20889,0,0,-33.20889,123.729679,577.86117)"/>
<use xlink:href="#font_1_11" transform="matrix(33.20889,0,0,-33.20889,141.6633,578.19326)"/>
<use xlink:href="#font_1_1" transform="matrix(33.20889,0,0,-33.20889,156.06308,577.86117)"/>
<use xlink:href="#font_1_13" transform="matrix(33.20889,0,0,-33.20889,184.89756,584.66897)"/>
<use xlink:href="#font_1_7" transform="matrix(33.20889,0,0,-33.20889,201.26415,577.86117)"/>
<use xlink:href="#font_2_1" transform="matrix(33.20889,0,0,-33.20889,213.96334,578.16006)"/>
<symbol id="font_1_1c">
<path d="M .17400001 .24200002 C .17400001 .30100004 .198 .38900004 .29900003 .46400003 C .32700003 .485 .35300002 .51600006 .35300002 .568 C .35300002 .629 .31100003 .70400008 .16700001 .70400008 C .059000005 .70400008 0 .634 0 .57000008 C 0 .53400006 .026999999 .526 .042 .526 C .059000005 .526 .083000008 .53800007 .083000008 .568 C .083000008 .591 .066 .609 .041000006 .609 C .035 .609 .033000005 .609 .031 .60800006 C .053000008 .66 .111 .684 .164 .684 C .27700005 .684 .27700005 .611 .27700005 .573 C .27700005 .514 .25900004 .49500004 .242 .47700004 C .17400001 .404 .15200001 .31100003 .15200001 .25 L .15200001 .202 C .15200001 .18400002 .15200001 .18 .163 .18 C .17400001 .18 .17400001 .187 .17400001 .20500002 L .17400001 .24200002 M .21100001 .049000004 C .21100001 .075 .18900001 .097 .163 .097 C .133 .097 .11400001 .07300001 .11400001 .049000004 C .11400001 .019000002 .138 0 .162 0 C .19000001 0 .21100001 .022000002 .21100001 .049000004 Z "/>
</symbol>
<use xlink:href="#font_1_8" transform="matrix(33.20889,0,0,-33.20889,230.42972,578.19326)"/>
<use xlink:href="#font_1_8" transform="matrix(33.20889,0,0,-33.20889,243.09639,578.19326)"/>
<use xlink:href="#font_1_11" transform="matrix(33.20889,0,0,-33.20889,255.66347,578.19326)"/>
<use xlink:href="#font_1_7" transform="matrix(33.20889,0,0,-33.20889,269.93043,577.86117)"/>
<use xlink:href="#font_1_11" transform="matrix(33.20889,0,0,-33.20889,282.66355,578.19326)"/>
<use xlink:href="#font_1_4" transform="matrix(33.20889,0,0,-33.20889,309.12754,577.86117)"/>
<use xlink:href="#font_1_c" transform="matrix(33.20889,0,0,-33.20889,328.7955,578.19326)"/>
<use xlink:href="#font_1_14" transform="matrix(33.20889,0,0,-33.20889,344.73036,577.86117)"/>
<use xlink:href="#font_1_18" transform="matrix(33.20889,0,0,-33.20889,362.76365,577.86117)"/>
<use xlink:href="#font_1_11" transform="matrix(33.20889,0,0,-33.20889,371.6636,578.19326)"/>
<use xlink:href="#font_1_1" transform="matrix(33.20889,0,0,-33.20889,386.06343,577.86117)"/>
<use xlink:href="#font_1_10" transform="matrix(33.20889,0,0,-33.20889,415.16316,578.19326)"/>
<use xlink:href="#font_1_c" transform="matrix(33.20889,0,0,-33.20889,433.46208,578.19326)"/>
<use xlink:href="#font_1_7" transform="matrix(33.20889,0,0,-33.20889,449.26408,577.86117)"/>
<use xlink:href="#font_1_13" transform="matrix(33.20889,0,0,-33.20889,461.89753,584.66897)"/>
<use xlink:href="#font_1_11" transform="matrix(33.20889,0,0,-33.20889,478.33058,578.19326)"/>
<use xlink:href="#font_1_8" transform="matrix(33.20889,0,0,-33.20889,492.76356,578.19326)"/>
<use xlink:href="#font_1_9" transform="matrix(33.20889,0,0,-33.20889,504.93208,578.19326)"/>
<use xlink:href="#font_1_11" transform="matrix(33.20889,0,0,-33.20889,517.99728,578.19326)"/>
<use xlink:href="#font_1_18" transform="matrix(33.20889,0,0,-33.20889,532.43026,577.86117)"/>
<use xlink:href="#font_1_18" transform="matrix(33.20889,0,0,-33.20889,541.4299,577.86117)"/>
<use xlink:href="#font_1_9" transform="matrix(33.20889,0,0,-33.20889,549.93136,578.19326)"/>
<use xlink:href="#font_1_b" transform="matrix(33.20889,0,0,-33.20889,573.59768,578.19326)"/>
<use xlink:href="#font_1_11" transform="matrix(33.20889,0,0,-33.20889,596.32919,578.19326)"/>
<use xlink:href="#font_1_7" transform="matrix(33.20889,0,0,-33.20889,610.5962,577.86117)"/>
<use xlink:href="#font_1_10" transform="matrix(33.20889,0,0,-33.20889,623.49526,578.19326)"/>
<use xlink:href="#font_1_11" transform="matrix(33.20889,0,0,-33.20889,641.3293,578.19326)"/>
<use xlink:href="#font_1_1" transform="matrix(33.20889,0,0,-33.20889,655.7291,577.86117)"/>
<use xlink:href="#font_1_1c" transform="matrix(33.20889,0,0,-33.20889,674.4597,577.86117)"/>
</g>
</svg>
