<?xml version="1.0" encoding="UTF-8" standalone="no"?>
<!DOCTYPE svg PUBLIC "-//W3C//DTD SVG 1.1//EN" "http://www.w3.org/Graphics/SVG/1.1/DTD/svg11.dtd">
<svg xmlns="http://www.w3.org/2000/svg" xmlns:xlink="http://www.w3.org/1999/xlink" version="1.1" width="1106.9722pt" height="774.86117pt" viewBox="0 0 1106.9722 774.86117">
<g enable-background="new">
<symbol id="font_0_c">
<path d="M .517 .58800008 L .518 .58800008 C .52000007 .568 .527 .54800006 .532 .52800008 C .57900008 .36700005 .62700006 .20500002 .67600008 .044000005 C .683 .023 .688 0 .72200009 0 L .79800006 0 C .84300008 0 .845 .027 .855 .058000007 C .91600009 .25500003 .9760001 .45300005 1.036 .65000006 C 1.0370001 .65500006 1.039 .66 1.039 .665 C 1.039 .683 1.023 .68500009 1.011 .68500009 L .9760001 .68500009 C .95500007 .68500009 .94000008 .6840001 .92800006 .66 C .91700008 .628 .90800008 .59400007 .89800009 .56100007 C .86100009 .43500004 .822 .31100003 .786 .185 C .77800008 .156 .768 .127 .76400008 .097 L .763 .097 C .76000007 .13800001 .739 .19000001 .72700008 .23500002 C .69000008 .36600004 .651 .49700005 .609 .62600007 C .605 .64100006 .602 .66200008 .591 .674 C .58000007 .68500009 .56600007 .68500009 .55200007 .68500009 L .48300005 .68500009 C .448 .68500009 .44200004 .66700008 .43500004 .64400008 L .40500004 .545 C .367 .41700004 .326 .28900004 .29200004 .15900001 C .286 .139 .28 .118 .27800004 .097 C .27400003 .109000008 .273 .122 .26900003 .135 C .229 .29700003 .17600002 .45600004 .128 .61600008 C .119 .647 .11600001 .68600007 .071 .68600007 C .062 .68600007 .053000004 .68500009 .046000005 .68500009 C .041 .68500009 .035 .68600007 .029 .68600007 C .015999999 .68600007 0 .68100008 0 .66600009 C 0 .65400007 .007999999 .63500007 .011999998 .62100008 C .063 .46000005 .109 .29900003 .16000001 .13800001 C .169 .109000008 .178 .079 .186 .050000006 C .19600001 .022000002 .2 0 .241 0 L .31100003 0 C .344 0 .351 .017 .35700003 .040000004 C .397 .17300001 .43800003 .30600003 .477 .43900005 C .48700006 .47200004 .49700005 .50500008 .505 .53800007 C .51000007 .554 .51500007 .57100006 .517 .58800008 Z "/>
</symbol>
<symbol id="font_0_9">
<path d="M .023999997 .45000006 C .008000001 .44700004 .0029999987 .43300004 .0029999987 .41800005 L .0029999987 .032 C .0029999987 .004 .020999998 0 .04 0 L .092 0 C .11900001 0 .124000009 .016 .124000009 .035000005 L .124000009 .42000006 C .124000009 .44200004 .11200001 .45100004 .091 .45100004 L .036 .45100004 C .031999999 .45100004 .027999998 .45100004 .023999997 .45000006 M .020999998 .70800009 C .0050000029 .70600005 0 .69000008 0 .67700007 L 0 .61300006 C 0 .591 .013999999 .58300009 .031000004 .58300009 L .093 .58300009 C .11100001 .58300009 .12600002 .58900007 .12600002 .61300006 L .12600002 .679 C .12600002 .70400008 .11000001 .70900008 .094000007 .70900008 L .034 .70900008 C .029 .70900008 .024999999 .70900008 .020999998 .70800009 Z "/>
</symbol>
<symbol id="font_0_7">
<path d="M .118 .21700001 L .425 .21700001 C .45200003 .21700001 .46 .231 .46 .25100003 C .46 .366 .41200004 .474 .24200002 .474 C .177 .474 .10700001 .45900003 .060000007 .412 C .014000002 .366 0 .299 0 .23700002 C 0 .18200001 .011 .125 .046 .082 C .096 .018000002 .18100001 0 .25800003 0 C .315 0 .374 .012 .42600004 .036000004 C .43400003 .040000004 .451 .045 .453 .055000005 L .453 .059000005 C .453 .080000009 .45200003 .124000009 .441 .127 L .439 .127 C .43 .127 .42000003 .117000009 .414 .112 C .37100003 .08100001 .316 .064 .262 .064 C .194 .064 .118 .10000001 .118 .209 L .118 .21700001 M .119 .273 C .119 .347 .165 .41 .243 .41 C .33600004 .41 .347 .335 .35300002 .273 L .119 .273 Z "/>
</symbol>
<symbol id="font_0_5">
<path d="M .286 .39100004 C .25800003 .35500003 .227 .321 .19700001 .286 C .139 .21700001 .082 .149 .024 .082 C .014000002 .07 0 .059000005 0 .041 L 0 .033 C 0 .012 .008000001 .001 .033999999 .001 L .381 .001 C .386 .001 .391 0 .397 0 C .42700003 0 .43 .019000002 .43 .037 C .43 .052 .42600004 .07 .4 .07 L .393 .07 C .30900003 .07 .22600001 .066 .142 .066 C .16600001 .096 .192 .125 .21700001 .15400002 L .40300004 .374 C .41500003 .38700003 .428 .39800004 .428 .41900004 C .428 .44700004 .41200004 .45200003 .39400003 .45200003 L .05 .45200003 C .023000002 .45200003 .015999999 .43800003 .015999999 .42000003 C .015999999 .40300004 .022 .388 .045000007 .388 L .053 .388 C .065 .388 .07800001 .388 .09 .38900004 L .102 .38900004 C .117 .38900004 .132 .388 .147 .388 C .163 .388 .178 .39000003 .194 .39000003 L .22100002 .39000003 C .243 .39000003 .264 .39100004 .286 .39100004 Z "/>
</symbol>
<symbol id="font_0_e">
<path d="M .319 .277 C .199 .277 0 .262 0 .133 C 0 .054000006 .068 0 .146 0 C .206 0 .273 .012 .321 .050000006 L .321 .040000004 C .321 .009000001 .342 .009000001 .359 .009000001 L .409 .009000001 C .426 .009000001 .442 .015000001 .442 .040000004 L .442 .327 C .43400003 .449 .333 .474 .24400002 .474 C .18400002 .474 .12799999 .46400003 .072000008 .441 C .062 .435 .046000005 .433 .046000005 .42000003 C .046000005 .395 .047 .344 .061000006 .344 C .066 .344 .07 .347 .074 .35 C .11900001 .39000003 .171 .412 .23300001 .412 C .292 .412 .319 .38 .319 .31 L .319 .277 M .319 .22700002 L .319 .14700002 C .319 .086 .261 .064 .20900002 .064 C .17300001 .064 .11900001 .083000008 .11900001 .134 C .11900001 .21900001 .263 .223 .319 .22700002 M .099 .6930001 C .08400001 .69000008 .078 .67800006 .078 .66200008 L .078 .6010001 C .078 .58400008 .085 .568 .10500001 .568 L .169 .568 C .18800003 .568 .204 .573 .204 .59700009 L .204 .66400006 C .204 .68500009 .192 .69400009 .17300001 .69400009 L .11200001 .69400009 C .107 .69400009 .10300001 .69400009 .099 .6930001 M .322 .6930001 C .307 .69000008 .30200003 .679 .30200003 .66400006 L .30200003 .59800007 C .30200003 .57900008 .312 .568 .33200003 .568 L .39400003 .568 C .412 .568 .428 .57400009 .428 .6010001 L .428 .656 C .428 .679 .421 .69400009 .396 .69400009 L .335 .69400009 C .33 .69400009 .326 .69400009 .322 .6930001 Z "/>
</symbol>
<symbol id="font_0_8">
<path d="M .12100001 .38300003 L .12100001 .68000009 C .12100001 .702 .11400001 .71500006 .083000008 .71500006 C .07200001 .71500006 .061000006 .71400007 .050000006 .71400007 C .044000009 .71400007 .038000004 .71500006 .032000007 .71500006 C .016000003 .71500006 0 .70600005 0 .68600007 L 0 .036000004 C 0 .020000002 .001000002 .007 .022 0 L .08700001 0 C .112 0 .12300001 .011 .12300001 .036000004 L .12300001 .24700001 C .12300001 .31400005 .157 .39600004 .24200002 .39600004 C .30900003 .39600004 .319 .35600005 .319 .31200005 L .319 .035000005 C .319 .012 .32700003 0 .35000003 0 L .40700004 0 C .42900003 0 .44300003 .010000001 .44300003 .034 C .44300003 .041000006 .44200004 .048000006 .44200004 .054000006 L .44200004 .293 C .44200004 .33100004 .44200004 .37100003 .423 .40500004 C .395 .45400004 .33400003 .46000005 .28500004 .46000005 C .21800003 .46000005 .16200002 .43200005 .12100001 .38300003 Z "/>
</symbol>
<symbol id="font_0_a">
<path d="M .022 .71300008 C .0040000008 .71300008 .001000002 .69000008 .001000002 .67800006 L .001000002 .054000006 C .001000002 .048000006 0 .041000006 0 .034 C 0 .017 .008000001 .0019999999 .024000004 0 L .08400001 0 C .118 0 .12200001 .014 .12200001 .033000005 L .12200001 .66 C .12200001 .66600009 .12300001 .67200008 .12300001 .679 C .12300001 .69600006 .11700001 .7120001 .098000008 .71400007 L .037000009 .71400007 C .032000007 .71400007 .027000003 .71400007 .022 .71300008 Z "/>
</symbol>
<symbol id="font_0_3">
<path d="M .082 .46 L .031999999 .46 C .012999998 .46 0 .448 0 .42900003 C 0 .41 .012 .39900003 .03 .39900003 L .08 .39900003 L .08 .135 C .08 .07 .097 0 .18200001 0 C .23800002 0 .298 .011 .347 .037 C .35300002 .040000004 .361 .043 .361 .050000006 L .361 .053000004 C .361 .066 .352 .102000009 .34100003 .102000009 C .33200003 .102000009 .32 .091000009 .31 .08500001 C .291 .074 .266 .068 .24500002 .068 C .20600002 .068 .19900002 .105000007 .19900002 .157 L .19900002 .39900003 L .31 .39900003 C .329 .39900003 .344 .409 .344 .42900003 C .344 .45000003 .331 .46 .30900003 .46 L .19900002 .46 L .19900002 .55500009 C .19900002 .57900008 .19000001 .59000006 .16200002 .59000006 C .15500002 .59000006 .14700002 .58900007 .14000002 .58900007 C .13300002 .58900007 .12600002 .59000006 .11900001 .59000006 C .1 .59000006 .082 .58500006 .082 .55500009 L .082 .46 Z "/>
</symbol>
<symbol id="font_0_b">
<path d="M .120000008 .38000003 L .119 .42000006 C .119 .44300006 .110000018 .45500005 .08600001 .45500005 L .022 .45500005 C .0050000029 .45000006 0 .43900005 0 .42200003 L 0 .031000002 C 0 .001 .020000004 0 .037000009 0 L .091000009 0 C .120000008 0 .12300001 .017 .12300001 .035000005 L .12300001 .237 C .12300001 .32200004 .16200002 .39600004 .245 .39600004 C .312 .39600004 .319 .35100005 .319 .31000004 L .319 .031000002 C .319 .001 .33900003 0 .356 0 L .409 0 C .43800003 0 .44200004 .016 .44200004 .034 L .44200004 .25200004 C .44200004 .31900005 .48300005 .39600004 .558 .39600004 C .63000008 .39600004 .638 .35700003 .638 .31100003 L .638 .022000002 C .64100006 .008 .652 0 .66800007 0 L .72800007 0 C .753 0 .762 .013 .762 .034 C .762 .042000005 .76100006 .050000006 .76100006 .056000007 L .76100006 .29700003 C .76100006 .33500005 .76000007 .37400005 .74 .40700004 C .71400007 .45100004 .65900006 .46000005 .61100009 .46000005 C .554 .46000005 .499 .44400005 .454 .39900003 C .44700004 .39200003 .44100005 .38300003 .43400003 .37600003 C .425 .44500003 .34100003 .46000005 .291 .46000005 C .23000002 .46000005 .15100001 .43500004 .120000008 .38000003 Z "/>
</symbol>
<symbol id="font_0_4">
<path d="M .319 .277 C .199 .277 0 .262 0 .133 C 0 .054000006 .068 0 .146 0 C .206 0 .273 .012 .321 .050000006 L .321 .040000004 C .321 .009000001 .342 .009000001 .359 .009000001 L .409 .009000001 C .426 .009000001 .442 .015000001 .442 .040000004 L .442 .327 C .43400003 .449 .333 .474 .24400002 .474 C .18400002 .474 .12799999 .46400003 .072000008 .441 C .062 .435 .046000005 .433 .046000005 .42000003 C .046000005 .395 .047 .344 .061000006 .344 C .066 .344 .07 .347 .074 .35 C .11900001 .39000003 .171 .412 .23300001 .412 C .292 .412 .319 .38 .319 .31 L .319 .277 M .319 .22700002 L .319 .14700002 C .319 .086 .261 .064 .20900002 .064 C .17300001 .064 .11900001 .083000008 .11900001 .134 C .11900001 .21900001 .263 .223 .319 .22700002 Z "/>
</symbol>
<symbol id="font_0_1">
<path d="M .120000008 .38000003 C .119 .38600005 .118 .39200003 .118 .39800004 C .118 .40600003 .119 .41400004 .119 .42100004 C .119 .43700005 .11400001 .45300005 .09500001 .45500005 L .022 .45500005 C .0060000049 .45100004 0 .43800003 0 .42200003 L 0 .031000002 C 0 .0019999999 .019000002 0 .036000007 0 L .091000009 0 C .12100001 0 .12300001 .019000002 .12300001 .036000004 L .12300001 .237 C .12300001 .293 .13300002 .37400005 .22 .39400003 C .22700003 .39500005 .23500002 .39600004 .243 .39600004 C .31300003 .39600004 .319 .35200004 .319 .30900003 L .319 .049000004 C .319 .043000007 .31800003 .037000006 .31800003 .031000002 C .31800003 .014 .32700003 0 .349 0 L .40700004 0 C .42900003 0 .44200004 .007 .44200004 .034 L .44200004 .30400003 C .44200004 .34400005 .44 .39000006 .411 .42100004 C .37700004 .45600004 .32900004 .46000005 .28300003 .46000005 L .27 .46000005 C .21400002 .45500005 .14500001 .42800004 .120000008 .38000003 Z "/>
</symbol>
<symbol id="font_0_6">
<path d="M .356 .423 C .32100005 .45200003 .27100004 .469 .22500001 .469 C .171 .469 .11 .46 .069000009 .423 C .015000001 .37600003 0 .304 0 .23500002 C 0 .17700002 .009999998 .11100001 .049000004 .064 C .089 .016 .15200001 0 .212 0 C .265 0 .315 .02 .35400004 .055000005 C .35400004 .050000006 .35300005 .045 .35300005 .040000004 C .35300005 .010000001 .375 .009000001 .39200003 .009000001 L .44 .009000001 C .459 .009000001 .47700007 .012 .47700007 .040000004 L .47700007 .68900009 C .47700007 .71900007 .46100004 .72300007 .44200004 .72300007 L .38600005 .72300007 C .36900003 .72300007 .35500003 .71400007 .35500003 .6930001 C .35500003 .68700006 .356 .68100008 .356 .6750001 L .356 .423 M .12300001 .2 L .12300001 .24200002 C .12300001 .317 .135 .405 .259 .405 C .292 .405 .31800003 .395 .34400005 .372 C .348 .368 .35300005 .364 .35400004 .358 L .35400004 .133 C .35400004 .087000008 .272 .064 .249 .064 C .21500002 .064 .178 .072000008 .155 .098000008 C .12900001 .127 .127 .164 .12300001 .2 Z "/>
</symbol>
<symbol id="font_0_2">
<path d="M .119 .36300005 C .118 .37000004 .118 .37700004 .118 .38400004 L .118 .42400003 C .118 .45100004 .10100001 .45500005 .083000008 .45500005 L .031000004 .45500005 C .014000006 .45500005 0 .44600005 0 .42200003 C 0 .41600005 .001000002 .41100005 .001000002 .40600003 L .001000002 .037000006 C .001000002 .020000002 .003000006 0 .031000004 0 L .08700001 0 C .104 0 .12200001 .004 .12200001 .030000002 L .12200001 .192 C .12200001 .22600001 .12200001 .25800003 .13900002 .28800003 C .16800002 .33800004 .22300002 .36400003 .279 .36900003 L .286 .36900003 C .296 .36900003 .3 .37200005 .3 .38300003 L .3 .44300006 C .3 .45500005 .296 .46000005 .284 .46000005 C .22 .46000005 .14000002 .41200004 .119 .36300005 Z "/>
</symbol>
<symbol id="font_0_d">
<path d="M .17000002 .72300007 C .127 .71800008 .086 .71000006 .046000005 .69200006 C .031999999 .68600007 0 .6750001 0 .6610001 C 0 .65700009 .0009999946 .65300008 .0029999987 .64900007 L .019000002 .60400006 C .020999998 .59800007 .023000002 .58800008 .030999996 .586 L .033 .586 C .042000005 .586 .06600001 .61600008 .085 .628 C .12 .65000006 .15799999 .65900006 .19800002 .65900006 C .24900002 .65900006 .289 .64900007 .289 .56700006 C .289 .51500007 .26600004 .50600007 .21900001 .44900004 C .16499999 .38300003 .144 .31200005 .143 .22100002 L .143 .209 C .143 .2 .144 .191 .155 .19000001 L .222 .19000001 C .23300001 .19000001 .23700002 .19500001 .23700002 .20600002 L .23700002 .256 C .24000001 .32500003 .277 .38500003 .32900004 .42800004 C .372 .46300004 .41200004 .49100004 .41200004 .564 C .41200004 .7120001 .28000004 .72300007 .187 .72300007 L .17000002 .72300007 M .151 .117000009 C .136 .114 .13100001 .101 .13100001 .088 L .13100001 .033000005 C .13100001 .003 .15 0 .16800002 0 L .21800003 0 C .23700002 0 .24900002 .008 .24900002 .030000002 L .24900002 .086 C .24900002 .105000007 .24000001 .118 .22000003 .118 L .16300002 .118 C .15900001 .118 .155 .118 .151 .117000009 Z "/>
</symbol>
<use xlink:href="#font_0_c" transform="matrix(39.850557,0,0,-39.850557,3.2494627,33.154668)"/>
<use xlink:href="#font_0_9" transform="matrix(39.850557,0,0,-39.850557,48.525384,33.154668)"/>
<use xlink:href="#font_0_7" transform="matrix(39.850557,0,0,-39.850557,57.608274,33.513326)"/>
<use xlink:href="#font_0_5" transform="matrix(39.850557,0,0,-39.850557,93.94724,33.19452)"/>
<use xlink:href="#font_0_e" transform="matrix(39.850557,0,0,-39.850557,114.03809,33.513326)"/>
<use xlink:href="#font_0_8" transform="matrix(39.850557,0,0,-39.850557,137.64403,33.154668)"/>
<use xlink:href="#font_0_a" transform="matrix(39.850557,0,0,-39.850557,161.31685,33.154668)"/>
<use xlink:href="#font_0_3" transform="matrix(39.850557,0,0,-39.850557,169.84183,33.513326)"/>
<use xlink:href="#font_0_7" transform="matrix(39.850557,0,0,-39.850557,186.99352,33.513326)"/>
<use xlink:href="#font_0_b" transform="matrix(39.850557,0,0,-39.850557,224.67263,33.154668)"/>
<use xlink:href="#font_0_4" transform="matrix(39.850557,0,0,-39.850557,259.41416,33.513326)"/>
<use xlink:href="#font_0_1" transform="matrix(39.850557,0,0,-39.850557,283.0201,33.154668)"/>
<use xlink:href="#font_0_9" transform="matrix(39.850557,0,0,-39.850557,321.61299,33.154668)"/>
<use xlink:href="#font_0_1" transform="matrix(39.850557,0,0,-39.850557,332.36964,33.154668)"/>
<use xlink:href="#font_0_6" transform="matrix(39.850557,0,0,-39.850557,369.9413,33.513326)"/>
<use xlink:href="#font_0_7" transform="matrix(39.850557,0,0,-39.850557,393.37504,33.513326)"/>
<use xlink:href="#font_0_2" transform="matrix(39.850557,0,0,-39.850557,416.05467,33.154668)"/>
<use xlink:href="#font_0_c" transform="matrix(39.850557,0,0,-39.850557,444.34965,33.154668)"/>
<use xlink:href="#font_0_7" transform="matrix(39.850557,0,0,-39.850557,486.69798,33.513326)"/>
<use xlink:href="#font_0_a" transform="matrix(39.850557,0,0,-39.850557,509.3776,33.154668)"/>
<use xlink:href="#font_0_3" transform="matrix(39.850557,0,0,-39.850557,517.9025,33.513326)"/>
<use xlink:href="#font_0_d" transform="matrix(39.850557,0,0,-39.850557,536.3693,33.154668)"/>
<symbol id="font_1_1b">
<path d="M .154 .43800003 C .103 .451 .058000003 .50100007 .058000003 .56500008 C .058000003 .63500007 .11400001 .6980001 .192 .6980001 C .35600005 .6980001 .37800003 .5360001 .38400004 .49300004 C .38600005 .481 .38600005 .47700004 .39600004 .47700004 C .40700004 .47700004 .40700004 .48200003 .40700004 .50000008 L .40700004 .7020001 C .40700004 .7200001 .40700004 .7250001 .39700005 .7250001 C .39400003 .7250001 .39000006 .7250001 .38300003 .7120001 L .35000003 .6510001 C .30200003 .71300008 .23600002 .7250001 .192 .7250001 C .081 .7250001 0 .63600006 0 .53400006 C 0 .48600004 .017 .44200004 .054 .402 C .089 .363 .124 .354 .19500001 .33600004 C .23 .328 .28500004 .314 .29900003 .308 C .34600003 .285 .37700004 .231 .37700004 .17500001 C .37700004 .10000001 .32400004 .029000003 .24100001 .029000003 C .196 .029000003 .134 .040000004 .08500001 .083000008 C .026999999 .135 .023000006 .207 .022000004 .24000001 C .021000002 .24800001 .013 .24800001 .011000004 .24800001 C 0 .24800001 0 .24300002 0 .22500001 L 0 .023000002 C 0 .005000001 0 0 .010000002 0 C .015999999 0 .017 .0020000004 .024 .014000001 C .028 .022000002 .049000008 .059000005 .057000009 .074 C .092999998 .034 .156 0 .242 0 C .35400004 0 .43500004 .095 .43500004 .20500002 C .43500004 .266 .41200004 .31100003 .38500003 .344 C .34800003 .38900004 .30300004 .4 .26400004 .41000004 L .154 .43800003 Z "/>
</symbol>
<symbol id="font_1_16">
<path d="M .35300002 .24200002 C .37500004 .24200002 .377 .24200002 .377 .261 C .377 .36200003 .323 .456 .202 .456 C .08800001 .456 0 .35300002 0 .22900002 C 0 .097 .102 0 .21300002 0 C .33200003 0 .377 .108 .377 .12900001 C .377 .135 .372 .13900002 .36600004 .13900002 C .358 .13900002 .356 .134 .354 .12900001 C .328 .045 .261 .022 .21900001 .022 C .17700002 .022 .076000008 .050000006 .076000008 .22300002 L .076000008 .24200002 L .35300002 .24200002 M .07700001 .261 C .085 .418 .17300001 .43600003 .201 .43600003 C .30800004 .43600003 .314 .29500003 .31500004 .261 L .07700001 .261 Z "/>
</symbol>
<symbol id="font_1_1a">
<path d="M .141 .61600008 C .141 .642 .12000001 .665 .092 .665 C .06600001 .665 .044000009 .64400008 .044000009 .61700007 C .044000009 .587 .068 .568 .092 .568 C .123 .568 .141 .59400007 .141 .61600008 M .0030000024 .43 L .0030000024 .40100003 C .067 .40100003 .076000008 .395 .076000008 .34600003 L .076000008 .074 C .076000008 .029000001 .065000008 .029000001 0 .029000001 L 0 0 C .028000005 .002 .076000008 .002 .10500001 .002 C .116000007 .002 .17400003 .002 .208 0 L .208 .029000001 C .143 .029000001 .139 .034 .139 .07300001 L .139 .441 L .0030000024 .43 Z "/>
</symbol>
<symbol id="font_1_a">
<path d="M .15 .412 L .291 .412 L .291 .441 L .15 .441 L .15 .625 L .128 .625 C .127 .531 .091000009 .435 0 .432 L 0 .412 L .08500001 .412 L .08500001 .134 C .08500001 .023000002 .159 0 .212 0 C .275 0 .308 .062000004 .308 .134 L .308 .19100002 L .286 .19100002 L .286 .136 C .286 .064 .257 .022 .21800001 .022 C .15 .022 .15 .115 .15 .13200002 L .15 .412 Z "/>
</symbol>
<symbol id="font_1_9">
<path d="M .29500003 .433 C .29500003 .451 .29500003 .456 .28500004 .456 C .277 .456 .25800003 .43400003 .25100003 .425 C .22000003 .45000003 .18900001 .456 .157 .456 C .036000007 .456 0 .39000003 0 .335 C 0 .324 0 .289 .038000004 .254 C .07000001 .22600001 .10400001 .21900001 .15 .21000001 C .20500002 .19900002 .21800003 .19600001 .24300003 .17600002 C .261 .16100002 .27400003 .13900002 .27400003 .111 C .27400003 .068 .24900002 .020000002 .16100002 .020000002 C .095000009 .020000002 .047000007 .058000003 .025000003 .158 C .021000002 .17600002 .021000002 .17700002 .020000004 .17800002 C .018000003 .18200001 .014000002 .18200001 .011000004 .18200001 C 0 .18200001 0 .17700002 0 .15900001 L 0 .023000002 C 0 .0050000005 0 0 .010000002 0 C .015000001 0 .016000003 .0010000002 .033 .022 C .038000004 .029000003 .038000004 .031000004 .053000004 .047000003 C .091000009 0 .14500001 0 .162 0 C .26700003 0 .31900005 .058000003 .31900005 .13700001 C .31900005 .19100002 .286 .22300002 .277 .23200003 C .24100003 .263 .21400002 .269 .148 .28100003 C .11800001 .287 .045 .301 .045 .361 C .045 .39200003 .06600001 .43800003 .15600002 .43800003 C .26500003 .43800003 .27100004 .345 .27300004 .314 C .27400003 .306 .28100003 .306 .284 .306 C .29500003 .306 .29500003 .31100003 .29500003 .329 L .29500003 .433 Z "/>
</symbol>
<symbol id="font_1_13">
<path d="M .186 .66400006 C .179 .683 .17800002 .683 .15500002 .683 L 0 .683 L 0 .65400007 L .02 .65400007 C .09200001 .65400007 .09500001 .64400008 .09500001 .60700008 L .09500001 .10300001 C .09500001 .076000008 .09500001 .029000001 0 .029000001 L 0 0 C .025999997 .002 .078999999 .002 .10700001 .002 C .135 .002 .18800001 .002 .21400002 0 L .21400002 .029000001 C .119 .029000001 .119 .076000008 .119 .10300001 L .119 .64900007 L .120000008 .64900007 L .36100004 .019000002 C .365 .008 .36800004 0 .37800003 0 C .38700003 0 .38900004 .0050000005 .395 .020000002 L .638 .65400007 L .639 .65400007 L .639 .076000008 C .639 .039 .636 .029000001 .564 .029000001 L .54399999 .029000001 L .54399999 0 C .567 .002 .647 .002 .676 .002 C .705 .002 .785 .002 .808 0 L .808 .029000001 L .788 .029000001 C .716 .029000001 .713 .039 .713 .076000008 L .713 .60700008 C .713 .64400008 .716 .65400007 .788 .65400007 L .808 .65400007 L .808 .683 L .653 .683 C .631 .683 .63 .68200007 .622 .66300007 L .404 .094000007 L .186 .66400006 Z "/>
</symbol>
<symbol id="font_1_2">
<path d="M .41300003 .24300002 C .41300003 .33600004 .41300003 .36400003 .39000003 .39600004 C .361 .43500004 .314 .441 .28 .441 C .183 .441 .145 .358 .13700001 .33800004 L .136 .33800004 L .136 .441 L 0 .43 L 0 .40100003 C .068 .40100003 .076000008 .39400003 .076000008 .34500004 L .076000008 .074 C .076000008 .029000001 .065 .029000001 0 .029000001 L 0 0 C .026 .002 .08 .002 .107999999 .002 C .13700001 .002 .191 .002 .21700001 0 L .21700001 .029000001 C .153 .029000001 .141 .029000001 .141 .074 L .141 .26000003 C .141 .365 .21000001 .42100004 .272 .42100004 C .33400003 .42100004 .34800003 .37 .34800003 .30900003 L .34800003 .074 C .34800003 .029000001 .337 .029000001 .272 .029000001 L .272 0 C .298 .002 .352 .002 .38000003 .002 C .409 .002 .46300004 .002 .48900003 0 L .48900003 .029000001 C .439 .029000001 .414 .029000001 .41300003 .059000005 L .41300003 .24300002 Z "/>
</symbol>
<symbol id="font_1_12">
<path d="M .32700003 .38 C .31500004 .38 .27800004 .38 .27800004 .33900003 C .27800004 .315 .29500003 .298 .319 .298 C .342 .298 .36100004 .312 .36100004 .34100003 C .36100004 .40800003 .291 .456 .21000001 .456 C .09300001 .456 0 .352 0 .22600001 C 0 .098000008 .096000019 0 .20900002 0 C .34100003 0 .37100003 .120000008 .37100003 .12900001 C .37100003 .13800001 .36400003 .13800001 .36100004 .13800001 C .35200004 .13800001 .351 .135 .34800003 .123 C .32600004 .052000006 .272 .022 .21800003 .022 C .157 .022 .076000008 .075 .076000008 .22700002 C .076000008 .393 .16100002 .43400003 .21100001 .43400003 C .24900002 .43400003 .30400003 .419 .32700003 .38 Z "/>
</symbol>
<symbol id="font_1_19">
<path d="M .41300003 .24300002 C .41300003 .33600004 .41300003 .36400003 .39000003 .39600004 C .361 .43500004 .314 .441 .28 .441 C .194 .441 .154 .37600003 .14 .34500004 L .139 .34500004 L .139 .694 L 0 .683 L 0 .65400007 C .068 .65400007 .076000008 .647 .076000008 .59800007 L .076000008 .074 C .076000008 .029000001 .065 .029000001 0 .029000001 L 0 0 C .026 .002 .08 .002 .107999999 .002 C .13700001 .002 .191 .002 .21700001 0 L .21700001 .029000001 C .153 .029000001 .141 .029000001 .141 .074 L .141 .26000003 C .141 .365 .21000001 .42100004 .272 .42100004 C .33400003 .42100004 .34800003 .37 .34800003 .30900003 L .34800003 .074 C .34800003 .029000001 .337 .029000001 .272 .029000001 L .272 0 C .298 .002 .352 .002 .38000003 .002 C .409 .002 .46300004 .002 .48900003 0 L .48900003 .029000001 C .439 .029000001 .414 .029000001 .41300003 .059000005 L .41300003 .24300002 Z "/>
</symbol>
<symbol id="font_1_18">
<path d="M .092 .38600005 C .13900002 .35500003 .17900002 .35500003 .19000001 .35500003 C .28 .35500003 .347 .42300005 .347 .5 C .347 .52700009 .33900003 .56500008 .307 .597 C .34600003 .637 .393 .637 .398 .637 C .402 .637 .407 .637 .411 .635 C .40100003 .63100007 .396 .62100008 .396 .61 C .396 .5960001 .40600003 .584 .42200003 .584 C .43 .584 .448 .589 .448 .61100009 C .448 .62900009 .43400003 .65700009 .39900003 .65700009 C .347 .65700009 .308 .625 .294 .61 C .264 .633 .22900002 .646 .19100002 .646 C .101 .646 .034 .57800009 .034 .50100007 C .034 .444 .069 .407 .079 .398 C .067 .38300003 .049000004 .35400004 .049000004 .31500004 C .049000004 .25700004 .08400001 .23200001 .092 .22700002 C .046000005 .21400002 0 .17800002 0 .12600002 C 0 .05700001 .094000007 0 .21700002 0 C .336 0 .435 .053000004 .435 .128 C .435 .15300001 .428 .21200001 .368 .24300002 C .317 .26900003 .267 .26900003 .18100001 .26900003 C .12 .26900003 .113 .26900003 .095000009 .28800003 C .085 .298 .076000008 .31700004 .076000008 .338 C .076000008 .35500003 .082 .37200005 .092 .38600005 M .19100002 .37600003 C .10300001 .37600003 .10300001 .47700004 .10300001 .5 C .10300001 .518 .10300001 .559 .12 .586 C .13900002 .615 .16900002 .625 .19000001 .625 C .278 .625 .278 .52400007 .278 .50100007 C .278 .48300005 .278 .44200004 .261 .41500003 C .24200003 .38600005 .21200001 .37600003 .19100002 .37600003 M .21800001 .020999998 C .122 .020999998 .049000004 .07000001 .049000004 .127 C .049000004 .13500002 .051 .17400001 .089 .20000002 C .11100001 .21400002 .12 .21400002 .19000001 .21400002 C .273 .21400002 .386 .21400002 .386 .127 C .386 .068 .31 .020999998 .21800001 .020999998 Z "/>
</symbol>
<symbol id="font_1_10">
<path d="M .13900002 .704 L 0 .693 L 0 .66400006 C .068 .66400006 .076000008 .657 .076000008 .60800006 L .076000008 .010000001 L .098000008 .010000001 C .10200001 .018000002 .13000001 .068 .134 .075 C .157 .038000004 .20000002 0 .26400004 0 C .379 0 .48000003 .097 .48000003 .22600001 C .48000003 .35300002 .38600005 .451 .275 .451 C .22000002 .451 .17300001 .426 .13900002 .384 L .13900002 .704 M .14100002 .33 C .14100002 .34800003 .14100002 .35 .15200001 .366 C .17600002 .402 .22000002 .43100003 .26900003 .43100003 C .29900003 .43100003 .404 .419 .404 .22700002 C .404 .16000001 .39400003 .118 .37000004 .082 C .35000003 .051000004 .31000004 .020000002 .26000003 .020000002 C .20600002 .020000002 .17100002 .055000005 .15400002 .082 C .14100002 .103 .14100002 .107 .14100002 .124000009 L .14100002 .33 Z "/>
</symbol>
<symbol id="font_1_1f">
<path d="M .108 .18900001 C .108 .25100003 .087000008 .29000003 .048 .29000003 C .019000002 .29000003 0 .268 0 .24200002 C 0 .215 .019000002 .193 .049000004 .193 C .064 .193 .074999999 .2 .08100001 .205 C .084 .208 .085 .208 .086 .208 C .08800001 .208 .08800001 .194 .08800001 .18900001 C .08800001 .125 .062 .065 .018 .018999994 C .013999999 .016000003 .012999997 .013999999 .012999997 .00999999 C .012999997 .004999995 .018 0 .023000002 0 C .031999999 0 .108 .074 .108 .18900001 Z "/>
</symbol>
<symbol id="font_1_14">
<path d="M .354 .40300004 C .363 .41400004 .363 .416 .363 .42000003 C .363 .43100003 .356 .43100003 .33900003 .43100003 L .025 .43100003 L .014 .272 L .036 .272 C .042000005 .374 .061000006 .411 .17000002 .411 L .286 .411 L 0 .018000002 C 0 0 .0020000004 0 .024000003 0 L .35 0 L .366 .18400002 L .344 .18400002 C .335 .07 .31800003 .022000002 .19900002 .022000002 L .078 .022000002 L .354 .40300004 Z "/>
</symbol>
<use xlink:href="#font_1_1b" transform="matrix(33.20889,0,0,-33.20889,4.1261799,125.225467)"/>
<use xlink:href="#font_1_16" transform="matrix(33.20889,0,0,-33.20889,21.329216,124.86017)"/>
<use xlink:href="#font_1_1a" transform="matrix(33.20889,0,0,-33.20889,35.762216,124.528079)"/>
<use xlink:href="#font_1_a" transform="matrix(33.20889,0,0,-33.20889,44.263689,124.86017)"/>
<use xlink:href="#font_1_16" transform="matrix(33.20889,0,0,-33.20889,68.99518,124.86017)"/>
<use xlink:href="#font_1_9" transform="matrix(33.20889,0,0,-33.20889,83.42818,124.86017)"/>
<use xlink:href="#font_1_13" transform="matrix(33.20889,0,0,-33.20889,108.12665,124.528079)"/>
<use xlink:href="#font_1_16" transform="matrix(33.20889,0,0,-33.20889,137.32848,124.86017)"/>
<use xlink:href="#font_1_2" transform="matrix(33.20889,0,0,-33.20889,151.72824,124.528079)"/>
<use xlink:href="#font_1_9" transform="matrix(33.20889,0,0,-33.20889,169.76149,124.86017)"/>
<use xlink:href="#font_1_12" transform="matrix(33.20889,0,0,-33.20889,182.49462,124.86017)"/>
<use xlink:href="#font_1_19" transform="matrix(33.20889,0,0,-33.20889,195.72859,124.528079)"/>
<use xlink:href="#font_1_16" transform="matrix(33.20889,0,0,-33.20889,213.66222,124.86017)"/>
<use xlink:href="#font_1_2" transform="matrix(33.20889,0,0,-33.20889,228.062,124.528079)"/>
<use xlink:href="#font_1_18" transform="matrix(33.20889,0,0,-33.20889,257.8956,131.33589)"/>
<use xlink:href="#font_1_1a" transform="matrix(33.20889,0,0,-33.20889,274.42823,124.528079)"/>
<use xlink:href="#font_1_10" transform="matrix(33.20889,0,0,-33.20889,283.26179,124.86017)"/>
<use xlink:href="#font_1_a" transform="matrix(33.20889,0,0,-33.20889,300.92976,124.86017)"/>
<use xlink:href="#font_1_1f" transform="matrix(33.20889,0,0,-33.20889,315.88786,130.9374)"/>
<use xlink:href="#font_1_14" transform="matrix(33.20889,0,0,-33.20889,334.56166,124.528079)"/>
<symbol id="font_2_1">
<path d="M .062000004 .37800003 C .08600001 .416 .13000001 .43600003 .17400001 .43600003 C .23100002 .43600003 .277 .37800003 .277 .323 L .277 .269 C .17600002 .269 0 .24100001 0 .104 L 0 .094000007 C .009 .026 .09200001 0 .15100001 0 C .20300001 0 .268 .032 .283 .087000008 L .284 .087000008 C .287 .040000004 .321 .0060000007 .361 .0060000007 C .403 .0060000007 .43600003 .042000005 .44 .083000008 L .44 .15600002 L .418 .15600002 L .418 .107 C .418 .078 .41300003 .035 .38 .035 C .34800003 .035 .341 .078 .341 .103 C .341 .114 .342 .125 .342 .136 L .342 .275 C .342 .286 .343 .298 .343 .30900003 C .343 .403 .256 .456 .17400001 .456 C .110000018 .456 .029000003 .418 .029000003 .34 C .029000003 .31100003 .048000006 .29500003 .072 .29500003 C .096000019 .29500003 .113000009 .314 .113000009 .337 C .113000009 .36200003 .09400001 .37800003 .07000001 .37800003 L .062000004 .37800003 M .277 .25100003 L .277 .15600002 C .277 .085 .23200001 .021000002 .16100002 .021000002 C .12300001 .021000002 .072 .051000004 .072 .102000009 C .072 .19000001 .15200001 .23500002 .23500003 .24700003 C .24900003 .24900002 .263 .24800001 .277 .25100003 M .09900001 .661 C .074 .657 .058000003 .637 .058000003 .614 C .058000003 .591 .075 .565 .104 .565 C .13100001 .565 .15500002 .58500006 .15500002 .61300006 C .15500002 .63600006 .13700001 .662 .10800001 .662 C .105000007 .662 .10200001 .661 .09900001 .661 M .289 .661 C .266 .658 .24700003 .638 .24700003 .614 C .24700003 .591 .26500003 .565 .294 .565 C .322 .565 .344 .586 .344 .61300006 C .344 .637 .326 .662 .297 .662 C .294 .662 .292 .661 .289 .661 Z "/>
</symbol>
<use xlink:href="#font_2_1" transform="matrix(33.20889,0,0,-33.20889,349.42756,124.86017)"/>
<symbol id="font_1_1d">
<path d="M .139 .694 L 0 .683 L 0 .65400007 C .068 .65400007 .076000008 .647 .076000008 .59800007 L .076000008 .074 C .076000008 .029000001 .065000008 .029000001 0 .029000001 L 0 0 C .028000005 .002 .07700001 .002 .107 .002 C .137 .002 .187 .002 .215 0 L .215 .029000001 C .15100003 .029000001 .139 .029000001 .139 .074 L .139 .694 Z "/>
</symbol>
<symbol id="font_1_21">
<path d="M .09700001 .049000004 C .09700001 .076000008 .07400001 .097 .049000004 .097 C .020000004 .097 0 .074 0 .049000004 C 0 .019000002 .024999999 0 .048 0 C .074999999 0 .09700001 .021000002 .09700001 .049000004 Z "/>
</symbol>
<symbol id="font_1_1">
<path d="M .35600005 .69600006 C .35200004 .708 .35000003 .71400007 .33600004 .71400007 C .32200004 .71400007 .32000003 .711 .31500004 .69500008 L .106000009 .097 C .092 .056 .064 .030000002 0 .029000001 L 0 0 C .061000006 .002 .063 .002 .096 .002 C .124 .002 .172 .002 .19800002 0 L .19800002 .029000001 C .156 .030000002 .131 .051000004 .131 .079 C .131 .085 .131 .087000008 .136 .1 L .18200001 .23300001 L .43400005 .23300001 L .48900006 .076000008 C .49400006 .064 .49400006 .062000004 .49400006 .059000005 C .49400006 .029000001 .44300006 .029000001 .41800005 .029000001 L .41800005 0 C .44100005 .002 .52 .002 .54800006 .002 C .57600006 .002 .648 .002 .671 0 L .671 .029000001 C .606 .029000001 .588 .029000001 .574 .07 L .35600005 .69600006 M .30800004 .595 L .42400003 .26200003 L .192 .26200003 L .30800004 .595 Z "/>
</symbol>
<symbol id="font_1_8">
<path d="M .13900002 .23300001 C .13900002 .33 .17900002 .42100004 .256 .42100004 C .26400004 .42100004 .266 .42100004 .27 .42000003 C .26200003 .416 .24600002 .41000004 .24600002 .38300003 C .24600002 .354 .26900003 .34300003 .28500004 .34300003 C .305 .34300003 .32500003 .356 .32500003 .38300003 C .32500003 .41300003 .298 .441 .25500003 .441 C .17000002 .441 .14100002 .349 .135 .33 L .134 .33 L .134 .441 L 0 .43 L 0 .40100003 C .068 .40100003 .076000008 .39400003 .076000008 .34500004 L .076000008 .074 C .076000008 .029000001 .065 .029000001 0 .029000001 L 0 0 C .028 .002 .083000008 .002 .113000009 .002 C .14000002 .002 .21100001 .002 .23400003 0 L .23400003 .029000001 L .21400002 .029000001 C .14100002 .029000001 .13900002 .040000004 .13900002 .076000008 L .13900002 .23300001 Z "/>
</symbol>
<symbol id="font_1_b">
<path d="M .556 .60700008 C .556 .64400008 .559 .65400007 .63100007 .65400007 L .651 .65400007 L .651 .683 C .62700006 .68100008 .545 .68100008 .51600006 .68100008 C .486 .68100008 .404 .68100008 .38000003 .683 L .38000003 .65400007 L .4 .65400007 C .472 .65400007 .47500003 .64400008 .47500003 .60700008 L .47500003 .37 L .176 .37 L .176 .60700008 C .176 .64400008 .17900002 .65400007 .25100003 .65400007 L .271 .65400007 L .271 .683 C .24700001 .68100008 .16500002 .68100008 .136 .68100008 C .106 .68100008 .024000004 .68100008 0 .683 L 0 .65400007 L .020000004 .65400007 C .092 .65400007 .095000009 .64400008 .095000009 .60700008 L .095000009 .076000008 C .095000009 .039 .092 .029000001 .020000004 .029000001 L 0 .029000001 L 0 0 C .024000004 .002 .106 .002 .13500002 .002 C .16500002 .002 .24700001 .002 .271 0 L .271 .029000001 L .25100003 .029000001 C .17900002 .029000001 .176 .039 .176 .076000008 L .176 .34100003 L .47500003 .34100003 L .47500003 .076000008 C .47500003 .039 .472 .029000001 .4 .029000001 L .38000003 .029000001 L .38000003 0 C .404 .002 .486 .002 .51500007 .002 C .545 .002 .62700006 .002 .651 0 L .651 .029000001 L .63100007 .029000001 C .559 .029000001 .556 .039 .556 .076000008 L .556 .60700008 Z "/>
</symbol>
<symbol id="font_1_3">
<path d="M .42900003 .22400002 C .42900003 .35300002 .33100004 .456 .215 .456 C .095 .456 0 .35 0 .22400002 C 0 .096 .10000001 0 .21400002 0 C .33200003 0 .42900003 .098000008 .42900003 .22400002 M .215 .022 C .178 .022 .133 .038000004 .104 .087000008 C .07700001 .13200002 .076000008 .19100002 .076000008 .23300001 C .076000008 .271 .076000008 .33200003 .10700001 .377 C .135 .42000003 .179 .43600003 .21400002 .43600003 C .25300003 .43600003 .29500003 .418 .32200004 .379 C .35300002 .333 .35300002 .27 .35300002 .23300001 C .35300002 .19800002 .35300002 .136 .32700003 .089 C .29900003 .041 .25300003 .022 .215 .022 Z "/>
</symbol>
<symbol id="font_1_1c">
<path d="M .252 .26500003 C .252 .266 .245 .27400003 .245 .275 C .245 .27800004 .30800004 .33200003 .316 .34 C .38500003 .4 .42900003 .40100003 .45000003 .402 L .45000003 .43100003 C .43000005 .42900003 .404 .42900003 .374 .42900003 C .34800003 .42900003 .29700003 .42900003 .27400003 .43100003 L .27400003 .402 C .291 .40100003 .30300004 .39200003 .30300004 .37600003 C .30300004 .356 .28300003 .33800004 .282 .33800004 L .13900002 .21200001 L .13900002 .694 L 0 .683 L 0 .65400007 C .068 .65400007 .076000008 .647 .076000008 .59800007 L .076000008 .074 C .076000008 .029000001 .065 .029000001 0 .029000001 L 0 0 C .028 .002 .076000008 .002 .106000009 .002 C .136 .002 .18400002 .002 .21200001 0 L .21200001 .029000001 C .14800002 .029000001 .136 .029000001 .136 .074 L .136 .18 L .20000002 .23600002 L .296 .098000008 C .31100003 .07700001 .31800003 .066 .31800003 .052 C .31800003 .034 .30400003 .029000001 .28300003 .029000001 L .28300003 0 C .30800004 .002 .35700003 .002 .38400004 .002 C .42700003 .002 .42900003 .002 .472 0 L .472 .029000001 C .44500003 .029000001 .41400004 .029000001 .38600005 .07 L .252 .26500003 Z "/>
</symbol>
<symbol id="font_1_c">
<path d="M .272 .44 L .272 .411 C .34 .411 .34800003 .404 .34800003 .35500003 L .34800003 .17600002 C .34800003 .091 .303 .020000002 .22800002 .020000002 C .146 .020000002 .141 .067 .141 .120000008 L .141 .451 L 0 .44 L 0 .411 C .076000008 .411 .076000008 .40800003 .076000008 .319 L .076000008 .16900002 C .076000008 .107 .076000008 .071 .106000009 .038000004 C .13 .012000001 .171 0 .222 0 C .23900002 0 .271 0 .305 .029000003 C .33400003 .052000006 .35000003 .09 .35000003 .09 L .35000003 0 L .48900003 .010000001 L .48900003 .039 C .421 .039 .41300003 .046000005 .41300003 .095 L .41300003 .451 L .272 .44 Z "/>
</symbol>
<symbol id="font_1_d">
<path d="M .39000003 .34600003 C .39900003 .368 .416 .411 .48000003 .412 L .48000003 .441 C .451 .439 .437 .439 .40600003 .439 C .38500003 .439 .37 .439 .324 .441 L .324 .412 C .366 .41 .37100003 .38 .37100003 .36900003 C .37100003 .36 .36900003 .35500003 .36400003 .343 L .262 .085 L .15 .367 C .145 .381 .144 .381 .144 .386 C .144 .412 .182 .412 .2 .412 L .2 .441 C .175 .439 .123 .439 .09600001 .439 C .063 .439 .061000006 .439 0 .441 L 0 .412 C .056 .412 .06600001 .40800003 .078 .377 L .221 .019000002 C .22600001 .0050000005 .228 0 .24000001 0 C .24700001 0 .25300003 .0020000004 .26000003 .019000002 L .39000003 .34600003 Z "/>
</symbol>
<symbol id="font_1_15">
<path d="M .26500003 .693 L .26500003 .66400006 C .33300004 .66400006 .34100003 .657 .34100003 .60800006 L .34100003 .387 C .32000003 .416 .277 .451 .21600002 .451 C .10000001 .451 0 .35300002 0 .22500001 C 0 .098000008 .09500001 0 .20500002 0 C .28100003 0 .32500003 .050000006 .33900003 .069000009 L .33900003 0 L .48000006 .010000001 L .48000006 .039 C .41200004 .039 .404 .046000005 .404 .095 L .404 .704 L .26500003 .693 M .33900003 .127 C .33900003 .109000008 .33900003 .106 .32500003 .084 C .30100004 .049000004 .26000003 .020000002 .21000001 .020000002 C .18400002 .020000002 .076000008 .030000002 .076000008 .22400002 C .076000008 .296 .088 .336 .110000018 .36900003 C .13000001 .4 .17000002 .43100003 .22000003 .43100003 C .282 .43100003 .31700004 .386 .32700003 .37 C .33900003 .35300002 .33900003 .351 .33900003 .333 L .33900003 .127 Z "/>
</symbol>
<symbol id="font_1_5">
<path d="M .48100005 .648 C .48900006 .661 .48900006 .66200008 .48900006 .669 C .48900006 .683 .48400007 .683 .46500007 .683 L .025000003 .683 L .014000002 .46 L .036000004 .46 C .043 .573 .074 .65400007 .23600002 .65400007 L .39600004 .65400007 L 0 .024 C 0 .001 .001000002 0 .024 0 L .47800002 0 L .49400006 .264 L .47200004 .264 C .46500007 .123 .44400005 .031000002 .26200003 .031000002 L .092999998 .031000002 L .48100005 .648 Z "/>
</symbol>
<symbol id="font_1_f">
<path d="M .342 .277 C .342 .331 .342 .37100003 .298 .41 C .263 .442 .21800003 .456 .17400001 .456 C .09200001 .456 .029000003 .402 .029000003 .337 C .029000003 .308 .048000006 .294 .070999998 .294 C .09500001 .294 .112 .31100003 .112 .335 C .112 .37600003 .076000008 .37600003 .061 .37600003 C .08400001 .418 .13200002 .43600003 .172 .43600003 C .21800003 .43600003 .277 .398 .277 .308 L .277 .268 C .076000008 .26500003 0 .18100001 0 .104 C 0 .025000003 .09200001 0 .15300001 0 C .21900001 0 .26400004 .040000004 .28300003 .088 C .28700004 .041 .31800003 .0050000005 .36100004 .0050000005 C .38200004 .0050000005 .44000004 .019000002 .44000004 .099 L .44000004 .15500002 L .418 .15500002 L .418 .099 C .418 .042000005 .39400003 .034 .38000003 .034 C .342 .034 .342 .087000008 .342 .102000009 L .342 .277 M .277 .15100001 C .277 .053000004 .20400001 .020000002 .16100002 .020000002 C .112 .020000002 .070999998 .056000007 .070999998 .104 C .070999998 .23600002 .24100003 .24800001 .277 .25 L .277 .15100001 Z "/>
</symbol>
<symbol id="font_1_17">
<path d="M .141 .402 L .25400005 .402 L .25400005 .43100003 L .139 .43100003 L .139 .54800006 C .139 .638 .185 .684 .226 .684 C .23400001 .684 .249 .68200007 .26100005 .67600008 C .25700004 .675 .23200001 .666 .23200001 .637 C .23200001 .614 .24800001 .59800007 .27100004 .59800007 C .29500003 .59800007 .31100003 .614 .31100003 .638 C .31100003 .675 .27500005 .70400008 .22700002 .70400008 C .157 .70400008 .078 .65000006 .078 .54800006 L .078 .43100003 L 0 .43100003 L 0 .402 L .078 .402 L .078 .074 C .078 .029000001 .067 .029000001 .0019999985 .029000001 L .0019999985 0 C .030000003 .002 .085 .002 .11500001 .002 C .142 .002 .21300002 .002 .23600002 0 L .23600002 .029000001 L .216 .029000001 C .143 .029000001 .141 .040000004 .141 .076000008 L .141 .402 Z "/>
</symbol>
<symbol id="font_1_11">
<path d="M .38700003 .53800007 C .414 .605 .46100004 .606 .48000003 .606 L .48000003 .63500007 C .451 .633 .437 .633 .405 .633 C .382 .633 .38000003 .633 .324 .63500007 L .324 .606 C .361 .60400006 .37 .58100005 .37 .563 C .37 .554 .368 .549 .36400003 .53900006 L .262 .287 L .15100001 .559 C .145 .573 .145 .57900008 .145 .58000007 C .145 .606 .18 .606 .2 .606 L .2 .63500007 C .174 .633 .125 .633 .097 .633 C .059000009 .633 .057000005 .633 0 .63500007 L 0 .606 C .058000007 .606 .06600001 .601 .079 .57000008 L .228 .20400001 C .184 .098000008 .184 .09600001 .18 .08800001 C .163 .058 .136 .019999996 .091000009 .019999996 C .060000004 .019999996 .041 .038000004 .041 .038000004 C .041 .038000004 .076000008 .04200001 .076000008 .07700001 C .076000008 .101 .057000005 .11400001 .039000006 .11400001 C .022000002 .11400001 .0010000002 .10400001 .0010000002 .075 C .0010000002 .037 .038000004 0 .091000009 0 C .147 0 .18800001 .04900001 .214 .112 L .38700003 .53800007 Z "/>
</symbol>
<symbol id="font_1_1e">
<path d="M .685 .24300002 C .685 .33600004 .685 .36400003 .662 .39600004 C .633 .43500004 .586 .441 .55200007 .441 C .46900005 .441 .42700003 .381 .411 .342 C .397 .41900004 .34300003 .441 .28 .441 C .183 .441 .145 .358 .13700001 .33800004 L .136 .33800004 L .136 .441 L 0 .43 L 0 .40100003 C .068 .40100003 .076000008 .39400003 .076000008 .34500004 L .076000008 .074 C .076000008 .029000001 .065 .029000001 0 .029000001 L 0 0 C .026 .002 .08 .002 .107999999 .002 C .13700001 .002 .191 .002 .21700001 0 L .21700001 .029000001 C .153 .029000001 .141 .029000001 .141 .074 L .141 .26000003 C .141 .365 .21000001 .42100004 .272 .42100004 C .33400003 .42100004 .34800003 .37 .34800003 .30900003 L .34800003 .074 C .34800003 .029000001 .337 .029000001 .272 .029000001 L .272 0 C .298 .002 .352 .002 .38000003 .002 C .409 .002 .46300004 .002 .48900003 0 L .48900003 .029000001 C .425 .029000001 .41300003 .029000001 .41300003 .074 L .41300003 .26000003 C .41300003 .365 .482 .42100004 .544 .42100004 C .606 .42100004 .62 .37 .62 .30900003 L .62 .074 C .62 .029000001 .609 .029000001 .544 .029000001 L .544 0 C .57000008 .002 .624 .002 .652 .002 C .68100008 .002 .735 .002 .76100006 0 L .76100006 .029000001 C .711 .029000001 .68600007 .029000001 .685 .059000005 L .685 .24300002 Z "/>
</symbol>
<symbol id="font_1_7">
<path d="M .597 .256 L .57500007 .256 C .551 .1 .527 .029000001 .358 .029000001 L .222 .029000001 C .178 .029000001 .176 .036000004 .176 .069000009 L .176 .33900003 L .26700003 .33900003 C .363 .33900003 .374 .30800004 .374 .22200002 L .396 .22200002 L .396 .485 L .374 .485 C .374 .39900003 .363 .36800004 .26700003 .36800004 L .176 .36800004 L .176 .61200007 C .176 .64500007 .178 .652 .222 .652 L .35500003 .652 C .50200006 .652 .533 .60200008 .54800006 .45800004 L .57 .45800004 L .544 .68100008 L 0 .68100008 L 0 .652 L .020000004 .652 C .092 .652 .095000009 .642 .095000009 .605 L .095000009 .076000008 C .095000009 .039 .092 .029000001 .020000004 .029000001 L 0 .029000001 L 0 0 L .55700007 0 L .597 .256 Z "/>
</symbol>
<symbol id="font_1_e">
<path d="M .587 .34600003 C .609 .409 .653 .411 .67 .412 L .67 .441 C .64500007 .439 .62700006 .439 .596 .439 C .56700006 .439 .565 .439 .51100006 .441 L .51100006 .412 C .556 .41 .568 .38300003 .568 .364 C .568 .363 .568 .356 .564 .34600003 L .472 .084 L .372 .367 C .367 .379 .367 .381 .367 .384 C .367 .412 .404 .412 .425 .412 L .425 .441 C .397 .439 .356 .439 .32700003 .439 C .29500003 .439 .293 .439 .23700002 .441 L .23700002 .412 C .275 .412 .28800003 .41 .299 .397 C .30400003 .391 .316 .358 .323 .338 L .238 .094000007 L .142 .366 C .137 .379 .137 .381 .137 .38500003 C .137 .412 .176 .412 .19500001 .412 L .19500001 .441 C .17 .439 .12000001 .439 .09300001 .439 C .065000008 .439 .063 .439 0 .441 L 0 .412 C .051000008 .412 .061000006 .40800003 .072000008 .37600003 L .198 .018000002 C .202 .0070000009 .205 0 .216 0 C .22500001 0 .23 .0030000006 .23500002 .019000002 L .335 .304 L .435 .019000002 C .44000004 .0030000006 .44500003 0 .45400004 0 C .465 0 .46800003 .0070000009 .472 .018000002 L .587 .34600003 Z "/>
</symbol>
<symbol id="font_1_20">
<path d="M .26000003 0 L .26000003 .054000006 L 0 .054000006 L 0 0 L .26000003 0 Z "/>
</symbol>
<use xlink:href="#font_1_19" transform="matrix(33.20889,0,0,-33.20889,365.3958,124.528079)"/>
<use xlink:href="#font_1_1d" transform="matrix(33.20889,0,0,-33.20889,383.42909,124.528079)"/>
<use xlink:href="#font_1_16" transform="matrix(33.20889,0,0,-33.20889,392.32908,124.86017)"/>
<use xlink:href="#font_1_2" transform="matrix(33.20889,0,0,-33.20889,406.72886,124.528079)"/>
<use xlink:href="#font_1_9" transform="matrix(33.20889,0,0,-33.20889,436.42927,124.86017)"/>
<use xlink:href="#font_1_1a" transform="matrix(33.20889,0,0,-33.20889,449.09593,124.528079)"/>
<use xlink:href="#font_1_16" transform="matrix(33.20889,0,0,-33.20889,457.99589,124.86017)"/>
<use xlink:href="#font_1_21" transform="matrix(33.20889,0,0,-33.20889,474.22218,124.528079)"/>
<use xlink:href="#font_1_1" transform="matrix(33.20889,0,0,-33.20889,497.69569,124.528079)"/>
<use xlink:href="#font_1_10" transform="matrix(33.20889,0,0,-33.20889,521.92947,124.86017)"/>
<use xlink:href="#font_1_16" transform="matrix(33.20889,0,0,-33.20889,540.9959,124.86017)"/>
<use xlink:href="#font_1_8" transform="matrix(33.20889,0,0,-33.20889,555.2629,124.528079)"/>
<use xlink:href="#font_1_16" transform="matrix(33.20889,0,0,-33.20889,3.3293777,160.85962)"/>
<use xlink:href="#font_1_8" transform="matrix(33.20889,0,0,-33.20889,17.596333,160.52753)"/>
<use xlink:href="#font_1_9" transform="matrix(33.20889,0,0,-33.20889,30.429078,160.85962)"/>
<use xlink:href="#font_1_a" transform="matrix(33.20889,0,0,-33.20889,42.597646,160.85962)"/>
<use xlink:href="#font_1_b" transform="matrix(33.20889,0,0,-33.20889,64.36149,160.52753)"/>
<use xlink:href="#font_1_3" transform="matrix(33.20889,0,0,-33.20889,88.32958,160.85962)"/>
<use xlink:href="#font_1_12" transform="matrix(33.20889,0,0,-33.20889,105.828998,160.85962)"/>
<use xlink:href="#font_1_19" transform="matrix(33.20889,0,0,-33.20889,119.062747,160.52753)"/>
<use xlink:href="#font_1_1c" transform="matrix(33.20889,0,0,-33.20889,136.92995,160.52753)"/>
<use xlink:href="#font_1_c" transform="matrix(33.20889,0,0,-33.20889,154.06284,160.85962)"/>
<use xlink:href="#font_1_1d" transform="matrix(33.20889,0,0,-33.20889,172.09609,160.52753)"/>
<use xlink:href="#font_1_a" transform="matrix(33.20889,0,0,-33.20889,180.59758,160.85962)"/>
<use xlink:href="#font_1_c" transform="matrix(33.20889,0,0,-33.20889,193.72922,160.85962)"/>
<use xlink:href="#font_1_8" transform="matrix(33.20889,0,0,-33.20889,211.59644,160.52753)"/>
<use xlink:href="#font_1_16" transform="matrix(33.20889,0,0,-33.20889,224.32955,160.85962)"/>
<use xlink:href="#font_1_2" transform="matrix(33.20889,0,0,-33.20889,238.72936,160.52753)"/>
<use xlink:href="#font_1_d" transform="matrix(33.20889,0,0,-33.20889,264.9314,160.85962)"/>
<use xlink:href="#font_1_3" transform="matrix(33.20889,0,0,-33.20889,281.3304,160.85962)"/>
<use xlink:href="#font_1_1d" transform="matrix(33.20889,0,0,-33.20889,297.76338,160.52753)"/>
<use xlink:href="#font_1_1d" transform="matrix(33.20889,0,0,-33.20889,306.763,160.52753)"/>
<use xlink:href="#font_1_14" transform="matrix(33.20889,0,0,-33.20889,315.56336,160.52753)"/>
<use xlink:href="#font_1_3" transform="matrix(33.20889,0,0,-33.20889,329.99638,160.85962)"/>
<use xlink:href="#font_1_18" transform="matrix(33.20889,0,0,-33.20889,346.23008,167.33535)"/>
<use xlink:href="#font_1_16" transform="matrix(33.20889,0,0,-33.20889,362.66307,160.85962)"/>
<use xlink:href="#font_1_2" transform="matrix(33.20889,0,0,-33.20889,377.06285,160.52753)"/>
<use xlink:href="#font_1_15" transform="matrix(33.20889,0,0,-33.20889,403.82884,160.85962)"/>
<use xlink:href="#font_1_16" transform="matrix(33.20889,0,0,-33.20889,421.66285,160.85962)"/>
<use xlink:href="#font_1_2" transform="matrix(33.20889,0,0,-33.20889,436.06266,160.52753)"/>
<use xlink:href="#font_1_1b" transform="matrix(33.20889,0,0,-33.20889,463.1266,161.22492)"/>
<use xlink:href="#font_1_12" transform="matrix(33.20889,0,0,-33.20889,480.49574,160.85962)"/>
<use xlink:href="#font_1_19" transform="matrix(33.20889,0,0,-33.20889,493.72969,160.52753)"/>
<use xlink:href="#font_1_8" transform="matrix(33.20889,0,0,-33.20889,511.5969,160.52753)"/>
<use xlink:href="#font_1_1a" transform="matrix(33.20889,0,0,-33.20889,524.4296,160.52753)"/>
<use xlink:href="#font_1_a" transform="matrix(33.20889,0,0,-33.20889,532.9311,160.85962)"/>
<use xlink:href="#font_1_a" transform="matrix(33.20889,0,0,-33.20889,545.5978,160.85962)"/>
<use xlink:href="#font_1_1f" transform="matrix(33.20889,0,0,-33.20889,560.55587,166.93685)"/>
<use xlink:href="#font_1_5" transform="matrix(33.20889,0,0,-33.20889,4.126391,196.52808)"/>
<use xlink:href="#font_1_f" transform="matrix(33.20889,0,0,-33.20889,23.794354,196.86017)"/>
<use xlink:href="#font_1_19" transform="matrix(33.20889,0,0,-33.20889,39.72922,196.52808)"/>
<use xlink:href="#font_1_1d" transform="matrix(33.20889,0,0,-33.20889,57.762479,196.52808)"/>
<use xlink:href="#font_1_16" transform="matrix(33.20889,0,0,-33.20889,66.66247,196.86017)"/>
<use xlink:href="#font_1_2" transform="matrix(33.20889,0,0,-33.20889,81.062259,196.52808)"/>
<use xlink:href="#font_1_f" transform="matrix(33.20889,0,0,-33.20889,111.12709,196.86017)"/>
<use xlink:href="#font_1_c" transform="matrix(33.20889,0,0,-33.20889,127.06195,196.86017)"/>
<use xlink:href="#font_1_12" transform="matrix(33.20889,0,0,-33.20889,145.16162,196.86017)"/>
<use xlink:href="#font_1_19" transform="matrix(33.20889,0,0,-33.20889,158.3958,196.52808)"/>
<use xlink:href="#font_1_9" transform="matrix(33.20889,0,0,-33.20889,188.09597,196.86017)"/>
<use xlink:href="#font_1_12" transform="matrix(33.20889,0,0,-33.20889,200.82907,196.86017)"/>
<use xlink:href="#font_1_19" transform="matrix(33.20889,0,0,-33.20889,214.06325,196.52808)"/>
<use xlink:href="#font_1_8" transform="matrix(33.20889,0,0,-33.20889,231.93047,196.52808)"/>
<use xlink:href="#font_1_1a" transform="matrix(33.20889,0,0,-33.20889,244.7632,196.52808)"/>
<use xlink:href="#font_1_17" transform="matrix(33.20889,0,0,-33.20889,253.69641,196.52808)"/>
<use xlink:href="#font_1_a" transform="matrix(33.20889,0,0,-33.20889,263.2647,196.86017)"/>
<use xlink:href="#font_1_1d" transform="matrix(33.20889,0,0,-33.20889,276.42958,196.52808)"/>
<use xlink:href="#font_1_1a" transform="matrix(33.20889,0,0,-33.20889,285.42918,196.52808)"/>
<use xlink:href="#font_1_12" transform="matrix(33.20889,0,0,-33.20889,294.4952,196.86017)"/>
<use xlink:href="#font_1_19" transform="matrix(33.20889,0,0,-33.20889,307.72877,196.52808)"/>
<use xlink:href="#font_1_17" transform="matrix(33.20889,0,0,-33.20889,337.69566,196.52808)"/>
<use xlink:href="#font_1_16" transform="matrix(33.20889,0,0,-33.20889,347.6625,196.86017)"/>
<use xlink:href="#font_1_9" transform="matrix(33.20889,0,0,-33.20889,362.09547,196.86017)"/>
<use xlink:href="#font_1_a" transform="matrix(33.20889,0,0,-33.20889,374.26399,196.86017)"/>
<use xlink:href="#font_1_14" transform="matrix(33.20889,0,0,-33.20889,387.22959,196.52808)"/>
<use xlink:href="#font_1_c" transform="matrix(33.20889,0,0,-33.20889,401.729,196.86017)"/>
<use xlink:href="#font_1_19" transform="matrix(33.20889,0,0,-33.20889,419.72904,196.52808)"/>
<use xlink:href="#font_1_f" transform="matrix(33.20889,0,0,-33.20889,438.12763,196.86017)"/>
<use xlink:href="#font_1_1d" transform="matrix(33.20889,0,0,-33.20889,454.09568,196.52808)"/>
<use xlink:href="#font_1_a" transform="matrix(33.20889,0,0,-33.20889,462.5971,196.86017)"/>
<use xlink:href="#font_1_16" transform="matrix(33.20889,0,0,-33.20889,475.66236,196.86017)"/>
<use xlink:href="#font_1_2" transform="matrix(33.20889,0,0,-33.20889,490.06214,196.52808)"/>
<use xlink:href="#font_1_21" transform="matrix(33.20889,0,0,-33.20889,509.88868,196.52808)"/>
<use xlink:href="#font_1_1b" transform="matrix(33.20889,0,0,-33.20889,534.4591,197.22547)"/>
<use xlink:href="#font_1_3" transform="matrix(33.20889,0,0,-33.20889,551.6622,196.86017)"/>
<use xlink:href="#font_1_16" transform="matrix(33.20889,0,0,-33.20889,3.3293777,232.86078)"/>
<use xlink:href="#font_1_2" transform="matrix(33.20889,0,0,-33.20889,17.729168,232.52869)"/>
<use xlink:href="#font_1_a" transform="matrix(33.20889,0,0,-33.20889,34.264509,232.86078)"/>
<use xlink:href="#font_1_9" transform="matrix(33.20889,0,0,-33.20889,47.429338,232.86078)"/>
<use xlink:href="#font_1_a" transform="matrix(33.20889,0,0,-33.20889,59.59791,232.86078)"/>
<use xlink:href="#font_1_f" transform="matrix(33.20889,0,0,-33.20889,73.12804,232.86078)"/>
<use xlink:href="#font_1_2" transform="matrix(33.20889,0,0,-33.20889,89.062908,232.52869)"/>
<use xlink:href="#font_1_15" transform="matrix(33.20889,0,0,-33.20889,107.16257,232.86078)"/>
<use xlink:href="#font_1_16" transform="matrix(33.20889,0,0,-33.20889,124.99659,232.86078)"/>
<use xlink:href="#font_1_2" transform="matrix(33.20889,0,0,-33.20889,139.39636,232.52869)"/>
<use xlink:href="#font_1_d" transform="matrix(33.20889,0,0,-33.20889,166.26465,232.86078)"/>
<use xlink:href="#font_1_16" transform="matrix(33.20889,0,0,-33.20889,182.66362,232.86078)"/>
<use xlink:href="#font_1_8" transform="matrix(33.20889,0,0,-33.20889,196.93059,232.52869)"/>
<use xlink:href="#font_1_9" transform="matrix(33.20889,0,0,-33.20889,209.76334,232.86078)"/>
<use xlink:href="#font_1_12" transform="matrix(33.20889,0,0,-33.20889,222.49645,232.86078)"/>
<use xlink:href="#font_1_19" transform="matrix(33.20889,0,0,-33.20889,235.73041,232.52869)"/>
<use xlink:href="#font_1_1a" transform="matrix(33.20889,0,0,-33.20889,253.76366,232.52869)"/>
<use xlink:href="#font_1_16" transform="matrix(33.20889,0,0,-33.20889,262.66368,232.86078)"/>
<use xlink:href="#font_1_15" transform="matrix(33.20889,0,0,-33.20889,277.1631,232.86078)"/>
<use xlink:href="#font_1_16" transform="matrix(33.20889,0,0,-33.20889,294.99708,232.86078)"/>
<use xlink:href="#font_1_2" transform="matrix(33.20889,0,0,-33.20889,309.39686,232.52869)"/>
<use xlink:href="#font_1_16" transform="matrix(33.20889,0,0,-33.20889,327.33055,232.86078)"/>
<use xlink:href="#font_1_5" transform="matrix(33.20889,0,0,-33.20889,352.46138,232.52869)"/>
<use xlink:href="#font_1_f" transform="matrix(33.20889,0,0,-33.20889,372.12934,232.86078)"/>
<use xlink:href="#font_1_19" transform="matrix(33.20889,0,0,-33.20889,388.06419,232.52869)"/>
<use xlink:href="#font_1_1d" transform="matrix(33.20889,0,0,-33.20889,406.09745,232.52869)"/>
<use xlink:href="#font_1_16" transform="matrix(33.20889,0,0,-33.20889,414.99745,232.86078)"/>
<use xlink:href="#font_1_2" transform="matrix(33.20889,0,0,-33.20889,429.39723,232.52869)"/>
<use xlink:href="#font_1_9" transform="matrix(33.20889,0,0,-33.20889,447.43046,232.86078)"/>
<use xlink:href="#font_1_11" transform="matrix(33.20889,0,0,-33.20889,459.59904,239.3033)"/>
<use xlink:href="#font_1_9" transform="matrix(33.20889,0,0,-33.20889,477.0972,232.86078)"/>
<use xlink:href="#font_1_a" transform="matrix(33.20889,0,0,-33.20889,489.26573,232.86078)"/>
<use xlink:href="#font_1_16" transform="matrix(33.20889,0,0,-33.20889,502.3309,232.86078)"/>
<use xlink:href="#font_1_1e" transform="matrix(33.20889,0,0,-33.20889,516.7307,232.52869)"/>
<use xlink:href="#font_1_16" transform="matrix(33.20889,0,0,-33.20889,543.66439,232.86078)"/>
<use xlink:href="#font_1_21" transform="matrix(33.20889,0,0,-33.20889,559.8906,232.52869)"/>
<use xlink:href="#font_1_7" transform="matrix(33.20889,0,0,-33.20889,3.6946755,290.52784)"/>
<use xlink:href="#font_1_2" transform="matrix(33.20889,0,0,-33.20889,25.395857,290.52784)"/>
<use xlink:href="#font_1_a" transform="matrix(33.20889,0,0,-33.20889,41.930543,290.85993)"/>
<use xlink:href="#font_1_15" transform="matrix(33.20889,0,0,-33.20889,55.161794,290.85993)"/>
<use xlink:href="#font_1_16" transform="matrix(33.20889,0,0,-33.20889,72.995807,290.85993)"/>
<use xlink:href="#font_1_12" transform="matrix(33.20889,0,0,-33.20889,87.49521,290.85993)"/>
<use xlink:href="#font_1_1c" transform="matrix(33.20889,0,0,-33.20889,100.59612,290.52784)"/>
<use xlink:href="#font_1_16" transform="matrix(33.20889,0,0,-33.20889,116.663028,290.85993)"/>
<use xlink:href="#font_1_2" transform="matrix(33.20889,0,0,-33.20889,131.06282,290.52784)"/>
<use xlink:href="#font_1_1b" transform="matrix(33.20889,0,0,-33.20889,159.79306,291.22523)"/>
<use xlink:href="#font_1_1a" transform="matrix(33.20889,0,0,-33.20889,177.09572,290.52784)"/>
<use xlink:href="#font_1_16" transform="matrix(33.20889,0,0,-33.20889,185.9957,290.85993)"/>
<use xlink:href="#font_1_1f" transform="matrix(33.20889,0,0,-33.20889,202.22199,296.93714)"/>
<use xlink:href="#font_1_e" transform="matrix(33.20889,0,0,-33.20889,218.26377,290.85993)"/>
<use xlink:href="#font_1_1a" transform="matrix(33.20889,0,0,-33.20889,242.09529,290.52784)"/>
<use xlink:href="#font_1_16" transform="matrix(33.20889,0,0,-33.20889,250.99527,290.85993)"/>
<use xlink:href="#font_1_9" transform="matrix(33.20889,0,0,-33.20889,274.76206,290.85993)"/>
<use xlink:href="#font_1_1a" transform="matrix(33.20889,0,0,-33.20889,287.42875,290.52784)"/>
<use xlink:href="#font_1_12" transform="matrix(33.20889,0,0,-33.20889,296.49479,290.85993)"/>
<use xlink:href="#font_1_19" transform="matrix(33.20889,0,0,-33.20889,309.72853,290.52784)"/>
<use xlink:href="#font_1_15" transform="matrix(33.20889,0,0,-33.20889,337.16114,290.85993)"/>
<use xlink:href="#font_1_1a" transform="matrix(33.20889,0,0,-33.20889,355.0948,290.52784)"/>
<use xlink:href="#font_1_16" transform="matrix(33.20889,0,0,-33.20889,363.9948,290.85993)"/>
<use xlink:href="#font_1_1b" transform="matrix(33.20889,0,0,-33.20889,388.125,291.22523)"/>
<use xlink:href="#font_1_11" transform="matrix(33.20889,0,0,-33.20889,404.92955,297.30247)"/>
<use xlink:href="#font_1_9" transform="matrix(33.20889,0,0,-33.20889,422.4277,290.85993)"/>
<use xlink:href="#font_1_a" transform="matrix(33.20889,0,0,-33.20889,434.59623,290.85993)"/>
<use xlink:href="#font_1_16" transform="matrix(33.20889,0,0,-33.20889,447.66145,290.85993)"/>
<use xlink:href="#font_1_1e" transform="matrix(33.20889,0,0,-33.20889,462.06126,290.52784)"/>
<use xlink:href="#font_1_16" transform="matrix(33.20889,0,0,-33.20889,488.99494,290.85993)"/>
<use xlink:href="#font_1_16" transform="matrix(33.20889,0,0,-33.20889,512.99459,290.85993)"/>
<use xlink:href="#font_1_2" transform="matrix(33.20889,0,0,-33.20889,527.39437,290.52784)"/>
<use xlink:href="#font_1_a" transform="matrix(33.20889,0,0,-33.20889,543.92977,290.85993)"/>
<use xlink:href="#font_1_20" transform="matrix(33.20889,0,0,-33.20889,556.36398,284.25135)"/>
<use xlink:href="#font_1_e" transform="matrix(33.20889,0,0,-33.20889,2.930871,326.8605)"/>
<use xlink:href="#font_1_1a" transform="matrix(33.20889,0,0,-33.20889,26.762404,326.5284)"/>
<use xlink:href="#font_1_12" transform="matrix(33.20889,0,0,-33.20889,35.82843,326.8605)"/>
<use xlink:href="#font_1_1c" transform="matrix(33.20889,0,0,-33.20889,48.928907,326.5284)"/>
<use xlink:href="#font_1_16" transform="matrix(33.20889,0,0,-33.20889,64.995807,326.8605)"/>
<use xlink:href="#font_1_1d" transform="matrix(33.20889,0,0,-33.20889,79.42881,326.5284)"/>
<use xlink:href="#font_1_a" transform="matrix(33.20889,0,0,-33.20889,87.93028,326.8605)"/>
<use xlink:href="#font_1_16" transform="matrix(33.20889,0,0,-33.20889,100.99549,326.8605)"/>
<use xlink:href="#font_1_2" transform="matrix(33.20889,0,0,-33.20889,115.39528,326.5284)"/>
<use xlink:href="#font_1_1f" transform="matrix(33.20889,0,0,-33.20889,135.22182,332.9377)"/>
<use xlink:href="#font_1_e" transform="matrix(33.20889,0,0,-33.20889,157.93007,326.8605)"/>
<use xlink:href="#font_1_16" transform="matrix(33.20889,0,0,-33.20889,180.66153,326.8605)"/>
<use xlink:href="#font_1_1d" transform="matrix(33.20889,0,0,-33.20889,195.09452,326.5284)"/>
<use xlink:href="#font_1_12" transform="matrix(33.20889,0,0,-33.20889,204.16056,326.8605)"/>
<use xlink:href="#font_1_19" transform="matrix(33.20889,0,0,-33.20889,217.39429,326.5284)"/>
<use xlink:href="#font_1_16" transform="matrix(33.20889,0,0,-33.20889,235.32791,326.8605)"/>
<use xlink:href="#font_1_1b" transform="matrix(33.20889,0,0,-33.20889,265.12483,327.2258)"/>
<use xlink:href="#font_1_11" transform="matrix(33.20889,0,0,-33.20889,281.92933,333.30305)"/>
<use xlink:href="#font_1_9" transform="matrix(33.20889,0,0,-33.20889,299.42753,326.8605)"/>
<use xlink:href="#font_1_a" transform="matrix(33.20889,0,0,-33.20889,311.59608,326.8605)"/>
<use xlink:href="#font_1_16" transform="matrix(33.20889,0,0,-33.20889,324.66127,326.8605)"/>
<use xlink:href="#font_1_1e" transform="matrix(33.20889,0,0,-33.20889,339.06105,326.5284)"/>
<use xlink:href="#font_1_16" transform="matrix(33.20889,0,0,-33.20889,365.99473,326.8605)"/>
<use xlink:href="#font_1_16" transform="matrix(33.20889,0,0,-33.20889,394.99436,326.8605)"/>
<use xlink:href="#font_1_9" transform="matrix(33.20889,0,0,-33.20889,409.42735,326.8605)"/>
<use xlink:href="#font_1_18" transform="matrix(33.20889,0,0,-33.20889,436.22834,333.33625)"/>
<use xlink:href="#font_1_1a" transform="matrix(33.20889,0,0,-33.20889,452.761,326.5284)"/>
<use xlink:href="#font_1_10" transform="matrix(33.20889,0,0,-33.20889,461.59455,326.8605)"/>
<use xlink:href="#font_1_a" transform="matrix(33.20889,0,0,-33.20889,479.2625,326.8605)"/>
<use xlink:href="#font_1_1f" transform="matrix(33.20889,0,0,-33.20889,494.2206,332.9377)"/>
<use xlink:href="#font_1_e" transform="matrix(33.20889,0,0,-33.20889,515.9289,326.8605)"/>
<use xlink:href="#font_1_f" transform="matrix(33.20889,0,0,-33.20889,539.1253,326.8605)"/>
<use xlink:href="#font_1_9" transform="matrix(33.20889,0,0,-33.20889,555.0934,326.8605)"/>
<use xlink:href="#font_1_1a" transform="matrix(33.20889,0,0,-33.20889,3.4290045,362.52897)"/>
<use xlink:href="#font_1_19" transform="matrix(33.20889,0,0,-33.20889,12.395405,362.52897)"/>
<use xlink:href="#font_1_8" transform="matrix(33.20889,0,0,-33.20889,30.262619,362.52897)"/>
<use xlink:href="#font_1_16" transform="matrix(33.20889,0,0,-33.20889,42.995737,362.86106)"/>
<use xlink:href="#font_1_1b" transform="matrix(33.20889,0,0,-33.20889,65.79281,363.22636)"/>
<use xlink:href="#font_1_a" transform="matrix(33.20889,0,0,-33.20889,82.597339,362.86106)"/>
<use xlink:href="#font_2_1" transform="matrix(33.20889,0,0,-33.20889,96.09387,362.86106)"/>
<use xlink:href="#font_1_8" transform="matrix(33.20889,0,0,-33.20889,111.92929,362.52897)"/>
<use xlink:href="#font_1_1c" transform="matrix(33.20889,0,0,-33.20889,124.59599,362.52897)"/>
<use xlink:href="#font_1_16" transform="matrix(33.20889,0,0,-33.20889,140.66223,362.86106)"/>
<use xlink:href="#font_1_2" transform="matrix(33.20889,0,0,-33.20889,155.06201,362.52897)"/>
<use xlink:href="#font_1_c" transform="matrix(33.20889,0,0,-33.20889,181.06188,362.86106)"/>
<use xlink:href="#font_1_2" transform="matrix(33.20889,0,0,-33.20889,199.06194,362.52897)"/>
<use xlink:href="#font_1_15" transform="matrix(33.20889,0,0,-33.20889,217.1616,362.86106)"/>
<use xlink:href="#font_1_1b" transform="matrix(33.20889,0,0,-33.20889,243.45934,363.22636)"/>
<use xlink:href="#font_1_12" transform="matrix(33.20889,0,0,-33.20889,260.82844,362.86106)"/>
<use xlink:href="#font_1_19" transform="matrix(33.20889,0,0,-33.20889,274.0624,362.52897)"/>
<use xlink:href="#font_1_e" transform="matrix(33.20889,0,0,-33.20889,290.59733,362.86106)"/>
<use xlink:href="#font_2_1" transform="matrix(33.20889,0,0,-33.20889,314.7602,362.86106)"/>
<symbol id="font_1_4">
<path d="M .21700001 .029 C .15300001 .029 .14100002 .029 .14100002 .074 L .14100002 .24800001 C .15900001 .223 .20000002 .184 .26400004 .184 C .379 .184 .48000003 .28100003 .48000003 .41000004 C .48000003 .53700008 .38600005 .635 .277 .635 C .18900001 .635 .142 .572 .13900002 .568 L .13900002 .635 L 0 .624 L 0 .595 C .07000001 .595 .076000008 .58800008 .076000008 .544 L .076000008 .074 C .076000008 .029 .065 .029 0 .029 L 0 0 C .026 .002000004 .08 .002000004 .10800001 .002000004 C .13700001 .002000004 .19100002 .002000004 .21700001 0 L .21700001 .029 M .14100002 .513 C .14100002 .53200009 .14100002 .533 .15200001 .549 C .18200001 .594 .231 .61300006 .26900003 .61300006 C .344 .61300006 .404 .522 .404 .41000004 C .404 .291 .33600004 .20400001 .259 .20400001 C .22800002 .20400001 .19900002 .21700001 .17900002 .236 C .15600002 .259 .14100002 .279 .14100002 .307 L .14100002 .513 Z "/>
</symbol>
<symbol id="font_1_6">
<path d="M 0 .683 L 0 .65400007 L .02 .65400007 C .092 .65400007 .095000009 .64400008 .095000009 .60700008 L .095000009 .076000008 C .095000009 .039 .092 .029000001 .02 .029000001 L 0 .029000001 L 0 0 L .35000003 0 C .517 0 .651 .15 .651 .335 C .651 .528 .51600006 .683 .35000003 .683 L 0 .683 M .22000003 .029000001 C .176 .029000001 .174 .036000004 .174 .069000009 L .174 .614 C .174 .647 .176 .65400007 .22000003 .65400007 L .32500003 .65400007 C .40800003 .65400007 .47400005 .614 .51500007 .54800006 C .56000009 .47700004 .56000009 .37600003 .56000009 .33600004 C .56000009 .28 .559 .186 .50200006 .112 C .46900005 .07 .40900005 .029000001 .32500003 .029000001 L .22000003 .029000001 Z "/>
</symbol>
<use xlink:href="#font_1_12" transform="matrix(33.20889,0,0,-33.20889,330.8281,362.86106)"/>
<use xlink:href="#font_1_19" transform="matrix(33.20889,0,0,-33.20889,344.0618,362.52897)"/>
<use xlink:href="#font_1_16" transform="matrix(33.20889,0,0,-33.20889,361.99549,362.86106)"/>
<use xlink:href="#font_1_2" transform="matrix(33.20889,0,0,-33.20889,376.39527,362.52897)"/>
<use xlink:href="#font_1_9" transform="matrix(33.20889,0,0,-33.20889,403.09477,362.86106)"/>
<use xlink:href="#font_1_1a" transform="matrix(33.20889,0,0,-33.20889,415.76145,362.52897)"/>
<use xlink:href="#font_1_2" transform="matrix(33.20889,0,0,-33.20889,424.7278,362.52897)"/>
<use xlink:href="#font_1_15" transform="matrix(33.20889,0,0,-33.20889,442.82756,362.86106)"/>
<use xlink:href="#font_1_c" transform="matrix(33.20889,0,0,-33.20889,468.3944,362.86106)"/>
<use xlink:href="#font_1_2" transform="matrix(33.20889,0,0,-33.20889,486.39448,362.52897)"/>
<use xlink:href="#font_1_15" transform="matrix(33.20889,0,0,-33.20889,504.49415,362.86106)"/>
<use xlink:href="#font_1_16" transform="matrix(33.20889,0,0,-33.20889,529.9948,362.86106)"/>
<use xlink:href="#font_1_8" transform="matrix(33.20889,0,0,-33.20889,544.2618,362.52897)"/>
<use xlink:href="#font_1_20" transform="matrix(33.20889,0,0,-33.20889,556.36398,356.25248)"/>
<use xlink:href="#font_1_4" transform="matrix(33.20889,0,0,-33.20889,3.262303,404.97093)"/>
<use xlink:href="#font_1_3" transform="matrix(33.20889,0,0,-33.20889,22.328343,398.86048)"/>
<use xlink:href="#font_1_10" transform="matrix(33.20889,0,0,-33.20889,38.5953,398.86048)"/>
<use xlink:href="#font_1_16" transform="matrix(33.20889,0,0,-33.20889,57.661558,398.86048)"/>
<use xlink:href="#font_1_2" transform="matrix(33.20889,0,0,-33.20889,72.06134,398.52839)"/>
<use xlink:href="#font_1_1b" transform="matrix(33.20889,0,0,-33.20889,100.79159,399.22578)"/>
<use xlink:href="#font_1_1a" transform="matrix(33.20889,0,0,-33.20889,118.094249,398.52839)"/>
<use xlink:href="#font_1_16" transform="matrix(33.20889,0,0,-33.20889,126.99423,398.86048)"/>
<use xlink:href="#font_1_9" transform="matrix(33.20889,0,0,-33.20889,151.76058,398.86048)"/>
<use xlink:href="#font_1_1a" transform="matrix(33.20889,0,0,-33.20889,164.42728,398.52839)"/>
<use xlink:href="#font_1_12" transform="matrix(33.20889,0,0,-33.20889,173.4933,398.86048)"/>
<use xlink:href="#font_1_19" transform="matrix(33.20889,0,0,-33.20889,186.72705,398.52839)"/>
<use xlink:href="#font_1_1a" transform="matrix(33.20889,0,0,-33.20889,215.42676,398.52839)"/>
<use xlink:href="#font_1_2" transform="matrix(33.20889,0,0,-33.20889,224.39318,398.52839)"/>
<use xlink:href="#font_1_16" transform="matrix(33.20889,0,0,-33.20889,252.3266,398.86048)"/>
<use xlink:href="#font_1_1a" transform="matrix(33.20889,0,0,-33.20889,266.75959,398.52839)"/>
<use xlink:href="#font_1_2" transform="matrix(33.20889,0,0,-33.20889,275.726,398.52839)"/>
<use xlink:href="#font_1_16" transform="matrix(33.20889,0,0,-33.20889,293.65965,398.86048)"/>
<use xlink:href="#font_1_1e" transform="matrix(33.20889,0,0,-33.20889,308.05946,398.52839)"/>
<use xlink:href="#font_1_1b" transform="matrix(33.20889,0,0,-33.20889,346.12373,399.22578)"/>
<use xlink:href="#font_1_4" transform="matrix(33.20889,0,0,-33.20889,363.26039,404.97093)"/>
<use xlink:href="#font_1_1a" transform="matrix(33.20889,0,0,-33.20889,381.42646,398.52839)"/>
<use xlink:href="#font_1_16" transform="matrix(33.20889,0,0,-33.20889,390.32643,398.86048)"/>
<use xlink:href="#font_1_1d" transform="matrix(33.20889,0,0,-33.20889,404.75944,398.52839)"/>
<use xlink:href="#font_1_1f" transform="matrix(33.20889,0,0,-33.20889,415.55229,404.93769)"/>
<use xlink:href="#font_1_15" transform="matrix(33.20889,0,0,-33.20889,433.49195,398.86048)"/>
<use xlink:href="#font_1_16" transform="matrix(33.20889,0,0,-33.20889,451.326,398.86048)"/>
<use xlink:href="#font_1_1e" transform="matrix(33.20889,0,0,-33.20889,465.72578,398.52839)"/>
<use xlink:href="#font_1_5" transform="matrix(33.20889,0,0,-33.20889,503.79,398.52839)"/>
<use xlink:href="#font_1_f" transform="matrix(33.20889,0,0,-33.20889,523.458,398.86048)"/>
<use xlink:href="#font_1_19" transform="matrix(33.20889,0,0,-33.20889,539.3928,398.52839)"/>
<use xlink:href="#font_1_20" transform="matrix(33.20889,0,0,-33.20889,556.6955,392.2519)"/>
<use xlink:href="#font_1_1d" transform="matrix(33.20889,0,0,-33.20889,3.4283477,434.52894)"/>
<use xlink:href="#font_1_16" transform="matrix(33.20889,0,0,-33.20889,12.32833,434.86103)"/>
<use xlink:href="#font_1_2" transform="matrix(33.20889,0,0,-33.20889,26.72812,434.52894)"/>
<use xlink:href="#font_1_20" transform="matrix(33.20889,0,0,-33.20889,44.030786,428.25245)"/>
<use xlink:href="#font_1_6" transform="matrix(33.20889,0,0,-33.20889,56.060289,434.52894)"/>
<use xlink:href="#font_1_3" transform="matrix(33.20889,0,0,-33.20889,80.661869,434.86103)"/>
<use xlink:href="#font_1_1d" transform="matrix(33.20889,0,0,-33.20889,97.09486,434.52894)"/>
<use xlink:href="#font_1_1e" transform="matrix(33.20889,0,0,-33.20889,106.06126,434.52894)"/>
<use xlink:href="#font_1_16" transform="matrix(33.20889,0,0,-33.20889,132.9949,434.86103)"/>
<use xlink:href="#font_1_a" transform="matrix(33.20889,0,0,-33.20889,146.92978,434.86103)"/>
<use xlink:href="#font_1_9" transform="matrix(33.20889,0,0,-33.20889,160.0946,434.86103)"/>
<use xlink:href="#font_1_12" transform="matrix(33.20889,0,0,-33.20889,172.82773,434.86103)"/>
<use xlink:href="#font_1_19" transform="matrix(33.20889,0,0,-33.20889,186.0619,434.52894)"/>
<use xlink:href="#font_1_16" transform="matrix(33.20889,0,0,-33.20889,203.99555,434.86103)"/>
<use xlink:href="#font_1_8" transform="matrix(33.20889,0,0,-33.20889,218.2625,434.52894)"/>
<use xlink:href="#font_1_20" transform="matrix(33.20889,0,0,-33.20889,230.36466,428.25245)"/>
<use xlink:href="#font_1_1b" transform="matrix(33.20889,0,0,-33.20889,242.79264,435.22633)"/>
<use xlink:href="#font_1_4" transform="matrix(33.20889,0,0,-33.20889,259.92927,440.97148)"/>
<use xlink:href="#font_1_1a" transform="matrix(33.20889,0,0,-33.20889,278.09535,434.52894)"/>
<use xlink:href="#font_1_16" transform="matrix(33.20889,0,0,-33.20889,286.99537,434.86103)"/>
<use xlink:href="#font_1_1d" transform="matrix(33.20889,0,0,-33.20889,301.4283,434.52894)"/>
<use xlink:href="#font_1_21" transform="matrix(33.20889,0,0,-33.20889,312.22123,434.52894)"/>
<symbol id="font_3_2">
<path d="M 0 .36400003 C 0 .157 .162 0 .34800003 0 C .51100006 0 .609 .13900002 .609 .25500003 C .609 .26500003 .609 .272 .596 .272 C .58500006 .272 .58500006 .26600004 .58400008 .256 C .57600006 .113000009 .46900005 .031000004 .36 .031000004 C .29900003 .031000004 .10300001 .065000008 .10300001 .36300005 C .10300001 .66200008 .298 .69600006 .35900004 .69600006 C .46800006 .69600006 .55700007 .605 .577 .45900003 C .57900008 .44500003 .57900008 .44200004 .59300008 .44200004 C .609 .44200004 .609 .44500003 .609 .46600006 L .609 .70300009 C .609 .72 .609 .72700008 .59800007 .72700008 C .59400007 .72700008 .59000006 .72700008 .582 .71500006 L .532 .64100006 C .495 .67700007 .444 .72700008 .34800003 .72700008 C .16100002 .72700008 0 .568 0 .36400003 Z "/>
</symbol>
<symbol id="font_3_4">
<path d="M .20400001 .661 C .19500001 .683 .19200002 .683 .16900002 .683 L 0 .683 L 0 .652 L .024000004 .652 C .10100001 .652 .103 .64100006 .103 .605 L .103 .105000007 C .103 .078 .103 .031000002 0 .031000002 L 0 0 C .035000005 .001 .08400001 .003 .11700001 .003 C .15 .003 .19900002 .001 .23400003 0 L .23400003 .031000002 C .13100001 .031000002 .13100001 .078 .13100001 .105000007 L .13100001 .64400008 L .13200002 .64400008 L .37300004 .022000002 C .37800003 .009000001 .38300003 0 .393 0 C .404 0 .40700004 .008 .411 .019000002 L .657 .652 L .65800008 .652 L .65800008 .078 C .65800008 .042000005 .656 .031000002 .57900008 .031000002 L .555 .031000002 L .555 0 C .592 .003 .66 .003 .69900009 .003 C .73800006 .003 .80500009 .003 .84200009 0 L .84200009 .031000002 L .818 .031000002 C .74100008 .031000002 .739 .042000005 .739 .078 L .739 .605 C .739 .64100006 .74100008 .652 .818 .652 L .84200009 .652 L .84200009 .683 L .67300006 .683 C .647 .683 .647 .68200007 .64000007 .66400006 L .42100004 .101 L .20400001 .661 Z "/>
</symbol>
<symbol id="font_3_1">
<path d="M .37800003 .386 L .51500007 .587 C .53700008 .619 .57100006 .651 .66 .652 L .66 .683 C .62100008 .68200007 .57400009 .68 .549 .68 C .50900009 .68 .46100004 .68 .42100004 .683 L .42100004 .652 C .46100004 .651 .48300005 .629 .48300005 .606 C .48300005 .596 .481 .59400007 .47400005 .583 L .36 .41400004 L .23100002 .60700008 C .22900002 .61 .224 .61800006 .224 .62200006 C .224 .634 .246 .651 .28900004 .652 L .28900004 .683 C .25400005 .68 .18100001 .68 .143 .68 C .112 .68 .05 .68100008 .013 .683 L .013 .652 L .032 .652 C .08700001 .652 .106000009 .64500007 .125 .61700007 L .30900003 .33900003 L .14500001 .097 C .131 .07700001 .100999999 .031000002 0 .031000002 L 0 0 C .036000004 .001 .07800001 .003 .111 .003 C .148 .003 .20300001 .003 .23900001 0 L .23900001 .031000002 C .193 .032 .176 .059000005 .176 .07700001 C .176 .086 .179 .09 .186 .101 L .32800005 .31100003 L .48600007 .072000008 C .48800005 .068 .49100007 .064 .49100007 .061000006 C .49100007 .049000004 .46900005 .032 .42600004 .031000002 L .42600004 0 C .46100004 .003 .53400006 .003 .572 .003 C .614 .003 .66 .002 .702 0 L .702 .031000002 L .683 .031000002 C .63100007 .031000002 .61 .036000004 .58900007 .067 L .37800003 .386 Z "/>
</symbol>
<symbol id="font_3_3">
<path d="M .19700001 .605 C .19700001 .64100006 .20000002 .652 .279 .652 L .305 .652 L .305 .683 C .27 .68 .19100002 .68 .15300001 .68 C .11400001 .68 .035 .68 0 .683 L 0 .652 L .026 .652 C .105000007 .652 .10800001 .64100006 .10800001 .605 L .10800001 .078 C .10800001 .042000005 .105000007 .031000002 .026 .031000002 L 0 .031000002 L 0 0 C .035 .003 .11400001 .003 .15200001 .003 C .19100002 .003 .27 .003 .305 0 L .305 .031000002 L .279 .031000002 C .20000002 .031000002 .19700001 .042000005 .19700001 .078 L .19700001 .605 Z "/>
</symbol>
<use xlink:href="#font_3_2" transform="matrix(68.6693,8.431506,8.431506,-68.6693,653.66,339.17738)" fill="#00ad56"/>
<use xlink:href="#font_3_4" transform="matrix(68.6693,8.431506,8.431506,-68.6693,702.168,343.59989)" fill="#00ad56"/>
<use xlink:href="#font_3_1" transform="matrix(68.6693,8.431506,8.431506,-68.6693,764.1366,351.2087)" fill="#00ad56"/>
<use xlink:href="#font_3_2" transform="matrix(68.6693,8.431506,8.431506,-68.6693,815.77597,359.08268)" fill="#00ad56"/>
<use xlink:href="#font_3_3" transform="matrix(68.6693,8.431506,8.431506,-68.6693,863.66598,363.42933)" fill="#00ad56"/>
<use xlink:href="#font_3_1" transform="matrix(68.6693,8.431506,8.431506,-68.6693,888.2049,366.44236)" fill="#00ad56"/>
<symbol id="font_4_1">
<path d="M .33800004 .739 C .32500003 .74100008 .312 .74600008 .29900003 .749 C .261 .75900009 .22200002 .767 .18300002 .77400007 C .179 .77500006 .17300001 .776 .17 .77900007 C .16600001 .78200009 .165 .78900006 .163 .79300007 C .14400001 .84900006 .132 .91 .11400001 .96800008 C .109000008 .9850001 .105000007 1.0020001 .098000008 1.019 C .094000007 1.0270001 .087000008 1.0350001 .085 1.0430001 C .08400001 1.051 .085 1.059 .08400001 1.067 C .080000009 1.1060001 .076000008 1.166 .025 1.166 C .022000002 1.149 .022000002 1.1320001 .021000002 1.115 C .020000002 1.0990001 .018000002 1.082 .018000002 1.0660001 C .018000002 1.033 .025 .9850001 .060000004 .9850001 C .065000008 .91700008 .072000008 .846 .09200001 .781 C .10300001 .74500009 .120000008 .712 .15400002 .693 C .19600001 .67 .245 .67800006 .29000003 .66700008 C .28100003 .65800008 .263 .643 .263 .628 C .263 .62 .272 .61700007 .27800004 .61700007 C .29700003 .61700007 .312 .642 .32900004 .647 L .33100004 .647 C .335 .647 .342 .64400008 .34600003 .642 C .37600003 .628 .39000003 .59300008 .39900003 .563 C .41200004 .51900008 .41400004 .47200004 .41400004 .42600004 C .41400004 .39800004 .41300003 .37 .41300003 .34300003 C .38900004 .35000003 .36600004 .36900003 .34800003 .386 C .30400003 .42700003 .26200003 .48700003 .201 .504 C .192 .507 .18200001 .508 .172 .508 C .125 .508 .11000001 .476 .11000001 .43300004 C .11000001 .342 .143 .272 .143 .179 C .143 .15200001 .13800001 .124000009 .120000008 .10300001 C .09 .067 .042000005 .05 0 .033 C .016 .028 .031000002 .019000002 .047000003 .011000001 C .057000005 .0050000005 .065000008 0 .079 0 C .093 0 .108 .003 .12100001 .004 C .156 .006 .192 .008 .22700002 .012 C .32500003 .021000002 .425 .025 .523 .029000001 L .52900007 .029000001 C .54800006 .029000001 .56700006 .025 .586 .022000002 C .63100007 .016 .67600008 .006 .721 .003 L .72400006 .003 C .74600008 .003 .77000007 .012 .791 .015000001 C .78700008 .023000002 .77900007 .031000002 .77300009 .037 C .75600007 .054 .73700007 .067 .71500006 .076000008 C .698 .082 .679 .086 .665 .09900001 C .65300008 .11000001 .647 .127 .64400008 .142 C .637 .17500001 .63600006 .209 .63600006 .24300002 L .63600006 .29900003 L .63600006 .37300004 C .63600006 .41000004 .63600006 .44700004 .64000007 .48400004 C .64400008 .528 .648 .58100005 .675 .61800006 C .72 .68 .827 .64400008 .89100006 .694 C .92300006 .72 .93100008 .76400008 .93600007 .80200007 C .94400009 .85 .94500008 .89900007 .95800009 .94600006 C .97300007 1.003 .998 1.057 .998 1.1170001 C .947 1.097 .88500007 1.077 .88500007 1.0020001 C .88500007 .9760001 .88900008 .95100006 .88900008 .924 C .88900008 .80600008 .845 .73200008 .72300007 .73200008 C .694 .73200008 .666 .73600009 .637 .73800006 C .637 .76100006 .638 .78400006 .638 .80700007 C .638 .82400009 .637 .841 .63600006 .85800006 C .634 .88600006 .632 .91600009 .619 .94100007 C .60700008 .96500006 .588 .98300006 .56600007 .998 C .55 1.008 .53900006 1.014 .52000007 1.016 L .52000007 1.1240001 C .52000007 1.1340001 .51900008 1.144 .51900008 1.154 C .51900008 1.176 .52000007 1.192 .541 1.192 L .551 1.192 C .563 1.192 .569 1.197 .569 1.205 C .569 1.2210001 .545 1.225 .531 1.225 C .49400003 1.225 .48800005 1.197 .48800005 1.1630001 C .48800005 1.125 .44300003 1.131 .44300003 1.1010001 C .44300003 1.087 .45700003 1.077 .46600003 1.0680001 C .47900004 1.0550001 .48800005 1.039 .48800005 1.0200001 C .48000003 1.0200001 .469 1.023 .46 1.023 C .42700003 1.023 .397 .9850001 .38500003 .957 C .38000003 .9480001 .379 .934 .374 .92600008 C .36900003 .92 .363 .91600009 .35900004 .91 C .349 .897 .342 .882 .337 .86600008 C .335 .86 .33200003 .85200008 .33200003 .845 C .333 .84000006 .33900003 .83800008 .342 .83500006 C .34800003 .82900008 .35500003 .82000008 .35500003 .81000009 C .35500003 .80600008 .354 .80200007 .354 .79700008 C .354 .786 .358 .777 .358 .767 C .358 .75600007 .34800003 .739 .33800004 .739 M .60700008 .71400007 C .60700008 .69900009 .59000006 .698 .582 .694 C .56100007 .683 .53900006 .66700008 .51600006 .66 C .51600006 .70400008 .52900007 .75200006 .52900007 .79800006 C .52900007 .887 .47300003 .91400006 .42700003 .95400008 C .425 .95600005 .42100004 .95800009 .42100004 .961 C .42200003 .96900007 .43800003 .98 .44500003 .984 C .45800004 .99200007 .47200004 .99600008 .48600004 .99600008 C .508 .99600008 .53000006 .98700007 .54800006 .97300007 C .59900006 .933 .611 .87000009 .611 .809 C .611 .776 .60700008 .74600008 .60700008 .71400007 M .37500004 .786 L .37500004 .79200008 C .372 .813 .37800003 .845 .351 .851 C .351 .8880001 .388 .90400007 .39900003 .93500009 C .41300003 .93200007 .42700003 .92100009 .437 .9110001 C .46300004 .88500007 .47700004 .84800007 .47700004 .81100007 C .47700004 .80500009 .47700004 .8 .476 .794 C .45200003 .78800007 .43100003 .76600006 .40600003 .76600006 C .39400003 .76600006 .37500004 .768 .37500004 .786 M .38700003 .88100007 C .39400003 .878 .402 .87700006 .411 .87700006 C .42000003 .87700006 .43100003 .878 .44000004 .88000008 C .43400003 .887 .42000003 .89400008 .407 .89400008 C .39800004 .89400008 .39000003 .89000007 .38700003 .88100007 M .441 .754 L .45100004 .73200008 C .42900003 .73 .407 .72900006 .38500003 .72700008 C .397 .744 .42200003 .75000008 .441 .754 M .48200003 .721 L .48200003 .601 L .637 .68600007 C .633 .588 .624 .48400004 .57100006 .39900003 C .54700008 .36 .507 .319 .46100004 .30800004 L .46100004 .52900007 C .44400005 .587 .42900003 .646 .41300003 .70400008 L .48200003 .721 M .192 .46100004 C .21000001 .46100004 .23 .44700004 .24100001 .439 C .275 .41400004 .30400003 .38300003 .33200003 .35200004 C .34600003 .33600004 .36200003 .321 .374 .303 L .21300002 .2 C .202 .22500001 .19500001 .252 .187 .27800004 C .17300001 .324 .162 .36100004 .162 .41500003 C .162 .439 .17 .46100004 .192 .46100004 M .22100002 .05 C .216 .05 .209 .053000004 .20400001 .055000005 C .18800001 .059000005 .171 .061000006 .156 .067 C .16800002 .079 .18800001 .087000008 .202 .096 L .3 .15400002 L .49 .268 C .521 .287 .55200007 .31 .58500006 .32500003 C .595 .30200003 .6 .27100004 .6 .246 C .6 .223 .59900006 .201 .591 .179 C .56100007 .08800001 .45200003 .058000003 .36400003 .058000003 C .34 .058000003 .32000003 .059000005 .298 .063 C .29000003 .065000008 .28100003 .068 .272 .068 C .25300003 .068 .24100001 .05 .22100002 .05 Z "/>
</symbol>
<use xlink:href="#font_4_1" transform="matrix(156.03028,-56.79033,-56.79033,-156.03028,694.99996,288.19453)"/>
<path transform="matrix(.27777777,0,0,-.27777777,0,774.86117)" d="M 3629.82 1878 C 3627.52 1899.96 3607.83 1915.9 3585.86 1913.59 C 3563.89 1911.29 3547.95 1891.6 3550.26 1869.63 C 3552.57 1847.66 3572.25 1831.73 3594.22 1834.04 C 3616.19 1836.34 3632.13 1856.03 3629.82 1878 " fill="#bf050a"/>
<path transform="matrix(.27777777,0,0,-.27777777,0,774.86117)" stroke-width="16" stroke-linecap="round" stroke-miterlimit="10" stroke-linejoin="miter" fill="none" stroke="#bf050a" d="M 3596.95 1752.67 C 3579.75 1736.84 3571.4 1712.99 3573.95 1688.71 C 3577.12 1658.57 3596.59 1632.56 3626.61 1613.51 M 3671.63 1758.08 C 3663.31 1741.94 3659.58 1724.84 3661.4 1707.52 C 3664.43 1678.7 3682.35 1653.68 3710.14 1634.88 M 3512.69 1732.55 C 3497.97 1720.48 3491.18 1698.63 3493.51 1676.41 C 3496.23 1650.54 3510.95 1627.73 3534.04 1609.73 M 3799.41 1704.73 C 3777.59 1659.27 3702.36 1620.02 3609.7 1610.28 C 3517.13 1600.95 3435.49 1623.62 3404.59 1663.43 "/>
<path transform="matrix(.33335559,-.03503694,-.017800779,-.16936305,0,774.86117)" stroke-width="13.2594" stroke-linecap="round" stroke-miterlimit="10" stroke-linejoin="miter" fill="none" stroke="#bf050a" d="M 3286.88 2070.85 C 3286.89 2166.04 3209.71 2243.22 3114.51 2243.22 C 3019.32 2243.22 2942.14 2166.05 2942.14 2070.85 C 2942.13 1975.65 3019.31 1898.47 3114.51 1898.47 C 3209.71 1898.47 3286.88 1975.65 3286.88 2070.85 "/>
<path transform="matrix(.27777777,0,0,-.27777777,0,774.86117)" stroke-width="32" stroke-linecap="round" stroke-miterlimit="10" stroke-linejoin="miter" fill="none" stroke="#bf050a" d="M 3449.84 1294.39 L 3847.65 1336.2 M 3444.82 1342.12 L 3842.63 1383.93 "/>
<path transform="matrix(.27777777,0,0,-.27777777,0,774.86117)" d="M 3500.95 1420.42 C 3498.64 1442.39 3478.95 1458.32 3456.98 1456.02 C 3435.02 1453.71 3419.08 1434.02 3421.38 1412.05 C 3423.69 1390.09 3443.38 1374.15 3465.35 1376.46 C 3487.31 1378.76 3503.25 1398.45 3500.95 1420.42 " fill="#bf050a"/>
<path transform="matrix(.27777777,0,0,-.27777777,0,774.86117)" d="M 3851.02 1457.21 C 3848.71 1479.18 3829.02 1495.12 3807.05 1492.81 C 3785.09 1490.5 3769.15 1470.82 3771.46 1448.85 C 3773.76 1426.88 3793.45 1410.94 3815.42 1413.25 C 3837.39 1415.55 3853.32 1435.24 3851.02 1457.21 " fill="#bf050a"/>
<path transform="matrix(.27777777,0,0,-.27777777,0,774.86117)" d="M 3617.64 1432.68 C 3615.33 1454.65 3595.64 1470.59 3573.68 1468.28 C 3551.71 1465.98 3535.77 1446.29 3538.07 1424.32 C 3540.38 1402.35 3560.07 1386.41 3582.04 1388.72 C 3604 1391.03 3619.94 1410.71 3617.64 1432.68 " fill="#bf050a"/>
<path transform="matrix(.27777777,0,0,-.27777777,0,774.86117)" d="M 3734.33 1444.95 C 3732.02 1466.91 3712.33 1482.85 3690.36 1480.55 C 3668.39 1478.24 3652.46 1458.55 3654.77 1436.59 C 3657.07 1414.62 3676.76 1398.68 3698.73 1400.98 C 3720.7 1403.29 3736.63 1422.98 3734.33 1444.95 " fill="#bf050a"/>
<path transform="matrix(.27777777,0,0,-.27777777,0,774.86117)" d="M 2997.25 2453.86 L 3090.8 2433.97 L 3034.09 2397.14 " fill="#0771ca"/>
<path transform="matrix(.27777777,0,0,-.27777777,0,774.86117)" stroke-width="7.97011" stroke-linecap="butt" stroke-miterlimit="10" stroke-linejoin="miter" fill="none" stroke="#0771ca" d="M 3035.75 2404.93 L 3024.14 2350.36 "/>
<path transform="matrix(.27777777,0,0,-.27777777,0,774.86117)" d="M 3090.8 2433.97 L 3184.36 2414.09 L 3127.64 2377.25 " fill="#0771ca"/>
<path transform="matrix(.27777777,0,0,-.27777777,0,774.86117)" stroke-width="7.97011" stroke-linecap="butt" stroke-miterlimit="10" stroke-linejoin="miter" fill="none" stroke="#0771ca" d="M 3129.3 2385.05 L 3117.7 2330.48 "/>
<path transform="matrix(.27777777,0,0,-.27777777,0,774.86117)" d="M 3184.36 2414.09 L 3277.91 2394.2 L 3221.19 2357.37 " fill="#0771ca"/>
<path transform="matrix(.27777777,0,0,-.27777777,0,774.86117)" stroke-width="7.97011" stroke-linecap="butt" stroke-miterlimit="10" stroke-linejoin="miter" fill="none" stroke="#0771ca" d="M 3222.85 2365.16 L 3211.25 2310.59 "/>
<path transform="matrix(.27777777,0,0,-.27777777,0,774.86117)" d="M 2977.37 2360.3 L 3070.92 2340.42 L 3014.2 2303.59 " fill="#0771ca"/>
<path transform="matrix(.27777777,0,0,-.27777777,0,774.86117)" stroke-width="7.97011" stroke-linecap="butt" stroke-miterlimit="10" stroke-linejoin="miter" fill="none" stroke="#0771ca" d="M 3015.86 2311.38 L 2984.38 2163.26 "/>
<path transform="matrix(.27777777,0,0,-.27777777,0,774.86117)" d="M 3070.92 2340.42 L 3164.47 2320.53 L 3107.75 2283.7 " fill="#0771ca"/>
<path transform="matrix(.27777777,0,0,-.27777777,0,774.86117)" stroke-width="7.97011" stroke-linecap="butt" stroke-miterlimit="10" stroke-linejoin="miter" fill="none" stroke="#0771ca" d="M 3109.41 2291.5 L 3077.93 2143.37 "/>
<path transform="matrix(.27777777,0,0,-.27777777,0,774.86117)" d="M 3164.47 2320.53 L 3258.02 2300.65 L 3201.3 2263.82 " fill="#0771ca"/>
<path transform="matrix(.27777777,0,0,-.27777777,0,774.86117)" stroke-width="7.97011" stroke-linecap="butt" stroke-miterlimit="10" stroke-linejoin="miter" fill="none" stroke="#0771ca" d="M 3202.96 2271.61 L 3171.48 2123.49 "/>
<path transform="matrix(.27777777,0,0,-.27777777,0,774.86117)" d="M 3285.73 2229.57 L 3334.84 2153.95 L 3316.91 2222.95 L 3361.35 2278.68 L 3285.73 2229.57 " fill="#0771ca"/>
<path transform="matrix(.27777777,0,0,-.27777777,0,774.86117)" d="M 3361.35 2278.68 L 3410.46 2203.06 L 3392.54 2272.05 L 3436.98 2327.8 L 3361.35 2278.68 " fill="#0771ca"/>
<path transform="matrix(.27777777,0,0,-.27777777,0,774.86117)" d="M 3436.98 2327.8 L 3486.09 2252.17 L 3468.16 2321.17 L 3512.6 2376.91 L 3436.98 2327.8 " fill="#0771ca"/>
<path transform="matrix(.27777777,0,0,-.27777777,0,774.86117)" d="M 3334.84 2153.95 L 3383.95 2078.32 L 3366.02 2147.32 L 3410.46 2203.06 L 3334.84 2153.95 " fill="#0771ca"/>
<path transform="matrix(.27777777,0,0,-.27777777,0,774.86117)" d="M 3410.46 2203.06 L 3459.57 2127.44 L 3441.65 2196.43 L 3486.09 2252.17 L 3410.46 2203.06 " fill="#0771ca"/>
<path transform="matrix(.27777777,0,0,-.27777777,0,774.86117)" d="M 3446.32 2065.07 L 3461.91 2061.75 M 3521.57 2342.41 L 3615.12 2322.52 L 3558.4 2285.69 " fill="#0771ca"/>
<path transform="matrix(.27777777,0,0,-.27777777,0,774.86117)" stroke-width="7.97011" stroke-linecap="butt" stroke-miterlimit="10" stroke-linejoin="miter" fill="none" stroke="#0771ca" d="M 3560.05 2293.49 L 3548.46 2238.91 "/>
<path transform="matrix(.27777777,0,0,-.27777777,0,774.86117)" d="M 3615.12 2322.52 L 3708.67 2302.64 L 3651.95 2265.8 " fill="#0771ca"/>
<path transform="matrix(.27777777,0,0,-.27777777,0,774.86117)" stroke-width="7.97011" stroke-linecap="butt" stroke-miterlimit="10" stroke-linejoin="miter" fill="none" stroke="#0771ca" d="M 3653.61 2273.6 L 3642.01 2219.03 "/>
<path transform="matrix(.27777777,0,0,-.27777777,0,774.86117)" d="M 3708.67 2302.64 L 3802.22 2282.75 L 3745.5 2245.92 " fill="#0771ca"/>
<path transform="matrix(.27777777,0,0,-.27777777,0,774.86117)" stroke-width="7.97011" stroke-linecap="butt" stroke-miterlimit="10" stroke-linejoin="miter" fill="none" stroke="#0771ca" d="M 3747.16 2253.71 L 3735.56 2199.14 "/>
<path transform="matrix(.27777777,0,0,-.27777777,0,774.86117)" d="M 3548.46 2238.91 L 3735.56 2199.14 L 3632.07 2172.25 " fill="#0771ca"/>
<path transform="matrix(.27777777,0,0,-.27777777,0,774.86117)" stroke-width="7.97011" stroke-linecap="butt" stroke-miterlimit="10" stroke-linejoin="miter" fill="none" stroke="#0771ca" d="M 3633.72 2180.05 L 3602.24 2031.93 "/>
</g>
</svg>
