<?xml version="1.0" encoding="UTF-8" standalone="no"?>
<!DOCTYPE svg PUBLIC "-//W3C//DTD SVG 1.1//EN" "http://www.w3.org/Graphics/SVG/1.1/DTD/svg11.dtd">
<svg xmlns="http://www.w3.org/2000/svg" xmlns:xlink="http://www.w3.org/1999/xlink" version="1.1" width="1106.9722pt" height="498.1389pt" viewBox="0 0 1106.9722 498.1389">
<g enable-background="new">
<symbol id="font_0_9">
<path d="M .18100001 .60700008 C .18100001 .64400008 .18400002 .65400007 .259 .65400007 L .281 .65400007 L .281 .683 C .257 .68100008 .17100002 .68100008 .141 .68100008 C .111 .68100008 .024 .68100008 0 .683 L 0 .65400007 L .022 .65400007 C .097 .65400007 .10000001 .64400008 .10000001 .60700008 L .10000001 .076000008 C .10000001 .039 .097 .029000001 .022 .029000001 L 0 .029000001 L 0 0 C .024 .002 .110000018 .002 .14000002 .002 C .17000002 .002 .257 .002 .281 0 L .281 .029000001 L .259 .029000001 C .18400002 .029000001 .18100001 .039 .18100001 .076000008 L .18100001 .60700008 Z "/>
</symbol>
<symbol id="font_0_17">
<path d="M .685 .24300002 C .685 .33600004 .685 .36400003 .662 .39600004 C .633 .43500004 .586 .441 .55200007 .441 C .46900005 .441 .42700003 .381 .411 .342 C .397 .41900004 .34300003 .441 .28 .441 C .183 .441 .145 .358 .13700001 .33800004 L .136 .33800004 L .136 .441 L 0 .43 L 0 .40100003 C .068 .40100003 .076000008 .39400003 .076000008 .34500004 L .076000008 .074 C .076000008 .029000001 .065 .029000001 0 .029000001 L 0 0 C .026 .002 .08 .002 .107999999 .002 C .13700001 .002 .191 .002 .21700001 0 L .21700001 .029000001 C .153 .029000001 .141 .029000001 .141 .074 L .141 .26000003 C .141 .365 .21000001 .42100004 .272 .42100004 C .33400003 .42100004 .34800003 .37 .34800003 .30900003 L .34800003 .074 C .34800003 .029000001 .337 .029000001 .272 .029000001 L .272 0 C .298 .002 .352 .002 .38000003 .002 C .409 .002 .46300004 .002 .48900003 0 L .48900003 .029000001 C .425 .029000001 .41300003 .029000001 .41300003 .074 L .41300003 .26000003 C .41300003 .365 .482 .42100004 .544 .42100004 C .606 .42100004 .62 .37 .62 .30900003 L .62 .074 C .62 .029000001 .609 .029000001 .544 .029000001 L .544 0 C .57000008 .002 .624 .002 .652 .002 C .68100008 .002 .735 .002 .76100006 0 L .76100006 .029000001 C .711 .029000001 .68600007 .029000001 .685 .059000005 L .685 .24300002 Z "/>
</symbol>
<use xlink:href="#font_0_9" transform="matrix(33.20889,0,0,-33.20889,3.52842,25.416687)"/>
<use xlink:href="#font_0_17" transform="matrix(33.20889,0,0,-33.20889,15.062283,25.416687)"/>
<symbol id="font_1_4">
<path d="M .60400006 .65300008 C .61 .66 .614 .665 .614 .675 C .614 .683 .60800006 .683 .592 .683 L .213 .683 C .192 .683 .19100002 .68200007 .18599999 .666 L .13100001 .483 C .12900001 .476 .12800002 .47200004 .12800002 .47000004 C .12800002 .46 .13800001 .46 .141 .46 C .153 .46 .153 .462 .15900001 .48000003 C .19100002 .58100005 .238 .65400007 .38500003 .65400007 L .526 .65400007 L .011 .034 C 0 .020000002 0 .009000001 0 .008 C 0 0 .0060000049 0 .022 0 L .41500003 0 C .435 0 .436 .001 .44200004 .018000002 L .51100006 .24100001 C .514 .25100003 .514 .25300003 .514 .254 C .514 .264 .504 .264 .50100007 .264 C .496 .264 .49300004 .264 .49 .261 C .487 .259 .482 .24000001 .47800005 .23 C .44200004 .11400001 .40100003 .031000002 .238 .031000002 L .08900001 .031000002 L .60400006 .65300008 Z "/>
</symbol>
<symbol id="font_1_9">
<path d="M .367 .39200003 C .37 .403 .37 .40600003 .37 .40800003 C .37 .419 .36200003 .432 .344 .432 C .312 .432 .305 .393 .305 .393 L .30400003 .39200003 C .285 .439 .25100003 .451 .224 .451 C .115 .451 0 .298 0 .15200001 C 0 .063 .047 0 .115 0 C .15599999 0 .197 .026 .23500002 .071 C .24599999 .010000001 .291 0 .314 0 C .35300002 0 .37300004 .029000003 .386 .058000003 C .40300004 .093 .415 .15 .415 .15300001 C .415 .16200002 .406 .16200002 .40200005 .16200002 C .39000003 .16200002 .389 .16100002 .38300003 .13800001 C .363 .055000005 .344 .020000002 .316 .020000002 C .294 .020000002 .289 .041 .289 .060000004 C .289 .075 .293 .098000008 .29700003 .113000009 L .367 .39200003 M .241 .13100001 C .23500002 .105000007 .17500001 .020000002 .117000009 .020000002 C .064 .020000002 .062 .098000008 .062 .11 C .062 .16000001 .094000007 .278 .11000001 .31800003 C .136 .38 .181 .43100003 .224 .43100003 C .284 .43100003 .291 .342 .291 .335 C .291 .334 .28800003 .323 .28800003 .321 L .241 .13100001 Z "/>
</symbol>
<symbol id="font_1_c">
<path d="M .224 .681 C .22600001 .68700006 .22700003 .69100007 .22700003 .694 C .22700003 .703 .22 .704 .20400003 .703 L .104 .694 C .09 .693 .081 .69200006 .081 .674 C .081 .66400006 .089 .66400006 .103 .66400006 C .15300001 .66400006 .15300001 .65500006 .15300001 .64500007 C .15300001 .64100006 .15100001 .63100007 .15 .62700006 L .0040000008 .043 C .001000002 .030000002 0 .028 0 .025000003 C 0 .012000001 .009000003 0 .026 0 C .054000006 0 .060000004 .026 .062000008 .033000005 L .12400001 .28100003 C .13000001 .304 .18400002 .43100003 .28 .43100003 C .326 .43100003 .326 .381 .326 .364 C .326 .30200003 .282 .18200001 .26500003 .133 C .256 .108 .252 .099 .252 .078 C .252 .030000002 .28300003 0 .32400004 0 C .41700004 0 .449 .14900002 .449 .15300001 C .449 .16200002 .44 .16200002 .43600006 .16200002 C .42400003 .16200002 .423 .15900001 .41900004 .14400001 C .41000004 .11 .38300003 .020000002 .32700003 .020000002 C .312 .020000002 .30400003 .027000003 .30400003 .050000006 C .30400003 .074 .31500004 .105000007 .323 .125 C .349 .19800002 .38300003 .291 .38300003 .349 C .38300003 .402 .36 .451 .28300003 .451 C .21900001 .451 .17700002 .414 .149 .38 L .224 .681 Z "/>
</symbol>
<symbol id="font_1_f">
<path d="M .20500002 .681 C .20600003 .68700006 .20800004 .69100007 .20800004 .694 C .20800004 .703 .201 .704 .18500003 .703 L .085 .694 C .071 .693 .062 .69200006 .062 .674 C .062 .66400006 .07 .66400006 .084 .66400006 C .134 .66400006 .134 .65500006 .134 .64500007 C .134 .64100006 .132 .63100007 .13100001 .62700006 L .0050000029 .123 C .0029999987 .114 0 .103 0 .088 C 0 .035 .034 0 .080000009 0 C .114000018 0 .134 .023000002 .148 .051000004 C .16600001 .084 .18 .14900002 .18 .15200001 C .18 .16200002 .17200002 .16200002 .16700003 .16200002 C .16300002 .16200002 .15600002 .16200002 .15400002 .15600002 C .153 .15300001 .14900002 .13800001 .146 .12900001 C .13300002 .08 .116000007 .020000002 .08200001 .020000002 C .06000001 .020000002 .055 .041 .055 .060000004 C .055 .073 .06000001 .101 .063 .114 L .20500002 .681 Z "/>
</symbol>
<symbol id="font_1_b">
<path d="M .116 .24200002 C .15100001 .24200002 .339 .24200002 .339 .368 C .339 .41300003 .302 .451 .24300002 .451 C .13900002 .451 0 .349 0 .17300001 C 0 .072000008 .052 0 .13700001 0 C .26100005 0 .343 .101 .343 .115 C .343 .122 .33500005 .13000001 .329 .13000001 C .32600004 .13000001 .325 .12900001 .31700004 .120000008 C .264 .048000006 .189 .020000002 .138 .020000002 C .072 .020000002 .06299999 .099 .06299999 .13100001 C .06299999 .17500001 .07000001 .20300001 .08 .24200002 L .116 .24200002 M .085999999 .262 C .126 .421 .22400002 .43100003 .242 .43100003 C .282 .43100003 .305 .403 .305 .36900003 C .305 .262 .13900002 .262 .10700001 .262 L .085999999 .262 Z "/>
</symbol>
<symbol id="font_1_1">
<path d="M .165 .28100003 C .171 .303 .22500003 .43100003 .321 .43100003 C .367 .43100003 .367 .381 .367 .364 C .367 .30200003 .323 .18200001 .30600003 .133 C .29700003 .108 .293 .099 .293 .078 C .293 .030000002 .324 0 .365 0 C .458 0 .49 .14900002 .49 .15300001 C .49 .16200002 .481 .16200002 .477 .16200002 C .46500004 .16200002 .46400006 .15900001 .46000005 .14400001 C .45100004 .11 .42400003 .020000002 .36800004 .020000002 C .35300002 .020000002 .34500004 .027000003 .34500004 .050000006 C .34500004 .074 .356 .105000007 .36400003 .125 C .39000003 .19800002 .42400003 .291 .42400003 .349 C .42400003 .402 .40100003 .451 .324 .451 C .26200003 .451 .215 .41500003 .18200001 .37 C .17900002 .41500003 .148 .451 .102 .451 C .078999999 .451 .053000004 .441 .031999999 .398 C .012999997 .361 0 .301 0 .299 C 0 .291 .0050000029 .289 .013999999 .289 C .024999999 .289 .026 .29 .031999999 .313 C .047000007 .372 .066 .43100003 .10000001 .43100003 C .126 .43100003 .126 .402 .126 .39000003 C .126 .37100003 .12200001 .349 .118 .335 L .045 .043 C .041 .029000003 .041 .028 .041 .024 C .041 .012000001 .048999996 0 .067 0 C .09 0 .10000001 .018000002 .104 .035 L .165 .28100003 Z "/>
</symbol>
<symbol id="font_1_11">
<path d="M .21400002 0 C .234 0 .236 0 .239 .0109999929 C .241 .017000005 .24700001 .036 .24700001 .041999997 C .24700001 .052 .239 .052 .22300002 .052 L .033000009 .052 C .013000004 .052 .011 .052 .008000001 .040999995 C .0060000049 .034999998 0 .016000003 0 .00999999 C 0 0 .008000001 0 .024000004 0 L .21400002 0 Z "/>
</symbol>
<symbol id="font_1_5">
<path d="M .19 .683 C .172 .683 .163 .683 .163 .66400006 C .163 .65400007 .17000002 .65400007 .18900001 .65400007 C .21400002 .65400007 .24200002 .65400007 .24200002 .638 C .24200002 .632 .24200002 .629 .24000001 .623 L .103 .072000008 C .09400001 .037 .088 .029000001 .027000003 .029000001 C .009000003 .029000001 0 .029000001 0 .010000001 C 0 0 .008000001 0 .024000004 0 L .31800003 0 C .503 0 .69200006 .21200001 .69200006 .44000004 C .69200006 .588 .61 .683 .488 .683 L .19 .683 M .31100003 .61600008 C .32000003 .65400007 .326 .65400007 .36 .65400007 L .45800004 .65400007 C .56700006 .65400007 .617 .574 .617 .47700004 C .617 .41900004 .589 .25800003 .526 .162 C .47500006 .085 .395 .029000001 .30200003 .029000001 L .199 .029000001 C .17000002 .029000001 .16900002 .030000002 .16900002 .041 C .16900002 .049000004 .171 .057000005 .17300001 .064 L .31100003 .61600008 Z "/>
</symbol>
<symbol id="font_1_2">
<path d="M .387 .289 C .387 .393 .323 .451 .248 .451 C .12600002 .451 0 .31 0 .16200002 C 0 .054000006 .066999997 0 .139 0 C .261 0 .387 .143 .387 .289 M .13999999 .020000002 C .098 .020000002 .064 .056000007 .064 .124000009 C .064 .17000002 .08800001 .28 .121 .337 C .15799999 .40100003 .20899999 .43100003 .24599999 .43100003 C .297 .43100003 .323 .384 .323 .327 C .323 .284 .299 .17100002 .267 .116000007 C .22600001 .045 .17500001 .020000002 .13999999 .020000002 Z "/>
</symbol>
<symbol id="font_1_10">
<path d="M .41500003 .28100003 C .421 .304 .47500003 .43100003 .57100006 .43100003 C .61700007 .43100003 .61700007 .381 .61700007 .364 C .61700007 .30200003 .573 .18200001 .55600008 .133 C .54700008 .108 .54300007 .099 .54300007 .078 C .54300007 .030000002 .574 0 .615 0 C .708 0 .74 .14900002 .74 .15300001 C .74 .16200002 .731 .16200002 .72700008 .16200002 C .71500006 .16200002 .71400007 .15900001 .71000006 .14400001 C .70100006 .11 .674 .020000002 .61800006 .020000002 C .60300007 .020000002 .595 .027000003 .595 .050000006 C .595 .074 .606 .105000007 .614 .125 C .64000007 .19800002 .674 .291 .674 .349 C .674 .402 .651 .451 .574 .451 C .512 .451 .462 .41500003 .426 .36 C .42000003 .428 .37300004 .451 .32500003 .451 C .26700003 .451 .21800003 .42000003 .18200001 .37 C .17900002 .41500003 .148 .451 .102 .451 C .078999999 .451 .053000004 .441 .031999999 .398 C .012999997 .361 0 .301 0 .299 C 0 .291 .0050000029 .289 .013999999 .289 C .024999999 .289 .026 .29 .031999999 .313 C .047000007 .372 .066 .43100003 .10000001 .43100003 C .126 .43100003 .126 .402 .126 .39000003 C .126 .37100003 .12200001 .349 .118 .335 L .045 .043 C .041 .029000003 .041 .028 .041 .024 C .041 .012000001 .048999996 0 .067 0 C .078999999 0 .095 .0070000009 .102 .027000003 C .104 .037 .142 .187 .148 .21200001 C .15300001 .23400001 .15900001 .255 .164 .277 C .174 .314 .229 .43100003 .32200004 .43100003 C .36800004 .43100003 .36800004 .38 .36800004 .364 C .36800004 .344 .36400003 .322 .36 .304 L .294 .040000004 C .291 .029000003 .291 .026 .291 .024 C .291 .013 .29900003 0 .317 0 C .34 0 .35000003 .018000002 .354 .035 L .41500003 .28100003 Z "/>
</symbol>
<symbol id="font_1_8">
<path d="M .16600001 .412 L .24900002 .412 C .266 .412 .27600003 .412 .27600003 .43 C .27600003 .441 .26900003 .441 .252 .441 L .17300001 .441 L .213 .598 C .21400002 .6 .215 .609 .215 .611 C .215 .62 .208 .635 .18900001 .635 C .164 .635 .155 .61300006 .15100001 .598 L .112 .441 L .027000003 .441 C .009000003 .441 0 .441 0 .42200003 C 0 .412 .008000001 .412 .024000004 .412 L .105000007 .412 L .033 .124000009 C .028000005 .104 .028000005 .092 .028000005 .088 C .028000005 .042000005 .055000009 0 .11 0 C .208 0 .25800003 .14800002 .25800003 .15300001 C .25800003 .16200002 .24900002 .16200002 .245 .16200002 C .234 .16200002 .23300001 .16000001 .22800002 .14900002 C .21600002 .118 .17700002 .020000002 .112 .020000002 C .097 .020000002 .083000008 .027000003 .083000008 .060000004 C .083000008 .075 .087 .098000008 .091000009 .113000009 L .16600001 .412 Z "/>
</symbol>
<symbol id="font_1_7">
<path d="M .30800004 .37800003 C .272 .374 .27 .344 .27 .34 C .27 .329 .277 .315 .29700003 .315 C .32000003 .315 .337 .333 .337 .367 C .337 .41300003 .29700003 .451 .23300001 .451 C .113000009 .451 .07800001 .349 .07800001 .306 C .07800001 .269 .097 .24800001 .106000009 .23800002 C .12300001 .22200002 .142 .21700002 .185 .20700002 C .21000001 .202 .261 .19000001 .261 .135 C .261 .108 .23700002 .020000002 .127 .020000002 C .091000009 .020000002 .041 .034 .030000002 .081 C .07800001 .083000008 .07800001 .124000009 .07800001 .126 C .07800001 .14700002 .060000004 .15500002 .047000007 .15500002 C .039000006 .15500002 0 .15100001 0 .096 C 0 .035 .05700001 0 .126 0 C .266 0 .31 .111 .31 .165 C .31 .25100003 .23900002 .267 .19100002 .278 C .164 .284 .128 .292 .128 .337 C .128 .363 .15 .43100003 .231 .43100003 C .272 .43100003 .30100004 .41 .30800004 .37800003 Z "/>
</symbol>
<symbol id="font_1_a">
<path d="M .32 .38300003 C .29500003 .382 .273 .363 .273 .33900003 C .273 .314 .29500003 .30900003 .30400003 .30900003 C .314 .30900003 .351 .315 .351 .367 C .351 .414 .30900003 .451 .248 .451 C .12600002 .451 0 .31 0 .16200002 C 0 .060000004 .060999998 0 .141 0 C .26500003 0 .347 .101 .347 .115 C .347 .122 .33900003 .13000001 .333 .13000001 C .33 .13000001 .329 .12900001 .321 .120000008 C .268 .048000006 .19299999 .020000002 .14199999 .020000002 C .091 .020000002 .064 .065000008 .064 .124000009 C .064 .17000002 .08800001 .28 .121 .337 C .155 .397 .204 .43100003 .24700001 .43100003 C .253 .43100003 .306 .43100003 .32 .38300003 Z "/>
</symbol>
<symbol id="font_1_6">
<path d="M .169 .296 C .17200002 .308 .21700001 .43100003 .301 .43100003 C .30600003 .43100003 .33400003 .43100003 .356 .417 C .34100003 .41300003 .32200004 .398 .32200004 .373 C .32200004 .352 .33800004 .344 .35300002 .344 C .37100003 .344 .39800004 .357 .39800004 .393 C .39800004 .444 .33 .451 .30200003 .451 C .256 .451 .21800003 .42900003 .181 .377 C .17200002 .43600003 .12900001 .451 .102 .451 C .078999999 .451 .053000004 .441 .031999999 .398 C .012999997 .361 0 .301 0 .299 C 0 .291 .0050000029 .289 .013999999 .289 C .024999999 .289 .026 .29 .031999999 .313 C .047000007 .372 .066 .43100003 .10000001 .43100003 C .126 .43100003 .126 .402 .126 .39000003 C .126 .37100003 .12200001 .349 .118 .335 L .045 .043 C .041 .029000003 .041 .028 .041 .024 C .041 .012000001 .048999996 0 .067 0 C .09 0 .10000001 .019000002 .104 .035 L .169 .296 Z "/>
</symbol>
<symbol id="font_1_e">
<path d="M .548 .7020001 C .549 .70500007 .551 .71300008 .551 .7160001 C .551 .7250001 .543 .7250001 .541 .7250001 C .538 .7250001 .535 .7250001 .527 .71400007 L .48200003 .65400007 C .44500003 .7250001 .37100003 .7250001 .35300002 .7250001 C .23600003 .7250001 .12600002 .609 .12600002 .48900003 C .12600002 .467 .12799999 .42600004 .164 .38700003 C .185 .36400003 .20300001 .35900004 .272 .33900003 C .284 .335 .32500003 .323 .33300004 .321 C .37500004 .307 .39300005 .268 .39300005 .223 C .39300005 .13200002 .31500004 .029000003 .224 .029000003 C .14700002 .029000003 .076 .068 .076 .17 C .076 .18 .078 .207 .084 .231 L .085 .23900001 C .085 .24800001 .077 .24800001 .072000008 .24800001 C .060999998 .24800001 .059000009 .24700001 .055 .231 L .0029999987 .023000002 C .0019999967 .020000002 0 .012000001 0 .0090000019 C 0 0 .008000001 0 .009999998 0 C .013999999 0 .015000001 .0010000002 .024999999 .013000001 L .07 .073 C .09700001 .032 .14200002 0 .22100002 0 C .34200005 0 .45400004 .128 .45400004 .25800003 C .45400004 .337 .41400004 .38200004 .36400003 .398 C .35600005 .4 .286 .421 .26700003 .42700003 C .23500002 .43600003 .18800003 .45000003 .18800003 .52500006 C .18800003 .61100009 .26700003 .6980001 .351 .6980001 C .47100006 .6980001 .47100006 .586 .47100006 .55500009 C .47100006 .54200008 .47100006 .52500006 .46700005 .49600003 C .465 .49 .465 .488 .465 .48700003 C .465 .47700004 .47200004 .47700004 .479 .47700004 C .49000005 .47700004 .492 .47800002 .49600003 .49400003 L .548 .7020001 Z "/>
</symbol>
<symbol id="font_1_3">
<path d="M .07400001 .066 C .06600001 .034999998 .059000009 .029 .021 .029 C .01 .029 0 .029 0 .00999999 C 0 .002000004 .007000001 0 .012 0 C .038000004 0 .067 .002000004 .094000007 .002000004 C .12400001 .002000004 .156 0 .18500002 0 C .19100002 0 .20300001 0 .20300001 .017999992 C .20300001 .029 .19700001 .029 .179 .029 C .157 .029 .13100001 .029 .13100001 .044 C .13100001 .053000004 .13200002 .060000004 .179 .244 C .18900001 .21900001 .21400002 .184 .261 .184 C .37 .184 .485 .338 .485 .483 C .485 .57000008 .439 .635 .37 .635 C .307 .635 .25500003 .571 .25 .564 C .24100003 .61300006 .20500002 .635 .171 .635 C .148 .635 .12200001 .625 .101 .582 C .082 .545 .069000009 .485 .069000009 .483 C .069000009 .47500003 .07400001 .47300003 .083000008 .47300003 C .094000007 .47300003 .095000009 .474 .101 .497 C .11600001 .556 .135 .615 .16900002 .615 C .19500001 .615 .19500001 .586 .19500001 .574 C .19500001 .55500009 .19100002 .53400006 .187 .51900008 L .07400001 .066 M .243 .50200006 C .25100003 .533 .312 .615 .367 .615 C .40300004 .615 .42200003 .578 .42200003 .52500006 C .42200003 .469 .388 .344 .36800004 .30200003 C .333 .23200001 .29200004 .20400001 .261 .20400001 C .19900002 .20400001 .19300002 .298 .19300002 .29900003 C .19300002 .30200003 .194 .305 .19600001 .31300003 L .243 .50200006 Z "/>
</symbol>
<symbol id="font_1_d">
<path d="M .236 .633 C .236 .652 .222 .66300007 .20500002 .66300007 C .187 .66300007 .16100002 .647 .16100002 .619 C .16100002 .597 .17700002 .58900007 .192 .58900007 C .21200001 .58900007 .236 .607 .236 .633 M .052 .123 C .044 .101 .044 .088 .044 .079 C .044 .021000002 .083000008 0 .11600001 0 C .208 0 .24000001 .14900002 .24000001 .15300001 C .24000001 .16200002 .231 .16200002 .227 .16200002 C .215 .16200002 .21400002 .15900001 .21000001 .14400001 C .201 .11 .17500001 .020000002 .118 .020000002 C .10700001 .020000002 .095 .025000003 .095 .049000004 C .095 .075 .109 .111 .127 .16000001 L .18600002 .322 C .19500003 .347 .197 .35500003 .197 .373 C .197 .42400003 .164 .451 .125 .451 C .033 .451 0 .303 0 .298 C 0 .289 .009000003 .289 .013999999 .289 C .026 .289 .027000003 .292 .031000004 .306 C .039000006 .338 .065 .43100003 .12300001 .43100003 C .14500001 .43100003 .14500001 .412 .14500001 .40100003 C .14500001 .375 .13900002 .358 .132 .34 L .052 .123 Z "/>
</symbol>
<use xlink:href="#font_1_4" transform="matrix(33.20889,0,0,-33.20889,55.923749,25.416687)"/>
<use xlink:href="#font_1_9" transform="matrix(33.20889,0,0,-33.20889,76.92007,25.748776)"/>
<use xlink:href="#font_1_c" transform="matrix(33.20889,0,0,-33.20889,92.45766,25.748776)"/>
<use xlink:href="#font_1_f" transform="matrix(33.20889,0,0,-33.20889,109.75533,25.748776)"/>
<use xlink:href="#font_1_b" transform="matrix(33.20889,0,0,-33.20889,118.78608,25.748776)"/>
<use xlink:href="#font_1_1" transform="matrix(33.20889,0,0,-33.20889,132.75664,25.748776)"/>
<use xlink:href="#font_1_11" transform="matrix(33.20889,0,0,-33.20889,151.15642,19.106999)"/>
<use xlink:href="#font_1_5" transform="matrix(33.20889,0,0,-33.20889,162.22536,25.416687)"/>
<use xlink:href="#font_1_2" transform="matrix(33.20889,0,0,-33.20889,188.32009,25.748776)"/>
<use xlink:href="#font_1_f" transform="matrix(33.20889,0,0,-33.20889,204.42223,25.748776)"/>
<use xlink:href="#font_1_10" transform="matrix(33.20889,0,0,-33.20889,212.4235,25.748776)"/>
<use xlink:href="#font_1_b" transform="matrix(33.20889,0,0,-33.20889,240.11972,25.748776)"/>
<use xlink:href="#font_1_8" transform="matrix(33.20889,0,0,-33.20889,254.32273,25.748776)"/>
<use xlink:href="#font_1_7" transform="matrix(33.20889,0,0,-33.20889,264.45808,25.748776)"/>
<use xlink:href="#font_1_a" transform="matrix(33.20889,0,0,-33.20889,278.98695,25.748776)"/>
<use xlink:href="#font_1_c" transform="matrix(33.20889,0,0,-33.20889,292.79148,25.748776)"/>
<use xlink:href="#font_1_b" transform="matrix(33.20889,0,0,-33.20889,310.78657,25.748776)"/>
<use xlink:href="#font_1_6" transform="matrix(33.20889,0,0,-33.20889,324.75709,25.748776)"/>
<use xlink:href="#font_1_11" transform="matrix(33.20889,0,0,-33.20889,338.49024,19.106999)"/>
<use xlink:href="#font_1_e" transform="matrix(33.20889,0,0,-33.20889,349.7252,26.114075)"/>
<use xlink:href="#font_1_3" transform="matrix(33.20889,0,0,-33.20889,366.13249,31.859211)"/>
<use xlink:href="#font_1_d" transform="matrix(33.20889,0,0,-33.20889,385.0906,25.748776)"/>
<use xlink:href="#font_1_b" transform="matrix(33.20889,0,0,-33.20889,396.12016,25.748776)"/>
<use xlink:href="#font_1_f" transform="matrix(33.20889,0,0,-33.20889,410.42277,25.748776)"/>
<symbol id="font_0_6">
<path d="M .29500003 .433 C .29500003 .451 .29500003 .456 .28500004 .456 C .277 .456 .25800003 .43400003 .25100003 .425 C .22000003 .45000003 .18900001 .456 .157 .456 C .036000007 .456 0 .39000003 0 .335 C 0 .324 0 .289 .038000004 .254 C .07000001 .22600001 .10400001 .21900001 .15 .21000001 C .20500002 .19900002 .21800003 .19600001 .24300003 .17600002 C .261 .16100002 .27400003 .13900002 .27400003 .111 C .27400003 .068 .24900002 .020000002 .16100002 .020000002 C .095000009 .020000002 .047000007 .058000003 .025000003 .158 C .021000002 .17600002 .021000002 .17700002 .020000004 .17800002 C .018000003 .18200001 .014000002 .18200001 .011000004 .18200001 C 0 .18200001 0 .17700002 0 .15900001 L 0 .023000002 C 0 .0050000005 0 0 .010000002 0 C .015000001 0 .016000003 .0010000002 .033 .022 C .038000004 .029000003 .038000004 .031000004 .053000004 .047000003 C .091000009 0 .14500001 0 .162 0 C .26700003 0 .31900005 .058000003 .31900005 .13700001 C .31900005 .19100002 .286 .22300002 .277 .23200003 C .24100003 .263 .21400002 .269 .148 .28100003 C .11800001 .287 .045 .301 .045 .361 C .045 .39200003 .06600001 .43800003 .15600002 .43800003 C .26500003 .43800003 .27100004 .345 .27300004 .314 C .27400003 .306 .28100003 .306 .284 .306 C .29500003 .306 .29500003 .31100003 .29500003 .329 L .29500003 .433 Z "/>
</symbol>
<symbol id="font_0_2">
<path d="M .42900003 .22400002 C .42900003 .35300002 .33100004 .456 .215 .456 C .095 .456 0 .35 0 .22400002 C 0 .096 .10000001 0 .21400002 0 C .33200003 0 .42900003 .098000008 .42900003 .22400002 M .215 .022 C .178 .022 .133 .038000004 .104 .087000008 C .07700001 .13200002 .076000008 .19100002 .076000008 .23300001 C .076000008 .271 .076000008 .33200003 .10700001 .377 C .135 .42000003 .179 .43600003 .21400002 .43600003 C .25300003 .43600003 .29500003 .418 .32200004 .379 C .35300002 .333 .35300002 .27 .35300002 .23300001 C .35300002 .19800002 .35300002 .136 .32700003 .089 C .29900003 .041 .25300003 .022 .215 .022 Z "/>
</symbol>
<symbol id="font_0_16">
<path d="M .139 .694 L 0 .683 L 0 .65400007 C .068 .65400007 .076000008 .647 .076000008 .59800007 L .076000008 .074 C .076000008 .029000001 .065000008 .029000001 0 .029000001 L 0 0 C .028000005 .002 .07700001 .002 .107 .002 C .137 .002 .187 .002 .215 0 L .215 .029000001 C .15100003 .029000001 .139 .029000001 .139 .074 L .139 .694 Z "/>
</symbol>
<symbol id="font_0_10">
<path d="M .35300002 .24200002 C .37500004 .24200002 .377 .24200002 .377 .261 C .377 .36200003 .323 .456 .202 .456 C .08800001 .456 0 .35300002 0 .22900002 C 0 .097 .102 0 .21300002 0 C .33200003 0 .377 .108 .377 .12900001 C .377 .135 .372 .13900002 .36600004 .13900002 C .358 .13900002 .356 .134 .354 .12900001 C .328 .045 .261 .022 .21900001 .022 C .17700002 .022 .076000008 .050000006 .076000008 .22300002 L .076000008 .24200002 L .35300002 .24200002 M .07700001 .261 C .085 .418 .17300001 .43600003 .201 .43600003 C .30800004 .43600003 .314 .29500003 .31500004 .261 L .07700001 .261 Z "/>
</symbol>
<symbol id="font_0_1">
<path d="M .41300003 .24300002 C .41300003 .33600004 .41300003 .36400003 .39000003 .39600004 C .361 .43500004 .314 .441 .28 .441 C .183 .441 .145 .358 .13700001 .33800004 L .136 .33800004 L .136 .441 L 0 .43 L 0 .40100003 C .068 .40100003 .076000008 .39400003 .076000008 .34500004 L .076000008 .074 C .076000008 .029000001 .065 .029000001 0 .029000001 L 0 0 C .026 .002 .08 .002 .107999999 .002 C .13700001 .002 .191 .002 .21700001 0 L .21700001 .029000001 C .153 .029000001 .141 .029000001 .141 .074 L .141 .26000003 C .141 .365 .21000001 .42100004 .272 .42100004 C .33400003 .42100004 .34800003 .37 .34800003 .30900003 L .34800003 .074 C .34800003 .029000001 .337 .029000001 .272 .029000001 L .272 0 C .298 .002 .352 .002 .38000003 .002 C .409 .002 .46300004 .002 .48900003 0 L .48900003 .029000001 C .439 .029000001 .414 .029000001 .41300003 .059000005 L .41300003 .24300002 Z "/>
</symbol>
<symbol id="font_0_14">
<path d="M .154 .43800003 C .103 .451 .058000003 .50100007 .058000003 .56500008 C .058000003 .63500007 .11400001 .6980001 .192 .6980001 C .35600005 .6980001 .37800003 .5360001 .38400004 .49300004 C .38600005 .481 .38600005 .47700004 .39600004 .47700004 C .40700004 .47700004 .40700004 .48200003 .40700004 .50000008 L .40700004 .7020001 C .40700004 .7200001 .40700004 .7250001 .39700005 .7250001 C .39400003 .7250001 .39000006 .7250001 .38300003 .7120001 L .35000003 .6510001 C .30200003 .71300008 .23600002 .7250001 .192 .7250001 C .081 .7250001 0 .63600006 0 .53400006 C 0 .48600004 .017 .44200004 .054 .402 C .089 .363 .124 .354 .19500001 .33600004 C .23 .328 .28500004 .314 .29900003 .308 C .34600003 .285 .37700004 .231 .37700004 .17500001 C .37700004 .10000001 .32400004 .029000003 .24100001 .029000003 C .196 .029000003 .134 .040000004 .08500001 .083000008 C .026999999 .135 .023000006 .207 .022000004 .24000001 C .021000002 .24800001 .013 .24800001 .011000004 .24800001 C 0 .24800001 0 .24300002 0 .22500001 L 0 .023000002 C 0 .005000001 0 0 .010000002 0 C .015999999 0 .017 .0020000004 .024 .014000001 C .028 .022000002 .049000008 .059000005 .057000009 .074 C .092999998 .034 .156 0 .242 0 C .35400004 0 .43500004 .095 .43500004 .20500002 C .43500004 .266 .41200004 .31100003 .38500003 .344 C .34800003 .38900004 .30300004 .4 .26400004 .41000004 L .154 .43800003 Z "/>
</symbol>
<symbol id="font_0_13">
<path d="M .141 .61600008 C .141 .642 .12000001 .665 .092 .665 C .06600001 .665 .044000009 .64400008 .044000009 .61700007 C .044000009 .587 .068 .568 .092 .568 C .123 .568 .141 .59400007 .141 .61600008 M .0030000024 .43 L .0030000024 .40100003 C .067 .40100003 .076000008 .395 .076000008 .34600003 L .076000008 .074 C .076000008 .029000001 .065000008 .029000001 0 .029000001 L 0 0 C .028000005 .002 .076000008 .002 .10500001 .002 C .116000007 .002 .17400003 .002 .208 0 L .208 .029000001 C .143 .029000001 .139 .034 .139 .07300001 L .139 .441 L .0030000024 .43 Z "/>
</symbol>
<symbol id="font_0_3">
<path d="M .48100005 .648 C .48900006 .661 .48900006 .66200008 .48900006 .669 C .48900006 .683 .48400007 .683 .46500007 .683 L .025000003 .683 L .014000002 .46 L .036000004 .46 C .043 .573 .074 .65400007 .23600002 .65400007 L .39600004 .65400007 L 0 .024 C 0 .001 .001000002 0 .024 0 L .47800002 0 L .49400006 .264 L .47200004 .264 C .46500007 .123 .44400005 .031000002 .26200003 .031000002 L .092999998 .031000002 L .48100005 .648 Z "/>
</symbol>
<symbol id="font_0_c">
<path d="M .342 .277 C .342 .331 .342 .37100003 .298 .41 C .263 .442 .21800003 .456 .17400001 .456 C .09200001 .456 .029000003 .402 .029000003 .337 C .029000003 .308 .048000006 .294 .070999998 .294 C .09500001 .294 .112 .31100003 .112 .335 C .112 .37600003 .076000008 .37600003 .061 .37600003 C .08400001 .418 .13200002 .43600003 .172 .43600003 C .21800003 .43600003 .277 .398 .277 .308 L .277 .268 C .076000008 .26500003 0 .18100001 0 .104 C 0 .025000003 .09200001 0 .15300001 0 C .21900001 0 .26400004 .040000004 .28300003 .088 C .28700004 .041 .31800003 .0050000005 .36100004 .0050000005 C .38200004 .0050000005 .44000004 .019000002 .44000004 .099 L .44000004 .15500002 L .418 .15500002 L .418 .099 C .418 .042000005 .39400003 .034 .38000003 .034 C .342 .034 .342 .087000008 .342 .102000009 L .342 .277 M .277 .15100001 C .277 .053000004 .20400001 .020000002 .16100002 .020000002 C .112 .020000002 .070999998 .056000007 .070999998 .104 C .070999998 .23600002 .24100003 .24800001 .277 .25 L .277 .15100001 Z "/>
</symbol>
<symbol id="font_0_12">
<path d="M .41300003 .24300002 C .41300003 .33600004 .41300003 .36400003 .39000003 .39600004 C .361 .43500004 .314 .441 .28 .441 C .194 .441 .154 .37600003 .14 .34500004 L .139 .34500004 L .139 .694 L 0 .683 L 0 .65400007 C .068 .65400007 .076000008 .647 .076000008 .59800007 L .076000008 .074 C .076000008 .029000001 .065 .029000001 0 .029000001 L 0 0 C .026 .002 .08 .002 .107999999 .002 C .13700001 .002 .191 .002 .21700001 0 L .21700001 .029000001 C .153 .029000001 .141 .029000001 .141 .074 L .141 .26000003 C .141 .365 .21000001 .42100004 .272 .42100004 C .33400003 .42100004 .34800003 .37 .34800003 .30900003 L .34800003 .074 C .34800003 .029000001 .337 .029000001 .272 .029000001 L .272 0 C .298 .002 .352 .002 .38000003 .002 C .409 .002 .46300004 .002 .48900003 0 L .48900003 .029000001 C .439 .029000001 .414 .029000001 .41300003 .059000005 L .41300003 .24300002 Z "/>
</symbol>
<symbol id="font_0_a">
<path d="M .39000003 .34600003 C .39900003 .368 .416 .411 .48000003 .412 L .48000003 .441 C .451 .439 .437 .439 .40600003 .439 C .38500003 .439 .37 .439 .324 .441 L .324 .412 C .366 .41 .37100003 .38 .37100003 .36900003 C .37100003 .36 .36900003 .35500003 .36400003 .343 L .262 .085 L .15 .367 C .145 .381 .144 .381 .144 .386 C .144 .412 .182 .412 .2 .412 L .2 .441 C .175 .439 .123 .439 .09600001 .439 C .063 .439 .061000006 .439 0 .441 L 0 .412 C .056 .412 .06600001 .40800003 .078 .377 L .221 .019000002 C .22600001 .0050000005 .228 0 .24000001 0 C .24700001 0 .25300003 .0020000004 .26000003 .019000002 L .39000003 .34600003 Z "/>
</symbol>
<symbol id="font_0_5">
<path d="M .13900002 .23300001 C .13900002 .33 .17900002 .42100004 .256 .42100004 C .26400004 .42100004 .266 .42100004 .27 .42000003 C .26200003 .416 .24600002 .41000004 .24600002 .38300003 C .24600002 .354 .26900003 .34300003 .28500004 .34300003 C .305 .34300003 .32500003 .356 .32500003 .38300003 C .32500003 .41300003 .298 .441 .25500003 .441 C .17000002 .441 .14100002 .349 .135 .33 L .134 .33 L .134 .441 L 0 .43 L 0 .40100003 C .068 .40100003 .076000008 .39400003 .076000008 .34500004 L .076000008 .074 C .076000008 .029000001 .065 .029000001 0 .029000001 L 0 0 C .028 .002 .083000008 .002 .113000009 .002 C .14000002 .002 .21100001 .002 .23400003 0 L .23400003 .029000001 L .21400002 .029000001 C .14100002 .029000001 .13900002 .040000004 .13900002 .076000008 L .13900002 .23300001 Z "/>
</symbol>
<symbol id="font_0_e">
<path d="M .32700003 .38 C .31500004 .38 .27800004 .38 .27800004 .33900003 C .27800004 .315 .29500003 .298 .319 .298 C .342 .298 .36100004 .312 .36100004 .34100003 C .36100004 .40800003 .291 .456 .21000001 .456 C .09300001 .456 0 .352 0 .22600001 C 0 .098000008 .096000019 0 .20900002 0 C .34100003 0 .37100003 .120000008 .37100003 .12900001 C .37100003 .13800001 .36400003 .13800001 .36100004 .13800001 C .35200004 .13800001 .351 .135 .34800003 .123 C .32600004 .052000006 .272 .022 .21800003 .022 C .157 .022 .076000008 .075 .076000008 .22700002 C .076000008 .393 .16100002 .43400003 .21100001 .43400003 C .24900002 .43400003 .30400003 .419 .32700003 .38 Z "/>
</symbol>
<symbol id="font_0_f">
<path d="M .26500003 .693 L .26500003 .66400006 C .33300004 .66400006 .34100003 .657 .34100003 .60800006 L .34100003 .387 C .32000003 .416 .277 .451 .21600002 .451 C .10000001 .451 0 .35300002 0 .22500001 C 0 .098000008 .09500001 0 .20500002 0 C .28100003 0 .32500003 .050000006 .33900003 .069000009 L .33900003 0 L .48000006 .010000001 L .48000006 .039 C .41200004 .039 .404 .046000005 .404 .095 L .404 .704 L .26500003 .693 M .33900003 .127 C .33900003 .109000008 .33900003 .106 .32500003 .084 C .30100004 .049000004 .26000003 .020000002 .21000001 .020000002 C .18400002 .020000002 .076000008 .030000002 .076000008 .22400002 C .076000008 .296 .088 .336 .110000018 .36900003 C .13000001 .4 .17000002 .43100003 .22000003 .43100003 C .282 .43100003 .31700004 .386 .32700003 .37 C .33900003 .35300002 .33900003 .351 .33900003 .333 L .33900003 .127 Z "/>
</symbol>
<symbol id="font_0_4">
<path d="M 0 .683 L 0 .65400007 L .02 .65400007 C .092 .65400007 .095000009 .64400008 .095000009 .60700008 L .095000009 .076000008 C .095000009 .039 .092 .029000001 .02 .029000001 L 0 .029000001 L 0 0 L .35000003 0 C .517 0 .651 .15 .651 .335 C .651 .528 .51600006 .683 .35000003 .683 L 0 .683 M .22000003 .029000001 C .176 .029000001 .174 .036000004 .174 .069000009 L .174 .614 C .174 .647 .176 .65400007 .22000003 .65400007 L .32500003 .65400007 C .40800003 .65400007 .47400005 .614 .51500007 .54800006 C .56000009 .47700004 .56000009 .37600003 .56000009 .33600004 C .56000009 .28 .559 .186 .50200006 .112 C .46900005 .07 .40900005 .029000001 .32500003 .029000001 L .22000003 .029000001 Z "/>
</symbol>
<symbol id="font_0_7">
<path d="M .15 .412 L .291 .412 L .291 .441 L .15 .441 L .15 .625 L .128 .625 C .127 .531 .091000009 .435 0 .432 L 0 .412 L .08500001 .412 L .08500001 .134 C .08500001 .023000002 .159 0 .212 0 C .275 0 .308 .062000004 .308 .134 L .308 .19100002 L .286 .19100002 L .286 .136 C .286 .064 .257 .022 .21800001 .022 C .15 .022 .15 .115 .15 .13200002 L .15 .412 Z "/>
</symbol>
<symbol id="font_0_8">
<path d="M .272 .44 L .272 .411 C .34 .411 .34800003 .404 .34800003 .35500003 L .34800003 .17600002 C .34800003 .091 .303 .020000002 .22800002 .020000002 C .146 .020000002 .141 .067 .141 .120000008 L .141 .451 L 0 .44 L 0 .411 C .076000008 .411 .076000008 .40800003 .076000008 .319 L .076000008 .16900002 C .076000008 .107 .076000008 .071 .106000009 .038000004 C .13 .012000001 .171 0 .222 0 C .23900002 0 .271 0 .305 .029000003 C .33400003 .052000006 .35000003 .09 .35000003 .09 L .35000003 0 L .48900003 .010000001 L .48900003 .039 C .421 .039 .41300003 .046000005 .41300003 .095 L .41300003 .451 L .272 .44 Z "/>
</symbol>
<symbol id="font_0_11">
<path d="M .092 .38600005 C .13900002 .35500003 .17900002 .35500003 .19000001 .35500003 C .28 .35500003 .347 .42300005 .347 .5 C .347 .52700009 .33900003 .56500008 .307 .597 C .34600003 .637 .393 .637 .398 .637 C .402 .637 .407 .637 .411 .635 C .40100003 .63100007 .396 .62100008 .396 .61 C .396 .5960001 .40600003 .584 .42200003 .584 C .43 .584 .448 .589 .448 .61100009 C .448 .62900009 .43400003 .65700009 .39900003 .65700009 C .347 .65700009 .308 .625 .294 .61 C .264 .633 .22900002 .646 .19100002 .646 C .101 .646 .034 .57800009 .034 .50100007 C .034 .444 .069 .407 .079 .398 C .067 .38300003 .049000004 .35400004 .049000004 .31500004 C .049000004 .25700004 .08400001 .23200001 .092 .22700002 C .046000005 .21400002 0 .17800002 0 .12600002 C 0 .05700001 .094000007 0 .21700002 0 C .336 0 .435 .053000004 .435 .128 C .435 .15300001 .428 .21200001 .368 .24300002 C .317 .26900003 .267 .26900003 .18100001 .26900003 C .12 .26900003 .113 .26900003 .095000009 .28800003 C .085 .298 .076000008 .31700004 .076000008 .338 C .076000008 .35500003 .082 .37200005 .092 .38600005 M .19100002 .37600003 C .10300001 .37600003 .10300001 .47700004 .10300001 .5 C .10300001 .518 .10300001 .559 .12 .586 C .13900002 .615 .16900002 .625 .19000001 .625 C .278 .625 .278 .52400007 .278 .50100007 C .278 .48300005 .278 .44200004 .261 .41500003 C .24200003 .38600005 .21200001 .37600003 .19100002 .37600003 M .21800001 .020999998 C .122 .020999998 .049000004 .07000001 .049000004 .127 C .049000004 .13500002 .051 .17400001 .089 .20000002 C .11100001 .21400002 .12 .21400002 .19000001 .21400002 C .273 .21400002 .386 .21400002 .386 .127 C .386 .068 .31 .020999998 .21800001 .020999998 Z "/>
</symbol>
<symbol id="font_0_d">
<path d="M .13900002 .704 L 0 .693 L 0 .66400006 C .068 .66400006 .076000008 .657 .076000008 .60800006 L .076000008 .010000001 L .098000008 .010000001 C .10200001 .018000002 .13000001 .068 .134 .075 C .157 .038000004 .20000002 0 .26400004 0 C .379 0 .48000003 .097 .48000003 .22600001 C .48000003 .35300002 .38600005 .451 .275 .451 C .22000002 .451 .17300001 .426 .13900002 .384 L .13900002 .704 M .14100002 .33 C .14100002 .34800003 .14100002 .35 .15200001 .366 C .17600002 .402 .22000002 .43100003 .26900003 .43100003 C .29900003 .43100003 .404 .419 .404 .22700002 C .404 .16000001 .39400003 .118 .37000004 .082 C .35000003 .051000004 .31000004 .020000002 .26000003 .020000002 C .20600002 .020000002 .17100002 .055000005 .15400002 .082 C .14100002 .103 .14100002 .107 .14100002 .124000009 L .14100002 .33 Z "/>
</symbol>
<symbol id="font_0_1a">
<path d="M .09700001 .049000004 C .09700001 .076000008 .07400001 .097 .049000004 .097 C .020000004 .097 0 .074 0 .049000004 C 0 .019000002 .024999999 0 .048 0 C .074999999 0 .09700001 .021000002 .09700001 .049000004 Z "/>
</symbol>
<symbol id="font_0_18">
<path d="M .87600007 .60600009 C .892 .65400007 .921 .6740001 .971 .6750001 L .971 .70400008 C .92800006 .7020001 .926 .7020001 .882 .7020001 C .856 .7020001 .80200007 .7020001 .778 .70400008 L .778 .6750001 C .83900007 .6740001 .857 .6420001 .857 .62200006 C .857 .61700007 .85400006 .609 .852 .60200008 L .7 .128 L .538 .63100007 C .537 .63400009 .535 .6420001 .535 .64500007 C .535 .6750001 .588 .6750001 .612 .6750001 L .612 .70400008 C .588 .7020001 .514 .7020001 .48500005 .7020001 C .45600004 .7020001 .39500005 .7020001 .36900003 .70400008 L .36900003 .6750001 C .42200003 .6750001 .43600003 .67200008 .44700004 .65400007 C .45400004 .64100006 .46100004 .6100001 .47400005 .57400009 L .33100004 .128 L .171 .62600007 C .16600001 .64000007 .16600001 .6420001 .16600001 .64500007 C .16600001 .6750001 .21700001 .6750001 .24300002 .6750001 L .24300002 .70400008 C .22000002 .7020001 .14400001 .7020001 .116 .7020001 C .087 .7020001 .026 .7020001 0 .70400008 L 0 .6750001 C .054 .6750001 .073 .6750001 .08500001 .6370001 L .28300003 .019000002 C .28800003 .0040000008 .29200004 0 .30100004 0 C .30900003 0 .31400005 .0030000006 .31900005 .018000002 L .48500005 .53700008 L .652 .018000002 C .657 .0030000006 .662 0 .67 0 C .679 0 .683 .0040000008 .688 .019000002 L .87600007 .60600009 Z "/>
</symbol>
<use xlink:href="#font_0_6" transform="matrix(33.20889,0,0,-33.20889,427.76264,25.748776)"/>
<use xlink:href="#font_0_2" transform="matrix(33.20889,0,0,-33.20889,440.32969,25.748776)"/>
<use xlink:href="#font_0_16" transform="matrix(33.20889,0,0,-33.20889,456.7627,25.416687)"/>
<use xlink:href="#font_0_16" transform="matrix(33.20889,0,0,-33.20889,465.76228,25.416687)"/>
<use xlink:href="#font_0_10" transform="matrix(33.20889,0,0,-33.20889,474.66227,25.748776)"/>
<use xlink:href="#font_0_1" transform="matrix(33.20889,0,0,-33.20889,489.06205,25.416687)"/>
<use xlink:href="#font_0_14" transform="matrix(33.20889,0,0,-33.20889,520.1261,26.114075)"/>
<use xlink:href="#font_0_13" transform="matrix(33.20889,0,0,-33.20889,537.4288,25.416687)"/>
<use xlink:href="#font_0_10" transform="matrix(33.20889,0,0,-33.20889,546.32876,25.748776)"/>
<use xlink:href="#font_0_3" transform="matrix(33.20889,0,0,-33.20889,573.7923,25.416687)"/>
<use xlink:href="#font_0_c" transform="matrix(33.20889,0,0,-33.20889,593.4603,25.748776)"/>
<use xlink:href="#font_0_12" transform="matrix(33.20889,0,0,-33.20889,609.3952,25.416687)"/>
<use xlink:href="#font_0_16" transform="matrix(33.20889,0,0,-33.20889,627.4284,25.416687)"/>
<use xlink:href="#font_0_10" transform="matrix(33.20889,0,0,-33.20889,636.3284,25.748776)"/>
<use xlink:href="#font_0_1" transform="matrix(33.20889,0,0,-33.20889,650.7282,25.416687)"/>
<use xlink:href="#font_0_13" transform="matrix(33.20889,0,0,-33.20889,680.76199,25.416687)"/>
<use xlink:href="#font_0_1" transform="matrix(33.20889,0,0,-33.20889,689.72836,25.416687)"/>
<use xlink:href="#font_0_a" transform="matrix(33.20889,0,0,-33.20889,719.2631,25.748776)"/>
<use xlink:href="#font_0_10" transform="matrix(33.20889,0,0,-33.20889,735.6621,25.748776)"/>
<use xlink:href="#font_0_5" transform="matrix(33.20889,0,0,-33.20889,749.92916,25.416687)"/>
<use xlink:href="#font_0_6" transform="matrix(33.20889,0,0,-33.20889,762.7618,25.748776)"/>
<use xlink:href="#font_0_e" transform="matrix(33.20889,0,0,-33.20889,775.49496,25.748776)"/>
<use xlink:href="#font_0_12" transform="matrix(33.20889,0,0,-33.20889,788.7289,25.416687)"/>
<use xlink:href="#font_0_13" transform="matrix(33.20889,0,0,-33.20889,806.76217,25.416687)"/>
<use xlink:href="#font_0_10" transform="matrix(33.20889,0,0,-33.20889,815.6622,25.748776)"/>
<use xlink:href="#font_0_f" transform="matrix(33.20889,0,0,-33.20889,830.16159,25.748776)"/>
<use xlink:href="#font_0_10" transform="matrix(33.20889,0,0,-33.20889,847.9956,25.748776)"/>
<use xlink:href="#font_0_1" transform="matrix(33.20889,0,0,-33.20889,862.3953,25.416687)"/>
<use xlink:href="#font_0_10" transform="matrix(33.20889,0,0,-33.20889,880.329,25.748776)"/>
<use xlink:href="#font_0_4" transform="matrix(33.20889,0,0,-33.20889,908.7278,25.416687)"/>
<use xlink:href="#font_0_c" transform="matrix(33.20889,0,0,-33.20889,933.79428,25.748776)"/>
<use xlink:href="#font_0_5" transform="matrix(33.20889,0,0,-33.20889,949.5964,25.416687)"/>
<use xlink:href="#font_0_6" transform="matrix(33.20889,0,0,-33.20889,962.4291,25.748776)"/>
<use xlink:href="#font_0_7" transform="matrix(33.20889,0,0,-33.20889,974.5977,25.748776)"/>
<use xlink:href="#font_0_10" transform="matrix(33.20889,0,0,-33.20889,987.66287,25.748776)"/>
<use xlink:href="#font_0_16" transform="matrix(33.20889,0,0,-33.20889,1002.0958,25.416687)"/>
<use xlink:href="#font_0_16" transform="matrix(33.20889,0,0,-33.20889,1011.09548,25.416687)"/>
<use xlink:href="#font_0_8" transform="matrix(33.20889,0,0,-33.20889,1020.0619,25.748776)"/>
<use xlink:href="#font_0_1" transform="matrix(33.20889,0,0,-33.20889,1038.062,25.416687)"/>
<use xlink:href="#font_0_11" transform="matrix(33.20889,0,0,-33.20889,1055.8959,32.22451)"/>
<use xlink:href="#font_0_10" transform="matrix(33.20889,0,0,-33.20889,1072.3289,25.748776)"/>
<use xlink:href="#font_0_1" transform="matrix(33.20889,0,0,-33.20889,1086.7289,25.416687)"/>
<use xlink:href="#font_0_d" transform="matrix(33.20889,0,0,-33.20889,3.2632993,61.749357)"/>
<use xlink:href="#font_0_5" transform="matrix(33.20889,0,0,-33.20889,21.26335,61.417268)"/>
<use xlink:href="#font_0_13" transform="matrix(33.20889,0,0,-33.20889,34.096097,61.417268)"/>
<use xlink:href="#font_0_1" transform="matrix(33.20889,0,0,-33.20889,43.062498,61.417268)"/>
<use xlink:href="#font_0_11" transform="matrix(33.20889,0,0,-33.20889,60.896497,68.22509)"/>
<use xlink:href="#font_0_10" transform="matrix(33.20889,0,0,-33.20889,77.32949,61.749357)"/>
<use xlink:href="#font_0_1" transform="matrix(33.20889,0,0,-33.20889,91.72928,61.417268)"/>
<use xlink:href="#font_0_1a" transform="matrix(33.20889,0,0,-33.20889,111.555828,61.417268)"/>
<use xlink:href="#font_0_18" transform="matrix(33.20889,0,0,-33.20889,2.8980015,109.11441)"/>
<symbol id="font_2_1">
<path d="M .062000004 .37800003 C .08600001 .416 .13000001 .43600003 .17400001 .43600003 C .23100002 .43600003 .277 .37800003 .277 .323 L .277 .269 C .17600002 .269 0 .24100001 0 .104 L 0 .094000007 C .009 .026 .09200001 0 .15100001 0 C .20300001 0 .268 .032 .283 .087000008 L .284 .087000008 C .287 .040000004 .321 .0060000007 .361 .0060000007 C .403 .0060000007 .43600003 .042000005 .44 .083000008 L .44 .15600002 L .418 .15600002 L .418 .107 C .418 .078 .41300003 .035 .38 .035 C .34800003 .035 .341 .078 .341 .103 C .341 .114 .342 .125 .342 .136 L .342 .275 C .342 .286 .343 .298 .343 .30900003 C .343 .403 .256 .456 .17400001 .456 C .110000018 .456 .029000003 .418 .029000003 .34 C .029000003 .31100003 .048000006 .29500003 .072 .29500003 C .096000019 .29500003 .113000009 .314 .113000009 .337 C .113000009 .36200003 .09400001 .37800003 .07000001 .37800003 L .062000004 .37800003 M .277 .25100003 L .277 .15600002 C .277 .085 .23200001 .021000002 .16100002 .021000002 C .12300001 .021000002 .072 .051000004 .072 .102000009 C .072 .19000001 .15200001 .23500002 .23500003 .24700003 C .24900003 .24900002 .263 .24800001 .277 .25100003 M .09900001 .661 C .074 .657 .058000003 .637 .058000003 .614 C .058000003 .591 .075 .565 .104 .565 C .13100001 .565 .15500002 .58500006 .15500002 .61300006 C .15500002 .63600006 .13700001 .662 .10800001 .662 C .105000007 .662 .10200001 .661 .09900001 .661 M .289 .661 C .266 .658 .24700003 .638 .24700003 .614 C .24700003 .591 .26500003 .565 .294 .565 C .322 .565 .344 .586 .344 .61300006 C .344 .637 .326 .662 .297 .662 C .294 .662 .292 .661 .289 .661 Z "/>
</symbol>
<use xlink:href="#font_2_1" transform="matrix(33.20889,0,0,-33.20889,37.094766,108.749118)"/>
<symbol id="font_0_b">
<path d="M .587 .34600003 C .609 .409 .653 .411 .67 .412 L .67 .441 C .64500007 .439 .62700006 .439 .596 .439 C .56700006 .439 .565 .439 .51100006 .441 L .51100006 .412 C .556 .41 .568 .38300003 .568 .364 C .568 .363 .568 .356 .564 .34600003 L .472 .084 L .372 .367 C .367 .379 .367 .381 .367 .384 C .367 .412 .404 .412 .425 .412 L .425 .441 C .397 .439 .356 .439 .32700003 .439 C .29500003 .439 .293 .439 .23700002 .441 L .23700002 .412 C .275 .412 .28800003 .41 .299 .397 C .30400003 .391 .316 .358 .323 .338 L .238 .094000007 L .142 .366 C .137 .379 .137 .381 .137 .38500003 C .137 .412 .176 .412 .19500001 .412 L .19500001 .441 C .17 .439 .12000001 .439 .09300001 .439 C .065000008 .439 .063 .439 0 .441 L 0 .412 C .051000008 .412 .061000006 .40800003 .072000008 .37600003 L .198 .018000002 C .202 .0070000009 .205 0 .216 0 C .22500001 0 .23 .0030000006 .23500002 .019000002 L .335 .304 L .435 .019000002 C .44000004 .0030000006 .44500003 0 .45400004 0 C .465 0 .46800003 .0070000009 .472 .018000002 L .587 .34600003 Z "/>
</symbol>
<symbol id="font_0_15">
<path d="M .252 .26500003 C .252 .266 .245 .27400003 .245 .275 C .245 .27800004 .30800004 .33200003 .316 .34 C .38500003 .4 .42900003 .40100003 .45000003 .402 L .45000003 .43100003 C .43000005 .42900003 .404 .42900003 .374 .42900003 C .34800003 .42900003 .29700003 .42900003 .27400003 .43100003 L .27400003 .402 C .291 .40100003 .30300004 .39200003 .30300004 .37600003 C .30300004 .356 .28300003 .33800004 .282 .33800004 L .13900002 .21200001 L .13900002 .694 L 0 .683 L 0 .65400007 C .068 .65400007 .076000008 .647 .076000008 .59800007 L .076000008 .074 C .076000008 .029000001 .065 .029000001 0 .029000001 L 0 0 C .028 .002 .076000008 .002 .106000009 .002 C .136 .002 .18400002 .002 .21200001 0 L .21200001 .029000001 C .14800002 .029000001 .136 .029000001 .136 .074 L .136 .18 L .20000002 .23600002 L .296 .098000008 C .31100003 .07700001 .31800003 .066 .31800003 .052 C .31800003 .034 .30400003 .029000001 .28300003 .029000001 L .28300003 0 C .30800004 .002 .35700003 .002 .38400004 .002 C .42700003 .002 .42900003 .002 .472 0 L .472 .029000001 C .44500003 .029000001 .41400004 .029000001 .38600005 .07 L .252 .26500003 Z "/>
</symbol>
<symbol id="font_0_19">
<path d="M .09700001 .38300003 C .09700001 .41000004 .07400001 .43100003 .049000004 .43100003 C .020000004 .43100003 0 .40800003 0 .38300003 C 0 .35300002 .024999999 .33400003 .048 .33400003 C .074999999 .33400003 .09700001 .35500003 .09700001 .38300003 M .09700001 .049000004 C .09700001 .076000008 .07400001 .097 .049000004 .097 C .020000004 .097 0 .074 0 .049000004 C 0 .019000002 .024999999 0 .048 0 C .074999999 0 .09700001 .021000002 .09700001 .049000004 Z "/>
</symbol>
<use xlink:href="#font_0_12" transform="matrix(33.20889,0,0,-33.20889,53.063024,108.41702)"/>
<use xlink:href="#font_0_16" transform="matrix(33.20889,0,0,-33.20889,71.09628,108.41702)"/>
<use xlink:href="#font_0_10" transform="matrix(33.20889,0,0,-33.20889,79.99626,108.749118)"/>
<use xlink:href="#font_0_1" transform="matrix(33.20889,0,0,-33.20889,94.39605,108.41702)"/>
<use xlink:href="#font_0_14" transform="matrix(33.20889,0,0,-33.20889,124.45963,109.11441)"/>
<use xlink:href="#font_0_13" transform="matrix(33.20889,0,0,-33.20889,141.7623,108.41702)"/>
<use xlink:href="#font_0_10" transform="matrix(33.20889,0,0,-33.20889,150.66228,108.749118)"/>
<use xlink:href="#font_0_f" transform="matrix(33.20889,0,0,-33.20889,176.1613,108.749118)"/>
<use xlink:href="#font_0_10" transform="matrix(33.20889,0,0,-33.20889,193.99529,108.749118)"/>
<use xlink:href="#font_0_1" transform="matrix(33.20889,0,0,-33.20889,208.39508,108.41702)"/>
<use xlink:href="#font_0_14" transform="matrix(33.20889,0,0,-33.20889,238.12596,109.11441)"/>
<use xlink:href="#font_0_e" transform="matrix(33.20889,0,0,-33.20889,255.49506,108.749118)"/>
<use xlink:href="#font_0_12" transform="matrix(33.20889,0,0,-33.20889,268.72904,108.41702)"/>
<use xlink:href="#font_0_b" transform="matrix(33.20889,0,0,-33.20889,285.26396,108.749118)"/>
<use xlink:href="#font_0_13" transform="matrix(33.20889,0,0,-33.20889,309.09547,108.41702)"/>
<use xlink:href="#font_0_10" transform="matrix(33.20889,0,0,-33.20889,317.99546,108.749118)"/>
<use xlink:href="#font_0_5" transform="matrix(33.20889,0,0,-33.20889,332.2624,108.41702)"/>
<use xlink:href="#font_0_13" transform="matrix(33.20889,0,0,-33.20889,345.09513,108.41702)"/>
<use xlink:href="#font_0_11" transform="matrix(33.20889,0,0,-33.20889,353.89549,115.224849)"/>
<use xlink:href="#font_0_15" transform="matrix(33.20889,0,0,-33.20889,370.26203,108.41702)"/>
<use xlink:href="#font_0_10" transform="matrix(33.20889,0,0,-33.20889,386.32807,108.749118)"/>
<use xlink:href="#font_0_13" transform="matrix(33.20889,0,0,-33.20889,400.76109,108.41702)"/>
<use xlink:href="#font_0_7" transform="matrix(33.20889,0,0,-33.20889,409.2625,108.749118)"/>
<use xlink:href="#font_0_6" transform="matrix(33.20889,0,0,-33.20889,422.4273,108.749118)"/>
<use xlink:href="#font_0_11" transform="matrix(33.20889,0,0,-33.20889,434.8947,115.224849)"/>
<use xlink:href="#font_0_5" transform="matrix(33.20889,0,0,-33.20889,451.26133,108.41702)"/>
<use xlink:href="#font_0_c" transform="matrix(33.20889,0,0,-33.20889,464.45936,108.749118)"/>
<use xlink:href="#font_0_f" transform="matrix(33.20889,0,0,-33.20889,480.49388,108.749118)"/>
<use xlink:href="#font_0_19" transform="matrix(33.20889,0,0,-33.20889,500.22077,108.41702)"/>
</g>
</svg>
