<?xml version="1.0" encoding="UTF-8" standalone="no"?>
<!DOCTYPE svg PUBLIC "-//W3C//DTD SVG 1.1//EN" "http://www.w3.org/Graphics/SVG/1.1/DTD/svg11.dtd">
<svg xmlns="http://www.w3.org/2000/svg" xmlns:xlink="http://www.w3.org/1999/xlink" version="1.1" width="1106.9722pt" height="498.1389pt" viewBox="0 0 1106.9722 498.1389">
<g enable-background="new">
<symbol id="font_0_1">
<path d="M 0 .704 L 0 .675 C .012000002 .675 .024000004 .676 .035000005 .676 C .068 .676 .09600001 .671 .09600001 .631 C .09600001 .623 .095000009 .614 .095000009 .607 L .095000009 .268 C .095000009 .24800001 .095000009 .22700002 .09800001 .207 C .11800001 .091000009 .215 0 .344 0 C .456 0 .53800007 .10300001 .554 .21000001 C .556 .23200001 .556 .25300003 .556 .27500005 L .556 .596 C .556 .666 .605 .675 .651 .675 L .651 .704 L .43400003 .704 L .43400003 .675 C .47800005 .675 .52900007 .666 .52900007 .6 L .52900007 .27100004 C .52900007 .205 .518 .142 .473 .091000009 C .439 .053000004 .39000003 .029000003 .338 .029000003 C .266 .029000003 .20899999 .08400001 .18800003 .15100001 C .17700002 .18800001 .176 .22500001 .176 .263 L .176 .632 C .176 .671 .20700002 .676 .239 .676 C .25 .676 .261 .675 .271 .675 L .271 .704 L 0 .704 M .22299999 .882 C .20200002 .879 .18200001 .86 .18200001 .836 C .18200001 .81 .20300001 .786 .231 .786 L .23700002 .786 C .259 .78900006 .279 .81 .279 .834 C .279 .857 .261 .883 .232 .883 C .229 .883 .22600001 .882 .22299999 .882 M .41300003 .882 C .388 .878 .372 .857 .372 .832 C .374 .806 .396 .786 .421 .786 C .449 .786 .46900005 .809 .46900005 .834 C .46900005 .857 .451 .883 .42200003 .883 C .419 .883 .416 .882 .41300003 .882 Z "/>
</symbol>
<use xlink:href="#font_0_1" transform="matrix(33.20889,0,0,-33.20889,3.6944643,30.080834)"/>
<symbol id="font_1_d">
<path d="M .13900002 .704 L 0 .693 L 0 .66400006 C .068 .66400006 .076000008 .657 .076000008 .60800006 L .076000008 .010000001 L .098000008 .010000001 C .10200001 .018000002 .13000001 .068 .134 .075 C .157 .038000004 .20000002 0 .26400004 0 C .379 0 .48000003 .097 .48000003 .22600001 C .48000003 .35300002 .38600005 .451 .275 .451 C .22000002 .451 .17300001 .426 .13900002 .384 L .13900002 .704 M .14100002 .33 C .14100002 .34800003 .14100002 .35 .15200001 .366 C .17600002 .402 .22000002 .43100003 .26900003 .43100003 C .29900003 .43100003 .404 .419 .404 .22700002 C .404 .16000001 .39400003 .118 .37000004 .082 C .35000003 .051000004 .31000004 .020000002 .26000003 .020000002 C .20600002 .020000002 .17100002 .055000005 .15400002 .082 C .14100002 .103 .14100002 .107 .14100002 .124000009 L .14100002 .33 Z "/>
</symbol>
<symbol id="font_1_12">
<path d="M .35300002 .24200002 C .37500004 .24200002 .377 .24200002 .377 .261 C .377 .36200003 .323 .456 .202 .456 C .08800001 .456 0 .35300002 0 .22900002 C 0 .097 .102 0 .21300002 0 C .33200003 0 .377 .108 .377 .12900001 C .377 .135 .372 .13900002 .36600004 .13900002 C .358 .13900002 .356 .134 .354 .12900001 C .328 .045 .261 .022 .21900001 .022 C .17700002 .022 .076000008 .050000006 .076000008 .22300002 L .076000008 .24200002 L .35300002 .24200002 M .07700001 .261 C .085 .418 .17300001 .43600003 .201 .43600003 C .30800004 .43600003 .314 .29500003 .31500004 .261 L .07700001 .261 Z "/>
</symbol>
<symbol id="font_1_5">
<path d="M .13900002 .23300001 C .13900002 .33 .17900002 .42100004 .256 .42100004 C .26400004 .42100004 .266 .42100004 .27 .42000003 C .26200003 .416 .24600002 .41000004 .24600002 .38300003 C .24600002 .354 .26900003 .34300003 .28500004 .34300003 C .305 .34300003 .32500003 .356 .32500003 .38300003 C .32500003 .41300003 .298 .441 .25500003 .441 C .17000002 .441 .14100002 .349 .135 .33 L .134 .33 L .134 .441 L 0 .43 L 0 .40100003 C .068 .40100003 .076000008 .39400003 .076000008 .34500004 L .076000008 .074 C .076000008 .029000001 .065 .029000001 0 .029000001 L 0 0 C .028 .002 .083000008 .002 .113000009 .002 C .14000002 .002 .21100001 .002 .23400003 0 L .23400003 .029000001 L .21400002 .029000001 C .14100002 .029000001 .13900002 .040000004 .13900002 .076000008 L .13900002 .23300001 Z "/>
</symbol>
<symbol id="font_1_6">
<path d="M .29500003 .433 C .29500003 .451 .29500003 .456 .28500004 .456 C .277 .456 .25800003 .43400003 .25100003 .425 C .22000003 .45000003 .18900001 .456 .157 .456 C .036000007 .456 0 .39000003 0 .335 C 0 .324 0 .289 .038000004 .254 C .07000001 .22600001 .10400001 .21900001 .15 .21000001 C .20500002 .19900002 .21800003 .19600001 .24300003 .17600002 C .261 .16100002 .27400003 .13900002 .27400003 .111 C .27400003 .068 .24900002 .020000002 .16100002 .020000002 C .095000009 .020000002 .047000007 .058000003 .025000003 .158 C .021000002 .17600002 .021000002 .17700002 .020000004 .17800002 C .018000003 .18200001 .014000002 .18200001 .011000004 .18200001 C 0 .18200001 0 .17700002 0 .15900001 L 0 .023000002 C 0 .0050000005 0 0 .010000002 0 C .015000001 0 .016000003 .0010000002 .033 .022 C .038000004 .029000003 .038000004 .031000004 .053000004 .047000003 C .091000009 0 .14500001 0 .162 0 C .26700003 0 .31900005 .058000003 .31900005 .13700001 C .31900005 .19100002 .286 .22300002 .277 .23200003 C .24100003 .263 .21400002 .269 .148 .28100003 C .11800001 .287 .045 .301 .045 .361 C .045 .39200003 .06600001 .43800003 .15600002 .43800003 C .26500003 .43800003 .27100004 .345 .27300004 .314 C .27400003 .306 .28100003 .306 .284 .306 C .29500003 .306 .29500003 .31100003 .29500003 .329 L .29500003 .433 Z "/>
</symbol>
<symbol id="font_1_7">
<path d="M .15 .412 L .291 .412 L .291 .441 L .15 .441 L .15 .625 L .128 .625 C .127 .531 .091000009 .435 0 .432 L 0 .412 L .08500001 .412 L .08500001 .134 C .08500001 .023000002 .159 0 .212 0 C .275 0 .308 .062000004 .308 .134 L .308 .19100002 L .286 .19100002 L .286 .136 C .286 .064 .257 .022 .21800001 .022 C .15 .022 .15 .115 .15 .13200002 L .15 .412 Z "/>
</symbol>
<symbol id="font_1_10">
<path d="M .354 .40300004 C .363 .41400004 .363 .416 .363 .42000003 C .363 .43100003 .356 .43100003 .33900003 .43100003 L .025 .43100003 L .014 .272 L .036 .272 C .042000005 .374 .061000006 .411 .17000002 .411 L .286 .411 L 0 .018000002 C 0 0 .0020000004 0 .024000003 0 L .35 0 L .366 .18400002 L .344 .18400002 C .335 .07 .31800003 .022000002 .19900002 .022000002 L .078 .022000002 L .354 .40300004 Z "/>
</symbol>
<symbol id="font_1_2">
<path d="M .41300003 .24300002 C .41300003 .33600004 .41300003 .36400003 .39000003 .39600004 C .361 .43500004 .314 .441 .28 .441 C .183 .441 .145 .358 .13700001 .33800004 L .136 .33800004 L .136 .441 L 0 .43 L 0 .40100003 C .068 .40100003 .076000008 .39400003 .076000008 .34500004 L .076000008 .074 C .076000008 .029000001 .065 .029000001 0 .029000001 L 0 0 C .026 .002 .08 .002 .107999999 .002 C .13700001 .002 .191 .002 .21700001 0 L .21700001 .029000001 C .153 .029000001 .141 .029000001 .141 .074 L .141 .26000003 C .141 .365 .21000001 .42100004 .272 .42100004 C .33400003 .42100004 .34800003 .37 .34800003 .30900003 L .34800003 .074 C .34800003 .029000001 .337 .029000001 .272 .029000001 L .272 0 C .298 .002 .352 .002 .38000003 .002 C .409 .002 .46300004 .002 .48900003 0 L .48900003 .029000001 C .439 .029000001 .414 .029000001 .41300003 .059000005 L .41300003 .24300002 Z "/>
</symbol>
<symbol id="font_1_16">
<path d="M .154 .43800003 C .103 .451 .058000003 .50100007 .058000003 .56500008 C .058000003 .63500007 .11400001 .6980001 .192 .6980001 C .35600005 .6980001 .37800003 .5360001 .38400004 .49300004 C .38600005 .481 .38600005 .47700004 .39600004 .47700004 C .40700004 .47700004 .40700004 .48200003 .40700004 .50000008 L .40700004 .7020001 C .40700004 .7200001 .40700004 .7250001 .39700005 .7250001 C .39400003 .7250001 .39000006 .7250001 .38300003 .7120001 L .35000003 .6510001 C .30200003 .71300008 .23600002 .7250001 .192 .7250001 C .081 .7250001 0 .63600006 0 .53400006 C 0 .48600004 .017 .44200004 .054 .402 C .089 .363 .124 .354 .19500001 .33600004 C .23 .328 .28500004 .314 .29900003 .308 C .34600003 .285 .37700004 .231 .37700004 .17500001 C .37700004 .10000001 .32400004 .029000003 .24100001 .029000003 C .196 .029000003 .134 .040000004 .08500001 .083000008 C .026999999 .135 .023000006 .207 .022000004 .24000001 C .021000002 .24800001 .013 .24800001 .011000004 .24800001 C 0 .24800001 0 .24300002 0 .22500001 L 0 .023000002 C 0 .005000001 0 0 .010000002 0 C .015999999 0 .017 .0020000004 .024 .014000001 C .028 .022000002 .049000008 .059000005 .057000009 .074 C .092999998 .034 .156 0 .242 0 C .35400004 0 .43500004 .095 .43500004 .20500002 C .43500004 .266 .41200004 .31100003 .38500003 .344 C .34800003 .38900004 .30300004 .4 .26400004 .41000004 L .154 .43800003 Z "/>
</symbol>
<symbol id="font_1_15">
<path d="M .141 .61600008 C .141 .642 .12000001 .665 .092 .665 C .06600001 .665 .044000009 .64400008 .044000009 .61700007 C .044000009 .587 .068 .568 .092 .568 C .123 .568 .141 .59400007 .141 .61600008 M .0030000024 .43 L .0030000024 .40100003 C .067 .40100003 .076000008 .395 .076000008 .34600003 L .076000008 .074 C .076000008 .029000001 .065000008 .029000001 0 .029000001 L 0 0 C .028000005 .002 .076000008 .002 .10500001 .002 C .116000007 .002 .17400003 .002 .208 0 L .208 .029000001 C .143 .029000001 .139 .034 .139 .07300001 L .139 .441 L .0030000024 .43 Z "/>
</symbol>
<symbol id="font_1_a">
<path d="M .39000003 .34600003 C .39900003 .368 .416 .411 .48000003 .412 L .48000003 .441 C .451 .439 .437 .439 .40600003 .439 C .38500003 .439 .37 .439 .324 .441 L .324 .412 C .366 .41 .37100003 .38 .37100003 .36900003 C .37100003 .36 .36900003 .35500003 .36400003 .343 L .262 .085 L .15 .367 C .145 .381 .144 .381 .144 .386 C .144 .412 .182 .412 .2 .412 L .2 .441 C .175 .439 .123 .439 .09600001 .439 C .063 .439 .061000006 .439 0 .441 L 0 .412 C .056 .412 .06600001 .40800003 .078 .377 L .221 .019000002 C .22600001 .0050000005 .228 0 .24000001 0 C .24700001 0 .25300003 .0020000004 .26000003 .019000002 L .39000003 .34600003 Z "/>
</symbol>
<symbol id="font_1_3">
<path d="M .42900003 .22400002 C .42900003 .35300002 .33100004 .456 .215 .456 C .095 .456 0 .35 0 .22400002 C 0 .096 .10000001 0 .21400002 0 C .33200003 0 .42900003 .098000008 .42900003 .22400002 M .215 .022 C .178 .022 .133 .038000004 .104 .087000008 C .07700001 .13200002 .076000008 .19100002 .076000008 .23300001 C .076000008 .271 .076000008 .33200003 .10700001 .377 C .135 .42000003 .179 .43600003 .21400002 .43600003 C .25300003 .43600003 .29500003 .418 .32200004 .379 C .35300002 .333 .35300002 .27 .35300002 .23300001 C .35300002 .19800002 .35300002 .136 .32700003 .089 C .29900003 .041 .25300003 .022 .215 .022 Z "/>
</symbol>
<symbol id="font_1_19">
<path d="M .685 .24300002 C .685 .33600004 .685 .36400003 .662 .39600004 C .633 .43500004 .586 .441 .55200007 .441 C .46900005 .441 .42700003 .381 .411 .342 C .397 .41900004 .34300003 .441 .28 .441 C .183 .441 .145 .358 .13700001 .33800004 L .136 .33800004 L .136 .441 L 0 .43 L 0 .40100003 C .068 .40100003 .076000008 .39400003 .076000008 .34500004 L .076000008 .074 C .076000008 .029000001 .065 .029000001 0 .029000001 L 0 0 C .026 .002 .08 .002 .107999999 .002 C .13700001 .002 .191 .002 .21700001 0 L .21700001 .029000001 C .153 .029000001 .141 .029000001 .141 .074 L .141 .26000003 C .141 .365 .21000001 .42100004 .272 .42100004 C .33400003 .42100004 .34800003 .37 .34800003 .30900003 L .34800003 .074 C .34800003 .029000001 .337 .029000001 .272 .029000001 L .272 0 C .298 .002 .352 .002 .38000003 .002 C .409 .002 .46300004 .002 .48900003 0 L .48900003 .029000001 C .425 .029000001 .41300003 .029000001 .41300003 .074 L .41300003 .26000003 C .41300003 .365 .482 .42100004 .544 .42100004 C .606 .42100004 .62 .37 .62 .30900003 L .62 .074 C .62 .029000001 .609 .029000001 .544 .029000001 L .544 0 C .57000008 .002 .624 .002 .652 .002 C .68100008 .002 .735 .002 .76100006 0 L .76100006 .029000001 C .711 .029000001 .68600007 .029000001 .685 .059000005 L .685 .24300002 Z "/>
</symbol>
<symbol id="font_1_e">
<path d="M .38700003 .53800007 C .414 .605 .46100004 .606 .48000003 .606 L .48000003 .63500007 C .451 .633 .437 .633 .405 .633 C .382 .633 .38000003 .633 .324 .63500007 L .324 .606 C .361 .60400006 .37 .58100005 .37 .563 C .37 .554 .368 .549 .36400003 .53900006 L .262 .287 L .15100001 .559 C .145 .573 .145 .57900008 .145 .58000007 C .145 .606 .18 .606 .2 .606 L .2 .63500007 C .174 .633 .125 .633 .097 .633 C .059000009 .633 .057000005 .633 0 .63500007 L 0 .606 C .058000007 .606 .06600001 .601 .079 .57000008 L .228 .20400001 C .184 .098000008 .184 .09600001 .18 .08800001 C .163 .058 .136 .019999996 .091000009 .019999996 C .060000004 .019999996 .041 .038000004 .041 .038000004 C .041 .038000004 .076000008 .04200001 .076000008 .07700001 C .076000008 .101 .057000005 .11400001 .039000006 .11400001 C .022000002 .11400001 .0010000002 .10400001 .0010000002 .075 C .0010000002 .037 .038000004 0 .091000009 0 C .147 0 .18800001 .04900001 .214 .112 L .38700003 .53800007 Z "/>
</symbol>
<symbol id="font_1_18">
<path d="M .139 .694 L 0 .683 L 0 .65400007 C .068 .65400007 .076000008 .647 .076000008 .59800007 L .076000008 .074 C .076000008 .029000001 .065000008 .029000001 0 .029000001 L 0 0 C .028000005 .002 .07700001 .002 .107 .002 C .137 .002 .187 .002 .215 0 L .215 .029000001 C .15100003 .029000001 .139 .029000001 .139 .074 L .139 .694 Z "/>
</symbol>
<symbol id="font_1_17">
<path d="M .252 .26500003 C .252 .266 .245 .27400003 .245 .275 C .245 .27800004 .30800004 .33200003 .316 .34 C .38500003 .4 .42900003 .40100003 .45000003 .402 L .45000003 .43100003 C .43000005 .42900003 .404 .42900003 .374 .42900003 C .34800003 .42900003 .29700003 .42900003 .27400003 .43100003 L .27400003 .402 C .291 .40100003 .30300004 .39200003 .30300004 .37600003 C .30300004 .356 .28300003 .33800004 .282 .33800004 L .13900002 .21200001 L .13900002 .694 L 0 .683 L 0 .65400007 C .068 .65400007 .076000008 .647 .076000008 .59800007 L .076000008 .074 C .076000008 .029000001 .065 .029000001 0 .029000001 L 0 0 C .028 .002 .076000008 .002 .106000009 .002 C .136 .002 .18400002 .002 .21200001 0 L .21200001 .029000001 C .14800002 .029000001 .136 .029000001 .136 .074 L .136 .18 L .20000002 .23600002 L .296 .098000008 C .31100003 .07700001 .31800003 .066 .31800003 .052 C .31800003 .034 .30400003 .029000001 .28300003 .029000001 L .28300003 0 C .30800004 .002 .35700003 .002 .38400004 .002 C .42700003 .002 .42900003 .002 .472 0 L .472 .029000001 C .44500003 .029000001 .41400004 .029000001 .38600005 .07 L .252 .26500003 Z "/>
</symbol>
<symbol id="font_1_11">
<path d="M .26500003 .693 L .26500003 .66400006 C .33300004 .66400006 .34100003 .657 .34100003 .60800006 L .34100003 .387 C .32000003 .416 .277 .451 .21600002 .451 C .10000001 .451 0 .35300002 0 .22500001 C 0 .098000008 .09500001 0 .20500002 0 C .28100003 0 .32500003 .050000006 .33900003 .069000009 L .33900003 0 L .48000006 .010000001 L .48000006 .039 C .41200004 .039 .404 .046000005 .404 .095 L .404 .704 L .26500003 .693 M .33900003 .127 C .33900003 .109000008 .33900003 .106 .32500003 .084 C .30100004 .049000004 .26000003 .020000002 .21000001 .020000002 C .18400002 .020000002 .076000008 .030000002 .076000008 .22400002 C .076000008 .296 .088 .336 .110000018 .36900003 C .13000001 .4 .17000002 .43100003 .22000003 .43100003 C .282 .43100003 .31700004 .386 .32700003 .37 C .33900003 .35300002 .33900003 .351 .33900003 .333 L .33900003 .127 Z "/>
</symbol>
<symbol id="font_1_c">
<path d="M .342 .277 C .342 .331 .342 .37100003 .298 .41 C .263 .442 .21800003 .456 .17400001 .456 C .09200001 .456 .029000003 .402 .029000003 .337 C .029000003 .308 .048000006 .294 .070999998 .294 C .09500001 .294 .112 .31100003 .112 .335 C .112 .37600003 .076000008 .37600003 .061 .37600003 C .08400001 .418 .13200002 .43600003 .172 .43600003 C .21800003 .43600003 .277 .398 .277 .308 L .277 .268 C .076000008 .26500003 0 .18100001 0 .104 C 0 .025000003 .09200001 0 .15300001 0 C .21900001 0 .26400004 .040000004 .28300003 .088 C .28700004 .041 .31800003 .0050000005 .36100004 .0050000005 C .38200004 .0050000005 .44000004 .019000002 .44000004 .099 L .44000004 .15500002 L .418 .15500002 L .418 .099 C .418 .042000005 .39400003 .034 .38000003 .034 C .342 .034 .342 .087000008 .342 .102000009 L .342 .277 M .277 .15100001 C .277 .053000004 .20400001 .020000002 .16100002 .020000002 C .112 .020000002 .070999998 .056000007 .070999998 .104 C .070999998 .23600002 .24100003 .24800001 .277 .25 L .277 .15100001 Z "/>
</symbol>
<symbol id="font_1_f">
<path d="M .32700003 .38 C .31500004 .38 .27800004 .38 .27800004 .33900003 C .27800004 .315 .29500003 .298 .319 .298 C .342 .298 .36100004 .312 .36100004 .34100003 C .36100004 .40800003 .291 .456 .21000001 .456 C .09300001 .456 0 .352 0 .22600001 C 0 .098000008 .096000019 0 .20900002 0 C .34100003 0 .37100003 .120000008 .37100003 .12900001 C .37100003 .13800001 .36400003 .13800001 .36100004 .13800001 C .35200004 .13800001 .351 .135 .34800003 .123 C .32600004 .052000006 .272 .022 .21800003 .022 C .157 .022 .076000008 .075 .076000008 .22700002 C .076000008 .393 .16100002 .43400003 .21100001 .43400003 C .24900002 .43400003 .30400003 .419 .32700003 .38 Z "/>
</symbol>
<symbol id="font_1_14">
<path d="M .41300003 .24300002 C .41300003 .33600004 .41300003 .36400003 .39000003 .39600004 C .361 .43500004 .314 .441 .28 .441 C .194 .441 .154 .37600003 .14 .34500004 L .139 .34500004 L .139 .694 L 0 .683 L 0 .65400007 C .068 .65400007 .076000008 .647 .076000008 .59800007 L .076000008 .074 C .076000008 .029000001 .065 .029000001 0 .029000001 L 0 0 C .026 .002 .08 .002 .107999999 .002 C .13700001 .002 .191 .002 .21700001 0 L .21700001 .029000001 C .153 .029000001 .141 .029000001 .141 .074 L .141 .26000003 C .141 .365 .21000001 .42100004 .272 .42100004 C .33400003 .42100004 .34800003 .37 .34800003 .30900003 L .34800003 .074 C .34800003 .029000001 .337 .029000001 .272 .029000001 L .272 0 C .298 .002 .352 .002 .38000003 .002 C .409 .002 .46300004 .002 .48900003 0 L .48900003 .029000001 C .439 .029000001 .414 .029000001 .41300003 .059000005 L .41300003 .24300002 Z "/>
</symbol>
<symbol id="font_1_1b">
<path d="M .09700001 .049000004 C .09700001 .076000008 .07400001 .097 .049000004 .097 C .020000004 .097 0 .074 0 .049000004 C 0 .019000002 .024999999 0 .048 0 C .074999999 0 .09700001 .021000002 .09700001 .049000004 Z "/>
</symbol>
<symbol id="font_1_1a">
<path d="M .108 .18900001 C .108 .25100003 .087000008 .29000003 .048 .29000003 C .019000002 .29000003 0 .268 0 .24200002 C 0 .215 .019000002 .193 .049000004 .193 C .064 .193 .074999999 .2 .08100001 .205 C .084 .208 .085 .208 .086 .208 C .08800001 .208 .08800001 .194 .08800001 .18900001 C .08800001 .125 .062 .065 .018 .018999994 C .013999999 .016000003 .012999997 .013999999 .012999997 .00999999 C .012999997 .004999995 .018 0 .023000002 0 C .031999999 0 .108 .074 .108 .18900001 Z "/>
</symbol>
<symbol id="font_1_8">
<path d="M .272 .44 L .272 .411 C .34 .411 .34800003 .404 .34800003 .35500003 L .34800003 .17600002 C .34800003 .091 .303 .020000002 .22800002 .020000002 C .146 .020000002 .141 .067 .141 .120000008 L .141 .451 L 0 .44 L 0 .411 C .076000008 .411 .076000008 .40800003 .076000008 .319 L .076000008 .16900002 C .076000008 .107 .076000008 .071 .106000009 .038000004 C .13 .012000001 .171 0 .222 0 C .23900002 0 .271 0 .305 .029000003 C .33400003 .052000006 .35000003 .09 .35000003 .09 L .35000003 0 L .48900003 .010000001 L .48900003 .039 C .421 .039 .41300003 .046000005 .41300003 .095 L .41300003 .451 L .272 .44 Z "/>
</symbol>
<symbol id="font_1_13">
<path d="M .141 .402 L .25400005 .402 L .25400005 .43100003 L .139 .43100003 L .139 .54800006 C .139 .638 .185 .684 .226 .684 C .23400001 .684 .249 .68200007 .26100005 .67600008 C .25700004 .675 .23200001 .666 .23200001 .637 C .23200001 .614 .24800001 .59800007 .27100004 .59800007 C .29500003 .59800007 .31100003 .614 .31100003 .638 C .31100003 .675 .27500005 .70400008 .22700002 .70400008 C .157 .70400008 .078 .65000006 .078 .54800006 L .078 .43100003 L 0 .43100003 L 0 .402 L .078 .402 L .078 .074 C .078 .029000001 .067 .029000001 .0019999985 .029000001 L .0019999985 0 C .030000003 .002 .085 .002 .11500001 .002 C .142 .002 .21300002 .002 .23600002 0 L .23600002 .029000001 L .216 .029000001 C .143 .029000001 .141 .040000004 .141 .076000008 L .141 .402 Z "/>
</symbol>
<symbol id="font_1_9">
<path d="M .18100001 .60700008 C .18100001 .64400008 .18400002 .65400007 .259 .65400007 L .281 .65400007 L .281 .683 C .257 .68100008 .17100002 .68100008 .141 .68100008 C .111 .68100008 .024 .68100008 0 .683 L 0 .65400007 L .022 .65400007 C .097 .65400007 .10000001 .64400008 .10000001 .60700008 L .10000001 .076000008 C .10000001 .039 .097 .029000001 .022 .029000001 L 0 .029000001 L 0 0 C .024 .002 .110000018 .002 .14000002 .002 C .17000002 .002 .257 .002 .281 0 L .281 .029000001 L .259 .029000001 C .18400002 .029000001 .18100001 .039 .18100001 .076000008 L .18100001 .60700008 Z "/>
</symbol>
<symbol id="font_1_4">
<path d="M .21700001 .029 C .15300001 .029 .14100002 .029 .14100002 .074 L .14100002 .24800001 C .15900001 .223 .20000002 .184 .26400004 .184 C .379 .184 .48000003 .28100003 .48000003 .41000004 C .48000003 .53700008 .38600005 .635 .277 .635 C .18900001 .635 .142 .572 .13900002 .568 L .13900002 .635 L 0 .624 L 0 .595 C .07000001 .595 .076000008 .58800008 .076000008 .544 L .076000008 .074 C .076000008 .029 .065 .029 0 .029 L 0 0 C .026 .002000004 .08 .002000004 .10800001 .002000004 C .13700001 .002000004 .19100002 .002000004 .21700001 0 L .21700001 .029 M .14100002 .513 C .14100002 .53200009 .14100002 .533 .15200001 .549 C .18200001 .594 .231 .61300006 .26900003 .61300006 C .344 .61300006 .404 .522 .404 .41000004 C .404 .291 .33600004 .20400001 .259 .20400001 C .22800002 .20400001 .19900002 .21700001 .17900002 .236 C .15600002 .259 .14100002 .279 .14100002 .307 L .14100002 .513 Z "/>
</symbol>
<use xlink:href="#font_1_d" transform="matrix(33.20889,0,0,-33.20889,27.596528,29.748745)"/>
<use xlink:href="#font_1_12" transform="matrix(33.20889,0,0,-33.20889,46.66256,29.748745)"/>
<use xlink:href="#font_1_5" transform="matrix(33.20889,0,0,-33.20889,60.929513,29.416657)"/>
<use xlink:href="#font_1_6" transform="matrix(33.20889,0,0,-33.20889,73.76225,29.748745)"/>
<use xlink:href="#font_1_12" transform="matrix(33.20889,0,0,-33.20889,86.32934,29.748745)"/>
<use xlink:href="#font_1_7" transform="matrix(33.20889,0,0,-33.20889,100.264209,29.748745)"/>
<use xlink:href="#font_1_10" transform="matrix(33.20889,0,0,-33.20889,113.22978,29.416657)"/>
<use xlink:href="#font_1_12" transform="matrix(33.20889,0,0,-33.20889,127.66279,29.748745)"/>
<use xlink:href="#font_1_2" transform="matrix(33.20889,0,0,-33.20889,142.06256,29.416657)"/>
<use xlink:href="#font_1_16" transform="matrix(33.20889,0,0,-33.20889,172.45992,30.114045)"/>
<use xlink:href="#font_1_15" transform="matrix(33.20889,0,0,-33.20889,189.76259,29.416657)"/>
<use xlink:href="#font_1_12" transform="matrix(33.20889,0,0,-33.20889,198.66257,29.748745)"/>
<use xlink:href="#font_1_a" transform="matrix(33.20889,0,0,-33.20889,223.59705,29.748745)"/>
<use xlink:href="#font_1_3" transform="matrix(33.20889,0,0,-33.20889,239.99602,29.748745)"/>
<use xlink:href="#font_1_19" transform="matrix(33.20889,0,0,-33.20889,256.3958,29.416657)"/>
<use xlink:href="#font_1_16" transform="matrix(33.20889,0,0,-33.20889,295.12696,30.114045)"/>
<use xlink:href="#font_1_e" transform="matrix(33.20889,0,0,-33.20889,311.93153,36.19127)"/>
<use xlink:href="#font_1_6" transform="matrix(33.20889,0,0,-33.20889,329.4297,29.748745)"/>
<use xlink:href="#font_1_7" transform="matrix(33.20889,0,0,-33.20889,341.59825,29.748745)"/>
<use xlink:href="#font_1_12" transform="matrix(33.20889,0,0,-33.20889,354.66346,29.748745)"/>
<use xlink:href="#font_1_19" transform="matrix(33.20889,0,0,-33.20889,369.0632,29.416657)"/>
<use xlink:href="#font_1_18" transform="matrix(33.20889,0,0,-33.20889,407.43009,29.416657)"/>
<use xlink:href="#font_1_15" transform="matrix(33.20889,0,0,-33.20889,416.4297,29.416657)"/>
<use xlink:href="#font_1_2" transform="matrix(33.20889,0,0,-33.20889,425.39607,29.416657)"/>
<use xlink:href="#font_1_17" transform="matrix(33.20889,0,0,-33.20889,443.26325,29.416657)"/>
<use xlink:href="#font_1_6" transform="matrix(33.20889,0,0,-33.20889,460.42933,29.748745)"/>
<use xlink:href="#font_1_15" transform="matrix(33.20889,0,0,-33.20889,484.42918,29.416657)"/>
<use xlink:href="#font_1_2" transform="matrix(33.20889,0,0,-33.20889,493.39555,29.416657)"/>
<use xlink:href="#font_1_11" transform="matrix(33.20889,0,0,-33.20889,522.4954,29.748745)"/>
<use xlink:href="#font_1_c" transform="matrix(33.20889,0,0,-33.20889,540.7944,29.748745)"/>
<use xlink:href="#font_1_6" transform="matrix(33.20889,0,0,-33.20889,556.76248,29.748745)"/>
<use xlink:href="#font_1_16" transform="matrix(33.20889,0,0,-33.20889,581.1268,30.114045)"/>
<use xlink:href="#font_1_e" transform="matrix(33.20889,0,0,-33.20889,597.93136,36.19127)"/>
<use xlink:href="#font_1_6" transform="matrix(33.20889,0,0,-33.20889,615.42947,29.748745)"/>
<use xlink:href="#font_1_7" transform="matrix(33.20889,0,0,-33.20889,627.5981,29.748745)"/>
<use xlink:href="#font_1_12" transform="matrix(33.20889,0,0,-33.20889,640.6632,29.748745)"/>
<use xlink:href="#font_1_19" transform="matrix(33.20889,0,0,-33.20889,655.06307,29.416657)"/>
<use xlink:href="#font_1_5" transform="matrix(33.20889,0,0,-33.20889,693.26388,29.416657)"/>
<use xlink:href="#font_1_12" transform="matrix(33.20889,0,0,-33.20889,705.997,29.748745)"/>
<use xlink:href="#font_1_f" transform="matrix(33.20889,0,0,-33.20889,720.4964,29.748745)"/>
<use xlink:href="#font_1_14" transform="matrix(33.20889,0,0,-33.20889,733.7299,29.416657)"/>
<use xlink:href="#font_1_7" transform="matrix(33.20889,0,0,-33.20889,750.26486,29.748745)"/>
<use xlink:href="#font_1_6" transform="matrix(33.20889,0,0,-33.20889,763.4296,29.748745)"/>
<use xlink:href="#font_1_1b" transform="matrix(33.20889,0,0,-33.20889,777.8895,29.416657)"/>
<use xlink:href="#font_1_16" transform="matrix(33.20889,0,0,-33.20889,4.126179,77.1138)"/>
<use xlink:href="#font_1_3" transform="matrix(33.20889,0,0,-33.20889,21.329216,76.748508)"/>
<use xlink:href="#font_1_18" transform="matrix(33.20889,0,0,-33.20889,37.76222,76.41641)"/>
<use xlink:href="#font_1_18" transform="matrix(33.20889,0,0,-33.20889,46.761827,76.41641)"/>
<use xlink:href="#font_1_7" transform="matrix(33.20889,0,0,-33.20889,55.2633,76.748508)"/>
<use xlink:href="#font_1_12" transform="matrix(33.20889,0,0,-33.20889,68.32851,76.748508)"/>
<use xlink:href="#font_1_2" transform="matrix(33.20889,0,0,-33.20889,82.728298,76.41641)"/>
<use xlink:href="#font_1_16" transform="matrix(33.20889,0,0,-33.20889,112.45899,77.1138)"/>
<use xlink:href="#font_1_15" transform="matrix(33.20889,0,0,-33.20889,129.76165,76.41641)"/>
<use xlink:href="#font_1_12" transform="matrix(33.20889,0,0,-33.20889,138.66162,76.748508)"/>
<use xlink:href="#font_1_12" transform="matrix(33.20889,0,0,-33.20889,164.3288,76.748508)"/>
<use xlink:href="#font_1_15" transform="matrix(33.20889,0,0,-33.20889,178.76178,76.41641)"/>
<use xlink:href="#font_1_2" transform="matrix(33.20889,0,0,-33.20889,187.7282,76.41641)"/>
<use xlink:href="#font_1_16" transform="matrix(33.20889,0,0,-33.20889,217.45842,77.1138)"/>
<use xlink:href="#font_1_e" transform="matrix(33.20889,0,0,-33.20889,234.26297,83.191028)"/>
<use xlink:href="#font_1_6" transform="matrix(33.20889,0,0,-33.20889,251.76114,76.748508)"/>
<use xlink:href="#font_1_7" transform="matrix(33.20889,0,0,-33.20889,263.9297,76.748508)"/>
<use xlink:href="#font_1_12" transform="matrix(33.20889,0,0,-33.20889,276.9949,76.748508)"/>
<use xlink:href="#font_1_19" transform="matrix(33.20889,0,0,-33.20889,291.39469,76.41641)"/>
<use xlink:href="#font_1_2" transform="matrix(33.20889,0,0,-33.20889,329.7284,76.41641)"/>
<use xlink:href="#font_1_15" transform="matrix(33.20889,0,0,-33.20889,347.7617,76.41641)"/>
<use xlink:href="#font_1_f" transform="matrix(33.20889,0,0,-33.20889,356.82774,76.748508)"/>
<use xlink:href="#font_1_14" transform="matrix(33.20889,0,0,-33.20889,370.06126,76.41641)"/>
<use xlink:href="#font_1_7" transform="matrix(33.20889,0,0,-33.20889,386.59614,76.748508)"/>
<use xlink:href="#font_1_17" transform="matrix(33.20889,0,0,-33.20889,410.9279,76.41641)"/>
<use xlink:href="#font_1_12" transform="matrix(33.20889,0,0,-33.20889,426.99479,76.748508)"/>
<use xlink:href="#font_1_2" transform="matrix(33.20889,0,0,-33.20889,441.39457,76.41641)"/>
<use xlink:href="#font_1_2" transform="matrix(33.20889,0,0,-33.20889,459.39466,76.41641)"/>
<use xlink:href="#font_1_12" transform="matrix(33.20889,0,0,-33.20889,477.32829,76.748508)"/>
<use xlink:href="#font_1_2" transform="matrix(33.20889,0,0,-33.20889,491.72807,76.41641)"/>
<use xlink:href="#font_1_1a" transform="matrix(33.20889,0,0,-33.20889,511.5546,82.82573)"/>
<use xlink:href="#font_1_6" transform="matrix(33.20889,0,0,-33.20889,530.4276,76.748508)"/>
<use xlink:href="#font_1_3" transform="matrix(33.20889,0,0,-33.20889,542.9947,76.748508)"/>
<use xlink:href="#font_1_17" transform="matrix(33.20889,0,0,-33.20889,569.9286,76.41641)"/>
<use xlink:href="#font_1_18" transform="matrix(33.20889,0,0,-33.20889,587.0946,76.41641)"/>
<use xlink:href="#font_1_15" transform="matrix(33.20889,0,0,-33.20889,596.0942,76.41641)"/>
<use xlink:href="#font_1_f" transform="matrix(33.20889,0,0,-33.20889,605.1602,76.748508)"/>
<use xlink:href="#font_1_17" transform="matrix(33.20889,0,0,-33.20889,618.2612,76.41641)"/>
<use xlink:href="#font_1_12" transform="matrix(33.20889,0,0,-33.20889,634.32809,76.748508)"/>
<use xlink:href="#font_1_2" transform="matrix(33.20889,0,0,-33.20889,648.7279,76.41641)"/>
<use xlink:href="#font_1_16" transform="matrix(33.20889,0,0,-33.20889,679.1248,77.1138)"/>
<use xlink:href="#font_1_15" transform="matrix(33.20889,0,0,-33.20889,696.4275,76.41641)"/>
<use xlink:href="#font_1_12" transform="matrix(33.20889,0,0,-33.20889,705.32748,76.748508)"/>
<use xlink:href="#font_1_c" transform="matrix(33.20889,0,0,-33.20889,731.45956,76.748508)"/>
<use xlink:href="#font_1_8" transform="matrix(33.20889,0,0,-33.20889,747.3945,76.748508)"/>
<use xlink:href="#font_1_13" transform="matrix(33.20889,0,0,-33.20889,765.36129,76.41641)"/>
<use xlink:href="#font_1_11" transform="matrix(33.20889,0,0,-33.20889,786.1608,76.748508)"/>
<use xlink:href="#font_1_12" transform="matrix(33.20889,0,0,-33.20889,803.9949,76.748508)"/>
<use xlink:href="#font_1_2" transform="matrix(33.20889,0,0,-33.20889,818.3946,76.41641)"/>
<use xlink:href="#font_1_9" transform="matrix(33.20889,0,0,-33.20889,3.5284196,112.41583)"/>
<use xlink:href="#font_1_2" transform="matrix(33.20889,0,0,-33.20889,15.062281,112.41583)"/>
<use xlink:href="#font_1_13" transform="matrix(33.20889,0,0,-33.20889,33.02912,112.41583)"/>
<use xlink:href="#font_1_3" transform="matrix(33.20889,0,0,-33.20889,42.995939,112.747928)"/>
<use xlink:href="#font_1_5" transform="matrix(33.20889,0,0,-33.20889,59.262899,112.41583)"/>
<use xlink:href="#font_1_19" transform="matrix(33.20889,0,0,-33.20889,72.06244,112.41583)"/>
<use xlink:href="#font_1_c" transform="matrix(33.20889,0,0,-33.20889,99.46101,112.747928)"/>
<use xlink:href="#font_1_7" transform="matrix(33.20889,0,0,-33.20889,114.930957,112.747928)"/>
<use xlink:href="#font_1_15" transform="matrix(33.20889,0,0,-33.20889,128.09578,112.41583)"/>
<use xlink:href="#font_1_3" transform="matrix(33.20889,0,0,-33.20889,136.99578,112.747928)"/>
<use xlink:href="#font_1_2" transform="matrix(33.20889,0,0,-33.20889,153.39557,112.41583)"/>
<use xlink:href="#font_1_6" transform="matrix(33.20889,0,0,-33.20889,171.4288,112.747928)"/>
<use xlink:href="#font_1_17" transform="matrix(33.20889,0,0,-33.20889,183.92948,112.41583)"/>
<use xlink:href="#font_1_2" transform="matrix(33.20889,0,0,-33.20889,201.06233,112.41583)"/>
<use xlink:href="#font_1_3" transform="matrix(33.20889,0,0,-33.20889,218.99597,112.747928)"/>
<use xlink:href="#font_1_4" transform="matrix(33.20889,0,0,-33.20889,235.26293,118.85836)"/>
<use xlink:href="#font_1_13" transform="matrix(33.20889,0,0,-33.20889,253.36261,112.41583)"/>
<clipPath id="cp2">
<path transform="matrix(.27777777,0,0,-.27777777,0,498.1389)" d="M 1065.89 1424.47 L 1065.89 1424.47 L 1065.89 1426.73 L 1064.98 1433.5 L 1062.37 1441.91 L 1058.23 1449.53 L 1052.76 1456.16 L 1046.13 1461.64 L 1038.51 1465.77 L 1030.09 1468.38 L 1023.32 1469.3 L 1021.06 1469.3 L 1018.8 1469.3 L 1012.03 1468.38 L 1003.61 1465.77 L 995.996 1461.64 L 989.359 1456.16 L 983.887 1449.53 L 979.754 1441.91 L 977.141 1433.5 L 976.23 1426.73 L 976.23 1424.47 L 976.23 1422.21 L 977.141 1415.43 L 979.754 1407.02 L 983.887 1399.4 L 989.359 1392.77 L 995.996 1387.29 L 1003.61 1383.16 L 1012.03 1380.55 L 1018.8 1379.64 L 1021.06 1379.64 L 1023.32 1379.64 L 1030.09 1380.55 L 1038.51 1383.16 L 1046.13 1387.29 L 1052.76 1392.77 L 1058.23 1399.4 L 1062.37 1407.02 L 1064.98 1415.43 L 1065.89 1422.21 L 1065.89 1424.47 Z "/>
</clipPath>
<g clip-path="url(#cp2)">
<path transform="matrix(.27777777,0,0,-.27777777,0,498.1389)" d="M 976.23 1379.64 L 1065.894 1379.64 L 1065.894 1469.3002 L 976.23 1469.3002 Z " fill="#0771ca"/>
</g>
<path transform="matrix(.27777777,0,0,-.27777777,0,498.1389)" stroke-width="8.96637" stroke-linecap="butt" stroke-miterlimit="10" stroke-linejoin="miter" fill="none" stroke="#ffffff" d="M 1021.06 1437.92 L 1021.06 1397.57 "/>
<clipPath id="cp3">
<path transform="matrix(.27777777,0,0,-.27777777,0,498.1389)" d="M 1027.79 1451.37 L 1027.79 1451.37 L 1027.79 1452.02 L 1027.26 1453.98 L 1025.82 1456.12 L 1023.68 1457.56 L 1021.71 1458.09 L 1021.06 1458.09 L 1020.41 1458.09 L 1018.45 1457.56 L 1016.31 1456.12 L 1014.87 1453.98 L 1014.34 1452.02 L 1014.34 1451.37 L 1014.34 1450.71 L 1014.87 1448.75 L 1016.31 1446.61 L 1018.45 1445.17 L 1020.41 1444.64 L 1021.06 1444.64 L 1021.71 1444.64 L 1023.68 1445.17 L 1025.82 1446.61 L 1027.26 1448.75 L 1027.79 1450.71 L 1027.79 1451.37 Z "/>
</clipPath>
<g clip-path="url(#cp3)">
<path transform="matrix(.27777777,0,0,-.27777777,0,498.1389)" d="M 1014.34 1444.64 L 1027.7892 1444.64 L 1027.7892 1458.0892 L 1014.34 1458.0892 Z " fill="#ffffff"/>
</g>
<path transform="matrix(.27777777,0,0,-.27777777,0,498.1389)" stroke-width="5.37983" stroke-linecap="butt" stroke-miterlimit="10" stroke-linejoin="miter" fill="none" stroke="#ffffff" d="M 1010.3 1435.23 L 1021.06 1435.23 "/>
<path transform="matrix(.27777777,0,0,-.27777777,0,498.1389)" stroke-width="5.37983" stroke-linecap="butt" stroke-miterlimit="10" stroke-linejoin="miter" fill="none" stroke="#ffffff" d="M 1010.3 1400.26 L 1031.82 1400.26 "/>
<use xlink:href="#font_1_11" transform="matrix(33.20889,0,0,-33.20889,310.49565,112.74878)"/>
<use xlink:href="#font_1_12" transform="matrix(33.20889,0,0,-33.20889,328.32969,112.74878)"/>
<use xlink:href="#font_1_6" transform="matrix(33.20889,0,0,-33.20889,342.76268,112.74878)"/>
<use xlink:href="#font_1_16" transform="matrix(33.20889,0,0,-33.20889,367.1272,113.114078)"/>
<use xlink:href="#font_1_e" transform="matrix(33.20889,0,0,-33.20889,383.93174,119.1913)"/>
<use xlink:href="#font_1_6" transform="matrix(33.20889,0,0,-33.20889,401.4299,112.74878)"/>
<use xlink:href="#font_1_7" transform="matrix(33.20889,0,0,-33.20889,413.59843,112.74878)"/>
<use xlink:href="#font_1_12" transform="matrix(33.20889,0,0,-33.20889,426.66368,112.74878)"/>
<use xlink:href="#font_1_19" transform="matrix(33.20889,0,0,-33.20889,441.06346,112.41669)"/>
<use xlink:href="#font_1_6" transform="matrix(33.20889,0,0,-33.20889,468.09675,112.74878)"/>
<use xlink:href="#font_1_1b" transform="matrix(33.20889,0,0,-33.20889,482.55668,112.41669)"/>
<use xlink:href="#font_0_1" transform="matrix(33.20889,0,0,-33.20889,3.6949087,162.7478)"/>
<use xlink:href="#font_1_d" transform="matrix(33.20889,0,0,-33.20889,27.596972,162.41571)"/>
<use xlink:href="#font_1_12" transform="matrix(33.20889,0,0,-33.20889,46.663007,162.41571)"/>
<use xlink:href="#font_1_5" transform="matrix(33.20889,0,0,-33.20889,60.92996,162.08362)"/>
<use xlink:href="#font_1_4" transform="matrix(33.20889,0,0,-33.20889,73.59666,168.52614)"/>
<use xlink:href="#font_1_5" transform="matrix(33.20889,0,0,-33.20889,91.5967,162.08362)"/>
<symbol id="font_0_2">
<path d="M 0 .44 L 0 .411 L .013 .411 C .055000005 .411 .076000008 .407 .076000008 .347 L .076000008 .14700002 C .076000008 .116000007 .07700001 .084 .092999998 .057000005 C .119 .013 .17400001 0 .22100002 0 C .275 0 .33400003 .035 .349 .09 L .35000003 .0010000002 L .48900003 .011000001 L .48900003 .040000004 L .47000004 .040000004 C .441 .040000004 .41300003 .044000005 .41300003 .088 L .41300003 .451 L .272 .44 L .272 .411 L .284 .411 C .31800003 .411 .34800003 .409 .34800003 .361 L .34800003 .16300002 C .34300003 .093 .30400003 .022 .22600001 .022 C .18900001 .022 .153 .031000004 .143 .084 C .141 .103 .141 .123 .141 .142 L .141 .451 L 0 .44 M .142 .661 C .114999998 .657 .100999999 .635 .100999999 .614 C .100999999 .593 .117 .565 .148 .565 C .179 .565 .198 .58900007 .198 .61300006 C .198 .634 .18200001 .662 .15100001 .662 C .148 .662 .145 .661 .142 .661 M .33200003 .661 C .305 .657 .291 .635 .291 .614 C .291 .593 .307 .565 .338 .565 C .36900003 .565 .388 .58900007 .388 .614 C .388 .63600006 .37 .662 .34100003 .662 C .338 .662 .335 .661 .33200003 .661 Z "/>
</symbol>
<use xlink:href="#font_0_2" transform="matrix(33.20889,0,0,-33.20889,104.39647,162.41571)"/>
<symbol id="font_1_1">
<path d="M .35600005 .69600006 C .35200004 .708 .35000003 .71400007 .33600004 .71400007 C .32200004 .71400007 .32000003 .711 .31500004 .69500008 L .106000009 .097 C .092 .056 .064 .030000002 0 .029000001 L 0 0 C .061000006 .002 .063 .002 .096 .002 C .124 .002 .172 .002 .19800002 0 L .19800002 .029000001 C .156 .030000002 .131 .051000004 .131 .079 C .131 .085 .131 .087000008 .136 .1 L .18200001 .23300001 L .43400005 .23300001 L .48900006 .076000008 C .49400006 .064 .49400006 .062000004 .49400006 .059000005 C .49400006 .029000001 .44300006 .029000001 .41800005 .029000001 L .41800005 0 C .44100005 .002 .52 .002 .54800006 .002 C .57600006 .002 .648 .002 .671 0 L .671 .029000001 C .606 .029000001 .588 .029000001 .574 .07 L .35600005 .69600006 M .30800004 .595 L .42400003 .26200003 L .192 .26200003 L .30800004 .595 Z "/>
</symbol>
<symbol id="font_1_b">
<path d="M .587 .34600003 C .609 .409 .653 .411 .67 .412 L .67 .441 C .64500007 .439 .62700006 .439 .596 .439 C .56700006 .439 .565 .439 .51100006 .441 L .51100006 .412 C .556 .41 .568 .38300003 .568 .364 C .568 .363 .568 .356 .564 .34600003 L .472 .084 L .372 .367 C .367 .379 .367 .381 .367 .384 C .367 .412 .404 .412 .425 .412 L .425 .441 C .397 .439 .356 .439 .32700003 .439 C .29500003 .439 .293 .439 .23700002 .441 L .23700002 .412 C .275 .412 .28800003 .41 .299 .397 C .30400003 .391 .316 .358 .323 .338 L .238 .094000007 L .142 .366 C .137 .379 .137 .381 .137 .38500003 C .137 .412 .176 .412 .19500001 .412 L .19500001 .441 C .17 .439 .12000001 .439 .09300001 .439 C .065000008 .439 .063 .439 0 .441 L 0 .412 C .051000008 .412 .061000006 .40800003 .072000008 .37600003 L .198 .018000002 C .202 .0070000009 .205 0 .216 0 C .22500001 0 .23 .0030000006 .23500002 .019000002 L .335 .304 L .435 .019000002 C .44000004 .0030000006 .44500003 0 .45400004 0 C .465 0 .46800003 .0070000009 .472 .018000002 L .587 .34600003 Z "/>
</symbol>
<use xlink:href="#font_1_13" transform="matrix(33.20889,0,0,-33.20889,122.36348,162.08362)"/>
<use xlink:href="#font_1_12" transform="matrix(33.20889,0,0,-33.20889,132.33029,162.41571)"/>
<use xlink:href="#font_1_2" transform="matrix(33.20889,0,0,-33.20889,146.73007,162.08362)"/>
<use xlink:href="#font_1_16" transform="matrix(33.20889,0,0,-33.20889,176.79389,162.781)"/>
<use xlink:href="#font_1_15" transform="matrix(33.20889,0,0,-33.20889,194.09654,162.08362)"/>
<use xlink:href="#font_1_12" transform="matrix(33.20889,0,0,-33.20889,202.99654,162.41571)"/>
<use xlink:href="#font_1_6" transform="matrix(33.20889,0,0,-33.20889,228.42914,162.41571)"/>
<use xlink:href="#font_1_3" transform="matrix(33.20889,0,0,-33.20889,240.9962,162.41571)"/>
<use xlink:href="#font_1_11" transform="matrix(33.20889,0,0,-33.20889,258.49565,162.41571)"/>
<use xlink:href="#font_1_c" transform="matrix(33.20889,0,0,-33.20889,276.79457,162.41571)"/>
<use xlink:href="#font_1_2" transform="matrix(33.20889,0,0,-33.20889,292.72944,162.08362)"/>
<use xlink:href="#font_1_2" transform="matrix(33.20889,0,0,-33.20889,310.72953,162.08362)"/>
<use xlink:href="#font_1_9" transform="matrix(33.20889,0,0,-33.20889,339.86268,162.08362)"/>
<use xlink:href="#font_1_14" transform="matrix(33.20889,0,0,-33.20889,351.39649,162.08362)"/>
<use xlink:href="#font_1_5" transform="matrix(33.20889,0,0,-33.20889,369.26374,162.08362)"/>
<use xlink:href="#font_1_12" transform="matrix(33.20889,0,0,-33.20889,381.99687,162.41571)"/>
<use xlink:href="#font_1_1" transform="matrix(33.20889,0,0,-33.20889,407.3639,162.08362)"/>
<use xlink:href="#font_1_2" transform="matrix(33.20889,0,0,-33.20889,431.73048,162.08362)"/>
<use xlink:href="#font_1_7" transform="matrix(33.20889,0,0,-33.20889,448.2658,162.41571)"/>
<use xlink:href="#font_1_b" transform="matrix(33.20889,0,0,-33.20889,459.9325,162.41571)"/>
<use xlink:href="#font_1_3" transform="matrix(33.20889,0,0,-33.20889,482.664,162.41571)"/>
<use xlink:href="#font_1_5" transform="matrix(33.20889,0,0,-33.20889,498.93098,162.08362)"/>
<use xlink:href="#font_1_7" transform="matrix(33.20889,0,0,-33.20889,511.26557,162.41571)"/>
<use xlink:href="#font_1_1b" transform="matrix(33.20889,0,0,-33.20889,526.22366,162.08362)"/>
</g>
</svg>
