<?xml version="1.0" encoding="UTF-8" standalone="no"?>
<!DOCTYPE svg PUBLIC "-//W3C//DTD SVG 1.1//EN" "http://www.w3.org/Graphics/SVG/1.1/DTD/svg11.dtd">
<svg xmlns="http://www.w3.org/2000/svg" xmlns:xlink="http://www.w3.org/1999/xlink" version="1.1" width="1106.9722pt" height="88.55555pt" viewBox="0 0 1106.9722 88.55555">
<g enable-background="new">
<symbol id="font_0_1">
<path d="M 0 .68600007 L 0 .643 L .106000009 .643 L .106000009 .043 L 0 .043 L 0 0 L .421 0 C .61300006 0 .76100006 .123 .76100006 .337 C .76100006 .563 .609 .68600007 .421 .68600007 L 0 .68600007 M .23300003 .043 L .23300003 .643 L .38300003 .643 C .47000004 .643 .54 .609 .577 .55700007 C .60600009 .51600006 .62500008 .467 .62500008 .33800004 C .62500008 .22100002 .61 .16900002 .57500007 .12200001 C .54 .076000008 .47300006 .043 .38300003 .043 L .23300003 .043 Z "/>
</symbol>
<symbol id="font_0_5">
<path d="M .426 .30500005 C .426 .39700005 .35300002 .45900003 .21200001 .45900003 C .15600002 .45900003 .038000004 .45400004 .038000004 .37000004 C .038000004 .32800005 .07 .31000004 .09700001 .31000004 C .127 .31000004 .15600002 .33100004 .15600002 .36900003 C .15600002 .38800005 .14900002 .40600003 .132 .41700004 C .16500002 .42600004 .18900001 .42600004 .208 .42600004 C .276 .42600004 .317 .38800005 .317 .30600003 L .317 .26600004 C .15900001 .26600004 0 .222 0 .111 C 0 .02 .116000007 0 .185 0 C .262 0 .31100003 .042000005 .331 .086 C .331 .049000004 .331 .006 .432 .006 L .483 .006 C .50400009 .006 .512 .006 .512 .028 C .512 .049000004 .503 .049000004 .489 .049000004 C .426 .050000006 .426 .066 .426 .089 L .426 .30500005 M .317 .14500001 C .317 .051000004 .23300001 .033 .201 .033 C .15200001 .033 .11100001 .066 .11100001 .112 C .11100001 .20300001 .21900001 .23400001 .317 .23900001 L .317 .14500001 Z "/>
</symbol>
<symbol id="font_0_3">
<path d="M .339 .43300004 C .339 .45200003 .339 .45900003 .324 .45900003 C .31800003 .45900003 .31599999 .45900003 .301 .45000006 C .297 .44700004 .286 .44000004 .28100003 .43700005 C .25300003 .45300005 .216 .45900003 .18 .45900003 C .15 .45900003 0 .45900003 0 .32900004 C 0 .224 .124 .202 .155 .19700001 C .18200001 .192 .21500002 .186 .219 .186 C .259 .177 .29900003 .15200001 .29900003 .11 C .29900003 .033 .208 .033 .187 .033 C .136 .033 .07300001 .049000004 .045 .146 C .039000006 .16600001 .038000004 .16700001 .021000002 .16700001 C 0 .16700001 0 .164 0 .141 L 0 .026 C 0 .007 0 0 .015000001 0 C .022 0 .024 0 .044 .016 L .07 .035 C .11500001 0 .16900002 0 .187 0 C .242 0 .36700005 .012 .36700005 .14500001 C .36700005 .193 .34100003 .22600001 .32100005 .244 C .28000004 .27800004 .246 .28400005 .192 .29400004 C .128 .30500005 .068 .316 .068 .36400003 C .068 .42900003 .157 .42900003 .178 .42900003 C .28900004 .42900003 .29500003 .35900004 .297 .33400003 C .29800005 .32100005 .306 .32100005 .31800003 .32100005 C .339 .32100005 .339 .32400004 .339 .34700004 L .339 .43300004 Z "/>
</symbol>
<symbol id="font_0_9">
<path d="M .179 .623 C .179 .66400006 .14600002 .69500008 .10700001 .69500008 C .066 .69500008 .035 .661 .035 .623 C .035 .58500006 .066 .551 .10700001 .551 C .14600002 .551 .179 .582 .179 .623 M .0029999987 .44200004 L .0029999987 .39900003 C .062000004 .39900003 .069000009 .39900003 .069000009 .36 L .069000009 .043 L 0 .043 L 0 0 C .022999999 .002 .09200001 .002 .119 .002 C .14700002 .002 .21100003 .002 .23500002 0 L .23500002 .043 L .17300001 .043 L .17300001 .45000003 L .0029999987 .44200004 Z "/>
</symbol>
<symbol id="font_0_4">
<path d="M .19000001 .40700004 L .33400003 .40700004 L .33400003 .45000006 L .19000001 .45000006 L .19000001 .64100006 L .14800002 .64100006 C .14700002 .542 .09900001 .44300003 0 .44000004 L 0 .40700004 L .081 .40700004 L .081 .12900001 C .081 .023000002 .16300002 0 .23500002 0 C .30900003 0 .35300002 .056 .35300002 .13000001 L .35300002 .183 L .31100003 .183 L .31100003 .131 C .31100003 .065000008 .28100003 .036000004 .25000004 .036000004 C .19000001 .036000004 .19000001 .103 .19000001 .126 L .19000001 .40700004 Z "/>
</symbol>
<symbol id="font_0_2">
<path d="M .17300001 .22500001 C .17300001 .25800003 .18 .41700004 .29700003 .41700004 C .28300003 .40600003 .27600003 .38900004 .27600003 .37100003 C .27600003 .33 .30900003 .31300003 .33400003 .31300003 C .35900004 .31300003 .39200003 .33 .39200003 .37100003 C .39200003 .42200003 .34000004 .45000003 .29200004 .45000003 C .21300002 .45000003 .17900002 .381 .165 .33900003 L .16400002 .33900003 L .16400002 .45000003 L 0 .44200004 L 0 .39900003 C .062000004 .39900003 .069000009 .39900003 .069000009 .36 L .069000009 .043 L 0 .043 L 0 0 C .023000002 .002 .098000008 .002 .12600002 .002 C .15500002 .002 .23600003 .002 .26000003 0 L .26000003 .043 L .17300001 .043 L .17300001 .22500001 Z "/>
</symbol>
<symbol id="font_0_6">
<path d="M .43 .123 C .43 .135 .41900004 .135 .40900005 .135 C .393 .135 .39200003 .134 .38700003 .122 C .38 .103 .35300005 .036000004 .26100005 .036000004 C .120000008 .036000004 .120000008 .18800001 .120000008 .23300001 C .120000008 .29200004 .12100001 .42300005 .25200004 .42300005 C .259 .42300005 .31800003 .42100004 .31800003 .41600005 C .31800003 .41500003 .31700004 .41400004 .315 .41300003 C .31200005 .41000004 .29900003 .39500005 .29900003 .37000004 C .29900003 .32800005 .333 .31100003 .35800005 .31100003 C .379 .31100003 .417 .32400004 .417 .37100003 C .417 .45300005 .302 .45900003 .24800001 .45900003 C .07 .45900003 0 .34300003 0 .22800002 C 0 .092 .095 0 .242 0 C .399 0 .43 .116000007 .43 .123 Z "/>
</symbol>
<symbol id="font_0_8">
<path d="M .48900003 .30600003 C .48900003 .40100003 .448 .45000003 .33800004 .45000003 C .23700002 .45000003 .188 .379 .174 .349 L .17300001 .349 L .17300001 .694 L 0 .68600007 L 0 .643 C .062 .643 .069000009 .643 .069000009 .60400006 L .069000009 .043 L 0 .043 L 0 0 C .023000002 .002 .095000009 .002 .123 .002 C .151 .002 .224 .002 .24700001 0 L .24700001 .043 L .178 .043 L .178 .256 C .178 .36400003 .25800003 .41700004 .32200004 .41700004 C .35900004 .41700004 .38000003 .393 .38000003 .317 L .38000003 .043 L .31100003 .043 L .31100003 0 C .33400003 .002 .40600003 .002 .43400003 .002 C .462 .002 .535 .002 .558 0 L .558 .043 L .48900003 .043 L .48900003 .30600003 Z "/>
</symbol>
<symbol id="font_0_7">
<path d="M .09900001 .38300003 C .147 .357 .20300001 .357 .21800001 .357 C .35600005 .357 .41100005 .43400003 .41100005 .504 C .41100005 .555 .38200004 .591 .37000004 .601 C .39900003 .617 .42300005 .62100008 .44000004 .623 C .43700005 .61800006 .43400005 .614 .43400005 .601 C .43400005 .58000007 .44800005 .561 .474 .561 C .5 .561 .514 .58000007 .514 .601 C .514 .625 .49600003 .65700009 .45400004 .65700009 C .41100005 .65700009 .37000004 .63600006 .34900005 .61800006 C .30800004 .642 .26900003 .651 .21800001 .651 C .080000009 .651 .025 .574 .025 .504 C .025 .47300003 .034999998 .432 .077 .398 C .060000004 .379 .042000005 .344 .042000005 .30800004 C .042000005 .26500003 .065 .228 .086 .21200001 C .062 .206 0 .183 0 .126 C 0 .067 .065 0 .249 0 C .41500003 0 .49900005 .054000006 .49900005 .12900001 C .49900005 .21700001 .44100005 .246 .41600005 .25800003 C .36800004 .282 .30400003 .282 .216 .282 C .19100002 .282 .147 .282 .142 .283 C .09900001 .29000003 .087000008 .328 .087000008 .347 C .087000008 .35500003 .088 .37 .09900001 .38300003 M .21800001 .389 C .131 .389 .131 .458 .131 .504 C .131 .55 .131 .619 .21800001 .619 C .30500005 .619 .30500005 .55 .30500005 .504 C .30500005 .458 .30500005 .389 .21800001 .389 M .27400003 .19 C .34700004 .19 .41700004 .177 .41700004 .125 C .41700004 .089999999 .38200004 .03199999 .25000004 .03199999 C .118 .03199999 .082 .088 .082 .126 C .082 .19 .14500001 .19 .16000001 .19 L .27400003 .19 Z "/>
</symbol>
<symbol id="font_0_a">
<path d="M .142 .61300006 C .14400001 .62700006 .14400001 .629 .14400001 .64000007 C .14400001 .68500009 .103 .70600005 .072 .70600005 C .040999995 .70600005 0 .684 0 .64000007 C 0 .629 0 .62700006 .0019999967 .61300006 L .049999998 .23900001 C .052 .22000002 .053000004 .21700001 .072 .21700001 C .091000009 .21700001 .09200001 .22000002 .094 .23900001 L .142 .61300006 M .14400001 .072000008 C .14400001 .112 .112 .14400001 .072 .14400001 C .032000007 .14400001 0 .112 0 .072000008 C 0 .032 .032000007 0 .072 0 C .112 0 .14400001 .032 .14400001 .072000008 Z "/>
</symbol>
<use xlink:href="#font_0_1" transform="matrix(39.850557,0,0,-39.850557,412.18095,53.943883)" fill="#00ad56"/>
<use xlink:href="#font_0_5" transform="matrix(39.850557,0,0,-39.850557,446.3548,54.182989)" fill="#00ad56"/>
<use xlink:href="#font_0_3" transform="matrix(39.850557,0,0,-39.850557,468.1808,54.182989)" fill="#00ad56"/>
<use xlink:href="#font_0_9" transform="matrix(39.850557,0,0,-39.850557,501.08625,53.943883)" fill="#00ad56"/>
<use xlink:href="#font_0_3" transform="matrix(39.850557,0,0,-39.850557,513.1805,54.182989)" fill="#00ad56"/>
<use xlink:href="#font_0_4" transform="matrix(39.850557,0,0,-39.850557,530.16958,54.182989)" fill="#00ad56"/>
<use xlink:href="#font_0_2" transform="matrix(39.850557,0,0,-39.850557,563.3945,53.943883)" fill="#00ad56"/>
<use xlink:href="#font_0_9" transform="matrix(39.850557,0,0,-39.850557,582.0864,53.943883)" fill="#00ad56"/>
<use xlink:href="#font_0_6" transform="matrix(39.850557,0,0,-39.850557,594.1806,54.182989)" fill="#00ad56"/>
<use xlink:href="#font_0_8" transform="matrix(39.850557,0,0,-39.850557,613.007,53.943883)" fill="#00ad56"/>
<use xlink:href="#font_0_4" transform="matrix(39.850557,0,0,-39.850557,635.8365,54.182989)" fill="#00ad56"/>
<use xlink:href="#font_0_9" transform="matrix(39.850557,0,0,-39.850557,654.0863,53.943883)" fill="#00ad56"/>
<use xlink:href="#font_0_7" transform="matrix(39.850557,0,0,-39.850557,665.90158,61.953844)" fill="#00ad56"/>
<use xlink:href="#font_0_a" transform="matrix(39.850557,0,0,-39.850557,690.9446,53.943883)" fill="#00ad56"/>
</g>
</svg>
