<?xml version="1.0" encoding="UTF-8" standalone="no"?>
<!DOCTYPE svg PUBLIC "-//W3C//DTD SVG 1.1//EN" "http://www.w3.org/Graphics/SVG/1.1/DTD/svg11.dtd">
<svg xmlns="http://www.w3.org/2000/svg" xmlns:xlink="http://www.w3.org/1999/xlink" version="1.1" width="1106.9722pt" height="88.55555pt" viewBox="0 0 1106.9722 88.55555">
<g enable-background="new">
<symbol id="font_0_3">
<path d="M 0 .68600007 L 0 .643 L .106000009 .643 L .106000009 .043 L 0 .043 L 0 0 L .421 0 C .61300006 0 .76100006 .123 .76100006 .337 C .76100006 .563 .609 .68600007 .421 .68600007 L 0 .68600007 M .23300003 .043 L .23300003 .643 L .38300003 .643 C .47000004 .643 .54 .609 .577 .55700007 C .60600009 .51600006 .62500008 .467 .62500008 .33800004 C .62500008 .22100002 .61 .16900002 .57500007 .12200001 C .54 .076000008 .47300006 .043 .38300003 .043 L .23300003 .043 Z "/>
</symbol>
<symbol id="font_0_7">
<path d="M .426 .30500005 C .426 .39700005 .35300002 .45900003 .21200001 .45900003 C .15600002 .45900003 .038000004 .45400004 .038000004 .37000004 C .038000004 .32800005 .07 .31000004 .09700001 .31000004 C .127 .31000004 .15600002 .33100004 .15600002 .36900003 C .15600002 .38800005 .14900002 .40600003 .132 .41700004 C .16500002 .42600004 .18900001 .42600004 .208 .42600004 C .276 .42600004 .317 .38800005 .317 .30600003 L .317 .26600004 C .15900001 .26600004 0 .222 0 .111 C 0 .02 .116000007 0 .185 0 C .262 0 .31100003 .042000005 .331 .086 C .331 .049000004 .331 .006 .432 .006 L .483 .006 C .50400009 .006 .512 .006 .512 .028 C .512 .049000004 .503 .049000004 .489 .049000004 C .426 .050000006 .426 .066 .426 .089 L .426 .30500005 M .317 .14500001 C .317 .051000004 .23300001 .033 .201 .033 C .15200001 .033 .11100001 .066 .11100001 .112 C .11100001 .20300001 .21900001 .23400001 .317 .23900001 L .317 .14500001 Z "/>
</symbol>
<symbol id="font_0_5">
<path d="M .339 .43300004 C .339 .45200003 .339 .45900003 .324 .45900003 C .31800003 .45900003 .31599999 .45900003 .301 .45000006 C .297 .44700004 .286 .44000004 .28100003 .43700005 C .25300003 .45300005 .216 .45900003 .18 .45900003 C .15 .45900003 0 .45900003 0 .32900004 C 0 .224 .124 .202 .155 .19700001 C .18200001 .192 .21500002 .186 .219 .186 C .259 .177 .29900003 .15200001 .29900003 .11 C .29900003 .033 .208 .033 .187 .033 C .136 .033 .07300001 .049000004 .045 .146 C .039000006 .16600001 .038000004 .16700001 .021000002 .16700001 C 0 .16700001 0 .164 0 .141 L 0 .026 C 0 .007 0 0 .015000001 0 C .022 0 .024 0 .044 .016 L .07 .035 C .11500001 0 .16900002 0 .187 0 C .242 0 .36700005 .012 .36700005 .14500001 C .36700005 .193 .34100003 .22600001 .32100005 .244 C .28000004 .27800004 .246 .28400005 .192 .29400004 C .128 .30500005 .068 .316 .068 .36400003 C .068 .42900003 .157 .42900003 .178 .42900003 C .28900004 .42900003 .29500003 .35900004 .297 .33400003 C .29800005 .32100005 .306 .32100005 .31800003 .32100005 C .339 .32100005 .339 .32400004 .339 .34700004 L .339 .43300004 Z "/>
</symbol>
<symbol id="font_0_6">
<path d="M .19000001 .40700004 L .33400003 .40700004 L .33400003 .45000006 L .19000001 .45000006 L .19000001 .64100006 L .14800002 .64100006 C .14700002 .542 .09900001 .44300003 0 .44000004 L 0 .40700004 L .081 .40700004 L .081 .12900001 C .081 .023000002 .16300002 0 .23500002 0 C .30900003 0 .35300002 .056 .35300002 .13000001 L .35300002 .183 L .31100003 .183 L .31100003 .131 C .31100003 .065000008 .28100003 .036000004 .25000004 .036000004 C .19000001 .036000004 .19000001 .103 .19000001 .126 L .19000001 .40700004 Z "/>
</symbol>
<symbol id="font_0_d">
<path d="M .179 .623 C .179 .66400006 .14600002 .69500008 .10700001 .69500008 C .066 .69500008 .035 .661 .035 .623 C .035 .58500006 .066 .551 .10700001 .551 C .14600002 .551 .179 .582 .179 .623 M .0029999987 .44200004 L .0029999987 .39900003 C .062000004 .39900003 .069000009 .39900003 .069000009 .36 L .069000009 .043 L 0 .043 L 0 0 C .022999999 .002 .09200001 .002 .119 .002 C .14700002 .002 .21100003 .002 .23500002 0 L .23500002 .043 L .17300001 .043 L .17300001 .45000003 L .0029999987 .44200004 Z "/>
</symbol>
<symbol id="font_0_10">
<path d="M .80200007 .30600003 C .80200007 .39800004 .7630001 .45000003 .651 .45000003 C .55 .45000003 .503 .38200004 .48700006 .35000003 C .47100003 .43500004 .40300004 .45000003 .33900003 .45000003 C .24300003 .45000003 .19100002 .388 .17000002 .34 L .169 .34 L .169 .45000003 L 0 .44200004 L 0 .39900003 C .062 .39900003 .069000009 .39900003 .069000009 .36 L .069000009 .043 L 0 .043 L 0 0 C .023000002 .002 .095000009 .002 .123 .002 C .151 .002 .224 .002 .24700001 0 L .24700001 .043 L .178 .043 L .178 .256 C .178 .365 .25900004 .41700004 .32200004 .41700004 C .35900004 .41700004 .381 .395 .381 .317 L .381 .043 L .312 .043 L .312 0 C .335 .002 .40700004 .002 .43500004 .002 C .463 .002 .536 .002 .559 0 L .559 .043 L .49 .043 L .49 .256 C .49 .365 .57100006 .41700004 .63400009 .41700004 C .67100009 .41700004 .693 .395 .693 .317 L .693 .043 L .624 .043 L .624 0 C .647 .002 .71900007 .002 .74700006 .002 C .77500006 .002 .84800007 .002 .87100008 0 L .87100008 .043 L .80200007 .043 L .80200007 .30600003 Z "/>
</symbol>
<symbol id="font_0_1">
<path d="M .48900003 .30600003 C .48900003 .40100003 .448 .45000003 .33800004 .45000003 C .26600004 .45000003 .204 .41500003 .17000002 .34 L .169 .34 L .169 .45000003 L 0 .44200004 L 0 .39900003 C .062 .39900003 .069000009 .39900003 .069000009 .36 L .069000009 .043 L 0 .043 L 0 0 C .023000002 .002 .095000009 .002 .123 .002 C .151 .002 .224 .002 .24700001 0 L .24700001 .043 L .178 .043 L .178 .256 C .178 .36400003 .25800003 .41700004 .32200004 .41700004 C .35900004 .41700004 .38000003 .393 .38000003 .317 L .38000003 .043 L .31100003 .043 L .31100003 0 C .33400003 .002 .40600003 .002 .43400003 .002 C .462 .002 .535 .002 .558 0 L .558 .043 L .48900003 .043 L .48900003 .30600003 Z "/>
</symbol>
<symbol id="font_0_9">
<path d="M .43 .123 C .43 .135 .41900004 .135 .40900005 .135 C .393 .135 .39200003 .134 .38700003 .122 C .38 .103 .35300005 .036000004 .26100005 .036000004 C .120000008 .036000004 .120000008 .18800001 .120000008 .23300001 C .120000008 .29200004 .12100001 .42300005 .25200004 .42300005 C .259 .42300005 .31800003 .42100004 .31800003 .41600005 C .31800003 .41500003 .31700004 .41400004 .315 .41300003 C .31200005 .41000004 .29900003 .39500005 .29900003 .37000004 C .29900003 .32800005 .333 .31100003 .35800005 .31100003 C .379 .31100003 .417 .32400004 .417 .37100003 C .417 .45300005 .302 .45900003 .24800001 .45900003 C .07 .45900003 0 .34300003 0 .22800002 C 0 .092 .095 0 .242 0 C .399 0 .43 .116000007 .43 .123 Z "/>
</symbol>
<symbol id="font_0_c">
<path d="M .48900003 .30600003 C .48900003 .40100003 .448 .45000003 .33800004 .45000003 C .23700002 .45000003 .188 .379 .174 .349 L .17300001 .349 L .17300001 .694 L 0 .68600007 L 0 .643 C .062 .643 .069000009 .643 .069000009 .60400006 L .069000009 .043 L 0 .043 L 0 0 C .023000002 .002 .095000009 .002 .123 .002 C .151 .002 .224 .002 .24700001 0 L .24700001 .043 L .178 .043 L .178 .256 C .178 .36400003 .25800003 .41700004 .32200004 .41700004 C .35900004 .41700004 .38000003 .393 .38000003 .317 L .38000003 .043 L .31100003 .043 L .31100003 0 C .33400003 .002 .40600003 .002 .43400003 .002 C .462 .002 .535 .002 .558 0 L .558 .043 L .48900003 .043 L .48900003 .30600003 Z "/>
</symbol>
<symbol id="font_0_12">
<path d="M .14400001 .072000008 C .14400001 .113000009 .111 .14400001 .072 .14400001 C .033 .14400001 0 .113000009 0 .072000008 C 0 .031000002 .033 0 .072 0 C .111 0 .14400001 .031000002 .14400001 .072000008 Z "/>
</symbol>
<symbol id="font_0_b">
<path d="M .23800002 .305 L .408 .305 C .57500007 .305 .66800007 .39000003 .66800007 .49300004 C .66800007 .601 .573 .68600007 .408 .68600007 L 0 .68600007 L 0 .643 L .106000009 .643 L .106000009 .043 L 0 .043 L 0 0 C .029 .002 .136 .002 .172 .002 C .208 .002 .315 .002 .34400005 0 L .34400005 .043 L .23800002 .043 L .23800002 .305 M .37200005 .643 C .527 .643 .527 .56100007 .527 .49300004 C .527 .42700003 .527 .34300003 .37200005 .34300003 L .23300003 .34300003 L .23300003 .643 L .37200005 .643 Z "/>
</symbol>
<symbol id="font_0_4">
<path d="M .17300001 .22500001 C .17300001 .25800003 .18 .41700004 .29700003 .41700004 C .28300003 .40600003 .27600003 .38900004 .27600003 .37100003 C .27600003 .33 .30900003 .31300003 .33400003 .31300003 C .35900004 .31300003 .39200003 .33 .39200003 .37100003 C .39200003 .42200003 .34000004 .45000003 .29200004 .45000003 C .21300002 .45000003 .17900002 .381 .165 .33900003 L .16400002 .33900003 L .16400002 .45000003 L 0 .44200004 L 0 .39900003 C .062000004 .39900003 .069000009 .39900003 .069000009 .36 L .069000009 .043 L 0 .043 L 0 0 C .023000002 .002 .098000008 .002 .12600002 .002 C .15500002 .002 .23600003 .002 .26000003 0 L .26000003 .043 L .17300001 .043 L .17300001 .22500001 Z "/>
</symbol>
<symbol id="font_0_2">
<path d="M .49900005 .22500001 C .49900005 .36 .40700004 .45900003 .25000004 .45900003 C .087000008 .45900003 0 .35500003 0 .22500001 C 0 .094000007 .092 0 .249 0 C .41200004 0 .49900005 .099 .49900005 .22500001 M .25000004 .036000004 C .120000008 .036000004 .120000008 .153 .120000008 .23500002 C .120000008 .28200004 .120000008 .33200003 .139 .36800004 C .161 .40800003 .20600002 .42600004 .249 .42600004 C .30600003 .42600004 .34200005 .39900003 .35900004 .37100003 C .37900005 .33500005 .37900005 .28300003 .37900005 .23500002 C .37900005 .15200001 .37900005 .036000004 .25000004 .036000004 Z "/>
</symbol>
<symbol id="font_0_8">
<path d="M .17300001 .7 L 0 .69200006 L 0 .649 C .062000004 .649 .069000009 .649 .069000009 .61 L .069000009 .006 L .11100002 .006 C .128 .025000003 .14500001 .044000005 .16100002 .064 C .21200001 .011 .26700003 0 .307 0 C .44500003 0 .551 .084 .551 .229 C .551 .36600004 .45700003 .45600004 .32000003 .45600004 C .261 .45600004 .21400002 .43700005 .17300001 .40500004 L .17300001 .7 M .17800002 .35700003 C .21300002 .40500004 .26500003 .42300005 .307 .42300005 C .43100003 .42300005 .43100003 .29600004 .43100003 .23 C .43100003 .185 .43100003 .128 .40700004 .091 C .37600003 .043 .32900004 .033 .29700003 .033 C .229 .033 .19200002 .081 .17800002 .103 L .17800002 .35700003 Z "/>
</symbol>
<symbol id="font_0_a">
<path d="M .42100004 .22700002 C .44400005 .22700002 .45000006 .22700002 .45000006 .252 C .45000006 .28200004 .44300006 .35700003 .39700005 .40400005 C .35500003 .44600005 .29900003 .45900003 .24100001 .45900003 C .085 .45900003 0 .35700003 0 .231 C 0 .091 .103 0 .25400005 0 C .40500004 0 .45000006 .106 .45000006 .123 C .45000006 .138 .43500004 .138 .42900003 .138 C .41300006 .138 .41200004 .135 .40600003 .122 C .38000003 .057000005 .31400005 .036000004 .26600004 .036000004 C .12100001 .036000004 .120000008 .171 .120000008 .22700002 L .42100004 .22700002 M .120000008 .256 C .12200001 .29700003 .12300001 .33600004 .14400001 .37200005 C .163 .40400005 .19800002 .42600004 .24100001 .42600004 C .34800003 .42600004 .35700003 .30600003 .35800005 .256 L .120000008 .256 Z "/>
</symbol>
<symbol id="font_0_e">
<path d="M .192 .45200003 C .092999998 .474 .09 .54600009 .09 .56000009 C .09 .61100009 .122999999 .6700001 .22 .6700001 C .317 .6700001 .404 .623 .425 .492 C .428 .47100003 .428 .47000004 .447 .47000004 C .46800003 .47000004 .46800003 .47300003 .46800003 .49600003 L .46800003 .6840001 C .46800003 .70300009 .46800003 .71000006 .45300005 .71000006 C .446 .71000006 .443 .70900008 .43400003 .69900009 L .391 .65000006 C .36600004 .67100009 .316 .71000006 .21900001 .71000006 C .076000008 .71000006 0 .62000009 0 .51100006 C 0 .444 .036000004 .397 .05 .38300003 C .102 .331 .13 .32500003 .234 .30200003 C .33400003 .28 .34600003 .278 .368 .257 C .381 .244 .41000004 .216 .41000004 .165 C .41000004 .12200001 .38900004 .043 .277 .043 C .18900001 .043 .05 .07300001 .042 .21900001 C .041000006 .237 .041000006 .24000001 .021000002 .24000001 C 0 .24000001 0 .237 0 .214 L 0 .026 C 0 .0069999999 0 0 .015000004 0 C .022000004 0 .022999999 .0009999992 .033000005 .01 C .044000005 .021000002 .053 .034 .077999997 .059 C .136 .013 .218 0 .278 0 C .43400003 0 .50000008 .106000009 .50000008 .212 C .50000008 .306 .438 .396 .32900004 .421 L .192 .45200003 Z "/>
</symbol>
<symbol id="font_0_f">
<path d="M .17300001 .694 L 0 .68600007 L 0 .643 C .062000004 .643 .069000009 .643 .069000009 .60400006 L .069000009 .043 L 0 .043 L 0 0 C .022999999 .002 .09400001 .002 .12100001 .002 C .148 .002 .21900001 .002 .24200002 0 L .24200002 .043 L .17300001 .043 L .17300001 .694 Z "/>
</symbol>
<symbol id="font_0_11">
<path d="M .142 .61300006 C .14400001 .62700006 .14400001 .629 .14400001 .64000007 C .14400001 .68500009 .103 .70600005 .072 .70600005 C .040999995 .70600005 0 .684 0 .64000007 C 0 .629 0 .62700006 .0019999967 .61300006 L .049999998 .23900001 C .052 .22000002 .053000004 .21700001 .072 .21700001 C .091000009 .21700001 .09200001 .22000002 .094 .23900001 L .142 .61300006 M .14400001 .072000008 C .14400001 .112 .112 .14400001 .072 .14400001 C .032000007 .14400001 0 .112 0 .072000008 C 0 .032 .032000007 0 .072 0 C .112 0 .14400001 .032 .14400001 .072000008 Z "/>
</symbol>
<use xlink:href="#font_0_3" transform="matrix(39.850557,0,0,-39.850557,79.514598,53.943883)" fill="#f80b2d"/>
<use xlink:href="#font_0_7" transform="matrix(39.850557,0,0,-39.850557,113.68842,54.182989)" fill="#f80b2d"/>
<use xlink:href="#font_0_5" transform="matrix(39.850557,0,0,-39.850557,135.51445,54.182989)" fill="#f80b2d"/>
<use xlink:href="#font_0_5" transform="matrix(39.850557,0,0,-39.850557,168.51393,54.182989)" fill="#f80b2d"/>
<use xlink:href="#font_0_6" transform="matrix(39.850557,0,0,-39.850557,185.5031,54.182989)" fill="#f80b2d"/>
<use xlink:href="#font_0_d" transform="matrix(39.850557,0,0,-39.850557,203.75293,53.943883)" fill="#f80b2d"/>
<use xlink:href="#font_0_10" transform="matrix(39.850557,0,0,-39.850557,216.00653,53.943883)" fill="#f80b2d"/>
<use xlink:href="#font_0_10" transform="matrix(39.850557,0,0,-39.850557,253.33975,53.943883)" fill="#f80b2d"/>
<use xlink:href="#font_0_6" transform="matrix(39.850557,0,0,-39.850557,288.50236,54.182989)" fill="#f80b2d"/>
<use xlink:href="#font_0_1" transform="matrix(39.850557,0,0,-39.850557,322.00627,53.943883)" fill="#f80b2d"/>
<use xlink:href="#font_0_d" transform="matrix(39.850557,0,0,-39.850557,347.08589,53.943883)" fill="#f80b2d"/>
<use xlink:href="#font_0_9" transform="matrix(39.850557,0,0,-39.850557,359.1801,54.182989)" fill="#f80b2d"/>
<use xlink:href="#font_0_c" transform="matrix(39.850557,0,0,-39.850557,378.00654,53.943883)" fill="#f80b2d"/>
<use xlink:href="#font_0_6" transform="matrix(39.850557,0,0,-39.850557,400.83604,54.182989)" fill="#f80b2d"/>
<use xlink:href="#font_0_12" transform="matrix(39.850557,0,0,-39.850557,420.67988,53.943883)" fill="#f80b2d"/>
<use xlink:href="#font_0_b" transform="matrix(39.850557,0,0,-39.850557,451.5133,53.943883)" fill="#f80b2d"/>
<use xlink:href="#font_0_4" transform="matrix(39.850557,0,0,-39.850557,482.0604,53.943883)" fill="#f80b2d"/>
<use xlink:href="#font_0_2" transform="matrix(39.850557,0,0,-39.850557,500.23426,54.182989)" fill="#f80b2d"/>
<use xlink:href="#font_0_8" transform="matrix(39.850557,0,0,-39.850557,522.72689,54.182989)" fill="#f80b2d"/>
<use xlink:href="#font_0_d" transform="matrix(39.850557,0,0,-39.850557,548.08547,53.943883)" fill="#f80b2d"/>
<use xlink:href="#font_0_a" transform="matrix(39.850557,0,0,-39.850557,559.9007,54.182989)" fill="#f80b2d"/>
<use xlink:href="#font_0_4" transform="matrix(39.850557,0,0,-39.850557,580.3934,53.943883)" fill="#f80b2d"/>
<use xlink:href="#font_0_a" transform="matrix(39.850557,0,0,-39.850557,598.56729,54.182989)" fill="#f80b2d"/>
<use xlink:href="#font_0_1" transform="matrix(39.850557,0,0,-39.850557,619.33889,53.943883)" fill="#f80b2d"/>
<use xlink:href="#font_0_e" transform="matrix(39.850557,0,0,-39.850557,660.1362,54.42209)" fill="#f80b2d"/>
<use xlink:href="#font_0_d" transform="matrix(39.850557,0,0,-39.850557,684.4188,53.943883)" fill="#f80b2d"/>
<use xlink:href="#font_0_a" transform="matrix(39.850557,0,0,-39.850557,696.234,54.182989)" fill="#f80b2d"/>
<use xlink:href="#font_0_a" transform="matrix(39.850557,0,0,-39.850557,731.5677,54.182989)" fill="#f80b2d"/>
<use xlink:href="#font_0_5" transform="matrix(39.850557,0,0,-39.850557,752.17996,54.182989)" fill="#f80b2d"/>
<use xlink:href="#font_0_1" transform="matrix(39.850557,0,0,-39.850557,785.0061,53.943883)" fill="#f80b2d"/>
<use xlink:href="#font_0_2" transform="matrix(39.850557,0,0,-39.850557,809.5676,54.182989)" fill="#f80b2d"/>
<use xlink:href="#font_0_9" transform="matrix(39.850557,0,0,-39.850557,833.513,54.182989)" fill="#f80b2d"/>
<use xlink:href="#font_0_c" transform="matrix(39.850557,0,0,-39.850557,852.3388,53.943883)" fill="#f80b2d"/>
<use xlink:href="#font_0_a" transform="matrix(39.850557,0,0,-39.850557,891.9003,54.182989)" fill="#f80b2d"/>
<use xlink:href="#font_0_d" transform="matrix(39.850557,0,0,-39.850557,912.75167,53.943883)" fill="#f80b2d"/>
<use xlink:href="#font_0_1" transform="matrix(39.850557,0,0,-39.850557,925.0053,53.943883)" fill="#f80b2d"/>
<use xlink:href="#font_0_10" transform="matrix(39.850557,0,0,-39.850557,950.0051,53.943883)" fill="#f80b2d"/>
<use xlink:href="#font_0_7" transform="matrix(39.850557,0,0,-39.850557,987.0196,54.182989)" fill="#f80b2d"/>
<use xlink:href="#font_0_f" transform="matrix(39.850557,0,0,-39.850557,1009.0847,53.943883)" fill="#f80b2d"/>
<use xlink:href="#font_0_11" transform="matrix(39.850557,0,0,-39.850557,1023.60977,53.943883)" fill="#f80b2d"/>
</g>
</svg>
