<?xml version="1.0" encoding="UTF-8" standalone="no"?>
<!DOCTYPE svg PUBLIC "-//W3C//DTD SVG 1.1//EN" "http://www.w3.org/Graphics/SVG/1.1/DTD/svg11.dtd">
<svg xmlns="http://www.w3.org/2000/svg" xmlns:xlink="http://www.w3.org/1999/xlink" version="1.1" width="1106.9722pt" height="88.55555pt" viewBox="0 0 1106.9722 88.55555">
<g enable-background="new">
<symbol id="font_0_10">
<path d="M 1.024 .628 C 1.0310001 .646 1.0330001 .652 1.1170001 .652 L 1.1170001 .69500008 C 1.0670002 .693 1.065 .693 1.0080001 .693 C .97900006 .693 .906 .693 .882 .69500008 L .882 .652 C .89400008 .652 .98200008 .652 .98200008 .638 C .98200008 .637 .98200008 .63500007 .978 .62600007 L .81 .18 L .63100007 .652 L .726 .652 L .726 .69500008 C .694 .693 .601 .693 .563 .693 C .532 .693 .435 .693 .411 .69500008 L .411 .652 L .495 .652 L .536 .544 L .39900003 .18 L .22100002 .652 L .315 .652 L .315 .69500008 C .286 .693 .18800001 .693 .15200001 .693 C .120000008 .693 .025 .693 0 .69500008 L 0 .652 L .08400001 .652 L .322 .024 C .328 .007 .331 0 .35300002 0 C .375 0 .378 .007 .384 .023000002 L .558 .48400004 L .73300006 .023000002 C .739 .007 .74200007 0 .764 0 C .78300008 0 .78800007 .004 .795 .023000002 L 1.024 .628 Z "/>
</symbol>
<symbol id="font_0_e">
<path d="M .179 .623 C .179 .66400006 .14600002 .69500008 .10700001 .69500008 C .066 .69500008 .035 .661 .035 .623 C .035 .58500006 .066 .551 .10700001 .551 C .14600002 .551 .179 .582 .179 .623 M .0029999987 .44200004 L .0029999987 .39900003 C .062000004 .39900003 .069000009 .39900003 .069000009 .36 L .069000009 .043 L 0 .043 L 0 0 C .022999999 .002 .09200001 .002 .119 .002 C .14700002 .002 .21100003 .002 .23500002 0 L .23500002 .043 L .17300001 .043 L .17300001 .45000003 L .0029999987 .44200004 Z "/>
</symbol>
<symbol id="font_0_a">
<path d="M .42100004 .22700002 C .44400005 .22700002 .45000006 .22700002 .45000006 .252 C .45000006 .28200004 .44300006 .35700003 .39700005 .40400005 C .35500003 .44600005 .29900003 .45900003 .24100001 .45900003 C .085 .45900003 0 .35700003 0 .231 C 0 .091 .103 0 .25400005 0 C .40500004 0 .45000006 .106 .45000006 .123 C .45000006 .138 .43500004 .138 .42900003 .138 C .41300006 .138 .41200004 .135 .40600003 .122 C .38000003 .057000005 .31400005 .036000004 .26600004 .036000004 C .12100001 .036000004 .120000008 .171 .120000008 .22700002 L .42100004 .22700002 M .120000008 .256 C .12200001 .29700003 .12300001 .33600004 .14400001 .37200005 C .163 .40400005 .19800002 .42600004 .24100001 .42600004 C .34800003 .42600004 .35700003 .30600003 .35800005 .256 L .120000008 .256 Z "/>
</symbol>
<symbol id="font_0_9">
<path d="M .30900003 .69200006 L .30900003 .649 C .371 .649 .37800003 .649 .37800003 .61 L .37800003 .40800003 C .356 .42700006 .31200005 .45600004 .24300002 .45600004 C .10100001 .45600004 0 .36800004 0 .22800002 C 0 .085 .09900001 0 .23200001 0 C .287 0 .334 .019000002 .37300004 .052000006 L .37300004 0 L .55100008 .006 L .55100008 .049000004 C .48900003 .049000004 .48200006 .049000004 .48200006 .088 L .48200006 .7 L .30900003 .69200006 M .37300004 .107 C .33100004 .046000005 .28000004 .033 .244 .033 C .120000008 .033 .120000008 .16000001 .120000008 .22600001 C .120000008 .27300004 .120000008 .323 .142 .36100004 C .17300001 .41700004 .23200001 .42300005 .255 .42300005 C .296 .42300005 .34000004 .40500004 .37300004 .36100004 L .37300004 .107 Z "/>
</symbol>
<symbol id="font_0_3">
<path d="M .17300001 .22500001 C .17300001 .25800003 .18 .41700004 .29700003 .41700004 C .28300003 .40600003 .27600003 .38900004 .27600003 .37100003 C .27600003 .33 .30900003 .31300003 .33400003 .31300003 C .35900004 .31300003 .39200003 .33 .39200003 .37100003 C .39200003 .42200003 .34000004 .45000003 .29200004 .45000003 C .21300002 .45000003 .17900002 .381 .165 .33900003 L .16400002 .33900003 L .16400002 .45000003 L 0 .44200004 L 0 .39900003 C .062000004 .39900003 .069000009 .39900003 .069000009 .36 L .069000009 .043 L 0 .043 L 0 0 C .023000002 .002 .098000008 .002 .12600002 .002 C .15500002 .002 .23600003 .002 .26000003 0 L .26000003 .043 L .17300001 .043 L .17300001 .22500001 Z "/>
</symbol>
<symbol id="font_0_b">
<path d="M .178 .40100003 L .29200004 .40100003 L .29200004 .44400005 L .17300001 .44400005 L .17300001 .54700008 C .17300001 .651 .23900002 .66700008 .272 .66700008 C .28300003 .66700008 .285 .666 .291 .66400006 C .27600003 .65400007 .26700003 .637 .26700003 .61600008 C .26700003 .57600006 .29900003 .558 .32500003 .558 C .347 .558 .38300003 .573 .38300003 .61700007 C .38300003 .65800008 .347 .70000007 .27600003 .70000007 C .185 .70000007 .074 .66200008 .074 .546 L .074 .44400005 L 0 .44400005 L 0 .40100003 L .074 .40100003 L .074 .043 L .0050000029 .043 L .0050000029 0 C .028 .002 .103 .002 .131 .002 C .16000001 .002 .241 .002 .26500003 0 L .26500003 .043 L .178 .043 L .178 .40100003 Z "/>
</symbol>
<symbol id="font_0_7">
<path d="M .426 .30500005 C .426 .39700005 .35300002 .45900003 .21200001 .45900003 C .15600002 .45900003 .038000004 .45400004 .038000004 .37000004 C .038000004 .32800005 .07 .31000004 .09700001 .31000004 C .127 .31000004 .15600002 .33100004 .15600002 .36900003 C .15600002 .38800005 .14900002 .40600003 .132 .41700004 C .16500002 .42600004 .18900001 .42600004 .208 .42600004 C .276 .42600004 .317 .38800005 .317 .30600003 L .317 .26600004 C .15900001 .26600004 0 .222 0 .111 C 0 .02 .116000007 0 .185 0 C .262 0 .31100003 .042000005 .331 .086 C .331 .049000004 .331 .006 .432 .006 L .483 .006 C .50400009 .006 .512 .006 .512 .028 C .512 .049000004 .503 .049000004 .489 .049000004 C .426 .050000006 .426 .066 .426 .089 L .426 .30500005 M .317 .14500001 C .317 .051000004 .23300001 .033 .201 .033 C .15200001 .033 .11100001 .066 .11100001 .112 C .11100001 .20300001 .21900001 .23400001 .317 .23900001 L .317 .14500001 Z "/>
</symbol>
<symbol id="font_0_f">
<path d="M .17300001 .694 L 0 .68600007 L 0 .643 C .062000004 .643 .069000009 .643 .069000009 .60400006 L .069000009 .043 L 0 .043 L 0 0 C .022999999 .002 .09400001 .002 .12100001 .002 C .148 .002 .21900001 .002 .24200002 0 L .24200002 .043 L .17300001 .043 L .17300001 .694 Z "/>
</symbol>
<symbol id="font_0_4">
<path d="M .339 .43300004 C .339 .45200003 .339 .45900003 .324 .45900003 C .31800003 .45900003 .31599999 .45900003 .301 .45000006 C .297 .44700004 .286 .44000004 .28100003 .43700005 C .25300003 .45300005 .216 .45900003 .18 .45900003 C .15 .45900003 0 .45900003 0 .32900004 C 0 .224 .124 .202 .155 .19700001 C .18200001 .192 .21500002 .186 .219 .186 C .259 .177 .29900003 .15200001 .29900003 .11 C .29900003 .033 .208 .033 .187 .033 C .136 .033 .07300001 .049000004 .045 .146 C .039000006 .16600001 .038000004 .16700001 .021000002 .16700001 C 0 .16700001 0 .164 0 .141 L 0 .026 C 0 .007 0 0 .015000001 0 C .022 0 .024 0 .044 .016 L .07 .035 C .11500001 0 .16900002 0 .187 0 C .242 0 .36700005 .012 .36700005 .14500001 C .36700005 .193 .34100003 .22600001 .32100005 .244 C .28000004 .27800004 .246 .28400005 .192 .29400004 C .128 .30500005 .068 .316 .068 .36400003 C .068 .42900003 .157 .42900003 .178 .42900003 C .28900004 .42900003 .29500003 .35900004 .297 .33400003 C .29800005 .32100005 .306 .32100005 .31800003 .32100005 C .339 .32100005 .339 .32400004 .339 .34700004 L .339 .43300004 Z "/>
</symbol>
<symbol id="font_0_8">
<path d="M .43 .123 C .43 .135 .41900004 .135 .40900005 .135 C .393 .135 .39200003 .134 .38700003 .122 C .38 .103 .35300005 .036000004 .26100005 .036000004 C .120000008 .036000004 .120000008 .18800001 .120000008 .23300001 C .120000008 .29200004 .12100001 .42300005 .25200004 .42300005 C .259 .42300005 .31800003 .42100004 .31800003 .41600005 C .31800003 .41500003 .31700004 .41400004 .315 .41300003 C .31200005 .41000004 .29900003 .39500005 .29900003 .37000004 C .29900003 .32800005 .333 .31100003 .35800005 .31100003 C .379 .31100003 .417 .32400004 .417 .37100003 C .417 .45300005 .302 .45900003 .24800001 .45900003 C .07 .45900003 0 .34300003 0 .22800002 C 0 .092 .095 0 .242 0 C .399 0 .43 .116000007 .43 .123 Z "/>
</symbol>
<symbol id="font_0_d">
<path d="M .48900003 .30600003 C .48900003 .40100003 .448 .45000003 .33800004 .45000003 C .23700002 .45000003 .188 .379 .174 .349 L .17300001 .349 L .17300001 .694 L 0 .68600007 L 0 .643 C .062 .643 .069000009 .643 .069000009 .60400006 L .069000009 .043 L 0 .043 L 0 0 C .023000002 .002 .095000009 .002 .123 .002 C .151 .002 .224 .002 .24700001 0 L .24700001 .043 L .178 .043 L .178 .256 C .178 .36400003 .25800003 .41700004 .32200004 .41700004 C .35900004 .41700004 .38000003 .393 .38000003 .317 L .38000003 .043 L .31100003 .043 L .31100003 0 C .33400003 .002 .40600003 .002 .43400003 .002 C .462 .002 .535 .002 .558 0 L .558 .043 L .48900003 .043 L .48900003 .30600003 Z "/>
</symbol>
<symbol id="font_0_13">
<path d="M .14400001 .072000008 C .14400001 .113000009 .111 .14400001 .072 .14400001 C .033 .14400001 0 .113000009 0 .072000008 C 0 .031000002 .033 0 .072 0 C .111 0 .14400001 .031000002 .14400001 .072000008 Z "/>
</symbol>
<symbol id="font_0_5">
<path d="M .697 .643 L .80300006 .643 L .80300006 .68600007 C .77400007 .684 .66700008 .684 .63100007 .684 C .595 .684 .48800005 .684 .459 .68600007 L .459 .643 L .56500008 .643 L .56500008 .37800003 L .23800002 .37800003 L .23800002 .643 L .34400005 .643 L .34400005 .68600007 C .315 .684 .208 .684 .172 .684 C .136 .684 .029 .684 0 .68600007 L 0 .643 L .106000009 .643 L .106000009 .043 L 0 .043 L 0 0 C .029 .002 .136 .002 .172 .002 C .208 .002 .315 .002 .34400005 0 L .34400005 .043 L .23800002 .043 L .23800002 .335 L .56500008 .335 L .56500008 .043 L .459 .043 L .459 0 C .48800005 .002 .595 .002 .63100007 .002 C .66700008 .002 .77400007 .002 .80300006 0 L .80300006 .043 L .697 .043 L .697 .643 Z "/>
</symbol>
<symbol id="font_0_1">
<path d="M .41900004 .67700007 C .41200004 .69500008 .41000004 .70000007 .386 .70000007 C .361 .70000007 .35900004 .69500008 .35200004 .67700007 L .104 .067 C .097 .051000004 .097 .049000004 .069000009 .046000005 C .044000005 .043 .040000004 .043 .018000003 .043 L 0 .043 L 0 0 C .026000005 .002 .085999999 .002 .11500001 .002 C .142 .002 .215 .002 .238 0 L .238 .043 C .21600002 .043 .178 .043 .15 .054 C .153 .063 .153 .065000008 .155 .069000009 L .208 .19900002 L .47600005 .19900002 L .53900006 .043 L .44500003 .043 L .44500003 0 C .47700004 .002 .57400009 .002 .61200007 .002 C .64400008 .002 .74600008 .002 .7710001 0 L .7710001 .043 L .67600008 .043 L .41900004 .67700007 M .342 .53000006 L .458 .24200002 L .225 .24200002 L .342 .53000006 Z "/>
</symbol>
<symbol id="font_0_6">
<path d="M .31100003 .44800005 L .31100003 .40500004 C .37300004 .40500004 .38000003 .40500004 .38000003 .36600004 L .38000003 .17 C .38000003 .094000007 .335 .033 .25700004 .033 C .18200001 .033 .178 .058000003 .178 .113000009 L .178 .45600004 L 0 .44800005 L 0 .40500004 C .062 .40500004 .069000009 .40500004 .069000009 .36600004 L .069000009 .12900001 C .069000009 .029000003 .136 0 .24300003 0 C .26700003 0 .34100003 0 .38400004 .081 L .38500003 .081 L .38500003 0 L .558 .006 L .558 .049000004 C .49600006 .049000004 .48900003 .049000004 .48900003 .088 L .48900003 .45600004 L .31100003 .44800005 Z "/>
</symbol>
<symbol id="font_0_12">
<path d="M .49000005 .694 C .48100005 .693 .42900003 .689 .425 .689 C .42200003 .689 .42000003 .689 .41000004 .69200006 C .38300003 .70000007 .35000003 .70000007 .33900003 .70000007 C .215 .70000007 .074 .66200008 .074 .545 L .074 .44400005 L 0 .44400005 L 0 .40100003 L .074 .40100003 L .074 .043 L .004999999 .043 L .004999999 0 C .028 .002 .09900001 .002 .126 .002 C .15300001 .002 .224 .002 .24700001 0 L .24700001 .043 L .178 .043 L .178 .40100003 L .386 .40100003 L .386 .043 L .317 .043 L .317 0 C .34 .002 .411 .002 .43800003 .002 C .46500004 .002 .536 .002 .559 0 L .559 .043 L .49000005 .043 L .49000005 .694 M .17300001 .44400005 L .17300001 .544 C .17300001 .643 .261 .66700008 .33200003 .66700008 C .33800004 .66700008 .38400004 .666 .38400004 .661 C .38400004 .66 .38400004 .65900006 .381 .656 C .37 .64500007 .36600004 .63100007 .36600004 .61600008 C .36600004 .61 .36600004 .587 .386 .572 L .386 .44400005 L .17300001 .44400005 Z "/>
</symbol>
<use xlink:href="#font_0_10" transform="matrix(39.850557,0,0,-39.850557,216.20975,54.302537)" fill="#f80b2d"/>
<use xlink:href="#font_0_e" transform="matrix(39.850557,0,0,-39.850557,263.41969,53.943883)" fill="#f80b2d"/>
<use xlink:href="#font_0_a" transform="matrix(39.850557,0,0,-39.850557,275.23493,54.182989)" fill="#f80b2d"/>
<use xlink:href="#font_0_9" transform="matrix(39.850557,0,0,-39.850557,295.84718,54.182989)" fill="#f80b2d"/>
<use xlink:href="#font_0_a" transform="matrix(39.850557,0,0,-39.850557,320.56816,54.182989)" fill="#f80b2d"/>
<use xlink:href="#font_0_3" transform="matrix(39.850557,0,0,-39.850557,341.06086,53.943883)" fill="#f80b2d"/>
<use xlink:href="#font_0_b" transform="matrix(39.850557,0,0,-39.850557,374.55393,53.943883)" fill="#f80b2d"/>
<use xlink:href="#font_0_7" transform="matrix(39.850557,0,0,-39.850557,388.0213,54.182989)" fill="#f80b2d"/>
<use xlink:href="#font_0_f" transform="matrix(39.850557,0,0,-39.850557,410.0864,53.943883)" fill="#f80b2d"/>
<use xlink:href="#font_0_4" transform="matrix(39.850557,0,0,-39.850557,422.1806,54.182989)" fill="#f80b2d"/>
<use xlink:href="#font_0_8" transform="matrix(39.850557,0,0,-39.850557,439.84718,54.182989)" fill="#f80b2d"/>
<use xlink:href="#font_0_d" transform="matrix(39.850557,0,0,-39.850557,458.6728,53.943883)" fill="#f80b2d"/>
<use xlink:href="#font_0_13" transform="matrix(39.850557,0,0,-39.850557,485.3464,53.943883)" fill="#f80b2d"/>
<use xlink:href="#font_0_5" transform="matrix(39.850557,0,0,-39.850557,516.1803,53.943883)" fill="#f80b2d"/>
<use xlink:href="#font_0_e" transform="matrix(39.850557,0,0,-39.850557,551.41928,53.943883)" fill="#f80b2d"/>
<use xlink:href="#font_0_a" transform="matrix(39.850557,0,0,-39.850557,563.2345,54.182989)" fill="#f80b2d"/>
<use xlink:href="#font_0_3" transform="matrix(39.850557,0,0,-39.850557,583.7272,53.943883)" fill="#f80b2d"/>
<use xlink:href="#font_0_9" transform="matrix(39.850557,0,0,-39.850557,617.5136,54.182989)" fill="#f80b2d"/>
<use xlink:href="#font_0_e" transform="matrix(39.850557,0,0,-39.850557,642.75259,53.943883)" fill="#f80b2d"/>
<use xlink:href="#font_0_a" transform="matrix(39.850557,0,0,-39.850557,654.56777,54.182989)" fill="#f80b2d"/>
<use xlink:href="#font_0_1" transform="matrix(39.850557,0,0,-39.850557,690.22036,53.943883)" fill="#f80b2d"/>
<use xlink:href="#font_0_6" transform="matrix(39.850557,0,0,-39.850557,724.33969,54.182989)" fill="#f80b2d"/>
<use xlink:href="#font_0_12" transform="matrix(39.850557,0,0,-39.850557,748.8614,53.943883)" fill="#f80b2d"/>
<symbol id="font_1_1">
<path d="M .22500001 .45900003 C .105000007 .446 0 .38000003 0 .22500001 C 0 .158 .025 .091000009 .080000009 .049000004 C .126 .014 .186 0 .244 0 C .36500005 0 .48700003 .067 .48700003 .22700002 C .48700003 .282 .47000007 .34 .43300004 .382 C .38400004 .439 .30900003 .45900003 .237 .45900003 L .22500001 .45900003 M .11400001 .194 L .11400001 .24700001 C .11400001 .298 .11500001 .35700003 .154 .395 C .177 .418 .21000001 .42900003 .242 .42900003 C .31500004 .42900003 .36300005 .381 .37100003 .305 C .37300004 .285 .37400005 .26500003 .37400005 .246 L .37400005 .222 C .37400005 .17300001 .37200005 .11600001 .34200005 .07800001 C .31800003 .048 .28100003 .034 .244 .034 C .20600002 .034 .16700001 .049000004 .14400001 .080000009 C .118 .113000009 .118 .155 .11400001 .194 M .34200005 .69200006 C .30200003 .684 .28300003 .656 .28300003 .624 C .28300003 .592 .30700005 .55700007 .35100005 .55700007 L .35800005 .55700007 C .38900004 .564 .41800005 .58500006 .41800005 .624 C .41800005 .66 .38800005 .693 .35000003 .693 C .34700004 .693 .34500004 .69200006 .34200005 .69200006 M .128 .69100007 C .091000009 .68700006 .07 .65400007 .07 .624 C .07 .592 .094 .55700007 .13700001 .55700007 C .177 .55700007 .20400001 .59000006 .20400001 .624 C .20400001 .65400007 .18300002 .69200006 .13700001 .69200006 C .134 .69200006 .131 .69200006 .128 .69100007 Z "/>
</symbol>
<use xlink:href="#font_1_1" transform="matrix(39.850557,0,0,-39.850557,773.90176,54.143136)" fill="#f80b2d"/>
<symbol id="font_0_2">
<path d="M .48900003 .30600003 C .48900003 .40100003 .448 .45000003 .33800004 .45000003 C .26600004 .45000003 .204 .41500003 .17000002 .34 L .169 .34 L .169 .45000003 L 0 .44200004 L 0 .39900003 C .062 .39900003 .069000009 .39900003 .069000009 .36 L .069000009 .043 L 0 .043 L 0 0 C .023000002 .002 .095000009 .002 .123 .002 C .151 .002 .224 .002 .24700001 0 L .24700001 .043 L .178 .043 L .178 .256 C .178 .36400003 .25800003 .41700004 .32200004 .41700004 C .35900004 .41700004 .38000003 .393 .38000003 .317 L .38000003 .043 L .31100003 .043 L .31100003 0 C .33400003 .002 .40600003 .002 .43400003 .002 C .462 .002 .535 .002 .558 0 L .558 .043 L .48900003 .043 L .48900003 .30600003 Z "/>
</symbol>
<symbol id="font_0_c">
<path d="M .09900001 .38300003 C .147 .357 .20300001 .357 .21800001 .357 C .35600005 .357 .41100005 .43400003 .41100005 .504 C .41100005 .555 .38200004 .591 .37000004 .601 C .39900003 .617 .42300005 .62100008 .44000004 .623 C .43700005 .61800006 .43400005 .614 .43400005 .601 C .43400005 .58000007 .44800005 .561 .474 .561 C .5 .561 .514 .58000007 .514 .601 C .514 .625 .49600003 .65700009 .45400004 .65700009 C .41100005 .65700009 .37000004 .63600006 .34900005 .61800006 C .30800004 .642 .26900003 .651 .21800001 .651 C .080000009 .651 .025 .574 .025 .504 C .025 .47300003 .034999998 .432 .077 .398 C .060000004 .379 .042000005 .344 .042000005 .30800004 C .042000005 .26500003 .065 .228 .086 .21200001 C .062 .206 0 .183 0 .126 C 0 .067 .065 0 .249 0 C .41500003 0 .49900005 .054000006 .49900005 .12900001 C .49900005 .21700001 .44100005 .246 .41600005 .25800003 C .36800004 .282 .30400003 .282 .216 .282 C .19100002 .282 .147 .282 .142 .283 C .09900001 .29000003 .087000008 .328 .087000008 .347 C .087000008 .35500003 .088 .37 .09900001 .38300003 M .21800001 .389 C .131 .389 .131 .458 .131 .504 C .131 .55 .131 .619 .21800001 .619 C .30500005 .619 .30500005 .55 .30500005 .504 C .30500005 .458 .30500005 .389 .21800001 .389 M .27400003 .19 C .34700004 .19 .41700004 .177 .41700004 .125 C .41700004 .089999999 .38200004 .03199999 .25000004 .03199999 C .118 .03199999 .082 .088 .082 .126 C .082 .19 .14500001 .19 .16000001 .19 L .27400003 .19 Z "/>
</symbol>
<symbol id="font_0_11">
<path d="M .14400001 .372 C .14400001 .41300003 .111 .44400005 .072 .44400005 C .033 .44400005 0 .41300003 0 .372 C 0 .33100004 .033 .3 .072 .3 C .111 .3 .14400001 .33100004 .14400001 .372 M .14400001 .072000008 C .14400001 .113000009 .111 .14400001 .072 .14400001 C .033 .14400001 0 .113000009 0 .072000008 C 0 .031000002 .033 0 .072 0 C .111 0 .14400001 .031000002 .14400001 .072000008 Z "/>
</symbol>
<use xlink:href="#font_0_4" transform="matrix(39.850557,0,0,-39.850557,796.18057,54.182989)" fill="#f80b2d"/>
<use xlink:href="#font_0_6" transform="matrix(39.850557,0,0,-39.850557,814.00656,54.182989)" fill="#f80b2d"/>
<use xlink:href="#font_0_2" transform="matrix(39.850557,0,0,-39.850557,839.0064,53.943883)" fill="#f80b2d"/>
<use xlink:href="#font_0_c" transform="matrix(39.850557,0,0,-39.850557,863.5679,61.953844)" fill="#f80b2d"/>
<use xlink:href="#font_0_11" transform="matrix(39.850557,0,0,-39.850557,888.0133,53.943883)" fill="#f80b2d"/>
</g>
</svg>
