<?xml version="1.0" encoding="UTF-8" standalone="no"?>
<!DOCTYPE svg PUBLIC "-//W3C//DTD SVG 1.1//EN" "http://www.w3.org/Graphics/SVG/1.1/DTD/svg11.dtd">
<svg xmlns="http://www.w3.org/2000/svg" xmlns:xlink="http://www.w3.org/1999/xlink" version="1.1" width="1106.9722pt" height="88.55555pt" viewBox="0 0 1106.9722 88.55555">
<g enable-background="new">
<symbol id="font_0_8">
<path d="M .25200004 .674 C .242 .68500009 .24100001 .68600007 .221 .68600007 L 0 .68600007 L 0 .643 L .106000009 .643 L .106000009 .07300001 C .106000009 .051000004 .105000007 .05 .079 .046000005 C .061000006 .044000005 .041 .043 .023000002 .043 L 0 .043 L 0 0 C .023000002 .002 .10100001 .002 .12900001 .002 C .157 .002 .23600002 .002 .259 0 L .259 .043 L .23600002 .043 C .209 .043 .207 .043 .18300002 .046000005 C .154 .05 .15300001 .051000004 .15300001 .07300001 L .15300001 .609 L .64800009 .013 C .65900006 .001 .66 0 .67300006 0 C .697 0 .697 .006 .697 .029000001 L .697 .61300006 C .697 .63500007 .6980001 .63600006 .72400006 .64000007 C .74200007 .642 .762 .643 .78000006 .643 L .80300006 .643 L .80300006 .68600007 C .78000006 .684 .702 .684 .674 .684 C .646 .684 .56700006 .684 .544 .68600007 L .544 .643 L .56700006 .643 C .59400007 .643 .596 .643 .62000009 .64000007 C .64900007 .63600006 .65000006 .63500007 .65000006 .61300006 L .65000006 .19500001 L .25200004 .674 Z "/>
</symbol>
<symbol id="font_0_2">
<path d="M .49900005 .22500001 C .49900005 .36 .40700004 .45900003 .25000004 .45900003 C .087000008 .45900003 0 .35500003 0 .22500001 C 0 .094000007 .092 0 .249 0 C .41200004 0 .49900005 .099 .49900005 .22500001 M .25000004 .036000004 C .120000008 .036000004 .120000008 .153 .120000008 .23500002 C .120000008 .28200004 .120000008 .33200003 .139 .36800004 C .161 .40800003 .20600002 .42600004 .249 .42600004 C .30600003 .42600004 .34200005 .39900003 .35900004 .37100003 C .37900005 .33500005 .37900005 .28300003 .37900005 .23500002 C .37900005 .15200001 .37900005 .036000004 .25000004 .036000004 Z "/>
</symbol>
<symbol id="font_0_4">
<path d="M .19000001 .40700004 L .33400003 .40700004 L .33400003 .45000006 L .19000001 .45000006 L .19000001 .64100006 L .14800002 .64100006 C .14700002 .542 .09900001 .44300003 0 .44000004 L 0 .40700004 L .081 .40700004 L .081 .12900001 C .081 .023000002 .16300002 0 .23500002 0 C .30900003 0 .35300002 .056 .35300002 .13000001 L .35300002 .183 L .31100003 .183 L .31100003 .131 C .31100003 .065000008 .28100003 .036000004 .25000004 .036000004 C .19000001 .036000004 .19000001 .103 .19000001 .126 L .19000001 .40700004 Z "/>
</symbol>
<symbol id="font_0_3">
<path d="M .17300001 .22500001 C .17300001 .25800003 .18 .41700004 .29700003 .41700004 C .28300003 .40600003 .27600003 .38900004 .27600003 .37100003 C .27600003 .33 .30900003 .31300003 .33400003 .31300003 C .35900004 .31300003 .39200003 .33 .39200003 .37100003 C .39200003 .42200003 .34000004 .45000003 .29200004 .45000003 C .21300002 .45000003 .17900002 .381 .165 .33900003 L .16400002 .33900003 L .16400002 .45000003 L 0 .44200004 L 0 .39900003 C .062000004 .39900003 .069000009 .39900003 .069000009 .36 L .069000009 .043 L 0 .043 L 0 0 C .023000002 .002 .098000008 .002 .12600002 .002 C .15500002 .002 .23600003 .002 .26000003 0 L .26000003 .043 L .17300001 .043 L .17300001 .22500001 Z "/>
</symbol>
<symbol id="font_0_5">
<path d="M .31100003 .44800005 L .31100003 .40500004 C .37300004 .40500004 .38000003 .40500004 .38000003 .36600004 L .38000003 .17 C .38000003 .094000007 .335 .033 .25700004 .033 C .18200001 .033 .178 .058000003 .178 .113000009 L .178 .45600004 L 0 .44800005 L 0 .40500004 C .062 .40500004 .069000009 .40500004 .069000009 .36600004 L .069000009 .12900001 C .069000009 .029000003 .136 0 .24300003 0 C .26700003 0 .34100003 0 .38400004 .081 L .38500003 .081 L .38500003 0 L .558 .006 L .558 .049000004 C .49600006 .049000004 .48900003 .049000004 .48900003 .088 L .48900003 .45600004 L .31100003 .44800005 Z "/>
</symbol>
<symbol id="font_0_9">
<path d="M .42100004 .22700002 C .44400005 .22700002 .45000006 .22700002 .45000006 .252 C .45000006 .28200004 .44300006 .35700003 .39700005 .40400005 C .35500003 .44600005 .29900003 .45900003 .24100001 .45900003 C .085 .45900003 0 .35700003 0 .231 C 0 .091 .103 0 .25400005 0 C .40500004 0 .45000006 .106 .45000006 .123 C .45000006 .138 .43500004 .138 .42900003 .138 C .41300006 .138 .41200004 .135 .40600003 .122 C .38000003 .057000005 .31400005 .036000004 .26600004 .036000004 C .12100001 .036000004 .120000008 .171 .120000008 .22700002 L .42100004 .22700002 M .120000008 .256 C .12200001 .29700003 .12300001 .33600004 .14400001 .37200005 C .163 .40400005 .19800002 .42600004 .24100001 .42600004 C .34800003 .42600004 .35700003 .30600003 .35800005 .256 L .120000008 .256 Z "/>
</symbol>
<symbol id="font_0_e">
<path d="M .14400001 .072000008 C .14400001 .113000009 .111 .14400001 .072 .14400001 C .033 .14400001 0 .113000009 0 .072000008 C 0 .031000002 .033 0 .072 0 C .111 0 .14400001 .031000002 .14400001 .072000008 Z "/>
</symbol>
<symbol id="font_0_c">
<path d="M .679 .67700007 L .020000004 .67700007 L 0 .44000004 L .042000005 .44000004 C .051000008 .549 .059 .634 .20300001 .634 L .284 .634 L .284 .043 L .13300002 .043 L .13300002 0 C .213 .002 .316 .002 .35000003 .002 C .411 .002 .487 .002 .56700006 0 L .56700006 .043 L .416 .043 L .416 .634 L .496 .634 C .64000007 .634 .648 .55 .657 .44000004 L .699 .44000004 L .679 .67700007 Z "/>
</symbol>
<symbol id="font_0_7">
<path d="M .47300003 .579 C .47900004 .593 .48299999 .601 .547 .601 L .547 .64400008 C .513 .642 .509 .642 .468 .642 C .441 .642 .439 .642 .382 .64400008 L .382 .601 C .38300003 .601 .43 .601 .43 .588 C .43 .58500006 .42700003 .579 .426 .57600006 L .30900003 .324 L .18100001 .601 L .23600002 .601 L .23600002 .64400008 C .21200001 .642 .14400001 .642 .11600001 .642 C .087000008 .642 .027999999 .642 .0019999985 .64400008 L .0019999985 .601 L .06600001 .601 L .251 .2 C .246 .18800001 .23200001 .15900001 .22700002 .147 C .20600002 .102 .17400001 .032999994 .104 .032999994 C .10000001 .032999994 .08800001 .032999994 .07700001 .03899999 C .079 .03999999 .10900001 .052 .10900001 .089999999 C .10900001 .122999999 .08500001 .144 .055000009 .144 C .024000003 .144 0 .122999999 0 .088999997 C 0 .041999997 .044 0 .104 0 C .186 0 .24000003 .074 .26 .118 L .47300003 .579 Z "/>
</symbol>
<symbol id="font_0_b">
<path d="M .179 .623 C .179 .66400006 .14600002 .69500008 .10700001 .69500008 C .066 .69500008 .035 .661 .035 .623 C .035 .58500006 .066 .551 .10700001 .551 C .14600002 .551 .179 .582 .179 .623 M .0029999987 .44200004 L .0029999987 .39900003 C .062000004 .39900003 .069000009 .39900003 .069000009 .36 L .069000009 .043 L 0 .043 L 0 0 C .022999999 .002 .09200001 .002 .119 .002 C .14700002 .002 .21100003 .002 .23500002 0 L .23500002 .043 L .17300001 .043 L .17300001 .45000003 L .0029999987 .44200004 Z "/>
</symbol>
<symbol id="font_0_6">
<path d="M .426 .30500005 C .426 .39700005 .35300002 .45900003 .21200001 .45900003 C .15600002 .45900003 .038000004 .45400004 .038000004 .37000004 C .038000004 .32800005 .07 .31000004 .09700001 .31000004 C .127 .31000004 .15600002 .33100004 .15600002 .36900003 C .15600002 .38800005 .14900002 .40600003 .132 .41700004 C .16500002 .42600004 .18900001 .42600004 .208 .42600004 C .276 .42600004 .317 .38800005 .317 .30600003 L .317 .26600004 C .15900001 .26600004 0 .222 0 .111 C 0 .02 .116000007 0 .185 0 C .262 0 .31100003 .042000005 .331 .086 C .331 .049000004 .331 .006 .432 .006 L .483 .006 C .50400009 .006 .512 .006 .512 .028 C .512 .049000004 .503 .049000004 .489 .049000004 C .426 .050000006 .426 .066 .426 .089 L .426 .30500005 M .317 .14500001 C .317 .051000004 .23300001 .033 .201 .033 C .15200001 .033 .11100001 .066 .11100001 .112 C .11100001 .20300001 .21900001 .23400001 .317 .23900001 L .317 .14500001 Z "/>
</symbol>
<symbol id="font_0_a">
<path d="M .09900001 .38300003 C .147 .357 .20300001 .357 .21800001 .357 C .35600005 .357 .41100005 .43400003 .41100005 .504 C .41100005 .555 .38200004 .591 .37000004 .601 C .39900003 .617 .42300005 .62100008 .44000004 .623 C .43700005 .61800006 .43400005 .614 .43400005 .601 C .43400005 .58000007 .44800005 .561 .474 .561 C .5 .561 .514 .58000007 .514 .601 C .514 .625 .49600003 .65700009 .45400004 .65700009 C .41100005 .65700009 .37000004 .63600006 .34900005 .61800006 C .30800004 .642 .26900003 .651 .21800001 .651 C .080000009 .651 .025 .574 .025 .504 C .025 .47300003 .034999998 .432 .077 .398 C .060000004 .379 .042000005 .344 .042000005 .30800004 C .042000005 .26500003 .065 .228 .086 .21200001 C .062 .206 0 .183 0 .126 C 0 .067 .065 0 .249 0 C .41500003 0 .49900005 .054000006 .49900005 .12900001 C .49900005 .21700001 .44100005 .246 .41600005 .25800003 C .36800004 .282 .30400003 .282 .216 .282 C .19100002 .282 .147 .282 .142 .283 C .09900001 .29000003 .087000008 .328 .087000008 .347 C .087000008 .35500003 .088 .37 .09900001 .38300003 M .21800001 .389 C .131 .389 .131 .458 .131 .504 C .131 .55 .131 .619 .21800001 .619 C .30500005 .619 .30500005 .55 .30500005 .504 C .30500005 .458 .30500005 .389 .21800001 .389 M .27400003 .19 C .34700004 .19 .41700004 .177 .41700004 .125 C .41700004 .089999999 .38200004 .03199999 .25000004 .03199999 C .118 .03199999 .082 .088 .082 .126 C .082 .19 .14500001 .19 .16000001 .19 L .27400003 .19 Z "/>
</symbol>
<symbol id="font_0_1">
<path d="M .48900003 .30600003 C .48900003 .40100003 .448 .45000003 .33800004 .45000003 C .26600004 .45000003 .204 .41500003 .17000002 .34 L .169 .34 L .169 .45000003 L 0 .44200004 L 0 .39900003 C .062 .39900003 .069000009 .39900003 .069000009 .36 L .069000009 .043 L 0 .043 L 0 0 C .023000002 .002 .095000009 .002 .123 .002 C .151 .002 .224 .002 .24700001 0 L .24700001 .043 L .178 .043 L .178 .256 C .178 .36400003 .25800003 .41700004 .32200004 .41700004 C .35900004 .41700004 .38000003 .393 .38000003 .317 L .38000003 .043 L .31100003 .043 L .31100003 0 C .33400003 .002 .40600003 .002 .43400003 .002 C .462 .002 .535 .002 .558 0 L .558 .043 L .48900003 .043 L .48900003 .30600003 Z "/>
</symbol>
<symbol id="font_0_d">
<path d="M .142 .61300006 C .14400001 .62700006 .14400001 .629 .14400001 .64000007 C .14400001 .68500009 .103 .70600005 .072 .70600005 C .040999995 .70600005 0 .684 0 .64000007 C 0 .629 0 .62700006 .0019999967 .61300006 L .049999998 .23900001 C .052 .22000002 .053000004 .21700001 .072 .21700001 C .091000009 .21700001 .09200001 .22000002 .094 .23900001 L .142 .61300006 M .14400001 .072000008 C .14400001 .112 .112 .14400001 .072 .14400001 C .032000007 .14400001 0 .112 0 .072000008 C 0 .032 .032000007 0 .072 0 C .112 0 .14400001 .032 .14400001 .072000008 Z "/>
</symbol>
<use xlink:href="#font_0_8" transform="matrix(39.850557,0,0,-39.850557,332.5143,53.943883)" fill="#f80b2d"/>
<use xlink:href="#font_0_2" transform="matrix(39.850557,0,0,-39.850557,367.23527,54.182989)" fill="#f80b2d"/>
<use xlink:href="#font_0_4" transform="matrix(39.850557,0,0,-39.850557,389.17,54.182989)" fill="#f80b2d"/>
<use xlink:href="#font_0_4" transform="matrix(39.850557,0,0,-39.850557,421.83659,54.182989)" fill="#f80b2d"/>
<use xlink:href="#font_0_3" transform="matrix(39.850557,0,0,-39.850557,439.72776,53.943883)" fill="#f80b2d"/>
<use xlink:href="#font_0_5" transform="matrix(39.850557,0,0,-39.850557,458.34,54.182989)" fill="#f80b2d"/>
<use xlink:href="#font_0_9" transform="matrix(39.850557,0,0,-39.850557,482.90156,54.182989)" fill="#f80b2d"/>
<use xlink:href="#font_0_e" transform="matrix(39.850557,0,0,-39.850557,505.34687,53.943883)" fill="#f80b2d"/>
<use xlink:href="#font_0_c" transform="matrix(39.850557,0,0,-39.850557,535.96658,53.943883)" fill="#f80b2d"/>
<use xlink:href="#font_0_3" transform="matrix(39.850557,0,0,-39.850557,563.3945,53.943883)" fill="#f80b2d"/>
<use xlink:href="#font_0_7" transform="matrix(39.850557,0,0,-39.850557,581.2097,61.913995)" fill="#f80b2d"/>
<use xlink:href="#font_0_b" transform="matrix(39.850557,0,0,-39.850557,620.4196,53.943883)" fill="#f80b2d"/>
<use xlink:href="#font_0_4" transform="matrix(39.850557,0,0,-39.850557,631.8363,54.182989)" fill="#f80b2d"/>
<use xlink:href="#font_0_6" transform="matrix(39.850557,0,0,-39.850557,665.02096,54.182989)" fill="#f80b2d"/>
<use xlink:href="#font_0_a" transform="matrix(39.850557,0,0,-39.850557,686.568,61.953844)" fill="#f80b2d"/>
<use xlink:href="#font_0_6" transform="matrix(39.850557,0,0,-39.850557,709.02078,54.182989)" fill="#f80b2d"/>
<use xlink:href="#font_0_b" transform="matrix(39.850557,0,0,-39.850557,731.0859,53.943883)" fill="#f80b2d"/>
<use xlink:href="#font_0_1" transform="matrix(39.850557,0,0,-39.850557,743.3395,53.943883)" fill="#f80b2d"/>
<use xlink:href="#font_0_d" transform="matrix(39.850557,0,0,-39.850557,770.6109,53.943883)" fill="#f80b2d"/>
</g>
</svg>
