<?xml version="1.0" encoding="UTF-8" standalone="no"?>
<!DOCTYPE svg PUBLIC "-//W3C//DTD SVG 1.1//EN" "http://www.w3.org/Graphics/SVG/1.1/DTD/svg11.dtd">
<svg xmlns="http://www.w3.org/2000/svg" xmlns:xlink="http://www.w3.org/1999/xlink" version="1.1" width="550.72219pt" height="41.499998pt" viewBox="0 0 550.72219 41.499998">
<g enable-background="new">
<symbol id="font_0_e">
<path d="M .36200003 .097 C .29500003 .27700005 .22300002 .45400004 .14700002 .63000008 C .136 .656 .13100001 .68500009 .09 .68500009 L .021000002 .68500009 C .011 .68500009 .0010000002 .68000009 0 .669 L 0 .66700008 C 0 .66200008 .0020000004 .656 .0040000008 .651 L .015000001 .62500008 C .094000007 .43100003 .17900002 .238 .25700004 .043000007 C .268 .019000002 .27400003 0 .31100003 0 L .40200005 0 C .44300003 0 .45000003 .025 .46000005 .051000004 L .635 .47000004 C .656 .522 .67800006 .57400009 .7 .62600007 L .704 .637 C .708 .646 .71500006 .65700009 .71500006 .66700008 C .71500006 .679 .703 .68600007 .689 .68600007 C .683 .68600007 .67800006 .68500009 .67300006 .68500009 L .64100006 .68500009 C .621 .68500009 .601 .68500009 .589 .66200008 C .566 .61800006 .549 .56700006 .53000006 .521 C .47700004 .39100004 .41900004 .26200003 .37200005 .12900001 C .36800004 .119 .36300005 .108 .36200003 .097 Z "/>
</symbol>
<symbol id="font_0_a">
<path d="M .118 .21700001 L .425 .21700001 C .45200003 .21700001 .46 .231 .46 .25100003 C .46 .366 .41200004 .474 .24200002 .474 C .177 .474 .10700001 .45900003 .060000007 .412 C .014000002 .366 0 .299 0 .23700002 C 0 .18200001 .011 .125 .046 .082 C .096 .018000002 .18100001 0 .25800003 0 C .315 0 .374 .012 .42600004 .036000004 C .43400003 .040000004 .451 .045 .453 .055000005 L .453 .059000005 C .453 .080000009 .45200003 .124000009 .441 .127 L .439 .127 C .43 .127 .42000003 .117000009 .414 .112 C .37100003 .08100001 .316 .064 .262 .064 C .194 .064 .118 .10000001 .118 .209 L .118 .21700001 M .119 .273 C .119 .347 .165 .41 .243 .41 C .33600004 .41 .347 .335 .35300002 .273 L .119 .273 Z "/>
</symbol>
<symbol id="font_0_3">
<path d="M .119 .36300005 C .118 .37000004 .118 .37700004 .118 .38400004 L .118 .42400003 C .118 .45100004 .10100001 .45500005 .083000008 .45500005 L .031000004 .45500005 C .014000006 .45500005 0 .44600005 0 .42200003 C 0 .41600005 .001000002 .41100005 .001000002 .40600003 L .001000002 .037000006 C .001000002 .020000002 .003000006 0 .031000004 0 L .08700001 0 C .104 0 .12200001 .004 .12200001 .030000002 L .12200001 .192 C .12200001 .22600001 .12200001 .25800003 .13900002 .28800003 C .16800002 .33800004 .22300002 .36400003 .279 .36900003 L .286 .36900003 C .296 .36900003 .3 .37200005 .3 .38300003 L .3 .44300006 C .3 .45500005 .296 .46000005 .284 .46000005 C .22 .46000005 .14000002 .41200004 .119 .36300005 Z "/>
</symbol>
<symbol id="font_0_4">
<path d="M .16600001 .47500003 C .096 .46800003 .006000001 .45100004 .006000001 .337 C .006000001 .26000003 .073 .21400002 .142 .19900002 C .19500001 .18800001 .292 .186 .292 .128 C .292 .076000008 .23300001 .071 .2 .071 C .138 .071 .08500001 .09200001 .037000006 .136 C .033999999 .13900002 .028 .14400001 .023000002 .14400001 C .011 .14400001 .012000002 .124000009 .010000002 .11400001 C .008000001 .09600001 0 .076000008 0 .058000003 C 0 .048 .008000001 .046 .015999999 .041 C .074 .015000001 .13700001 0 .2 0 C .28100003 0 .38200004 .024 .38200004 .14800002 C .38200004 .21900001 .324 .27 .259 .289 C .22800002 .29700003 .19600001 .30100004 .165 .30600003 C .138 .312 .096 .32400004 .096 .358 L .096 .363 C .105000007 .40800003 .15100001 .41000004 .187 .41000004 C .24000001 .41000004 .286 .395 .32700003 .36400003 C .331 .36200003 .335 .358 .34 .358 C .354 .358 .361 .41900004 .361 .432 C .361 .446 .33200003 .45200003 .316 .45700003 C .278 .47000004 .23900002 .47500003 .199 .47500003 L .16600001 .47500003 Z "/>
</symbol>
<symbol id="font_0_8">
<path d="M .226 .474 C .21100001 .472 .19600001 .47100003 .18100001 .469 C .13700001 .461 .094 .444 .061000006 .41300003 C .015000001 .36900003 0 .302 0 .23900001 C 0 .178 .011 .11500001 .053000004 .068 C .102 .014 .179 0 .249 0 C .31200005 0 .37600006 .013 .43200005 .043 C .43800003 .046000005 .44 .050000006 .44 .056 C .44 .080000009 .43700005 .128 .426 .12900001 L .425 .12900001 C .41400004 .12900001 .39200003 .108 .37700004 .10000001 C .339 .078 .29500003 .068 .25200004 .068 C .139 .068 .12300001 .158 .12300001 .23300001 C .12300001 .313 .135 .40600003 .25200004 .40600003 C .30700005 .40600003 .34500004 .396 .39500005 .358 C .40000005 .354 .40600003 .347 .41300006 .347 C .42400003 .347 .42400003 .363 .425 .36900003 L .431 .405 C .43200005 .41 .43400003 .415 .43400003 .42000003 C .43400003 .44 .36 .463 .33100004 .468 C .30700005 .47300003 .283 .474 .259 .474 L .226 .474 Z "/>
</symbol>
<symbol id="font_0_b">
<path d="M .12100001 .38300003 L .12100001 .68000009 C .12100001 .702 .11400001 .71500006 .083000008 .71500006 C .07200001 .71500006 .061000006 .71400007 .050000006 .71400007 C .044000009 .71400007 .038000004 .71500006 .032000007 .71500006 C .016000003 .71500006 0 .70600005 0 .68600007 L 0 .036000004 C 0 .020000002 .001000002 .007 .022 0 L .08700001 0 C .112 0 .12300001 .011 .12300001 .036000004 L .12300001 .24700001 C .12300001 .31400005 .157 .39600004 .24200002 .39600004 C .30900003 .39600004 .319 .35600005 .319 .31200005 L .319 .035000005 C .319 .012 .32700003 0 .35000003 0 L .40700004 0 C .42900003 0 .44300003 .010000001 .44300003 .034 C .44300003 .041000006 .44200004 .048000006 .44200004 .054000006 L .44200004 .293 C .44200004 .33100004 .44200004 .37100003 .423 .40500004 C .395 .45400004 .33400003 .46000005 .28500004 .46000005 C .21800003 .46000005 .16200002 .43200005 .12100001 .38300003 Z "/>
</symbol>
<symbol id="font_0_c">
<path d="M .023999997 .45000006 C .008000001 .44700004 .0029999987 .43300004 .0029999987 .41800005 L .0029999987 .032 C .0029999987 .004 .020999998 0 .04 0 L .092 0 C .11900001 0 .124000009 .016 .124000009 .035000005 L .124000009 .42000006 C .124000009 .44200004 .11200001 .45100004 .091 .45100004 L .036 .45100004 C .031999999 .45100004 .027999998 .45100004 .023999997 .45000006 M .020999998 .70800009 C .0050000029 .70600005 0 .69000008 0 .67700007 L 0 .61300006 C 0 .591 .013999999 .58300009 .031000004 .58300009 L .093 .58300009 C .11100001 .58300009 .12600002 .58900007 .12600002 .61300006 L .12600002 .679 C .12600002 .70400008 .11000001 .70900008 .094000007 .70900008 L .034 .70900008 C .029 .70900008 .024999999 .70900008 .020999998 .70800009 Z "/>
</symbol>
<symbol id="font_0_9">
<path d="M .356 .423 C .32100005 .45200003 .27100004 .469 .22500001 .469 C .171 .469 .11 .46 .069000009 .423 C .015000001 .37600003 0 .304 0 .23500002 C 0 .17700002 .009999998 .11100001 .049000004 .064 C .089 .016 .15200001 0 .212 0 C .265 0 .315 .02 .35400004 .055000005 C .35400004 .050000006 .35300005 .045 .35300005 .040000004 C .35300005 .010000001 .375 .009000001 .39200003 .009000001 L .44 .009000001 C .459 .009000001 .47700007 .012 .47700007 .040000004 L .47700007 .68900009 C .47700007 .71900007 .46100004 .72300007 .44200004 .72300007 L .38600005 .72300007 C .36900003 .72300007 .35500003 .71400007 .35500003 .6930001 C .35500003 .68700006 .356 .68100008 .356 .6750001 L .356 .423 M .12300001 .2 L .12300001 .24200002 C .12300001 .317 .135 .405 .259 .405 C .292 .405 .31800003 .395 .34400005 .372 C .348 .368 .35300005 .364 .35400004 .358 L .35400004 .133 C .35400004 .087000008 .272 .064 .249 .064 C .21500002 .064 .178 .072000008 .155 .098000008 C .12900001 .127 .127 .164 .12300001 .2 Z "/>
</symbol>
<symbol id="font_0_1">
<path d="M .120000008 .38000003 C .119 .38600005 .118 .39200003 .118 .39800004 C .118 .40600003 .119 .41400004 .119 .42100004 C .119 .43700005 .11400001 .45300005 .09500001 .45500005 L .022 .45500005 C .0060000049 .45100004 0 .43800003 0 .42200003 L 0 .031000002 C 0 .0019999999 .019000002 0 .036000007 0 L .091000009 0 C .12100001 0 .12300001 .019000002 .12300001 .036000004 L .12300001 .237 C .12300001 .293 .13300002 .37400005 .22 .39400003 C .22700003 .39500005 .23500002 .39600004 .243 .39600004 C .31300003 .39600004 .319 .35200004 .319 .30900003 L .319 .049000004 C .319 .043000007 .31800003 .037000006 .31800003 .031000002 C .31800003 .014 .32700003 0 .349 0 L .40700004 0 C .42900003 0 .44200004 .007 .44200004 .034 L .44200004 .30400003 C .44200004 .34400005 .44 .39000006 .411 .42100004 C .37700004 .45600004 .32900004 .46000005 .28300003 .46000005 L .27 .46000005 C .21400002 .45500005 .14500001 .42800004 .120000008 .38000003 Z "/>
</symbol>
<symbol id="font_0_2">
<path d="M .416 .60700008 C .282 .43900005 .157 .26400004 .024000004 .095 C .013999999 .08 0 .069 0 .048000006 L 0 .034 C 0 .001 .018 0 .038000004 0 L .547 0 C .56200006 0 .58000007 .004 .58000007 .028 L .58000007 .054000006 C .58000007 .071 .577 .088 .54800006 .088 L .532 .088 C .524 .088 .51500007 .087000008 .507 .087000008 L .453 .087000008 C .35500003 .082 .256 .084 .15800002 .082 C .17200002 .098000008 .18400002 .116000007 .197 .133 C .314 .28800003 .43100003 .44200004 .55 .59400007 C .56200006 .609 .573 .62100008 .573 .642 L .573 .651 C .573 .683 .555 .68500009 .536 .68500009 L .050000006 .68500009 C .018 .68500009 .016000003 .66800007 .016000003 .65000006 L .016000003 .64100006 C .016000003 .624 .016000003 .60300007 .048 .60300007 L .063 .60300007 C .181 .60300007 .298 .60700008 .416 .60700008 Z "/>
</symbol>
<symbol id="font_0_6">
<path d="M .319 .277 C .199 .277 0 .262 0 .133 C 0 .054000006 .068 0 .146 0 C .206 0 .273 .012 .321 .050000006 L .321 .040000004 C .321 .009000001 .342 .009000001 .359 .009000001 L .409 .009000001 C .426 .009000001 .442 .015000001 .442 .040000004 L .442 .327 C .43400003 .449 .333 .474 .24400002 .474 C .18400002 .474 .12799999 .46400003 .072000008 .441 C .062 .435 .046000005 .433 .046000005 .42000003 C .046000005 .395 .047 .344 .061000006 .344 C .066 .344 .07 .347 .074 .35 C .11900001 .39000003 .171 .412 .23300001 .412 C .292 .412 .319 .38 .319 .31 L .319 .277 M .319 .22700002 L .319 .14700002 C .319 .086 .261 .064 .20900002 .064 C .17300001 .064 .11900001 .083000008 .11900001 .134 C .11900001 .21900001 .263 .223 .319 .22700002 Z "/>
</symbol>
<symbol id="font_0_d">
<path d="M .022 .71300008 C .0040000008 .71300008 .001000002 .69000008 .001000002 .67800006 L .001000002 .054000006 C .001000002 .048000006 0 .041000006 0 .034 C 0 .017 .008000001 .0019999999 .024000004 0 L .08400001 0 C .118 0 .12200001 .014 .12200001 .033000005 L .12200001 .66 C .12200001 .66600009 .12300001 .67200008 .12300001 .679 C .12300001 .69600006 .11700001 .7120001 .098000008 .71400007 L .037000009 .71400007 C .032000007 .71400007 .027000003 .71400007 .022 .71300008 Z "/>
</symbol>
<symbol id="font_0_7">
<path d="M .25100003 .312 C .22600003 .411 .17900002 .503 .135 .595 C .113 .643 .101 .65500006 .064 .65500006 C .053999999 .65500006 .044 .65400007 .034 .65400007 L .026000003 .65400007 C .015000002 .65400007 .0030000006 .65300008 0 .64000007 L 0 .637 C 0 .62700006 .007000001 .615 .011000002 .60700008 C .071 .485 .12700002 .358 .18800001 .236 C .19400002 .22600001 .20300001 .21200001 .20300001 .20300001 C .20300001 .19500001 .19500003 .18200001 .19200002 .172 C .17700002 .132 .15900001 .079 .102000009 .079 C .078 .079 .053999999 .086 .033 .097 C .030000003 .098000008 .026000003 .1 .023 .1 C .016 .1 .013000002 .094000007 .013000002 .088 C .013000002 .061000006 .016 .0109999929 .029000001 .008000001 C .052 .001000002 .082 0 .106 0 C .16400002 0 .21100001 .031000004 .24500002 .075 C .275 .116000007 .29 .165 .30900003 .21200001 L .396 .43400003 C .41700004 .48700006 .439 .541 .46 .59400007 C .463 .605 .47400005 .62100008 .47400005 .63600006 C .47400005 .647 .46600003 .65400007 .45000003 .65400007 L .437 .65400007 C .42900003 .65400007 .419 .65500006 .41 .65500006 C .363 .65500006 .356 .619 .327 .542 C .3 .472 .255 .38 .25100003 .312 Z "/>
</symbol>
<symbol id="font_0_5">
<path d="M .082 .46 L .031999999 .46 C .012999998 .46 0 .448 0 .42900003 C 0 .41 .012 .39900003 .03 .39900003 L .08 .39900003 L .08 .135 C .08 .07 .097 0 .18200001 0 C .23800002 0 .298 .011 .347 .037 C .35300002 .040000004 .361 .043 .361 .050000006 L .361 .053000004 C .361 .066 .352 .102000009 .34100003 .102000009 C .33200003 .102000009 .32 .091000009 .31 .08500001 C .291 .074 .266 .068 .24500002 .068 C .20600002 .068 .19900002 .105000007 .19900002 .157 L .19900002 .39900003 L .31 .39900003 C .329 .39900003 .344 .409 .344 .42900003 C .344 .45000003 .331 .46 .30900003 .46 L .19900002 .46 L .19900002 .55500009 C .19900002 .57900008 .19000001 .59000006 .16200002 .59000006 C .15500002 .59000006 .14700002 .58900007 .14000002 .58900007 C .13300002 .58900007 .12600002 .59000006 .11900001 .59000006 C .1 .59000006 .082 .58500006 .082 .55500009 L .082 .46 Z "/>
</symbol>
<symbol id="font_0_f">
<path d="M .120000008 .38000003 L .119 .42000006 C .119 .44300006 .110000018 .45500005 .08600001 .45500005 L .022 .45500005 C .0050000029 .45000006 0 .43900005 0 .42200003 L 0 .031000002 C 0 .001 .020000004 0 .037000009 0 L .091000009 0 C .120000008 0 .12300001 .017 .12300001 .035000005 L .12300001 .237 C .12300001 .32200004 .16200002 .39600004 .245 .39600004 C .312 .39600004 .319 .35100005 .319 .31000004 L .319 .031000002 C .319 .001 .33900003 0 .356 0 L .409 0 C .43800003 0 .44200004 .016 .44200004 .034 L .44200004 .25200004 C .44200004 .31900005 .48300005 .39600004 .558 .39600004 C .63000008 .39600004 .638 .35700003 .638 .31100003 L .638 .022000002 C .64100006 .008 .652 0 .66800007 0 L .72800007 0 C .753 0 .762 .013 .762 .034 C .762 .042000005 .76100006 .050000006 .76100006 .056000007 L .76100006 .29700003 C .76100006 .33500005 .76000007 .37400005 .74 .40700004 C .71400007 .45100004 .65900006 .46000005 .61100009 .46000005 C .554 .46000005 .499 .44400005 .454 .39900003 C .44700004 .39200003 .44100005 .38300003 .43400003 .37600003 C .425 .44500003 .34100003 .46000005 .291 .46000005 C .23000002 .46000005 .15100001 .43500004 .120000008 .38000003 Z "/>
</symbol>
<use xlink:href="#font_0_e" transform="matrix(39.850557,0,0,-39.850557,3.3690143,30.737479)"/>
<use xlink:href="#font_0_a" transform="matrix(39.850557,0,0,-39.850557,32.935735,31.096133)"/>
<use xlink:href="#font_0_3" transform="matrix(39.850557,0,0,-39.850557,55.61531,30.737479)"/>
<use xlink:href="#font_0_4" transform="matrix(39.850557,0,0,-39.850557,69.602298,31.135985)"/>
<use xlink:href="#font_0_8" transform="matrix(39.850557,0,0,-39.850557,87.49385,31.096133)"/>
<use xlink:href="#font_0_b" transform="matrix(39.850557,0,0,-39.850557,109.27933,30.737479)"/>
<use xlink:href="#font_0_c" transform="matrix(39.850557,0,0,-39.850557,132.87247,30.737479)"/>
<use xlink:href="#font_0_a" transform="matrix(39.850557,0,0,-39.850557,141.95536,31.096133)"/>
<use xlink:href="#font_0_9" transform="matrix(39.850557,0,0,-39.850557,163.2003,31.096133)"/>
<use xlink:href="#font_0_a" transform="matrix(39.850557,0,0,-39.850557,186.63405,31.096133)"/>
<use xlink:href="#font_0_1" transform="matrix(39.850557,0,0,-39.850557,209.31362,30.737479)"/>
<use xlink:href="#font_0_a" transform="matrix(39.850557,0,0,-39.850557,231.31273,31.096133)"/>
<use xlink:href="#font_0_2" transform="matrix(39.850557,0,0,-39.850557,267.9269,30.737479)"/>
<use xlink:href="#font_0_6" transform="matrix(39.850557,0,0,-39.850557,294.73066,31.096133)"/>
<use xlink:href="#font_0_b" transform="matrix(39.850557,0,0,-39.850557,318.3366,30.737479)"/>
<use xlink:href="#font_0_d" transform="matrix(39.850557,0,0,-39.850557,342.00944,30.737479)"/>
<use xlink:href="#font_0_a" transform="matrix(39.850557,0,0,-39.850557,351.0126,31.096133)"/>
<use xlink:href="#font_0_1" transform="matrix(39.850557,0,0,-39.850557,373.69224,30.737479)"/>
<use xlink:href="#font_0_4" transform="matrix(39.850557,0,0,-39.850557,395.6913,31.135985)"/>
<use xlink:href="#font_0_7" transform="matrix(39.850557,0,0,-39.850557,413.1446,38.82714)"/>
<use xlink:href="#font_0_4" transform="matrix(39.850557,0,0,-39.850557,434.3428,31.135985)"/>
<use xlink:href="#font_0_5" transform="matrix(39.850557,0,0,-39.850557,451.51707,31.096133)"/>
<use xlink:href="#font_0_a" transform="matrix(39.850557,0,0,-39.850557,468.66877,31.096133)"/>
<use xlink:href="#font_0_f" transform="matrix(39.850557,0,0,-39.850557,491.3484,30.737479)"/>
<use xlink:href="#font_0_a" transform="matrix(39.850557,0,0,-39.850557,526.0102,31.096133)"/>
</g>
</svg>
