<?xml version="1.0" encoding="UTF-8" standalone="no"?>
<!DOCTYPE svg PUBLIC "-//W3C//DTD SVG 1.1//EN" "http://www.w3.org/Graphics/SVG/1.1/DTD/svg11.dtd">
<svg xmlns="http://www.w3.org/2000/svg" xmlns:xlink="http://www.w3.org/1999/xlink" version="1.1" width="33.22222pt" height="33.22222pt" viewBox="0 0 33.22222 33.22222">
<g enable-background="new">
<path transform="matrix(.27777777,0,0,-.27777777,0,33.22222)" d="M 0 0 L 153.672 0 L 153.672 162.641 L 0 162.641 Z " fill="#a0a0a0"/>
<path transform="matrix(.27777777,0,0,-.27777777,0,33.22222)" stroke-width="9.96264" stroke-linecap="butt" stroke-miterlimit="10" stroke-linejoin="miter" fill="none" stroke="#000000" d="M -37.6094 -28.6445 L 153.672 -28.6445 L 153.672 162.641 L -37.6094 162.641 L -37.6094 -28.6445 Z "/>
<clipPath id="cp0">
<path transform="matrix(.27777777,0,0,-.27777777,0,33.22222)" d="M 58.0313 78.9531 L 87.918 43.0859 L 28.1445 43.0859 L 58.0313 78.9531 Z "/>
</clipPath>
<g clip-path="url(#cp0)">
<path transform="matrix(.27777777,0,0,-.27777777,0,33.22222)" d="M 28.1445 43.0859 L 87.9179 43.0859 L 87.9179 78.953098 L 28.1445 78.953098 Z "/>
</g>
<path transform="matrix(.27777777,0,0,-.27777777,0,33.22222)" stroke-width="9.96264" stroke-linecap="butt" stroke-miterlimit="10" stroke-linejoin="miter" fill="none" stroke="#000000" d="M 58.0313 78.9531 L 87.918 43.0859 L 28.1445 43.0859 L 58.0313 78.9531 Z "/>
</g>
</svg>
